<svg width="16" height="17" viewBox="0 0 16 17" fill="none" xmlns="http://www.w3.org/2000/svg">
<g clip-path="url(#clip0_429_2492)">
<path d="M4.39333 1.31985C5.95333 0.113179 7.64667 1.58651 8.02667 3.87985C8.31333 3.87985 8.59333 3.95985 8.84667 4.10651C9.19333 3.70651 9.5 3.15985 9.38 2.54651C9.1 1.11318 10.7067 -0.0468211 12.2333 1.93318C13.44 3.49318 11.9667 5.18651 9.66667 5.56651C9.66667 5.85318 9.59333 6.13985 9.44 6.39318C9.84 6.73318 10.3867 7.03985 11 6.91985C12.42 6.63985 13.5867 8.23985 11.6067 9.77318C10.0467 10.9798 8.35333 9.50651 7.97333 7.21318C7.68667 7.21318 7.40667 7.12651 7.16 6.97985C6.81333 7.37985 6.5 7.93318 6.62 8.54651C6.9 9.97318 5.29333 11.1398 3.76667 9.15985C2.55333 7.59318 4.03333 5.89985 6.33333 5.52651C6.33333 5.23985 6.42 4.95985 6.56667 4.70651C6.16667 4.36651 5.62 4.05318 5 4.17318C3.58 4.45318 2.41333 2.85318 4.39333 1.31985ZM3.33333 11.5465H4.66667C5.02029 11.5465 5.35943 11.687 5.60948 11.937C5.85952 12.1871 6 12.5262 6 12.8798V16.8798H4.66667V15.5465H3.33333V16.8798H2V12.8798C2 12.5262 2.14048 12.1871 2.39052 11.937C2.64057 11.687 2.97971 11.5465 3.33333 11.5465ZM3.33333 12.8798V14.2132H4.66667V12.8798H3.33333ZM8.62 11.5465H10L8.04667 16.8798H6.66667L8.62 11.5465ZM12 11.5465H14V12.8798H12V15.5465H14V16.8798H12C11.6464 16.8798 11.3072 16.7394 11.0572 16.4893C10.8071 16.2393 10.6667 15.9001 10.6667 15.5465V12.8798C10.6667 12.5262 10.8071 12.1871 11.0572 11.937C11.3072 11.687 11.6464 11.5465 12 11.5465Z" fill="#404040"/>
</g>
<defs>
<clipPath id="clip0_429_2492">
<rect width="16" height="16" fill="white" transform="translate(0 0.879883)"/>
</clipPath>
</defs>
</svg>
