<svg width="16" height="17" viewBox="0 0 16 17" fill="none" xmlns="http://www.w3.org/2000/svg">
<path d="M4.66669 12.8798C4.66669 12.8798 2.66669 7.54647 2.66669 4.8798C2.66669 2.21313 4.00002 2.21313 4.00002 2.21313H4.66669C4.66669 2.21313 5.33335 2.21313 5.33335 2.8798C5.33335 3.54647 4.66669 3.54647 4.66669 4.8798C4.66669 6.21313 6.66669 7.54647 6.66669 9.54647C6.66669 11.5465 4.66669 12.8798 4.66669 12.8798ZM8.00002 12.2131C7.33335 12.2131 5.33335 13.8798 5.33335 13.8798C5.13335 14.0131 5.20002 14.2131 5.33335 14.4131C5.33335 14.4131 6.00002 15.6131 7.33335 15.6131H11.3334C12.0667 15.6131 12.6667 15.0131 12.6667 14.2798V13.6131C12.6667 12.8798 12.0667 12.2798 11.3334 12.2798H8.00002V12.2131Z" fill="#404040"/>
</svg>
