<svg width="401" height="285" viewBox="0 0 401 285" fill="none" xmlns="http://www.w3.org/2000/svg">
<g opacity="0.95">
<g clip-path="url(#clip0_604_3696)">
<path opacity="0.1" d="M401 207.542C401.022 219.114 396.862 230.469 390.867 240.367C390.867 252.472 387.224 263.444 378.07 271.441C375.779 273.443 372.312 275.235 369.699 276.794C369.594 276.86 369.486 276.923 369.378 276.986C369.182 277.101 368.986 277.217 368.787 277.336L368.601 277.444C359.937 282.273 350.171 284.781 340.252 284.724H76.9335C58.7761 284.724 42.3391 278.402 30.43 268.185C18.5209 257.969 14.1817 243.829 14.1817 228.234C7.51298 217.965 0.975324 205.978 0.999883 193.734C0.999883 159.07 28.7062 130.969 62.888 130.969C63.0978 130.969 65.2971 128.01 66.4894 128.077C87.937 91.5035 136.315 69 192.517 69C227.07 69 258.654 75.6329 282.846 91.5489C292.01 86.3685 302.361 86.6519 312.888 86.6643C347.063 86.6643 374.776 114.766 374.776 149.43C374.771 151.623 374.654 153.815 374.426 155.996C382.664 161.828 389.379 169.555 394.004 178.526C398.629 187.497 401.028 197.449 401 207.542Z" fill="#0E2645"/>
<path d="M398.297 264.572C398.253 264.689 398.165 264.784 398.051 264.836C397.938 264.888 397.808 264.893 397.691 264.849L23.6863 125.68C23.5696 125.636 23.475 125.548 23.4233 125.434C23.3716 125.321 23.3669 125.192 23.4104 125.075C23.4539 124.958 23.5419 124.863 23.6552 124.811C23.7684 124.759 23.8977 124.755 24.0146 124.798L398.02 263.967C398.136 264.011 398.231 264.099 398.283 264.213C398.335 264.326 398.34 264.455 398.297 264.572Z" fill="#F2F2F2"/>
<path d="M199.067 0H109.947C102.956 0.00791035 96.2538 2.78857 91.3105 7.73193C86.3671 12.6753 83.5864 19.3776 83.5785 26.3686V34.424C83.3956 34.3737 83.2035 34.3665 83.0174 34.4032C82.8312 34.4398 82.6562 34.5192 82.506 34.6351C82.3558 34.751 82.2346 34.9003 82.152 35.071C82.0693 35.2418 82.0275 35.4294 82.0299 35.6191V41.8138C82.0275 42.0035 82.0693 42.1911 82.152 42.3619C82.2346 42.5327 82.3558 42.6819 82.506 42.7978C82.6562 42.9137 82.8312 42.9931 83.0174 43.0297C83.2035 43.0664 83.3956 43.0592 83.5785 43.0089V52.3885C83.3956 52.3381 83.2035 52.3309 83.0174 52.3676C82.8312 52.4042 82.6561 52.4836 82.5059 52.5995C82.3557 52.7154 82.2346 52.8646 82.1519 53.0354C82.0693 53.2062 82.0275 53.3939 82.0299 53.5836V69.0702C82.0275 69.2598 82.0693 69.4475 82.1519 69.6183C82.2346 69.7891 82.3557 69.9383 82.5059 70.0542C82.6561 70.1701 82.8312 70.2495 83.0174 70.2861C83.2035 70.3228 83.3956 70.3156 83.5785 70.2653V75.9281C83.3956 75.8777 83.2035 75.8705 83.0174 75.9072C82.8312 75.9438 82.6561 76.0232 82.5059 76.1391C82.3557 76.255 82.2346 76.4043 82.1519 76.575C82.0693 76.7458 82.0275 76.9335 82.0299 77.1232V92.6098C82.0275 92.7995 82.0693 92.9871 82.1519 93.1579C82.2346 93.3287 82.3557 93.4779 82.5059 93.5938C82.6561 93.7097 82.8312 93.7891 83.0174 93.8258C83.2035 93.8624 83.3956 93.8552 83.5785 93.8049V257.345C83.5864 264.336 86.3671 271.039 91.3105 275.982C96.2538 280.925 102.956 283.706 109.947 283.714H199.067C206.058 283.706 212.76 280.925 217.704 275.982C222.647 271.039 225.428 264.336 225.436 257.345V26.3686C225.428 19.3776 222.647 12.6753 217.704 7.73193C212.76 2.78857 206.058 0.00791035 199.067 0ZM219.86 257.345C219.854 262.858 217.661 268.144 213.763 272.042C209.865 275.94 204.58 278.133 199.067 278.139H109.947C104.434 278.133 99.1491 275.94 95.2509 272.042C91.3527 268.143 89.16 262.858 89.1537 257.345V26.3686C89.16 20.8558 91.3527 15.5705 95.2509 11.6723C99.1491 7.77416 104.434 5.58142 109.947 5.57517H199.067C204.58 5.58141 209.865 7.77415 213.763 11.6723C217.661 15.5705 219.854 20.8558 219.86 26.3686V257.345Z" fill="#3F3D56"/>
<path d="M199.067 281.236H109.947C103.613 281.229 97.5406 278.71 93.0618 274.231C88.5829 269.752 86.0636 263.679 86.0564 257.345V26.3687C86.0636 20.0347 88.5829 13.9621 93.0618 9.48329C97.5406 5.00446 103.613 2.48509 109.947 2.47791H199.067C205.401 2.48509 211.473 5.00445 215.952 9.48328C220.431 13.9621 222.951 20.0346 222.958 26.3687V257.345C222.951 263.679 220.431 269.752 215.952 274.231C211.473 278.71 205.401 281.229 199.067 281.236Z" fill="#E6E6E6"/>
<path d="M201.269 277.519H107.745C103.473 277.514 99.3773 275.815 96.3565 272.795C93.3357 269.774 91.6365 265.678 91.6316 261.406V22.3079C91.6364 18.0359 93.3356 13.9402 96.3564 10.9194C99.3772 7.89864 103.473 6.19944 107.745 6.19459H119.942C120.648 6.1954 121.325 6.47626 121.824 6.97554C122.323 7.47483 122.604 8.15177 122.605 8.85786C122.607 10.9438 123.437 12.9436 124.912 14.4185C126.387 15.8935 128.386 16.7231 130.472 16.7255H177.303C179.389 16.7231 181.389 15.8935 182.864 14.4185C184.338 12.9436 185.168 10.9438 185.17 8.85785C185.171 8.15176 185.452 7.47482 185.951 6.97554C186.451 6.47625 187.128 6.19539 187.834 6.19458H201.269C205.541 6.19942 209.637 7.89862 212.658 10.9194C215.678 13.9402 217.378 18.0358 217.383 22.3079V261.406C217.378 265.678 215.678 269.774 212.658 272.795C209.637 275.815 205.541 277.514 201.269 277.519Z" fill="white"/>
<path d="M158.534 11.6149H147.383C147.055 11.6149 146.739 11.4844 146.507 11.2521C146.275 11.0197 146.144 10.7046 146.144 10.376C146.144 10.0474 146.275 9.7323 146.507 9.49996C146.739 9.26761 147.055 9.13708 147.383 9.13708H158.534C158.862 9.13708 159.177 9.26761 159.41 9.49996C159.642 9.7323 159.772 10.0474 159.772 10.376C159.772 10.7046 159.642 11.0197 159.41 11.2521C159.177 11.4844 158.862 11.6149 158.534 11.6149Z" fill="white"/>
<path d="M166.277 11.3052C166.619 11.3052 166.896 11.0279 166.896 10.6857C166.896 10.3436 166.619 10.0663 166.277 10.0663C165.935 10.0663 165.657 10.3436 165.657 10.6857C165.657 11.0279 165.935 11.3052 166.277 11.3052Z" fill="white"/>
<path d="M220.395 54.5883H88.4954V56H220.395V54.5883Z" fill="#E6E6E6"/>
<path d="M220.395 82.8235H88.4954V84.2353H220.395V82.8235Z" fill="#E6E6E6"/>
<path d="M220.395 141.177H88.4954V142.588H220.395V141.177Z" fill="#E6E6E6"/>
<path d="M220.395 199.529H88.4954V200.941H220.395V199.529Z" fill="#E6E6E6"/>
<path d="M220.395 245.177H88.4954V246.588H220.395V245.177Z" fill="#E6E6E6"/>
<path d="M184.284 55.2941H182.873V141.882H184.284V55.2941Z" fill="#E6E6E6"/>
<path d="M118.254 141.857H116.842V245.882H118.254V141.857Z" fill="#E6E6E6"/>
<path d="M217.383 170.392H117.548V171.803H217.383V170.392Z" fill="#E6E6E6"/>
<path d="M184.436 245.882H183.024V277.519H184.436V245.882Z" fill="#E6E6E6"/>
<path d="M183.343 112.578H91.3962V113.99H183.343V112.578Z" fill="#E6E6E6"/>
<path d="M110.598 5.30262L109.296 5.84766L130.103 55.5666L131.405 55.0216L110.598 5.30262Z" fill="#E6E6E6"/>
<path d="M174.68 16.7255H173.268V55.2942H174.68V16.7255Z" fill="#E6E6E6"/>
<path d="M211.084 76.7059C211.084 89.3554 191.526 118.831 185.811 127.175C185.638 127.427 185.407 127.633 185.137 127.776C184.867 127.919 184.566 127.993 184.26 127.993C183.955 127.993 183.654 127.919 183.383 127.776C183.113 127.633 182.882 127.427 182.709 127.175C176.994 118.831 157.437 89.3554 157.437 76.7059C157.437 69.5918 160.263 62.7691 165.293 57.7388C170.323 52.7084 177.146 49.8823 184.26 49.8823C191.374 49.8823 198.197 52.7084 203.227 57.7388C208.258 62.7691 211.084 69.5918 211.084 76.7059Z" fill="#0E2645"/>
<path d="M184.26 88.4706C191.797 88.4706 197.907 82.3606 197.907 74.8236C197.907 67.2865 191.797 61.1765 184.26 61.1765C176.723 61.1765 170.613 67.2865 170.613 74.8236C170.613 82.3606 176.723 88.4706 184.26 88.4706Z" fill="white"/>
<path d="M183.366 142.288L131.683 245.551L132.946 246.182L184.629 142.92L183.366 142.288Z" fill="#E6E6E6"/>
<path d="M257.798 165.002C258.408 165.33 259.081 165.52 259.772 165.559C260.463 165.598 261.154 165.485 261.796 165.228C262.438 164.971 263.017 164.577 263.49 164.072C263.963 163.568 264.32 162.965 264.536 162.308L281.35 162.017L276.413 154.806L261.203 156.188C260.075 155.899 258.88 156.034 257.845 156.568C256.809 157.101 256.005 157.996 255.586 159.083C255.166 160.169 255.159 161.372 255.567 162.463C255.975 163.554 256.769 164.457 257.798 165.002Z" fill="#FFB8B8"/>
<path d="M267.892 164.793C267.631 164.793 267.373 164.74 267.134 164.637C266.894 164.535 266.678 164.385 266.498 164.197C266.317 164.009 266.177 163.786 266.086 163.542C265.994 163.298 265.952 163.038 265.964 162.778L266.303 155.068C266.322 154.609 266.504 154.171 266.818 153.835C267.131 153.499 267.554 153.287 268.011 153.236L287.489 151.002L286.837 163.85L267.987 164.79C267.955 164.792 267.924 164.793 267.892 164.793Z" fill="#0E2645"/>
<path d="M291.614 270.473L286.13 272.264L276.612 251.963L284.706 249.32L291.614 270.473Z" fill="#FFB8B8"/>
<path d="M294.75 275.332L277.066 281.107L276.993 280.884C276.698 279.98 276.584 279.027 276.657 278.079C276.73 277.131 276.989 276.206 277.419 275.358C277.85 274.511 278.443 273.756 279.165 273.137C279.887 272.518 280.724 272.048 281.628 271.753L292.429 268.225L294.75 275.332Z" fill="#2F2E41"/>
<path d="M307.768 278.963L301.998 278.962L299.254 256.709L307.769 256.71L307.768 278.963Z" fill="#FFB8B8"/>
<path d="M309.239 284.555L290.636 284.554V284.319C290.636 283.368 290.824 282.427 291.188 281.548C291.552 280.67 292.085 279.872 292.757 279.199C293.43 278.527 294.228 277.994 295.106 277.63C295.985 277.266 296.926 277.079 297.877 277.079H297.878L309.239 277.079L309.239 284.555Z" fill="#2F2E41"/>
<path d="M299.005 273.547C298.533 273.546 298.078 273.373 297.726 273.06C297.373 272.746 297.147 272.315 297.091 271.847L289.652 209.661L278.764 227.139L291.539 259.787C291.713 260.239 291.712 260.739 291.537 261.189C291.361 261.64 291.024 262.009 290.591 262.224L279.753 267.527C279.506 267.648 279.235 267.715 278.96 267.723C278.685 267.731 278.411 267.679 278.157 267.573C277.903 267.466 277.675 267.306 277.488 267.104C277.302 266.902 277.16 266.662 277.074 266.4L265.063 230.114C264.158 227.383 264.04 224.453 264.722 221.658L272.488 189.789L272.579 189.74L290.084 180.151L290.185 180.188L310.8 187.712L308.642 228.567L310.21 270.971C310.231 271.475 310.054 271.967 309.715 272.341C309.377 272.715 308.905 272.94 308.401 272.968L299.126 273.543C299.085 273.545 299.045 273.547 299.005 273.547Z" fill="#2F2E41"/>
<path d="M287.649 201.899C284.569 201.899 281.974 201.022 280.351 198.792L280.298 198.72L281.349 187.696L272.005 192.883C271.812 192.99 271.59 193.035 271.369 193.013C271.149 192.99 270.941 192.9 270.773 192.755C270.605 192.611 270.486 192.418 270.431 192.203C270.377 191.989 270.389 191.762 270.467 191.555L282.12 160.61L289.814 135.401C290.195 133.384 291.181 131.53 292.639 130.085C294.098 128.639 295.961 127.672 297.982 127.309C304.836 126.05 308.919 128.363 313.632 133.495C314.772 134.744 315.612 136.236 316.087 137.859C316.562 139.482 316.66 141.192 316.374 142.858L311.915 168.345L313.225 191.197C313.325 191.591 313.298 192.007 313.148 192.384C312.998 192.762 312.732 193.083 312.389 193.3C308.744 195.62 297.568 201.898 287.649 201.899Z" fill="#0E2645"/>
<path d="M303.242 123.492C309.626 123.492 314.801 118.317 314.801 111.934C314.801 105.551 309.626 100.376 303.242 100.376C296.859 100.376 291.684 105.551 291.684 111.934C291.684 118.317 296.859 123.492 303.242 123.492Z" fill="#FFB8B8"/>
<path d="M306.253 194.324C306.882 194.035 307.44 193.613 307.888 193.085C308.336 192.558 308.662 191.939 308.845 191.272C309.028 190.604 309.062 189.905 308.945 189.223C308.829 188.541 308.564 187.893 308.169 187.325L318.082 173.741L309.353 173.327L301.278 186.29C300.367 187.016 299.754 188.05 299.555 189.198C299.356 190.345 299.584 191.526 300.197 192.516C300.811 193.507 301.766 194.238 302.882 194.571C303.998 194.904 305.198 194.816 306.253 194.324Z" fill="#FFB8B8"/>
<path d="M311.622 186.658C311.138 186.727 310.646 186.61 310.245 186.33L303.683 181.754C303.288 181.481 303.01 181.07 302.903 180.603C302.796 180.135 302.868 179.644 303.104 179.227L314.787 158.44L303.037 144.297C302.42 143.554 301.964 142.691 301.699 141.762C301.434 140.834 301.365 139.86 301.496 138.904C301.628 137.947 301.957 137.028 302.463 136.206C302.969 135.383 303.641 134.675 304.435 134.127C305.23 133.578 306.13 133.201 307.078 133.019C308.027 132.837 309.002 132.854 309.943 133.07C310.885 133.286 311.771 133.696 312.545 134.273C313.319 134.85 313.965 135.581 314.441 136.422L327.415 159.321C327.507 159.484 327.555 159.668 327.555 159.855C327.555 160.042 327.507 160.226 327.414 160.389L313.026 185.701C312.893 185.934 312.713 186.137 312.498 186.297C312.282 186.457 312.036 186.57 311.774 186.63C311.723 186.642 311.672 186.651 311.622 186.658Z" fill="#0E2645"/>
<path d="M298.623 110.459C297.479 109.605 295.896 109.738 294.54 109.29C293.733 109.024 293.01 108.55 292.444 107.916C291.878 107.282 291.489 106.51 291.315 105.678C291.142 104.847 291.19 103.984 291.455 103.176C291.72 102.369 292.192 101.645 292.825 101.078C294.289 99.766 296.372 99.4683 298.323 99.2283C300.996 98.8995 303.694 98.5702 306.374 98.8316C309.055 99.0931 311.752 99.9984 313.712 101.846C315.871 103.883 316.935 106.916 316.942 109.885C316.867 112.868 316.048 115.785 314.56 118.371C314.1 119.354 313.407 120.209 312.54 120.863C311.639 121.458 310.368 121.614 309.5 120.971C308.749 120.415 308.475 119.442 308.136 118.572C307.797 117.703 307.218 116.776 306.294 116.642C305.104 116.469 304.197 117.679 303.061 118.075C301.473 118.628 299.709 117.404 299.062 115.852C298.414 114.3 298.584 112.544 298.766 110.872" fill="#2F2E41"/>
<path d="M400.5 284.235C400.5 284.36 400.45 284.479 400.362 284.568C400.274 284.656 400.154 284.705 400.029 284.706H0.970588C0.84578 284.706 0.726084 284.656 0.637832 284.568C0.549579 284.48 0.5 284.36 0.5 284.235C0.5 284.11 0.549579 283.991 0.637832 283.902C0.726084 283.814 0.84578 283.765 0.970588 283.765H400.029C400.154 283.765 400.274 283.815 400.362 283.903C400.45 283.991 400.5 284.111 400.5 284.235Z" fill="#CCCCCC"/>
<path d="M184.26 147.765C187.639 147.765 190.378 145.026 190.378 141.647C190.378 138.268 187.639 135.529 184.26 135.529C180.882 135.529 178.143 138.268 178.143 141.647C178.143 145.026 180.882 147.765 184.26 147.765Z" fill="#0E2645"/>
<path d="M270.387 74.7581C267.832 78.1632 256.614 82.1475 253.39 83.2391C253.293 83.2722 253.189 83.281 253.087 83.2648C252.986 83.2486 252.889 83.2079 252.807 83.1462C252.725 83.0845 252.659 83.0036 252.615 82.9107C252.571 82.8177 252.551 82.7154 252.555 82.6127C252.702 79.2122 253.391 67.3275 255.946 63.9224C257.383 62.0074 259.521 60.7417 261.892 60.4036C264.262 60.0655 266.669 60.6828 268.584 62.1197C270.499 63.5567 271.765 65.6954 272.103 68.0656C272.441 70.4358 271.824 72.8431 270.387 74.7581Z" fill="#F2F2F2"/>
<path d="M263.547 73.4264C266.083 73.4264 268.139 71.3701 268.139 68.8336C268.139 66.2971 266.083 64.2408 263.547 64.2408C261.01 64.2408 258.954 66.2971 258.954 68.8336C258.954 71.3701 261.01 73.4264 263.547 73.4264Z" fill="white"/>
<path d="M250.05 88.8805C251.187 88.8805 252.108 87.9587 252.108 86.8216C252.108 85.6846 251.187 84.7628 250.05 84.7628C248.912 84.7628 247.991 85.6846 247.991 86.8216C247.991 87.9587 248.912 88.8805 250.05 88.8805Z" fill="#F2F2F2"/>
<path d="M46.4656 168.16C50.2253 173.904 50.1051 193.101 49.9897 198.589C49.9864 198.755 49.9426 198.917 49.8623 199.062C49.782 199.207 49.6675 199.331 49.5287 199.422C49.39 199.512 49.2312 199.568 49.0661 199.584C48.901 199.599 48.7346 199.574 48.5813 199.511C43.5061 197.421 25.8648 189.849 22.1051 184.105C21.0567 182.505 20.3338 180.715 19.9776 178.836C19.6214 176.957 19.639 175.026 20.0293 173.154C20.4196 171.282 21.175 169.505 22.2523 167.924C23.3296 166.344 24.7077 164.992 26.3079 163.944C27.9081 162.897 29.699 162.175 31.5782 161.82C33.4575 161.465 35.3883 161.484 37.2603 161.876C39.1322 162.267 40.9087 163.024 42.4882 164.102C44.0677 165.18 45.4193 166.559 46.4656 168.16Z" fill="#F2F2F2"/>
<path d="M33.726 182.684C37.8164 182.684 41.1323 179.368 41.1323 175.278C41.1323 171.187 37.8164 167.871 33.726 167.871C29.6355 167.871 26.3196 171.187 26.3196 175.278C26.3196 179.368 29.6355 182.684 33.726 182.684Z" fill="white"/>
<path d="M53.5869 208.942C55.4206 208.942 56.907 207.455 56.907 205.622C56.907 203.788 55.4206 202.302 53.5869 202.302C51.7533 202.302 50.2668 203.788 50.2668 205.622C50.2668 207.455 51.7533 208.942 53.5869 208.942Z" fill="#F2F2F2"/>
</g>
</g>
<defs>
<clipPath id="clip0_604_3696">
<rect width="400" height="284.706" fill="white" transform="translate(0.5)"/>
</clipPath>
</defs>
</svg>
