<svg width="25" height="24" viewBox="0 0 25 24" fill="none" xmlns="http://www.w3.org/2000/svg">
<path d="M13 11.5C12.2896 11.5 11.6083 11.2366 11.106 10.7678C10.6036 10.2989 10.3214 9.66304 10.3214 9C10.3214 8.33696 10.6036 7.70107 11.106 7.23223C11.6083 6.76339 12.2896 6.5 13 6.5C13.7104 6.5 14.3917 6.76339 14.894 7.23223C15.3964 7.70107 15.6786 8.33696 15.6786 9C15.6786 9.3283 15.6093 9.65339 15.4747 9.95671C15.3401 10.26 15.1428 10.5356 14.894 10.7678C14.6453 10.9999 14.35 11.1841 14.025 11.3097C13.7001 11.4353 13.3518 11.5 13 11.5ZM13 2C11.0109 2 9.10322 2.7375 7.6967 4.05025C6.29018 5.36301 5.5 7.14348 5.5 9C5.5 14.25 13 22 13 22C13 22 20.5 14.25 20.5 9C20.5 7.14348 19.7098 5.36301 18.3033 4.05025C16.8968 2.7375 14.9891 2 13 2Z" fill="#404040"/>
</svg>
