<svg width="90" height="90" viewBox="0 0 90 90" fill="none" xmlns="http://www.w3.org/2000/svg">
<path opacity="0.15" d="M58.125 45C67.5 45 75 52.5 75 61.875C75 65.175 74.0625 68.25 72.4125 70.875L83.9625 82.5L78.75 87.7125L67.05 76.2C64.4625 77.8125 61.3875 78.75 58.125 78.75C48.75 78.75 41.25 71.25 41.25 61.875C41.25 52.5 48.75 45 58.125 45ZM58.125 52.5C55.6386 52.5 53.254 53.4877 51.4959 55.2459C49.7377 57.004 48.75 59.3886 48.75 61.875C48.75 64.3614 49.7377 66.746 51.4959 68.5041C53.254 70.2623 55.6386 71.25 58.125 71.25C60.6114 71.25 62.996 70.2623 64.7541 68.5041C66.5123 66.746 67.5 64.3614 67.5 61.875C67.5 59.3886 66.5123 57.004 64.7541 55.2459C62.996 53.4877 60.6114 52.5 58.125 52.5ZM73.125 7.5C73.6223 7.5 74.0992 7.69754 74.4508 8.04918C74.8025 8.40081 75 8.87772 75 9.375V44.2875C72.825 42.225 70.3125 40.5375 67.5 39.375V17.625L56.25 21.975V37.5C53.625 37.7625 51.075 38.4 48.75 39.375V22.0125L33.75 16.7625V60.4875V61.875C33.75 64.275 34.0875 66.6 34.725 68.775L30 67.125L9.975 74.8875L9.375 75C8.87772 75 8.40081 74.8025 8.04918 74.4508C7.69754 74.0992 7.5 73.6223 7.5 73.125V16.425C7.5 15.5625 8.0625 14.8875 8.85 14.625L30 7.5L52.5 15.375L72.525 7.6125L73.125 7.5ZM15 20.475V64.9125L26.25 60.5625V16.6875L15 20.475Z" fill="#E3EDF9"/>
</svg>
