<svg width="20" height="12" viewBox="0 0 20 12" fill="none" xmlns="http://www.w3.org/2000/svg">
<path d="M3.2 0H18C19.1 0 20 0.9 20 2V10C20 11.1 19.1 12 18 12H3.2V0Z" fill="#FF0000"/>
<path d="M2 0H8.2V12H2C0.9 12 0 11.1 0 10V2C0 0.9 0.9 0 2 0Z" fill="#006600"/>
<path fill-rule="evenodd" clip-rule="evenodd" d="M10.5 7.9C9.6 7.9 5.5 5.3 5.5 4.9L5.7 4.5C6.1 5.1 10.3 7.6 10.7 7.5L10.5 7.9Z" fill="#FFFF00"/>
<path d="M10.5 7.90002C9.99999 7.90002 8.69999 7.20002 7.59999 6.50002C6.59999 5.90002 5.39999 5.10002 5.39999 4.80002L5.59999 4.40002C5.79999 4.70002 6.99999 5.50002 8.09999 6.20002C9.39999 7.00002 10.4 7.50002 10.6 7.50002L10.5 7.90002ZM5.49999 4.80002C5.49999 5.00002 6.39999 5.70002 7.69999 6.50002C8.69999 7.10002 10.1 7.90002 10.5 7.90002L10.7 7.50002C10.4 7.50002 9.29999 6.90002 8.19999 6.20002C7.09999 5.60002 5.99999 4.80002 5.69999 4.50002L5.49999 4.80002Z" fill="black"/>
<path fill-rule="evenodd" clip-rule="evenodd" d="M5.69999 4.39997C5.59999 4.59997 6.79999 5.29997 8.09999 6.19997C9.49999 7.09997 10.7 7.59997 10.8 7.49997V7.39997H10.7C10.3 7.29997 9.29999 6.79997 8.09999 6.09997C6.99999 5.39997 5.89999 4.69997 5.69999 4.39997C5.69999 4.29997 5.69999 4.39997 5.69999 4.39997ZM10.6 7.89997C10.5 7.89997 10.5 7.89997 10.6 7.89997C10.2 7.89997 9.09999 7.39997 7.89999 6.69997C6.49999 5.79997 5.29999 4.99997 5.49999 4.79997V4.69997C5.39999 5.09997 7.79999 6.49997 7.89999 6.59997C9.29999 7.39997 10.5 7.89997 10.6 7.89997Z" fill="#FFFF00"/>
<path d="M10.5 7.89999C10.1 7.89999 9.09998 7.29999 7.89998 6.59999C6.29998 5.59999 5.49998 5.09999 5.49998 4.79999C5.49998 4.79999 5.49998 4.79999 5.49998 4.69999V4.59999C5.49998 4.69999 5.69999 5.09999 7.79998 6.29999C7.79998 6.29999 7.89998 6.29999 7.89998 6.39999C9.29998 7.29999 10.5 7.79999 10.6 7.59999L10.5 7.89999C10.6 7.89999 10.6 7.89999 10.5 7.89999C10.5 7.89999 10.6 7.89999 10.5 7.89999ZM5.49998 4.79999C5.49998 5.09999 6.29998 5.69999 7.89998 6.59999C9.09998 7.29999 10.1 7.79999 10.5 7.89999C10.6 7.89999 10.6 7.89999 10.6 7.89999C10.4 7.99999 9.29998 7.49999 7.99998 6.59999C7.99998 6.59999 7.99998 6.59999 7.89998 6.49999C6.29998 5.59999 5.49998 4.99999 5.49998 4.79999ZM10.8 7.49999C10.6 7.49999 9.49999 6.99999 8.09999 6.19999C6.59999 5.29999 5.59998 4.59999 5.69998 4.39999V4.29999V4.39999C5.89998 4.69999 7.09999 5.49999 8.09999 6.09999C9.29999 6.79999 10.3 7.29999 10.8 7.49999C10.8 7.39999 10.8 7.39999 10.8 7.49999C10.9 7.39999 10.9 7.39999 10.8 7.49999C10.9 7.39999 10.9 7.39999 10.8 7.49999C10.9 7.39999 10.9 7.39999 10.8 7.49999ZM5.69998 4.39999C5.59998 4.59999 6.99999 5.39999 8.09999 6.19999C9.49999 7.09999 10.7 7.59999 10.8 7.49999H10.7C10.3 7.39999 9.29999 6.89999 8.09999 6.19999C7.09999 5.49999 5.89998 4.69999 5.69998 4.39999Z" fill="black"/>
<path fill-rule="evenodd" clip-rule="evenodd" d="M8.19999 5.10002C9.09999 5.10002 10.2 5.00002 10.8 4.70002L10.7 4.50002C10.3 4.70002 9.19999 4.80002 8.19999 4.90002C6.99999 4.80002 6.19999 4.70002 5.69999 4.40002L5.59999 4.70002C6.39999 5.00002 7.19999 5.10002 8.19999 5.10002Z" fill="#FFFF00"/>
<path d="M8.19999 5.1C7.19999 5.1 6.39999 5 5.59999 4.7L5.69999 4.5C6.09999 4.8 6.89999 4.9 8.19999 4.9C9.09999 4.9 10.3 4.8 10.7 4.5L10.8 4.7C10.2 5 9.09999 5.1 8.19999 5.1ZM5.59999 4.7C6.39999 5 7.19999 5.1 8.19999 5.1C8.99999 5.1 10.2 5 10.8 4.7L10.7 4.5C10.3 4.7 9.09999 4.8 8.19999 4.9C6.89999 4.9 6.09999 4.8 5.69999 4.5L5.59999 4.7Z" fill="black"/>
<path fill-rule="evenodd" clip-rule="evenodd" d="M10.9 4.70002C10.9 4.70002 10.5 4.90002 9.79999 5.00002C9.39999 5.10002 8.79999 5.10002 8.19999 5.10002C7.59999 5.10002 6.99999 5.10002 6.59999 5.00002C5.99999 4.90002 5.69999 4.80002 5.59999 4.70002C5.59999 4.70002 5.59999 4.70002 5.59999 4.60002C5.99999 4.70002 6.29999 4.80002 6.69999 4.90002C7.09999 5.00002 7.59999 5.00002 8.19999 5.00002C8.89999 5.00002 9.39999 5.00002 9.79999 4.90002C10.5 4.80002 10.8 4.70002 10.9 4.70002ZM10.8 4.50002C10.7 4.60002 10.4 4.70002 9.79999 4.80002C9.39999 4.80002 8.89999 4.90002 8.19999 4.90002C7.59999 4.90002 7.09999 4.90002 6.69999 4.80002C6.09999 4.70002 5.79999 4.60002 5.69999 4.50002C5.69999 4.50002 5.69999 4.50002 5.69999 4.40002C5.79999 4.40002 6.09999 4.60002 6.69999 4.70002C7.09999 4.80002 7.59999 4.80002 8.19999 4.80002C8.79999 4.80002 9.29999 4.70002 9.69999 4.70002C10.4 4.60002 10.7 4.40002 10.8 4.50002Z" fill="#FFFF00"/>
<path d="M8.19999 5.10002C7.69999 5.10002 7.09999 5.10002 6.59999 5.00002C5.99999 4.90002 5.69999 4.80002 5.59999 4.70002C5.89999 4.80002 6.29999 4.90002 6.69999 5.00002C7.19999 5.00002 7.69999 5.00002 8.19999 5.10002C8.19999 5.00002 8.19999 5.00002 8.19999 5.10002C8.79999 5.00002 9.29999 5.00002 9.79999 4.90002C10.4 4.80002 10.8 4.70002 10.8 4.60002V4.70002C10.8 4.70002 10.3 4.90002 9.69999 5.00002C9.29999 5.10002 8.79999 5.10002 8.19999 5.10002ZM5.59999 4.70002C5.69999 4.80002 5.99999 4.90002 6.69999 5.00002C7.19999 5.10002 7.69999 5.10002 8.29999 5.10002C8.89999 5.10002 9.39999 5.10002 9.89999 5.00002C10.5 4.90002 10.9 4.80002 10.9 4.70002V4.60002C10.8 4.70002 10.5 4.80002 9.89999 4.90002C9.29999 5.00002 8.79999 5.00002 8.19999 5.00002C7.69999 5.00002 7.19999 5.00002 6.69999 4.90002C6.29999 4.90002 5.89999 4.80002 5.59999 4.70002ZM8.19999 4.90002C7.69999 4.90002 7.09999 4.90002 6.69999 4.80002C6.19999 4.70002 5.89999 4.60002 5.69999 4.60002C5.69999 4.60002 5.69999 4.60002 5.69999 4.50002C5.79999 4.50002 6.09999 4.70002 6.69999 4.80002C6.99999 4.70002 7.49999 4.80002 8.19999 4.90002C8.89999 4.80002 9.39999 4.80002 9.79999 4.70002C10.4 4.60002 10.7 4.50002 10.8 4.40002V4.50002C10.7 4.60002 10.4 4.70002 9.79999 4.80002C9.29999 4.80002 8.79999 4.90002 8.19999 4.90002ZM5.69999 4.50002C5.89999 4.60002 6.19999 4.70002 6.69999 4.80002C7.09999 4.90002 7.69999 4.90002 8.19999 4.90002C8.69999 4.90002 9.19999 4.90002 9.79999 4.80002C10.4 4.70002 10.7 4.60002 10.8 4.50002V4.40002C10.7 4.40002 10.4 4.60002 9.79999 4.70002C9.49999 4.70002 8.99999 4.80002 8.29999 4.80002C7.49999 4.80002 6.99999 4.70002 6.69999 4.70002C6.09999 4.60002 5.79999 4.50002 5.69999 4.50002Z" fill="black"/>
<path fill-rule="evenodd" clip-rule="evenodd" d="M5.3 6.19996C5.9 6.49996 7.1 6.69996 8.2 6.69996C9.3 6.69996 10.6 6.49996 11.1 6.29996V5.99996C11 6.09996 9.5 6.39996 8.2 6.39996C6.9 6.39996 5.7 6.19996 5.3 5.89996V6.19996Z" fill="#FFFF00"/>
<path d="M8.2 6.59999C7.2 6.59999 5.8 6.49999 5.2 6.09999V5.79999C5.6 6.09999 6.8 6.29999 8.1 6.29999C9.4 6.29999 10.9 6.09999 11 5.79999V6.09999C10.6 6.49999 9.3 6.59999 8.2 6.59999ZM5.3 6.19999C5.9 6.49999 7.2 6.59999 8.2 6.69999C9.2 6.69999 10.6 6.49999 11.1 6.29999V5.99999C10.9 6.29999 9.5 6.49999 8.2 6.49999C6.9 6.49999 5.7 6.29999 5.3 5.99999V6.19999Z" fill="black"/>
<path fill-rule="evenodd" clip-rule="evenodd" d="M11.2 6.09999C11.1 6.29999 10.6 6.39999 10 6.49999C9.6 6.59999 9 6.69999 8.2 6.69999C7.5 6.69999 6.9 6.59999 6.5 6.59999C5.8 6.39999 5.3 6.29999 5.2 6.19999V6.09999C5.5 6.29999 6.2 6.39999 6.4 6.49999C6.8 6.59999 7.4 6.59999 8.1 6.59999C8.8 6.59999 9.4 6.49999 9.9 6.49999C10.4 6.39999 11.1 6.19999 11.2 6.09999ZM11.2 5.89999C11.1 5.99999 10.6 6.19999 10 6.29999C9.6 6.29999 9 6.39999 8.2 6.39999C7.5 6.39999 6.9 6.29999 6.5 6.29999C5.8 6.19999 5.3 5.99999 5.2 5.89999V5.79999C5.5 5.99999 6.2 6.09999 6.4 6.19999C6.8 6.29999 7.4 6.29999 8.1 6.29999C8.8 6.29999 9.4 6.19999 9.9 6.19999C10.4 6.09999 11.1 5.99999 11.2 5.89999Z" fill="#FFFF00"/>
<path d="M8.2 6.69996C7.6 6.69996 7 6.69996 6.5 6.59996C5.8 6.39996 5.3 6.29996 5.2 6.19996V6.09996C5.5 6.29996 6.2 6.39996 6.4 6.49996C7 6.49996 7.6 6.59996 8.2 6.69996C8.9 6.59996 9.5 6.49996 10 6.49996C10.4 6.39996 11.1 6.29996 11.2 6.19996V6.29996C11.1 6.39996 10.6 6.49996 10 6.59996C9.5 6.59996 8.9 6.69996 8.2 6.69996ZM5.2 6.19996C5.3 6.19996 5.7 6.39996 6.4 6.49996C7 6.59996 7.6 6.59996 8.2 6.59996C8.9 6.59996 9.5 6.59996 10 6.49996C10.6 6.39996 11.1 6.29996 11.2 6.19996V6.09996C11 6.29996 10.4 6.39996 10 6.49996C9.5 6.59996 8.9 6.59996 8.2 6.59996C7.6 6.59996 7 6.59996 6.5 6.49996C6.3 6.39996 5.5 6.29996 5.2 6.19996ZM8.2 6.39996C7.6 6.39996 7 6.39996 6.5 6.29996C5.8 6.19996 5.3 5.99996 5.2 5.99996V5.89996C5.5 6.09996 6.2 6.19996 6.4 6.29996C7 6.29996 7.6 6.29996 8.2 6.39996C8.9 6.29996 9.5 6.29996 10 6.19996C10.4 6.09996 11.1 5.99996 11.2 5.89996V5.99996C11.1 5.99996 10.6 6.19996 10 6.29996C9.5 6.39996 8.9 6.39996 8.2 6.39996ZM5.2 5.89996C5.3 5.89996 5.7 6.09996 6.4 6.19996C7 6.39996 7.6 6.39996 8.2 6.39996C8.9 6.39996 9.5 6.39996 10 6.29996C10.6 6.19996 11.1 6.09996 11.2 5.99996V5.89996C11 5.99996 10.4 6.19996 10 6.19996C9.5 6.29996 8.9 6.29996 8.2 6.29996C7.6 6.29996 7 6.29996 6.5 6.19996C6.3 6.19996 5.5 6.09996 5.2 5.89996Z" fill="black"/>
<path fill-rule="evenodd" clip-rule="evenodd" d="M8.19999 7.80002C6.89999 7.80002 5.79999 7.50002 5.59999 7.40002L5.79999 7.70002C6.19999 7.90002 7.29999 8.10002 8.19999 8.10002C9.19999 8.10002 9.99999 8.00002 10.6 7.70002L10.8 7.40002C10.4 7.60002 8.99999 7.80002 8.19999 7.80002Z" fill="#FFFF00"/>
<path d="M8.09999 8.10002C7.19999 8.10002 6.19999 7.90002 5.79999 7.70002L5.59999 7.40002H5.69999C6.09999 7.50002 7.09999 7.80002 8.19999 7.80002C8.99999 7.80002 10.4 7.60002 10.8 7.40002L10.6 7.70002C9.99999 8.00002 9.09999 8.10002 8.19999 8.10002H8.09999ZM5.79999 7.70002C6.19999 7.90002 7.29999 8.10002 8.19999 8.10002C9.09999 8.00002 9.99999 8.00002 10.6 7.70002L10.8 7.50002C10.3 7.60002 8.99999 7.80002 8.19999 7.80002C7.09999 7.80002 6.09999 7.50002 5.69999 7.40002H5.59999L5.79999 7.70002Z" fill="black"/>
<path fill-rule="evenodd" clip-rule="evenodd" d="M10.7 7.59999L10.6 7.69999C10.3 7.79999 9.89999 7.89999 9.69999 7.99999C9.29999 7.99999 8.69999 8.09999 8.19999 8.09999C7.09999 8.09999 6.19999 7.89999 5.69999 7.69999V7.59999H5.79999C6.49999 7.89999 7.39999 7.99999 8.19999 7.99999C8.69999 7.99999 9.19999 7.89999 9.69999 7.89999C10.3 7.79999 10.6 7.69999 10.7 7.59999ZM10.8 7.39999C10.8 7.39999 10.8 7.49999 10.7 7.49999C10.6 7.59999 10.1 7.69999 9.59999 7.79999C9.19999 7.79999 8.99999 7.79999 8.19999 7.79999C6.69999 7.79999 5.79999 7.49999 5.59999 7.39999V7.29999C6.39999 7.49999 7.29999 7.69999 8.29999 7.69999C8.99999 7.69999 9.29999 7.59999 9.69999 7.59999C10.3 7.49999 10.7 7.39999 10.8 7.39999Z" fill="#FFFF00"/>
<path d="M8.19999 8.09999C7.09999 8.09999 6.09999 7.89999 5.69999 7.69999V7.59999H5.79999C6.49999 7.89999 7.29999 7.99999 8.19999 8.09999C8.19999 7.99999 8.19999 7.99999 8.19999 8.09999C8.79999 7.99999 9.29999 7.99999 9.69999 7.89999C10.4 7.79999 10.6 7.69999 10.7 7.59999L10.6 7.69999C10.3 7.79999 9.89999 7.89999 9.69999 7.99999C9.29999 8.09999 8.69999 8.09999 8.19999 8.09999ZM5.69999 7.69999C6.19999 7.89999 7.09999 8.09999 8.19999 8.09999C8.69999 8.09999 9.29999 7.99999 9.69999 7.99999C9.89999 7.99999 10.3 7.89999 10.6 7.79999C10.6 7.79999 10.6 7.69999 10.7 7.69999C10.6 7.69999 10.4 7.79999 9.69999 7.99999C9.29999 7.99999 8.79999 7.99999 8.19999 7.99999C7.29999 7.99999 6.39999 7.89999 5.69999 7.69999ZM8.19999 7.89999C6.89999 7.79999 5.99999 7.59999 5.59999 7.49999V7.39999C6.49999 7.59999 7.39999 7.79999 8.19999 7.89999C8.79999 7.79999 9.09999 7.79999 9.49999 7.69999H9.59999C10.3 7.59999 10.6 7.49999 10.7 7.39999H10.8C10.8 7.39999 10.8 7.49999 10.7 7.49999C10.5 7.59999 10.1 7.69999 9.49999 7.79999C9.39999 7.79999 9.39999 7.79999 9.29999 7.79999C9.19999 7.79999 8.89999 7.79999 8.19999 7.89999ZM5.59999 7.39999C5.99999 7.59999 6.89999 7.79999 8.19999 7.79999C8.89999 7.79999 9.09999 7.69999 9.39999 7.69999C9.49999 7.69999 9.49999 7.69999 9.59999 7.69999C10.1 7.59999 10.5 7.49999 10.7 7.39999V7.29999C10.6 7.29999 10.2 7.39999 9.59999 7.59999H9.49999C9.19999 7.59999 8.89999 7.69999 8.19999 7.69999C7.39999 7.79999 6.49999 7.59999 5.59999 7.39999Z" fill="black"/>
<path fill-rule="evenodd" clip-rule="evenodd" d="M10.9 5.9C10.9 6.7 10.5 7.5 10.1 7.8C9.6 8.3 9 8.6 8.2 8.7C7.4 8.7 6.6 8.2 6.3 7.9C5.9 7.4 5.6 6.8 5.6 6C5.6 5.1 6 4.4 6.5 4C7 3.6 7.7 3.3 8.3 3.4C9 3.4 9.7 3.7 10.3 4.4C10.6 4.8 10.8 5.2 10.9 5.9ZM8.2 3C9.8 3 11.1 4.3 11.1 6C11.1 7.6 9.8 9 8.2 9C6.6 9 5.3 7.6 5.3 6C5.3 4.4 6.6 3 8.2 3Z" fill="#FFFF00"/>
<path d="M8.2 9C6.6 9 5.3 7.6 5.3 6C5.3 4.4 6.6 3 8.2 3C9 3 9.7 3.3 10.3 3.9C10.9 4.5 11.2 5.2 11.2 6C11.2 6.8 10.9 7.5 10.3 8.1C9.7 8.7 9 9 8.2 9ZM8.2 3.1C6.6 3.1 5.3 4.4 5.3 6.1C5.3 7.7 6.6 9.1 8.2 9.1C9.8 9.1 11.1 7.8 11.1 6.1C11.1 4.4 9.8 3.1 8.2 3.1ZM8.2 8.7C7.3 8.7 6.6 8.1 6.4 7.9C5.8 7.3 5.6 6.7 5.6 6C5.6 5.2 6 4.5 6.5 4C7 3.6 7.7 3.3 8.3 3.3C9 3.3 9.8 3.7 10.3 4.3C10.6 4.7 10.8 5.2 10.9 5.9C10.9 6.7 10.5 7.5 10.1 7.8C9.6 8.4 8.9 8.7 8.2 8.7ZM8.2 3.3C7.6 3.3 7 3.6 6.5 4C5.9 4.5 5.6 5.1 5.6 6C5.6 6.7 5.9 7.3 6.4 7.9C6.6 8.1 7.4 8.7 8.2 8.7C8.9 8.7 9.6 8.4 10.1 7.9C10.5 7.5 10.9 6.8 10.9 6C10.8 5.3 10.7 4.8 10.3 4.4C9.8 3.7 9 3.4 8.2 3.3C8.3 3.3 8.3 3.3 8.2 3.3Z" fill="black"/>
<path fill-rule="evenodd" clip-rule="evenodd" d="M8.2 3C9.8 3 11.1 4.3 11.1 6C11.1 7.6 9.8 9 8.2 9C6.6 9 5.3 7.6 5.3 6C5.3 4.4 6.6 3 8.2 3ZM5.3 6C5.3 7.6 6.6 8.9 8.2 8.9C9.8 8.9 11.1 7.6 11.1 6C11.1 4.4 9.8 3.1 8.2 3.1C6.6 3.1 5.3 4.4 5.3 6Z" fill="#FFFF00"/>
<path d="M8.2 9C6.6 9 5.3 7.6 5.3 6C5.3 4.4 6.6 3 8.2 3C9.8 3 11.1 4.3 11.1 6C11.2 7.6 9.8 9 8.2 9ZM8.2 3C6.6 3 5.3 4.4 5.3 6C5.3 7.6 6.6 9 8.2 9C9.8 9 11.1 7.7 11.1 6C11.1 4.4 9.8 3 8.2 3ZM8.2 8.9C7.4 8.9 6.7 8.6 6.2 8C5.6 7.5 5.3 6.8 5.3 6C5.3 5.2 5.6 4.5 6.1 3.9C6.6 3.3 7.4 3 8.1 3C8.9 3 9.6 3.3 10.1 3.9C10.6 4.5 10.9 5.2 10.9 6C10.9 6.8 10.6 7.5 10.1 8.1C9.7 8.6 9 8.9 8.2 8.9ZM8.2 3.1C6.6 3.1 5.3 4.4 5.3 6C5.3 7.6 6.6 8.9 8.2 8.9C9.8 8.9 11.1 7.6 11.1 6C11.1 4.4 9.8 3.1 8.2 3.1Z" fill="black"/>
<path fill-rule="evenodd" clip-rule="evenodd" d="M8.2 3.29999C9.7 3.29999 10.9 4.49999 10.9 5.99999C10.9 7.49999 9.7 8.69999 8.2 8.69999C6.7 8.69999 5.5 7.49999 5.5 5.99999C5.5 4.49999 6.7 3.29999 8.2 3.29999ZM5.6 5.99999C5.6 7.49999 6.8 8.69999 8.2 8.69999C9.6 8.69999 10.8 7.49999 10.8 5.99999C10.8 4.49999 9.6 3.29999 8.2 3.29999C6.8 3.29999 5.6 4.49999 5.6 5.99999Z" fill="#FFFF00"/>
<path d="M8.2 8.69999C7.5 8.69999 6.8 8.39999 6.3 7.89999C5.8 7.39999 5.5 6.69999 5.5 5.99999C5.5 5.29999 5.8 4.59999 6.3 4.09999C6.8 3.59999 7.5 3.29999 8.2 3.29999C8.9 3.29999 9.6 3.59999 10.1 4.09999C10.6 4.59999 10.9 5.29999 10.9 5.99999C10.9 6.69999 10.6 7.39999 10.1 7.89999C9.6 8.39999 8.9 8.69999 8.2 8.69999ZM8.2 3.29999C6.7 3.29999 5.5 4.49999 5.5 5.99999C5.5 7.49999 6.7 8.69999 8.2 8.69999C9.7 8.69999 10.9 7.49999 10.9 5.99999C10.9 4.49999 9.7 3.29999 8.2 3.29999ZM8.2 8.69999C7.5 8.69999 6.8 8.39999 6.3 7.89999C5.9 7.39999 5.6 6.69999 5.6 5.99999C5.6 5.29999 5.9 4.59999 6.4 4.09999C6.9 3.59999 7.6 3.29999 8.3 3.29999C9 3.29999 9.7 3.59999 10.2 4.09999C10.7 4.59999 11 5.29999 11 5.99999C11 6.69999 10.7 7.39999 10.2 7.89999C9.6 8.39999 8.9 8.69999 8.2 8.69999ZM8.2 3.39999C6.8 3.39999 5.6 4.49999 5.6 5.99999C5.6 7.49999 6.8 8.59999 8.2 8.59999C9.6 8.59999 10.8 7.39999 10.8 5.99999C10.8 4.49999 9.7 3.39999 8.2 3.39999Z" fill="black"/>
<path fill-rule="evenodd" clip-rule="evenodd" d="M8.29999 3H8.09999V9H8.39999L8.29999 3Z" fill="#FFFF00"/>
<path d="M8.29999 9H8.09999V3H8.39999L8.29999 9ZM8.09999 9H8.29999V3H8.09999V9Z" fill="black"/>
<path fill-rule="evenodd" clip-rule="evenodd" d="M8.29999 3L8.39999 9H8.29999V3ZM8.09999 3L8.19999 9H8.09999V3Z" fill="#FFFF00"/>
<path d="M8.09999 9V3H8.19999L8.09999 9ZM8.09999 9V3V9ZM8.39999 9C8.29999 9 8.29999 9 8.39999 9L8.29999 3H8.39999V9ZM8.29999 9V3V9Z" fill="black"/>
<path fill-rule="evenodd" clip-rule="evenodd" d="M11.2 6.09999V5.89999L11 5.69999L10 5.39999L8.5 5.29999L6.8 5.39999L5.5 5.69999L5.3 5.89999V6.09999L5.9 5.79999L7.4 5.59999H8.9L10 5.69999L10.7 5.89999L11.2 6.09999Z" fill="#FFFF00"/>
<path d="M11.2 6.09999L10.7 5.89999L9.9 5.69999L8.9 5.59999H7.4L5.9 5.79999L5.3 6.09999V5.89999L5.6 5.69999L6.8 5.39999L8.6 5.29999L10 5.49999L11 5.79999L11.2 5.99999V6.09999ZM8.9 5.59999L10 5.69999L10.7 5.89999L11.2 6.09999V5.89999L11 5.69999L10 5.39999L8.5 5.29999L6.8 5.39999L5.5 5.69999L5.3 5.89999V6.09999L5.9 5.79999L7.4 5.59999H8.9Z" fill="black"/>
<path fill-rule="evenodd" clip-rule="evenodd" d="M8.2 5.49999C8.9 5.49999 9.6 5.59999 10.1 5.69999C10.7 5.79999 11 5.99999 11.2 6.09999V6.19999C11 5.99999 10.5 5.89999 10.1 5.79999C9.6 5.69999 8.9 5.59999 8.2 5.49999C7.5 5.59999 6.8 5.69999 6.3 5.79999C5.9 5.89999 5.3 6.09999 5.3 6.19999V6.09999C5.3 5.99999 5.8 5.79999 6.3 5.69999C6.8 5.59999 7.5 5.49999 8.2 5.49999ZM8.2 5.29999C8.9 5.29999 9.6 5.39999 10.1 5.49999C10.7 5.59999 11 5.79999 11.2 5.89999V5.99999C11 5.79999 10.5 5.69999 10.1 5.59999C9.6 5.39999 8.9 5.39999 8.2 5.29999C7.5 5.39999 6.8 5.39999 6.3 5.49999C5.9 5.59999 5.3 5.79999 5.2 5.89999C5.2 5.79999 5.7 5.59999 6.2 5.49999C6.8 5.39999 7.5 5.29999 8.2 5.29999Z" fill="#FFFF00"/>
<path d="M5.2 6.19999C5.2 6.09999 5.2 6.09999 5.2 6.19999C5.2 5.99999 5.7 5.79999 6.2 5.69999C6.8 5.59999 7.5 5.49999 8.1 5.49999C8.8 5.49999 9.4 5.59999 10 5.69999C10.6 5.79999 10.9 5.99999 11.1 6.09999V6.19999C11 5.99999 10.4 5.89999 10.1 5.79999C9.5 5.69999 8.9 5.59999 8.2 5.59999C7.5 5.59999 6.8 5.69999 6.3 5.79999C5.8 5.89999 5.3 6.09999 5.2 6.19999ZM8.2 5.59999C8.8 5.59999 9.5 5.69999 10.1 5.79999C10.4 5.79999 11 5.99999 11.2 6.19999V6.09999C11.1 5.99999 10.7 5.79999 10.1 5.69999C9.5 5.59999 8.9 5.59999 8.2 5.59999C7.5 5.59999 6.8 5.59999 6.2 5.69999C5.6 5.79999 5.2 5.99999 5.2 6.09999C5.3 5.89999 5.9 5.79999 6.2 5.69999C6.8 5.69999 7.5 5.59999 8.2 5.59999ZM5.2 5.99999C5.2 5.99999 5.2 5.89999 5.2 5.99999C5.2 5.89999 5.2 5.89999 5.2 5.99999C5.2 5.79999 5.7 5.59999 6.2 5.49999C6.8 5.39999 7.5 5.29999 8.1 5.29999C8.8 5.29999 9.4 5.39999 10 5.49999C10.6 5.59999 10.9 5.79999 11.1 5.89999V5.99999C10.9 5.79999 10.4 5.69999 10 5.59999C9.5 5.39999 8.9 5.39999 8.2 5.39999C7.5 5.39999 6.8 5.49999 6.3 5.59999C5.8 5.59999 5.3 5.79999 5.2 5.99999ZM8.2 5.29999C8.8 5.29999 9.5 5.39999 10.1 5.49999C10.4 5.59999 11 5.69999 11.2 5.89999V5.79999C11.1 5.69999 10.7 5.49999 10.1 5.39999C9.5 5.39999 8.9 5.29999 8.2 5.29999C7.5 5.29999 6.8 5.29999 6.2 5.39999C5.6 5.49999 5.2 5.69999 5.2 5.79999C5.3 5.59999 5.9 5.49999 6.2 5.39999C6.9 5.39999 7.5 5.29999 8.2 5.29999Z" fill="black"/>
<path fill-rule="evenodd" clip-rule="evenodd" d="M8.2 4C9.3 4 10.2 4.2 10.7 4.4L10.9 4.7C10.5 4.5 9.5 4.3 8.3 4.3C7.3 4.3 6.2 4.4 5.7 4.7L5.9 4.4C6.2 4.1 7.3 4 8.2 4Z" fill="#FFFF00"/>
<path d="M5.59999 4.7L5.79999 4.4C6.19999 4.1 7.29999 4 8.19999 4C9.29999 4 10.2 4.1 10.7 4.4L10.9 4.7C10.5 4.5 9.49999 4.3 8.29999 4.3C7.49999 4.3 6.19999 4.3 5.59999 4.7ZM5.79999 4.3L5.59999 4.6C6.19999 4.3 7.49999 4.2 8.19999 4.2C9.39999 4.2 10.4 4.4 10.8 4.6L10.7 4.3C10.2 4.1 9.29999 4 8.19999 4C7.29999 4 6.19999 4.1 5.79999 4.3Z" fill="black"/>
<path fill-rule="evenodd" clip-rule="evenodd" d="M8.19999 4.2C8.79999 4.2 9.39999 4.2 9.89999 4.3C10.3 4.4 10.8 4.5 10.8 4.6V4.7C10.7 4.6 10.3 4.5 9.79999 4.4C9.39999 4.3 8.79999 4.3 8.19999 4.2C7.49999 4.3 6.99999 4.3 6.49999 4.4C5.99999 4.5 5.69999 4.6 5.59999 4.7V4.6C5.79999 4.5 5.99999 4.4 6.49999 4.3C6.99999 4.2 7.49999 4.2 8.19999 4.2ZM8.19999 4C8.79999 4 9.39999 4 9.79999 4.1C10.2 4.2 10.5 4.3 10.7 4.4L10.8 4.5C10.7 4.4 10.2 4.2 9.89999 4.2C9.39999 4.1 8.79999 4 8.19999 4C7.59999 4 6.99999 4.1 6.59999 4.2C6.09999 4.2 5.89999 4.3 5.69999 4.4L5.79999 4.3C5.99999 4.2 6.19999 4.2 6.49999 4.1C6.99999 4 7.59999 4 8.19999 4Z" fill="#FFFF00"/>
<path d="M10.9 4.7C10.8 4.6 10.4 4.5 9.89999 4.4C9.49999 4.3 8.89999 4.3 8.19999 4.3C7.49999 4.3 6.89999 4.3 6.49999 4.4C5.99999 4.5 5.69999 4.6 5.59999 4.7V4.6C5.79999 4.5 6.09999 4.4 6.49999 4.3C6.89999 4.2 7.39999 4.2 8.19999 4.2C8.89999 4.2 9.39999 4.2 9.89999 4.3C10.4 4.4 10.8 4.5 10.9 4.7ZM8.29999 4.3C8.99999 4.3 9.49999 4.3 9.99999 4.4C10.5 4.5 10.8 4.6 11 4.7V4.6C10.9 4.5 10.5 4.4 10.1 4.3C9.49999 4.3 8.89999 4.2 8.29999 4.3C8.19999 4.2 8.19999 4.2 8.29999 4.3C7.49999 4.3 6.99999 4.3 6.49999 4.4C6.09999 4.4 5.79999 4.5 5.59999 4.6V4.7C5.69999 4.6 5.99999 4.5 6.49999 4.4C6.99999 4.3 7.49999 4.3 8.29999 4.3C8.19999 4.3 8.19999 4.3 8.29999 4.3ZM10.8 4.5C10.7 4.4 10.2 4.2 9.79999 4.2C9.39999 4.1 8.89999 4 8.19999 4C7.59999 4 6.99999 4.1 6.59999 4.2C6.19999 4.2 5.89999 4.3 5.69999 4.4L5.79999 4.3C5.99999 4.2 6.19999 4.1 6.49999 4.1C6.99999 4 7.59999 4 8.19999 4C8.79999 4 9.39999 4 9.79999 4.1C10.2 4.2 10.5 4.3 10.7 4.4L10.8 4.5ZM8.19999 4C8.89999 4 9.39999 4 9.79999 4.1C10.1 4.2 10.5 4.3 10.7 4.4V4.3C10.6 4.2 10.2 4.1 9.89999 4C9.39999 4 8.89999 4 8.19999 4C7.59999 4 6.99999 4 6.59999 4.1C6.19999 4.2 5.99999 4.2 5.79999 4.3V4.4C5.89999 4.3 6.19999 4.2 6.59999 4.2C6.99999 4.1 7.59999 4 8.19999 4Z" fill="black"/>
<path fill-rule="evenodd" clip-rule="evenodd" d="M9.69999 7.20002C9.09999 7.10002 8.59999 7.10002 8.19999 7.10002C6.39999 7.10002 5.79999 7.50002 5.69999 7.60002L5.59999 7.40002C6.09999 7.00002 7.09999 6.90002 8.19999 6.90002C8.79999 6.90002 9.29999 7.00002 9.79999 7.00002L9.69999 7.20002Z" fill="#FFFF00"/>
<path d="M5.69999 7.59999L5.59999 7.4C6.09999 7 6.99999 6.8 8.19999 6.9C8.79999 6.9 9.39999 7 9.79999 7L9.69999 7.19999C9.19999 7.19999 8.79999 7.09999 8.19999 7.09999C6.39999 7.19999 5.79999 7.49999 5.69999 7.59999ZM5.59999 7.4L5.69999 7.59999C5.79999 7.49999 6.49999 7.09999 8.19999 7.09999C8.69999 7.09999 9.19999 7.09999 9.69999 7.19999L9.79999 7C9.39999 6.9 8.89999 6.9 8.19999 6.9C6.99999 6.9 6.09999 7.1 5.59999 7.4Z" fill="black"/>
<path fill-rule="evenodd" clip-rule="evenodd" d="M8.19999 7.09999C8.69999 7.09999 9.19999 7.09999 9.69999 7.19999V7.29999C9.19999 7.19999 8.69999 7.19999 8.19999 7.09999C7.49999 7.19999 6.89999 7.19999 6.29999 7.39999C6.09999 7.39999 5.79999 7.59999 5.69999 7.69999V7.59999C5.69999 7.49999 5.89999 7.39999 6.19999 7.29999C6.89999 7.09999 7.59999 7.09999 8.19999 7.09999ZM8.19999 6.79999C8.69999 6.79999 9.29999 6.79999 9.79999 6.89999V6.99999C9.29999 6.89999 8.89999 6.89999 8.19999 6.79999C7.59999 6.89999 6.79999 6.99999 6.19999 7.09999C5.99999 7.19999 5.59999 7.29999 5.59999 7.39999V7.29999C5.59999 7.19999 5.89999 7.09999 6.19999 6.99999C6.79999 6.89999 7.49999 6.79999 8.19999 6.79999Z" fill="#FFFF00"/>
<path d="M5.69999 7.69999C5.69999 7.59999 5.69999 7.59999 5.69999 7.69999C5.69999 7.59999 5.89999 7.39999 6.19999 7.29999C6.79999 7.09999 7.49999 7.09999 8.19999 7.09999C8.69999 7.09999 9.19999 7.09999 9.69999 7.19999V7.29999C9.19999 7.19999 8.79999 7.19999 8.19999 7.19999C7.49999 7.19999 6.79999 7.29999 6.29999 7.39999C6.09999 7.49999 5.79999 7.59999 5.69999 7.69999ZM5.69999 7.59999C5.79999 7.49999 6.09999 7.39999 6.29999 7.39999C6.79999 7.19999 7.49999 7.19999 8.19999 7.19999C8.79999 7.19999 9.19999 7.19999 9.59999 7.29999C9.09999 7.19999 8.59999 7.19999 8.09999 7.19999C7.39999 7.19999 6.79999 7.19999 6.09999 7.39999C5.89999 7.39999 5.69999 7.59999 5.69999 7.59999ZM5.59999 7.49999C5.59999 7.39999 5.59999 7.39999 5.59999 7.49999C5.59999 7.29999 5.99999 7.19999 6.19999 7.09999C6.79999 6.89999 7.39999 6.89999 8.29999 6.89999C8.79999 6.89999 9.39999 6.89999 9.89999 6.99999V7.09999C9.39999 6.99999 8.89999 6.99999 8.29999 6.99999C7.49999 6.99999 6.79999 7.09999 6.29999 7.19999C5.89999 7.19999 5.59999 7.39999 5.59999 7.49999ZM5.59999 7.39999C5.69999 7.29999 6.19999 7.19999 6.19999 7.19999C6.79999 6.99999 7.39999 6.99999 8.19999 6.99999C8.79999 6.99999 9.19999 6.99999 9.79999 7.09999C9.29999 6.89999 8.69999 6.89999 8.19999 6.79999C7.39999 6.79999 6.69999 6.89999 6.09999 6.99999C5.79999 7.19999 5.59999 7.29999 5.59999 7.39999Z" fill="black"/>
<path fill-rule="evenodd" clip-rule="evenodd" d="M10.8 7.39996L10.6 7.69996L10 7.19996L8.3 6.09996L6.5 5.09996L5.5 4.79996L5.7 4.39996H5.8L6.4 4.49996L8.4 5.49996L9.5 6.19996L10.5 6.89996L10.8 7.39996Z" fill="#FFFF00"/>
<path d="M10.6 7.79999L10 7.19999L8.3 6.09999L6.5 5.09999L5.5 4.79999L5.7 4.39999H5.8L6.4 4.59999L8.4 5.59999L9.5 6.29999L10.5 6.99999L10.9 7.49999V7.59999L10.6 7.79999ZM5.6 4.69999L6.5 4.99999L8.3 5.99999L10 7.19999L10.6 7.79999L10.8 7.49999V7.39999L10.4 6.99999L9.5 6.19999L8.4 5.49999L6.4 4.49999L5.8 4.29999H5.7L5.6 4.69999Z" fill="black"/>
<path fill-rule="evenodd" clip-rule="evenodd" d="M5.5 4.70003C5.7 4.60003 6.9 5.20003 8.2 6.00003C9.5 6.80003 10.7 7.70003 10.6 7.80003V7.90003C10.6 7.90003 10.6 7.90003 10.6 7.80003C10.5 7.60003 9.6 6.90003 8.2 6.00003C6.8 5.20003 5.6 4.70003 5.5 4.70003ZM10.9 7.40003C11 7.20003 9.9 6.30003 8.4 5.50003C7 4.70003 5.9 4.20003 5.7 4.30003V4.40003H5.8C6.1 4.40003 7.1 4.80003 8.4 5.60003C9 5.90003 10.8 7.10003 10.9 7.40003C10.8 7.50003 10.8 7.50003 10.9 7.40003Z" fill="#FFFF00"/>
<path d="M10.5 7.9C10.5 7.9 10.6 7.9 10.5 7.9C10.4 7.6 9.5 6.9 8.1 6C6.7 5.2 5.6 4.7 5.5 4.8V4.7C5.7 4.6 6.9 5.2 8.2 6C9.4 6.7 10.6 7.6 10.6 7.8C10.6 7.8 10.6 7.8 10.5 7.9C10.6 7.9 10.6 7.9 10.5 7.9C10.6 7.9 10.6 7.9 10.5 7.9ZM5.5 4.8C5.9 4.8 7 5.3 8.2 6C9.6 6.9 10.5 7.6 10.6 7.8C10.6 7.8 10.6 7.8 10.6 7.9C10.5 7.5 9.3 6.7 8.2 6C6.9 5.2 5.7 4.6 5.5 4.8ZM10.8 7.5C10.8 7.1 8.9 5.9 8.4 5.6C7.1 4.8 6.1 4.4 5.8 4.4H5.7V4.3C5.9 4.1 7.3 4.8 8.4 5.5C9.7 6.2 11 7.2 10.8 7.5C10.9 7.4 10.9 7.4 10.8 7.5ZM5.8 4.3C6.1 4.3 7.1 4.7 8.4 5.5C8.8 5.7 10.8 7 10.8 7.4C10.9 7.2 9.8 6.4 8.3 5.5C6.9 4.6 5.9 4.2 5.8 4.3H5.7H5.8Z" fill="black"/>
<path d="M6.5 6.3C6.5 6.8 6.7 7.2 7 7.6C7.3 7.9 7.8 8.1 8.2 8.1C8.7 8.1 9.1 7.9 9.4 7.6C9.8 7.3 10 6.8 10 6.3V4H6.5V6.3Z" fill="white"/>
<path d="M8.19999 8.10002C7.69999 8.10002 7.29999 7.90002 6.99999 7.60002C6.59999 7.30002 6.39999 6.80002 6.39999 6.30002V3.90002H9.89999V6.30002C9.89999 6.80002 9.69999 7.20002 9.39999 7.60002C9.09999 7.90002 8.69999 8.10002 8.19999 8.10002ZM6.49999 6.30002C6.49999 6.80002 6.69999 7.20002 6.99999 7.60002C7.29999 7.90002 7.79999 8.10002 8.19999 8.10002C8.69999 8.10002 9.09999 7.90002 9.39999 7.60002C9.79999 7.20002 9.99999 6.80002 9.99999 6.30002V4.00002H6.49999V6.30002Z" fill="black"/>
<path d="M6.5 6.3C6.5 6.8 6.7 7.2 7 7.5C7.3 7.8 7.7 8 8.2 8C8.7 8 9.1 7.8 9.4 7.5C9.7 7.2 9.9 6.8 9.9 6.3V4H6.5V6.3ZM9.2 4.7V6.2V6.4V6.5C9.2 6.7 9.1 6.9 8.9 7.1C8.7 7.2 8.5 7.4 8.2 7.4C7.9 7.4 7.7 7.3 7.5 7.1C7.3 6.9 7.2 6.6 7.2 6.3V4.7H9.2Z" fill="#FF0000"/>
<path d="M8.2 8C7.8 8 7.3 7.9 7 7.5C6.7 7.2 6.5 6.8 6.5 6.3V4H9.9V6.3C9.9 6.8 9.7 7.2 9.4 7.5C9.1 7.9 8.7 8 8.2 8ZM6.5 6.3C6.5 6.8 6.7 7.2 7 7.5C7.3 7.9 7.8 8 8.2 8C8.6 8 9.1 7.8 9.4 7.5C9.7 7.2 9.9 6.8 9.9 6.3V4H6.5V6.3ZM8.2 7.4C7.9 7.4 7.7 7.3 7.5 7.1C7.3 6.9 7.2 6.6 7.2 6.3V4.7H9.2V6.2V6.4V6.5C9.2 6.7 9.1 6.9 8.9 7.1C8.7 7.3 8.5 7.4 8.2 7.4ZM7.2 4.7V6.3C7.2 6.6 7.3 6.8 7.5 7C7.7 7.2 8 7.4 8.2 7.4C8.5 7.4 8.7 7.3 8.9 7.1C9.1 6.9 9.2 6.7 9.2 6.5V6.4V6.2V4.7H7.2Z" fill="black"/>
<path d="M6.7 4.60002C6.7 4.40002 6.8 4.40002 6.8 4.40002C6.8 4.40002 6.9 4.40002 6.9 4.60002H6.7Z" fill="#FFFF00"/>
<path d="M6.59999 4.40002V4.60002H6.69999C6.69999 4.40002 6.79999 4.40002 6.79999 4.40002C6.79999 4.40002 6.89999 4.40002 6.89999 4.60002H6.99999V4.40002H6.59999Z" fill="#FFFF00"/>
<path d="M6.69999 4.60002H6.59999V4.40002H7.09999V4.60002H6.99999C6.99999 4.50002 6.89999 4.40002 6.89999 4.40002C6.89999 4.40002 6.69999 4.50002 6.69999 4.60002ZM6.99999 4.60002H7.09999V4.40002H6.89999C6.99999 4.50002 6.99999 4.50002 6.99999 4.60002ZM6.59999 4.60002H6.69999C6.69999 4.50002 6.69999 4.50002 6.79999 4.40002H6.59999V4.60002Z" fill="black"/>
<path d="M6.59999 4.60004H7.09999H6.59999C6.59999 4.70004 6.59999 4.70004 6.59999 4.60004Z" fill="#FFFF00"/>
<path d="M7.09999 4.70004H6.59999H7.09999C7.09999 4.60004 7.09999 4.60004 7.09999 4.70004ZM6.59999 4.60004C6.59999 4.70004 6.59999 4.70004 6.59999 4.60004H7.09999H6.59999Z" fill="black"/>
<path d="M6.79999 4.60006C6.79999 4.50006 6.89999 4.50006 6.89999 4.50006C6.89999 4.50006 6.99999 4.50006 6.99999 4.60006H6.79999Z" fill="#FFFF00"/>
<path d="M6.89999 4.60006H6.79999C6.79999 4.50006 6.79999 4.50006 6.79999 4.50006C6.89999 4.50006 6.89999 4.50006 6.89999 4.60006ZM6.79999 4.60006H6.89999C6.89999 4.50006 6.79999 4.50006 6.79999 4.50006C6.79999 4.50006 6.79999 4.50006 6.79999 4.60006Z" fill="black"/>
<path d="M7.09999 4.40004H6.59999H7.09999C7.09999 4.40004 7.09999 4.30004 7.09999 4.40004ZM6.59999 4.40004H7.09999H6.59999Z" fill="black"/>
<path d="M6.79999 4.10004H6.89999V4.20004L6.79999 4.10004C6.79999 4.10004 6.79999 4.20004 6.79999 4.10004Z" fill="#FFFF00"/>
<path d="M6.89999 4.20004H6.79999V4.10004L6.89999 4.20004C6.89999 4.20004 6.99999 4.10004 6.89999 4.20004ZM6.79999 4.10004L6.89999 4.20004V4.10004H6.79999Z" fill="black"/>
<path d="M6.89999 4.20001V4.40001H6.79999V4.20001H6.89999Z" fill="#FFFF00"/>
<path d="M6.89999 4.40004H6.79999V4.20004H6.89999V4.40004ZM6.79999 4.30004H6.89999V4.10004H6.79999V4.30004Z" fill="black"/>
<path d="M6.8 4.20001V4.30001H6.7V4.20001H6.8Z" fill="#FFFF00"/>
<path d="M6.59999 4.39999V4.29999H6.69999V4.39999H6.59999ZM6.69999 4.29999L6.79999 4.39999V4.29999H6.69999Z" fill="black"/>
<path d="M7.1 4.20001V4.30001L7 4.40001V4.30001L7.1 4.20001Z" fill="#FFFF00"/>
<path d="M6.89999 4.39999V4.29999H6.99999V4.39999H6.89999ZM6.99999 4.29999L7.09999 4.39999V4.29999H6.99999Z" fill="black"/>
<path d="M6.59999 4.20001H6.69999V4.30001L6.59999 4.20001Z" fill="#FFFF00"/>
<path d="M6.79999 4.30001H6.59999V4.20001L6.79999 4.30001C6.79999 4.30001 6.79999 4.20001 6.79999 4.30001ZM6.59999 4.20001L6.69999 4.30001V4.20001H6.59999Z" fill="black"/>
<path d="M6.89999 4.20001H6.99999V4.30001L6.89999 4.20001Z" fill="#FFFF00"/>
<path d="M7.09999 4.30001H6.99999V4.20001L7.09999 4.30001C7.09999 4.30001 7.09999 4.20001 7.09999 4.30001ZM6.89999 4.20001L6.99999 4.30001V4.20001H6.89999Z" fill="black"/>
<path d="M6.7 6.00005C6.7 5.80005 6.8 5.80005 6.8 5.80005C6.8 5.80005 6.9 5.80005 6.9 6.00005H6.7Z" fill="#FFFF00"/>
<path d="M6.59999 5.80005V6.00005H6.69999C6.69999 5.80005 6.79999 5.80005 6.79999 5.80005C6.79999 5.80005 6.89999 5.80005 6.89999 6.00005H6.99999V5.80005H6.59999Z" fill="#FFFF00"/>
<path d="M6.69999 6.00005H6.59999V5.80005H7.09999V6.00005H6.99999C6.99999 5.90005 6.89999 5.80005 6.89999 5.80005C6.89999 5.80005 6.69999 5.90005 6.69999 6.00005ZM6.99999 6.00005H7.09999V5.80005H6.89999C6.99999 5.90005 6.99999 5.90005 6.99999 6.00005ZM6.59999 6.00005H6.69999C6.69999 5.90005 6.69999 5.90005 6.79999 5.80005H6.59999V6.00005Z" fill="black"/>
<path d="M6.59999 6H7.09999H6.59999C6.59999 6 6.59999 6.1 6.59999 6Z" fill="#FFFF00"/>
<path d="M7.09999 6.1H6.59999H7.09999C7.09999 6 7.09999 6 7.09999 6.1ZM6.59999 6C6.59999 6 6.59999 6.1 6.59999 6H7.09999H6.59999Z" fill="black"/>
<path d="M6.79999 6.00002C6.79999 5.90002 6.89999 5.90002 6.89999 5.90002C6.89999 5.90002 6.99999 5.90002 6.99999 6.00002H6.79999Z" fill="#FFFF00"/>
<path d="M6.89999 6.00002H6.79999C6.79999 5.90002 6.79999 5.90002 6.79999 5.90002C6.89999 5.90002 6.89999 5.90002 6.89999 6.00002ZM6.79999 6.00002H6.89999C6.89999 5.90002 6.79999 5.90002 6.79999 5.90002C6.79999 5.90002 6.79999 5.90002 6.79999 6.00002Z" fill="black"/>
<path d="M6.59999 5.70001H7.09999H6.59999C6.59999 5.80001 6.59999 5.80001 6.59999 5.70001C6.59999 5.70001 6.59999 5.80001 6.59999 5.70001Z" fill="#FFFF00"/>
<path d="M7.09999 5.80001H6.59999H7.09999C7.09999 5.70001 7.09999 5.70001 7.09999 5.80001ZM6.59999 5.70001C6.59999 5.70001 6.59999 5.80001 6.59999 5.70001C6.59999 5.80001 6.59999 5.80001 6.59999 5.70001H7.09999H6.59999Z" fill="black"/>
<path d="M6.79999 5.5H6.89999V5.6L6.79999 5.5Z" fill="#FFFF00"/>
<path d="M6.89999 5.50002H6.79999V5.40002L6.89999 5.50002C6.89999 5.50002 6.99999 5.50002 6.89999 5.50002ZM6.79999 5.50002L6.89999 5.60002V5.50002H6.79999Z" fill="black"/>
<path d="M6.89999 5.5V5.7H6.79999V5.5H6.89999Z" fill="#FFFF00"/>
<path d="M6.89999 5.7H6.79999V5.5H6.89999V5.7ZM6.79999 5.7H6.89999V5.5H6.79999V5.7Z" fill="black"/>
<path d="M6.8 5.60004V5.70004H6.7V5.60004H6.8Z" fill="#FFFF00"/>
<path d="M6.59999 5.70004V5.60004H6.69999V5.70004H6.59999ZM6.69999 5.60004L6.79999 5.70004V5.60004H6.69999Z" fill="black"/>
<path d="M7.1 5.60004V5.70004H7V5.60004H7.1Z" fill="#FFFF00"/>
<path d="M6.89999 5.70004V5.60004H6.99999V5.70004H6.89999ZM6.99999 5.60004L7.09999 5.70004V5.60004H6.99999Z" fill="black"/>
<path d="M6.59999 5.59998H6.69999V5.69998L6.59999 5.59998Z" fill="#FFFF00"/>
<path d="M6.79999 5.6H6.59999V5.5L6.79999 5.6ZM6.59999 5.6L6.69999 5.7V5.6H6.59999Z" fill="black"/>
<path d="M6.89999 5.59998H6.99999V5.69998L6.89999 5.59998Z" fill="#FFFF00"/>
<path d="M7.09999 5.6H6.99999V5.5L7.09999 5.6ZM6.89999 5.6L6.99999 5.7V5.6H6.89999Z" fill="black"/>
<path d="M8.09999 4.60002C8.09999 4.40002 8.19999 4.40002 8.19999 4.40002C8.19999 4.40002 8.29999 4.40002 8.29999 4.60002H8.09999Z" fill="#FFFF00"/>
<path d="M8 4.40002V4.60002H8.1C8.1 4.40002 8.2 4.40002 8.2 4.40002C8.2 4.40002 8.3 4.40002 8.3 4.60002H8.4V4.40002H8Z" fill="#FFFF00"/>
<path d="M8.1 4.60002H8V4.40002H8.5V4.60002H8.3C8.3 4.50002 8.2 4.40002 8.2 4.40002C8.2 4.40002 8.1 4.50002 8.1 4.60002ZM8.3 4.60002H8.4V4.40002H8.2C8.3 4.50002 8.3 4.50002 8.3 4.60002ZM8 4.60002H8.1C8.1 4.50002 8.1 4.50002 8.2 4.40002H8V4.60002Z" fill="black"/>
<path d="M8 4.60004H8.5H8C7.9 4.70004 8 4.70004 8 4.60004C8 4.60004 7.9 4.60004 8 4.60004Z" fill="#FFFF00"/>
<path d="M8.5 4.70004H8H8.5C8.5 4.60004 8.5 4.60004 8.5 4.70004ZM8 4.60004C8 4.70004 8 4.70004 8 4.60004H8.5H8Z" fill="black"/>
<path d="M8.09999 4.60006C8.09999 4.50006 8.19999 4.50006 8.19999 4.50006C8.19999 4.50006 8.29999 4.50006 8.29999 4.60006H8.09999Z" fill="#FFFF00"/>
<path d="M8.29999 4.60006H8.09999C8.09999 4.50006 8.09999 4.50006 8.09999 4.50006C8.19999 4.50006 8.29999 4.50006 8.29999 4.60006ZM8.19999 4.60006H8.29999C8.29999 4.50006 8.19999 4.50006 8.19999 4.50006C8.19999 4.50006 8.19999 4.50006 8.19999 4.60006Z" fill="black"/>
<path d="M8.5 4.40004H8H8.5C8.5 4.40004 8.5 4.30004 8.5 4.40004ZM8 4.40004H8.5H8Z" fill="black"/>
<path d="M8.09999 4.10004H8.19999V4.20004L8.09999 4.10004C8.09999 4.10004 8.09999 4.20004 8.09999 4.10004Z" fill="#FFFF00"/>
<path d="M8.29999 4.20004H8.19999V4.10004L8.29999 4.20004C8.29999 4.20004 8.29999 4.10004 8.29999 4.20004ZM8.09999 4.10004L8.19999 4.20004V4.10004H8.09999Z" fill="black"/>
<path d="M8.3 4.20001V4.40001H8.2V4.20001H8.3Z" fill="#FFFF00"/>
<path d="M8.3 4.40004H8.2V4.20004H8.3V4.40004ZM8.2 4.30004H8.3V4.10004H8.2V4.30004Z" fill="black"/>
<path d="M8.1 4.20001V4.30001L8 4.40001V4.30001L8.1 4.20001Z" fill="#FFFF00"/>
<path d="M8 4.39999V4.29999H8.1V4.39999H8ZM8 4.29999L8.1 4.39999V4.29999H8Z" fill="black"/>
<path d="M8.4 4.20001V4.30001H8.3V4.20001H8.4Z" fill="#FFFF00"/>
<path d="M8.3 4.39999V4.29999H8.4V4.39999H8.3ZM8.3 4.29999L8.4 4.39999V4.29999H8.3Z" fill="black"/>
<path d="M8 4.20001H8.1V4.30001L8 4.20001Z" fill="#FFFF00"/>
<path d="M8.1 4.30001H8V4.20001L8.1 4.30001C8.1 4.30001 8.1 4.20001 8.1 4.30001ZM8 4.20001L8.1 4.30001V4.20001H8Z" fill="black"/>
<path d="M8.3 4.20001H8.4V4.30001L8.3 4.20001Z" fill="#FFFF00"/>
<path d="M8.4 4.30001H8.3V4.20001L8.4 4.30001C8.5 4.30001 8.5 4.20001 8.4 4.30001ZM8.3 4.20001L8.4 4.30001V4.20001H8.3Z" fill="black"/>
<path d="M8 6.10001C8 6.20001 8 6.20001 8.1 6.30001C8.1 6.30001 8.2 6.40001 8.3 6.40001C8.4 6.40001 8.4 6.40001 8.5 6.30001C8.5 6.30001 8.6 6.20001 8.6 6.10001V5.70001H8V6.10001Z" fill="#003399"/>
<path d="M8 5.3C8 5.4 8 5.4 8.1 5.5C8.1 5.5 8.2 5.6 8.3 5.6C8.4 5.6 8.4 5.6 8.5 5.5C8.5 5.5 8.6 5.4 8.6 5.3V5H8V5.3Z" fill="#003399"/>
<path d="M7.39999 6.10001C7.39999 6.20001 7.39999 6.20001 7.49999 6.30001C7.49999 6.30001 7.59999 6.40001 7.69999 6.40001C7.79999 6.40001 7.79999 6.40001 7.89999 6.30001C7.89999 6.30001 7.99999 6.20001 7.99999 6.10001V5.70001H7.59999L7.39999 6.10001Z" fill="#003399"/>
<path d="M8.60001 6.10001C8.60001 6.20001 8.60001 6.20001 8.70001 6.30001C8.70001 6.30001 8.80001 6.40001 8.90001 6.40001C9.00001 6.40001 9.00001 6.40001 9.10001 6.30001C9.10001 6.30001 9.20001 6.20001 9.20001 6.10001V5.70001H8.80001L8.60001 6.10001Z" fill="#003399"/>
<path d="M8 6.8C8 6.9 8 7 8.1 7C8.1 7 8.2 7.1 8.3 7.1C8.4 7.1 8.4 7.1 8.5 7C8.5 7 8.6 6.9 8.6 6.8V6.5H8V6.8Z" fill="#003399"/>
</svg>
