<svg width="16" height="17" viewBox="0 0 16 17" fill="none" xmlns="http://www.w3.org/2000/svg">
<path d="M5.00002 2.21313C5.35364 2.21313 5.69278 2.35361 5.94283 2.60366C6.19288 2.85371 6.33335 3.19285 6.33335 3.54647C6.33335 3.90009 6.19288 4.23923 5.94283 4.48928C5.69278 4.73933 5.35364 4.8798 5.00002 4.8798C4.6464 4.8798 4.30726 4.73933 4.05721 4.48928C3.80716 4.23923 3.66669 3.90009 3.66669 3.54647C3.66669 3.19285 3.80716 2.85371 4.05721 2.60366C4.30726 2.35361 4.6464 2.21313 5.00002 2.21313ZM4.00002 5.54647H6.00002C6.35364 5.54647 6.69278 5.68694 6.94283 5.93699C7.19288 6.18704 7.33335 6.52618 7.33335 6.8798V10.5465H6.33335V15.5465H3.66669V10.5465H2.66669V6.8798C2.66669 6.52618 2.80716 6.18704 3.05721 5.93699C3.30726 5.68694 3.6464 5.54647 4.00002 5.54647ZM11 2.21313C11.3536 2.21313 11.6928 2.35361 11.9428 2.60366C12.1929 2.85371 12.3334 3.19285 12.3334 3.54647C12.3334 3.90009 12.1929 4.23923 11.9428 4.48928C11.6928 4.73933 11.3536 4.8798 11 4.8798C10.6464 4.8798 10.3073 4.73933 10.0572 4.48928C9.80716 4.23923 9.66669 3.90009 9.66669 3.54647C9.66669 3.19285 9.80716 2.85371 10.0572 2.60366C10.3073 2.35361 10.6464 2.21313 11 2.21313ZM10 15.5465V11.5465H8.00002L9.72669 6.48647C9.89335 5.9398 10.4 5.54647 11 5.54647C11.6 5.54647 12.1067 5.9398 12.2734 6.48647L14 11.5465H12V15.5465H10Z" fill="#404040"/>
</svg>
