<svg width="16" height="17" viewBox="0 0 16 17" fill="none" xmlns="http://www.w3.org/2000/svg">
<path d="M7.99999 14.8799L10.4 11.6799C9.73332 11.1799 8.89999 10.8799 7.99999 10.8799C7.09999 10.8799 6.26665 11.1799 5.59999 11.6799L7.99999 14.8799ZM7.99999 2.87988C5.29999 2.87988 2.80665 3.77322 0.799988 5.27988L1.99999 6.87988C3.66665 5.62655 5.74665 4.87988 7.99999 4.87988C10.2533 4.87988 12.3333 5.62655 14 6.87988L15.2 5.27988C13.1933 3.77322 10.7 2.87988 7.99999 2.87988ZM7.99999 6.87988C6.19999 6.87988 4.53999 7.47322 3.19999 8.47988L4.39999 10.0799C5.39999 9.32655 6.64665 8.87988 7.99999 8.87988C9.35332 8.87988 10.6 9.32655 11.6 10.0799L12.8 8.47988C11.46 7.47322 9.79999 6.87988 7.99999 6.87988Z" fill="#404040"/>
</svg>
