<svg width="400" height="329" viewBox="0 0 400 329" fill="none" xmlns="http://www.w3.org/2000/svg">
<g clip-path="url(#clip0_656_1309)">
<path d="M53.609 75.9375C42.9084 75.9419 38.3116 91.4358 27.8399 93.6376C23.163 94.621 18.3911 92.6633 13.6126 92.5786C8.83416 92.4939 3.11842 95.9636 4.12816 100.635L95.2279 99.2616C85.8116 98.2838 77.0039 94.1464 70.2395 87.5232C65.302 82.6128 60.5723 75.9346 53.609 75.9375Z" fill="#F0F0F0"/>
<path d="M262.559 238.497C249.248 238.496 236.368 233.774 226.21 225.171C216.052 216.568 209.274 204.641 207.081 191.511L207.063 191.402L207.133 191.318C210.732 187.009 213.64 182.169 215.756 176.969C213.238 180.195 210.197 182.977 206.76 185.197L206.407 185.432L206.387 185.008C206.342 184.077 206.319 183.151 206.319 182.257C206.288 172.694 208.71 163.282 213.353 154.922C217.997 146.561 224.707 139.531 232.842 134.504C218.605 119.73 210.669 100.001 210.71 79.4837C210.71 35.6562 246.373 -4.2678e-05 290.209 -4.2678e-05C306.923 -0.023675 323.217 5.22914 336.77 15.0097C350.323 24.7903 360.443 38.5994 365.687 54.4689L365.758 54.6826L365.549 54.767C360.137 56.9584 355.155 58.0113 350.391 57.96C355.821 59.4976 361.457 60.1791 367.097 59.9799L367.291 59.9733L367.338 60.1617C368.914 66.4815 369.71 72.9704 369.709 79.4837C369.709 79.7187 369.708 79.9535 369.706 80.1882C369.691 85.2526 370.743 90.2634 372.794 94.8939C374.845 99.5245 377.849 103.671 381.609 107.063C387.618 112.529 392.37 119.232 395.54 126.71C398.71 134.188 400.223 142.265 399.973 150.384C399.724 158.502 397.719 166.471 394.096 173.74C390.473 181.01 385.318 187.409 378.986 192.496L378.87 192.589L378.736 192.528C370.421 188.755 364.63 184.544 360.686 179.373C363.353 185.884 367.241 191.824 372.141 196.873L372.354 197.093L372.089 197.247C363.684 202.143 354.154 204.777 344.428 204.893C334.702 205.009 325.112 202.602 316.593 197.907C313.171 209.597 306.06 219.867 296.322 227.182C286.583 234.498 274.739 238.467 262.559 238.497Z" fill="#0E2645"/>
<path d="M242.523 328.081C242.277 328.081 242.04 327.992 241.854 327.83C241.669 327.669 241.547 327.447 241.513 327.203C241.469 326.898 237.217 296.23 241.036 255.472C244.563 217.83 255.889 163.613 289.818 119.085C289.899 118.978 290.001 118.888 290.117 118.821C290.233 118.753 290.361 118.709 290.494 118.691C290.627 118.673 290.762 118.681 290.892 118.716C291.022 118.75 291.144 118.809 291.251 118.891C291.357 118.972 291.447 119.074 291.515 119.19C291.582 119.306 291.626 119.434 291.644 119.567C291.662 119.7 291.653 119.836 291.619 119.965C291.585 120.095 291.525 120.217 291.444 120.324C257.808 164.467 246.573 218.286 243.071 255.662C239.274 296.184 243.493 326.612 243.536 326.915C243.556 327.06 243.546 327.208 243.504 327.348C243.463 327.489 243.391 327.618 243.295 327.729C243.199 327.839 243.081 327.928 242.947 327.989C242.814 328.05 242.669 328.081 242.523 328.081Z" fill="#3F3D56"/>
<path d="M259.484 177.963C259.268 177.963 259.058 177.895 258.883 177.768C258.708 177.641 258.578 177.463 258.512 177.257C258.445 177.052 258.445 176.831 258.511 176.626C258.578 176.42 258.708 176.241 258.882 176.115C259.006 176.025 271.418 167.082 289.974 160.287C307.127 154.007 333.212 148.314 360.066 156.861C360.194 156.901 360.312 156.967 360.415 157.053C360.518 157.14 360.602 157.245 360.664 157.365C360.726 157.484 360.764 157.614 360.775 157.748C360.786 157.882 360.771 158.016 360.73 158.144C360.69 158.272 360.624 158.391 360.538 158.494C360.451 158.596 360.345 158.681 360.226 158.742C360.106 158.804 359.976 158.841 359.842 158.853C359.709 158.864 359.574 158.849 359.446 158.808C333.142 150.437 307.531 156.036 290.676 162.207C272.385 168.904 260.205 177.68 260.084 177.768C259.91 177.895 259.7 177.963 259.484 177.963Z" fill="#3F3D56"/>
<path d="M53.3641 300.234L56.8168 301.315L79.9857 227.279C79.0382 227.037 78.0344 227.168 77.1804 227.644C76.3264 228.12 75.6872 228.905 75.394 229.838L53.3641 300.234Z" fill="#3F3D56"/>
<path d="M129.511 203.658H114.237V158.763H129.511C132.433 158.767 135.234 159.929 137.301 161.995C139.367 164.062 140.529 166.863 140.532 169.785V192.637C140.529 195.559 139.367 198.36 137.301 200.427C135.234 202.493 132.433 203.655 129.511 203.658Z" fill="#2F2E41"/>
<path d="M127.385 179.608C126.874 179.607 126.385 179.404 126.025 179.043C125.664 178.683 125.461 178.194 125.46 177.683V161.008H129.309V177.683C129.308 178.194 129.105 178.683 128.744 179.043C128.384 179.404 127.895 179.607 127.385 179.608Z" fill="#3F3D56"/>
<path d="M132.01 200.131H120.835C120.191 200.13 119.573 199.874 119.118 199.419C118.662 198.963 118.406 198.346 118.406 197.702V191.016C118.406 190.372 118.662 189.754 119.118 189.299C119.573 188.843 120.191 188.587 120.835 188.587H132.01C132.654 188.587 133.272 188.843 133.727 189.299C134.183 189.754 134.439 190.372 134.439 191.016V197.702C134.439 198.346 134.183 198.963 133.727 199.419C133.272 199.874 132.654 200.13 132.01 200.131Z" fill="#3F3D56"/>
<path d="M99.4243 154.092C99.1617 154.092 98.9071 154.002 98.7038 153.835C98.5779 153.733 98.4746 153.605 98.4003 153.461C98.326 153.316 98.2824 153.158 98.2722 152.996C97.9118 147.243 98.9112 141.485 101.19 136.19C102.733 132.615 104.509 130.312 106.779 128.941C109.806 127.113 113.961 126.967 118.176 128.541C120.586 129.44 122.323 130.616 123.488 132.135C125.043 134.162 125.53 136.762 125.826 139.27C126.271 143.064 126.376 146.891 126.138 150.705C126.128 150.902 126.065 151.092 125.956 151.257C125.848 151.422 125.697 151.555 125.52 151.643C125.329 151.736 125.117 151.778 124.904 151.764C124.692 151.75 124.487 151.681 124.31 151.563C124.238 151.516 124.165 151.473 124.089 151.434C123.705 151.241 123.28 151.143 122.851 151.149C122.421 151.154 121.999 151.263 121.62 151.465C121.342 151.63 121.079 151.818 120.834 152.029L119.318 153.256C119.131 153.405 118.903 153.492 118.665 153.507C118.426 153.522 118.189 153.464 117.985 153.341C116.885 152.716 115.657 152.353 114.395 152.28C112.719 152.218 111.041 152.34 109.392 152.644L99.5955 154.08C99.5388 154.088 99.4816 154.092 99.4243 154.092Z" fill="#2F2E41"/>
<path d="M98.1164 317.483H92.8848L90.3961 297.304H98.1173L98.1164 317.483Z" fill="#FFB6B6"/>
<path d="M100.931 327.416H97.2186L96.556 323.912L94.859 327.416H85.0132C84.5413 327.416 84.0817 327.266 83.7015 326.986C83.3214 326.706 83.0406 326.312 82.9001 325.862C82.7597 325.411 82.7669 324.928 82.9208 324.481C83.0747 324.035 83.3672 323.65 83.7556 323.382L91.6181 317.952V314.408L99.8881 314.902L100.931 327.416Z" fill="#2F2E41"/>
<path d="M158.323 313.007L153.501 315.035L143.385 297.398L150.503 294.406L158.323 313.007Z" fill="#FFB6B6"/>
<path d="M164.768 321.073L161.346 322.512L159.377 319.538L159.171 323.427L150.095 327.243C149.66 327.426 149.177 327.465 148.719 327.355C148.26 327.244 147.848 326.99 147.544 326.629C147.24 326.268 147.059 325.82 147.028 325.349C146.997 324.878 147.117 324.409 147.371 324.012L152.515 315.958L151.141 312.692L158.956 309.942L164.768 321.073Z" fill="#2F2E41"/>
<path d="M95.6719 180.053L94.1727 200.138L84.2297 230.132L80.2365 227.811L85.654 197.306L87.4938 179.708L95.6719 180.053Z" fill="#FFB6B6"/>
<path d="M81.9106 234.507C84.2218 234.507 86.0953 232.633 86.0953 230.322C86.0953 228.011 84.2218 226.137 81.9106 226.137C79.5995 226.137 77.7259 228.011 77.7259 230.322C77.7259 232.633 79.5995 234.507 81.9106 234.507Z" fill="#FFB6B6"/>
<path d="M121.185 203.185V208.725C121.185 208.725 129.76 223.837 126.269 230.322L139.143 265.54C139.143 265.54 156.602 282.999 155.106 295.47L156.104 299.461L144.63 304.449L142.136 300.957L122.682 267.535L106.22 237.106L103.227 273.022C103.227 273.022 105.222 300.957 99.735 303.95L99.2362 308.44H87.592V304.172C87.592 304.172 83.2734 288.985 85.7676 277.512L84.7699 229.125C84.7699 229.125 89.2594 208.672 94.7466 205.181L96.742 200.192L121.185 203.185Z" fill="#2F2E41"/>
<path d="M130.347 164.782L119.474 159.691L116.335 154.222L105.782 154.82L102.588 160.033L93.194 161.937L94.5745 195.89C93.9595 196.954 93.7403 198.202 93.9556 199.413C94.2852 201.541 95.9591 199.867 94.2852 201.541C92.6113 203.214 91.3496 202.373 92.1897 203.84C93.0298 205.307 90.9636 207.594 90.9636 207.594C90.9636 207.594 117.686 221.204 125.235 203.84C125.235 203.84 126.724 198.761 124.209 188.12C121.695 177.479 130.347 164.782 130.347 164.782Z" fill="#E4E4E4"/>
<path d="M96.2813 164.099L93.194 161.937C93.194 161.937 88.9238 163.69 88.7798 167.236C88.6358 170.783 86.1813 181.397 86.1813 181.397L95.9294 186.637L96.2813 164.099Z" fill="#E4E4E4"/>
<path d="M132.915 181.727L131.417 201.811L114.778 226.785L110.785 224.463L122.898 198.98L124.738 181.383L132.915 181.727Z" fill="#FFB6B6"/>
<path d="M125.261 165.918L130.347 164.782C130.347 164.782 133.412 165.761 133.831 170.364C134.249 174.968 134.6 182.979 134.6 182.979L123.927 190.828L121.277 179.571L125.261 165.918Z" fill="#E4E4E4"/>
<path d="M112.041 231.159C114.352 231.159 116.225 229.285 116.225 226.974C116.225 224.663 114.352 222.79 112.041 222.79C109.729 222.79 107.856 224.663 107.856 226.974C107.856 229.285 109.729 231.159 112.041 231.159Z" fill="#FFB6B6"/>
<path d="M110.104 152.429C115.489 152.429 119.855 148.064 119.855 142.679C119.855 137.294 115.489 132.928 110.104 132.928C104.719 132.928 100.354 137.294 100.354 142.679C100.354 148.064 104.719 152.429 110.104 152.429Z" fill="#FFB7B7"/>
<path d="M102.163 141.209H102.162C100.92 141.208 99.6764 141.207 98.4311 141.204C98.2827 141.203 98.136 141.173 97.9995 141.115C97.863 141.056 97.7395 140.972 97.6363 140.865C97.5347 140.761 97.4553 140.637 97.4029 140.501C97.3505 140.365 97.3261 140.22 97.3313 140.075C97.4232 138.008 98.0136 135.995 99.0522 134.207C100.091 132.418 101.547 130.907 103.296 129.803C105.135 128.682 107.233 128.057 109.386 127.989C111.539 127.921 113.673 128.412 115.579 129.415C117.485 130.418 119.099 131.899 120.262 133.712C121.425 135.525 122.097 137.608 122.215 139.759C122.223 139.904 122.202 140.05 122.153 140.187C122.105 140.324 122.029 140.45 121.932 140.558C121.834 140.666 121.716 140.753 121.584 140.815C121.452 140.877 121.309 140.911 121.164 140.917C116.849 141.1 112.062 141.189 105.644 141.205H105.64C105.422 141.206 105.208 141.141 105.027 141.019C104.846 140.898 104.705 140.724 104.623 140.522L104.52 140.269C104.465 140.136 104.37 140.024 104.248 139.948C104.125 139.873 103.982 139.838 103.839 139.849C103.696 139.86 103.559 139.916 103.45 140.009C103.34 140.102 103.263 140.227 103.23 140.367C103.173 140.607 103.036 140.821 102.843 140.974C102.649 141.126 102.409 141.209 102.163 141.209Z" fill="#2F2E41"/>
<path d="M123.988 190.382C121.367 187.916 120.241 184.338 120.223 180.805C120.202 176.769 121.663 172.936 123.552 169.427C124.694 167.305 125.996 165.274 127.299 163.248C127.737 162.567 126.651 161.937 126.215 162.615C121.808 169.47 116.954 177.589 119.796 186.013C120.449 188.01 121.583 189.816 123.1 191.27C123.688 191.823 124.578 190.937 123.988 190.382Z" fill="#3F3D56"/>
<path d="M53.431 265.295C51.2717 264.614 48.9641 264.556 46.7734 265.128C46.7683 265.131 46.7645 265.13 46.7596 265.133C45.0618 265.574 43.479 266.376 42.1192 267.484C42.0402 267.548 41.9652 267.613 41.89 267.677C40.1671 269.155 38.8951 271.088 38.2196 273.255L28.9034 303.025C28.2104 305.229 28.163 307.585 28.767 309.814C28.8035 309.939 28.84 310.065 28.8767 310.19C29.3289 311.667 30.0567 313.045 31.0216 314.252C31.0277 314.258 31.0325 314.265 31.036 314.273C32.5422 316.143 34.5708 317.523 36.8635 318.236L54.4337 323.735L71.0012 270.794L53.431 265.295Z" fill="#0E2645"/>
<path d="M81.1365 227.639L58.5079 299.948C58.4367 300.175 58.4109 300.414 58.432 300.65C58.4531 300.887 58.5206 301.117 58.6307 301.328C58.7408 301.539 58.8914 301.725 59.0737 301.878C59.2561 302.03 59.4667 302.145 59.6935 302.216C59.9204 302.287 60.159 302.313 60.3957 302.292C60.6324 302.27 60.8626 302.203 61.0732 302.092C61.2837 301.982 61.4704 301.831 61.6227 301.649C61.775 301.466 61.8898 301.256 61.9606 301.029L83.4502 232.359C83.741 231.425 83.6633 230.416 83.233 229.538C82.8027 228.66 82.0525 227.981 81.1365 227.639Z" fill="#3F3D56"/>
<path d="M52.9145 327.701C54.7037 327.701 56.1542 326.251 56.1542 324.462C56.1542 322.672 54.7037 321.222 52.9145 321.222C51.1253 321.222 49.6748 322.672 49.6748 324.462C49.6748 326.251 51.1253 327.701 52.9145 327.701Z" fill="#3F3D56"/>
<path d="M31.8148 321.098C33.604 321.098 35.0545 319.648 35.0545 317.859C35.0545 316.069 33.604 314.619 31.8148 314.619C30.0256 314.619 28.5751 316.069 28.5751 317.859C28.5751 319.648 30.0256 321.098 31.8148 321.098Z" fill="#3F3D56"/>
<path d="M46.7734 265.128C43.418 275.649 34.6283 303.157 31.0359 314.273C31.0325 314.265 31.0277 314.258 31.0216 314.252C30.0567 313.045 29.3289 311.667 28.8767 310.19C28.8402 310.065 28.8036 309.94 28.7669 309.814C32.6186 297.735 39.0697 277.363 41.89 267.677C41.9652 267.612 42.0402 267.548 42.1192 267.484C43.479 266.376 45.0618 265.574 46.7596 265.133C46.7645 265.13 46.7683 265.131 46.7734 265.128Z" fill="#3F3D56"/>
<path d="M311.505 327.913H0.57196C0.420556 327.913 0.275505 327.852 0.168601 327.745C0.0616966 327.638 0.00166035 327.492 0.00166035 327.341C0.00166035 327.19 0.0616966 327.044 0.168601 326.937C0.275505 326.83 0.420556 326.769 0.57196 326.769H311.505C311.656 326.769 311.801 326.83 311.908 326.937C312.015 327.044 312.075 327.19 312.075 327.341C312.075 327.492 312.015 327.638 311.908 327.745C311.801 327.852 311.656 327.913 311.505 327.913Z" fill="#CACACA"/>
<path d="M150.94 27.9588C146.002 23.0484 141.272 16.3702 134.309 16.373C123.608 16.3774 119.012 31.8714 108.54 34.0731C103.863 35.0565 99.0912 33.0989 94.3127 33.0142C89.5342 32.9295 83.8185 36.3992 84.8282 41.0705L175.928 39.6971C166.512 38.7194 157.704 34.5819 150.94 27.9588Z" fill="#F0F0F0"/>
<path d="M353.832 7.46973C343.132 7.4741 338.535 22.968 328.063 25.1698C323.387 26.1532 318.615 24.1955 313.836 24.1108C309.058 24.0262 303.342 27.4958 304.352 32.1672L395.451 30.7938C386.035 29.8161 377.227 25.6786 370.463 19.0555C365.525 14.145 360.796 7.46685 353.832 7.46973Z" fill="#F0F0F0"/>
</g>
<defs>
<clipPath id="clip0_656_1309">
<rect width="400" height="328.081" fill="white"/>
</clipPath>
</defs>
</svg>
