<svg width="24" height="24" viewBox="0 0 24 24" fill="none" xmlns="http://www.w3.org/2000/svg">
<path d="M19.1914 18.1029L4.08857 3L3 4.08857L6.13714 7.22571C5.70857 7.80857 5.47714 8.51143 5.47714 9.23143V18.66C5.47714 19.1147 5.65775 19.5507 5.97925 19.8722C6.30074 20.1937 6.73677 20.3743 7.19143 20.3743H17.4771C17.9571 20.3743 18.4029 20.1686 18.7286 19.8171L19.9114 21L21 19.9114L19.1914 18.1029ZM9.76286 15.2314V16.9457H8.90571V15.2314H7.19143V14.3743H13.2857L14.1429 15.2314H9.76286ZM19.1914 9.23143C19.1914 8.32211 18.8302 7.45004 18.1872 6.80706C17.5442 6.16408 16.6722 5.80286 15.7629 5.80286V4.94571C15.7629 4.49106 15.5822 4.05502 15.2608 3.73353C14.9393 3.41204 14.5032 3.23143 14.0486 3.23143H10.62C10.1653 3.23143 9.72931 3.41204 9.40782 3.73353C9.08633 4.05502 8.90571 4.49106 8.90571 4.94571V5.63143L19.1914 15.9171V9.23143ZM14.0486 5.80286H10.62V4.94571H14.0486V5.80286Z" fill="#BFBFBF"/>
</svg>
