<svg  viewBox="0 0 25 24" fill="none" xmlns="http://www.w3.org/2000/svg">
<path d="M16 5.625V4.75C16 4.28587 15.8156 3.84075 15.4874 3.51256C15.1592 3.18437 14.7141 3 14.25 3H10.75C10.2859 3 9.84075 3.18437 9.51256 3.51256C9.18437 3.84075 9 4.28587 9 4.75V5.625C8.07174 5.625 7.1815 5.99375 6.52513 6.65013C5.86875 7.3065 5.5 8.19674 5.5 9.125V18.75C5.5 19.2141 5.68437 19.6592 6.01256 19.9874C6.34075 20.3156 6.78587 20.5 7.25 20.5H17.75C18.2141 20.5 18.6592 20.3156 18.9874 19.9874C19.3156 19.6592 19.5 19.2141 19.5 18.75V9.125C19.5 8.19674 19.1313 7.3065 18.4749 6.65013C17.8185 5.99375 16.9283 5.625 16 5.625ZM10.75 4.75H14.25V5.625H10.75V4.75ZM12.5 9.125L14.25 10.875L12.5 12.625L10.75 10.875L12.5 9.125ZM17.75 15.25H9.875V17H9V15.25H7.25V14.375H17.75V15.25Z" fill="#7ADB6A"/>
</svg>
