<svg width="16" height="16" viewBox="0 0 16 16" fill="none" xmlns="http://www.w3.org/2000/svg">
<path d="M7.99984 1.33331C5.05317 1.33331 2.6665 1.66665 2.6665 3.99998V10.6666C2.668 10.9462 2.72811 11.2224 2.84294 11.4773C2.95777 11.7322 3.12477 11.9603 3.33317 12.1466V13.3333C3.33317 13.5101 3.40341 13.6797 3.52843 13.8047C3.65346 13.9297 3.82303 14 3.99984 14H4.6665C4.84331 14 5.01288 13.9297 5.13791 13.8047C5.26293 13.6797 5.33317 13.5101 5.33317 13.3333V12.6666H9.33317C8.9346 11.9504 8.70648 11.152 8.6665 10.3333C8.67244 9.74294 8.81957 9.16257 9.09559 8.64067C9.37162 8.11877 9.76853 7.6705 10.2532 7.33331H3.99984V3.99998H11.9998V6.66665C12.1108 6.65981 12.2222 6.65981 12.3332 6.66665C12.6718 6.66773 13.0085 6.71711 13.3332 6.81331V3.99998C13.3332 1.66665 10.9465 1.33331 7.99984 1.33331ZM4.99984 9.33331C5.19762 9.33331 5.39096 9.39196 5.55541 9.50184C5.71986 9.61172 5.84803 9.7679 5.92372 9.95063C5.9994 10.1334 6.01921 10.3344 5.98062 10.5284C5.94204 10.7224 5.8468 10.9006 5.70694 11.0404C5.56709 11.1803 5.38891 11.2755 5.19493 11.3141C5.00095 11.3527 4.79988 11.3329 4.61715 11.2572C4.43443 11.1815 4.27825 11.0533 4.16837 10.8889C4.05849 10.7244 3.99984 10.5311 3.99984 10.3333C3.99984 10.0681 4.10519 9.81374 4.29273 9.62621C4.48027 9.43867 4.73462 9.33331 4.99984 9.33331ZM12.3332 7.99998C11.7165 8.00691 11.127 8.25497 10.6909 8.69106C10.2548 9.12715 10.0068 9.71662 9.99984 10.3333C9.99984 12.0666 12.3332 14.6666 12.3332 14.6666C12.3332 14.6666 14.6665 12.0666 14.6665 10.3333C14.6596 9.71662 14.4115 9.12715 13.9754 8.69106C13.5393 8.25497 12.9499 8.00691 12.3332 7.99998ZM12.3332 11.2C12.121 11.2 11.9175 11.1157 11.7675 10.9657C11.6175 10.8156 11.5332 10.6122 11.5332 10.4C11.5332 10.1878 11.6175 9.98432 11.7675 9.83429C11.9175 9.68426 12.121 9.59998 12.3332 9.59998C12.5407 9.61402 12.7361 9.70281 12.8832 9.84991C13.0303 9.997 13.1191 10.1924 13.1332 10.4C13.1379 10.5063 13.1204 10.6124 13.0819 10.7116C13.0434 10.8108 12.9846 10.9009 12.9094 10.9762C12.8341 11.0514 12.744 11.1102 12.6448 11.1487C12.5456 11.1873 12.4395 11.2047 12.3332 11.2Z" fill="#404040"/>
</svg>
