<svg  viewBox="0 0 20 12" fill="none" xmlns="http://www.w3.org/2000/svg">
<path d="M2 0H18C19.1 0 20 0.9 20 2V10C20 11.1 19.1 12 18 12H2C0.9 12 0 11.1 0 10V2C0 0.9 0.9 0 2 0Z" fill="#B22234"/>
<path d="M0 1.40002H20H0ZM20 3.20002H0H20ZM0 5.10002H20H0ZM20 6.90002H0H20ZM0 8.80002H20H0ZM20 10.6H0H20Z" fill="black"/>
<path d="M20 11.1H0V10.2H20V11.1ZM20 9.20002H0V8.30002H20V9.20002ZM20 7.40002H0V6.50002H20V7.40002ZM20 5.50002H0V4.60002H20V5.50002ZM20 3.70002H0V2.80002H20V3.70002ZM20 1.80002H0V0.900024H20V1.80002Z" fill="white"/>
<path d="M2 0H9.1V6.5H0V2C0 0.9 0.9 0 2 0Z" fill="#3C3B6E"/>
<path d="M0.800002 0.299988L1 0.899988L0.400002 0.499988H1.1L0.500002 0.899988L0.800002 0.299988Z" fill="white"/>
<path d="M0.800002 1.59998L1 2.19998L0.400002 1.79998H1.1L0.500002 2.19998L0.800002 1.59998Z" fill="white"/>
<path d="M0.800002 2.89996L1 3.49996L0.400002 3.09996H1.1L0.500002 3.49996L0.800002 2.89996Z" fill="white"/>
<path d="M0.800002 4.20001L1 4.80001L0.400002 4.40001H1.1L0.500002 4.80001L0.800002 4.20001Z" fill="white"/>
<path d="M0.800002 5.39996L1 6.09996L0.400002 5.69996H1.1L0.500002 6.09996L0.800002 5.39996Z" fill="white"/>
<path d="M1.5 0.899963L1.7 1.59996L1.2 1.19996H1.9L1.3 1.59996L1.5 0.899963Z" fill="white"/>
<path d="M1.5 2.19995L1.7 2.89995L1.2 2.49995H1.9L1.3 2.89995L1.5 2.19995Z" fill="white"/>
<path d="M1.5 3.49994L1.7 4.19994L1.2 3.79994H1.9L1.3 4.19994L1.5 3.49994Z" fill="white"/>
<path d="M1.5 4.79999L1.7 5.49999L1.2 5.09999H1.9L1.3 5.49999L1.5 4.79999Z" fill="white"/>
<path d="M2.3 0.299988L2.5 0.999988L1.9 0.499988H2.6L2.1 0.899988L2.3 0.299988Z" fill="white"/>
<path d="M2.3 1.59998L2.5 2.29998L1.9 1.79998H2.6L2.1 2.19998L2.3 1.59998Z" fill="white"/>
<path d="M2.3 2.89996L2.5 3.59996L1.9 3.09996H2.6L2.1 3.49996L2.3 2.89996Z" fill="white"/>
<path d="M2.3 4.20001L2.5 4.90001L1.9 4.40001H2.6L2.1 4.80001L2.3 4.20001Z" fill="white"/>
<path d="M2.3 5.39996L2.5 6.09996L1.9 5.69996H2.6L2.1 6.09996L2.3 5.39996Z" fill="white"/>
<path d="M3 0.899963L3.2 1.59996L2.7 1.19996H3.4L2.8 1.59996L3 0.899963Z" fill="white"/>
<path d="M3 2.19995L3.2 2.89995L2.7 2.49995H3.4L2.8 2.89995L3 2.19995Z" fill="white"/>
<path d="M3 3.49994L3.2 4.19994L2.7 3.79994H3.4L2.8 4.19994L3 3.49994Z" fill="white"/>
<path d="M3 4.79999L3.2 5.49999L2.7 5.09999H3.4L2.8 5.49999L3 4.79999Z" fill="white"/>
<path d="M3.8 0.299988L4 0.899988L3.4 0.499988H4.1L3.6 0.899988L3.8 0.299988Z" fill="white"/>
<path d="M3.8 1.59998L4 2.19998L3.4 1.79998H4.1L3.6 2.19998L3.8 1.59998Z" fill="white"/>
<path d="M3.8 2.89996L4 3.49996L3.4 3.09996H4.1L3.6 3.49996L3.8 2.89996Z" fill="white"/>
<path d="M3.8 4.20001L4 4.80001L3.4 4.40001H4.1L3.6 4.80001L3.8 4.20001Z" fill="white"/>
<path d="M3.8 5.39996L4 6.09996L3.4 5.69996H4.1L3.6 6.09996L3.8 5.39996Z" fill="white"/>
<path d="M4.6 0.899963L4.8 1.59996L4.2 1.19996H4.9L4.3 1.59996L4.6 0.899963Z" fill="white"/>
<path d="M4.6 2.19995L4.8 2.89995L4.2 2.49995H4.9L4.3 2.89995L4.6 2.19995Z" fill="white"/>
<path d="M4.6 3.49994L4.8 4.19994L4.2 3.79994H4.9L4.3 4.19994L4.6 3.49994Z" fill="white"/>
<path d="M4.6 4.79999L4.8 5.49999L4.2 5.09999H4.9L4.3 5.49999L4.6 4.79999Z" fill="white"/>
<path d="M5.3 0.299988L5.5 0.999988L5 0.499988H5.7L5.1 0.899988L5.3 0.299988Z" fill="white"/>
<path d="M5.3 1.59998L5.5 2.29998L5 1.79998H5.7L5.1 2.19998L5.3 1.59998Z" fill="white"/>
<path d="M5.3 2.89996L5.5 3.59996L5 3.09996H5.7L5.1 3.49996L5.3 2.89996Z" fill="white"/>
<path d="M5.3 4.20001L5.5 4.90001L5 4.40001H5.7L5.1 4.80001L5.3 4.20001Z" fill="white"/>
<path d="M5.3 5.39996L5.5 6.09996L5 5.69996H5.7L5.1 6.09996L5.3 5.39996Z" fill="white"/>
<path d="M6.1 0.899963L6.3 1.59996L5.7 1.19996H6.4L5.9 1.59996L6.1 0.899963Z" fill="white"/>
<path d="M6.1 2.19995L6.3 2.89995L5.7 2.49995H6.4L5.9 2.89995L6.1 2.19995Z" fill="white"/>
<path d="M6.1 3.49994L6.3 4.19994L5.7 3.79994H6.4L5.9 4.19994L6.1 3.49994Z" fill="white"/>
<path d="M6.1 4.79999L6.3 5.49999L5.7 5.09999H6.4L5.9 5.49999L6.1 4.79999Z" fill="white"/>
<path d="M6.8 0.299988L7 0.999988L6.5 0.499988H7.2L6.6 0.899988L6.8 0.299988Z" fill="white"/>
<path d="M6.8 1.59998L7 2.29998L6.5 1.79998H7.2L6.6 2.19998L6.8 1.59998Z" fill="white"/>
<path d="M6.8 2.89996L7 3.59996L6.5 3.09996H7.2L6.6 3.49996L6.8 2.89996Z" fill="white"/>
<path d="M6.8 4.20001L7 4.90001L6.5 4.40001H7.2L6.6 4.80001L6.8 4.20001Z" fill="white"/>
<path d="M6.8 5.39996L7 6.09996L6.5 5.69996H7.2L6.6 6.09996L6.8 5.39996Z" fill="white"/>
<path d="M7.6 0.899963L7.8 1.59996L7.2 1.19996H8L7.4 1.59996L7.6 0.899963Z" fill="white"/>
<path d="M7.6 2.19995L7.8 2.89995L7.2 2.49995H8L7.4 2.89995L7.6 2.19995Z" fill="white"/>
<path d="M7.6 3.49994L7.8 4.19994L7.2 3.79994H8L7.4 4.19994L7.6 3.49994Z" fill="white"/>
<path d="M7.6 4.79999L7.8 5.49999L7.2 5.09999H8L7.4 5.49999L7.6 4.79999Z" fill="white"/>
<path d="M8.4 0.299988L8.6 0.999988L8 0.499988H8.7L8.1 0.899988L8.4 0.299988Z" fill="white"/>
<path d="M8.4 1.59998L8.6 2.29998L8 1.79998H8.7L8.1 2.19998L8.4 1.59998Z" fill="white"/>
<path d="M8.4 2.89996L8.6 3.59996L8 3.09996H8.7L8.1 3.49996L8.4 2.89996Z" fill="white"/>
<path d="M8.4 4.20001L8.6 4.90001L8 4.40001H8.7L8.1 4.80001L8.4 4.20001Z" fill="white"/>
<path d="M8.4 5.39996L8.6 6.09996L8 5.69996H8.7L8.1 6.09996L8.4 5.39996Z" fill="white"/>
</svg>
