<svg width="13" height="12" viewBox="0 0 13 12" fill="none" xmlns="http://www.w3.org/2000/svg">
<path d="M8.89474 10.3333C7.18421 10.3333 5.69263 9.38667 4.95368 8H8.89474L9.57895 6.66667H4.50211C4.46789 6.44667 4.44737 6.22667 4.44737 6C4.44737 5.77333 4.46789 5.55333 4.50211 5.33333H8.89474L9.57895 4H4.95368C5.69263 2.61333 7.18421 1.66667 8.89474 1.66667C9.99632 1.66667 11.0089 2.06 11.7889 2.71333L13 1.53333C11.9121 0.58 10.4684 0 8.89474 0C6.21263 0 3.94105 1.66667 3.07895 4H0.684211L0 5.33333H2.77789C2.73684 5.55333 2.73684 5.77333 2.73684 6C2.73684 6.22667 2.73684 6.44667 2.77789 6.66667H0.684211L0 8H3.07895C3.94105 10.3333 6.21263 12 8.89474 12C10.4753 12 11.9121 11.42 13 10.4667L11.7821 9.28667C11.0089 9.94 10.0032 10.3333 8.89474 10.3333Z" fill="black"/>
</svg>
