<svg width="400" height="228" viewBox="0 0 400 228" fill="none" xmlns="http://www.w3.org/2000/svg">
<g clip-path="url(#clip0_604_3004)">
<path opacity="0.1" d="M400 150.549C400.021 162.121 396.862 173.476 390.867 183.374C390.867 195.479 385.224 206.451 376.07 214.447C373.779 216.45 371.312 218.241 368.699 219.801C368.594 219.867 368.486 219.93 368.378 219.993C368.182 220.108 367.986 220.224 367.787 220.343L367.601 220.451C358.937 225.28 349.171 227.788 339.252 227.731H75.9334C57.7761 227.731 41.339 221.409 29.43 211.192C17.5209 200.975 10.1817 186.836 10.1817 171.241C3.51298 160.972 -0.024676 148.985 -0.000117137 136.741C-0.000117137 102.077 27.7062 73.9755 61.888 73.9755C63.0978 73.9755 64.2971 74.0174 65.4894 74.0839C86.937 37.5105 135.315 12.007 191.517 12.007C226.07 12.007 257.654 21.6398 281.846 37.5559C291.01 32.3754 301.361 29.6589 311.888 29.6713C346.063 29.6713 373.776 57.7727 373.776 92.437C373.771 94.6303 373.654 96.822 373.426 99.0034C381.664 104.835 388.379 112.562 393.004 121.533C397.629 130.504 400.028 140.456 400 150.549Z" fill="#0E2645"/>
<path opacity="0.1" d="M144.406 170.371C220.103 170.371 281.469 168.727 281.469 166.699C281.469 164.672 220.103 163.028 144.406 163.028C68.7079 163.028 7.34277 164.672 7.34277 166.699C7.34277 168.727 68.7079 170.371 144.406 170.371Z" fill="#0E2645"/>
<g opacity="0.7">
<path d="M93.3567 139.601H49.6504V163.727H93.3567V139.601Z" fill="#65617D"/>
<path opacity="0.1" d="M78.3216 143.797H65.0349V146.594H78.3216V143.797Z" fill="black"/>
<path opacity="0.1" d="M76.6608 144.147H66.6958V146.245H76.6608V144.147Z" fill="black"/>
<path d="M137.762 139.601H94.0559V163.727H137.762V139.601Z" fill="#65617D"/>
<path opacity="0.1" d="M122.727 143.797H109.441V146.594H122.727V143.797Z" fill="black"/>
<path opacity="0.1" d="M121.067 144.147H111.102V146.245H121.067V144.147Z" fill="black"/>
<path d="M93.3567 114.776H49.6504V138.902H93.3567V114.776Z" fill="#65617D"/>
<path opacity="0.1" d="M78.3216 118.972H65.0349V121.769H78.3216V118.972Z" fill="black"/>
<path opacity="0.1" d="M76.6608 119.322H66.6958V121.42H76.6608V119.322Z" fill="black"/>
<path d="M137.762 114.776H94.0559V138.902H137.762V114.776Z" fill="#65617D"/>
<path opacity="0.1" d="M122.727 118.972H109.441V121.769H122.727V118.972Z" fill="black"/>
<path opacity="0.1" d="M121.067 119.322H111.102V121.42H121.067V119.322Z" fill="black"/>
<path d="M93.3567 89.6013H49.6504V113.727H93.3567V89.6013Z" fill="#65617D"/>
<path opacity="0.1" d="M78.3216 93.7971H65.0349V96.5943H78.3216V93.7971Z" fill="black"/>
<path opacity="0.1" d="M76.6608 94.1469H66.6958V96.2448H76.6608V94.1469Z" fill="black"/>
<path d="M137.762 89.6013H94.0559V113.727H137.762V89.6013Z" fill="#65617D"/>
<path opacity="0.1" d="M122.727 93.7971H109.441V96.5943H122.727V93.7971Z" fill="black"/>
<path opacity="0.1" d="M121.067 94.1469H111.102V96.2448H121.067V94.1469Z" fill="black"/>
<path d="M137.762 64.4265H94.0559V88.5524H137.762V64.4265Z" fill="#65617D"/>
<path opacity="0.1" d="M122.727 68.6223H109.441V71.4195H122.727V68.6223Z" fill="black"/>
<path opacity="0.1" d="M121.067 68.9719H111.102V71.0698H121.067V68.9719Z" fill="black"/>
</g>
<g opacity="0.7">
<path d="M182.168 139.252H138.461V163.378H182.168V139.252Z" fill="#65617D"/>
<path opacity="0.1" d="M167.133 143.448H153.846V146.245H167.133V143.448Z" fill="black"/>
<path opacity="0.1" d="M165.472 143.797H155.507V145.895H165.472V143.797Z" fill="black"/>
<path d="M226.573 139.252H182.867V163.378H226.573V139.252Z" fill="#65617D"/>
<path opacity="0.1" d="M211.538 143.448H198.252V146.245H211.538V143.448Z" fill="black"/>
<path opacity="0.1" d="M209.878 143.797H199.913V145.895H209.878V143.797Z" fill="black"/>
<path d="M182.168 114.427H138.461V138.552H182.168V114.427Z" fill="#65617D"/>
<path opacity="0.1" d="M167.133 118.622H153.846V121.42H167.133V118.622Z" fill="black"/>
<path opacity="0.1" d="M165.472 118.972H155.507V121.07H165.472V118.972Z" fill="black"/>
<path d="M226.573 114.427H182.867V138.552H226.573V114.427Z" fill="#65617D"/>
<path opacity="0.1" d="M211.538 118.622H198.252V121.42H211.538V118.622Z" fill="black"/>
<path opacity="0.1" d="M209.878 118.972H199.913V121.07H209.878V118.972Z" fill="black"/>
<path d="M182.168 89.2517H138.461V113.378H182.168V89.2517Z" fill="#65617D"/>
<path opacity="0.1" d="M167.133 93.4475H153.846V96.2447H167.133V93.4475Z" fill="black"/>
<path opacity="0.1" d="M165.472 93.7972H155.507V95.8951H165.472V93.7972Z" fill="black"/>
<path d="M226.573 89.2517H182.867V113.378H226.573V89.2517Z" fill="#65617D"/>
<path opacity="0.1" d="M211.538 93.4475H198.252V96.2447H211.538V93.4475Z" fill="black"/>
<path opacity="0.1" d="M209.878 93.7972H199.913V95.8951H209.878V93.7972Z" fill="black"/>
<path d="M226.573 64.0769H182.867V88.2028H226.573V64.0769Z" fill="#65617D"/>
<path opacity="0.1" d="M211.538 68.2727H198.252V71.0699H211.538V68.2727Z" fill="black"/>
<path opacity="0.1" d="M209.878 68.6223H199.913V70.7202H209.878V68.6223Z" fill="black"/>
</g>
<path opacity="0.1" d="M307.094 0.0384555C307.094 0.0384555 277.657 -1.73777 281.119 18.8916C281.119 18.8916 280.42 22.5385 283.734 24.1923C283.734 24.1923 283.787 22.6643 286.755 23.1853C287.812 23.3605 288.886 23.4121 289.955 23.3392C291.398 23.2394 292.771 22.6724 293.864 21.7238C293.864 21.7238 302.14 18.3042 305.357 4.77971C305.357 4.77971 307.738 1.82866 307.643 1.06992L302.675 3.1923C302.675 3.1923 304.374 6.77622 303.025 9.75524C303.025 9.75524 302.864 3.32167 301.909 3.46153C301.717 3.493 299.329 4.70279 299.329 4.70279C299.329 4.70279 302.248 10.944 300.046 15.4825C300.046 15.4825 300.881 7.7902 298.416 5.15384L294.92 7.1958C294.92 7.1958 298.332 13.6433 296.018 18.9056C296.018 18.9056 296.612 10.8357 294.182 7.6923L291.014 10.1643C291.014 10.1643 294.22 16.521 292.266 20.8846C292.266 20.8846 292.011 11.4895 290.329 10.7797C290.329 10.7797 287.556 13.2273 287.133 14.2273C287.133 14.2273 289.329 18.8426 287.965 21.2762C287.965 21.2762 287.129 15.0175 286.444 14.9825C286.444 14.9825 283.682 19.1294 283.395 21.9755C283.395 21.9755 283.514 17.7447 285.776 14.5874C285.776 14.5874 283.105 15.0454 281.545 16.7797C281.545 16.7797 281.976 13.8461 286.458 13.5909C286.458 13.5909 288.741 10.444 289.35 10.2517C289.35 10.2517 284.895 9.88111 282.192 11.0769C282.192 11.0769 284.57 8.31118 290.168 9.56992L293.297 7.01398C293.297 7.01398 287.43 6.21328 284.941 7.09789C284.941 7.09789 287.804 4.65034 294.14 6.43706L297.552 4.41608C297.552 4.41608 292.549 3.33915 289.57 3.71678C289.57 3.71678 292.717 2.02097 298.552 3.86013L301 2.76573C301 2.76573 297.336 2.04545 296.262 1.93006C295.189 1.81468 295.133 1.52097 295.133 1.52097C297.454 1.13386 299.838 1.39895 302.018 2.28671C302.018 2.28671 307.185 0.36363 307.094 0.0384555Z" fill="#0E2645"/>
<path opacity="0.1" d="M270.787 5.28669C270.787 5.28669 257.5 4.48249 259.056 13.8077C259.056 13.8077 258.745 15.4545 260.234 16.2028C260.234 16.2028 260.259 15.5035 261.601 15.7447C262.078 15.825 262.563 15.8485 263.045 15.8147C263.698 15.7703 264.318 15.5137 264.811 15.0839C264.811 15.0839 268.552 13.5419 270.007 7.43004C270.007 7.43004 271.08 6.09438 271.038 5.75173L268.794 6.70976C268.794 6.70976 269.563 8.33214 268.958 9.6783C268.958 9.6783 268.885 6.7692 268.455 6.83913C268.367 6.83913 267.287 7.39858 267.287 7.39858C267.287 7.39858 268.608 10.2203 267.612 12.2727C267.612 12.2727 267.989 8.79718 266.874 7.60487L265.294 8.52795C265.294 8.52795 266.839 11.4405 265.79 13.8182C265.79 13.8182 266.059 10.1713 264.961 8.75172L263.531 9.86711C263.531 9.86711 264.979 12.7412 264.098 14.7133C264.098 14.7133 263.982 10.465 263.22 10.1468C263.22 10.1468 261.968 11.2517 261.776 11.7063C261.776 11.7063 262.769 13.8042 262.154 14.8881C262.154 14.8881 261.776 12.0594 261.455 12.0489C261.455 12.0489 260.21 13.9231 260.077 15.1958C260.139 14.008 260.51 12.857 261.154 11.8566C260.433 11.9931 259.769 12.337 259.241 12.8461C259.241 12.8461 259.437 11.5245 261.462 11.4056C261.462 11.4056 262.51 9.98599 262.769 9.89857C262.769 9.89857 260.755 9.73074 259.535 10.2727C259.535 10.2727 260.608 9.02095 263.14 9.59089L264.538 8.43704C264.538 8.43704 261.888 8.08739 260.762 8.4755C260.762 8.4755 262.056 7.3706 264.92 8.1748L266.458 7.25522C266.458 7.25522 264.199 6.76571 262.85 6.94403C262.85 6.94403 264.273 6.1748 266.909 7.00697L268.01 6.51396C268.01 6.51396 266.353 6.18529 265.867 6.13634C265.381 6.08739 265.357 5.95102 265.357 5.95102C266.406 5.77641 267.484 5.89748 268.468 6.30067C268.468 6.30067 270.829 5.43354 270.787 5.28669Z" fill="#0E2645"/>
<path d="M78.3881 225.441C86.1529 225.441 92.4475 224.376 92.4475 223.063C92.4475 221.75 86.1529 220.685 78.3881 220.685C70.6232 220.685 64.3286 221.75 64.3286 223.063C64.3286 224.376 70.6232 225.441 78.3881 225.441Z" fill="#0E2645"/>
<path d="M84.2027 219.175C84.8446 218.652 85.3118 217.946 85.5419 217.15C85.7167 216.35 85.3741 215.402 84.6048 215.091C83.7447 214.762 82.8251 215.36 82.1293 215.962C81.4335 216.563 80.6328 217.252 79.7237 217.122C80.1922 216.697 80.5427 216.157 80.7412 215.556C80.9397 214.955 80.9794 214.313 80.8566 213.692C80.8168 213.435 80.708 213.193 80.5419 212.993C80.0629 212.483 79.1992 212.699 78.6258 213.102C76.8076 214.381 76.3006 216.853 76.2901 219.074C76.1083 218.273 76.2622 217.437 76.2587 216.626C76.2552 215.815 76.0279 214.878 75.3321 214.448C74.903 214.217 74.4205 214.103 73.9335 214.119C73.1188 214.088 72.2062 214.171 71.6503 214.769C70.951 215.511 71.1363 216.755 71.7377 217.567C72.3391 218.378 73.2587 218.899 74.1048 219.462C74.7817 219.865 75.359 220.416 75.7936 221.074C75.846 221.165 75.8882 221.263 75.9195 221.364H81.0454C82.1918 220.78 83.2539 220.044 84.2027 219.175Z" fill="#0E2645"/>
<path d="M250.825 119.584C250.796 119.319 250.702 119.066 250.55 118.847C250.397 118.628 250.193 118.451 249.954 118.332C249.754 118.247 249.538 118.202 249.32 118.202C249.102 118.202 248.886 118.245 248.685 118.33C248.484 118.415 248.302 118.539 248.15 118.696C247.998 118.852 247.879 119.038 247.801 119.241L240.035 135.58L238.287 199.916H241.084L242.133 135.724L250.678 120.598C250.833 120.284 250.884 119.929 250.825 119.584Z" fill="#3F3D56"/>
<path opacity="0.1" d="M376.07 214.448C373.779 216.45 371.312 218.242 368.699 219.801C368.659 219.858 368.613 219.912 368.563 219.962C368.286 220.197 367.956 220.362 367.602 220.444C358.937 225.273 349.171 227.781 339.252 227.724H147.007C124.979 225.458 111.539 222.455 111.539 219.157C111.539 216.601 119.609 214.22 133.504 212.227C134.944 212.018 136.446 211.815 138.011 211.619C138.973 211.498 139.958 211.381 140.965 211.269L142.675 211.07C143.943 210.925 145.245 210.784 146.581 210.647H146.689L148.088 210.507C149.269 210.385 150.476 210.269 151.706 210.157L152.602 210.077L154.885 209.874C156.367 209.741 157.882 209.614 159.43 209.493C160.715 209.393 162.02 209.293 163.346 209.192C176.794 208.196 192.297 207.444 209.168 206.958L213.986 206.794L215.609 206.759L219.035 206.682L220.409 206.654L221.853 206.626L222.881 206.608L227.706 206.532L230.185 206.497H230.692C236.555 206.427 242.527 206.391 248.609 206.388C260.629 206.388 272.287 206.532 283.395 206.804C289.773 206.958 295.956 207.154 301.944 207.392H302C319.266 208.07 334.72 209.07 347.511 210.311L347.745 210.336C351.028 210.654 354.136 210.993 357.053 211.343C359.797 211.671 362.374 212.018 364.766 212.371C365.595 212.493 366.399 212.619 367.182 212.741L367.381 212.776C370.696 213.311 373.605 213.857 376.07 214.448Z" fill="#0E2645"/>
<path d="M368.699 219.801C368.659 219.858 368.613 219.912 368.563 219.961C368.286 220.197 367.956 220.362 367.601 220.444C366.894 220.642 366.167 220.76 365.434 220.794H365.213C364.794 220.808 364.375 220.794 363.958 220.752C363.654 220.708 363.346 220.688 363.039 220.692H362.997C362.549 220.755 362.11 220.864 361.685 221.017C360.739 221.277 359.764 221.415 358.783 221.43H358.434C357.336 221.43 356.224 221.392 355.122 221.399C354.944 221.399 354.773 221.399 354.587 221.399C352.699 221.447 350.822 221.748 348.934 221.78H348.329C346.479 221.734 344.587 221.339 343.115 220.22C342.819 220.024 342.578 219.754 342.416 219.437C342.291 219.102 342.249 218.742 342.294 218.388C342.329 217.755 342.451 217.066 342.927 216.64C343.225 216.411 343.568 216.245 343.934 216.154C344.573 215.947 345.217 215.748 345.857 215.549C346.497 215.35 347.227 215.136 347.916 214.934L348.049 214.892L348.434 214.776L348.682 214.692C348.983 214.596 349.271 214.464 349.542 214.301C349.899 214.075 350.201 213.773 350.427 213.416C350.465 213.353 350.507 213.287 350.542 213.22C350.577 213.154 350.542 213.112 350.518 213.056C350.458 212.619 350.413 212.171 350.336 211.745C349.352 211.517 348.454 211.009 347.752 210.283C347.148 209.685 346.64 208.997 346.245 208.245C345.374 206.608 344.927 204.78 344.276 203.042C343.28 200.399 341.829 197.958 340.367 195.538C339.032 193.308 337.689 191.07 336.171 188.961C335.161 187.563 334.073 186.231 333.073 184.829C330.245 180.916 328.215 176.484 327.101 171.787C326.931 170.885 326.689 169.999 326.378 169.136C325.776 167.668 324.675 166.472 323.822 165.129C322.905 163.682 322.276 162.071 321.972 160.385C321.797 159.427 321.504 158.392 320.549 158.287L320.448 158.486C318.469 162.332 316.437 166.248 313.455 169.388C312.978 169.85 312.541 170.351 312.15 170.888C311.837 171.408 311.557 171.948 311.311 172.503C310.839 173.501 310.213 174.418 309.455 175.22C309.229 175.448 308.983 175.655 308.72 175.839C308.371 176.093 307.982 176.288 307.57 176.416C307.408 176.466 307.242 176.503 307.073 176.528C307.073 176.57 307.091 176.608 307.094 176.65C307.098 176.692 307.115 176.741 307.122 176.787C307.637 179.584 307.416 182.467 306.483 185.154C306.458 185.238 306.43 185.318 306.399 185.402C306.254 185.794 306.097 186.178 305.927 186.556C305.5 187.482 304.993 188.371 304.594 189.311C304.528 189.472 304.462 189.633 304.402 189.794C303.004 193.538 303.353 197.72 303.171 201.745C303.155 202.625 303.051 203.501 302.86 204.36C302.622 205.329 302.241 206.329 302.032 207.329C301.84 208.078 301.825 208.862 301.986 209.619L301.902 209.65C301.528 209.79 301.147 209.916 300.766 210.035V210.087C300.902 210.871 301.035 211.654 301.171 212.434C301.287 213.105 301.423 213.832 301.892 214.308C302.019 214.413 302.136 214.53 302.241 214.657C302.518 215.091 302.273 215.664 302.325 216.178C302.402 216.906 303.073 217.524 302.969 218.248C302.921 218.464 302.822 218.666 302.68 218.835C302.537 219.005 302.355 219.137 302.15 219.22C301.978 219.298 301.797 219.356 301.612 219.392L301.497 219.416C301.287 219.454 301.077 219.475 300.867 219.496C298.262 219.755 295.622 220.014 293.042 219.573C292.532 219.486 292.025 219.371 291.507 219.329C290.853 219.299 290.198 219.326 289.549 219.409C284.762 219.862 279.948 219.956 275.147 219.689C273.899 219.619 272.465 219.416 271.804 218.35C271.255 217.465 271.455 216.322 271.731 215.311C271.81 214.94 271.953 214.585 272.154 214.262C272.176 214.227 272.202 214.194 272.231 214.164C272.874 213.364 274.084 213.315 275.126 213.346L278.532 213.447C278.867 213.475 279.204 213.449 279.532 213.371C280.084 213.21 280.504 212.769 281.021 212.521C281.671 212.21 282.49 212.171 282.958 211.64L283.018 211.563C283.1 211.45 283.177 211.334 283.248 211.213C283.248 211.189 283.28 211.164 283.297 211.14C283.31 211.118 283.324 211.097 283.339 211.077C283.769 210.51 284.521 210.322 285.133 209.961C285.226 209.907 285.313 209.845 285.395 209.776L285.465 209.713C284.806 209.243 284.232 208.665 283.766 208.003C283.586 207.81 283.453 207.578 283.378 207.325C283.335 207.135 283.349 206.937 283.42 206.755C283.435 206.711 283.453 206.667 283.476 206.626L283.493 206.591C283.731 206.122 284.22 205.699 284.49 205.22C284.5 205.205 284.508 205.189 284.514 205.171C284.885 204.472 284.958 203.388 284.409 202.825C284.689 198.22 285.955 193.734 286.234 189.115C286.346 187.287 286.301 185.451 286.385 183.615C286.469 181.78 286.664 180 286.871 178.199C287.332 174.084 288.451 170.052 288.294 165.92C288.28 165.534 288.297 165.148 288.343 164.766C288.341 164.738 288.341 164.71 288.343 164.682C288.455 163.835 288.719 163.015 289.122 162.262C289.629 161.411 290.203 160.602 290.839 159.843C292.99 157.045 295.573 154.248 296.339 150.808C296.734 149.031 297.608 147.406 298.479 145.808C298.993 144.857 299.528 143.881 300.35 143.182C300.795 142.874 301.208 142.522 301.584 142.133C302.157 141.392 302.178 140.367 302.518 139.486C302.692 139.028 302.962 138.608 303.094 138.136C303.094 138.087 303.119 138.042 303.129 137.993C303.207 137.517 303.248 137.035 303.252 136.552C303.252 136.413 303.273 136.276 303.29 136.14C303.494 134.757 303.896 133.412 304.483 132.143C304.556 131.982 304.626 131.818 304.696 131.657C303.083 130.716 301.66 129.482 300.5 128.017C300.107 127.544 299.766 127.029 299.483 126.482C298.762 125.052 298.598 123.423 298.259 121.857C297.448 118.122 295.591 114.605 295.332 110.787C295.255 109.622 295.332 108.42 294.927 107.318C294.815 107.02 294.683 106.731 294.532 106.451C294.469 106.332 294.409 106.213 294.346 106.101L294.276 105.968L294.098 105.619L293.811 105.843C286.658 111.444 279.148 116.573 271.329 121.199L270.657 121.598C270.308 121.766 270.003 122.016 269.769 122.325C269.741 122.371 269.717 122.416 269.692 122.461C269.532 122.794 269.49 123.161 269.343 123.51C269.028 124.311 268.22 124.822 267.395 125.059C265.902 125.443 264.319 125.239 262.972 124.489C262.801 124.402 262.622 124.311 262.469 124.21C262.06 124.436 261.628 124.62 261.182 124.759C259.783 125.164 258.318 125.147 256.871 125.143C255.423 125.14 253.944 125.143 252.573 125.619C251.657 125.93 250.769 126.444 249.818 126.493C249.709 126.5 249.599 126.5 249.49 126.493C248.947 126.431 248.42 126.276 247.93 126.035L247.643 125.906C247.495 125.835 247.35 125.757 247.21 125.671C247.057 125.577 246.915 125.465 246.787 125.339C246.602 125.153 246.467 124.923 246.395 124.671C246.348 124.489 246.348 124.298 246.395 124.115C246.409 124.034 246.451 123.959 246.514 123.906C246.576 123.869 246.648 123.85 246.72 123.853C247.121 123.849 247.522 123.883 247.916 123.954C248.148 123.986 248.382 123.999 248.615 123.993H248.741C248.947 123.971 249.147 123.907 249.327 123.804C249.508 123.702 249.665 123.564 249.79 123.399C249.829 123.347 249.859 123.291 249.881 123.231C249.923 123.132 249.945 123.026 249.944 122.92C249.946 122.893 249.946 122.866 249.944 122.839C249.797 122.773 249.65 122.706 249.511 122.626C249.437 122.587 249.367 122.545 249.297 122.503L249.255 122.475C249.13 122.39 249.013 122.293 248.906 122.185C248.838 122.118 248.778 122.043 248.727 121.961C248.634 121.835 248.565 121.693 248.521 121.542C248.233 121.482 247.935 121.49 247.65 121.566C247.269 121.671 246.885 121.895 246.507 121.972C246.316 122.02 246.116 122.011 245.93 121.947C245.385 121.752 245.192 121.087 245.077 120.517C245.056 120.409 245.032 120.297 245.014 120.185C244.974 119.97 244.974 119.75 245.014 119.535C245.183 119.046 245.506 118.626 245.934 118.336L247.08 117.374L247.164 117.304C247.164 117.21 247.126 117.115 247.112 117.021C247.072 116.805 247.072 116.583 247.112 116.367C247.281 115.879 247.604 115.46 248.032 115.171L250.57 113.035C251.045 112.636 251.563 112.217 252.182 112.175C253.101 112.112 253.836 112.874 254.525 113.486C255.392 114.255 256.444 114.885 257.601 114.961C258.153 114.987 258.704 114.911 259.227 114.738L259.525 114.64C259.462 114.51 259.399 114.381 259.339 114.252C259.238 114.038 259.136 113.822 259.038 113.605C260.528 113.51 261.881 112.692 263.011 111.713C264.14 110.734 265.108 109.577 266.248 108.615C267.479 107.566 268.892 106.787 270.14 105.776C273.042 103.423 274.969 99.965 278.073 97.8915C279.15 97.1678 280.395 96.5909 281.129 95.5139C281.357 95.1643 281.528 94.8146 281.762 94.465C282.507 93.416 283.783 92.9335 284.836 92.2062C285.888 91.479 286.804 90.4125 287.661 89.3881C288.269 88.6573 288.881 87.9265 289.462 87.1748C289.997 86.1783 290.448 85.1363 291.007 84.1538C291.482 83.3237 292.036 82.5415 292.661 81.8181C292.804 81.5384 292.951 81.2587 293.108 80.986C293.266 80.7132 293.381 80.5279 293.528 80.2867C293.629 80.1293 293.734 79.979 293.843 79.8251C293.525 79.2622 293.22 78.7762 293.077 78.5629L293.007 78.4685C292.699 78.1399 292.369 77.8316 292.021 77.5454C291.655 77.49 291.294 77.413 290.937 77.3146C288.779 76.7232 286.876 75.4386 285.52 73.6587C284.164 71.8789 283.431 69.7025 283.434 67.465C283.432 67.4546 283.432 67.4439 283.434 67.4335C283.435 65.8311 283.816 64.2518 284.545 62.8251C284.692 62.5384 284.85 62.2622 285.021 61.993C284.861 61.9425 284.706 61.8794 284.556 61.8041C284.301 61.6784 284.078 61.4953 283.906 61.2692C283.763 61.0677 283.671 60.8352 283.636 60.5909C283.577 60.0146 283.664 59.4327 283.888 58.8985C283.984 58.6414 284.092 58.3893 284.213 58.1433C284.223 58.1289 284.231 58.1137 284.238 58.0978C285.801 54.951 289.133 53.0174 292.462 52.8811C296.052 52.7377 299.549 54.423 302.381 56.8356C303.226 57.529 303.983 58.3241 304.633 59.2027C306.112 61.2587 306.78 63.8881 306.976 66.493C307.049 67.2986 307.035 68.1099 306.934 68.9125C306.897 69.1986 306.838 69.4814 306.759 69.7587C306.713 69.923 306.654 70.0874 306.591 70.2517C306.528 70.416 306.49 70.4895 306.434 70.6013V70.6188C306.381 70.7307 306.322 70.8356 306.262 70.9405L306.231 70.986L306.185 71.0594C306.213 71.1258 306.245 71.1957 306.276 71.2622C306.308 71.3286 306.336 71.3916 306.371 71.4545H306.413C307.112 71.5104 307.759 71.6083 308.472 71.6643C308.808 71.6802 309.14 71.7318 309.465 71.8181C310.164 72.0279 310.692 72.5384 311.28 72.951C312.734 73.979 314.525 74.458 315.955 75.5209C318.052 77.0873 319.101 79.6748 320.374 81.9929C322.052 85.0978 324.787 87.7412 325.993 91.0629C326.539 92.571 327.086 94.0769 327.636 95.5804C328.71 98.5279 329.783 101.489 331.241 104.269C333.269 108.136 336.014 111.612 337.64 115.675C337.801 116.082 338.104 116.417 338.493 116.619C340.709 119.747 342.678 123.043 344.385 126.475C345.283 128.29 346.133 130.175 346.395 132.185C346.6 133.975 346.451 135.788 345.958 137.521C345.679 138.55 345.337 139.562 344.934 140.549C344.776 140.895 344.659 141.257 344.584 141.629C344.584 141.668 344.584 141.706 344.584 141.745C344.514 142.416 344.769 143.08 344.839 143.752C344.898 144.292 344.837 144.839 344.661 145.353C344.633 145.434 344.601 145.514 344.57 145.594C344.353 146.003 344.17 146.429 344.021 146.867C344.008 146.92 343.999 146.974 343.993 147.028C343.878 147.787 344.178 148.552 344.343 149.311C344.958 152.052 344.846 154.906 344.692 157.703C344.612 159.101 345.741 160.224 346.685 161.255C348.434 163.189 349.801 165.451 351.119 167.703C351.838 168.846 352.444 170.057 352.927 171.318C353.427 172.759 353.626 174.283 353.902 175.776C354.794 180.392 357.706 184.468 358.497 189.094C358.863 191.213 359.797 193.192 361.199 194.822C361.622 195.258 362.011 195.726 362.364 196.22C362.607 196.614 362.801 197.037 362.941 197.479C363.284 198.507 363.447 199.587 363.42 200.671C363.364 201.19 363.394 201.714 363.507 202.224C363.836 203.297 365.011 203.888 365.497 204.899C365.983 205.909 365.647 207.203 365.846 208.35C366.003 209.274 366.502 210.106 367.245 210.678C366.965 210.923 366.671 211.147 366.371 211.378C366.649 211.594 366.893 211.851 367.094 212.14C367.232 212.333 367.349 212.541 367.444 212.759C367.906 213.832 367.92 215.108 368.297 216.255C368.458 216.731 368.685 217.234 368.546 217.717C368.486 217.855 368.446 218.001 368.427 218.15C368.427 218.465 368.755 218.671 368.881 218.958C368.927 219.102 368.934 219.256 368.902 219.404C368.87 219.551 368.8 219.688 368.699 219.801Z" fill="url(#paint0_linear_604_3004)"/>
<path d="M294.699 83.4371C296.839 82.8602 298.745 81.6539 300.612 80.4616L307.119 76.3182C305.353 76.1784 303.829 74.9196 302.923 73.3952C302.018 71.8707 301.643 70.0979 301.336 68.3567C298.539 69.4476 296.115 71.2972 293.857 73.2518C292.962 74.0245 291.06 75.1924 290.783 76.3986C290.507 77.6049 292.269 78.584 292.951 79.3917C293.185 79.6609 295.392 83.2448 294.699 83.4371Z" fill="#FBBEBE"/>
<path opacity="0.1" d="M294.699 83.4371C296.839 82.8602 298.745 81.6539 300.612 80.4616L307.119 76.3182C305.353 76.1784 303.829 74.9196 302.923 73.3952C302.018 71.8707 301.643 70.0979 301.336 68.3567C298.539 69.4476 296.115 71.2972 293.857 73.2518C292.962 74.0245 291.06 75.1924 290.783 76.3986C290.507 77.6049 292.269 78.584 292.951 79.3917C293.185 79.6609 295.392 83.2448 294.699 83.4371Z" fill="black"/>
<path d="M259.143 117.661C257.997 118.248 256.776 118.85 255.493 118.766C254.339 118.692 253.287 118.066 252.42 117.301C251.72 116.692 251 115.934 250.08 115.996C249.465 116.038 248.948 116.455 248.472 116.85L245.937 118.972C245.51 119.259 245.188 119.676 245.018 120.161C244.967 120.49 244.988 120.826 245.077 121.147C245.192 121.713 245.385 122.374 245.93 122.566C246.476 122.759 247.07 122.346 247.647 122.189C247.999 122.099 248.369 122.105 248.718 122.208C249.067 122.311 249.382 122.506 249.629 122.773C249.835 122.975 249.96 123.247 249.979 123.535C249.979 124.168 249.28 124.584 248.636 124.615C247.993 124.647 247.378 124.437 246.741 124.475C246.703 124.471 246.664 124.474 246.627 124.484C246.589 124.494 246.554 124.512 246.524 124.536C246.494 124.56 246.469 124.59 246.45 124.624C246.432 124.658 246.42 124.696 246.416 124.734C246.377 124.955 246.393 125.182 246.465 125.395C246.536 125.608 246.66 125.799 246.825 125.951C247.157 126.254 247.544 126.492 247.965 126.65C248.454 126.892 248.982 127.046 249.525 127.105C250.598 127.175 251.584 126.58 252.601 126.234C253.972 125.773 255.448 125.759 256.895 125.762C258.343 125.766 259.811 125.787 261.199 125.381C262.587 124.975 263.906 124.077 264.448 122.738C264.512 122.613 264.532 122.47 264.507 122.332C264.453 122.185 264.349 122.061 264.213 121.982C262.262 120.538 261.472 118.783 259.276 117.745L259.143 117.661Z" fill="#FBBEBE"/>
<path opacity="0.1" d="M259.143 117.661C257.997 118.248 256.776 118.85 255.493 118.766C254.339 118.692 253.287 118.066 252.42 117.301C251.72 116.692 251 115.934 250.08 115.996C249.465 116.038 248.948 116.455 248.472 116.85L245.937 118.972C245.51 119.259 245.188 119.676 245.018 120.161C244.967 120.49 244.988 120.826 245.077 121.147C245.192 121.713 245.385 122.374 245.93 122.566C246.476 122.759 247.07 122.346 247.647 122.189C247.999 122.099 248.369 122.105 248.718 122.208C249.067 122.311 249.382 122.506 249.629 122.773C249.835 122.975 249.96 123.247 249.979 123.535C249.979 124.168 249.28 124.584 248.636 124.615C247.993 124.647 247.378 124.437 246.741 124.475C246.703 124.471 246.664 124.474 246.627 124.484C246.589 124.494 246.554 124.512 246.524 124.536C246.494 124.56 246.469 124.59 246.45 124.624C246.432 124.658 246.42 124.696 246.416 124.734C246.377 124.955 246.393 125.182 246.465 125.395C246.536 125.608 246.66 125.799 246.825 125.951C247.157 126.254 247.544 126.492 247.965 126.65C248.454 126.892 248.982 127.046 249.525 127.105C250.598 127.175 251.584 126.58 252.601 126.234C253.972 125.773 255.448 125.759 256.895 125.762C258.343 125.766 259.811 125.787 261.199 125.381C262.587 124.975 263.906 124.077 264.448 122.738C264.512 122.613 264.532 122.47 264.507 122.332C264.453 122.185 264.349 122.061 264.213 121.982C262.262 120.538 261.472 118.783 259.276 117.745L259.143 117.661Z" fill="black"/>
<path d="M300.088 80.3707C299.545 80.0205 298.929 79.7997 298.288 79.7251C297.647 79.6505 296.997 79.7243 296.388 79.9406C295.17 80.3794 294.077 81.1078 293.203 82.063C292.33 82.9528 291.575 83.9504 290.955 85.0315C290.36 86.0805 289.906 87.1784 289.311 88.2238C288.262 90.0944 286.892 91.7448 285.514 93.3812C284.657 94.3986 283.79 95.4301 282.692 96.1784C281.595 96.9266 280.367 97.3847 279.622 98.4231C279.388 98.7518 279.22 99.1224 278.99 99.4546C278.259 100.525 277.018 101.098 275.937 101.815C272.839 103.878 270.913 107.311 268.018 109.65C266.769 110.657 265.36 111.448 264.133 112.476C262.99 113.43 262.035 114.573 260.895 115.552C259.755 116.532 258.416 117.339 256.93 117.43C257.923 119.643 259.108 121.815 260.811 123.539C262.514 125.262 265.067 126.364 267.392 125.689C268.217 125.451 269.025 124.948 269.339 124.15C269.438 123.741 269.576 123.341 269.752 122.958C269.985 122.65 270.289 122.402 270.636 122.234C279.97 116.786 288.868 110.622 297.248 103.797C299.497 101.965 301.727 100.325 304.035 98.5525C304.863 97.9656 305.628 97.2955 306.318 96.5525C307.281 95.4032 307.882 93.995 308.046 92.505C308.21 91.015 307.93 89.5097 307.241 88.1784C306.623 87.1599 305.913 86.1991 305.122 85.3077C303.684 83.4344 301.989 81.7725 300.088 80.3707Z" fill="#0E2645"/>
<path opacity="0.1" d="M300.088 80.3707C299.545 80.0205 298.929 79.7997 298.288 79.7251C297.647 79.6505 296.997 79.7243 296.388 79.9406C295.17 80.3794 294.077 81.1078 293.203 82.063C292.33 82.9528 291.575 83.9504 290.955 85.0315C290.36 86.0805 289.906 87.1784 289.311 88.2238C288.262 90.0944 286.892 91.7448 285.514 93.3812C284.657 94.3986 283.79 95.4301 282.692 96.1784C281.595 96.9266 280.367 97.3847 279.622 98.4231C279.388 98.7518 279.22 99.1224 278.99 99.4546C278.259 100.525 277.018 101.098 275.937 101.815C272.839 103.878 270.913 107.311 268.018 109.65C266.769 110.657 265.36 111.448 264.133 112.476C262.99 113.43 262.035 114.573 260.895 115.552C259.755 116.532 258.416 117.339 256.93 117.43C257.923 119.643 259.108 121.815 260.811 123.539C262.514 125.262 265.067 126.364 267.392 125.689C268.217 125.451 269.025 124.948 269.339 124.15C269.438 123.741 269.576 123.341 269.752 122.958C269.985 122.65 270.289 122.402 270.636 122.234C279.97 116.786 288.868 110.622 297.248 103.797C299.497 101.965 301.727 100.325 304.035 98.5525C304.863 97.9656 305.628 97.2955 306.318 96.5525C307.281 95.4032 307.882 93.995 308.046 92.505C308.21 91.015 307.93 89.5097 307.241 88.1784C306.623 87.1599 305.913 86.1991 305.122 85.3077C303.684 83.4344 301.989 81.7725 300.088 80.3707Z" fill="black"/>
<path d="M285.063 210.08C284.451 210.43 283.699 210.626 283.269 211.192C283.129 211.374 283.035 211.587 282.885 211.762C282.42 212.308 281.594 212.332 280.948 212.643C280.43 212.888 280.011 213.343 279.462 213.486C279.133 213.564 278.795 213.59 278.458 213.563L275.059 213.461C273.983 213.43 272.72 213.486 272.094 214.364C271.891 214.685 271.747 215.04 271.668 215.413C271.406 216.416 271.192 217.552 271.741 218.434C272.399 219.482 273.839 219.696 275.08 219.766C279.876 220.031 284.684 219.937 289.465 219.486C290.112 219.403 290.765 219.376 291.416 219.406C291.934 219.448 292.441 219.563 292.951 219.65C295.528 220.087 298.164 219.832 300.766 219.573C301.205 219.552 301.639 219.46 302.049 219.301C302.253 219.217 302.434 219.086 302.576 218.917C302.718 218.748 302.817 218.547 302.864 218.332C302.972 217.612 302.297 217 302.224 216.276C302.171 215.766 302.416 215.196 302.136 214.762C302.032 214.634 301.915 214.517 301.787 214.413C301.318 213.927 301.182 213.217 301.066 212.552L300.455 208.961C300.437 208.708 300.334 208.469 300.161 208.283C300.032 208.191 299.884 208.129 299.727 208.105C297.063 207.503 294.332 208.052 291.685 208.388C290.323 208.588 288.945 208.657 287.57 208.594C286.976 208.556 286.745 208.486 286.301 208.874C285.857 209.262 285.619 209.755 285.063 210.08Z" fill="#3F3D56"/>
<path d="M349.402 214.402C348.935 214.664 348.433 214.86 347.913 214.986C346.54 215.387 345.169 215.805 343.801 216.241C343.437 216.331 343.095 216.496 342.797 216.724C342.322 217.143 342.199 217.829 342.164 218.472C342.119 218.827 342.161 219.187 342.287 219.521C342.451 219.835 342.691 220.102 342.986 220.297C344.553 221.483 346.598 221.85 348.563 221.85C350.528 221.85 352.479 221.518 354.444 221.465C356.818 221.402 359.255 221.738 361.539 221.074C361.974 220.912 362.427 220.802 362.888 220.745C363.195 220.74 363.501 220.76 363.804 220.804C365.029 220.925 366.265 220.813 367.448 220.472C367.803 220.393 368.135 220.229 368.413 219.993C368.55 219.874 368.648 219.716 368.695 219.54C368.741 219.364 368.733 219.178 368.671 219.007C368.546 218.724 368.224 218.518 368.22 218.206C368.237 218.057 368.276 217.911 368.336 217.773C368.479 217.294 368.248 216.794 368.087 216.322C367.636 214.972 367.71 213.42 366.902 212.248C366.094 211.077 364.612 210.594 363.203 210.409C362.058 210.247 360.893 210.28 359.759 210.507C358.483 210.78 357.29 211.35 356.039 211.713C354.586 212.131 353.068 212.275 351.563 212.136C350.563 212.053 350.906 212.21 350.567 213.049C350.326 213.609 349.92 214.081 349.402 214.402Z" fill="#3F3D56"/>
<path d="M293.531 78.5875C299.132 78.5875 303.671 74.0477 303.671 68.4476C303.671 62.8475 299.132 58.3077 293.531 58.3077C287.931 58.3077 283.392 62.8475 283.392 68.4476C283.392 74.0477 287.931 78.5875 293.531 78.5875Z" fill="#FBBEBE"/>
<path d="M367.042 210.776C363.895 213.479 359.647 214.661 355.504 214.703C353.755 214.72 351.941 214.531 350.451 213.626C350.346 213.052 350.304 212.434 350.199 211.86C348.392 211.482 346.99 210.01 346.115 208.381C345.241 206.752 344.797 204.941 344.147 203.213C343.154 200.584 341.699 198.161 340.245 195.755C338.909 193.538 337.57 191.315 336.049 189.22C335.042 187.822 333.951 186.507 332.955 185.112C330.131 181.228 328.105 176.824 326.993 172.154C326.823 171.258 326.581 170.378 326.269 169.521C325.668 168.059 324.567 166.871 323.717 165.538C322.801 164.101 322.172 162.499 321.867 160.822C321.696 159.871 321.402 158.843 320.448 158.745C318.441 162.643 316.395 166.605 313.36 169.776C312.883 170.234 312.447 170.732 312.056 171.266C311.743 171.784 311.462 172.321 311.217 172.874C310.746 173.866 310.121 174.778 309.364 175.573C308.729 176.252 307.893 176.708 306.979 176.874C307.653 180.234 307.252 183.72 305.832 186.839C305.409 187.762 304.902 188.643 304.504 189.577C302.874 193.423 303.252 197.762 303.08 201.934C303.066 202.808 302.963 203.678 302.773 204.531C302.35 206.238 301.476 208.052 301.899 209.759C297.514 211.434 292.643 211.329 288 210.622C287.092 210.539 286.21 210.272 285.409 209.836C284.751 209.369 284.176 208.795 283.71 208.136C283.53 207.944 283.397 207.713 283.322 207.462C283.14 206.664 284.021 206.063 284.43 205.364C284.839 204.664 284.913 203.556 284.35 202.982C284.629 198.406 285.895 193.937 286.175 189.346C286.287 187.528 286.241 185.703 286.325 183.881C286.409 182.059 286.605 180.287 286.808 178.496C287.269 174.409 288.388 170.402 288.231 166.294C288.183 165.029 288.474 163.775 289.074 162.661C289.579 161.814 290.152 161.01 290.787 160.255C292.934 157.482 295.514 154.703 296.28 151.28C296.675 149.514 297.549 147.899 298.416 146.311C298.93 145.364 299.465 144.395 300.283 143.699C300.728 143.391 301.142 143.04 301.518 142.65C302.091 141.913 302.112 140.902 302.451 140.021C302.626 139.566 302.895 139.147 303.025 138.678C303.131 138.161 303.184 137.633 303.182 137.105C303.294 135.413 303.944 133.776 304.629 132.227C303.018 131.294 301.595 130.068 300.434 128.612C300.044 128.139 299.704 127.627 299.42 127.084C298.699 125.664 298.535 124.045 298.196 122.489C297.388 118.776 295.532 115.283 295.273 111.489C295.196 110.332 295.273 109.136 294.871 108.042C294.685 107.579 294.468 107.129 294.22 106.696C293.977 106.27 293.791 105.814 293.668 105.339C293.444 104.308 293.752 103.241 293.668 102.192C293.584 101.266 293.189 100.399 292.993 99.493C292.793 98.3147 292.759 97.1143 292.892 95.9265C292.979 94.5279 293.283 93.0839 293.164 91.7028C292.972 89.4174 293.263 87.1171 294.019 84.9518C294.775 82.7865 295.979 80.805 297.553 79.1363L297.633 79.0559C298.301 78.3566 299.032 77.7377 299.633 76.9965C300.451 76.0034 301.032 74.8356 301.895 73.8706C302.273 73.4405 302.699 73.0559 303.073 72.6223C303.417 72.1676 303.797 71.7419 304.21 71.3496C304.419 71.1555 304.672 71.0155 304.948 70.9418C305.223 70.868 305.512 70.8628 305.79 70.9265C305.86 71.448 306.024 71.9525 306.273 72.416C307 72.472 307.647 72.5734 308.371 72.6293C308.706 72.6453 309.039 72.6968 309.364 72.7832C310.046 72.9895 310.591 73.4825 311.175 73.9055C312.629 74.93 314.416 75.4055 315.846 76.4615C317.944 78.0174 318.993 80.5874 320.259 82.8916C321.934 85.979 324.664 88.6049 325.853 91.9056L327.493 96.3951C328.567 99.3251 329.64 102.266 331.094 105.028C333.119 108.874 335.86 112.339 337.486 116.364C337.649 116.767 337.95 117.1 338.336 117.301C340.55 120.406 342.517 123.679 344.22 127.091C345.119 128.895 345.969 130.769 346.227 132.766C346.608 135.587 345.839 138.441 344.769 141.077C344.596 141.454 344.479 141.855 344.42 142.266C344.35 142.934 344.605 143.591 344.675 144.259C344.742 144.882 344.65 145.513 344.406 146.091C344.188 146.497 344.005 146.92 343.857 147.357C343.668 148.161 344.004 148.979 344.185 149.783C344.801 152.507 344.689 155.329 344.535 158.119C344.455 159.517 345.584 160.626 346.525 161.65C348.273 163.57 349.636 165.815 350.955 168.056C351.671 169.193 352.276 170.396 352.759 171.65C353.259 173.08 353.458 174.594 353.734 176.08C354.622 180.664 357.532 184.717 358.322 189.315C358.688 191.421 359.621 193.388 361.021 195.003C361.443 195.44 361.832 195.908 362.185 196.402C362.427 196.794 362.62 197.215 362.759 197.654C363.103 198.675 363.265 199.748 363.238 200.825C363.182 201.34 363.212 201.861 363.325 202.367C363.654 203.434 364.829 204.021 365.311 205.024C365.794 206.028 365.462 207.315 365.661 208.454C365.812 209.375 366.305 210.205 367.042 210.776Z" fill="#0E2645"/>
<path d="M261.241 114.514C260.094 115.101 258.874 115.703 257.591 115.619C256.437 115.545 255.385 114.92 254.518 114.154C253.818 113.545 253.098 112.787 252.178 112.85C251.563 112.892 251.045 113.308 250.57 113.703L248.035 115.825C247.608 116.112 247.286 116.529 247.115 117.014C247.065 117.343 247.086 117.679 247.175 118C247.29 118.566 247.483 119.227 248.028 119.42C248.573 119.612 249.168 119.199 249.745 119.042C250.097 118.952 250.467 118.959 250.816 119.061C251.165 119.164 251.48 119.359 251.727 119.626C251.933 119.828 252.058 120.1 252.077 120.388C252.077 121.021 251.378 121.437 250.734 121.468C250.091 121.5 249.476 121.29 248.839 121.329C248.801 121.324 248.762 121.327 248.724 121.337C248.687 121.348 248.652 121.365 248.622 121.389C248.592 121.414 248.567 121.444 248.548 121.478C248.529 121.511 248.518 121.549 248.514 121.587C248.475 121.808 248.491 122.035 248.563 122.248C248.634 122.461 248.758 122.652 248.923 122.804C249.255 123.107 249.642 123.345 250.063 123.503C250.552 123.745 251.08 123.899 251.622 123.958C252.696 124.028 253.682 123.434 254.699 123.087C256.07 122.626 257.545 122.612 258.993 122.615C260.441 122.619 261.909 122.64 263.297 122.234C264.685 121.829 266.004 120.93 266.545 119.591C266.609 119.466 266.63 119.323 266.605 119.185C266.551 119.038 266.447 118.914 266.311 118.836C264.36 117.392 263.57 115.636 261.374 114.598L261.241 114.514Z" fill="#FBBEBE"/>
<path d="M288.598 62.2167C287.993 62.3147 287.479 62.7237 286.905 62.951C286.521 63.1005 286.108 63.1666 285.696 63.1449C285.284 63.1232 284.881 63.0142 284.514 62.8251C284.258 62.7008 284.034 62.5189 283.86 62.2937C283.391 61.6433 283.556 60.6993 283.843 59.937C285.199 56.3321 288.822 54.1014 292.409 53.958C295.996 53.8147 299.486 55.4895 302.315 57.8846C303.156 58.5757 303.911 59.3658 304.563 60.2377C306.038 62.2832 306.706 64.8951 306.902 67.4825C307.019 68.5683 306.947 69.6661 306.689 70.7272C306.565 71.2429 306.338 71.7282 306.022 72.1541C305.706 72.5801 305.307 72.9379 304.85 73.2063C303.85 73.7167 302.65 73.5559 301.64 73.0664C300.629 72.5769 299.762 71.8042 298.895 71.0664C298.502 70.6876 298.037 70.3916 297.528 70.1958C297.274 70.1053 296.999 70.0901 296.737 70.1522C296.474 70.2142 296.235 70.3508 296.049 70.5454C295.58 71.1084 295.699 72.0314 295.273 72.6433C294.846 73.2552 293.958 73.3426 293.21 73.3426C292.461 73.3426 291.703 73.2797 291.255 72.6853C290.846 72.1468 290.905 71.3601 291.059 70.6818C291.213 70.0035 291.475 69.3321 291.409 68.6363C291.266 67.2377 290.042 66.3776 289.661 65.0909C289.412 64.2482 289.958 63.8916 289.902 63.1293C289.86 62.458 289.14 62.1293 288.598 62.2167Z" fill="#3F3D56"/>
<path opacity="0.1" d="M320.454 158.657V158.745C318.448 162.643 316.402 166.605 313.367 169.776C312.89 170.234 312.454 170.732 312.063 171.266C311.749 171.784 311.469 172.321 311.224 172.874C310.753 173.866 310.127 174.778 309.371 175.573L306.839 176.839L314.881 134.881L320.454 158.657Z" fill="black"/>
<path opacity="0.1" d="M308.766 95.1539C308.075 95.8969 307.31 96.567 306.483 97.1539C304.175 98.9022 301.937 100.553 299.696 102.399C297.889 103.87 296.057 105.31 294.199 106.72C293.956 106.295 293.77 105.838 293.647 105.364C293.423 104.332 293.731 103.266 293.647 102.217C293.563 101.29 293.168 100.423 292.972 99.5175C292.772 98.3393 292.738 97.1388 292.871 95.9511C292.958 94.5525 293.262 93.1084 293.143 91.7273C292.95 89.4365 293.243 87.1306 294.003 84.9607C294.762 82.7909 295.972 80.8061 297.552 79.1364L297.633 79.056C298.009 78.8372 298.408 78.659 298.822 78.5245C299.431 78.3107 300.082 78.2399 300.723 78.3175C301.365 78.3951 301.98 78.6191 302.521 78.9721C304.422 80.3739 306.117 82.0359 307.556 83.9091C308.347 84.8005 309.056 85.7613 309.675 86.7798C310.366 88.1098 310.648 89.6143 310.486 91.1043C310.325 92.5942 309.726 94.0032 308.766 95.1539Z" fill="black"/>
<path d="M302.185 77.2238C301.643 76.8737 301.027 76.6528 300.386 76.5783C299.744 76.5037 299.094 76.5774 298.486 76.7938C297.268 77.2325 296.175 77.9609 295.301 78.9161C294.428 79.806 293.673 80.8035 293.053 81.8847C292.458 82.9336 292.004 84.0315 291.409 85.077C290.36 86.9476 288.99 88.5979 287.612 90.2343C286.755 91.2518 285.888 92.2833 284.79 93.0315C283.692 93.7798 282.465 94.2378 281.72 95.2763C281.486 95.6049 281.318 95.9756 281.088 96.3077C280.357 97.3777 279.115 97.9511 278.035 98.6679C274.937 100.731 273.011 104.164 270.115 106.504C268.867 107.511 267.458 108.301 266.231 109.329C265.088 110.283 264.133 111.427 262.993 112.406C261.853 113.385 260.514 114.192 259.028 114.283C260.021 116.497 261.206 118.668 262.909 120.392C264.612 122.115 267.164 123.217 269.49 122.542C270.315 122.304 271.122 121.801 271.437 121.004C271.536 120.594 271.674 120.195 271.85 119.811C272.083 119.504 272.387 119.256 272.734 119.087C282.068 113.639 290.966 107.475 299.346 100.65C301.595 98.8182 303.825 97.1784 306.133 95.4056C306.96 94.8188 307.725 94.1486 308.416 93.4056C309.379 92.2564 309.98 90.8482 310.144 89.3582C310.308 87.8681 310.028 86.3628 309.339 85.0315C308.721 84.013 308.011 83.0523 307.22 82.1609C305.781 80.2876 304.087 78.6257 302.185 77.2238Z" fill="#0E2645"/>
<g opacity="0.1">
<path d="M293.909 71.9335C293.21 71.9335 292.402 71.8706 291.954 71.2762C291.549 70.7377 291.605 69.951 291.759 69.2727C291.913 68.5944 292.175 67.923 292.108 67.2272C291.965 65.8286 290.741 64.9685 290.36 63.6818C290.112 62.8391 290.657 62.4825 290.601 61.7203C290.552 61.0594 289.836 60.7307 289.294 60.8181C288.689 60.916 288.175 61.3251 287.601 61.5524C287.216 61.7019 286.804 61.768 286.392 61.7463C285.98 61.7246 285.577 61.6156 285.21 61.4265C284.954 61.3022 284.73 61.1203 284.556 60.8951C284.087 60.2447 284.252 59.3007 284.538 58.5384C284.538 58.5105 284.563 58.486 284.573 58.458C284.281 58.9259 284.035 59.4212 283.839 59.937C283.552 60.6993 283.388 61.6433 283.857 62.2937C284.031 62.5189 284.254 62.7008 284.51 62.8251C284.877 63.0142 285.28 63.1232 285.693 63.1449C286.105 63.1666 286.517 63.1005 286.902 62.951C287.475 62.7237 287.989 62.3147 288.594 62.2167C289.136 62.1293 289.853 62.458 289.902 63.1189C289.958 63.8811 289.413 64.2377 289.661 65.0804C290.035 66.3671 291.259 67.2412 291.409 68.6258C291.479 69.3251 291.224 69.9965 291.059 70.6713C290.895 71.3461 290.85 72.1363 291.255 72.6748C291.703 73.2692 292.503 73.3251 293.21 73.3321C293.916 73.3391 294.825 73.2902 295.273 72.6328C295.466 72.3027 295.593 71.9381 295.647 71.5594C295.171 71.8986 294.507 71.9405 293.909 71.9335Z" fill="black"/>
<path d="M305.549 71.8077C304.549 72.3182 303.349 72.1573 302.339 71.6678C301.329 71.1783 300.461 70.4056 299.594 69.6678C299.201 69.289 298.736 68.993 298.227 68.7972C297.973 68.7067 297.698 68.6915 297.436 68.7536C297.174 68.8156 296.935 68.9522 296.748 69.1468C296.511 69.4979 296.361 69.9007 296.311 70.3217C296.493 70.2145 296.696 70.1475 296.905 70.1252C297.115 70.1029 297.328 70.1258 297.528 70.1923C298.037 70.3881 298.502 70.6841 298.895 71.0629C299.762 71.8007 300.643 72.5769 301.64 73.0629C302.636 73.5489 303.849 73.7133 304.849 73.2028C305.734 72.6851 306.378 71.8396 306.643 70.8496C306.356 71.2479 305.982 71.5756 305.549 71.8077Z" fill="black"/>
</g>
<path d="M218.532 222.119C224.325 222.119 229.021 217.423 229.021 211.629C229.021 205.836 224.325 201.14 218.532 201.14C212.738 201.14 208.042 205.836 208.042 211.629C208.042 217.423 212.738 222.119 218.532 222.119Z" fill="#3F3D56"/>
<path opacity="0.1" d="M218.532 222.119C224.325 222.119 229.021 217.423 229.021 211.629C229.021 205.836 224.325 201.14 218.532 201.14C212.738 201.14 208.042 205.836 208.042 211.629C208.042 217.423 212.738 222.119 218.532 222.119Z" fill="black"/>
<path d="M218.532 218.273C222.201 218.273 225.175 215.298 225.175 211.629C225.175 207.96 222.201 204.986 218.532 204.986C214.863 204.986 211.888 207.96 211.888 211.629C211.888 215.298 214.863 218.273 218.532 218.273Z" fill="#65617D"/>
<path opacity="0.1" d="M218.532 218.273C222.201 218.273 225.175 215.298 225.175 211.629C225.175 207.96 222.201 204.986 218.532 204.986C214.863 204.986 211.888 207.96 211.888 211.629C211.888 215.298 214.863 218.273 218.532 218.273Z" fill="black"/>
<path d="M210.49 195.196L217.371 210.755C217.473 210.989 217.64 211.188 217.852 211.329C218.064 211.471 218.312 211.548 218.567 211.554C218.821 211.559 219.072 211.491 219.29 211.358C219.507 211.225 219.682 211.033 219.794 210.804L227.972 194.147L210.49 195.196Z" fill="#3F3D56"/>
<path opacity="0.1" d="M210.49 195.196L217.371 210.755C217.473 210.989 217.64 211.188 217.852 211.329C218.064 211.471 218.312 211.548 218.567 211.554C218.821 211.559 219.072 211.491 219.29 211.358C219.507 211.225 219.682 211.033 219.794 210.804L227.972 194.147L210.49 195.196Z" fill="black"/>
<path d="M153.147 222.119C158.94 222.119 163.636 217.423 163.636 211.629C163.636 205.836 158.94 201.14 153.147 201.14C147.354 201.14 142.657 205.836 142.657 211.629C142.657 217.423 147.354 222.119 153.147 222.119Z" fill="#3F3D56"/>
<path opacity="0.1" d="M153.147 222.119C158.94 222.119 163.636 217.423 163.636 211.629C163.636 205.836 158.94 201.14 153.147 201.14C147.354 201.14 142.657 205.836 142.657 211.629C142.657 217.423 147.354 222.119 153.147 222.119Z" fill="black"/>
<path d="M153.147 218.273C156.816 218.273 159.79 215.298 159.79 211.629C159.79 207.96 156.816 204.986 153.147 204.986C149.478 204.986 146.503 207.96 146.503 211.629C146.503 215.298 149.478 218.273 153.147 218.273Z" fill="#65617D"/>
<path opacity="0.1" d="M153.147 218.273C156.816 218.273 159.79 215.298 159.79 211.629C159.79 207.96 156.816 204.986 153.147 204.986C149.478 204.986 146.503 207.96 146.503 211.629C146.503 215.298 149.478 218.273 153.147 218.273Z" fill="black"/>
<path d="M145.105 195.196L151.986 210.755C152.089 210.989 152.256 211.188 152.467 211.329C152.679 211.471 152.927 211.548 153.182 211.554C153.437 211.559 153.688 211.491 153.905 211.358C154.122 211.225 154.297 211.033 154.409 210.804L162.587 194.147L145.105 195.196Z" fill="#3F3D56"/>
<path opacity="0.1" d="M145.105 195.196L151.986 210.755C152.089 210.989 152.256 211.188 152.467 211.329C152.679 211.471 152.927 211.548 153.182 211.554C153.437 211.559 153.688 211.491 153.905 211.358C154.122 211.225 154.297 211.033 154.409 210.804L162.587 194.147L145.105 195.196Z" fill="black"/>
<path d="M252.573 120.283C252.545 120.018 252.45 119.765 252.298 119.546C252.146 119.328 251.941 119.15 251.703 119.031C251.502 118.946 251.286 118.902 251.068 118.901C250.85 118.901 250.634 118.944 250.433 119.029C250.232 119.114 250.05 119.238 249.898 119.395C249.746 119.552 249.628 119.737 249.549 119.941L243.531 134.881L241.783 202.014H244.58L245.629 135.024L252.427 121.297C252.581 120.983 252.633 120.628 252.573 120.283Z" fill="#3F3D56"/>
<path d="M128.846 196.769L138.287 190.825L240.21 189.951L242.832 196.769H128.846Z" fill="#0E2645"/>
<path d="M128.846 203.063V196.769L244.678 195.65L244.566 199.916H130.944V203.063H128.846Z" fill="#3F3D56"/>
<path d="M143.532 225.79C149.325 225.79 154.021 221.094 154.021 215.301C154.021 209.508 149.325 204.811 143.532 204.811C137.738 204.811 133.042 209.508 133.042 215.301C133.042 221.094 137.738 225.79 143.532 225.79Z" fill="#3F3D56"/>
<path d="M143.532 221.944C147.201 221.944 150.175 218.97 150.175 215.301C150.175 211.632 147.201 208.657 143.532 208.657C139.863 208.657 136.888 211.632 136.888 215.301C136.888 218.97 139.863 221.944 143.532 221.944Z" fill="#65617D"/>
<path d="M135.49 198.867L142.371 214.427C142.473 214.66 142.64 214.859 142.852 215C143.064 215.142 143.312 215.22 143.567 215.225C143.821 215.23 144.072 215.162 144.29 215.029C144.507 214.897 144.682 214.704 144.794 214.475L152.972 197.818L135.49 198.867Z" fill="#3F3D56"/>
<path d="M225 225.79C230.793 225.79 235.49 221.094 235.49 215.301C235.49 209.508 230.793 204.811 225 204.811C219.207 204.811 214.51 209.508 214.51 215.301C214.51 221.094 219.207 225.79 225 225.79Z" fill="#3F3D56"/>
<path d="M225 221.944C228.669 221.944 231.643 218.97 231.643 215.301C231.643 211.632 228.669 208.657 225 208.657C221.331 208.657 218.357 211.632 218.357 215.301C218.357 218.97 221.331 221.944 225 221.944Z" fill="#65617D"/>
<path d="M216.958 198.867L223.839 214.427C223.942 214.66 224.109 214.859 224.321 215C224.532 215.142 224.78 215.22 225.035 215.225C225.29 215.23 225.541 215.162 225.758 215.029C225.975 214.897 226.15 214.704 226.262 214.475L234.441 197.818L216.958 198.867Z" fill="#3F3D56"/>
<path d="M185.664 169.322H141.958V193.448H185.664V169.322Z" fill="#65617D"/>
<path opacity="0.1" d="M170.629 173.518H157.343V176.315H170.629V173.518Z" fill="black"/>
<path opacity="0.1" d="M168.968 173.867H159.003V175.965H168.968V173.867Z" fill="black"/>
<path d="M230.07 169.322H186.364V193.448H230.07V169.322Z" fill="#65617D"/>
<path opacity="0.1" d="M215.035 173.518H201.748V176.315H215.035V173.518Z" fill="black"/>
<path opacity="0.1" d="M213.374 173.867H203.409V175.965H213.374V173.867Z" fill="black"/>
<path d="M185.664 144.496H141.958V168.622H185.664V144.496Z" fill="#65617D"/>
<path opacity="0.1" d="M170.629 148.692H157.343V151.489H170.629V148.692Z" fill="black"/>
<path opacity="0.1" d="M168.968 149.042H159.003V151.14H168.968V149.042Z" fill="black"/>
<path d="M230.07 144.496H186.364V168.622H230.07V144.496Z" fill="#65617D"/>
<path opacity="0.1" d="M215.035 148.692H201.748V151.489H215.035V148.692Z" fill="black"/>
<path opacity="0.1" d="M213.374 149.042H203.409V151.14H213.374V149.042Z" fill="black"/>
<path d="M185.664 119.322H141.958V143.448H185.664V119.322Z" fill="#65617D"/>
<path opacity="0.1" d="M170.629 123.517H157.343V126.315H170.629V123.517Z" fill="black"/>
<path opacity="0.1" d="M168.968 123.867H159.003V125.965H168.968V123.867Z" fill="black"/>
<path d="M230.07 119.322H186.364V143.448H230.07V119.322Z" fill="#65617D"/>
<path opacity="0.1" d="M215.035 123.517H201.748V126.315H215.035V123.517Z" fill="black"/>
<path opacity="0.1" d="M213.374 123.867H203.409V125.965H213.374V123.867Z" fill="black"/>
<path d="M230.07 94.1469H186.364V118.273H230.07V94.1469Z" fill="#65617D"/>
<path opacity="0.1" d="M215.035 98.3427H201.748V101.14H215.035V98.3427Z" fill="black"/>
<path opacity="0.1" d="M213.374 98.6923H203.409V100.79H213.374V98.6923Z" fill="black"/>
</g>
<defs>
<linearGradient id="paint0_linear_604_3004" x1="306.934" y1="221.818" x2="306.934" y2="52.888" gradientUnits="userSpaceOnUse">
<stop stop-color="#808080" stop-opacity="0.25"/>
<stop offset="0.54" stop-color="#808080" stop-opacity="0.12"/>
<stop offset="1" stop-color="#808080" stop-opacity="0.1"/>
</linearGradient>
<clipPath id="clip0_604_3004">
<rect width="400" height="227.713" fill="white"/>
</clipPath>
</defs>
</svg>
