<svg width="22" height="69" viewBox="0 0 22 69" fill="none" xmlns="http://www.w3.org/2000/svg">
<rect x="2.56641" y="60.0886" width="3" height="16.1875" rx="1.5" transform="rotate(-90 2.56641 60.0886)" fill="#BFBFBF"/>
<rect x="2.56641" y="53.0886" width="3" height="16.1875" rx="1.5" transform="rotate(-90 2.56641 53.0886)" fill="#BFBFBF"/>
<rect x="2.56641" y="46.0886" width="3" height="16.1875" rx="1.5" transform="rotate(-90 2.56641 46.0886)" fill="#BFBFBF"/>
<rect x="2.56641" y="39.0886" width="3" height="16.1875" rx="1.5" transform="rotate(-90 2.56641 39.0886)" fill="#BFBFBF"/>
<rect x="2.56641" y="32.0886" width="3" height="16.1875" rx="1.5" transform="rotate(-90 2.56641 32.0886)" fill="#BFBFBF"/>
<rect x="2.56641" y="25.0886" width="3" height="16.1875" rx="1.5" transform="rotate(-90 2.56641 25.0886)" fill="#BFBFBF"/>
<rect x="2.56641" y="18.0886" width="3" height="16.1875" rx="1.5" transform="rotate(-90 2.56641 18.0886)" fill="#BFBFBF"/>
<rect x="2.56641" y="11.0886" width="3" height="16.1875" rx="1.5" transform="rotate(-90 2.56641 11.0886)" fill="#BFBFBF"/>
</svg>
