<svg width="8" height="12" viewBox="0 0 8 12" fill="none" xmlns="http://www.w3.org/2000/svg">
<path d="M5.72667 5.33333H8V4H6.88C7.16 3.56 7.33333 3.12 7.33333 2.66667C7.33333 0.913333 5.66667 0 4 0C2.43333 0 1.02 1.37333 0.86 1.52667L1.80667 2.47333C2.12667 2.15333 3.14 1.33333 4 1.33333C4.69333 1.33333 6 1.61333 6 2.66667C6 3 5.66667 3.49333 5.17333 4H0V5.33333H3.75333C3.47333 5.57333 2.5 6.44667 2.27333 6.66667H0V8H1.12C0.84 8.44 0.666667 8.88 0.666667 9.33333C0.666667 11.0867 2.33333 12 4 12C5.56667 12 6.98 10.6267 7.14 10.4733L6.19333 9.52667C5.88 9.84667 4.86 10.6667 4 10.6667C3.30667 10.6667 2 10.3867 2 9.33333C2 9 2.33333 8.50667 2.82667 8H8V6.66667H4.25333L5.72667 5.33333Z" fill="black"/>
</svg>
