<svg  viewBox="0 0 31 70" fill="none" xmlns="http://www.w3.org/2000/svg">
<rect x="0.587402" y="69.3551" width="68.1774" height="28.9758" rx="4" transform="rotate(-90 0.587402 69.3551)" stroke="#BFBFBF"/>
<path d="M19.0752 42.6243L10.3479 45.0107L10.3479 43.9368L17.4559 42.1129L17.4559 42.0277L10.3479 40.1698L10.3479 38.9766L17.4559 37.1186L17.4559 37.0334L10.3479 35.2095L10.3479 34.1357L19.0752 36.522L19.0752 37.6129L12.1206 39.5391L12.1206 39.6073L19.0752 41.5334L19.0752 42.6243ZM13.0752 26.2063L13.0752 27.2632C12.7712 27.3257 12.5042 27.435 12.2741 27.5913C12.0439 27.7447 11.8508 27.9322 11.6945 28.1538C11.5354 28.3725 11.4161 28.6154 11.3366 28.8825C11.257 29.1495 11.2172 29.4279 11.2172 29.7177C11.2172 30.2461 11.3508 30.7248 11.6178 31.1538C11.8849 31.5799 12.2783 31.9194 12.7982 32.1723C13.3181 32.4223 13.9559 32.5473 14.7116 32.5473C15.4672 32.5473 16.105 32.4223 16.6249 32.1723C17.1448 31.9194 17.5383 31.5799 17.8053 31.1538C18.0724 30.7248 18.2059 30.2461 18.2059 29.7177C18.2059 29.4279 18.1661 29.1495 18.0866 28.8825C18.007 28.6154 17.8891 28.3725 17.7329 28.1538C17.5738 27.9322 17.3792 27.7447 17.1491 27.5913C16.9161 27.435 16.6491 27.3257 16.3479 27.2632L16.3479 26.2063C16.7939 26.2859 17.1931 26.4308 17.5454 26.641C17.8976 26.8512 18.1974 27.1126 18.4445 27.4251C18.6888 27.7376 18.8749 28.0884 19.0028 28.4776C19.1306 28.864 19.1945 29.2774 19.1945 29.7177C19.1945 30.462 19.0127 31.124 18.6491 31.7035C18.2854 32.283 17.7684 32.739 17.0979 33.0714C16.4275 33.4038 15.632 33.57 14.7116 33.57C13.7911 33.57 12.9956 33.4038 12.3252 33.0714C11.6547 32.739 11.1377 32.283 10.7741 31.7035C10.4104 31.124 10.2286 30.462 10.2286 29.7177C10.2286 29.2774 10.2925 28.864 10.4204 28.4776C10.5482 28.0884 10.7357 27.7376 10.9829 27.4251C11.2272 27.1126 11.5255 26.8512 11.8778 26.641C12.2272 26.4308 12.6263 26.2859 13.0752 26.2063Z" fill="#BFBFBF"/>
</svg>
