<svg width="90" height="90" viewBox="0 0 90 90" fill="none" xmlns="http://www.w3.org/2000/svg">
<path opacity="0.15" d="M37.5 18.75C20.925 18.75 7.5 20.625 7.5 33.75V71.25C7.5 74.4375 8.8875 77.475 11.25 79.575V86.25C11.25 88.3125 12.9375 90 15 90H18.75C20.8125 90 22.5 88.3125 22.5 86.25V82.5H52.5V86.25C52.5 88.3125 54.1875 90 56.25 90H60C62.0625 90 63.75 88.3125 63.75 86.25V79.575C66.1125 77.475 67.5 74.4375 67.5 71.25V33.75C67.5 20.625 54.075 18.75 37.5 18.75ZM20.625 75C17.5125 75 15 72.4875 15 69.375C15 66.2625 17.5125 63.75 20.625 63.75C23.7375 63.75 26.25 66.2625 26.25 69.375C26.25 72.4875 23.7375 75 20.625 75ZM54.375 75C51.2625 75 48.75 72.4875 48.75 69.375C48.75 66.2625 51.2625 63.75 54.375 63.75C57.4875 63.75 60 66.2625 60 69.375C60 72.4875 57.4875 75 54.375 75ZM60 52.5H15V33.75H60V52.5ZM82.5 18.75V56.25C82.5 59.4375 81.1125 62.475 78.75 64.575V71.25C78.75 73.3125 77.0625 75 75 75H74.55C74.8125 73.8 75 72.5625 75 71.25V33.75C75 11.25 48.75 11.25 37.5 11.25C34.0875 11.25 29.25 11.25 24.225 11.8875C28.3125 4.95 39.375 3.75 52.5 3.75C69.075 3.75 82.5 5.625 82.5 18.75Z" fill="#E3EDF9"/>
</svg>
