<?xml version="1.0" encoding="utf-8"?>
<!-- Generator: Adobe Illustrator 25.2.0, SVG Export Plug-In . SVG Version: 6.00 Build 0)  -->
<svg version="1.1" id="Шар_1" xmlns="http://www.w3.org/2000/svg" xmlns:xlink="http://www.w3.org/1999/xlink" x="0px" y="0px"
	 viewBox="0 0 20 12" style="enable-background:new 0 0 20 12;" xml:space="preserve">
<style type="text/css">
	.st0{fill:#C1272D;}
	.st1{fill:#006A44;}
	.st2{fill:#FDB913;}
	.st3{fill:#FF0000;}
	.st4{fill:#006600;}
	.st5{fill-rule:evenodd;clip-rule:evenodd;fill:#FFFF00;}
	.st6{fill:#FFFFFF;}
	.st7{fill:#FFFF00;}
	.st8{fill:#003399;}
	.st9{fill:#B22234;}
	.st10{fill:#3C3B6E;}
</style>
<path class="st0" d="M-24.1-0.3h16c1.1,0,2,0.9,2,2v8c0,1.1-0.9,2-2,2h-16c-1.1,0-2-0.9-2-2v-8C-26.1,0.6-25.2-0.3-24.1-0.3z"/>
<path class="st1" d="M-24.1-0.3h16c1.1,0,2,0.9,2,2v6h-20v-6C-26.1,0.6-25.2-0.3-24.1-0.3z"/>
<path class="st2" d="M-24.1-0.3h16c1.1,0,2,0.9,2,2v2h-20v-2C-26.1,0.6-25.2-0.3-24.1-0.3z"/>
<g>
	<path class="st3" d="M-22.9,14.4h14.8c1.1,0,2,0.9,2,2v8c0,1.1-0.9,2-2,2h-14.8V14.4z"/>
	<path class="st4" d="M-24.1,14.4h6.2v12h-6.2c-1.1,0-2-0.9-2-2v-8C-26.1,15.3-25.2,14.4-24.1,14.4z"/>
	<g>
		<g>
			<path class="st5" d="M-15.6,22.3c-0.9,0-5-2.6-5-3l0.2-0.4c0.4,0.6,4.6,3.1,5,3L-15.6,22.3"/>
			<path d="M-15.6,22.3C-15.6,22.3-15.6,22.3-15.6,22.3c-0.5,0-1.8-0.7-2.9-1.4c-1-0.6-2.2-1.4-2.2-1.7c0,0,0,0,0,0l0.2-0.4
				c0,0,0,0,0,0c0,0,0,0,0,0c0.2,0.3,1.4,1.1,2.5,1.8c1.3,0.8,2.3,1.3,2.5,1.3c0,0,0,0,0,0c0,0,0,0,0,0L-15.6,22.3
				C-15.6,22.3-15.6,22.3-15.6,22.3z M-20.6,19.3c0,0.2,0.9,0.9,2.2,1.7c1,0.6,2.4,1.4,2.8,1.4l0.2-0.4c-0.3,0-1.4-0.6-2.5-1.3
				c-1.1-0.7-2.3-1.4-2.5-1.8L-20.6,19.3z"/>
		</g>
		<g>
			<path class="st5" d="M-20.4,18.8c-0.1,0.2,1.1,0.9,2.5,1.8c1.4,0.9,2.6,1.4,2.7,1.3c0,0,0-0.1,0-0.1c0,0-0.1,0-0.1,0
				c-0.4-0.1-1.4-0.6-2.6-1.3C-19.1,19.8-20.2,19.1-20.4,18.8C-20.4,18.8-20.4,18.8-20.4,18.8L-20.4,18.8L-20.4,18.8L-20.4,18.8
				L-20.4,18.8L-20.4,18.8z M-15.5,22.3C-15.6,22.3-15.6,22.3-15.5,22.3c-0.4,0-1.5-0.5-2.7-1.2c-1.4-0.8-2.6-1.6-2.4-1.8l0-0.1l0,0
				c-0.1,0.3,2.3,1.7,2.4,1.8C-16.8,21.9-15.6,22.4-15.5,22.3L-15.5,22.3L-15.5,22.3L-15.5,22.3z"/>
			<path d="M-15.6,22.3C-15.6,22.3-15.6,22.3-15.6,22.3c-0.4,0-1.4-0.6-2.6-1.3c-1.6-1-2.4-1.5-2.4-1.8c0,0,0,0,0-0.1l0-0.1
				c0,0,0,0,0,0l0,0c0,0,0,0,0,0c0,0,0,0,0,0c0,0.1,0.2,0.5,2.3,1.7c0,0,0.1,0,0.1,0.1c1.4,0.9,2.6,1.4,2.7,1.2c0,0,0,0,0,0
				c0,0,0,0,0,0L-15.6,22.3C-15.5,22.3-15.5,22.3-15.6,22.3C-15.6,22.3-15.6,22.3-15.6,22.3z M-20.6,19.2L-20.6,19.2
				C-20.6,19.3-20.6,19.3-20.6,19.2c0,0.3,0.8,0.9,2.4,1.8c1.2,0.7,2.2,1.2,2.6,1.3c0.1,0,0.1,0,0.1,0c0,0,0,0,0,0c0,0,0,0,0,0l0,0
				c-0.2,0.1-1.3-0.4-2.6-1.3c0,0,0,0-0.1-0.1C-19.8,20-20.6,19.4-20.6,19.2z M-15.3,21.9c-0.2,0-1.3-0.5-2.7-1.3
				c-1.5-0.9-2.5-1.6-2.5-1.8c0,0,0,0,0,0l0,0l0-0.1c0,0,0,0,0,0l0,0c0,0,0,0,0,0c0,0,0,0,0,0c0,0,0,0.1,0,0.1
				c0.2,0.3,1.4,1.1,2.4,1.7C-16.8,21.3-15.8,21.7-15.3,21.9C-15.3,21.9-15.3,21.9-15.3,21.9C-15.3,21.8-15.3,21.8-15.3,21.9
				C-15.2,21.8-15.2,21.8-15.3,21.9C-15.2,21.9-15.2,21.9-15.3,21.9L-15.3,21.9C-15.3,21.9-15.3,21.9-15.3,21.9
				C-15.3,21.9-15.3,21.9-15.3,21.9z M-20.4,18.8c-0.1,0.2,1.3,1.1,2.5,1.8c1.4,0.9,2.6,1.4,2.7,1.3l0,0c0,0,0,0,0,0
				c0,0-0.1,0-0.1,0c-0.4-0.1-1.4-0.6-2.6-1.3C-19,19.9-20.2,19.2-20.4,18.8C-20.4,18.8-20.4,18.8-20.4,18.8L-20.4,18.8z"/>
		</g>
		<g>
			<path class="st5" d="M-17.9,19.5c0.9,0,2-0.1,2.6-0.4l-0.1-0.2c-0.4,0.2-1.5,0.3-2.5,0.4c-1.2,0-2.1-0.1-2.5-0.4l-0.1,0.2
				C-19.7,19.4-18.9,19.5-17.9,19.5"/>
			<path d="M-17.9,19.5C-17.9,19.5-17.9,19.5-17.9,19.5c-1,0-1.8-0.1-2.6-0.4c0,0,0,0,0,0c0,0,0,0,0,0l0.1-0.2c0,0,0,0,0,0
				c0,0,0,0,0,0c0.4,0.3,1.2,0.4,2.5,0.4c0.9,0,2.1-0.1,2.5-0.4c0,0,0,0,0,0l0.1,0.2c0,0,0,0,0,0c0,0,0,0,0,0
				C-15.9,19.4-17,19.5-17.9,19.5C-17.9,19.5-17.9,19.5-17.9,19.5z M-20.5,19.1c0.8,0.3,1.6,0.4,2.6,0.4c0,0,0,0,0,0
				c0.8,0,2-0.1,2.6-0.4l-0.1-0.2c-0.4,0.2-1.6,0.3-2.5,0.4c-1.3,0-2.1-0.1-2.5-0.4L-20.5,19.1z"/>
		</g>
		<g>
			<path class="st5" d="M-15.2,19.1c0,0-0.4,0.2-1.1,0.3c-0.4,0.1-1,0.1-1.6,0.1c-0.6,0-1.2,0-1.6-0.1c-0.6-0.1-1-0.2-1.1-0.3
				c0,0,0,0,0-0.1c0.4,0.1,0.7,0.2,1.1,0.3c0.4,0.1,0.9,0.1,1.6,0.1c0.7,0,1.2-0.1,1.6-0.1C-15.6,19.3-15.3,19.1-15.2,19.1
				L-15.2,19.1L-15.2,19.1L-15.2,19.1z M-15.3,18.9c-0.1,0.1-0.4,0.2-1,0.3c-0.4,0.1-0.9,0.1-1.6,0.1c-0.6,0-1.1,0-1.5-0.1
				c-0.6-0.1-0.9-0.2-1-0.3c0,0,0,0,0-0.1c0.1,0,0.4,0.2,1,0.3c0.4,0.1,0.9,0.1,1.5,0.1c0.6,0,1.1-0.1,1.5-0.1
				C-15.7,19-15.4,18.9-15.3,18.9L-15.3,18.9L-15.3,18.9L-15.3,18.9z"/>
			<path d="M-17.9,19.6c-0.5,0-1.1,0-1.6-0.1c-0.6-0.1-1-0.2-1.1-0.3l0,0c0,0,0,0,0,0c0,0,0,0,0,0c0,0,0,0,0,0c0,0,0,0,0,0
				c0,0,0,0,0,0c0.3,0.1,0.7,0.2,1.1,0.3C-19,19.4-18.4,19.5-17.9,19.6C-17.9,19.5-17.9,19.5-17.9,19.6c0.6-0.1,1.1-0.1,1.6-0.2
				c0.6-0.1,1-0.2,1-0.3c0,0,0,0,0,0c0,0,0,0,0,0l0,0.1c0,0,0,0,0,0c0,0,0,0,0,0c0,0-0.5,0.2-1.1,0.3
				C-16.8,19.5-17.3,19.6-17.9,19.6C-17.9,19.6-17.9,19.6-17.9,19.6z M-20.5,19.1L-20.5,19.1c0.1,0.1,0.5,0.2,1.1,0.3
				c0.5,0.1,1,0.1,1.6,0.1c0.6,0,1.1,0,1.6-0.1c0.6-0.1,1-0.2,1-0.3l0-0.1c-0.1,0.1-0.4,0.2-1,0.3c-0.5,0.1-1.1,0.1-1.6,0.1
				c0,0,0,0,0,0c-0.5,0-1.1,0-1.5-0.1C-19.9,19.3-20.2,19.2-20.5,19.1C-20.5,19.1-20.5,19.1-20.5,19.1
				C-20.5,19.1-20.5,19.1-20.5,19.1z M-17.9,19.3c-0.5,0-1.1,0-1.5-0.1c-0.5-0.1-0.8-0.2-1-0.2c0,0,0,0,0,0c0,0,0,0,0,0s0,0,0,0
				c0,0,0,0,0-0.1c0,0,0,0,0,0c0.1,0,0.4,0.2,1,0.3C-19.1,19.2-18.6,19.2-17.9,19.3c0.7-0.1,1.2-0.1,1.6-0.2c0.6-0.1,0.9-0.2,1-0.3
				c0,0,0,0,0,0c0,0,0,0,0,0l0,0.1c0,0,0,0,0,0c0,0,0,0,0,0c-0.1,0.1-0.4,0.2-1,0.3C-16.8,19.3-17.3,19.3-17.9,19.3
				C-17.9,19.3-17.9,19.3-17.9,19.3z M-20.4,18.9C-20.4,18.9-20.4,18.9-20.4,18.9c0.2,0.1,0.5,0.2,1,0.3c0.4,0.1,1,0.1,1.5,0.1
				c0.5,0,1,0,1.6-0.1c0.6-0.1,0.9-0.2,1-0.3l0-0.1c-0.1,0-0.4,0.2-1,0.3c-0.3,0-0.8,0.1-1.5,0.1c0,0,0,0,0,0
				c-0.7,0-1.2-0.1-1.5-0.1C-20,19-20.3,18.9-20.4,18.9C-20.4,18.9-20.4,18.9-20.4,18.9z M-15.3,18.9L-15.3,18.9L-15.3,18.9z"/>
		</g>
		<g>
			<path class="st5" d="M-20.8,20.6c0.6,0.3,1.8,0.5,2.9,0.5c1.1,0,2.4-0.2,2.9-0.4l0-0.3c-0.2,0.3-1.6,0.5-2.9,0.5
				c-1.3,0-2.5-0.2-2.9-0.5L-20.8,20.6"/>
			<path d="M-17.9,21.1C-17.9,21.1-17.9,21.1-17.9,21.1c-1,0-2.4-0.1-3-0.5c0,0,0,0,0,0l0-0.3c0,0,0,0,0,0c0,0,0,0,0,0
				c0.4,0.3,1.6,0.5,2.9,0.5c1.3,0,2.8-0.2,2.9-0.5c0,0,0,0,0,0c0,0,0,0,0,0l0,0.3c0,0,0,0,0,0C-15.5,20.9-16.8,21.1-17.9,21.1z
				 M-20.8,20.6c0.6,0.3,1.9,0.4,2.9,0.5c0,0,0,0,0,0c1,0,2.4-0.2,2.9-0.4l0-0.3c-0.2,0.3-1.6,0.5-2.9,0.5c-1.3,0-2.5-0.2-2.9-0.5
				L-20.8,20.6z"/>
		</g>
		<g>
			<path class="st5" d="M-14.9,20.6L-14.9,20.6c-0.1,0.2-0.6,0.3-1.2,0.4c-0.5,0.1-1.1,0.1-1.8,0.1c-0.7,0-1.3-0.1-1.7-0.1
				c-0.7-0.1-1.1-0.3-1.2-0.3l0-0.1c0.3,0.2,1,0.3,1.2,0.4c0.4,0.1,1,0.1,1.7,0.1c0.7,0,1.3-0.1,1.8-0.1
				C-15.7,20.8-15,20.7-14.9,20.6L-14.9,20.6L-14.9,20.6z M-14.9,20.3L-14.9,20.3c-0.1,0.2-0.6,0.3-1.2,0.4
				c-0.5,0.1-1.1,0.1-1.8,0.1c-0.7,0-1.3-0.1-1.7-0.1c-0.7-0.1-1.1-0.3-1.2-0.3l0-0.1c0.3,0.2,1,0.3,1.2,0.4c0.4,0.1,1,0.1,1.7,0.1
				c0.7,0,1.3-0.1,1.8-0.1C-15.7,20.6-15,20.4-14.9,20.3L-14.9,20.3L-14.9,20.3z"/>
			<path d="M-17.9,21.1c-0.6,0-1.2,0-1.7-0.1c-0.7-0.1-1.1-0.3-1.2-0.3c0,0,0,0,0,0l0-0.1c0,0,0,0,0,0s0,0,0,0
				c0.3,0.2,1,0.3,1.2,0.4C-19.1,21-18.5,21-17.9,21.1c0.7-0.1,1.3-0.1,1.8-0.2c0.4-0.1,1.1-0.2,1.2-0.3c0,0,0,0,0,0c0,0,0,0,0,0
				l0,0.1c0,0,0,0,0,0c-0.1,0.1-0.6,0.2-1.2,0.3C-16.6,21.1-17.2,21.1-17.9,21.1z M-20.9,20.6c0.1,0,0.5,0.2,1.2,0.3
				c0.5,0.1,1.1,0.1,1.7,0.1c0.7,0,1.3,0,1.8-0.1c0.6-0.1,1.1-0.2,1.2-0.3l0-0.1c-0.2,0.1-0.8,0.3-1.2,0.3c-0.5,0.1-1.1,0.1-1.8,0.1
				c-0.6,0-1.2,0-1.7-0.1C-19.8,20.9-20.6,20.8-20.9,20.6L-20.9,20.6z M-17.9,20.9c-0.6,0-1.2,0-1.7-0.1c-0.7-0.1-1.1-0.3-1.2-0.3
				c0,0,0,0,0,0l0-0.1c0,0,0,0,0,0c0,0,0,0,0,0c0.3,0.2,1,0.3,1.2,0.4C-19.1,20.7-18.5,20.8-17.9,20.9c0.7-0.1,1.3-0.1,1.8-0.2
				c0.4-0.1,1.1-0.2,1.2-0.3c0,0,0,0,0,0c0,0,0,0,0,0c0,0,0,0,0,0l0,0.1c0,0,0,0,0,0c-0.1,0.1-0.6,0.2-1.2,0.3
				C-16.6,20.8-17.2,20.9-17.9,20.9z M-20.9,20.4c0.1,0,0.5,0.2,1.2,0.3c0.5,0.1,1.1,0.1,1.7,0.1c0.7,0,1.3,0,1.8-0.1
				c0.6-0.1,1.1-0.2,1.2-0.3l0-0.1c-0.2,0.1-0.8,0.3-1.2,0.3c-0.5,0.1-1.1,0.1-1.8,0.1c-0.6,0-1.2,0-1.7-0.1
				C-19.8,20.6-20.6,20.5-20.9,20.4L-20.9,20.4z"/>
		</g>
		<g>
			<path class="st5" d="M-17.9,22.2c-1.3,0-2.4-0.3-2.6-0.4l0.2,0.3c0.4,0.2,1.5,0.4,2.4,0.4c1,0,1.8-0.1,2.4-0.4l0.2-0.3
				C-15.7,22-17.1,22.2-17.9,22.2"/>
			<path d="M-18,22.5c-0.9,0-1.9-0.2-2.3-0.4c0,0,0,0,0,0l-0.2-0.3c0,0,0,0,0,0c0,0,0,0,0,0c0,0,0.1,0,0.1,0
				c0.4,0.1,1.4,0.4,2.5,0.4c0.8,0,2.2-0.2,2.6-0.4c0,0,0,0,0,0c0,0,0,0,0,0l-0.2,0.3c0,0,0,0,0,0c-0.6,0.3-1.5,0.4-2.4,0.4
				C-17.9,22.5-18,22.5-18,22.5z M-20.3,22.1c0.4,0.2,1.5,0.4,2.4,0.4c0.9,0,1.8-0.1,2.4-0.4l0.2-0.2c-0.4,0.2-1.8,0.4-2.6,0.4
				c0,0,0,0,0,0c-1.1,0-2.1-0.3-2.5-0.4c0,0-0.1,0-0.1,0L-20.3,22.1z"/>
		</g>
		<g>
			<path class="st5" d="M-15.4,22.1c0,0-0.1,0.1-0.1,0.1c-0.3,0.1-0.7,0.2-0.9,0.2c-0.4,0.1-1,0.1-1.5,0.1c-1.1,0-2-0.2-2.5-0.4
				l0-0.1l0,0l0.1,0c0.8,0.3,1.6,0.4,2.5,0.4c0.5,0,1-0.1,1.5-0.1C-15.8,22.2-15.5,22.1-15.4,22.1L-15.4,22.1L-15.4,22.1L-15.4,22.1
				z M-15.3,21.8C-15.3,21.8-15.3,21.8-15.3,21.8c0,0,0,0.1-0.1,0.1c-0.1,0.1-0.6,0.2-1.1,0.3c-0.4,0.1-0.6,0.1-1.4,0.1
				c-1.5,0-2.4-0.3-2.6-0.4l0-0.1c0.8,0.2,1.7,0.4,2.7,0.4c0.7,0,1-0.1,1.4-0.1C-15.8,22-15.4,21.9-15.3,21.8
				C-15.3,21.8-15.3,21.8-15.3,21.8L-15.3,21.8L-15.3,21.8L-15.3,21.8z"/>
			<path d="M-17.9,22.5c-1.1,0-2.1-0.2-2.5-0.4c0,0,0,0,0,0l0-0.1c0,0,0,0,0,0l0,0c0,0,0,0,0,0l0.1,0
				C-19.7,22.3-18.8,22.4-17.9,22.5C-17.9,22.5-17.9,22.5-17.9,22.5c0.6-0.1,1.1-0.2,1.5-0.2c0.7-0.1,0.9-0.2,1-0.3l0,0c0,0,0,0,0,0
				c0,0,0,0,0,0c0,0-0.1,0.1-0.1,0.1c0,0,0,0,0,0c-0.3,0.1-0.7,0.2-0.9,0.2C-16.8,22.5-17.4,22.5-17.9,22.5z M-20.4,22.1
				c0.5,0.2,1.4,0.4,2.5,0.4c0.5,0,1.1-0.1,1.5-0.1c0.2,0,0.6-0.1,0.9-0.2c0,0,0-0.1,0.1-0.1c-0.1,0-0.3,0.1-1,0.3
				c-0.4,0.1-0.9,0.1-1.5,0.1C-18.8,22.5-19.7,22.3-20.4,22.1L-20.4,22.1L-20.4,22.1z M-17.9,22.3c-1.3,0-2.2-0.3-2.6-0.4
				c0,0,0,0,0,0l0-0.1c0,0,0,0,0,0c0,0,0,0,0,0C-19.6,22.1-18.7,22.2-17.9,22.3c0.6-0.1,0.9-0.1,1.3-0.2c0,0,0.1,0,0.1,0
				c0.7-0.1,1-0.2,1.1-0.3l0,0c0,0,0,0,0,0c0,0,0,0,0,0l0.1,0c0,0,0,0,0,0l0,0c0,0,0,0,0,0c0,0,0,0,0,0c0,0,0,0.1-0.1,0.1
				c0,0,0,0,0,0c-0.2,0.1-0.6,0.2-1.2,0.3c-0.1,0-0.1,0-0.2,0C-17,22.2-17.2,22.3-17.9,22.3z M-20.5,21.9c0.4,0.1,1.3,0.4,2.6,0.4
				c0.7,0,0.9-0.1,1.2-0.1c0.1,0,0.1,0,0.2,0c0.5-0.1,0.9-0.2,1.1-0.3c0,0,0-0.1,0-0.1l0,0c0,0,0,0,0,0c0,0,0,0,0,0l0,0
				c-0.1,0-0.5,0.1-1.1,0.3c0,0-0.1,0-0.1,0c-0.3,0-0.6,0.1-1.3,0.1C-18.7,22.2-19.6,22.1-20.5,21.9L-20.5,21.9z"/>
		</g>
		<g>
			<path class="st5" d="M-15.3,20.4c0,0.8-0.4,1.6-0.8,1.9c-0.5,0.5-1.1,0.8-1.9,0.8c-0.8,0-1.6-0.5-1.9-0.8
				c-0.4-0.5-0.8-1.1-0.8-1.9c0.1-0.9,0.4-1.6,0.9-2c0.5-0.4,1.2-0.7,1.8-0.6c0.7,0,1.4,0.3,2,1C-15.5,19.2-15.3,19.7-15.3,20.4
				L-15.3,20.4z M-17.9,17.5c1.6,0,2.9,1.3,2.9,3c0,1.6-1.3,3-2.9,3s-2.9-1.3-2.9-3C-20.8,18.8-19.5,17.5-17.9,17.5"/>
			<path d="M-17.9,23.4c-1.6,0-2.9-1.3-2.9-3c0-1.6,1.3-3,2.9-3c0.8,0,1.5,0.3,2.1,0.9c0.6,0.6,0.9,1.3,0.9,2.1
				c0,0.8-0.3,1.5-0.9,2.1C-16.4,23.1-17.1,23.4-17.9,23.4z M-17.9,17.5c-1.6,0-2.9,1.3-2.9,3c0,1.6,1.3,3,2.9,3
				c1.6,0,2.9-1.3,2.9-3C-15,18.8-16.3,17.5-17.9,17.5z M-17.9,23.1c-0.9,0-1.6-0.6-1.8-0.8c-0.5-0.6-0.8-1.2-0.8-1.9
				c0-0.8,0.4-1.5,0.9-2c0.5-0.4,1.2-0.7,1.8-0.6c0.7,0,1.5,0.4,2,1c0.3,0.4,0.5,0.9,0.6,1.6c0,0,0,0,0,0c0,0.8-0.4,1.6-0.8,1.9
				C-16.5,22.8-17.2,23.1-17.9,23.1C-17.9,23.1-17.9,23.1-17.9,23.1z M-17.9,17.8c-0.6,0-1.3,0.2-1.7,0.6c-0.6,0.5-0.9,1.2-0.9,2
				c0,0.7,0.3,1.3,0.8,1.9c0.2,0.2,1,0.8,1.8,0.8c0,0,0,0,0,0c0.7,0,1.4-0.3,1.9-0.8c0.4-0.4,0.8-1.1,0.8-1.9
				c-0.1-0.7-0.2-1.2-0.6-1.6C-16.3,18.2-17.1,17.8-17.9,17.8C-17.8,17.8-17.9,17.8-17.9,17.8z"/>
		</g>
		<g>
			<path class="st5" d="M-17.9,17.5c1.6,0,2.9,1.3,2.9,3c0,1.6-1.3,3-2.9,3c-1.6,0-2.9-1.3-2.9-3S-19.5,17.5-17.9,17.5L-17.9,17.5z
				 M-20.8,20.4c0,1.6,1.3,2.9,2.9,2.9c1.6,0,2.9-1.3,2.9-2.9c0-1.6-1.3-2.9-2.9-2.9C-19.5,17.5-20.8,18.8-20.8,20.4L-20.8,20.4z"/>
			<path d="M-17.9,23.4c-1.6,0-2.9-1.3-2.9-3c0-1.6,1.3-3,2.9-3c1.6,0,2.9,1.3,2.9,3C-14.9,22.1-16.3,23.4-17.9,23.4z M-17.9,17.5
				c-1.6,0-2.9,1.3-2.9,3c0,1.6,1.3,3,2.9,3c1.6,0,2.9-1.3,2.9-3C-15,18.8-16.3,17.5-17.9,17.5z M-17.9,23.4c-0.8,0-1.5-0.3-2-0.9
				c-0.5-0.6-0.8-1.3-0.8-2.1c0-0.8,0.3-1.5,0.8-2.1c0.5-0.6,1.3-0.9,2-0.9c0.8,0,1.5,0.3,2,0.9c0.5,0.6,0.8,1.3,0.8,2.1
				c0,0.8-0.3,1.5-0.8,2.1C-16.4,23.1-17.1,23.4-17.9,23.4z M-17.9,17.5c-1.6,0-2.9,1.3-2.9,2.9c0,1.6,1.3,2.9,2.9,2.9
				c1.6,0,2.9-1.3,2.9-2.9C-15,18.8-16.3,17.5-17.9,17.5z"/>
		</g>
		<g>
			<path class="st5" d="M-17.9,17.7c1.5,0,2.7,1.2,2.7,2.7c0,1.5-1.2,2.7-2.7,2.7c-1.5,0-2.7-1.2-2.7-2.7
				C-20.6,18.9-19.4,17.7-17.9,17.7L-17.9,17.7z M-20.5,20.4c0,1.5,1.2,2.7,2.6,2.7s2.6-1.2,2.6-2.7c0-1.5-1.2-2.7-2.6-2.7
				C-19.3,17.8-20.5,19-20.5,20.4L-20.5,20.4z"/>
			<path d="M-17.9,23.2c-0.7,0-1.4-0.3-1.9-0.8c-0.5-0.5-0.8-1.2-0.8-1.9c0-0.7,0.3-1.4,0.8-1.9c0.5-0.5,1.2-0.8,1.9-0.8
				c0.7,0,1.4,0.3,1.9,0.8c0.5,0.5,0.8,1.2,0.8,1.9c0,0.7-0.3,1.4-0.8,1.9C-16.5,22.9-17.2,23.2-17.9,23.2z M-17.9,17.7
				c-1.5,0-2.7,1.2-2.7,2.7c0,1.5,1.2,2.7,2.7,2.7s2.7-1.2,2.7-2.7C-15.2,18.9-16.4,17.7-17.9,17.7z M-17.9,23.1
				c-0.7,0-1.4-0.3-1.9-0.8c-0.5-0.5-0.8-1.2-0.8-1.9c0-0.7,0.3-1.4,0.8-1.9c0.5-0.5,1.2-0.8,1.9-0.8c0.7,0,1.4,0.3,1.9,0.8
				c0.5,0.5,0.8,1.2,0.8,1.9c0,0.7-0.3,1.4-0.8,1.9C-16.5,22.8-17.2,23.1-17.9,23.1z M-17.9,17.8c-1.4,0-2.6,1.2-2.6,2.6
				c0,1.5,1.2,2.6,2.6,2.6c1.4,0,2.6-1.2,2.6-2.6C-15.3,19-16.4,17.8-17.9,17.8z"/>
		</g>
		<g>
			<path class="st5" d="M-17.8,17.5H-18l0,6h0.3L-17.8,17.5z"/>
			<path d="M-17.8,23.4H-18c0,0,0,0,0,0l0-6c0,0,0,0,0,0c0,0,0,0,0,0h0.3c0,0,0,0,0,0L-17.8,23.4C-17.8,23.4-17.8,23.4-17.8,23.4
				C-17.8,23.4-17.8,23.4-17.8,23.4z M-18,23.4h0.2l0-6H-18L-18,23.4z"/>
		</g>
		<g>
			<path class="st5" d="M-17.8,17.4L-17.8,17.4l0.1,6h-0.1L-17.8,17.4L-17.8,17.4z M-18,17.4L-18,17.4l0.1,6H-18L-18,17.4L-18,17.4z
				"/>
			<path d="M-18,23.5L-18,23.5C-18.1,23.5-18.1,23.5-18,23.5l-0.1-6c0,0,0,0,0,0c0,0,0,0,0,0c0,0,0,0,0,0h0.1c0,0,0,0,0,0L-18,23.5
				C-18,23.5-18,23.5-18,23.5C-18,23.5-18,23.5-18,23.5z M-18,23.5L-18,23.5l0-6h0V23.5z M-17.7,23.5L-17.7,23.5
				C-17.8,23.5-17.8,23.5-17.7,23.5l-0.1-6c0,0,0,0,0,0c0,0,0,0,0,0h0.1c0,0,0,0,0,0L-17.7,23.5C-17.7,23.5-17.7,23.5-17.7,23.5
				C-17.7,23.5-17.7,23.5-17.7,23.5z M-17.8,23.5L-17.8,23.5l0-6h0L-17.8,23.5z"/>
		</g>
		<g>
			<path class="st5" d="M-15,20.6v-0.2l-0.2-0.2l-1-0.3l-1.5-0.1l-1.8,0.1l-1.2,0.3l-0.3,0.2v0.2l0.6-0.3l1.5-0.2h1.5l1.1,0.1
				l0.7,0.2L-15,20.6z"/>
			<path d="M-15,20.6C-15,20.6-15,20.6-15,20.6l-0.5-0.2l-0.7-0.2l-1.1-0.1l-1.5,0l-1.5,0.2l-0.6,0.3c0,0,0,0,0,0c0,0,0,0,0,0v-0.2
				c0,0,0,0,0,0l0.3-0.2c0,0,0,0,0,0l1.2-0.3l1.8-0.1l1.5,0.2l1,0.3c0,0,0,0,0,0l0.2,0.2c0,0,0,0,0,0L-15,20.6
				C-14.9,20.6-14.9,20.6-15,20.6C-14.9,20.6-15,20.6-15,20.6z M-17.2,20l1.1,0.1l0.7,0.2l0.5,0.2v-0.2l-0.2-0.2l-1-0.3l-1.5-0.1
				l-1.8,0.1l-1.2,0.3l-0.2,0.2v0.2l0.6-0.3c0,0,0,0,0,0l1.5-0.2L-17.2,20z"/>
		</g>
		<g>
			<path class="st5" d="M-17.9,20c0.7,0,1.4,0.1,1.9,0.2c0.6,0.1,0.9,0.3,1.1,0.4l0,0.1c-0.2-0.2-0.7-0.3-1.1-0.4
				C-16.5,20.1-17.2,20-17.9,20c-0.7,0.1-1.4,0.1-1.9,0.2c-0.4,0.1-1,0.3-1,0.4v-0.1c0-0.1,0.5-0.3,1-0.4
				C-19.3,20.1-18.6,20-17.9,20L-17.9,20z M-17.9,19.7c0.7,0,1.4,0.1,1.9,0.2c0.6,0.1,0.9,0.3,1.1,0.4l0,0.1
				c-0.2-0.2-0.7-0.3-1.1-0.4C-16.5,19.9-17.2,19.8-17.9,19.7c-0.7,0.1-1.4,0.1-1.9,0.2c-0.4,0.1-1,0.3-1.1,0.4v-0.1
				c0-0.1,0.5-0.3,1-0.4C-19.3,19.8-18.6,19.7-17.9,19.7L-17.9,19.7z"/>
			<path d="M-20.9,20.6C-20.9,20.6-20.9,20.6-20.9,20.6C-20.9,20.6-20.9,20.6-20.9,20.6L-20.9,20.6C-20.9,20.6-20.9,20.6-20.9,20.6
				c0-0.2,0.5-0.4,1-0.5c0.6-0.1,1.3-0.2,1.9-0.2v0c0.7,0,1.3,0.1,1.9,0.2c0.6,0.1,0.9,0.3,1.1,0.4c0,0,0,0,0,0l0,0.1c0,0,0,0,0,0
				c0,0,0,0,0,0c-0.2-0.2-0.7-0.3-1.1-0.4c-0.6-0.1-1.2-0.2-1.9-0.2c-0.7,0-1.4,0.1-1.9,0.2C-20.3,20.3-20.8,20.5-20.9,20.6
				C-20.9,20.6-20.9,20.6-20.9,20.6z M-17.9,20c0.6,0,1.3,0.1,1.9,0.2c0.3,0.1,0.9,0.2,1.1,0.4l0-0.1c-0.1-0.1-0.5-0.3-1.1-0.4
				C-16.6,20.1-17.2,20-17.9,20L-17.9,20c-0.7,0-1.4,0-2,0.1c-0.6,0.1-1,0.3-1,0.4v0c0.1-0.2,0.7-0.3,1-0.4
				C-19.3,20.1-18.6,20-17.9,20C-17.9,20-17.9,20-17.9,20z M-17.9,20L-17.9,20L-17.9,20z M-20.9,20.4
				C-20.9,20.4-20.9,20.4-20.9,20.4C-20.9,20.4-20.9,20.4-20.9,20.4L-20.9,20.4C-20.9,20.3-20.9,20.3-20.9,20.4c0-0.2,0.5-0.4,1-0.5
				c0.6-0.1,1.3-0.2,1.9-0.2l0,0c0.7,0,1.3,0.1,1.9,0.2c0.6,0.1,0.9,0.3,1.1,0.4c0,0,0,0,0,0l0,0.1c0,0,0,0,0,0c0,0,0,0,0,0
				c-0.2-0.2-0.7-0.3-1.1-0.4c-0.6-0.1-1.2-0.2-1.9-0.2c0,0,0,0,0,0c-0.7,0-1.4,0.1-1.9,0.2C-20.3,20.1-20.8,20.2-20.9,20.4
				C-20.9,20.4-20.9,20.4-20.9,20.4z M-17.9,19.8c0.6,0,1.3,0.1,1.9,0.2c0.3,0.1,0.9,0.2,1.1,0.4l0-0.1c-0.1-0.1-0.5-0.3-1.1-0.4
				C-16.6,19.8-17.2,19.7-17.9,19.8L-17.9,19.8c-0.7,0-1.4,0-2,0.1c-0.6,0.1-1,0.3-1,0.4v0c0.1-0.2,0.7-0.3,1-0.4
				C-19.3,19.8-18.6,19.8-17.9,19.8C-17.9,19.8-17.9,19.8-17.9,19.8z"/>
		</g>
		<g>
			<path class="st5" d="M-17.9,18.4c1.1,0,2,0.2,2.5,0.4l0.2,0.3c-0.4-0.2-1.4-0.4-2.6-0.4c-1,0-2.1,0.1-2.6,0.4l0.2-0.3
				C-19.9,18.5-18.8,18.4-17.9,18.4"/>
			<path d="M-20.5,19.1C-20.5,19.1-20.5,19.1-20.5,19.1C-20.5,19.1-20.5,19.1-20.5,19.1l0.2-0.3c0,0,0,0,0,0
				c0.5-0.2,1.6-0.4,2.4-0.4c0,0,0,0,0,0c1.1,0,2,0.1,2.5,0.4c0,0,0,0,0,0l0.2,0.3c0,0,0,0,0,0c0,0,0,0,0,0
				c-0.4-0.2-1.4-0.4-2.6-0.4C-18.6,18.7-19.9,18.8-20.5,19.1C-20.5,19.1-20.5,19.1-20.5,19.1z M-20.3,18.8l-0.2,0.3
				c0.6-0.3,1.9-0.4,2.6-0.4c1.2,0,2.2,0.2,2.6,0.4l-0.1-0.3c-0.5-0.2-1.4-0.4-2.5-0.4c0,0,0,0,0,0C-18.8,18.4-19.9,18.5-20.3,18.8z
				"/>
		</g>
		<g>
			<path class="st5" d="M-17.9,18.7c0.6,0,1.2,0,1.7,0.1c0.4,0.1,0.9,0.2,0.9,0.3l0,0.1c-0.1-0.1-0.5-0.2-1-0.3
				C-16.7,18.8-17.3,18.7-17.9,18.7c-0.7,0.1-1.3,0.1-1.7,0.2c-0.5,0.1-0.8,0.2-0.9,0.3l0-0.1c0.2-0.1,0.4-0.2,0.9-0.3
				C-19.1,18.7-18.6,18.7-17.9,18.7L-17.9,18.7L-17.9,18.7z M-17.9,18.4c0.6,0,1.2,0,1.6,0.1c0.4,0.1,0.7,0.2,0.9,0.3l0.1,0.1
				c-0.1-0.1-0.6-0.3-0.9-0.3C-16.7,18.5-17.3,18.5-17.9,18.4c-0.6,0.1-1.2,0.1-1.7,0.2c-0.4,0.1-0.7,0.2-0.8,0.3l0.1-0.1
				c0.2-0.1,0.4-0.2,0.8-0.2C-19.1,18.4-18.5,18.4-17.9,18.4L-17.9,18.4z"/>
			<path d="M-15.2,19.2C-15.2,19.2-15.2,19.1-15.2,19.2c-0.1-0.1-0.5-0.2-1-0.3c-0.4-0.1-1-0.1-1.7-0.1c-0.7,0-1.3,0-1.7,0.1
				c-0.5,0.1-0.8,0.2-0.9,0.3c0,0,0,0,0,0c0,0,0,0,0,0l0-0.1c0,0,0,0,0,0c0.2-0.1,0.5-0.2,0.9-0.3c0.4-0.1,0.9-0.1,1.7-0.1
				c0,0,0,0,0,0c0,0,0,0,0,0c0.7,0,1.2,0,1.7,0.1C-15.7,18.9-15.3,19-15.2,19.2L-15.2,19.2C-15.2,19.1-15.2,19.1-15.2,19.2
				C-15.2,19.1-15.2,19.2-15.2,19.2z M-17.8,18.7c0.7,0,1.2,0,1.7,0.1c0.5,0.1,0.8,0.2,1,0.3l0-0.1c-0.1-0.1-0.5-0.2-0.9-0.3
				C-16.6,18.7-17.2,18.7-17.8,18.7C-17.9,18.7-17.9,18.7-17.8,18.7c-0.8,0-1.3,0-1.8,0.1c-0.4,0.1-0.6,0.2-0.9,0.3l0,0.1
				c0.1-0.1,0.4-0.2,0.9-0.3C-19.1,18.8-18.6,18.7-17.8,18.7C-17.9,18.7-17.9,18.7-17.8,18.7z M-15.3,18.9
				C-15.3,18.9-15.3,18.9-15.3,18.9c-0.1-0.1-0.6-0.3-1-0.3c-0.4-0.1-0.9-0.1-1.6-0.1c-0.7,0-1.2,0-1.7,0.1
				c-0.4,0.1-0.7,0.2-0.8,0.3c0,0,0,0,0,0s0,0,0,0l0.1-0.1c0,0,0,0,0,0c0.2-0.1,0.4-0.2,0.8-0.2c0.4-0.1,1-0.1,1.7-0.1l0,0h0
				c0,0,0,0,0,0c0.6,0,1.2,0,1.6,0.1c0.4,0.1,0.7,0.2,0.9,0.3c0,0,0,0,0,0L-15.3,18.9C-15.3,18.9-15.3,18.9-15.3,18.9
				C-15.3,18.9-15.3,18.9-15.3,18.9z M-17.9,18.5c0.7,0,1.2,0,1.6,0.1c0.3,0.1,0.7,0.2,0.9,0.3l0-0.1c-0.1-0.1-0.5-0.2-0.8-0.3
				C-16.7,18.5-17.2,18.4-17.9,18.5L-17.9,18.5c-0.7,0-1.2,0-1.7,0.1c-0.3,0.1-0.6,0.1-0.7,0.2l0,0.1c0.1-0.1,0.4-0.2,0.8-0.2
				C-19.1,18.5-18.5,18.5-17.9,18.5z"/>
		</g>
		<g>
			<path class="st5" d="M-16.4,21.7c-0.5-0.1-1.1-0.1-1.5-0.1c-1.8,0-2.4,0.4-2.5,0.5l-0.1-0.2c0.5-0.3,1.5-0.5,2.6-0.5
				c0.6,0,1.1,0.1,1.6,0.1L-16.4,21.7"/>
			<path d="M-20.4,22.1C-20.4,22.1-20.4,22.1-20.4,22.1C-20.4,22.1-20.4,22.1-20.4,22.1l-0.1-0.2c0,0,0,0,0,0
				c0.5-0.3,1.5-0.5,2.6-0.5c0.6,0,1.2,0.1,1.6,0.1c0,0,0,0,0,0c0,0,0,0,0,0l-0.1,0.2c0,0,0,0,0,0c-0.4-0.1-0.9-0.1-1.5-0.1
				C-19.7,21.6-20.3,21.9-20.4,22.1C-20.4,22.1-20.4,22.1-20.4,22.1z M-20.5,21.8l0.1,0.2c0.1-0.1,0.8-0.5,2.5-0.5
				c0.5,0,1,0,1.5,0.1l0.1-0.2c-0.4-0.1-0.9-0.1-1.6-0.1C-19.1,21.3-20,21.5-20.5,21.8z"/>
		</g>
		<g>
			<path class="st5" d="M-17.9,21.5c0.5,0,1,0,1.5,0.1l0,0.1C-16.9,21.6-17.4,21.6-17.9,21.5c-0.7,0.1-1.4,0.1-1.9,0.3
				c-0.2,0.1-0.5,0.2-0.5,0.3l0-0.1c0-0.1,0.2-0.2,0.5-0.3C-19.2,21.6-18.6,21.5-17.9,21.5L-17.9,21.5L-17.9,21.5z M-17.9,21.3
				c0.5,0,1.1,0,1.6,0.1l0,0.1C-16.8,21.4-17.3,21.4-17.9,21.3c-0.7,0.1-1.4,0.1-2,0.3c-0.2,0.1-0.6,0.2-0.6,0.3l0-0.1
				c0-0.1,0.3-0.2,0.6-0.3C-19.3,21.3-18.6,21.3-17.9,21.3L-17.9,21.3z"/>
			<path d="M-20.4,22.1C-20.4,22.1-20.4,22.1-20.4,22.1L-20.4,22.1C-20.4,22.1-20.4,22-20.4,22.1c0-0.1,0.2-0.3,0.5-0.4
				c0.6-0.2,1.3-0.2,2-0.2c0,0,0,0,0,0c0.5,0,1,0,1.5,0.1c0,0,0,0,0,0c0,0,0,0,0,0l0,0.1c0,0,0,0,0,0c-0.4-0.1-0.9-0.1-1.4-0.1
				c-0.7,0-1.4,0.1-1.9,0.2C-20,21.9-20.3,22-20.4,22.1C-20.4,22.1-20.4,22.1-20.4,22.1C-20.4,22.1-20.4,22.1-20.4,22.1z M-20.4,22
				L-20.4,22c0.1-0.1,0.4-0.2,0.6-0.2c0.5-0.2,1.2-0.2,1.9-0.2c0.6,0,1,0,1.4,0.1l0,0c-0.5-0.1-1-0.1-1.5-0.1c-0.7,0-1.3,0-2,0.2
				C-20.2,21.9-20.4,22-20.4,22z M-20.5,21.9C-20.5,21.9-20.5,21.9-20.5,21.9L-20.5,21.9C-20.5,21.8-20.6,21.8-20.5,21.9
				c0-0.2,0.4-0.3,0.6-0.4c0.6-0.2,1.2-0.2,2.1-0.2c0,0,0,0,0,0c0.5,0,1.1,0,1.6,0.1c0,0,0,0,0,0c0,0,0,0,0,0l0,0.1c0,0,0,0,0,0
				c-0.5-0.1-1-0.1-1.6-0.1c-0.8,0-1.5,0.1-2,0.2C-20.2,21.7-20.5,21.8-20.5,21.9C-20.5,21.9-20.5,21.9-20.5,21.9
				C-20.5,21.9-20.5,21.9-20.5,21.9z M-20.5,21.8L-20.5,21.8c0.1-0.1,0.6-0.2,0.6-0.2c0.6-0.2,1.2-0.2,2-0.2c0.6,0,1,0,1.6,0.1l0,0
				c-0.5-0.1-1.1-0.1-1.6-0.1c-0.8,0-1.5,0.1-2.1,0.2C-20.3,21.6-20.5,21.7-20.5,21.8z"/>
		</g>
		<g>
			<path class="st5" d="M-15.3,21.9l-0.2,0.3l-0.6-0.6l-1.6-1.1l-1.8-1l-1-0.3l0.2-0.4l0.1,0l0.6,0.2l2,1l1.1,0.7l1,0.7L-15.3,21.9
				L-15.3,21.9z"/>
			<path d="M-15.5,22.2C-15.5,22.2-15.5,22.2-15.5,22.2l-0.6-0.6l-1.6-1.1l-1.8-1l-1-0.3c0,0,0,0,0,0c0,0,0,0,0,0l0.2-0.4
				c0,0,0,0,0,0l0.1,0c0,0,0,0,0,0l0.6,0.1l2,1l1.1,0.7l1,0.7l0.4,0.5c0,0,0,0,0,0l0,0.1c0,0,0,0,0,0L-15.5,22.2
				C-15.5,22.2-15.5,22.2-15.5,22.2C-15.5,22.2-15.5,22.2-15.5,22.2z M-20.6,19.2l0.9,0.3l1.8,1l1.6,1.1l0.6,0.6l0.2-0.3l0-0.1
				l-0.4-0.4l-0.9-0.7l-1.1-0.7l-2-1l-0.6-0.1l-0.1,0L-20.6,19.2z M-15.3,21.9L-15.3,21.9L-15.3,21.9z"/>
		</g>
		<g>
			<path class="st5" d="M-20.6,19.2c0.2-0.1,1.4,0.4,2.7,1.2c1.3,0.8,2.5,1.7,2.4,1.8l0,0.1l0,0c0,0,0,0,0-0.1
				c-0.1-0.2-0.9-0.9-2.4-1.8C-19.4,19.6-20.5,19.1-20.6,19.2L-20.6,19.2L-20.6,19.2L-20.6,19.2z M-15.2,21.9c0.1-0.2-1-1.1-2.5-1.9
				c-1.5-0.8-2.5-1.3-2.7-1.2l0,0.1c0,0,0,0,0,0c0,0,0.1,0,0.1,0c0.3,0,1.3,0.4,2.6,1.2C-17.1,20.3-15.3,21.5-15.2,21.9
				C-15.3,21.9-15.3,21.9-15.2,21.9L-15.2,21.9L-15.2,21.9L-15.2,21.9z"/>
			<path d="M-15.6,22.3C-15.6,22.3-15.6,22.3-15.6,22.3C-15.6,22.3-15.6,22.3-15.6,22.3L-15.6,22.3C-15.6,22.3-15.6,22.3-15.6,22.3
				c-0.1-0.3-1-1-2.4-1.9c-1.5-0.9-2.6-1.3-2.7-1.2c0,0,0,0,0,0c0,0,0,0,0,0l0-0.1c0,0,0,0,0,0c0.2-0.1,1.4,0.4,2.7,1.2
				c1.2,0.7,2.4,1.6,2.4,1.8C-15.5,22.2-15.5,22.2-15.6,22.3L-15.6,22.3C-15.5,22.3-15.5,22.3-15.6,22.3L-15.6,22.3
				C-15.6,22.3-15.6,22.3-15.6,22.3C-15.6,22.3-15.6,22.3-15.6,22.3z M-20.6,19.2c0.3,0,1.4,0.5,2.6,1.2c1.4,0.9,2.3,1.6,2.4,1.8
				c0,0,0,0,0,0.1l0,0c0,0,0,0,0,0c-0.1-0.2-1.3-1.1-2.4-1.8C-19.2,19.7-20.4,19.1-20.6,19.2L-20.6,19.2
				C-20.6,19.2-20.6,19.2-20.6,19.2z M-15.3,21.9C-15.3,21.9-15.3,21.9-15.3,21.9C-15.3,21.9-15.3,21.9-15.3,21.9L-15.3,21.9
				C-15.3,21.9-15.3,21.9-15.3,21.9L-15.3,21.9c0-0.4-1.9-1.6-2.4-1.9c-1.3-0.8-2.3-1.2-2.6-1.2l0,0c0,0-0.1,0-0.1,0c0,0,0,0,0,0
				c0,0,0,0,0,0c0,0,0,0,0,0c0,0,0,0,0,0l0-0.1c0,0,0,0,0,0c0.2-0.2,1.6,0.5,2.7,1.2C-16.4,20.7-15.1,21.6-15.3,21.9
				C-15.2,21.9-15.2,21.9-15.3,21.9L-15.3,21.9C-15.3,21.9-15.3,21.9-15.3,21.9C-15.3,21.9-15.3,21.9-15.3,21.9z M-20.3,18.8
				c0.3,0,1.3,0.4,2.6,1.2c0.4,0.2,2.4,1.5,2.4,1.9l0,0l0,0c0.1-0.2-1-1-2.5-1.9C-19.3,19-20.2,18.6-20.3,18.8l-0.1,0
				C-20.4,18.8-20.3,18.8-20.3,18.8L-20.3,18.8z M-15.2,21.9L-15.2,21.9L-15.2,21.9z"/>
		</g>
	</g>
	<g>
		<g>
			<path class="st6" d="M-19.7,20.8c0,0.5,0.2,0.9,0.5,1.3c0.3,0.3,0.8,0.5,1.2,0.5c0.5,0,0.9-0.2,1.2-0.5c0.3-0.3,0.5-0.8,0.5-1.3
				h0v-2.4l-3.5,0L-19.7,20.8L-19.7,20.8L-19.7,20.8z"/>
			<path d="M-17.9,22.6c-0.5,0-0.9-0.2-1.2-0.5c-0.3-0.3-0.5-0.8-0.5-1.3l0,0l0-2.4l3.5,0l0,2.4c0,0.5-0.2,0.9-0.5,1.3
				C-17,22.4-17.4,22.6-17.9,22.6z M-19.6,20.8L-19.6,20.8c0,0.5,0.2,0.9,0.5,1.3c0.3,0.3,0.8,0.5,1.2,0.5c0.5,0,0.9-0.2,1.2-0.5
				c0.3-0.3,0.5-0.8,0.5-1.2l0,0v-2.4l-3.5,0L-19.6,20.8z"/>
		</g>
		<g>
			<path class="st3" d="M-19.6,20.8L-19.6,20.8c0,0.5,0.2,0.9,0.5,1.2c0.3,0.3,0.7,0.5,1.2,0.5c0.5,0,0.9-0.2,1.2-0.5
				c0.3-0.3,0.5-0.7,0.5-1.2h0v-2.3l-3.4,0L-19.6,20.8 M-16.9,19.2l0,1.5l0,0.2h0c0,0,0,0.1,0,0.1c0,0.2-0.1,0.4-0.3,0.6
				c-0.2,0.2-0.4,0.3-0.7,0.3c-0.3,0-0.5-0.1-0.7-0.3c-0.2-0.2-0.3-0.4-0.3-0.7l0-1.6L-16.9,19.2L-16.9,19.2L-16.9,19.2z"/>
			<path d="M-17.9,22.5c-0.5,0-0.9-0.2-1.2-0.5c-0.3-0.3-0.5-0.8-0.5-1.2l0,0h0l0-2.3l3.4,0l0,2.3c0,0.5-0.2,0.9-0.5,1.2
				C-17,22.3-17.4,22.5-17.9,22.5z M-19.6,20.8L-19.6,20.8c0,0.5,0.2,0.9,0.5,1.2c0.3,0.3,0.7,0.5,1.2,0.5c0.4,0,0.9-0.2,1.2-0.5
				c0.3-0.3,0.5-0.7,0.5-1.2l0,0v-2.3l-3.4,0L-19.6,20.8L-19.6,20.8z M-17.9,21.8c-0.3,0-0.5-0.1-0.7-0.3c-0.2-0.2-0.3-0.5-0.3-0.7
				l0-1.6h0l2,0l0,0l0,0l0,1.5l0,0.2c0,0,0,0.1,0,0.1c0,0.2-0.1,0.4-0.3,0.6C-17.4,21.7-17.6,21.8-17.9,21.8z M-18.9,19.2l0,1.6
				c0,0.3,0.1,0.5,0.3,0.7c0.2,0.2,0.4,0.3,0.7,0.3c0.3,0,0.5-0.1,0.7-0.3c0.2-0.2,0.3-0.4,0.3-0.6c0,0,0-0.1,0-0.1l0-0.2l0-1.5
				L-18.9,19.2z"/>
		</g>
		<g id="castle3">
			<g id="castle">
				<path class="st7" d="M-19.4,19.1c0-0.2,0.1-0.2,0.1-0.2c0,0,0.1,0,0.1,0.2L-19.4,19.1"/>
				<g>
					<path class="st7" d="M-19.5,18.9l0,0.2l0.1,0c0-0.2,0.1-0.2,0.1-0.2c0,0,0.1,0,0.1,0.2h0.1l0-0.2L-19.5,18.9L-19.5,18.9
						L-19.5,18.9z"/>
					<path d="M-19.4,19.1l-0.1,0l0-0.2l0.5,0l0,0.2h-0.1l0,0c0-0.1-0.1-0.2-0.1-0.2C-19.2,18.9-19.4,18.9-19.4,19.1L-19.4,19.1z
						 M-19.1,19.1h0.1l0-0.2l-0.2,0c0,0,0,0,0,0C-19.2,18.9-19.1,19-19.1,19.1z M-19.5,19.1l0.1,0c0-0.1,0-0.1,0.1-0.2c0,0,0,0,0,0
						l-0.2,0L-19.5,19.1z"/>
				</g>
				<g>
					<path class="st7" d="M-19.5,19.1h0.5c0,0,0,0,0,0c0,0,0,0,0,0L-19.5,19.1C-19.5,19.1-19.5,19.1-19.5,19.1
						C-19.5,19.1-19.5,19.1-19.5,19.1z"/>
					<path d="M-19,19.1h-0.5c0,0,0,0,0,0c0,0,0,0,0,0L-19,19.1C-19,19.1-19,19.1-19,19.1C-19,19.1-19,19.1-19,19.1z M-19.5,19.1
						C-19.5,19.1-19.5,19.1-19.5,19.1C-19.5,19.1-19.5,19.1-19.5,19.1l0.5,0c0,0,0,0,0,0c0,0,0,0,0,0H-19.5z"/>
				</g>
				<g>
					<path class="st7" d="M-19.3,19.1c0-0.1,0.1-0.1,0.1-0.1c0,0,0.1,0,0.1,0.1H-19.3"/>
					<path d="M-19.2,19.1h-0.1v0l0,0c0-0.1,0-0.1,0-0.1c0,0,0,0,0,0l0,0C-19.2,18.9-19.2,19-19.2,19.1L-19.2,19.1z M-19.3,19.1h0.1
						c0-0.1-0.1-0.1-0.1-0.1C-19.3,18.9-19.3,19-19.3,19.1z"/>
				</g>
				<g>
					<path class="st7" d="M-19.5,18.8h0.5c0,0,0,0,0,0c0,0,0,0,0,0L-19.5,18.8C-19.5,18.8-19.5,18.8-19.5,18.8
						C-19.5,18.8-19.5,18.8-19.5,18.8z"/>
					<path d="M-19,18.8h-0.5c0,0,0,0,0,0s0,0,0,0L-19,18.8C-19,18.8-19,18.8-19,18.8C-19,18.8-19,18.8-19,18.8z M-19.5,18.8
						C-19.5,18.8-19.5,18.8-19.5,18.8C-19.5,18.8-19.5,18.8-19.5,18.8l0.5,0c0,0,0,0,0,0c0,0,0,0,0,0H-19.5z"/>
				</g>
				<g>
					<path class="st7" d="M-19.5,18.8h0.5c0,0,0,0,0,0c0,0,0,0,0,0L-19.5,18.8C-19.5,18.9-19.5,18.9-19.5,18.8
						C-19.5,18.8-19.5,18.8-19.5,18.8z"/>
					<path d="M-19,18.9h-0.5c0,0,0,0,0,0c0,0,0,0,0,0L-19,18.9C-19,18.8-19,18.8-19,18.9C-19,18.9-19,18.9-19,18.9z M-19.5,18.8
						C-19.5,18.8-19.5,18.8-19.5,18.8C-19.5,18.9-19.5,18.9-19.5,18.8l0.5,0c0,0,0,0,0,0c0,0,0,0,0,0H-19.5z"/>
				</g>
				<g>
					<path class="st7" d="M-19.3,18.5L-19.3,18.5L-19.3,18.5L-19.3,18.5L-19.3,18.5l0.1,0v0h0v0h0l0,0.1c0,0,0,0,0,0L-19.3,18.5
						C-19.3,18.6-19.3,18.6-19.3,18.5L-19.3,18.5L-19.3,18.5L-19.3,18.5z"/>
					<path d="M-19.2,18.6h-0.1c0,0,0,0,0,0l0-0.1l0,0l0,0v0L-19.2,18.6L-19.2,18.6L-19.2,18.6L-19.2,18.6L-19.2,18.6L-19.2,18.6
						L-19.2,18.6L-19.2,18.6C-19.2,18.6-19.2,18.6-19.2,18.6z M-19.3,18.5L-19.3,18.5C-19.3,18.6-19.3,18.6-19.3,18.5l0.1,0.1
						c0,0,0,0,0,0l0-0.1h0v0L-19.3,18.5L-19.3,18.5L-19.3,18.5L-19.3,18.5L-19.3,18.5L-19.3,18.5L-19.3,18.5z"/>
				</g>
				<g>
					<path class="st7" d="M-19.2,18.6l0,0.2l-0.1,0l0-0.2L-19.2,18.6"/>
					<path d="M-19.2,18.8l-0.1,0l0-0.2l0.1,0L-19.2,18.8z M-19.3,18.8l0.1,0l0-0.2l-0.1,0L-19.3,18.8z"/>
				</g>
				<g>
					<path id="cp1_1_" class="st7" d="M-19.3,18.7l0,0.1l-0.1,0l0-0.1L-19.3,18.7L-19.3,18.7L-19.3,18.7z"/>
					<path d="M-19.5,18.8l0-0.1h0.1l0,0.1L-19.5,18.8z M-19.5,18.7L-19.5,18.7l0.1,0.1l0-0.1L-19.5,18.7z"/>
				</g>
				<g>
					<g>
						<path id="cp1_2_" class="st7" d="M-19,18.7l0,0.1l-0.1,0l0-0.1L-19,18.7L-19,18.7L-19,18.7z"/>
						<path d="M-19.2,18.8l0-0.1h0.1l0,0.1L-19.2,18.8z M-19.1,18.7L-19.1,18.7l0.1,0.1l0-0.1L-19.1,18.7z"/>
					</g>
				</g>
				<g>
					<path id="cp2_1_" class="st7" d="M-19.5,18.6L-19.5,18.6L-19.5,18.6L-19.5,18.6L-19.5,18.6L-19.5,18.6L-19.5,18.6l0.1,0v0l0,0
						l0,0.1c0,0,0,0,0,0L-19.5,18.6C-19.5,18.7-19.5,18.7-19.5,18.6L-19.5,18.6L-19.5,18.6L-19.5,18.6z"/>
					<path d="M-19.3,18.7h-0.1c0,0,0,0,0,0l0-0.1l0,0l0,0l0,0v0L-19.3,18.7L-19.3,18.7L-19.3,18.7L-19.3,18.7L-19.3,18.7L-19.3,18.7
						L-19.3,18.7L-19.3,18.7C-19.3,18.7-19.3,18.7-19.3,18.7z M-19.5,18.6L-19.5,18.6C-19.5,18.7-19.5,18.7-19.5,18.6l0.1,0.1
						c0,0,0,0,0,0l0-0.1l0,0v0L-19.5,18.6L-19.5,18.6L-19.5,18.6L-19.5,18.6L-19.5,18.6L-19.5,18.6L-19.5,18.6z"/>
				</g>
				<g>
					<g>
						<path id="cp2_2_" class="st7" d="M-19.2,18.6L-19.2,18.6L-19.2,18.6L-19.2,18.6L-19.2,18.6L-19.2,18.6L-19.2,18.6l0.1,0v0l0,0
							l0,0.1c0,0,0,0,0,0L-19.2,18.6C-19.2,18.7-19.2,18.7-19.2,18.6L-19.2,18.6L-19.2,18.6L-19.2,18.6z"/>
						<path d="M-19,18.7h-0.1c0,0,0,0,0,0l0-0.1l0,0l0,0l0,0v0L-19,18.7L-19,18.7L-19,18.7L-19,18.7L-19,18.7L-19,18.7L-19,18.7
							L-19,18.7C-19,18.7-19,18.7-19,18.7z M-19.2,18.6L-19.2,18.6C-19.2,18.7-19.2,18.7-19.2,18.6l0.1,0.1c0,0,0,0,0,0l0-0.1l0,0v0
							L-19.2,18.6L-19.2,18.6L-19.2,18.6L-19.2,18.6L-19.2,18.6L-19.2,18.6L-19.2,18.6z"/>
					</g>
				</g>
				<path d="M-19.3,18.7C-19.3,18.6-19.2,18.6-19.3,18.7L-19.3,18.7L-19.3,18.7L-19.3,18.7"/>
				<path id="cp3" d="M-19.4,18.7C-19.4,18.7-19.4,18.7-19.4,18.7L-19.4,18.7L-19.4,18.7L-19.4,18.7"/>
				<g>
					<path id="cp3_1_" d="M-19.1,18.7C-19.1,18.7-19.1,18.7-19.1,18.7L-19.1,18.7L-19.1,18.7L-19.1,18.7"/>
				</g>
			</g>
			<g>
				<g id="castle_1_">
					<path class="st7" d="M-19.4,20.5c0-0.2,0.1-0.2,0.1-0.2c0,0,0.1,0,0.1,0.2L-19.4,20.5"/>
					<g>
						<path class="st7" d="M-19.5,20.3l0,0.2l0.1,0c0-0.2,0.1-0.2,0.1-0.2c0,0,0.1,0,0.1,0.2h0.1l0-0.2L-19.5,20.3L-19.5,20.3
							L-19.5,20.3z"/>
						<path d="M-19.4,20.5l-0.1,0l0-0.2l0.5,0l0,0.2h-0.1l0,0c0-0.1-0.1-0.2-0.1-0.2C-19.2,20.3-19.4,20.3-19.4,20.5L-19.4,20.5z
							 M-19.1,20.4h0.1l0-0.2l-0.2,0c0,0,0,0,0,0C-19.2,20.3-19.1,20.4-19.1,20.4z M-19.5,20.4l0.1,0c0-0.1,0-0.1,0.1-0.2
							c0,0,0,0,0,0l-0.2,0L-19.5,20.4z"/>
					</g>
					<g>
						<path class="st7" d="M-19.5,20.5h0.5c0,0,0,0,0,0c0,0,0,0,0,0L-19.5,20.5C-19.5,20.5-19.5,20.5-19.5,20.5
							C-19.5,20.5-19.5,20.5-19.5,20.5z"/>
						<path d="M-19,20.5h-0.5c0,0,0,0,0,0c0,0,0,0,0,0L-19,20.5C-19,20.4-19,20.5-19,20.5C-19,20.5-19,20.5-19,20.5z M-19.5,20.5
							C-19.5,20.5-19.5,20.5-19.5,20.5C-19.5,20.5-19.5,20.5-19.5,20.5l0.5,0c0,0,0,0,0,0c0,0,0,0,0,0H-19.5z"/>
					</g>
					<g>
						<path class="st7" d="M-19.3,20.5c0-0.1,0.1-0.1,0.1-0.1c0,0,0.1,0,0.1,0.1H-19.3"/>
						<path d="M-19.2,20.5h-0.1v0l0,0c0-0.1,0-0.1,0-0.1c0,0,0,0,0,0c0,0,0,0,0,0C-19.2,20.3-19.2,20.3-19.2,20.5L-19.2,20.5z
							 M-19.3,20.4h0.1c0-0.1-0.1-0.1-0.1-0.1C-19.3,20.3-19.3,20.4-19.3,20.4z"/>
					</g>
					<g>
						<path class="st7" d="M-19.5,20.2h0.5c0,0,0,0,0,0c0,0,0,0,0,0L-19.5,20.2C-19.5,20.2-19.5,20.2-19.5,20.2
							C-19.5,20.2-19.5,20.2-19.5,20.2z"/>
						<path d="M-19,20.2h-0.5c0,0,0,0,0,0c0,0,0,0,0,0L-19,20.2C-19,20.2-19,20.2-19,20.2C-19,20.2-19,20.2-19,20.2z M-19.5,20.2
							C-19.5,20.2-19.5,20.2-19.5,20.2C-19.5,20.2-19.5,20.2-19.5,20.2l0.5,0c0,0,0,0,0,0c0,0,0,0,0,0H-19.5z"/>
					</g>
					<g>
						<path class="st7" d="M-19.5,20.2h0.5c0,0,0,0,0,0c0,0,0,0,0,0L-19.5,20.2C-19.5,20.3-19.5,20.3-19.5,20.2
							C-19.5,20.2-19.5,20.2-19.5,20.2z"/>
						<path d="M-19,20.3h-0.5c0,0,0,0,0,0s0,0,0,0L-19,20.3C-19,20.2-19,20.2-19,20.3C-19,20.3-19,20.3-19,20.3z M-19.5,20.2
							C-19.5,20.2-19.5,20.2-19.5,20.2C-19.5,20.3-19.5,20.3-19.5,20.2l0.5,0c0,0,0,0,0,0c0,0,0,0,0,0H-19.5z"/>
					</g>
					<g>
						<path class="st7" d="M-19.3,19.9L-19.3,19.9L-19.3,19.9L-19.3,19.9L-19.3,19.9l0.1,0v0h0v0h0l0,0.1c0,0,0,0,0,0L-19.3,19.9
							C-19.3,20-19.3,20-19.3,19.9L-19.3,19.9L-19.3,19.9L-19.3,19.9z"/>
						<path d="M-19.2,20h-0.1c0,0,0,0,0,0l0-0.1l0,0l0,0v0L-19.2,20L-19.2,20L-19.2,20L-19.2,20L-19.2,20L-19.2,20L-19.2,20
							L-19.2,20C-19.2,20-19.2,20-19.2,20z M-19.3,19.9L-19.3,19.9C-19.3,20-19.3,20-19.3,19.9l0.1,0.1c0,0,0,0,0,0l0-0.1h0v0
							L-19.3,19.9L-19.3,19.9L-19.3,19.9L-19.3,19.9L-19.3,19.9L-19.3,19.9L-19.3,19.9z"/>
					</g>
					<g>
						<path class="st7" d="M-19.2,20l0,0.2l-0.1,0l0-0.2L-19.2,20"/>
						<path d="M-19.2,20.2l-0.1,0l0-0.2l0.1,0L-19.2,20.2z M-19.3,20.2l0.1,0l0-0.2l-0.1,0L-19.3,20.2z"/>
					</g>
					<g>
						<path id="cp1_3_" class="st7" d="M-19.3,20.1l0,0.1l-0.1,0l0-0.1L-19.3,20.1L-19.3,20.1L-19.3,20.1z"/>
						<path d="M-19.5,20.2l0-0.1h0.1l0,0.1L-19.5,20.2z M-19.5,20.1L-19.5,20.1l0.1,0.1l0-0.1L-19.5,20.1z"/>
					</g>
					<g>
						<g>
							<path id="cp1_4_" class="st7" d="M-19,20.1l0,0.1l-0.1,0l0-0.1L-19,20.1L-19,20.1L-19,20.1z"/>
							<path d="M-19.2,20.2l0-0.1h0.1l0,0.1L-19.2,20.2z M-19.1,20.1L-19.1,20.1l0.1,0.1l0-0.1L-19.1,20.1z"/>
						</g>
					</g>
					<g>
						<path id="cp2_3_" class="st7" d="M-19.5,20L-19.5,20L-19.5,20L-19.5,20L-19.5,20L-19.5,20L-19.5,20l0.1,0v0l0,0l0,0.1
							c0,0,0,0,0,0L-19.5,20C-19.5,20.1-19.5,20.1-19.5,20L-19.5,20L-19.5,20L-19.5,20z"/>
						<path d="M-19.3,20.1h-0.1c0,0,0,0,0,0l0-0.1l0,0l0,0l0,0v0L-19.3,20.1L-19.3,20.1L-19.3,20.1L-19.3,20.1L-19.3,20.1
							L-19.3,20.1L-19.3,20.1L-19.3,20.1C-19.3,20.1-19.3,20.1-19.3,20.1z M-19.5,20L-19.5,20C-19.5,20.1-19.5,20.1-19.5,20l0.1,0.1
							c0,0,0,0,0,0l0-0.1l0,0v0L-19.5,20L-19.5,20L-19.5,20L-19.5,20L-19.5,20L-19.5,20L-19.5,20z"/>
					</g>
					<g>
						<g>
							<path id="cp2_4_" class="st7" d="M-19.2,20L-19.2,20L-19.2,20L-19.2,20L-19.2,20L-19.2,20L-19.2,20l0.1,0v0l0,0l0,0.1
								c0,0,0,0,0,0L-19.2,20C-19.2,20.1-19.2,20.1-19.2,20L-19.2,20L-19.2,20L-19.2,20z"/>
							<path d="M-19,20.1h-0.1c0,0,0,0,0,0l0-0.1l0,0l0,0l0,0v0L-19,20.1L-19,20.1L-19,20.1L-19,20.1L-19,20.1L-19,20.1L-19,20.1
								L-19,20.1C-19,20.1-19,20.1-19,20.1z M-19.2,20L-19.2,20C-19.2,20.1-19.2,20.1-19.2,20l0.1,0.1c0,0,0,0,0,0l0-0.1l0,0v0
								L-19.2,20L-19.2,20L-19.2,20L-19.2,20L-19.2,20L-19.2,20L-19.2,20z"/>
						</g>
					</g>
					<path d="M-19.3,20C-19.3,20-19.2,20-19.3,20L-19.3,20L-19.3,20L-19.3,20"/>
					<path id="cp3_2_" d="M-19.4,20.1C-19.4,20.1-19.4,20.1-19.4,20.1L-19.4,20.1L-19.4,20.1L-19.4,20.1"/>
					<g>
						<path id="cp3_3_" d="M-19.1,20.1C-19.1,20.1-19.1,20.1-19.1,20.1L-19.1,20.1L-19.1,20.1L-19.1,20.1"/>
					</g>
				</g>
			</g>
			<g transform="matrix(0.70460892,-0.70959585,0.70959585,0.70460892,-35.341459,275.10898)">
				<g id="castle_2_">
					<path class="st7" d="M-18.8,21.9c-0.1-0.1-0.1-0.2-0.1-0.2c0,0,0.1-0.1,0.2,0.1L-18.8,21.9"/>
					<g>
						<path class="st7" d="M-19,21.8l0.1,0.1l0.1-0.1c-0.1-0.1,0-0.2,0-0.2c0,0,0.1-0.1,0.2,0l0.1-0.1l-0.2-0.1L-19,21.8L-19,21.8
							L-19,21.8z"/>
						<path d="M-18.9,22l-0.1-0.2l0.3-0.3l0.2,0.1l-0.1,0.1l0,0c-0.1-0.1-0.2,0-0.2,0l0,0c0,0-0.1,0.1,0,0.2L-18.9,22L-18.9,22z
							 M-19,21.8l0.1,0.1l0.1-0.1c-0.1-0.1-0.1-0.1-0.1-0.2c0,0,0,0,0,0L-19,21.8z M-18.8,21.7c0,0,0.1,0,0.1,0.1l0.1-0.1l-0.1-0.1
							L-18.8,21.7C-18.9,21.7-18.8,21.7-18.8,21.7C-18.8,21.7-18.8,21.7-18.8,21.7z"/>
					</g>
					<g>
						<path class="st7" d="M-18.9,22l0.4-0.4c0,0,0,0,0,0c0,0,0,0,0,0L-18.9,22C-18.9,22-18.9,22-18.9,22C-18.9,22-18.9,22-18.9,22z
							"/>
						<path d="M-18.9,22C-18.9,22-18.9,22-18.9,22C-18.9,22-18.9,22-18.9,22C-18.9,22-18.9,22-18.9,22l0.3-0.4c0,0,0,0,0,0
							c0,0,0,0,0,0L-18.9,22C-18.9,22-18.9,22-18.9,22C-18.9,22-18.9,22-18.9,22z M-18.6,21.6C-18.6,21.6-18.6,21.6-18.6,21.6
							l-0.4,0.4c0,0,0,0,0,0c0,0,0,0,0,0c0,0,0,0,0,0c0,0,0,0,0,0c0,0,0,0,0,0L-18.6,21.6C-18.5,21.7-18.5,21.6-18.6,21.6
							C-18.6,21.6-18.6,21.6-18.6,21.6z"/>
					</g>
					<g>
						<path class="st7" d="M-18.8,21.9c-0.1-0.1,0-0.1,0-0.1C-18.8,21.7-18.8,21.7-18.8,21.9L-18.8,21.9"/>
						<path d="M-18.8,21.9L-18.8,21.9c0-0.1-0.1-0.1-0.1-0.1c0,0,0,0,0,0l0,0c0,0,0,0,0,0c0,0,0,0,0,0l0,0c0,0,0,0,0,0
							c0,0,0.1,0,0.1,0l0,0L-18.8,21.9z M-18.8,21.7c0,0,0,0.1,0,0.1l0.1-0.1C-18.8,21.7-18.8,21.7-18.8,21.7z"/>
					</g>
					<g>
						<path class="st7" d="M-19.1,21.8l0.3-0.3c0,0,0,0,0,0c0,0,0,0,0,0L-19.1,21.8C-19.1,21.8-19.1,21.8-19.1,21.8
							C-19.1,21.8-19.1,21.8-19.1,21.8z"/>
						<path d="M-19.1,21.8C-19.1,21.8-19.1,21.8-19.1,21.8C-19.1,21.8-19.1,21.8-19.1,21.8l0.3-0.4c0,0,0,0,0,0c0,0,0,0,0,0
							L-19.1,21.8C-19.1,21.8-19.1,21.8-19.1,21.8C-19.1,21.8-19.1,21.8-19.1,21.8z M-19.1,21.8C-19.1,21.8-19.1,21.8-19.1,21.8
							C-19.1,21.8-19.1,21.8-19.1,21.8C-19.1,21.8-19.1,21.8-19.1,21.8C-19.1,21.8-19.1,21.8-19.1,21.8l0.4-0.3c0,0,0,0,0,0
							c0,0,0,0,0,0L-19.1,21.8z"/>
					</g>
					<g>
						<path class="st7" d="M-19.1,21.8l0.3-0.3c0,0,0,0,0,0c0,0,0,0,0,0L-19.1,21.8C-19.1,21.9-19.1,21.9-19.1,21.8
							C-19.1,21.8-19.1,21.8-19.1,21.8z"/>
						<path d="M-19.1,21.9C-19.1,21.9-19.1,21.9-19.1,21.9C-19.1,21.9-19.1,21.9-19.1,21.9C-19.1,21.8-19.1,21.8-19.1,21.9
							C-19.1,21.8-19.1,21.8-19.1,21.9l0.3-0.4c0,0,0,0,0,0c0,0,0,0,0,0L-19.1,21.9C-19,21.9-19.1,21.9-19.1,21.9z M-18.7,21.5
							C-18.7,21.5-18.7,21.5-18.7,21.5l-0.3,0.3c0,0,0,0,0,0c0,0,0,0,0,0c0,0,0,0,0,0c0,0,0,0,0,0L-18.7,21.5
							C-18.7,21.5-18.7,21.5-18.7,21.5C-18.7,21.5-18.7,21.5-18.7,21.5z"/>
					</g>
					<g>
						<path class="st7" d="M-19.2,21.5L-19.2,21.5L-19.2,21.5L-19.2,21.5L-19.2,21.5L-19.2,21.5L-19.2,21.5l0.1-0.1L-19.2,21.5
							l0.1-0.1l0,0c0,0,0,0,0,0L-19.2,21.5C-19.1,21.5-19.1,21.5-19.2,21.5L-19.2,21.5L-19.2,21.5L-19.2,21.5z"/>
						<path d="M-19.1,21.5C-19.2,21.5-19.2,21.5-19.1,21.5L-19.1,21.5L-19.1,21.5L-19.1,21.5L-19.1,21.5L-19.1,21.5L-19.1,21.5
							L-19.1,21.5L-19.1,21.5l0-0.1l0,0l0,0l0,0l0,0l0,0c0,0,0,0,0,0L-19.1,21.5C-19.1,21.5-19.1,21.5-19.1,21.5z M-19.2,21.5
							L-19.2,21.5C-19.1,21.5-19.1,21.5-19.2,21.5l0.1-0.1c0,0,0,0,0,0l0,0L-19.2,21.5l0.1-0.1L-19.2,21.5L-19.2,21.5L-19.2,21.5
							L-19.2,21.5L-19.2,21.5L-19.2,21.5L-19.2,21.5z"/>
					</g>
					<g>
						<path class="st7" d="M-19,21.4l0.1,0.1l-0.1,0.1L-19,21.4L-19,21.4"/>
						<path d="M-19,21.7l-0.1-0.2l0.1-0.1l0.2,0.1L-19,21.7z M-19.1,21.5l0.1,0.1l0.1-0.1L-19.1,21.5L-19.1,21.5z"/>
					</g>
					<g>
						<path id="cp1_5_" class="st7" d="M-19.1,21.6L-19.1,21.6l0,0.2L-19.1,21.6L-19.1,21.6L-19.1,21.6L-19.1,21.6z"/>
						<path d="M-19.1,21.8L-19.1,21.8l0-0.2L-19.1,21.8L-19.1,21.8z M-19.2,21.7L-19.2,21.7l0.1,0L-19.2,21.7L-19.2,21.7z"/>
					</g>
					<g>
						<g>
							<path id="cp1_6_" class="st7" d="M-18.9,21.4L-18.9,21.4l0,0.2L-18.9,21.4L-18.9,21.4L-18.9,21.4L-18.9,21.4z"/>
							<path d="M-18.9,21.6L-18.9,21.6l0-0.2l0,0l0,0L-18.9,21.6L-18.9,21.6z M-18.9,21.5L-18.9,21.5l0.1,0L-18.9,21.5L-18.9,21.5z"
								/>
						</g>
					</g>
					<g>
						<path id="cp2_5_" class="st7" d="M-19.2,21.7L-19.2,21.7L-19.2,21.7L-19.2,21.7L-19.2,21.7L-19.2,21.7L-19.2,21.7l0.1-0.1
							L-19.2,21.7l0.1-0.1l0,0c0,0,0,0,0,0L-19.2,21.7C-19.2,21.7-19.2,21.7-19.2,21.7L-19.2,21.7L-19.2,21.7L-19.2,21.7z"/>
						<path d="M-19.2,21.7C-19.2,21.7-19.2,21.7-19.2,21.7L-19.2,21.7L-19.2,21.7L-19.2,21.7L-19.2,21.7L-19.2,21.7l0-0.1l0,0l0,0
							l0,0l0,0l0,0c0,0,0,0,0,0c0,0,0,0,0,0L-19.2,21.7C-19.2,21.7-19.2,21.7-19.2,21.7z M-19.2,21.7L-19.2,21.7
							C-19.2,21.7-19.2,21.7-19.2,21.7l0.1-0.1c0,0,0,0,0,0c0,0,0,0,0,0l0,0L-19.2,21.7l0.1-0.1L-19.2,21.7L-19.2,21.7L-19.2,21.7
							L-19.2,21.7L-19.2,21.7L-19.2,21.7L-19.2,21.7z"/>
					</g>
					<g>
						<g>
							<path id="cp2_6_" class="st7" d="M-19,21.4L-19,21.4L-19,21.4L-19,21.4L-19,21.4L-19,21.4L-19,21.4l0.1-0.1L-19,21.4l0.1-0.1
								l0,0c0,0,0,0,0,0L-19,21.4C-19,21.5-19,21.5-19,21.4L-19,21.4L-19,21.4L-19,21.4z"/>
							<path d="M-19,21.5C-19,21.5-19,21.5-19,21.5L-19,21.5L-19,21.5L-19,21.5L-19,21.5L-19,21.5L-19,21.5l0-0.1l0,0l0,0l0,0l0,0
								l0,0c0,0,0,0,0,0c0,0,0,0,0,0L-19,21.5C-19,21.5-19,21.5-19,21.5z M-19,21.4L-19,21.4C-19,21.5-19,21.5-19,21.4l0.1-0.1
								c0,0,0,0,0,0c0,0,0,0,0,0l0,0L-19,21.4l0.1-0.1L-19,21.4L-19,21.4L-19,21.4L-19,21.4L-19,21.4L-19,21.4L-19,21.4z"/>
						</g>
					</g>
					<path d="M-19,21.5C-19.1,21.5-19,21.5-19,21.5L-19,21.5L-19,21.5L-19,21.5"/>
					<path id="cp3_4_" d="M-19.1,21.7C-19.1,21.7-19.1,21.7-19.1,21.7L-19.1,21.7L-19.1,21.7L-19.1,21.7"/>
					<g>
						<path id="cp3_5_" d="M-18.9,21.5C-18.9,21.5-18.9,21.4-18.9,21.5L-18.9,21.5L-18.9,21.5L-18.9,21.5"/>
					</g>
				</g>
			</g>
		</g>
		<g>
			<g id="castle_3_">
				<path class="st7" d="M-18,19.1c0-0.2,0.1-0.2,0.1-0.2c0,0,0.1,0,0.1,0.2L-18,19.1"/>
				<g>
					<path class="st7" d="M-18.1,18.9l0,0.2l0.1,0c0-0.2,0.1-0.2,0.1-0.2c0,0,0.1,0,0.1,0.2h0.1l0-0.2L-18.1,18.9L-18.1,18.9
						L-18.1,18.9z"/>
					<path d="M-18,19.1l-0.1,0l0-0.2l0.5,0l0,0.2h-0.1l0,0c0-0.1-0.1-0.2-0.1-0.2C-17.9,18.9-18,18.9-18,19.1L-18,19.1z M-17.8,19.1
						h0.1l0-0.2l-0.2,0c0,0,0,0,0,0C-17.8,18.9-17.8,19-17.8,19.1z M-18.1,19.1l0.1,0c0-0.1,0-0.1,0.1-0.2c0,0,0,0,0,0l-0.2,0
						L-18.1,19.1z"/>
				</g>
				<g>
					<path class="st7" d="M-18.1,19.1h0.5c0,0,0,0,0,0c0,0,0,0,0,0L-18.1,19.1C-18.2,19.1-18.2,19.1-18.1,19.1
						C-18.2,19.1-18.2,19.1-18.1,19.1z"/>
					<path d="M-17.6,19.1h-0.5c0,0,0,0,0,0c0,0,0,0,0,0L-17.6,19.1C-17.6,19.1-17.6,19.1-17.6,19.1C-17.6,19.1-17.6,19.1-17.6,19.1z
						 M-18.1,19.1C-18.1,19.1-18.2,19.1-18.1,19.1C-18.2,19.1-18.1,19.1-18.1,19.1l0.5,0c0,0,0,0,0,0c0,0,0,0,0,0H-18.1z"/>
				</g>
				<g>
					<path class="st7" d="M-18,19.1c0-0.1,0.1-0.1,0.1-0.1c0,0,0.1,0,0.1,0.1H-18"/>
					<path d="M-17.8,19.1H-18l0,0c0-0.1,0-0.1,0-0.1c0,0,0,0,0,0l0,0C-17.9,18.9-17.8,19-17.8,19.1L-17.8,19.1z M-18,19.1h0.1
						c0-0.1-0.1-0.1-0.1-0.1C-17.9,18.9-17.9,19-18,19.1z"/>
				</g>
				<g>
					<path class="st7" d="M-18.1,18.8h0.5c0,0,0,0,0,0c0,0,0,0,0,0L-18.1,18.8C-18.1,18.8-18.2,18.8-18.1,18.8
						C-18.2,18.8-18.1,18.8-18.1,18.8z"/>
					<path d="M-17.6,18.8h-0.5c0,0,0,0,0,0s0,0,0,0L-17.6,18.8C-17.6,18.8-17.6,18.8-17.6,18.8C-17.6,18.8-17.6,18.8-17.6,18.8z
						 M-18.1,18.8C-18.1,18.8-18.1,18.8-18.1,18.8C-18.1,18.8-18.1,18.8-18.1,18.8l0.5,0c0,0,0,0,0,0c0,0,0,0,0,0H-18.1z"/>
				</g>
				<g>
					<path class="st7" d="M-18.1,18.8h0.5c0,0,0,0,0,0c0,0,0,0,0,0L-18.1,18.8C-18.1,18.9-18.1,18.9-18.1,18.8
						C-18.1,18.8-18.1,18.8-18.1,18.8z"/>
					<path d="M-17.7,18.9h-0.5c0,0,0,0,0,0c0,0,0,0,0,0L-17.7,18.9C-17.6,18.8-17.6,18.8-17.7,18.9C-17.6,18.9-17.6,18.9-17.7,18.9z
						 M-18.1,18.8C-18.1,18.8-18.1,18.8-18.1,18.8C-18.1,18.9-18.1,18.9-18.1,18.8l0.5,0c0,0,0,0,0,0c0,0,0,0,0,0H-18.1z"/>
				</g>
				<g>
					<path class="st7" d="M-18,18.5L-18,18.5L-18,18.5L-18,18.5L-18,18.5l0.1,0v0h0v0h0l0,0.1c0,0,0,0,0,0L-18,18.5
						C-18,18.6-18,18.6-18,18.5L-18,18.5L-18,18.5L-18,18.5z"/>
					<path d="M-17.8,18.6H-18c0,0,0,0,0,0l0-0.1l0,0l0,0v0L-17.8,18.6L-17.8,18.6L-17.8,18.6L-17.8,18.6L-17.8,18.6L-17.8,18.6
						L-17.8,18.6L-17.8,18.6C-17.8,18.6-17.8,18.6-17.8,18.6z M-18,18.5L-18,18.5C-18,18.6-18,18.6-18,18.5l0.1,0.1c0,0,0,0,0,0
						l0-0.1h0v0L-18,18.5L-18,18.5L-18,18.5L-18,18.5L-18,18.5L-18,18.5L-18,18.5z"/>
				</g>
				<g>
					<path class="st7" d="M-17.8,18.6l0,0.2l-0.1,0l0-0.2L-17.8,18.6"/>
					<path d="M-17.8,18.8l-0.1,0l0-0.2l0.1,0L-17.8,18.8z M-17.9,18.8l0.1,0l0-0.2l-0.1,0L-17.9,18.8z"/>
				</g>
				<g>
					<path id="cp1_7_" class="st7" d="M-18,18.7l0,0.1l-0.1,0l0-0.1L-18,18.7L-18,18.7L-18,18.7z"/>
					<path d="M-18.1,18.8l0-0.1h0.1l0,0.1L-18.1,18.8z M-18.1,18.7L-18.1,18.7l0.1,0.1l0-0.1L-18.1,18.7z"/>
				</g>
				<g>
					<g>
						<path id="cp1_8_" class="st7" d="M-17.7,18.7l0,0.1l-0.1,0l0-0.1L-17.7,18.7L-17.7,18.7L-17.7,18.7z"/>
						<path d="M-17.8,18.8l0-0.1h0.1l0,0.1L-17.8,18.8z M-17.8,18.7L-17.8,18.7l0.1,0.1l0-0.1L-17.8,18.7z"/>
					</g>
				</g>
				<g>
					<path id="cp2_7_" class="st7" d="M-18.1,18.6L-18.1,18.6L-18.1,18.6L-18.1,18.6L-18.1,18.6L-18.1,18.6L-18.1,18.6l0.1,0v0l0,0
						l0,0.1c0,0,0,0,0,0L-18.1,18.6C-18.1,18.7-18.1,18.7-18.1,18.6L-18.1,18.6L-18.1,18.6L-18.1,18.6z"/>
					<path d="M-18,18.7h-0.1c0,0,0,0,0,0l0-0.1l0,0l0,0l0,0v0L-18,18.7L-18,18.7L-18,18.7L-18,18.7L-18,18.7L-18,18.7L-18,18.7
						L-18,18.7C-18,18.7-18,18.7-18,18.7z M-18.1,18.6L-18.1,18.6C-18.1,18.7-18.1,18.7-18.1,18.6l0.1,0.1c0,0,0,0,0,0l0-0.1l0,0v0
						L-18.1,18.6L-18.1,18.6L-18.1,18.6L-18.1,18.6L-18.1,18.6L-18.1,18.6L-18.1,18.6z"/>
				</g>
				<g>
					<g>
						<path id="cp2_8_" class="st7" d="M-17.8,18.6L-17.8,18.6L-17.8,18.6L-17.8,18.6L-17.8,18.6L-17.8,18.6L-17.8,18.6l0.1,0v0l0,0
							l0,0.1c0,0,0,0,0,0L-17.8,18.6C-17.8,18.7-17.8,18.7-17.8,18.6L-17.8,18.6L-17.8,18.6L-17.8,18.6z"/>
						<path d="M-17.7,18.7h-0.1c0,0,0,0,0,0l0-0.1l0,0l0,0l0,0v0L-17.7,18.7L-17.7,18.7L-17.7,18.7L-17.7,18.7L-17.7,18.7
							L-17.7,18.7L-17.7,18.7L-17.7,18.7C-17.6,18.7-17.7,18.7-17.7,18.7z M-17.8,18.6L-17.8,18.6C-17.8,18.7-17.8,18.7-17.8,18.6
							l0.1,0.1c0,0,0,0,0,0l0-0.1l0,0v0L-17.8,18.6L-17.8,18.6L-17.8,18.6L-17.8,18.6L-17.8,18.6L-17.8,18.6L-17.8,18.6z"/>
					</g>
				</g>
				<path d="M-17.9,18.7C-17.9,18.6-17.9,18.6-17.9,18.7L-17.9,18.7L-17.9,18.7L-17.9,18.7"/>
				<path id="cp3_6_" d="M-18.1,18.7C-18.1,18.7-18,18.7-18.1,18.7L-18.1,18.7L-18.1,18.7L-18.1,18.7"/>
				<g>
					<path id="cp3_7_" d="M-17.7,18.7C-17.7,18.7-17.7,18.7-17.7,18.7L-17.7,18.7L-17.7,18.7L-17.7,18.7"/>
				</g>
			</g>
		</g>
		<g transform="matrix(-1,0,0,1,479.79195,0)">
			<g id="castle3_1_">
				<g id="castle_4_">
					<path class="st7" d="M-16.4,19.1c0-0.2-0.1-0.2-0.1-0.2c0,0-0.1,0-0.1,0.2L-16.4,19.1"/>
					<g>
						<path class="st7" d="M-16.3,18.9l0,0.2l-0.1,0c0-0.2-0.1-0.2-0.1-0.2c0,0-0.1,0-0.1,0.2h-0.1l0-0.2L-16.3,18.9L-16.3,18.9
							L-16.3,18.9z"/>
						<path d="M-16.4,19.1L-16.4,19.1c0-0.2-0.1-0.2-0.1-0.2c0,0-0.1,0-0.1,0.2l0,0h-0.1l0-0.2l0.5,0v0l0,0.2L-16.4,19.1z
							 M-16.8,19.1h0.1c0-0.1,0-0.1,0.1-0.1c0,0,0,0,0,0l-0.2,0L-16.8,19.1z M-16.5,18.9C-16.5,18.9-16.5,18.9-16.5,18.9
							c0.1,0,0.1,0.1,0.1,0.2l0.1,0l0-0.2L-16.5,18.9z"/>
					</g>
					<g>
						<path class="st7" d="M-16.3,19.1h-0.5c0,0,0,0,0,0c0,0,0,0,0,0L-16.3,19.1C-16.3,19.1-16.3,19.1-16.3,19.1
							C-16.3,19.1-16.3,19.1-16.3,19.1z"/>
						<path d="M-16.3,19.1h-0.5c0,0,0,0,0,0c0,0,0,0,0,0L-16.3,19.1C-16.3,19.1-16.3,19.1-16.3,19.1C-16.3,19.1-16.3,19.1-16.3,19.1
							z M-16.8,19.1C-16.8,19.1-16.8,19.1-16.8,19.1C-16.8,19.1-16.8,19.1-16.8,19.1l0.5,0c0,0,0,0,0,0c0,0,0,0,0,0H-16.8z"/>
					</g>
					<g>
						<path class="st7" d="M-16.5,19.1c0-0.1-0.1-0.1-0.1-0.1c0,0-0.1,0-0.1,0.1H-16.5"/>
						<path d="M-16.5,19.1h-0.2l0,0c0-0.1,0.1-0.1,0.1-0.1c0,0,0,0,0,0C-16.5,19-16.5,19-16.5,19.1L-16.5,19.1z M-16.6,19.1h0.1
							c0-0.1,0-0.1-0.1-0.1C-16.6,18.9-16.6,19-16.6,19.1z"/>
					</g>
					<g>
						<path class="st7" d="M-16.3,18.8h-0.5c0,0,0,0,0,0c0,0,0,0,0,0L-16.3,18.8C-16.3,18.8-16.3,18.8-16.3,18.8
							C-16.3,18.8-16.3,18.8-16.3,18.8z"/>
						<path d="M-16.3,18.8h-0.5c0,0,0,0,0,0s0,0,0,0L-16.3,18.8C-16.3,18.8-16.3,18.8-16.3,18.8C-16.3,18.8-16.3,18.8-16.3,18.8z
							 M-16.8,18.8C-16.8,18.8-16.8,18.8-16.8,18.8C-16.8,18.8-16.8,18.8-16.8,18.8l0.5,0c0,0,0,0,0,0c0,0,0,0,0,0H-16.8z"/>
					</g>
					<g>
						<path class="st7" d="M-16.3,18.8h-0.5c0,0,0,0,0,0c0,0,0,0,0,0L-16.3,18.8C-16.3,18.9-16.3,18.9-16.3,18.8
							C-16.3,18.8-16.3,18.8-16.3,18.8z"/>
						<path d="M-16.3,18.9h-0.5c0,0,0,0,0,0c0,0,0,0,0,0L-16.3,18.9C-16.3,18.8-16.3,18.8-16.3,18.9C-16.3,18.9-16.3,18.9-16.3,18.9
							z M-16.8,18.8C-16.8,18.8-16.8,18.8-16.8,18.8C-16.8,18.9-16.8,18.9-16.8,18.8l0.5,0c0,0,0,0,0,0c0,0,0,0,0,0H-16.8z"/>
					</g>
					<g>
						<path class="st7" d="M-16.5,18.5L-16.5,18.5L-16.5,18.5L-16.5,18.5L-16.5,18.5l-0.1,0v0h0v0h0l0,0.1c0,0,0,0,0,0L-16.5,18.5
							C-16.5,18.6-16.5,18.6-16.5,18.5L-16.5,18.5L-16.5,18.5L-16.5,18.5z"/>
						<path d="M-16.5,18.6h-0.1c0,0,0,0,0,0l0-0.1h0.1v0L-16.5,18.6L-16.5,18.6L-16.5,18.6L-16.5,18.6L-16.5,18.6L-16.5,18.6
							L-16.5,18.6L-16.5,18.6L-16.5,18.6C-16.5,18.6-16.5,18.6-16.5,18.6z M-16.6,18.5L-16.6,18.5C-16.6,18.6-16.6,18.6-16.6,18.5
							l0.1,0.1c0,0,0,0,0,0l0-0.1l0,0v0L-16.6,18.5L-16.6,18.5L-16.6,18.5L-16.6,18.5L-16.6,18.5L-16.6,18.5L-16.6,18.5z"/>
					</g>
					<g>
						<path class="st7" d="M-16.6,18.6l0,0.2l0.1,0l0-0.2L-16.6,18.6"/>
						<path d="M-16.6,18.8l0-0.2l0.1,0l0,0.2L-16.6,18.8z M-16.6,18.6l0,0.2l0.1,0L-16.6,18.6L-16.6,18.6z"/>
					</g>
					<g>
						<path id="cp1_9_" class="st7" d="M-16.4,18.7l0,0.1l0.1,0l0-0.1L-16.4,18.7L-16.4,18.7L-16.4,18.7z"/>
						<path d="M-16.3,18.8l-0.1,0l0-0.1l0.1,0L-16.3,18.8z M-16.4,18.8l0.1,0l0-0.1L-16.4,18.8L-16.4,18.8z"/>
					</g>
					<g>
						<g>
							<path id="cp1_10_" class="st7" d="M-16.8,18.7l0,0.1l0.1,0l0-0.1L-16.8,18.7L-16.8,18.7L-16.8,18.7z"/>
							<path d="M-16.6,18.8l-0.1,0l0-0.1l0.1,0L-16.6,18.8z M-16.8,18.8l0.1,0l0-0.1L-16.8,18.8L-16.8,18.8z"/>
						</g>
					</g>
					<g>
						<path id="cp2_9_" class="st7" d="M-16.3,18.6L-16.3,18.6L-16.3,18.6L-16.3,18.6L-16.3,18.6L-16.3,18.6L-16.3,18.6l-0.1,0v0
							l0,0l0,0.1c0,0,0,0,0,0L-16.3,18.6C-16.3,18.7-16.3,18.7-16.3,18.6L-16.3,18.6L-16.3,18.6L-16.3,18.6z"/>
						<path d="M-16.3,18.7h-0.1c0,0,0,0,0,0l0-0.1l0.1,0v0L-16.3,18.7L-16.3,18.7L-16.3,18.7L-16.3,18.7L-16.3,18.7L-16.3,18.7
							L-16.3,18.7L-16.3,18.7L-16.3,18.7C-16.3,18.7-16.3,18.7-16.3,18.7z M-16.5,18.6L-16.5,18.6C-16.5,18.7-16.5,18.7-16.5,18.6
							l0.1,0.1c0,0,0,0,0,0l0-0.1l0,0v0L-16.5,18.6L-16.5,18.6L-16.5,18.6L-16.5,18.6L-16.5,18.6L-16.5,18.6L-16.5,18.6z"/>
					</g>
					<g>
						<g>
							<path id="cp2_10_" class="st7" d="M-16.6,18.6L-16.6,18.6L-16.6,18.6L-16.6,18.6L-16.6,18.6L-16.6,18.6L-16.6,18.6l-0.1,0v0
								l0,0l0,0.1c0,0,0,0,0,0L-16.6,18.6C-16.6,18.7-16.6,18.7-16.6,18.6L-16.6,18.6L-16.6,18.6L-16.6,18.6z"/>
							<path d="M-16.6,18.7h-0.1c0,0,0,0,0,0l0-0.1l0.1,0v0L-16.6,18.7L-16.6,18.7L-16.6,18.7L-16.6,18.7L-16.6,18.7L-16.6,18.7
								L-16.6,18.7L-16.6,18.7L-16.6,18.7C-16.6,18.7-16.6,18.7-16.6,18.7z M-16.8,18.6L-16.8,18.6C-16.8,18.7-16.8,18.7-16.8,18.6
								l0.1,0.1c0,0,0,0,0,0l0-0.1l0,0v0L-16.8,18.6L-16.8,18.6L-16.8,18.6L-16.8,18.6L-16.8,18.6L-16.8,18.6L-16.8,18.6z"/>
						</g>
					</g>
					<path d="M-16.5,18.7C-16.5,18.6-16.6,18.6-16.5,18.7L-16.5,18.7L-16.5,18.7L-16.5,18.7"/>
					<path id="cp3_8_" d="M-16.4,18.7C-16.4,18.7-16.4,18.7-16.4,18.7L-16.4,18.7L-16.4,18.7L-16.4,18.7"/>
					<g>
						<path id="cp3_9_" d="M-16.7,18.7C-16.7,18.7-16.7,18.7-16.7,18.7L-16.7,18.7L-16.7,18.7L-16.7,18.7"/>
					</g>
				</g>
				<g>
					<g id="castle_5_">
						<path class="st7" d="M-16.4,20.5c0-0.2-0.1-0.2-0.1-0.2c0,0-0.1,0-0.1,0.2L-16.4,20.5"/>
						<g>
							<path class="st7" d="M-16.3,20.3l0,0.2l-0.1,0c0-0.2-0.1-0.2-0.1-0.2c0,0-0.1,0-0.1,0.2h-0.1l0-0.2L-16.3,20.3L-16.3,20.3
								L-16.3,20.3z"/>
							<path d="M-16.4,20.5L-16.4,20.5c0-0.2-0.1-0.2-0.1-0.2c0,0-0.1,0-0.1,0.2l0,0h-0.1l0-0.2l0.5,0v0l0,0.2L-16.4,20.5z
								 M-16.8,20.4h0.1c0-0.1,0-0.1,0.1-0.1c0,0,0,0,0,0l-0.2,0L-16.8,20.4z M-16.5,20.3C-16.5,20.3-16.5,20.3-16.5,20.3
								c0.1,0,0.1,0.1,0.1,0.2l0.1,0l0-0.2L-16.5,20.3z"/>
						</g>
						<g>
							<path class="st7" d="M-16.3,20.5h-0.5c0,0,0,0,0,0c0,0,0,0,0,0L-16.3,20.5C-16.3,20.5-16.3,20.5-16.3,20.5
								C-16.3,20.5-16.3,20.5-16.3,20.5z"/>
							<path d="M-16.3,20.5h-0.5c0,0,0,0,0,0c0,0,0,0,0,0L-16.3,20.5C-16.3,20.4-16.3,20.5-16.3,20.5
								C-16.3,20.5-16.3,20.5-16.3,20.5z M-16.8,20.5C-16.8,20.5-16.8,20.5-16.8,20.5C-16.8,20.5-16.8,20.5-16.8,20.5l0.5,0
								c0,0,0,0,0,0c0,0,0,0,0,0H-16.8z"/>
						</g>
						<g>
							<path class="st7" d="M-16.5,20.5c0-0.1-0.1-0.1-0.1-0.1c0,0-0.1,0-0.1,0.1H-16.5"/>
							<path d="M-16.5,20.5h-0.2l0,0c0-0.1,0.1-0.1,0.1-0.1c0,0,0,0,0,0C-16.5,20.3-16.5,20.4-16.5,20.5L-16.5,20.5z M-16.6,20.4
								h0.1c0-0.1,0-0.1-0.1-0.1C-16.5,20.3-16.6,20.4-16.6,20.4z"/>
						</g>
						<g>
							<path class="st7" d="M-16.3,20.2h-0.5c0,0,0,0,0,0c0,0,0,0,0,0L-16.3,20.2C-16.3,20.2-16.3,20.2-16.3,20.2
								C-16.3,20.2-16.3,20.2-16.3,20.2z"/>
							<path d="M-16.3,20.2h-0.5c0,0,0,0,0,0c0,0,0,0,0,0L-16.3,20.2C-16.3,20.2-16.3,20.2-16.3,20.2
								C-16.3,20.2-16.3,20.2-16.3,20.2z M-16.8,20.2C-16.8,20.2-16.8,20.2-16.8,20.2C-16.8,20.2-16.8,20.2-16.8,20.2l0.5,0
								c0,0,0,0,0,0c0,0,0,0,0,0H-16.8z"/>
						</g>
						<g>
							<path class="st7" d="M-16.3,20.2h-0.5c0,0,0,0,0,0c0,0,0,0,0,0L-16.3,20.2C-16.3,20.3-16.3,20.3-16.3,20.2
								C-16.3,20.2-16.3,20.2-16.3,20.2z"/>
							<path d="M-16.3,20.3h-0.5c0,0,0,0,0,0s0,0,0,0L-16.3,20.3C-16.3,20.2-16.3,20.2-16.3,20.3C-16.3,20.3-16.3,20.3-16.3,20.3z
								 M-16.8,20.2C-16.8,20.2-16.8,20.2-16.8,20.2C-16.8,20.3-16.8,20.3-16.8,20.2l0.5,0c0,0,0,0,0,0c0,0,0,0,0,0H-16.8z"/>
						</g>
						<g>
							<path class="st7" d="M-16.5,19.9L-16.5,19.9L-16.5,19.9L-16.5,19.9L-16.5,19.9l-0.1,0v0h0v0h0l0,0.1c0,0,0,0,0,0L-16.5,19.9
								C-16.5,20-16.5,20-16.5,19.9L-16.5,19.9L-16.5,19.9L-16.5,19.9z"/>
							<path d="M-16.5,20h-0.1c0,0,0,0,0,0l0-0.1h0.1v0L-16.5,20L-16.5,20L-16.5,20L-16.5,20L-16.5,20L-16.5,20L-16.5,20L-16.5,20
								L-16.5,20C-16.5,20-16.5,20-16.5,20z M-16.6,19.9L-16.6,19.9C-16.6,20-16.6,20-16.6,19.9l0.1,0.1c0,0,0,0,0,0l0-0.1l0,0v0
								L-16.6,19.9L-16.6,19.9L-16.6,19.9L-16.6,19.9L-16.6,19.9L-16.6,19.9L-16.6,19.9z"/>
						</g>
						<g>
							<path class="st7" d="M-16.6,20l0,0.2l0.1,0l0-0.2L-16.6,20"/>
							<path d="M-16.6,20.2l0-0.2l0.1,0l0,0.2L-16.6,20.2z M-16.6,20l0,0.2l0.1,0L-16.6,20L-16.6,20z"/>
						</g>
						<g>
							<path id="cp1_11_" class="st7" d="M-16.4,20.1l0,0.1l0.1,0l0-0.1L-16.4,20.1L-16.4,20.1L-16.4,20.1z"/>
							<path d="M-16.3,20.2l-0.1,0l0-0.1l0.1,0L-16.3,20.2z M-16.4,20.2l0.1,0l0-0.1L-16.4,20.2L-16.4,20.2z"/>
						</g>
						<g>
							<g>
								<path id="cp1_12_" class="st7" d="M-16.8,20.1l0,0.1l0.1,0l0-0.1L-16.8,20.1L-16.8,20.1L-16.8,20.1z"/>
								<path d="M-16.6,20.2l-0.1,0l0-0.1l0.1,0L-16.6,20.2z M-16.8,20.2l0.1,0l0-0.1L-16.8,20.2L-16.8,20.2z"/>
							</g>
						</g>
						<g>
							<path id="cp2_11_" class="st7" d="M-16.3,20L-16.3,20L-16.3,20L-16.3,20L-16.3,20L-16.3,20L-16.3,20l-0.1,0v0l0,0l0,0.1
								c0,0,0,0,0,0L-16.3,20C-16.3,20.1-16.3,20.1-16.3,20L-16.3,20L-16.3,20L-16.3,20z"/>
							<path d="M-16.3,20.1h-0.1c0,0,0,0,0,0l0-0.1l0.1,0v0L-16.3,20.1L-16.3,20.1L-16.3,20.1L-16.3,20.1L-16.3,20.1L-16.3,20.1
								L-16.3,20.1L-16.3,20.1L-16.3,20.1C-16.3,20.1-16.3,20.1-16.3,20.1z M-16.5,20L-16.5,20C-16.5,20.1-16.5,20.1-16.5,20
								l0.1,0.1c0,0,0,0,0,0l0-0.1l0,0v0L-16.5,20L-16.5,20L-16.5,20L-16.5,20L-16.5,20L-16.5,20L-16.5,20z"/>
						</g>
						<g>
							<g>
								<path id="cp2_12_" class="st7" d="M-16.6,20L-16.6,20L-16.6,20L-16.6,20L-16.6,20L-16.6,20L-16.6,20l-0.1,0v0l0,0l0,0.1
									c0,0,0,0,0,0L-16.6,20C-16.6,20.1-16.6,20.1-16.6,20L-16.6,20L-16.6,20L-16.6,20z"/>
								<path d="M-16.6,20.1h-0.1c0,0,0,0,0,0l0-0.1l0.1,0v0L-16.6,20.1L-16.6,20.1L-16.6,20.1L-16.6,20.1L-16.6,20.1L-16.6,20.1
									L-16.6,20.1L-16.6,20.1L-16.6,20.1C-16.6,20.1-16.6,20.1-16.6,20.1z M-16.8,20L-16.8,20C-16.8,20.1-16.8,20.1-16.8,20
									l0.1,0.1c0,0,0,0,0,0l0-0.1l0,0v0L-16.8,20L-16.8,20L-16.8,20L-16.8,20L-16.8,20L-16.8,20L-16.8,20z"/>
							</g>
						</g>
						<path d="M-16.5,20C-16.5,20-16.6,20-16.5,20L-16.5,20L-16.5,20L-16.5,20"/>
						<path id="cp3_10_" d="M-16.4,20.1C-16.4,20.1-16.4,20.1-16.4,20.1L-16.4,20.1L-16.4,20.1L-16.4,20.1"/>
						<g>
							<path id="cp3_11_" d="M-16.7,20.1C-16.7,20.1-16.7,20.1-16.7,20.1L-16.7,20.1L-16.7,20.1L-16.7,20.1"/>
						</g>
					</g>
				</g>
				<g transform="matrix(0.70460892,-0.70959585,0.70959585,0.70460892,-35.341459,275.10898)">
					<g id="castle_6_">
						<path class="st7" d="M-17,21.9c0.1-0.1,0.1-0.2,0.1-0.2c0,0-0.1-0.1-0.2,0.1L-17,21.9"/>
						<g>
							<path class="st7" d="M-16.7,21.8l-0.1,0.1l-0.1-0.1c0.1-0.1,0-0.2,0-0.2c0,0-0.1-0.1-0.2,0l-0.1-0.1l0.2-0.1L-16.7,21.8
								L-16.7,21.8L-16.7,21.8z"/>
							<path d="M-16.9,22L-16.9,22l-0.1-0.1c0.1-0.1,0-0.2,0-0.2l0,0c0,0-0.1-0.1-0.2,0l0,0l-0.1-0.1l0.2-0.1l0.3,0.3l0,0L-16.9,22z
								 M-16.9,21.9L-16.9,21.9l0.2-0.1l-0.1-0.1c0,0,0,0,0,0C-16.9,21.8-16.9,21.8-16.9,21.9z M-17.2,21.6L-17.2,21.6
								c0.1,0,0.2,0,0.2,0c0,0,0,0,0.1,0l-0.1-0.1L-17.2,21.6z"/>
						</g>
						<g>
							<path class="st7" d="M-16.9,22l-0.4-0.4c0,0,0,0,0,0c0,0,0,0,0,0L-16.9,22C-16.9,22-16.9,22-16.9,22
								C-16.9,22-16.8,22-16.9,22z"/>
							<path d="M-16.9,22C-16.9,22-16.9,22-16.9,22C-16.9,22-16.9,22-16.9,22l-0.4-0.4c0,0,0,0,0,0c0,0,0,0,0,0L-16.9,22
								C-16.8,22-16.8,22-16.9,22C-16.8,22-16.8,22-16.9,22C-16.9,22-16.9,22-16.9,22z M-17.2,21.6C-17.2,21.6-17.2,21.6-17.2,21.6
								C-17.2,21.6-17.2,21.7-17.2,21.6l0.3,0.4c0,0,0,0,0,0c0,0,0,0,0,0c0,0,0,0,0,0c0,0,0,0,0,0c0,0,0,0,0,0v0L-17.2,21.6
								C-17.2,21.6-17.2,21.6-17.2,21.6z"/>
						</g>
						<g>
							<path class="st7" d="M-17,21.9c0.1-0.1,0-0.1,0-0.1C-16.9,21.7-17,21.7-17,21.9L-17,21.9"/>
							<path d="M-17,21.9l-0.1-0.1l0,0c0.1-0.1,0.1,0,0.1,0c0,0,0,0,0,0C-16.9,21.8-16.9,21.8-17,21.9L-17,21.9z M-17.1,21.8
								L-17.1,21.8c0.1,0,0.1,0,0.1,0C-17,21.7-17,21.7-17.1,21.8z"/>
						</g>
						<g>
							<path class="st7" d="M-16.7,21.8l-0.3-0.3c0,0,0,0,0,0c0,0,0,0,0,0L-16.7,21.8C-16.7,21.8-16.7,21.8-16.7,21.8
								C-16.7,21.8-16.7,21.8-16.7,21.8z"/>
							<path d="M-16.7,21.8C-16.7,21.8-16.7,21.8-16.7,21.8C-16.7,21.8-16.7,21.8-16.7,21.8l-0.4-0.4c0,0,0,0,0,0c0,0,0,0,0,0
								L-16.7,21.8C-16.7,21.8-16.7,21.8-16.7,21.8C-16.7,21.8-16.7,21.8-16.7,21.8z M-17,21.5C-17,21.5-17,21.5-17,21.5
								C-17,21.5-17,21.5-17,21.5l0.3,0.4c0,0,0,0,0,0c0,0,0,0,0,0c0,0,0,0,0,0c0,0,0,0,0,0L-17,21.5C-17,21.5-17,21.5-17,21.5z"/>
						</g>
						<g>
							<path class="st7" d="M-16.7,21.8l-0.3-0.3c0,0,0,0,0,0c0,0,0,0,0,0L-16.7,21.8C-16.7,21.9-16.7,21.9-16.7,21.8
								C-16.7,21.8-16.7,21.8-16.7,21.8z"/>
							<path d="M-16.7,21.9C-16.7,21.9-16.7,21.9-16.7,21.9l-0.3-0.3c0,0,0,0,0,0c0,0,0,0,0,0c0,0,0,0,0,0c0,0,0,0,0,0L-16.7,21.9
								C-16.7,21.8-16.7,21.8-16.7,21.9C-16.7,21.8-16.7,21.8-16.7,21.9C-16.7,21.9-16.7,21.9-16.7,21.9z M-17,21.5
								C-17,21.5-17,21.5-17,21.5C-17.1,21.5-17.1,21.5-17,21.5C-17.1,21.5-17.1,21.5-17,21.5C-17.1,21.5-17.1,21.5-17,21.5l0.3,0.4
								c0,0,0,0,0,0c0,0,0,0,0,0c0,0,0,0,0,0v0L-17,21.5C-17,21.5-17,21.5-17,21.5z"/>
						</g>
						<g>
							<path class="st7" d="M-16.6,21.5L-16.6,21.5L-16.6,21.5L-16.6,21.5L-16.6,21.5L-16.6,21.5L-16.6,21.5l-0.1-0.1L-16.6,21.5
								l-0.1-0.1l0,0c0,0,0,0,0,0L-16.6,21.5C-16.7,21.5-16.6,21.5-16.6,21.5L-16.6,21.5L-16.6,21.5L-16.6,21.5z"/>
							<path d="M-16.6,21.5C-16.7,21.5-16.7,21.5-16.6,21.5l-0.1-0.1c0,0,0,0,0,0l0,0l0,0l0,0l0,0l0,0L-16.6,21.5L-16.6,21.5
								L-16.6,21.5L-16.6,21.5L-16.6,21.5L-16.6,21.5L-16.6,21.5C-16.6,21.5-16.6,21.5-16.6,21.5z M-16.7,21.4L-16.7,21.4
								C-16.7,21.4-16.7,21.4-16.7,21.4l0.1,0.1c0,0,0,0,0,0l0,0L-16.7,21.4l0.1,0.1L-16.7,21.4L-16.7,21.4L-16.7,21.4L-16.7,21.4
								L-16.7,21.4L-16.7,21.4L-16.7,21.4z"/>
						</g>
						<g>
							<path class="st7" d="M-16.7,21.4l-0.1,0.1l0.1,0.1L-16.7,21.4L-16.7,21.4"/>
							<path d="M-16.8,21.7l-0.1-0.1l0.2-0.1l0.1,0.1L-16.8,21.7z M-16.9,21.6L-16.9,21.6l0.2-0.1l-0.1-0.1L-16.9,21.6z"/>
						</g>
						<g>
							<path id="cp1_13_" class="st7" d="M-16.7,21.6L-16.7,21.6l0,0.2L-16.7,21.6L-16.7,21.6L-16.7,21.6L-16.7,21.6z"/>
							<path d="M-16.7,21.8L-16.7,21.8l0-0.2L-16.7,21.8L-16.7,21.8z M-16.8,21.7L-16.8,21.7l0.1,0L-16.8,21.7L-16.8,21.7z"/>
						</g>
						<g>
							<g>
								<path id="cp1_14_" class="st7" d="M-16.9,21.4L-16.9,21.4l0,0.2L-16.9,21.4L-16.9,21.4L-16.9,21.4L-16.9,21.4z"/>
								<path d="M-16.9,21.6L-16.9,21.6l0-0.2L-16.9,21.6L-16.9,21.6z M-17,21.5L-17,21.5l0.1,0L-17,21.5L-17,21.5z"/>
							</g>
						</g>
						<g>
							<path id="cp2_13_" class="st7" d="M-16.5,21.7L-16.5,21.7L-16.5,21.7L-16.5,21.7L-16.5,21.7L-16.5,21.7L-16.5,21.7l-0.1-0.1
								L-16.5,21.7l-0.1-0.1l0,0c0,0,0,0,0,0L-16.5,21.7C-16.6,21.7-16.6,21.7-16.5,21.7L-16.5,21.7L-16.5,21.7L-16.5,21.7z"/>
							<path d="M-16.6,21.7C-16.6,21.7-16.6,21.7-16.6,21.7l-0.1-0.1c0,0,0,0,0,0c0,0,0,0,0,0l0,0l0,0l0,0l0,0l0,0L-16.6,21.7
								L-16.6,21.7L-16.6,21.7L-16.6,21.7L-16.6,21.7L-16.6,21.7C-16.6,21.7-16.6,21.7-16.6,21.7z M-16.7,21.6L-16.7,21.6
								C-16.7,21.6-16.7,21.6-16.7,21.6C-16.7,21.6-16.7,21.6-16.7,21.6l0.1,0.1c0,0,0,0,0,0l0,0L-16.7,21.6l0.1,0.1L-16.7,21.6
								L-16.7,21.6L-16.7,21.6L-16.7,21.6L-16.7,21.6L-16.7,21.6L-16.7,21.6z"/>
						</g>
						<g>
							<g>
								<path id="cp2_14_" class="st7" d="M-16.8,21.4L-16.8,21.4L-16.8,21.4L-16.8,21.4L-16.8,21.4L-16.8,21.4L-16.8,21.4l-0.1-0.1
									L-16.8,21.4l-0.1-0.1l0,0c0,0,0,0,0,0L-16.8,21.4C-16.8,21.5-16.8,21.5-16.8,21.4L-16.8,21.4L-16.8,21.4L-16.8,21.4z"/>
								<path d="M-16.8,21.5C-16.8,21.5-16.8,21.5-16.8,21.5l-0.1-0.1c0,0,0,0,0,0l0,0l0,0l0,0l0,0l0,0L-16.8,21.5L-16.8,21.5
									L-16.8,21.5L-16.8,21.5L-16.8,21.5L-16.8,21.5L-16.8,21.5C-16.8,21.5-16.8,21.5-16.8,21.5z M-16.9,21.3L-16.9,21.3
									C-16.9,21.4-16.9,21.4-16.9,21.3l0.1,0.1c0,0,0,0,0,0l0,0L-16.9,21.3l0.1,0.1L-16.9,21.3L-16.9,21.3L-16.9,21.3L-16.9,21.3
									L-16.9,21.3L-16.9,21.3L-16.9,21.3z"/>
							</g>
						</g>
						<path d="M-16.7,21.5C-16.7,21.5-16.7,21.5-16.7,21.5L-16.7,21.5L-16.7,21.5L-16.7,21.5"/>
						<path id="cp3_12_" d="M-16.7,21.7C-16.7,21.7-16.7,21.7-16.7,21.7L-16.7,21.7L-16.7,21.7L-16.7,21.7"/>
						<g>
							<path id="cp3_13_" d="M-16.9,21.5C-16.9,21.5-16.9,21.4-16.9,21.5L-16.9,21.5L-16.9,21.5L-16.9,21.5"/>
						</g>
					</g>
				</g>
			</g>
		</g>
		<g id="quina">
			<path class="st8" d="M-18.1,20.5L-18.1,20.5c0,0.1,0,0.1,0.1,0.2c0,0,0.1,0.1,0.2,0.1c0.1,0,0.1,0,0.2-0.1c0,0,0.1-0.1,0.1-0.2
				v-0.3l-0.4,0L-18.1,20.5"/>
			<circle class="st6" cx="-18" cy="20.3" r="0"/>
			<circle class="st6" cx="-17.8" cy="20.3" r="0"/>
			<circle class="st6" cx="-17.9" cy="20.4" r="0"/>
			<circle class="st6" cx="-18" cy="20.6" r="0"/>
			<circle class="st6" cx="-17.8" cy="20.6" r="0"/>
		</g>
		<g>
			<g id="quina_1_">
				<path class="st8" d="M-18.1,19.7L-18.1,19.7c0,0.1,0,0.1,0.1,0.2c0,0,0.1,0.1,0.2,0.1c0.1,0,0.1,0,0.2-0.1c0,0,0.1-0.1,0.1-0.2
					v-0.3l-0.4,0L-18.1,19.7"/>
				<circle class="st6" cx="-18" cy="19.5" r="0"/>
				<circle class="st6" cx="-17.8" cy="19.5" r="0"/>
				<circle class="st6" cx="-17.9" cy="19.7" r="0"/>
				<circle class="st6" cx="-18" cy="19.8" r="0"/>
				<circle class="st6" cx="-17.8" cy="19.8" r="0"/>
			</g>
		</g>
		<g>
			<g id="quina_2_">
				<path class="st8" d="M-18.7,20.5L-18.7,20.5c0,0.1,0,0.1,0.1,0.2c0,0,0.1,0.1,0.2,0.1c0.1,0,0.1,0,0.2-0.1c0,0,0.1-0.1,0.1-0.2
					v-0.3l-0.4,0L-18.7,20.5"/>
				<circle class="st6" cx="-18.6" cy="20.3" r="0"/>
				<circle class="st6" cx="-18.4" cy="20.3" r="0"/>
				<circle class="st6" cx="-18.5" cy="20.4" r="0"/>
				<circle class="st6" cx="-18.6" cy="20.6" r="0"/>
				<circle class="st6" cx="-18.4" cy="20.6" r="0"/>
			</g>
		</g>
		<g>
			<g id="quina_3_">
				<path class="st8" d="M-17.5,20.5L-17.5,20.5c0,0.1,0,0.1,0.1,0.2c0,0,0.1,0.1,0.2,0.1c0.1,0,0.1,0,0.2-0.1c0,0,0.1-0.1,0.1-0.2
					v-0.3l-0.4,0L-17.5,20.5"/>
				<circle class="st6" cx="-17.4" cy="20.3" r="0"/>
				<circle class="st6" cx="-17.1" cy="20.3" r="0"/>
				<circle class="st6" cx="-17.3" cy="20.4" r="0"/>
				<circle class="st6" cx="-17.4" cy="20.6" r="0"/>
				<circle class="st6" cx="-17.1" cy="20.6" r="0"/>
			</g>
		</g>
		<g>
			<g id="quina_4_">
				<path class="st8" d="M-18.1,21.3L-18.1,21.3c0,0.1,0,0.1,0.1,0.2c0,0,0.1,0.1,0.2,0.1c0.1,0,0.1,0,0.2-0.1c0,0,0.1-0.1,0.1-0.2
					V21l-0.4,0L-18.1,21.3"/>
				<circle class="st6" cx="-18" cy="21.1" r="0"/>
				<circle class="st6" cx="-17.8" cy="21.1" r="0"/>
				<circle class="st6" cx="-17.9" cy="21.2" r="0"/>
				<circle class="st6" cx="-18" cy="21.3" r="0"/>
				<circle class="st6" cx="-17.8" cy="21.3" r="0"/>
			</g>
		</g>
	</g>
</g>
<g>
	<path class="st9" d="M2,0h16c1.1,0,2,0.9,2,2v8c0,1.1-0.9,2-2,2H2c-1.1,0-2-0.9-2-2V2C0,0.9,0.9,0,2,0z"/>
	<g>
		<path d="M0,1.4h20 M20,3.2H0 M0,5.1h20 M20,6.9H0 M0,8.8h20 M20,10.6H0"/>
		<path class="st6" d="M20,11.1H0v-0.9h20V11.1z M20,9.2H0V8.3h20V9.2z M20,7.4H0V6.5h20V7.4z M20,5.5H0V4.6h20V5.5z M20,3.7H0V2.8
			h20V3.7z M20,1.8H0V0.9h20V1.8z"/>
	</g>
	<path class="st10" d="M2,0h7.1v6.5H0V2C0,0.9,0.9,0,2,0z"/>
	<g>
		<g id="s18">
			<g id="s9">
				<g id="s5">
					<g id="s4">
						<path id="s" class="st6" d="M0.8,0.3L1,0.9L0.4,0.5h0.7L0.5,0.9L0.8,0.3z"/>
						<g>
							<path id="s_1_" class="st6" d="M0.8,1.6L1,2.2L0.4,1.8h0.7L0.5,2.2L0.8,1.6z"/>
						</g>
						<g>
							<path id="s_2_" class="st6" d="M0.8,2.9L1,3.5L0.4,3.1h0.7L0.5,3.5L0.8,2.9z"/>
						</g>
						<g>
							<path id="s_3_" class="st6" d="M0.8,4.2L1,4.8L0.4,4.4h0.7L0.5,4.8L0.8,4.2z"/>
						</g>
					</g>
					<g>
						<path id="s_4_" class="st6" d="M0.8,5.4L1,6.1L0.4,5.7h0.7L0.5,6.1L0.8,5.4z"/>
					</g>
				</g>
				<g>
					<g id="s4_1_">
						<path id="s_5_" class="st6" d="M1.5,0.9l0.2,0.7L1.2,1.2h0.7L1.3,1.6L1.5,0.9z"/>
						<g>
							<path id="s_6_" class="st6" d="M1.5,2.2l0.2,0.7L1.2,2.5h0.7L1.3,2.9L1.5,2.2z"/>
						</g>
						<g>
							<path id="s_7_" class="st6" d="M1.5,3.5l0.2,0.7L1.2,3.8h0.7L1.3,4.2L1.5,3.5z"/>
						</g>
						<g>
							<path id="s_8_" class="st6" d="M1.5,4.8l0.2,0.7L1.2,5.1h0.7L1.3,5.5L1.5,4.8z"/>
						</g>
					</g>
				</g>
			</g>
			<g>
				<g id="s9_1_">
					<g id="s5_1_">
						<g id="s4_2_">
							<path id="s_9_" class="st6" d="M2.3,0.3l0.2,0.7L1.9,0.5h0.7L2.1,0.9L2.3,0.3z"/>
							<g>
								<path id="s_10_" class="st6" d="M2.3,1.6l0.2,0.7L1.9,1.8h0.7L2.1,2.2L2.3,1.6z"/>
							</g>
							<g>
								<path id="s_11_" class="st6" d="M2.3,2.9l0.2,0.7L1.9,3.1h0.7L2.1,3.5L2.3,2.9z"/>
							</g>
							<g>
								<path id="s_12_" class="st6" d="M2.3,4.2l0.2,0.7L1.9,4.4h0.7L2.1,4.8L2.3,4.2z"/>
							</g>
						</g>
						<g>
							<path id="s_13_" class="st6" d="M2.3,5.4l0.2,0.7L1.9,5.7h0.7L2.1,6.1L2.3,5.4z"/>
						</g>
					</g>
					<g>
						<g id="s4_3_">
							<path id="s_14_" class="st6" d="M3,0.9l0.2,0.7L2.7,1.2h0.7L2.8,1.6L3,0.9z"/>
							<g>
								<path id="s_15_" class="st6" d="M3,2.2l0.2,0.7L2.7,2.5h0.7L2.8,2.9L3,2.2z"/>
							</g>
							<g>
								<path id="s_16_" class="st6" d="M3,3.5l0.2,0.7L2.7,3.8h0.7L2.8,4.2L3,3.5z"/>
							</g>
							<g>
								<path id="s_17_" class="st6" d="M3,4.8l0.2,0.7L2.7,5.1h0.7L2.8,5.5L3,4.8z"/>
							</g>
						</g>
					</g>
				</g>
			</g>
		</g>
		<g>
			<g id="s18_1_">
				<g id="s9_2_">
					<g id="s5_2_">
						<g id="s4_4_">
							<path id="s_18_" class="st6" d="M3.8,0.3L4,0.9L3.4,0.5h0.7L3.6,0.9L3.8,0.3z"/>
							<g>
								<path id="s_19_" class="st6" d="M3.8,1.6L4,2.2L3.4,1.8h0.7L3.6,2.2L3.8,1.6z"/>
							</g>
							<g>
								<path id="s_20_" class="st6" d="M3.8,2.9L4,3.5L3.4,3.1h0.7L3.6,3.5L3.8,2.9z"/>
							</g>
							<g>
								<path id="s_21_" class="st6" d="M3.8,4.2L4,4.8L3.4,4.4h0.7L3.6,4.8L3.8,4.2z"/>
							</g>
						</g>
						<g>
							<path id="s_22_" class="st6" d="M3.8,5.4L4,6.1L3.4,5.7h0.7L3.6,6.1L3.8,5.4z"/>
						</g>
					</g>
					<g>
						<g id="s4_5_">
							<path id="s_23_" class="st6" d="M4.6,0.9l0.2,0.7L4.2,1.2h0.7L4.3,1.6L4.6,0.9z"/>
							<g>
								<path id="s_24_" class="st6" d="M4.6,2.2l0.2,0.7L4.2,2.5h0.7L4.3,2.9L4.6,2.2z"/>
							</g>
							<g>
								<path id="s_25_" class="st6" d="M4.6,3.5l0.2,0.7L4.2,3.8h0.7L4.3,4.2L4.6,3.5z"/>
							</g>
							<g>
								<path id="s_26_" class="st6" d="M4.6,4.8l0.2,0.7L4.2,5.1h0.7L4.3,5.5L4.6,4.8z"/>
							</g>
						</g>
					</g>
				</g>
				<g>
					<g id="s9_3_">
						<g id="s5_3_">
							<g id="s4_6_">
								<path id="s_27_" class="st6" d="M5.3,0.3l0.2,0.7L5,0.5h0.7L5.1,0.9L5.3,0.3z"/>
								<g>
									<path id="s_28_" class="st6" d="M5.3,1.6l0.2,0.7L5,1.8h0.7L5.1,2.2L5.3,1.6z"/>
								</g>
								<g>
									<path id="s_29_" class="st6" d="M5.3,2.9l0.2,0.7L5,3.1h0.7L5.1,3.5L5.3,2.9z"/>
								</g>
								<g>
									<path id="s_30_" class="st6" d="M5.3,4.2l0.2,0.7L5,4.4h0.7L5.1,4.8L5.3,4.2z"/>
								</g>
							</g>
							<g>
								<path id="s_31_" class="st6" d="M5.3,5.4l0.2,0.7L5,5.7h0.7L5.1,6.1L5.3,5.4z"/>
							</g>
						</g>
						<g>
							<g id="s4_7_">
								<path id="s_32_" class="st6" d="M6.1,0.9l0.2,0.7L5.7,1.2h0.7L5.9,1.6L6.1,0.9z"/>
								<g>
									<path id="s_33_" class="st6" d="M6.1,2.2l0.2,0.7L5.7,2.5h0.7L5.9,2.9L6.1,2.2z"/>
								</g>
								<g>
									<path id="s_34_" class="st6" d="M6.1,3.5l0.2,0.7L5.7,3.8h0.7L5.9,4.2L6.1,3.5z"/>
								</g>
								<g>
									<path id="s_35_" class="st6" d="M6.1,4.8l0.2,0.7L5.7,5.1h0.7L5.9,5.5L6.1,4.8z"/>
								</g>
							</g>
						</g>
					</g>
				</g>
			</g>
		</g>
		<g>
			<g id="s9_4_">
				<g id="s5_4_">
					<g id="s4_8_">
						<path id="s_36_" class="st6" d="M6.8,0.3l0.2,0.7L6.5,0.5h0.7L6.6,0.9L6.8,0.3z"/>
						<g>
							<path id="s_37_" class="st6" d="M6.8,1.6l0.2,0.7L6.5,1.8h0.7L6.6,2.2L6.8,1.6z"/>
						</g>
						<g>
							<path id="s_38_" class="st6" d="M6.8,2.9l0.2,0.7L6.5,3.1h0.7L6.6,3.5L6.8,2.9z"/>
						</g>
						<g>
							<path id="s_39_" class="st6" d="M6.8,4.2l0.2,0.7L6.5,4.4h0.7L6.6,4.8L6.8,4.2z"/>
						</g>
					</g>
					<g>
						<path id="s_40_" class="st6" d="M6.8,5.4l0.2,0.7L6.5,5.7h0.7L6.6,6.1L6.8,5.4z"/>
					</g>
				</g>
				<g>
					<g id="s4_9_">
						<path id="s_41_" class="st6" d="M7.6,0.9l0.2,0.7L7.2,1.2H8L7.4,1.6L7.6,0.9z"/>
						<g>
							<path id="s_42_" class="st6" d="M7.6,2.2l0.2,0.7L7.2,2.5H8L7.4,2.9L7.6,2.2z"/>
						</g>
						<g>
							<path id="s_43_" class="st6" d="M7.6,3.5l0.2,0.7L7.2,3.8H8L7.4,4.2L7.6,3.5z"/>
						</g>
						<g>
							<path id="s_44_" class="st6" d="M7.6,4.8l0.2,0.7L7.2,5.1H8L7.4,5.5L7.6,4.8z"/>
						</g>
					</g>
				</g>
			</g>
		</g>
		<g>
			<g id="s5_5_">
				<g id="s4_10_">
					<path id="s_45_" class="st6" d="M8.4,0.3l0.2,0.7L8,0.5h0.7L8.1,0.9L8.4,0.3z"/>
					<g>
						<path id="s_46_" class="st6" d="M8.4,1.6l0.2,0.7L8,1.8h0.7L8.1,2.2L8.4,1.6z"/>
					</g>
					<g>
						<path id="s_47_" class="st6" d="M8.4,2.9l0.2,0.7L8,3.1h0.7L8.1,3.5L8.4,2.9z"/>
					</g>
					<g>
						<path id="s_48_" class="st6" d="M8.4,4.2l0.2,0.7L8,4.4h0.7L8.1,4.8L8.4,4.2z"/>
					</g>
				</g>
				<g>
					<path id="s_49_" class="st6" d="M8.4,5.4l0.2,0.7L8,5.7h0.7L8.1,6.1L8.4,5.4z"/>
				</g>
			</g>
		</g>
	</g>
</g>
</svg>
