<svg xmlns="http://www.w3.org/2000/svg" viewBox="0 0 896.26 292.25"><defs><style>.cls-1,.cls-2{fill:#fff;}.cls-2{font-size:130px;stroke:#fff;stroke-linecap:round;stroke-miterlimit:10;stroke-width:5.67px;font-family:Marmelad-Regular, Marmelad;}.cls-3{letter-spacing:-0.06em;}</style></defs><g id="Шар_2" data-name="Шар 2"><g id="Шар_1-2" data-name="Шар 1"><path class="cls-1" d="M270.19,146.18c-.09,73.58-60.69,133.12-135.31,133S0,219.46,0,146,60.82,13,135.2,13.11C209.15,13.18,270.21,72.29,270.19,146.18ZM67.74,35.93c-42.52,24.3-73.81,78-60.27,138.24C20.7,233.05,73.84,274.89,135.15,274.86c58.66,0,100.78-37.24,116.94-71.87l-2.84,4.36a8.22,8.22,0,0,1,0-2.23c.43-3.39.63-6.81,2.35-10a10,10,0,0,0,.81-3.94,4.79,4.79,0,0,1,.89-2.94,10.49,10.49,0,0,0,2.38-8.53,2.47,2.47,0,0,1,.19-1.53,4,4,0,0,0,.42-3.17c-.26-1.06-.35-2.17-.62-3.23-.7-2.71-1.05-5.53-2.9-7.85-.89-1.12-.63-2.47-.41-3.81a27.38,27.38,0,0,0,.49-5.48c-.12-3.32-.13-3.64-4.26-3a17.27,17.27,0,0,0-1.65-2.22,1.77,1.77,0,0,0-1.48-.43,9.41,9.41,0,0,0-5.23,3.71,19.25,19.25,0,0,1-1.62,2.1,2.79,2.79,0,0,1-3.09,1,2.72,2.72,0,0,0-2.47.59,37.55,37.55,0,0,1-4.27,2.72,2.54,2.54,0,0,1-2.07,0c-2.59-1.49-5.14-3-7.57-4.76A4,4,0,0,1,217.8,152a2.67,2.67,0,0,0-1.53-2.41,4.79,4.79,0,0,1-2.58-2.7,3.84,3.84,0,0,0-1.58-1.86c-3.68-2-3.86-4.09-3.31-7.09.41-2.29.63-4.61.93-6.92.1-.72-.1-1.15-1-1.23a1.41,1.41,0,0,1-1-.77c-.48-2.36-1.33-4.77-1.15-7.11.26-3.46-.19-7,1-10.43.56-1.56.88-2.78,2.43-3.66s1.8-3.87.71-5.35c-1.65-2.24-1.31-5.9.7-7.47.66-.52,1.07-3.53.45-4.1-1-.92-2.11-1.74-3.18-2.6-.17,0-.55.42-1,.61a2.49,2.49,0,0,1-1.31.09c-.44-1.74-1.95-2.7-2.93-4a1.18,1.18,0,0,1-.17-.76,4.74,4.74,0,0,0-1.24-3.5c-.46-.65-.88-1.33-1.28-2-.92-1.59-.74-2.28,1.07-2.77a14.24,14.24,0,0,1,3.7-.24c1.29,0,2.81-1.25,2.31-2-1.06-1.66-1.25-4.07-3.82-4.51a.74.74,0,0,1-.43-.29,3,3,0,0,0-3.11-1,1.49,1.49,0,0,1-1.85-1.19l3.14-.79.22-.55-2-1.42c.42,0,.63,0,.84.07,1.58.23,1.65.22,1.28-1.34-.33-1.37-.4-2.55,1-3.34.06,0,.05-.16.13-.42L202.14,58l.54-.1a4.89,4.89,0,0,0,.09-1.77,1.39,1.39,0,0,1,.41-1.84c.76-.59.74-1.15-.24-1.54a2.3,2.3,0,0,1-.49-.34l1.92-.65,2.17,1.14c-.21-1.36-.39-2.44-.6-3.78l1.76,1.3c-.38-3.49-3.2-4.53-5.42-6.23l1.73.1.15-.4a11.3,11.3,0,0,0-2.56-1.36,2.25,2.25,0,0,1-1.89-2.27c.2-2-1.16-3.5-3.4-3.6.5.92,1,1.78,1.44,2.69a4.75,4.75,0,0,1,.18,1.33,5.24,5.24,0,0,1-1.26-.08,22.56,22.56,0,0,1-2.22-.92,18.53,18.53,0,0,1-5.52-4.35,2.56,2.56,0,0,0-2.89-.8c.62.36,1.1.59,1.51.89,1,.77,2.42,1.39,2.93,2.42a8.53,8.53,0,0,0,5.83,4.62,3.6,3.6,0,0,1,1.48,1c.74.79,1.32,1.72,2.09,2.47a31.21,31.21,0,0,0,2.6,2.09l-.84.4,1,.82-1.75,1.22c-.23-1.89-3-3.77-6.35-4.24.41,1.59.22,2-.77,1.7-3.72-1.26-7.4-2.6-8.32-7.1A6.25,6.25,0,0,0,182,36.18a8.4,8.4,0,0,1-2.16-1.89c-.73-.78-1.33-1.67-2-2.48-.34-.4-.82-.69-1.16-1.1-1-1.24-.7-2.17.93-2.32a21.71,21.71,0,0,1,4,0,23.14,23.14,0,0,1,4.05.76c.34.1.82,1,.69,1.2-.71,1.18.08,1.42.92,1.58s1.46.1,2.5.17l-1.11-2.4,1.06-.59c-34-14.64-68.08-15.53-102.14-3-.71,3.57-2.76,5.5-5.44,7.11l4.7-1.24c.09.79.16,1.35.23,2,1.62-.26,1.79,1,2.38,2a4.52,4.52,0,0,0-.55.32c-.54.42-1.06.85-1.59,1.28a8.36,8.36,0,0,0,2,1.29c.92.25,2,0,2.91.21A30.33,30.33,0,0,1,96,40a4.24,4.24,0,0,0,4.36-.91c1.18-1,2.28-2.11,3.43-3.16,1-.89,2-1.75,3.1-2.74.14.69.23,1.14.24,1.22-1.42,1.18-2.69,2.11-3.8,3.2a1.43,1.43,0,0,0,.08,2.22,2.09,2.09,0,0,1,.56,2.54,6.69,6.69,0,0,1-3.71,3.64c-2.42.88-4.89,1.65-7.38,2.34a9.09,9.09,0,0,0-6.23,5.71,2.85,2.85,0,0,0,1.17,3.79,27.15,27.15,0,0,0,3.47,2c1.51.71,3.1,1.27,4.76,1.94C95.29,63,94.57,64,93.87,65.08s-.31,3.51.68,4.09A1.65,1.65,0,0,0,96.14,69a5.93,5.93,0,0,0,1.53-2.71c.28-2.35,1.76-3.62,3.6-4.73.46-.27.88-.61,1.31-.92,1.67-1.17,1.68-1.18.81-3-.4-.81-.89-1.66.25-2.26A4.19,4.19,0,0,0,105.86,51a8.6,8.6,0,0,1,.08-1.08c1,.16,1.86.26,2.73.46a21.53,21.53,0,0,1,2.17.65,4.68,4.68,0,0,1,3.25,3.4,14.42,14.42,0,0,0,.72,2.13c.37.79,1,.93,1.53.17.43-.56.74-1.21,1.18-1.76s1-1.07,1.83-.58c1.37.8,3,4.42,2.54,5.91A2,2,0,0,0,123.12,63L127,64.9c2.32,1.15,2.69,2.23,1.56,4.52-.21.43-.43.87-.63,1.31-.71,1.59-.65,1.71,1,2.22a21.59,21.59,0,0,1,2.14.74,4.8,4.8,0,0,1,1.45.93,2.75,2.75,0,0,1,0,3.33c-.71,1-1.41.1-2.12,0a40.58,40.58,0,0,0-4.19-.78c-2.11-.2-2.53-.9-1.67-2.84.51-1.15.82-2.39,1.22-3.58l-.38-.17c-1.27,1-2.49,2-3.81,2.89a5.86,5.86,0,0,1-2.28,1,4.57,4.57,0,0,0-4.23,4,1.83,1.83,0,0,0,.16,1.24c.77,1,3.82,1.09,4.86.36a16.85,16.85,0,0,1,2-1l.44.4c-.26.54-.38,1.25-.8,1.59a10.29,10.29,0,0,1-2.54,1.4c-2,.8-4,1.52-6,2.25a13,13,0,0,1-1.57.33c.46-2,2.21-2.35,3.48-3.67a7.36,7.36,0,0,0-1.92,0,45.23,45.23,0,0,0-5,1.93A5.33,5.33,0,0,0,106,85.08a7.7,7.7,0,0,1-4.37,3.47,12.48,12.48,0,0,0-6.82,5.08c-.38.57-.82,1.11-1.23,1.66l-1.33-.91c-.23,1.42-.54,2.71-.62,4a3.49,3.49,0,0,1-2.53,3.31,28.41,28.41,0,0,0-9.46,5.88,2.3,2.3,0,0,0-.69,1.66,42.29,42.29,0,0,0,1.09,6.23c.56,2-.2,3.67-.84,5.43-1.68-.56-2.4-1.34-2.57-2.83-.1-.88,0-1.77-.14-2.65a29.5,29.5,0,0,0-.63-3.76c-.28-1.06-.92-1.78-2.26-1.4-.41.12-1.17.06-1.36-.21-1.45-2.09-3.77-1.89-5.88-2.3-1.24-.25-2.41-.39-3.16.88a14.37,14.37,0,0,0-2.42-1,7.11,7.11,0,0,0-3-.21A26.33,26.33,0,0,0,53.45,109a6.59,6.59,0,0,0-3.92,4.57c-.85,3.08-1.86,6.13-2.78,9.19a7.06,7.06,0,0,0-.34,1.68c-.17,3,1.58,5.23,3.24,7.47a.79.79,0,0,0,.58.26,3,3,0,0,1,3.11,2c.35.83.94,1,1.5.18,1.06-1.46,2.2-2.89,3.11-4.45a4.76,4.76,0,0,1,7.34-1.39c-.57.63-1.44,1.17-1.66,1.9A4,4,0,0,1,61.86,133a1.81,1.81,0,0,0-1,2.22,3.76,3.76,0,0,1-1,3.76,3.54,3.54,0,0,0-.56,1.09,7.89,7.89,0,0,1,2.56.61,3.21,3.21,0,0,0,3.24.49,5,5,0,0,1,4.67,1.53,2.06,2.06,0,0,1,.12,1.47,22.16,22.16,0,0,1-1.13,3.1c-1.49,3.32-.91,6.27,1.36,9.09,1.7,2.11,2.1,2.33,4.55,1.12a3.46,3.46,0,0,1,3.57,0c1.13.7,2.18,1.54,3.37,2.39.55-.76,1.22-1.73,2-2.65a7.58,7.58,0,0,1,2-2.19c2.1-1.06,4.34-1.84,6.53-2.74a4.8,4.8,0,0,1,4.38.21c2,1.18,4,2.51,6,3.75a2.94,2.94,0,0,0,1.42.53c2,0,4,.07,6-.1a7.71,7.71,0,0,1,4.46,1,3.16,3.16,0,0,1,2,2.83,1.52,1.52,0,0,0,.73,1.05c.74.36,1.59.51,2.37.83a4.88,4.88,0,0,1,1.58.88c.83.8,1.56,1.7,2.31,2.58,2.45,2.86,2.44,2.84,6.22,2.46,1.06-.11,2.32-.37,3.17.06,3.34,1.65,7.27,2.87,7.32,7.63a10.43,10.43,0,0,0,.36,1.26c.49,2.95,2.58,4.7,4.7,6.32,1.06-.47,2.19-1.44,3-1.22,2.09.61,4.43,1.13,5.58,3.28a1.88,1.88,0,0,0,2.69,1,2.27,2.27,0,0,1,2.59.49,2.26,2.26,0,0,0,2.46.55c3.07-.91,5.73-.4,7.78,2.21.25.31.64.5.87.82a2.13,2.13,0,0,0,2.23.75c2.28-.27,2.29-.23,3,2a5,5,0,0,1,.18.5c.43,2.25.78,4.63-1.26,6.26a18.85,18.85,0,0,0-4.52,5.81,9.35,9.35,0,0,1-2.79,2.7c-.72.5-1.07.82-.91,1.76.25,1.37.7,2.93.29,4.17-1.33,4.05-2.8,8.11-5.45,11.55a4.56,4.56,0,0,1-2.77,1.81c-3.69.22-6.74,1.88-9.86,3.53a5.48,5.48,0,0,0-3.11,4.59,2.57,2.57,0,0,1-1.21,1.64,3.66,3.66,0,0,0-2,2.43c-.09.42-.47,1-.83,1.09-1.93.48-2.95,1.9-3.94,3.39a6.62,6.62,0,0,1-3.28,2.54c-3.22,1.27-5.8.22-8.32-1.67a17.32,17.32,0,0,0-3-1.64,5.71,5.71,0,0,0-1.56-.17c.53.69.74,1.19,1.12,1.41a8.73,8.73,0,0,0,2.62,1.2,4.27,4.27,0,0,1,3.81,4c.07.56.12,1.13.18,1.78l-8.08,1c-.07,1.05-.13,2.05-.2,3.1l-4.32-.86c.43,1.5.81,2.79,1.18,4.08l-3,1.68,2.8,1.49a18,18,0,0,0-1.56,1.64,12.82,12.82,0,0,0-1,1.77c1.23,2.26,4.29,2.3,6.45,3.93-2.31.13-4.68.4-6.76-.25a55.67,55.67,0,0,1-8.57-3.94,3.85,3.85,0,0,1-1.54-2c-.9-2.53-1.61-5.11-2.44-7.67-1.13-3.49-1.75-6.94-.08-10.49a4.06,4.06,0,0,0,.24-2.7c-2.17-7.22-2.3-14.68-2.9-22.09a2.18,2.18,0,0,0-.83-1.46c-2.28-1.55-4.7-2.9-6.92-4.52A32.25,32.25,0,0,1,85.55,210a51,51,0,0,1-4.25-6.52c-2.53-4.11-5-8.28-7.53-12.36a3.72,3.72,0,0,1-.14-4.49A3.26,3.26,0,0,0,74,184.3a6.43,6.43,0,0,1,2.7-7.5c.33-.23.77-.73.71-1-.35-1.53.63-2.19,1.72-2.79a2.59,2.59,0,0,0,1.46-2.59c0-1.5.13-3,.15-4.5a3.88,3.88,0,0,0-.32-1.5c-.6-1.42-1.21-2.83-1.93-4.19-.35-.66-.94-1.66-1.44-1.66s-1.4.73-2,1.29a12.76,12.76,0,0,0-1.33,2,7.26,7.26,0,0,0-5.8-3.51c0-1.56,0-1.63-1.34-2.28a6.43,6.43,0,0,1-3.58-4,44.61,44.61,0,0,0-1.95-4.77,2.79,2.79,0,0,0-1-1.34c-1.8-1-3.66-1.76-5.49-2.66a6.38,6.38,0,0,1-1.64-1,12.87,12.87,0,0,1-1.85-2.26,4.9,4.9,0,0,0-5-2.67c-2,.2-3.19-.9-4.24-2.4a28.41,28.41,0,0,0-2.46-2.66,5.18,5.18,0,0,0-2.32-2.58c-.25-.14-.68-.38-.66-.52.21-1.36-.9-1.93-1.64-2.69-1.35-1.4-1.45-1.85-.65-3.6a13.14,13.14,0,0,0,1-8.87c-.73-2.94-1.68-5.85-1.32-9a1.27,1.27,0,0,0-.19-.76,4.62,4.62,0,0,1-.32-3.69c.2-1,.31-2.08.45-3.12l-.42-.11a4,4,0,0,0-.42,1c-.35,2.21-.78,4.43-.94,6.66-.24,3.38-.25,6.78-.41,10.18a5.91,5.91,0,0,1-.54,1.51c-.3-2.14-.46-4-.85-5.85-.54-2.49-1-4.92.58-7.24a1.73,1.73,0,0,0,.24-1,23.43,23.43,0,0,1,2-10.54,3.54,3.54,0,0,0-.26-3.63,2.11,2.11,0,0,1-.41-1.56c1.83-5.09,3.4-10.35,6.93-14.62,2.54-3.07,5.51-5.79,8.18-8.76a6.81,6.81,0,0,0,1.6-2.93c.71-3.09,1.73-5.89,4.68-7.65a12.88,12.88,0,0,0,4.71-5.13A6.37,6.37,0,0,1,61,45.3a8.89,8.89,0,0,0,3.89-4.2C65.86,39.29,66.87,37.51,67.74,35.93Zm159,47.16c-.23-.76-.39-1.17-.47-1.6-.15-.8.93-1.77,1.54-1.33,1.09.81,2.45,1.62,3,2.75.61,1.37.84,2.87,2.2,3.81.09.06.12.23.18.35.41.82,1,1.1,1.83.56a2.19,2.19,0,0,1,2.81.23c.73.56,1.29,1.86,2.62.69.3-.27,1.13.06,2,.15a13.9,13.9,0,0,1-.86-1.5,14.3,14.3,0,0,1-1.29-3.41c-.21-1.45.55-1.86,1.92-1.31a6.71,6.71,0,0,0,1.14.4c2.46.53,2.78.17,2.15-2.27a3.79,3.79,0,0,1,.08-1.15,36.36,36.36,0,0,0-3.1-5.12c-.68-1-1.1-2.44-2.88-1.81,0,.28-.1.67-.24,1.5l-6.46-6-1.79.66-.43.51A20.75,20.75,0,0,1,233,70.86,28.25,28.25,0,0,1,236,74a7,7,0,0,1,.78,2.06l-.48.35a15.86,15.86,0,0,1-1.41-1c-.75-.63-1.33-1.6-2.18-1.91a8.31,8.31,0,0,1-4-3.72,3.89,3.89,0,0,0-3-1.73,13.19,13.19,0,0,1-3.3-1.23c-.64-.29-1.16-.87-1.81-1.13a15.65,15.65,0,0,0-2.39-.54,13.18,13.18,0,0,0,1.49,2c1.77,1.63,4.12,2,6.36,2.61a6.45,6.45,0,0,1,4.92,6,9.74,9.74,0,0,0,.77,2.46c.19.52.44,1,.78,1.8-.7-.2-1-.25-1.29-.36-1.76-.67-1.89-1.06-2-2.91a4.14,4.14,0,0,0-1-2.59,5.47,5.47,0,0,0-2.7-1.33,19.4,19.4,0,0,1-7.37-3.62,5.6,5.6,0,0,0-.71-.38,13.68,13.68,0,0,1,.16,1.54c0,.79-.38,1.45-1.29,1.32-1.69-.26-2.28.59-2.37,2.08l.37.36c1.54,1.46,1.51,1.59.26,3.24a2,2,0,0,0-.26,1.54c.43,1.24,1.13,2.39,1.56,3.62a4.73,4.73,0,0,1,.12,2.09c-.23,1.87-1,3.35-3.07,3.88a1.42,1.42,0,0,0-.57,1.28,2.08,2.08,0,0,0,1.23,1.2c1.76.32,3.58.19,3.86-2.24a2.88,2.88,0,0,1,2.08-2.65,5,5,0,0,0,1.69-.75C222.89,84.14,224.28,82.64,226.77,83.09Zm4.86-19.5c.09-.87.18-1.66.25-2.38l-6.4-6.59c.07.54.11.89.15,1.22l-1.34.16C225.61,59.65,228.42,61.74,231.63,63.59Z"/><path class="cls-1" d="M144.58,46.6a14.55,14.55,0,0,1,.4,1.87c0,.36,0,.94-.26,1.05-1.06.54-.83,1.27-.67,2.19a22.33,22.33,0,0,1,0,3.5c-3.32-.6-6.68-1-8.65-4-1.28-2-2.19-4.19-3.28-6.3-.41-.79-.08-1.28.58-1.78,2.94-2.22,3-3.06-.11-4.94-1.87-1.12-2-3.05-3.12-4.44a4.19,4.19,0,0,0-1.5-1.21c-1-.44-2.12-.66-3.16-1.05-.33-.12-.55-.51-.82-.77a8.92,8.92,0,0,1,1-.73,1.42,1.42,0,0,1,.66-.09,3.72,3.72,0,0,0,3.42-1.79,2.75,2.75,0,0,1,1.71-.79c2.21-.44,4.5-.62,6.66-1.23,4.16-1.18,7.52.17,9.32,4.07a2.65,2.65,0,0,0,1.89,1.64,4.72,4.72,0,0,1,3.12,2.45,12.67,12.67,0,0,0,2,2.27c.45.47,1,.87,1.44,1.3l-.13.34-1.43-.23a4.32,4.32,0,0,0-1.44-.2,2.25,2.25,0,0,0-1.11.76c-.11.14.06.76.19.79a2.94,2.94,0,0,0,1.25,0c.6-.12,1.19-.38,1.79-.47a2.8,2.8,0,0,1,1,.26c-.1.31-.1.77-.32.91a31.34,31.34,0,0,1-3,1.7,5.28,5.28,0,0,0-2.65,2.16C148.47,45.33,147.09,47.08,144.58,46.6Z"/><path class="cls-1" d="M111.79,34.22c1,1.64,2.64.76,4,1.12,0,1.93,1.78,2.29,2.85,3.32a2.5,2.5,0,0,1,.84,1.58,2,2,0,0,0,1.06,1.92c1.44,1,2.8,2.16,4.17,3.23-1.14,1.94-2.14,2.14-4.16,1a2.77,2.77,0,0,0-1.48-.27c.54,1.45,2.25,2.1,2,4h-4c.52.8.92,1.4,1.43,2.16a7.8,7.8,0,0,1-6-3.79c-.63-1,0-1.75.8-2.36,1.78-1.42,2.07-2.25,1.32-4.4a2,2,0,0,0-1-1.1,24.67,24.67,0,0,0-2.62-.42c-1.18-.23-1.47.77-2.06,1.37-.9.91-1.74,1.92-3.23,1.89-.77,0-1-.37-.64-1a6.6,6.6,0,0,1,1.53-2c1.07-.81,1.46-1.59.67-2.77a4.09,4.09,0,0,1-.32-.92Z"/><path class="cls-1" d="M101.25,32.86,95.19,38.5c-1.38-2.75-3.61-.78-5.66-1.12l1.17-1.26-.7-.8c.89-1.16,2.84-1.29,3-3.17L91.69,32c1.91-2,4.65-2,7.19-2.9-.52.86-1,1.73-1.6,2.69Z"/><path class="cls-1" d="M199.92,60.48l-3.55,3.3c-.92-.53-.35-3-2.37-2.36l-1.43-2.63,1-.73a3.32,3.32,0,0,0-.75-.55,10.43,10.43,0,0,1-4.09-2.61,4.37,4.37,0,0,0-2.37-1.09,1.91,1.91,0,0,1-1.83-2.21c0-.42,0-.85,0-1.27l.37-.28,2.14,2,.93-.85c.84,2.73,3.45,3.36,5.68,4.5,1.47.75,3.26,1.14,3.77,3.37.42-.69.68-1.12.95-1.54C199.63,58.09,198.48,60.23,199.92,60.48Z"/><path class="cls-1" d="M89.74,133.57c-1,1.39-2.39,1-3.65.91-1-.09-2,0-2.57-1.45-.46-1.25-1.73-2.21-2.7-3.25-.21-.23-.64-.26-1-.38a16.38,16.38,0,0,1-3.3-1.28,5.91,5.91,0,0,0-5.3-1,3,3,0,0,1-.85,0c-.1-1.11.3-1.79,1.46-1.62,1.35.2,2.68.54,4,.87a23.77,23.77,0,0,1,9.91,5.16A18,18,0,0,0,89.74,133.57Z"/><path class="cls-1" d="M114.11,31.18l1.6-1.18c-1.17-1.38-.9-2.09,1-2.47.65-.13,1.32-.18,2-.26s1.22.16,1.31-.73c0-.11.44-.25.67-.25,2.66,0,5.33,0,8,.19a18.54,18.54,0,0,0-7,3.24c-2.23,1.55-4.84,1.52-7.36,1.88Z"/><path class="cls-1" d="M100.89,139c-2-1.09-4-.28-6,0A30.73,30.73,0,0,1,89,138.6c0-.22,0-.43,0-.64a17.55,17.55,0,0,1,1.9-.33c.67-.06,1.35,0,2.45,0l-1.94-2.49c.51-.51.54-.62,5,.77a28,28,0,0,1,4.71,2.49C101,138.59,100.94,138.79,100.89,139Z"/><path class="cls-1" d="M185.21,59.05l2.11-.88-.45-1.57a2.52,2.52,0,0,1,3.24,2,3.16,3.16,0,0,0,.8,1.29c.78,1,.91,2.09.25,2.73a3.12,3.12,0,0,1-3.25,0,.92.92,0,0,1-.26-.79c.46-1.06-.28-1.24-1-1.52a13.49,13.49,0,0,1-1.45-.78C185.2,59.35,185.21,59.2,185.21,59.05Z"/><path class="cls-1" d="M164.12,46.84c-2.17-.15-3.56-.78-4.56-2.08a3,3,0,0,1-.29-1.07c.38-.07.85-.32,1.11-.18,1.5.81,2.82.25,4.22-.29a2.4,2.4,0,0,1,3.29.84c.5.62.51,1.16-.25,1.47C166.33,46.07,165,46.52,164.12,46.84Z"/><path class="cls-1" d="M161.85,27.62c-2.63-1-5.27-2-7.88-3-.28-.11-.41-.6-.6-.9.41-.22.82-.63,1.23-.62a8.55,8.55,0,0,1,5.76,2.1,26.45,26.45,0,0,1,1.84,2Z"/><path class="cls-1" d="M109.7,138.59c-1.25,1.84-2,2-5,1A7.8,7.8,0,0,1,109.7,138.59Z"/><text class="cls-2" transform="translate(295.83 113.92)">ЛЕГЕНДА</text><text class="cls-2" transform="translate(295.83 256.66)">Т<tspan class="cls-3" x="84.5" y="0">Р</tspan><tspan x="156.91" y="0">АНС</tspan></text></g></g></svg>