<svg viewBox="0 0 46 49" fill="none" xmlns="http://www.w3.org/2000/svg">
<path d="M22.9974 39.1162C14.5102 39.0838 7.9549 32.21 7.96877 24.0529C7.98449 15.8856 14.6739 9.06396 23.0437 9.08894C31.2049 9.11344 38.0307 15.721 38.0159 24.1255C38.0016 32.4227 31.296 39.0973 22.9974 39.1162ZM35.7764 31.0155C35.7376 30.961 35.6738 30.923 35.6812 30.8398C35.7149 30.4699 35.739 30.0962 35.893 29.7508C35.9727 29.5876 36.0198 29.4104 36.0317 29.2292C36.0394 29.0559 36.1004 28.8892 36.2065 28.752C36.3733 28.5261 36.4458 28.2442 36.4086 27.9659C36.3917 27.8633 36.4052 27.758 36.4474 27.663C36.4879 27.5663 36.4952 27.459 36.4682 27.3578C36.422 27.121 36.372 26.8838 36.3152 26.6489C36.2801 26.47 36.2073 26.3007 36.1015 26.1523C36.0625 26.0998 36.0348 26.0399 36.0201 25.9762C36.0054 25.9126 36.004 25.8465 36.016 25.7823C36.0234 25.7227 36.0363 25.6635 36.0451 25.6034C36.085 25.3555 36.0921 25.1035 36.0664 24.8538C36.0539 24.7479 36.0002 24.703 35.8934 24.6989C35.8009 24.6956 35.7052 24.6989 35.6049 24.6989C35.5646 24.6466 35.5244 24.5907 35.48 24.5379C35.3852 24.4265 35.3173 24.4071 35.1836 24.4598C34.9961 24.5298 34.8331 24.653 34.7147 24.8145C34.6588 24.8917 34.6023 24.968 34.5441 25.0429C34.4474 25.1664 34.3295 25.2431 34.163 25.2075C34.0433 25.1821 33.9457 25.2302 33.8505 25.3C33.7381 25.3805 33.6192 25.4521 33.5041 25.528C33.4445 25.572 33.3724 25.5957 33.2983 25.5957C33.2242 25.5957 33.1521 25.572 33.0925 25.528C32.8752 25.3865 32.6569 25.2468 32.4359 25.1118C32.3678 25.0739 32.3093 25.0208 32.2649 24.9566C32.2206 24.8925 32.1916 24.819 32.1802 24.7419C32.1727 24.6817 32.1498 24.6246 32.1137 24.5759C32.0775 24.5273 32.0294 24.4889 31.9739 24.4644C31.872 24.4135 31.7917 24.3277 31.7478 24.2226C31.693 24.0946 31.5961 23.9892 31.4732 23.9238C31.2174 23.7768 31.1277 23.5539 31.1726 23.2649C31.2082 23.0337 31.2373 22.8025 31.2651 22.5713C31.2757 22.4871 31.2803 22.402 31.2877 22.3155C31.256 22.2936 31.2224 22.2746 31.1874 22.2587C31.1538 22.2494 31.1235 22.2309 31.0998 22.2053C31.0761 22.1798 31.06 22.1481 31.0533 22.1139C31.0015 21.8781 30.9242 21.646 30.9321 21.4004C30.9404 21.1415 30.9557 20.8825 30.9663 20.6231C30.9782 20.4505 31.0151 20.2805 31.0759 20.1186C31.1147 19.9845 31.1958 19.8666 31.3071 19.7824C31.4893 19.6511 31.5032 19.4684 31.4459 19.2714C31.428 19.2231 31.4054 19.1766 31.3784 19.1327C31.2396 18.8608 31.2442 18.5982 31.4477 18.3605C31.5402 18.2518 31.5573 18.1293 31.5578 17.9993C31.5597 17.9647 31.5534 17.93 31.5392 17.8983C31.5251 17.8666 31.5035 17.8388 31.4764 17.8171C31.3839 17.7422 31.2891 17.6659 31.204 17.5965C31.1046 17.6081 31.0311 17.6812 30.9266 17.6303C30.891 17.5757 30.8521 17.5082 30.8054 17.4453C30.7587 17.3824 30.7032 17.3283 30.6519 17.2701C30.624 17.2428 30.6022 17.21 30.5878 17.1737C30.5735 17.1375 30.567 17.0986 30.5687 17.0597C30.5761 16.9505 30.5284 16.8585 30.4706 16.7707C30.4244 16.6985 30.3781 16.6255 30.3319 16.5524C30.152 16.2713 30.257 16.1876 30.5377 16.1473C30.6301 16.1344 30.7277 16.1473 30.8225 16.1395C30.8815 16.1402 30.9391 16.1221 30.9871 16.0878C31.0351 16.0536 31.0709 16.0049 31.0893 15.9489C31.0408 15.8467 30.9969 15.7344 30.9349 15.6313C30.8995 15.5624 30.8465 15.5042 30.7814 15.4625C30.5964 15.3658 30.429 15.2035 30.1899 15.253C30.1813 15.253 30.1729 15.2508 30.1654 15.2465C30.1146 15.2243 30.0729 15.198 30.109 15.1171C30.189 15.0925 30.2792 15.0662 30.368 15.0366C30.3804 15.0324 30.3874 15.0121 30.4036 14.9903L30.3139 14.8539L30.4447 14.8077C30.4803 14.7101 30.4119 14.6162 30.4313 14.5275C30.4526 14.4313 30.5058 14.3425 30.5478 14.2445C30.5381 14.2311 30.5108 14.2107 30.5095 14.1894C30.4984 14.079 30.4984 13.9678 30.5095 13.8574C30.521 13.7793 30.5742 13.7071 30.607 13.6364L30.5201 13.5161L30.6801 13.45L30.9192 13.5397C30.9057 13.4274 30.8942 13.3349 30.8854 13.2419C30.8854 13.229 30.8993 13.2142 30.9071 13.2008C30.9455 13.1874 30.9834 13.247 31.0311 13.1911C30.9811 12.9136 30.73 12.8017 30.5354 12.6431L30.6278 12.5613C30.608 12.5372 30.6001 12.5187 30.5862 12.5118C30.5099 12.472 30.4336 12.4322 30.355 12.3976C30.3059 12.3802 30.2629 12.3488 30.2316 12.3072C30.2002 12.2655 30.1819 12.2156 30.1788 12.1636C30.1792 12.103 30.1694 12.0428 30.1497 11.9855C30.1189 11.925 30.0778 11.8704 30.0281 11.8242C30.0077 11.7991 29.9786 11.7826 29.9466 11.7781C29.9147 11.7735 29.8821 11.7812 29.8556 11.7996C29.8727 11.9268 30.0063 12.0262 29.9726 12.1751C29.9463 12.1842 29.9189 12.1895 29.8912 12.1909C29.8486 12.1865 29.8066 12.1768 29.7663 12.1622C29.5873 12.0968 29.4204 12.0021 29.2725 11.882C29.2452 11.8598 29.2156 11.8107 29.161 11.863C29.2069 11.9795 29.2784 12.0842 29.3704 12.1692C29.4623 12.2542 29.5722 12.3174 29.6919 12.3541C29.8416 12.3997 29.9718 12.4939 30.0618 12.6218C30.1535 12.7481 30.2652 12.8585 30.3925 12.9488C30.4133 12.964 30.4327 12.9816 30.4415 12.9885C30.453 13.063 30.4618 13.1212 30.4725 13.1906L30.3231 13.2831C30.2619 13.1531 30.1614 13.0456 30.0359 12.9756C29.9153 12.9127 29.7964 12.8419 29.6512 12.8591L29.6096 13.0033C29.5828 13.0103 29.5633 13.0214 29.5504 13.0181C29.3313 12.9672 29.1235 12.8764 28.9372 12.7504C28.7921 12.653 28.6843 12.5092 28.6316 12.3425C28.6108 12.2769 28.5974 12.2089 28.5765 12.1432C28.5229 11.9731 28.4346 11.8242 28.275 11.7363C27.9754 11.5712 27.8209 11.2674 27.592 11.0348C27.512 10.9534 27.5601 10.8498 27.6767 10.8207C27.727 10.8089 27.7785 10.8024 27.8302 10.8013C28.0203 10.7916 28.2109 10.8055 28.3976 10.8424C28.6695 10.8998 28.6704 10.8947 28.7083 11.1629C28.8059 11.236 28.9155 11.2179 29.0422 11.2027C29.0314 11.15 29.014 11.0988 28.9904 11.0505C28.9488 10.9881 29.0061 10.9358 28.9946 10.879C25.3095 9.19529 21.1524 9.19622 17.7337 10.5733C17.5806 10.9432 17.663 10.8642 17.2569 11.303L17.6329 11.2239C17.6403 11.334 17.669 11.4168 17.7758 11.4551C17.8525 11.4824 17.8877 11.5583 17.9029 11.6447L17.7281 11.8463C17.8142 11.9388 17.9002 11.9976 18.0121 11.9911C18.216 11.98 18.407 12.0373 18.5929 12.1062C18.8241 12.1913 19.0132 12.1441 19.1862 11.9781C19.3591 11.8121 19.5274 11.66 19.7004 11.5028C19.7438 11.463 19.7929 11.4306 19.8391 11.3946C19.8853 11.4514 19.8853 11.4995 19.8391 11.5402C19.7466 11.6202 19.6541 11.6956 19.5617 11.7761C19.3878 11.9324 19.3822 11.9476 19.5039 12.14C19.5359 12.1862 19.5535 12.2409 19.5543 12.2972C19.5552 12.3535 19.5392 12.4087 19.5085 12.4558C19.4127 12.6288 19.2828 12.7596 19.0923 12.8221C18.9448 12.8683 18.7987 12.9233 18.6507 12.9705C18.5189 13.0126 18.3848 13.0459 18.2539 13.0907C18.1055 13.1399 17.9705 13.223 17.8596 13.3333C17.7488 13.4437 17.6651 13.5783 17.6153 13.7266C17.5529 13.8939 17.5834 14.004 17.7184 14.1187C17.7579 14.1524 17.8008 14.1819 17.8465 14.2065C18.0315 14.299 18.2165 14.3915 18.4014 14.484C18.4768 14.5224 18.5707 14.527 18.6359 14.6167C18.5785 14.7069 18.5217 14.8017 18.4583 14.8942C18.3658 15.0283 18.3658 15.1688 18.4204 15.314C18.4288 15.341 18.4444 15.3651 18.4657 15.3836C18.4869 15.4022 18.5128 15.4146 18.5406 15.4194C18.5684 15.4242 18.5969 15.4212 18.6232 15.4108C18.6494 15.4003 18.6722 15.3829 18.6891 15.3603C18.7657 15.2771 18.8169 15.1738 18.8366 15.0625C18.8666 14.871 18.9804 14.7337 19.1339 14.6246C19.2047 14.5746 19.2773 14.5279 19.3471 14.4771C19.5455 14.3337 19.545 14.3332 19.4558 14.0974C19.4021 13.9564 19.3984 13.9346 19.514 13.8574C19.6745 13.7501 19.7364 13.6026 19.7452 13.4186C19.7535 13.356 19.7666 13.2941 19.7845 13.2336C19.9695 13.2799 20.1364 13.3187 20.3001 13.3723C20.3883 13.397 20.4683 13.4446 20.532 13.5103C20.5957 13.5761 20.6408 13.6575 20.6627 13.7464C20.6796 13.8134 20.7017 13.879 20.7288 13.9425C20.7557 13.9912 20.7867 14.0376 20.8213 14.0812C20.8631 14.0459 20.9028 14.008 20.9401 13.9679C20.9841 13.9148 21.016 13.8519 21.0608 13.8001C21.0732 13.782 21.0895 13.7669 21.1085 13.7561C21.1275 13.7452 21.1488 13.7388 21.1706 13.7373C21.1925 13.7358 21.2144 13.7393 21.2347 13.7476C21.255 13.7558 21.2732 13.7685 21.2879 13.7848C21.3255 13.8204 21.3584 13.8607 21.3859 13.9046C21.489 14.0687 21.5612 14.2435 21.5297 14.4433C21.508 14.582 21.5676 14.6745 21.6911 14.7346C21.8146 14.7947 21.9223 14.8493 22.0384 14.909C22.1002 14.9396 22.1599 14.9745 22.2169 15.0135C22.3181 15.0865 22.3616 15.1855 22.3209 15.308C22.2936 15.3899 22.2543 15.4671 22.2261 15.5485C22.2011 15.6188 22.1415 15.6821 22.1692 15.7612C22.227 15.8477 22.3255 15.8398 22.4004 15.8782C22.4754 15.9166 22.5475 15.9304 22.6141 15.9707C22.7732 16.0632 22.8111 16.2019 22.7311 16.3693C22.7255 16.3857 22.7166 16.4009 22.7051 16.414C22.6936 16.427 22.6796 16.4376 22.6639 16.4452C22.6483 16.4527 22.6313 16.4571 22.6139 16.4581C22.5965 16.459 22.5791 16.4565 22.5628 16.4507L22.0079 16.3258C21.9658 16.3161 21.9228 16.3101 21.8816 16.2971C21.8473 16.2898 21.8172 16.2692 21.7979 16.2399C21.7786 16.2106 21.7716 16.1748 21.7785 16.1404C21.7905 16.0729 21.8183 16.0086 21.8363 15.9425C21.8645 15.838 21.9288 15.7409 21.9126 15.6007C21.8405 15.6502 21.7822 15.6844 21.7304 15.7261C21.5454 15.8736 21.3582 15.9984 21.1195 16.0498C20.9147 16.096 20.8079 16.2551 20.7704 16.4585C20.7524 16.5566 20.7949 16.637 20.886 16.6615C21.027 16.7082 21.1803 16.7013 21.3165 16.6421C21.3613 16.6157 21.4076 16.592 21.4553 16.5714C21.4981 16.5649 21.5417 16.5641 21.5847 16.5691C21.5752 16.6076 21.5636 16.6455 21.5501 16.6828C21.5094 16.7781 21.422 16.8257 21.336 16.8613C21.0728 16.9709 20.8065 17.0722 20.5397 17.172C20.4959 17.1791 20.4512 17.1791 20.4074 17.172C20.4241 16.9871 20.6174 16.9538 20.6946 16.8164C20.6604 16.8044 20.6354 16.7855 20.616 16.7901C20.379 16.8399 20.1518 16.9285 19.9436 17.0523C19.8714 17.1006 19.8103 17.1636 19.7642 17.2372C19.6385 17.4258 19.4519 17.5655 19.2356 17.6331C18.9544 17.7276 18.7121 17.912 18.5462 18.1579C18.4976 18.2268 18.4634 18.3115 18.3945 18.3406H18.2299C18.2081 18.4816 18.1836 18.6088 18.1702 18.7373C18.155 18.9135 18.0579 19.0217 17.9057 19.0911C17.8193 19.1304 17.7305 19.1651 17.6449 19.2062C17.3711 19.3359 17.118 19.5054 16.894 19.7093C16.8434 19.7502 16.8054 19.8046 16.7846 19.8661C16.7637 19.9277 16.7607 19.9939 16.776 20.0571C16.8172 20.2518 16.8422 20.4492 16.8861 20.6425C16.9351 20.858 16.8884 21.0494 16.7806 21.2376C16.6109 21.2164 16.5319 21.1146 16.5032 20.9662C16.4921 20.907 16.5 20.8451 16.4916 20.7854C16.4657 20.5972 16.4454 20.4081 16.4052 20.2231C16.3756 20.0844 16.3229 20.0497 16.1841 20.065C16.1418 20.0719 16.0983 20.0674 16.0582 20.052C16.0181 20.0365 15.9829 20.0107 15.9562 19.9771C15.8912 19.906 15.8054 19.8575 15.7111 19.8384C15.576 19.8083 15.4387 19.7921 15.3014 19.7732C15.2502 19.7642 15.1978 19.7659 15.1474 19.7782C15.091 19.8006 15.0368 19.8281 14.9855 19.8606C14.9467 19.8453 14.906 19.8314 14.8676 19.8143C14.7673 19.7627 14.6566 19.7345 14.5439 19.7317C14.4311 19.729 14.3192 19.7519 14.2165 19.7986C14.1134 19.8448 14.0094 19.8851 13.9072 19.9313C13.8112 19.9723 13.7255 20.0341 13.6564 20.1123C13.5873 20.1906 13.5365 20.2832 13.5076 20.3836C13.3925 20.7535 13.2838 21.1276 13.1738 21.5003C13.1451 21.596 13.1356 21.6964 13.146 21.7958C13.1563 21.8952 13.1862 21.9915 13.2339 22.0793C13.3134 22.2314 13.4147 22.372 13.5113 22.5236C13.7592 22.4903 13.8646 22.6707 13.9904 22.8385C14.033 22.8027 14.0728 22.7636 14.1093 22.7216C14.2105 22.5828 14.3053 22.4367 14.4066 22.2966C14.4559 22.2261 14.5113 22.16 14.5721 22.0991C14.6564 22.022 14.7678 21.9813 14.882 21.9858C15.0008 21.9858 15.1215 22.0071 15.2093 22.1121C15.1493 22.1965 15.0952 22.2851 15.0475 22.3771C15.009 22.4828 14.9403 22.5749 14.85 22.642C14.8086 22.6666 14.7766 22.7044 14.7592 22.7493C14.7418 22.7943 14.7401 22.8438 14.7543 22.8899C14.7932 23.0365 14.7488 23.1618 14.6618 23.2792C14.6373 23.3125 14.6193 23.3504 14.5897 23.4004C14.6904 23.4323 14.7889 23.4706 14.8847 23.5151C14.933 23.5437 14.9868 23.5619 15.0425 23.5684C15.0983 23.575 15.1548 23.5697 15.2084 23.553C15.3638 23.503 15.4988 23.5595 15.6283 23.6302C15.7476 23.6959 15.7804 23.7823 15.7416 23.9141C15.7095 24.0216 15.6714 24.1272 15.6274 24.2304C15.466 24.6101 15.5252 24.955 15.7818 25.2727C15.9566 25.4887 16.0038 25.51 16.2623 25.392C16.4514 25.3056 16.61 25.3342 16.7709 25.4526C16.8588 25.5178 16.9388 25.5983 17.0544 25.6376C17.1363 25.5294 17.2204 25.4304 17.2912 25.3231C17.3781 25.1928 17.5038 25.093 17.6505 25.0378C17.8354 24.9634 18.0204 24.8894 18.2017 24.8126C18.2923 24.7707 18.3923 24.7533 18.4918 24.7623C18.5912 24.7713 18.6866 24.8064 18.7681 24.8639C18.949 24.9828 19.133 25.0952 19.3133 25.2149C19.4131 25.2849 19.5328 25.3209 19.6546 25.3176C19.8275 25.3106 20.0005 25.3106 20.173 25.2972C20.3462 25.284 20.5197 25.3184 20.6747 25.3967C20.7954 25.4558 20.8934 25.5382 20.9124 25.6829C20.9177 25.7306 20.9378 25.7755 20.9697 25.8113C21.0017 25.8471 21.0441 25.872 21.0909 25.8827C21.1154 25.8905 21.1399 25.8988 21.1649 25.9058C21.3245 25.9494 21.4655 26.0441 21.5662 26.1754C21.6536 26.2827 21.7452 26.3862 21.8368 26.4903C21.8781 26.5407 21.9314 26.5798 21.9919 26.6041C22.0524 26.6283 22.118 26.6369 22.1827 26.629C22.2259 26.6297 22.2691 26.6262 22.3117 26.6184C22.5646 26.5402 22.788 26.6156 23.0053 26.7418C23.0428 26.7636 23.0816 26.7825 23.1191 26.8033C23.3771 26.9472 23.532 27.1492 23.5625 27.4581C23.5758 27.6339 23.6328 27.8035 23.7283 27.9517C23.8238 28.0998 23.9549 28.2217 24.1096 28.3062C24.1396 28.3007 24.1609 28.303 24.1729 28.2937C24.3477 28.1582 24.5244 28.2012 24.7079 28.2775C24.8636 28.3334 24.9953 28.441 25.0811 28.5823C25.1394 28.6822 25.2272 28.7275 25.3447 28.6794C25.4714 28.6281 25.5796 28.6613 25.6795 28.7483C25.7127 28.7765 25.7526 28.7956 25.7954 28.8037C25.8382 28.8118 25.8824 28.8086 25.9236 28.7945C25.9816 28.7783 26.0406 28.7659 26.1003 28.7575C26.2202 28.7362 26.3437 28.7467 26.4582 28.7882C26.5727 28.8297 26.6743 28.9006 26.7528 28.9938C26.793 29.0401 26.8378 29.0803 26.8785 29.1247C26.9097 29.1607 26.9494 29.1885 26.9939 29.2056C27.0384 29.2226 27.0865 29.2283 27.1338 29.2223C27.2184 29.2139 27.3063 29.1931 27.3872 29.25C27.4899 29.4058 27.5148 29.5867 27.5259 29.7675C27.5351 29.854 27.5222 29.9415 27.4884 30.0217C27.4546 30.1019 27.401 30.1723 27.3326 30.2262C27.1911 30.3417 27.0727 30.4829 26.9835 30.6424C26.8633 30.8555 26.7273 31.0525 26.5174 31.1889C26.4882 31.2082 26.4656 31.2359 26.4527 31.2684C26.4398 31.3009 26.4372 31.3366 26.4452 31.3707C26.455 31.4391 26.4614 31.5094 26.4744 31.576C26.4966 31.6871 26.4875 31.8022 26.448 31.9085C26.3509 32.167 26.2547 32.4264 26.1428 32.6789C26.0739 32.8182 25.9952 32.9524 25.9075 33.0807C25.8591 33.1631 25.7911 33.2323 25.7095 33.2822C25.628 33.332 25.5354 33.361 25.4399 33.3665C25.3369 33.3763 25.2352 33.3979 25.1371 33.4308C24.884 33.5192 24.6412 33.6347 24.4129 33.7753C24.3371 33.8179 24.2721 33.8773 24.2229 33.949C24.1737 34.0206 24.1416 34.1026 24.129 34.1887C24.1224 34.2444 24.1034 34.298 24.0734 34.3454C24.0434 34.3929 24.0031 34.433 23.9556 34.4629C23.858 34.5209 23.7849 34.6125 23.7498 34.7204C23.7354 34.7697 23.7022 34.8112 23.6573 34.8361C23.4492 34.9133 23.3304 35.0793 23.2051 35.2476C23.0938 35.3987 22.9332 35.5062 22.7512 35.5517C22.5691 35.5971 22.3768 35.5775 22.2076 35.4964C22.1151 35.4534 22.0305 35.3896 21.9408 35.3378C21.8289 35.2735 21.717 35.2078 21.6009 35.1528C21.5699 35.1375 21.5246 35.1505 21.4525 35.1505C21.5061 35.2148 21.5306 35.267 21.5713 35.2892C21.6786 35.3435 21.7892 35.3909 21.9024 35.4312C22.1965 35.5389 22.302 35.7313 22.2363 36.0693L21.397 36.1877C21.3804 36.3033 21.366 36.4032 21.3508 36.5035C21.1958 36.5313 21.0599 36.4388 20.9013 36.4665C20.9378 36.6136 20.9702 36.744 21.0039 36.8827L20.7186 37.0737C20.782 37.1662 20.9101 37.1662 20.9572 37.2721C20.8648 37.3877 20.7473 37.4843 20.726 37.642C20.7723 37.7558 20.8735 37.8062 20.9753 37.8543C21.077 37.9024 21.1801 37.9468 21.2819 37.993C21.311 38.0069 21.3471 38.0221 21.3239 38.0892C21.0756 38.1021 20.819 38.1271 20.5748 38.0184C20.3223 37.9061 20.0749 37.7826 19.8238 37.6684C19.7485 37.6354 19.6816 37.5857 19.6282 37.5232C19.5748 37.4606 19.5362 37.3868 19.5154 37.3072C19.4183 36.9835 19.3106 36.6649 19.2185 36.3412C19.1214 36.0004 19.1089 35.6592 19.2583 35.3239C19.3056 35.2117 19.3105 35.0862 19.2722 34.9706C19.1449 34.4944 19.0674 34.0062 19.041 33.514C19.0239 33.2365 18.9947 32.9623 18.9836 32.6863C18.9842 32.6001 18.9611 32.5155 18.9169 32.4415C18.8727 32.3676 18.8091 32.3072 18.733 32.2668C18.4814 32.1156 18.2414 31.9431 18.0005 31.7771C17.6607 31.536 17.3791 31.2219 17.1765 30.8578C16.8653 30.3191 16.5397 29.7887 16.2211 29.2542C16.1901 29.2024 16.161 29.1492 16.1342 29.0951C16.1054 29.0463 16.0895 28.991 16.088 28.9344C16.0865 28.8778 16.0993 28.8217 16.1254 28.7714C16.2114 28.6183 16.2123 28.4616 16.1878 28.2946C16.1476 28.0172 16.2341 27.7823 16.4593 27.6075C16.5309 27.552 16.5841 27.4942 16.5818 27.3943C16.5795 27.2944 16.6373 27.2334 16.7122 27.1825C16.7409 27.1631 16.7709 27.146 16.7996 27.127C16.8401 27.1018 16.8736 27.0667 16.8969 27.0251C16.9201 26.9835 16.9325 26.9366 16.9328 26.8889C16.9393 26.7331 16.9527 26.5781 16.9554 26.4223C16.9602 26.3534 16.9511 26.2842 16.9286 26.2188C16.8463 26.02 16.7529 25.8253 16.6623 25.6297C16.6503 25.6071 16.6347 25.5866 16.616 25.5691C16.5988 25.5493 16.5747 25.5365 16.5486 25.5334C16.5224 25.5302 16.4961 25.5369 16.4745 25.552C16.4235 25.5852 16.3769 25.6246 16.3358 25.6695C16.2854 25.7259 16.2433 25.7897 16.1915 25.8577C16.0916 25.7721 16.0103 25.681 15.9099 25.6214C15.8008 25.5562 15.6736 25.5206 15.5543 25.4716C15.4956 25.3088 15.4979 25.3046 15.3578 25.2242C15.1741 25.1231 15.0374 24.9538 14.9772 24.753C14.9268 24.5971 14.8524 24.4496 14.7922 24.2961C14.7723 24.2389 14.7405 24.1866 14.6991 24.1424C14.6577 24.0982 14.6075 24.0631 14.5518 24.0395C14.457 23.9978 14.3668 23.9442 14.2716 23.9058C13.9992 23.7958 13.7698 23.6371 13.6242 23.3736C13.6107 23.3518 13.5952 23.3314 13.5779 23.3125C13.5346 23.2582 13.4801 23.2138 13.4181 23.1824C13.3561 23.1509 13.2881 23.1332 13.2186 23.1303C13.1668 23.128 13.1146 23.134 13.0633 23.1303C13.0025 23.1279 12.9429 23.1133 12.8878 23.0876C12.8327 23.0619 12.7832 23.0255 12.7423 22.9805C12.617 22.8493 12.4987 22.7115 12.3881 22.5676C12.3072 22.4538 12.2295 22.3433 12.1107 22.2647C12.0834 22.2467 12.0496 22.2161 12.0464 22.1884C12.0307 22.0538 11.9345 21.9771 11.8466 21.8957C11.7208 21.7791 11.7042 21.6529 11.7768 21.4985C11.9489 21.135 11.9752 20.7195 11.8503 20.3373C11.7713 20.0728 11.7116 19.8009 11.7324 19.5198C11.7367 19.4768 11.7302 19.4334 11.7135 19.3935C11.6413 19.2428 11.67 19.0888 11.6889 18.9348C11.6996 18.8506 11.7421 18.7692 11.6982 18.661C11.6723 18.7098 11.6515 18.7611 11.6362 18.8141C11.6085 18.9755 11.5789 19.1378 11.5669 19.301C11.5437 19.6201 11.5308 19.9396 11.5151 20.2592C11.5095 20.3715 11.51 20.4839 11.504 20.5963C11.5012 20.6425 11.4952 20.6915 11.4286 20.7049C11.3824 20.4312 11.3431 20.1667 11.2945 19.904C11.2607 19.7243 11.2862 19.5385 11.3671 19.3746C11.3992 19.3141 11.4174 19.2473 11.4203 19.179C11.4163 18.7888 11.4912 18.4019 11.6404 18.0414C11.6982 17.8967 11.7074 17.7565 11.626 17.6187C11.6006 17.5787 11.5854 17.533 11.5817 17.4856C11.5781 17.4383 11.5862 17.3908 11.6052 17.3473C11.7158 17.0662 11.8124 16.7795 11.9252 16.4992C12.0551 16.1659 12.246 15.8596 12.488 15.5961C12.6651 15.4061 12.8376 15.2118 13.0216 15.0297C13.2468 14.8058 13.4378 14.5672 13.4841 14.2398C13.4869 14.2228 13.4914 14.2061 13.4975 14.1899C13.583 13.937 13.7222 13.7247 13.9553 13.5818C14.1549 13.4578 14.3187 13.2837 14.4302 13.0768C14.5133 12.9142 14.6431 12.7801 14.8029 12.6917C14.9399 12.615 15.0515 12.5001 15.1243 12.361C15.2292 12.1724 15.3263 11.9795 15.4253 11.7876C15.4299 11.7784 15.4165 11.7603 15.4077 11.7344C15.3324 11.7779 15.2574 11.8181 15.1853 11.863C13.5946 12.8541 12.2201 14.1557 11.1437 15.69C9.45499 18.0767 8.56005 20.7318 8.45893 23.6552C8.44164 24.2949 8.46837 24.935 8.53893 25.571C8.80281 28.1879 9.77376 30.6838 11.3477 32.791C12.9217 34.8983 15.0394 36.5376 17.4738 37.5334C18.771 38.0628 20.1367 38.4053 21.5302 38.5507C22.1156 38.614 22.7038 38.6177 23.292 38.614C24.0704 38.6062 24.8466 38.5309 25.612 38.3888C26.795 38.18 27.9455 37.8167 29.0339 37.3082C31.8967 35.9597 34.1325 33.9325 35.6742 31.158C35.7059 31.108 35.7405 31.06 35.7778 31.0141L35.7681 30.9563L35.7764 31.0155ZM34.5741 15.9309C34.3101 15.7506 34.1187 15.4879 33.8639 15.3099C33.7358 15.3501 33.7358 15.3492 33.6664 15.4343C33.7062 15.4657 33.7487 15.4944 33.7848 15.5291C33.9152 15.6548 34.0484 15.7778 34.1709 15.911C34.2449 15.9919 34.3064 16.0877 34.2745 16.2195C34.2301 16.2164 34.187 16.2035 34.1483 16.1816C34.1096 16.1598 34.0762 16.1296 34.0507 16.0932C33.9249 15.9429 33.7501 15.874 33.5573 15.7566C33.5929 15.88 33.6202 15.9674 33.6433 16.0562C33.6692 16.1561 33.6932 16.2563 33.7154 16.3568C33.7348 16.4447 33.8079 16.521 33.7871 16.6232C33.5096 16.5575 33.4958 16.5408 33.4662 16.2907C33.4634 16.2652 33.4629 16.2389 33.4583 16.2134C33.4484 16.1402 33.4188 16.071 33.3726 16.0132C33.3264 15.9555 33.2654 15.9114 33.1961 15.8856C33.1563 15.8686 33.1154 15.8545 33.0736 15.8435C32.7963 15.7753 32.5353 15.6526 32.306 15.4824C32.2695 15.4619 32.2311 15.4452 32.1913 15.4324C32.164 15.6766 32.164 15.6766 31.9471 15.7177C31.7978 15.7455 31.7529 15.8787 31.8482 16.0081C31.8875 16.0613 31.9235 16.1168 31.9555 16.163C31.7959 16.4701 31.7959 16.4701 31.9291 16.7758C31.9445 16.8067 31.9578 16.8387 31.9689 16.8715C31.9898 16.9276 32.0033 16.9862 32.0091 17.0458C32.0142 17.284 31.9628 17.4944 31.7099 17.5942C31.6805 17.6027 31.6548 17.6206 31.6366 17.6452C31.6185 17.6698 31.609 17.6996 31.6096 17.7302C31.6129 17.7604 31.6245 17.7892 31.6432 17.8132C31.6619 17.8372 31.6869 17.8555 31.7155 17.8661C31.7553 17.8879 31.7996 17.9004 31.845 17.9026C31.8903 17.9048 31.9356 17.8967 31.9774 17.8789C32.0192 17.8611 32.0564 17.8341 32.0862 17.7998C32.1161 17.7656 32.1378 17.725 32.1497 17.6812C32.1573 17.6564 32.1629 17.631 32.1663 17.6053C32.1881 17.4624 32.2731 17.3783 32.4054 17.3279C32.4863 17.2989 32.5618 17.2565 32.6287 17.2026C32.7809 17.0699 32.945 16.9714 33.1577 16.957C33.1494 16.8992 33.1406 16.8571 33.1383 16.8146C33.1334 16.7846 33.1385 16.7538 33.1528 16.727C33.1671 16.7002 33.1898 16.6788 33.2174 16.6662C33.2418 16.6572 33.2681 16.655 33.2936 16.6599C33.3191 16.6648 33.3428 16.6766 33.3621 16.6939C33.5157 16.7979 33.6396 16.9219 33.6955 17.1101C33.7503 17.2808 33.8617 17.4276 34.0114 17.5263C34.0404 17.5192 34.0688 17.5095 34.096 17.4971C34.2301 17.4171 34.3429 17.456 34.4479 17.5545C34.4849 17.5892 34.527 17.6183 34.5681 17.6516L34.8789 17.5716C34.8373 17.4722 34.7933 17.3792 34.7591 17.2826C34.7289 17.2023 34.7063 17.1193 34.6916 17.0347C34.6876 17.0155 34.6887 16.9955 34.6946 16.9768C34.7006 16.9581 34.7112 16.9413 34.7256 16.9278C34.7399 16.9144 34.7575 16.9049 34.7765 16.9002C34.7956 16.8956 34.8156 16.8958 34.8345 16.9011C34.8932 16.9136 34.9487 16.939 35.007 16.9542C35.0994 16.9783 35.1896 17.0005 35.2946 16.9353C35.2738 16.7748 35.3043 16.6084 35.2151 16.4599C35.0994 16.2676 34.9838 16.0747 34.8567 15.8902C34.7536 15.7395 34.6759 15.7529 34.5737 15.9309H34.5741ZM32.9413 13.9638C33.0907 14.3374 33.4038 14.644 33.7131 14.7305C33.7358 14.638 33.7677 14.5455 33.6918 14.465C33.499 14.2583 33.3034 14.0549 33.1059 13.8472L32.9413 13.9638ZM32.2856 15.0107C32.3193 15.0896 32.369 15.1606 32.4316 15.2193C32.4941 15.2779 32.5682 15.323 32.6491 15.3515C32.7689 15.398 32.8917 15.4365 33.0167 15.4666C33.1684 15.4987 33.3102 15.5667 33.4301 15.665C33.4486 15.6817 33.4722 15.7265 33.5138 15.6761C33.4782 15.6206 33.4407 15.5637 33.4042 15.5064C33.3724 15.4551 33.3301 15.4111 33.28 15.3773C33.23 15.3435 33.1733 15.3207 33.1138 15.3103C32.9199 15.27 32.7359 15.1914 32.5728 15.0791C32.4946 15.0297 32.4105 14.9829 32.2852 15.0107H32.2856ZM28.7282 11.531C28.8096 11.5879 28.8632 11.6267 28.9183 11.6628C28.9474 11.6822 28.9788 11.6924 29.0057 11.6424C28.9446 11.5684 28.8873 11.488 28.7278 11.531H28.7282Z" fill="#091B32"/>
<path d="M7.26266 5.90152L7.04763 5.61436C7.2719 5.40858 7.50403 5.23193 7.74126 5.04003L7.9979 5.30453C8.1001 5.23563 8.19073 5.17089 8.2846 5.11124C8.6587 4.8731 9.06193 4.74593 9.51094 4.77414C9.76211 4.78577 10.0067 4.85796 10.224 4.98454C10.635 5.21808 10.9415 5.59962 11.0809 6.05134C11.2321 6.53689 11.1664 7.00809 10.9181 7.45202C10.8108 7.63949 10.6773 7.81076 10.5218 7.96068C10.4608 8.02079 10.4034 8.08507 10.3317 8.16137C10.3886 8.27697 10.5042 8.36252 10.5676 8.48136C10.4497 8.62934 10.0848 8.93315 9.87117 9.06078C9.82493 9.01037 9.78239 8.95812 9.73614 8.90725C9.6899 8.85639 9.64365 8.80968 9.5914 8.7528C9.50354 8.81199 9.42678 8.86564 9.34817 8.9165C8.99303 9.14771 8.61199 9.29291 8.18102 9.28644C7.92071 9.28435 7.66455 9.22098 7.43329 9.10147C6.9948 8.88126 6.66094 8.49689 6.50428 8.03189C6.34706 7.57779 6.39932 7.12925 6.61342 6.70012C6.73238 6.46908 6.88986 6.26 7.07908 6.08186L7.26266 5.90152ZM9.03603 8.09755C9.03603 8.08969 9.03881 8.07952 9.03603 8.07305C9.02549 8.04958 9.01231 8.02739 8.99673 8.00692C8.60861 7.53494 8.22018 7.06297 7.83144 6.59099C7.82541 6.58491 7.81815 6.58019 7.81016 6.57712C7.80245 6.5751 7.79453 6.57401 7.78657 6.57388C7.66782 6.65232 7.56748 6.75556 7.49243 6.87649C7.41739 6.99742 7.36942 7.13316 7.35185 7.27439C7.33427 7.41563 7.3475 7.55899 7.39061 7.69462C7.43373 7.83026 7.5057 7.95494 7.6016 8.0601C7.68997 8.16221 7.79866 8.24476 7.92073 8.30249C8.0428 8.36023 8.17557 8.39187 8.31056 8.39539C8.44554 8.39891 8.57978 8.37425 8.7047 8.32297C8.82961 8.27168 8.94246 8.19491 9.03603 8.09755V8.09755ZM8.52414 5.96811C8.91026 6.45226 9.29592 6.91515 9.67742 7.38173C9.71003 7.41811 9.74445 7.45284 9.78054 7.48577C10.2763 7.15607 10.3817 6.54521 10.0409 6.0814C9.66677 5.57459 9.02864 5.5154 8.52414 5.96811V5.96811Z" fill="#091B32"/>
<path d="M15.7324 47.2771C15.86 46.7185 15.9803 46.1913 16.1024 45.6618C16.2411 45.6341 16.3516 45.6923 16.4862 45.7016C16.5222 45.6554 16.5676 45.6091 16.6055 45.5513C16.9708 45.0181 17.2066 44.4272 17.3763 43.8071C17.4688 43.4575 17.5511 43.1042 17.639 42.7527C17.651 42.7065 17.6704 42.657 17.6885 42.6029C17.7243 42.5992 17.7604 42.5992 17.7962 42.6029C18.7289 42.8129 19.6611 43.0242 20.586 43.2337C20.6364 43.3261 20.598 43.4024 20.5818 43.4736C20.4403 44.1049 20.2937 44.7351 20.1485 45.3659C20.075 45.6854 20.0006 46.0045 19.928 46.324C19.9183 46.3661 19.9169 46.4096 19.9109 46.4558C20.0316 46.5719 20.2128 46.5215 20.3525 46.6237C20.3423 46.7966 20.2623 46.9603 20.217 47.1323C20.1707 47.3173 20.1083 47.4958 20.0519 47.6771C19.9987 47.8491 19.9442 48.0206 19.8873 48.2024C19.6246 48.2024 19.3962 48.1034 19.1432 48.0595C19.1756 47.7714 19.2639 47.518 19.3074 47.2442C19.2638 47.2168 19.2173 47.1945 19.1687 47.1776C18.4044 47.0016 17.6396 46.8273 16.8741 46.6546C16.851 46.6544 16.8278 46.6568 16.8052 46.662C16.7836 46.7026 16.7648 46.7447 16.7488 46.7878C16.6943 46.9603 16.6443 47.1346 16.5902 47.3076C16.575 47.3538 16.5504 47.4001 16.5259 47.4542C16.4334 47.4371 16.3474 47.4246 16.2647 47.4079C16.0987 47.3682 15.9326 47.3261 15.7324 47.2771ZM18.9671 46.2699C19.0544 46.054 19.4984 44.1123 19.522 43.851C19.1446 43.7585 18.7654 43.666 18.3807 43.5939C18.26 44.0064 18.1541 44.405 18.026 44.7962C17.8979 45.1874 17.6945 45.5499 17.4711 45.8981C17.6408 45.9901 18.2494 46.1395 18.9671 46.2699Z" fill="#091B32"/>
<path d="M19.5271 2.22111C19.6168 2.2507 19.6899 2.27336 19.7625 2.2988C20.0302 2.39227 20.2501 2.58776 20.3744 2.84267C20.4986 3.09759 20.517 3.39126 20.4256 3.6597C20.3635 3.83157 20.2554 3.98306 20.113 4.09761C19.8995 4.27511 19.6469 4.39937 19.3759 4.46015C19.0656 4.53414 18.7521 4.5961 18.4395 4.65992C18.1004 4.72897 17.7613 4.79571 17.4222 4.86014C17.3556 4.87263 17.2867 4.87309 17.2229 4.8791C17.1392 4.665 16.5293 1.65696 16.4062 0.848645C16.4476 0.824694 16.4915 0.80546 16.5371 0.791305C17.1295 0.672463 17.7214 0.550384 18.3151 0.442178C18.5869 0.384873 18.8683 0.39184 19.1368 0.462524C19.8952 0.679399 20.0756 1.62227 19.6307 2.09117C19.5979 2.12724 19.5692 2.16886 19.5271 2.22111ZM17.929 3.92605C18.0904 3.89692 18.2254 3.87426 18.3591 3.84744C18.6041 3.79843 18.8506 3.75496 19.0929 3.69346C19.1929 3.66797 19.2879 3.62593 19.3741 3.56907C19.5086 3.48028 19.5549 3.34294 19.5304 3.18433C19.5049 3.01832 19.4259 2.89624 19.2557 2.8426C19.1399 2.80604 19.0168 2.79921 18.8978 2.82272C18.5505 2.88931 18.2041 2.95497 17.8559 3.02341C17.8225 3.037 17.7913 3.05555 17.7634 3.07844C17.7917 3.23659 17.8171 3.38872 17.8467 3.54086C17.8684 3.65785 17.8962 3.77438 17.929 3.92605ZM17.5947 2.25764C17.6307 2.2692 17.6478 2.28169 17.6622 2.27891C17.9396 2.22573 18.2194 2.17672 18.4945 2.11337C18.6028 2.08709 18.7062 2.04353 18.8007 1.98435C18.8763 1.94084 18.9343 1.87232 18.9648 1.79061C18.9952 1.70889 18.9962 1.6191 18.9676 1.53673C18.9478 1.45653 18.9023 1.38499 18.8382 1.33299C18.774 1.28099 18.6946 1.25137 18.612 1.24864C18.5193 1.24164 18.4262 1.24583 18.3345 1.26112C18.0811 1.30737 17.8282 1.35361 17.5762 1.4091C17.5288 1.42588 17.4838 1.44856 17.4421 1.47661L17.5947 2.25764Z" fill="#091B32"/>
<path d="M34.0013 4.68813L31.224 6.15169C30.962 6.03171 30.7075 5.89597 30.4619 5.74522C30.6085 5.4243 30.7856 5.13066 30.9465 4.82824C31.1075 4.52582 31.2762 4.22155 31.4413 3.91773C31.6016 3.62179 31.7618 3.32568 31.9218 3.02943C32.0864 2.72746 32.2519 2.4255 32.424 2.1106C32.7139 2.21603 32.9507 2.38527 33.2156 2.51429C33.1578 2.69926 33.0561 2.84076 32.9784 2.99289C32.9007 3.14503 32.8147 3.29717 32.7324 3.44884C32.6458 3.60791 32.5591 3.76714 32.4725 3.92652C32.3902 4.07819 32.3051 4.22848 32.2256 4.38201C32.146 4.53553 32.0559 4.67472 31.9703 4.87818C32.3403 4.71264 32.6427 4.53645 32.9539 4.37646C33.2651 4.21646 33.5819 4.04952 33.8954 3.88583L34.8309 3.39474C35.0889 3.52976 35.334 3.65231 35.5633 3.79982C35.4593 4.06294 33.7086 7.27445 33.5814 7.43352C33.328 7.31653 33.0829 7.17688 32.8452 7.03861C32.8184 6.93965 32.8799 6.87954 32.9151 6.81434C33.2512 6.19146 33.5906 5.56996 33.9278 4.94755C33.9675 4.87448 34.0013 4.79726 34.0378 4.72235L34.0013 4.68813Z" fill="#091B32"/>
<path d="M23.5037 0.000816402C24.349 0.00960239 24.9658 0.282431 25.4153 0.890051C25.5798 1.10802 25.6986 1.35699 25.7644 1.622C25.8303 1.88701 25.8419 2.1626 25.7987 2.43222C25.6664 3.35706 25.1318 3.95405 24.2495 4.21763C23.4297 4.46271 22.4068 4.24121 21.8131 3.43799C21.4732 2.97557 21.3543 2.46691 21.4094 1.89859C21.5018 0.931669 22.2667 0.267633 22.9381 0.0896011C23.1569 0.0317985 23.3751 -0.00611991 23.5037 0.000816402ZM24.8697 2.14599C24.8461 2.0105 24.8368 1.86853 24.7957 1.74044C24.4766 0.732828 23.383 0.680574 22.8692 1.08519C22.5996 1.29395 22.422 1.59973 22.3744 1.93743C22.2473 2.72355 22.8059 3.5425 23.7617 3.44354C24.0308 3.42002 24.2826 3.30131 24.472 3.10874C24.7356 2.84424 24.8502 2.51823 24.8697 2.14599Z" fill="#091B32"/>
<path d="M15.5911 41.7557L16.3929 42.1571C16.3789 42.2087 16.3616 42.2593 16.3411 42.3087C15.7705 43.4515 15.199 44.594 14.6265 45.7362C14.6038 45.7824 14.5733 45.8222 14.5382 45.8782L13.7331 45.4754C13.9671 44.9667 14.2293 44.4941 14.4549 44.0063C14.288 43.8851 13.2526 43.3589 12.9826 43.2576C12.9493 43.3049 12.9184 43.3538 12.8901 43.4042C12.7051 43.7658 12.5253 44.1288 12.3426 44.4914C12.3084 44.5598 12.27 44.6264 12.2353 44.6907C12.0221 44.6352 11.5935 44.4229 11.4141 44.2837C12.0161 43.0836 12.6191 41.8813 13.223 40.6769C13.2339 40.6578 13.2459 40.6394 13.2591 40.6218C13.4903 40.6926 13.8936 40.8937 14.0679 41.0278C13.8506 41.5092 13.5888 41.9739 13.3622 42.471C13.8561 42.7272 14.3393 42.97 14.8392 43.2086C14.995 42.9746 15.0945 42.7277 15.2161 42.4928C15.3377 42.2579 15.4579 42.0188 15.5911 41.7557Z" fill="#091B32"/>
<path d="M4.9041 33.6472C5.02803 33.9362 5.19449 34.2077 5.33831 34.4902C5.48212 34.7728 5.64536 35.0451 5.78131 35.3466C5.5575 35.4955 5.32536 35.6019 5.08768 35.7277C5.04144 35.6574 5.00213 35.6037 4.97068 35.5427C4.74286 35.1163 4.51582 34.6894 4.28954 34.2618C4.24931 34.1869 4.20492 34.1138 4.1559 34.0278C3.88816 34.1263 3.6625 34.2826 3.40262 34.4042C3.43453 34.4777 3.45487 34.5318 3.48169 34.5832C3.75914 35.1094 4.03844 35.6356 4.31959 36.1619C4.35936 36.2368 4.39543 36.3135 4.43659 36.3963C4.38156 36.431 4.33949 36.4606 4.29417 36.4846C4.11336 36.5817 3.93117 36.6775 3.76053 36.7676C3.73464 36.7565 3.72631 36.7538 3.71891 36.7496C3.71112 36.7456 3.70433 36.7399 3.69903 36.733C3.22736 35.8497 2.75615 34.9661 2.2854 34.0819C2.27572 34.0596 2.26843 34.0364 2.26367 34.0125C2.26876 34.001 2.27153 33.9927 2.2757 33.9853C2.2794 33.9774 2.28496 33.9706 2.29188 33.9654C3.44239 33.3528 4.59288 32.7406 5.74339 32.1286C5.78963 32.1046 5.83587 32.0856 5.89506 32.0583C5.92448 32.088 5.95081 32.1205 5.97367 32.1555C6.42869 33.0088 6.88279 33.8626 7.33596 34.7168C7.34684 34.7429 7.35581 34.7698 7.36278 34.7973C7.27539 34.8976 7.14591 34.9318 7.03631 34.9961C6.92672 35.0604 6.8088 35.1163 6.7006 35.1728C6.61089 35.1482 6.59702 35.0733 6.56603 35.0155C6.29321 34.5069 6.0227 33.994 5.75033 33.4835C5.7101 33.4082 5.66616 33.3346 5.62547 33.263C5.36623 33.3522 5.12276 33.4819 4.9041 33.6472V33.6472Z" fill="#091B32"/>
<path d="M12.5971 40.1622L12.1 40.7675C12.0466 40.7386 11.9951 40.7064 11.9456 40.6713C11.4761 40.2893 11.0075 39.9064 10.5398 39.5226C10.4876 39.4801 10.4321 39.4412 10.3683 39.3932C10.1795 39.5928 10.0046 39.805 9.8448 40.0285L11.3389 41.2558C11.2686 41.3811 11.1766 41.4713 11.0984 41.5707C11.0203 41.6701 10.9343 41.7695 10.8492 41.8717C10.7488 41.856 10.6938 41.7848 10.6291 41.733C10.2462 41.4227 9.86562 41.1097 9.48366 40.7985C9.4314 40.7559 9.37452 40.7189 9.30886 40.6717C9.12389 40.8905 8.94632 41.099 8.7743 41.3307L10.4968 42.7443C10.353 42.9806 10.1685 43.1605 10.0265 43.3455C9.99417 43.3556 9.98584 43.3612 9.97798 43.3603C9.9695 43.3586 9.96165 43.3546 9.95532 43.3487C9.19079 42.7272 8.42656 42.1054 7.66264 41.4833C7.62981 41.4565 7.59975 41.426 7.55859 41.388C7.57768 41.3501 7.59947 41.3137 7.62379 41.2789C8.44474 40.2751 9.266 39.2715 10.0876 38.2681C10.1093 38.2413 10.126 38.2107 10.1514 38.1724C10.195 38.1945 10.237 38.2195 10.2772 38.2473C11.0275 38.8595 11.7773 39.4724 12.5264 40.0859C12.5514 40.1099 12.575 40.1354 12.5971 40.1622V40.1622Z" fill="#091B32"/>
<path d="M42.0905 34.5008C41.8024 34.9808 41.5356 35.452 41.2549 35.938C41.4861 36.0994 41.7322 36.2219 41.9666 36.3634C42.2011 36.5049 42.429 36.6321 42.6547 36.7639C42.6061 36.9489 42.3583 37.3835 42.2015 37.5644L38.7093 35.539L38.6367 35.4959C38.7721 35.2263 38.9231 34.9647 39.089 34.7126C39.3428 34.8268 39.5639 34.9757 39.7951 35.1057C40.0263 35.2356 40.2575 35.3716 40.4855 35.5033C40.6163 35.348 41.205 34.3473 41.3271 34.074C41.2825 34.0393 41.2362 34.0068 41.1884 33.9769C40.8457 33.7762 40.5017 33.5774 40.1585 33.3757C40.0924 33.3369 40.0277 33.2953 39.9481 33.2463C40.0628 32.9688 40.2339 32.7353 40.375 32.468C40.4275 32.4843 40.4788 32.5044 40.5285 32.5281C41.6346 33.1675 42.7404 33.8081 43.8459 34.45C43.8874 34.4762 43.9275 34.5046 43.9661 34.535C43.8699 34.7662 43.6424 35.1524 43.5069 35.3105C43.038 35.0557 42.5784 34.7709 42.0905 34.5008Z" fill="#091B32"/>
<path d="M4.46579 30.4999C4.43897 30.2803 4.26649 29.6306 4.16707 29.3753C4.12314 29.3827 4.07459 29.3878 4.02834 29.3989C3.59136 29.4988 3.15575 29.6042 2.71784 29.7C2.35343 29.7781 1.97991 29.8052 1.60803 29.7804C1.47887 29.7721 1.35106 29.7493 1.227 29.7124C1.11853 29.6815 1.01737 29.629 0.929528 29.5583C0.84168 29.4875 0.76892 29.3998 0.715556 29.3004C0.57029 29.0473 0.49556 28.7599 0.499147 28.4681C0.732934 28.3959 0.973891 28.3494 1.21775 28.3293C1.24041 28.3895 1.26399 28.4426 1.2811 28.4977C1.34768 28.7085 1.49196 28.8214 1.70745 28.8644C1.89397 28.9013 2.08518 28.9083 2.27391 28.8852C2.78257 28.8255 3.27459 28.7002 3.768 28.5763C4.03527 28.5074 4.30024 28.4315 4.56706 28.3608C4.62348 28.346 4.68267 28.3414 4.74463 28.3312C4.76492 28.3628 4.78225 28.3963 4.79642 28.4311C5.04104 29.3379 5.28474 30.2447 5.53075 31.1594C5.48889 31.1806 5.44563 31.199 5.40127 31.2144C4.13516 31.5535 2.86889 31.8926 1.60248 32.2317C1.57393 32.2335 1.54527 32.2312 1.5174 32.2248C1.41844 31.9593 1.3685 31.68 1.28619 31.4132C1.35648 31.3268 1.45035 31.3272 1.5285 31.3059C2.25218 31.1085 2.97726 30.9161 3.70187 30.7224C3.89331 30.671 4.08522 30.6197 4.2762 30.5665C4.3414 30.5462 4.40475 30.5212 4.46579 30.4999Z" fill="#091B32"/>
<path d="M12.3892 2.3194C12.6153 2.21674 12.8192 2.12379 13.0236 2.03177C13.062 2.0142 13.1027 2.00125 13.1577 1.97998C14.2639 2.99484 15.3693 4.01324 16.4742 5.03519C16.3041 5.15635 15.9336 5.33022 15.6132 5.4412L14.8955 4.76838C14.3684 4.99126 13.8551 5.23542 13.333 5.46617C13.2789 5.64004 13.3261 5.81298 13.321 5.98362C13.3159 6.14639 13.321 6.31009 13.321 6.48812C13.0583 6.61482 12.7947 6.73875 12.5076 6.84973C12.4932 6.79834 12.4827 6.74594 12.4761 6.69297C12.4672 6.47717 12.4607 6.26138 12.4567 6.04558C12.4339 4.90494 12.4119 3.76431 12.3906 2.62367C12.3873 2.52702 12.3892 2.43269 12.3892 2.3194ZM14.2333 4.15798C13.9531 3.84122 13.4167 3.34643 13.2507 3.24655C13.2045 3.47776 13.2377 4.33694 13.3066 4.5774C13.6146 4.45162 13.9157 4.31567 14.2333 4.15798Z" fill="#091B32"/>
<path d="M41.317 38.8664C41.0928 39.106 40.8837 39.321 40.6641 39.5466L39.7517 39.1934C39.5978 39.3085 38.6942 40.2417 38.5328 40.4516C38.6313 40.7563 38.801 41.0393 38.9083 41.3431C38.726 41.5834 38.5155 41.8007 38.2813 41.9905C38.1717 41.8236 36.66 38.324 36.4912 37.8435L37.0489 37.2637C37.257 37.3053 40.874 38.663 41.317 38.8664ZM37.6228 38.3471C37.669 38.5645 38.0357 39.4005 38.1629 39.5957C38.3478 39.4616 38.7705 39.0149 38.8653 38.8428C38.4634 38.6708 38.0551 38.5173 37.6228 38.3471Z" fill="#091B32"/>
<path d="M23.1036 43.3357C23.3972 43.3223 23.6719 43.3168 23.9577 43.3195C24.5621 44.6786 25.16 46.0256 25.7611 47.3736C25.7679 47.4025 25.7703 47.4323 25.7685 47.4619C25.4642 47.4892 25.1674 47.4739 24.858 47.479C24.8275 47.424 24.7947 47.374 24.7711 47.3204C24.6883 47.1308 24.6097 46.9394 24.5269 46.7493C24.5001 46.6873 24.4649 46.6291 24.4289 46.5602L22.7036 46.5972C22.5612 46.8945 22.4724 47.2099 22.3337 47.5086C22.1861 47.5465 22.0391 47.5257 21.8934 47.5299C21.7478 47.534 21.6012 47.5299 21.4509 47.5299C21.4046 47.43 21.4685 47.3565 21.4971 47.2834C21.8458 46.4202 22.1966 45.557 22.5496 44.6939C22.6962 44.3346 22.8414 43.9743 22.988 43.6146C23.0213 43.5262 23.0592 43.4412 23.1036 43.3357ZM24.0668 45.7565C24.0076 45.498 23.6418 44.6522 23.5272 44.495C23.5127 44.5151 23.4999 44.5363 23.4888 44.5584C23.3433 44.9283 23.1984 45.2982 23.0541 45.6682C23.049 45.6979 23.049 45.7282 23.0541 45.7579L24.0668 45.7565Z" fill="#091B32"/>
<path d="M27.7331 0.570557C27.8278 0.593215 27.9111 0.610325 27.9929 0.632983C28.4239 0.7546 28.8554 0.876217 29.2877 1.00292C29.4965 1.0576 29.6968 1.14036 29.8833 1.24893C30.2241 1.45794 30.4553 1.75065 30.5307 2.14464C30.6195 2.60197 30.5048 3.02324 30.2278 3.38993C29.9707 3.73028 29.5994 3.85975 29.1883 3.89027C28.9551 3.90369 28.7214 3.87583 28.4979 3.80796C28.2829 3.74646 28.0669 3.6882 27.8362 3.623C27.8066 3.67395 27.7811 3.72713 27.7599 3.78207C27.6864 4.02992 27.6179 4.27963 27.5462 4.52841C27.5227 4.61026 27.494 4.69026 27.469 4.76749C27.284 4.76749 26.8882 4.66344 26.6006 4.54136C26.6117 4.48079 26.6182 4.4142 26.6362 4.35085C26.9753 3.15626 27.3163 1.96229 27.6591 0.768935C27.6752 0.706046 27.7053 0.642694 27.7331 0.570557ZM28.041 2.82162C28.2542 2.88405 28.4345 2.93769 28.6158 2.98902C28.6986 3.0126 28.7823 3.03526 28.8664 3.05237C28.9088 3.06055 28.9519 3.06412 28.995 3.063C29.2891 3.06023 29.5111 2.8822 29.5934 2.58486C29.672 2.30047 29.5712 2.06279 29.3048 1.90741C29.2678 1.88569 29.2289 1.86712 29.1888 1.85192C28.9251 1.76027 28.6567 1.68309 28.3846 1.62071C28.257 2.01423 28.1478 2.40082 28.041 2.82162Z" fill="#091B32"/>
<path d="M34.6585 43.0379L35.329 44.0663C35.083 44.2513 34.8342 44.4043 34.5933 44.5597C34.5771 44.5523 34.5693 44.5495 34.5619 44.5454C34.554 44.5416 34.547 44.5365 34.5411 44.5301C34.5193 44.5033 34.4976 44.4769 34.4786 44.4483L32.2979 41.1253C32.3313 41.0878 32.368 41.0533 32.4075 41.0222C32.8394 40.7369 33.2703 40.4497 33.7073 40.1723C33.8527 40.0789 34.0078 40.0014 34.1697 39.9411C34.7709 39.72 35.3905 39.8911 35.778 40.4243C35.9087 40.5968 36.0041 40.7934 36.0587 41.0028C36.1359 41.3195 36.0805 41.6196 35.9357 41.9059C35.8053 42.1613 35.6149 42.3814 35.3808 42.5473C35.2273 42.6582 35.0668 42.76 34.9091 42.8663L34.6585 43.0379ZM34.2053 42.3443C34.4365 42.193 34.6405 42.064 34.8389 41.9253C34.9164 41.8705 34.9852 41.8043 35.0428 41.7288C35.2772 41.418 35.1496 40.9427 34.7926 40.7873C34.7386 40.7593 34.6796 40.7422 34.619 40.737C34.5583 40.7319 34.4973 40.7387 34.4393 40.7572C34.3485 40.7835 34.2605 40.8188 34.1767 40.8627C33.97 40.9884 33.7697 41.1249 33.5681 41.2585C33.5556 41.2664 33.5515 41.2867 33.5339 41.3177C33.742 41.6543 33.9649 41.9896 34.2035 42.3466L34.2053 42.3443Z" fill="#091B32"/>
<path d="M45.1762 29.115C45.2062 29.1613 45.2317 29.1955 45.2516 29.2325C45.4994 29.6842 45.5648 30.2138 45.4342 30.7122C45.4091 30.8217 45.3782 30.9297 45.3417 31.0359C45.0273 31.9057 44.3933 32.3797 43.486 32.4657C42.4854 32.5582 41.536 31.8988 41.2387 30.9397C41.1334 30.5905 41.1221 30.2196 41.2059 29.8646C41.3534 29.1844 41.7145 28.6656 42.3591 28.3386C42.4669 28.4237 42.5168 28.5546 42.5903 28.6656C42.6639 28.7765 42.7351 28.8968 42.8109 29.0212C42.6967 29.1076 42.5922 29.183 42.4918 29.2635C42.2209 29.4803 42.0821 29.7721 42.0294 30.1074C41.9767 30.4426 42.0757 30.7386 42.2865 31.0017C42.619 31.4179 43.2775 31.6028 43.764 31.4539C44.0568 31.3661 44.3058 31.1711 44.4611 30.9077C44.6164 30.6444 44.6667 30.3322 44.6019 30.0334C44.563 29.8577 44.4946 29.688 44.4345 29.4979C44.4678 29.4688 44.5037 29.4428 44.5418 29.4202C44.7508 29.319 44.9542 29.2089 45.1762 29.115Z" fill="#091B32"/>
<path d="M31.1687 46.0764C30.7696 45.0591 30.3756 44.0566 29.9793 43.0481C29.8253 43.0513 29.7079 43.1299 29.5803 43.1743C29.4526 43.2187 29.3398 43.2696 29.2191 43.3163C29.0901 43.3662 28.9606 43.4138 28.8182 43.4675C28.7888 43.4282 28.763 43.3864 28.741 43.3426C28.6568 43.1359 28.5773 42.9264 28.501 42.7327C28.513 42.7068 28.5153 42.6985 28.5199 42.6915C28.5246 42.6846 28.5306 42.6758 28.538 42.673C29.5664 42.2698 30.595 41.8673 31.6237 41.4657C31.6459 41.4626 31.6685 41.4626 31.6908 41.4657C31.8202 41.6922 31.8928 41.9484 31.995 42.2055C31.8137 42.3211 31.614 42.3743 31.4249 42.4515C31.2357 42.5288 31.0577 42.599 30.8727 42.673C30.8385 42.7826 30.9005 42.8649 30.9333 42.9505C31.2649 43.8037 31.601 44.6554 31.9349 45.5077C31.9654 45.5863 31.9909 45.6672 32.0172 45.743C31.8438 45.8522 31.4336 46.0163 31.1687 46.0764Z" fill="#091B32"/>
<path d="M38.063 6.84334C37.687 7.26183 37.3324 7.68263 36.9698 8.09696C36.6073 8.51129 36.2628 8.91868 35.8919 9.33624C35.657 9.12492 35.4267 8.94735 35.208 8.72862C35.5645 8.29996 35.9262 7.89627 36.2804 7.48518C36.6346 7.07408 36.9902 6.66438 37.3513 6.24681C37.2625 6.12427 37.1474 6.04705 37.0461 5.95549C36.9449 5.86393 36.8362 5.77561 36.7335 5.68358C36.6309 5.59156 36.5194 5.51388 36.4191 5.39735L36.9573 4.77539C37.202 4.94232 37.4008 5.14533 37.6168 5.32521C37.8327 5.50509 38.0487 5.69515 38.2642 5.88381C38.4796 6.07248 38.6947 6.25699 38.9115 6.4438L39.5649 7.01073C39.4045 7.24194 39.2167 7.43015 39.0378 7.64194C38.9913 7.61817 38.9466 7.59097 38.9041 7.56055C38.7002 7.38668 38.4991 7.2105 38.2965 7.0357C38.2225 6.9742 38.1495 6.91501 38.063 6.84334Z" fill="#091B32"/>
<path d="M5.24374 38.8198C5.19749 38.7699 5.16189 38.7343 5.12952 38.6954C4.97553 38.5105 4.82293 38.3255 4.67773 38.1465C4.67995 38.1322 4.68321 38.1179 4.68745 38.104C4.69098 38.0962 4.696 38.0891 4.70224 38.0832C5.69645 37.2656 6.69081 36.4487 7.68532 35.6324C7.7385 35.5861 7.79445 35.5477 7.85919 35.4978C7.89224 35.5226 7.92318 35.5502 7.95167 35.5801C8.51213 36.2605 9.07166 36.9413 9.63026 37.6226C9.65153 37.649 9.66957 37.6786 9.69639 37.7174C9.61962 37.8358 9.49523 37.9024 9.39396 37.9916C9.29269 38.0809 9.19466 38.1549 9.08414 38.245C9.0379 38.1951 8.99166 38.1558 8.95559 38.1109C8.63652 37.7244 8.31807 37.3375 8.00023 36.9503C7.94058 36.8777 7.87816 36.8078 7.80741 36.7251C7.36626 37.0862 6.93944 37.4358 6.51263 37.7849C6.08581 38.1341 5.67795 38.4753 5.24374 38.8198Z" fill="#091B32"/>
<path d="M28.3354 44.6361C28.4076 44.9001 28.4639 45.1681 28.5042 45.4388C28.4704 45.4615 28.451 45.4851 28.4284 45.4879C27.8735 45.603 27.3153 45.7163 26.7475 45.8324C26.6291 45.5637 26.6249 45.2862 26.5449 45.0167C26.5863 44.9923 26.63 44.9722 26.6753 44.9565C27.1905 44.8483 27.7058 44.7418 28.2212 44.637C28.2592 44.6334 28.2974 44.6331 28.3354 44.6361Z" fill="#091B32"/>
<path d="M35.7765 31.0155L35.7695 30.9563L35.7792 31.0141L35.7765 31.0155Z" fill="#091B32"/>
<path d="M21.7861 11.0855C21.8402 10.9894 21.9216 10.9838 21.9979 10.975C22.0584 10.9711 22.1172 10.9543 22.1706 10.9255C22.2239 10.8968 22.2703 10.8569 22.3068 10.8086C22.3341 10.7752 22.3677 10.7475 22.4057 10.7271C22.4438 10.7067 22.4854 10.694 22.5283 10.6897C22.8252 10.6351 23.1207 10.5727 23.4176 10.5205C23.7588 10.4603 24.027 10.5806 24.2194 10.8677C24.2479 10.9109 24.2731 10.9562 24.2948 11.0032C24.315 11.0513 24.3459 11.0941 24.3851 11.1284C24.4244 11.1627 24.471 11.1876 24.5214 11.2011C24.638 11.2354 24.7402 11.3071 24.8122 11.4051C24.9362 11.5595 25.0633 11.7112 25.1956 11.8726C25.1854 11.9188 25.1396 11.8999 25.0985 11.8966C25.0305 11.8862 24.9618 11.8826 24.8931 11.886C24.8289 11.8939 24.7831 11.935 24.8053 12.0247C24.8443 12.0323 24.884 12.0354 24.9237 12.034C24.9829 12.0256 25.0397 11.9984 25.0989 11.9933C25.1359 11.9905 25.1946 12.0021 25.2094 12.0275C25.2409 12.0802 25.2002 12.1241 25.1526 12.1519C25.0485 12.2129 24.9449 12.2753 24.8376 12.3308C24.7271 12.3818 24.6352 12.4658 24.5745 12.5713C24.57 12.5788 24.5651 12.5861 24.5597 12.593C24.4099 12.809 24.3849 12.8242 24.0751 12.9066C24.0825 12.9563 24.0872 13.0065 24.089 13.0568C24.089 13.0985 24.089 13.1558 24.0659 13.1794C23.9618 13.2797 23.9826 13.3935 24.0016 13.5156C24.0179 13.6194 24.0125 13.7255 23.9859 13.8272C23.7655 13.8175 23.5491 13.7652 23.3487 13.6732C23.2202 13.6178 23.1125 13.5233 23.0407 13.4032C22.9112 13.1697 22.7933 12.9292 22.6735 12.6901C22.6546 12.6557 22.6488 12.6155 22.6573 12.5772C22.6659 12.5388 22.688 12.5048 22.7198 12.4816C22.7919 12.42 22.8604 12.3544 22.9251 12.2851C22.9394 12.2716 22.9507 12.2553 22.9582 12.2372C22.9658 12.219 22.9694 12.1995 22.9688 12.1799C22.9682 12.1603 22.9635 12.141 22.9549 12.1233C22.9464 12.1057 22.9341 12.09 22.9191 12.0774C22.871 12.0279 22.8167 11.9847 22.7577 11.9489C22.6384 11.8772 22.5451 11.7693 22.4913 11.6409C22.4775 11.609 22.4622 11.578 22.4451 11.5484C22.4099 11.4742 22.3594 11.4083 22.2968 11.3551C22.2342 11.3019 22.161 11.2627 22.0821 11.24C21.9831 11.2095 21.8597 11.2062 21.7861 11.0855Z" fill="#091B32"/>
<path d="M20.3812 11.4902C20.5356 11.5744 20.5356 11.5744 20.8172 11.5947C20.8493 11.66 20.8877 11.722 20.9319 11.7797C20.9881 11.833 21.0489 11.8811 21.1136 11.9235C21.1909 11.9827 21.2588 12.0507 21.2649 12.1547C21.2709 12.2588 21.3338 12.3254 21.4114 12.3859C21.557 12.4906 21.696 12.6041 21.8276 12.7258C21.7185 12.9187 21.6454 12.9538 21.478 12.8992C21.4457 12.8886 21.4151 12.871 21.3855 12.8581C21.356 12.8451 21.3217 12.835 21.2931 12.8239C21.2403 12.8701 21.2769 12.9029 21.3 12.9358C21.3347 12.9852 21.3749 13.0315 21.4054 13.0833C21.4249 13.109 21.4354 13.1405 21.4354 13.1728C21.4354 13.205 21.4249 13.2365 21.4054 13.2622L21.0498 13.2895L21.1187 13.4925C21.0554 13.4843 20.9926 13.4718 20.931 13.4551C20.7412 13.3895 20.5828 13.2552 20.4871 13.0786C20.4678 13.0496 20.459 13.0147 20.4623 12.98C20.4656 12.9452 20.4807 12.9126 20.5051 12.8877C20.5564 12.8294 20.6179 12.7809 20.6702 12.7235C20.7254 12.6571 20.7557 12.5734 20.7557 12.487C20.7557 12.4006 20.7254 12.3169 20.6702 12.2505C20.652 12.2319 20.6311 12.2163 20.6082 12.2042C20.5928 12.1962 20.576 12.1912 20.5587 12.1894C20.23 12.1432 20.2702 12.084 20.0653 12.3281C20.0256 12.3737 19.9804 12.4142 19.9308 12.4488C19.8925 12.4804 19.8459 12.5001 19.7966 12.5054C19.7472 12.5107 19.6974 12.5015 19.6533 12.4789C19.6533 12.4458 19.6588 12.413 19.6695 12.3818C19.6986 12.3291 19.7319 12.2789 19.7689 12.2315C19.8203 12.164 19.9012 12.1053 19.9201 12.0308C19.9391 11.9564 19.8975 11.8666 19.8799 11.7695C20.0325 11.6562 20.211 11.5758 20.3812 11.4902Z" fill="#091B32"/>
<path d="M19.2262 11.3271L18.5867 11.937C18.5487 11.9102 18.515 11.8908 18.4849 11.8635C18.4493 11.832 18.4063 11.81 18.3599 11.7996C18.3135 11.7891 18.2652 11.7906 18.2195 11.8039C18.143 11.8185 18.0658 11.8291 17.9883 11.8358C17.9985 11.7433 18.0072 11.6628 18.0183 11.5634C18.0863 11.4709 18.2537 11.4455 18.2958 11.2924L18.2237 11.1972C18.2315 11.181 18.2348 11.1616 18.2459 11.1537C18.4539 11.015 18.638 10.9558 18.9316 10.9377L18.8174 11.1861C18.8881 11.2124 18.9496 11.2365 19.0116 11.2582C19.0736 11.2799 19.1249 11.2957 19.2262 11.3271Z" fill="#091B32"/>
<path d="M29.4482 14.1326C29.2537 14.0515 29.075 13.9366 28.9205 13.7932C28.8667 13.7504 28.8047 13.7189 28.7383 13.7007C28.4873 13.6152 28.4766 13.6027 28.49 13.3308C28.4922 13.3218 28.4955 13.3131 28.4997 13.3049C28.5858 13.2693 28.6227 13.3451 28.6653 13.3895C28.7231 13.4492 28.7832 13.4505 28.8674 13.4223C28.9756 13.642 29.1809 13.7483 29.3945 13.8436C29.4495 13.8681 29.5037 13.8949 29.5587 13.9199C29.7011 13.9833 29.8361 14.0586 29.9083 14.2057L30.0599 14.1174C30.096 14.2339 30.1284 14.3375 30.1658 14.4577C30.0734 14.5812 29.9411 14.6857 29.8042 14.8064C29.7791 14.772 29.7573 14.7353 29.739 14.6968C29.7117 14.6108 29.6761 14.5493 29.5739 14.522C29.4791 14.4965 29.4029 14.3301 29.4149 14.2274C29.4224 14.1947 29.4336 14.1629 29.4482 14.1326V14.1326Z" fill="#091B32"/>
<path d="M17.9678 22.71C17.8679 22.7507 17.8161 22.7836 17.7611 22.7914C17.694 22.8007 17.6224 22.7836 17.5548 22.7863C17.3985 22.7924 17.3047 22.7253 17.2312 22.5833C17.1827 22.4812 17.1125 22.391 17.0253 22.3191C16.9381 22.2471 16.8361 22.1953 16.7267 22.1672C16.6429 22.1463 16.5628 22.1129 16.489 22.0682C16.3297 21.9612 16.1365 21.917 15.9466 21.9443C15.9013 21.9459 15.8561 21.9426 15.8115 21.9346C15.8208 21.8883 15.818 21.8509 15.836 21.8277C15.8589 21.8032 15.8894 21.7869 15.9225 21.7815C15.9568 21.7775 15.9916 21.7796 16.0252 21.7875C16.5269 21.8684 16.9962 22.0312 17.3953 22.3563C17.5263 22.469 17.6742 22.5603 17.8337 22.6268C17.8801 22.6516 17.9249 22.6794 17.9678 22.71V22.71Z" fill="#091B32"/>
<path d="M20.6748 11.1597C20.6931 11.1266 20.715 11.0956 20.74 11.0672C20.7969 11.0256 20.8061 10.983 20.783 10.9127C20.7488 10.8087 20.7719 10.7703 20.8704 10.7407C20.9528 10.7181 21.0369 10.7026 21.122 10.6945C21.1903 10.6914 21.2562 10.6684 21.3115 10.6283C21.3609 10.5965 21.4188 10.5804 21.4776 10.5821C21.6921 10.577 21.9071 10.5821 22.1222 10.5821C22.1273 10.6593 22.0727 10.6579 22.0403 10.6746C21.8896 10.7564 21.7277 10.8212 21.5876 10.9178C21.3208 11.1028 21.0286 11.1652 20.6748 11.1597Z" fill="#091B32"/>
<path d="M17.8877 23.2222C17.9506 23.1635 17.9506 23.1635 18.2974 23.1186L18.1545 22.85C18.4468 22.8227 18.8324 22.966 19.1811 23.2236C19.1732 23.2699 19.1408 23.2662 19.1062 23.2592C18.9534 23.2333 18.797 23.239 18.6465 23.2759C18.3932 23.3236 18.1318 23.3051 17.8877 23.2222V23.2222Z" fill="#091B32"/>
<path d="M28.541 14.3036L28.7722 14.1708V14.0109C28.8289 13.9888 28.8918 13.9889 28.9484 14.0111C29.0051 14.0333 29.0513 14.0759 29.0779 14.1306C29.1348 14.2254 29.1856 14.3234 29.2346 14.4224C29.2527 14.4609 29.2639 14.5022 29.2679 14.5445C29.275 14.5831 29.2664 14.6228 29.2441 14.6551C29.2218 14.6873 29.1877 14.7094 29.1491 14.7165C29.0741 14.7252 28.9982 14.7207 28.9248 14.7031C28.8925 14.6957 28.8448 14.6425 28.8476 14.6152C28.8619 14.4821 28.781 14.434 28.6793 14.3933C28.6308 14.3672 28.5846 14.3372 28.541 14.3036V14.3036Z" fill="#091B32"/>
<path d="M26.1871 12.8975C25.991 12.8725 25.8172 12.8244 25.7117 12.6547C25.704 12.6407 25.6995 12.6251 25.6985 12.6091C25.6974 12.5932 25.6999 12.5771 25.7057 12.5622C25.7155 12.5494 25.7284 12.5393 25.7432 12.5329C25.7581 12.5266 25.7743 12.5243 25.7903 12.5262C25.9656 12.6001 26.1242 12.5437 26.2893 12.4845C26.4632 12.4217 26.5871 12.4734 26.6592 12.62C26.6699 12.6391 26.6731 12.6614 26.6684 12.6827C26.6638 12.704 26.6514 12.7228 26.6338 12.7356C26.5658 12.7884 26.2486 12.8984 26.1871 12.8975Z" fill="#091B32"/>
<path d="M26.0154 10.7086C25.9736 10.7092 25.9318 10.7058 25.8906 10.6984C25.6483 10.6078 25.4064 10.5153 25.165 10.421C25.1401 10.4135 25.1172 10.4006 25.098 10.3831C25.0772 10.3586 25.0518 10.3239 25.0518 10.298C25.0568 10.2823 25.0657 10.2681 25.0777 10.2567C25.0896 10.2453 25.1043 10.2371 25.1202 10.2328C25.1968 10.2212 25.2748 10.2212 25.3514 10.2328C25.6289 10.285 25.8388 10.4344 26.0154 10.7086Z" fill="#091B32"/>
<path d="M19.6387 23.3704C19.8075 23.2289 19.9624 23.2529 20.1344 23.2483C20.1261 23.282 20.1135 23.3145 20.0969 23.3449C20.0728 23.3752 20.0415 23.399 20.0059 23.4141C19.9703 23.4293 19.9315 23.4354 19.893 23.4319C19.8068 23.4178 19.7218 23.3972 19.6387 23.3704V23.3704Z" fill="#091B32"/>
</svg>
