<?xml version="1.0" encoding="utf-8"?>
<!-- Generator: Adobe Illustrator 25.2.0, SVG Export Plug-In . SVG Version: 6.00 Build 0)  -->
<svg version="1.1" id="Шар_1" xmlns="http://www.w3.org/2000/svg" xmlns:xlink="http://www.w3.org/1999/xlink" x="0px" y="0px"
	 viewBox="0 0 20 12" style="enable-background:new 0 0 20 12;" xml:space="preserve">
<style type="text/css">
	.st0{fill:#C1272D;}
	.st1{fill:#006A44;}
	.st2{fill:#FDB913;}
</style>
<path class="st0" d="M2,0h16c1.1,0,2,0.9,2,2v8c0,1.1-0.9,2-2,2H2c-1.1,0-2-0.9-2-2V2C0,0.9,0.9,0,2,0z"/>
<path class="st1" d="M2,0h16c1.1,0,2,0.9,2,2v6H0V2C0,0.9,0.9,0,2,0z"/>
<path class="st2" d="M2,0h16c1.1,0,2,0.9,2,2v2H0V2C0,0.9,0.9,0,2,0z"/>
</svg>
