<?xml version="1.0" encoding="utf-8"?>
<!-- Generator: Adobe Illustrator 25.2.0, SVG Export Plug-In . SVG Version: 6.00 Build 0)  -->
<svg version="1.1" id="Шар_1" xmlns="http://www.w3.org/2000/svg" xmlns:xlink="http://www.w3.org/1999/xlink" x="0px" y="0px"
	 viewBox="0 0 20 12" style="enable-background:new 0 0 20 12;" xml:space="preserve">
<style type="text/css">
	.st0{fill:#C1272D;}
	.st1{fill:#006A44;}
	.st2{fill:#FDB913;}
	.st3{fill:#FF0000;}
	.st4{fill:#006600;}
	.st5{fill-rule:evenodd;clip-rule:evenodd;fill:#FFFF00;}
	.st6{fill:#FFFFFF;}
	.st7{fill:#FFFF00;}
	.st8{fill:#003399;}
</style>
<path class="st0" d="M-24.1-0.3h16c1.1,0,2,0.9,2,2v8c0,1.1-0.9,2-2,2h-16c-1.1,0-2-0.9-2-2v-8C-26.1,0.6-25.2-0.3-24.1-0.3z"/>
<path class="st1" d="M-24.1-0.3h16c1.1,0,2,0.9,2,2v6h-20v-6C-26.1,0.6-25.2-0.3-24.1-0.3z"/>
<path class="st2" d="M-24.1-0.3h16c1.1,0,2,0.9,2,2v2h-20v-2C-26.1,0.6-25.2-0.3-24.1-0.3z"/>
<g>
	<path class="st3" d="M3.2,0H18c1.1,0,2,0.9,2,2v8c0,1.1-0.9,2-2,2H3.2V0z"/>
	<path class="st4" d="M2,0h6.2v12H2c-1.1,0-2-0.9-2-2V2C0,0.9,0.9,0,2,0z"/>
	<g>
		<g>
			<path class="st5" d="M10.5,7.9c-0.9,0-5-2.6-5-3l0.2-0.4c0.4,0.6,4.6,3.1,5,3L10.5,7.9"/>
			<path d="M10.5,7.9C10.5,7.9,10.5,7.9,10.5,7.9c-0.5,0-1.8-0.7-2.9-1.4c-1-0.6-2.2-1.4-2.2-1.7c0,0,0,0,0,0l0.2-0.4c0,0,0,0,0,0
				c0,0,0,0,0,0c0.2,0.3,1.4,1.1,2.5,1.8c1.3,0.8,2.3,1.3,2.5,1.3c0,0,0,0,0,0c0,0,0,0,0,0L10.5,7.9C10.5,7.9,10.5,7.9,10.5,7.9z
				 M5.5,4.8c0,0.2,0.9,0.9,2.2,1.7c1,0.6,2.4,1.4,2.8,1.4l0.2-0.4c-0.3,0-1.4-0.6-2.5-1.3C7.1,5.6,6,4.8,5.7,4.5L5.5,4.8z"/>
		</g>
		<g>
			<path class="st5" d="M5.7,4.4C5.6,4.6,6.8,5.3,8.1,6.2c1.4,0.9,2.6,1.4,2.7,1.3c0,0,0-0.1,0-0.1c0,0-0.1,0-0.1,0
				c-0.4-0.1-1.4-0.6-2.6-1.3C7,5.4,5.9,4.7,5.7,4.4C5.7,4.4,5.7,4.3,5.7,4.4L5.7,4.4L5.7,4.4L5.7,4.4L5.7,4.4L5.7,4.4z M10.6,7.9
				C10.5,7.9,10.5,7.9,10.6,7.9c-0.4,0-1.5-0.5-2.7-1.2C6.5,5.8,5.3,5,5.5,4.8l0-0.1l0,0C5.4,5.1,7.8,6.5,7.9,6.6
				C9.3,7.4,10.5,7.9,10.6,7.9L10.6,7.9L10.6,7.9L10.6,7.9z"/>
			<path d="M10.5,7.9C10.5,7.9,10.5,7.9,10.5,7.9c-0.4,0-1.4-0.6-2.6-1.3c-1.6-1-2.4-1.5-2.4-1.8c0,0,0,0,0-0.1l0-0.1c0,0,0,0,0,0
				l0,0c0,0,0,0,0,0c0,0,0,0,0,0c0,0.1,0.2,0.5,2.3,1.7c0,0,0.1,0,0.1,0.1c1.4,0.9,2.6,1.4,2.7,1.2c0,0,0,0,0,0c0,0,0,0,0,0
				L10.5,7.9C10.6,7.9,10.6,7.9,10.5,7.9C10.6,7.9,10.5,7.9,10.5,7.9z M5.5,4.8L5.5,4.8C5.5,4.8,5.5,4.8,5.5,4.8
				c0,0.3,0.8,0.9,2.4,1.8c1.2,0.7,2.2,1.2,2.6,1.3c0.1,0,0.1,0,0.1,0c0,0,0,0,0,0c0,0,0,0,0,0l0,0c-0.2,0.1-1.3-0.4-2.6-1.3
				c0,0,0,0-0.1-0.1C6.3,5.6,5.5,5,5.5,4.8z M10.8,7.5c-0.2,0-1.3-0.5-2.7-1.3C6.6,5.3,5.6,4.6,5.7,4.4c0,0,0,0,0,0l0,0l0-0.1
				c0,0,0,0,0,0l0,0c0,0,0,0,0,0c0,0,0,0,0,0c0,0,0,0.1,0,0.1c0.2,0.3,1.4,1.1,2.4,1.7C9.3,6.8,10.3,7.3,10.8,7.5
				C10.8,7.4,10.8,7.4,10.8,7.5C10.9,7.4,10.9,7.4,10.8,7.5C10.9,7.4,10.9,7.4,10.8,7.5C10.9,7.4,10.9,7.4,10.8,7.5L10.8,7.5
				C10.8,7.5,10.8,7.5,10.8,7.5C10.8,7.5,10.8,7.5,10.8,7.5z M5.7,4.4C5.6,4.6,7,5.4,8.1,6.2c1.4,0.9,2.6,1.4,2.7,1.3l0,0
				c0,0,0,0,0,0c0,0-0.1,0-0.1,0c-0.4-0.1-1.4-0.6-2.6-1.3C7.1,5.5,5.9,4.7,5.7,4.4C5.7,4.4,5.7,4.4,5.7,4.4L5.7,4.4z"/>
		</g>
		<g>
			<path class="st5" d="M8.2,5.1c0.9,0,2-0.1,2.6-0.4l-0.1-0.2c-0.4,0.2-1.5,0.3-2.5,0.4C7,4.8,6.2,4.7,5.7,4.4L5.6,4.7
				C6.4,5,7.2,5.1,8.2,5.1"/>
			<path d="M8.2,5.1C8.2,5.1,8.2,5.1,8.2,5.1c-1,0-1.8-0.1-2.6-0.4c0,0,0,0,0,0c0,0,0,0,0,0l0.1-0.2c0,0,0,0,0,0c0,0,0,0,0,0
				c0.4,0.3,1.2,0.4,2.5,0.4c0.9,0,2.1-0.1,2.5-0.4c0,0,0,0,0,0l0.1,0.2c0,0,0,0,0,0c0,0,0,0,0,0C10.2,5,9.1,5.1,8.2,5.1
				C8.2,5.1,8.2,5.1,8.2,5.1z M5.6,4.7C6.4,5,7.2,5.1,8.2,5.1c0,0,0,0,0,0c0.8,0,2-0.1,2.6-0.4l-0.1-0.2c-0.4,0.2-1.6,0.3-2.5,0.4
				c-1.3,0-2.1-0.1-2.5-0.4L5.6,4.7z"/>
		</g>
		<g>
			<path class="st5" d="M10.9,4.7c0,0-0.4,0.2-1.1,0.3c-0.4,0.1-1,0.1-1.6,0.1c-0.6,0-1.2,0-1.6-0.1C6,4.9,5.7,4.8,5.6,4.7
				c0,0,0,0,0-0.1c0.4,0.1,0.7,0.2,1.1,0.3C7.1,5,7.6,5,8.2,5C8.9,5,9.4,5,9.8,4.9C10.5,4.8,10.8,4.7,10.9,4.7L10.9,4.7L10.9,4.7
				L10.9,4.7z M10.8,4.5c-0.1,0.1-0.4,0.2-1,0.3C9.4,4.8,8.9,4.9,8.2,4.9c-0.6,0-1.1,0-1.5-0.1c-0.6-0.1-0.9-0.2-1-0.3
				c0,0,0,0,0-0.1c0.1,0,0.4,0.2,1,0.3c0.4,0.1,0.9,0.1,1.5,0.1c0.6,0,1.1-0.1,1.5-0.1C10.4,4.6,10.7,4.4,10.8,4.5L10.8,4.5
				L10.8,4.5L10.8,4.5z"/>
			<path d="M8.2,5.1c-0.5,0-1.1,0-1.6-0.1C6,4.9,5.7,4.8,5.6,4.7l0,0c0,0,0,0,0,0s0,0,0,0c0,0,0,0,0,0c0,0,0,0,0,0c0,0,0,0,0,0
				c0.3,0.1,0.7,0.2,1.1,0.3C7.2,5,7.7,5,8.2,5.1C8.2,5,8.2,5,8.2,5.1C8.8,5,9.3,5,9.8,4.9c0.6-0.1,1-0.2,1-0.3c0,0,0,0,0,0
				c0,0,0,0,0,0l0,0.1c0,0,0,0,0,0c0,0,0,0,0,0c0,0-0.5,0.2-1.1,0.3C9.3,5.1,8.8,5.1,8.2,5.1C8.2,5.1,8.2,5.1,8.2,5.1z M5.6,4.7
				L5.6,4.7C5.7,4.8,6,4.9,6.7,5c0.5,0.1,1,0.1,1.6,0.1c0.6,0,1.1,0,1.6-0.1c0.6-0.1,1-0.2,1-0.3l0-0.1c-0.1,0.1-0.4,0.2-1,0.3
				C9.3,5,8.8,5,8.2,5c0,0,0,0,0,0C7.7,5,7.2,5,6.7,4.9C6.3,4.9,5.9,4.8,5.6,4.7C5.6,4.7,5.6,4.7,5.6,4.7C5.6,4.7,5.6,4.7,5.6,4.7z
				 M8.2,4.9c-0.5,0-1.1,0-1.5-0.1c-0.5-0.1-0.8-0.2-1-0.2c0,0,0,0,0,0c0,0,0,0,0,0c0,0,0,0,0,0c0,0,0,0,0-0.1c0,0,0,0,0,0
				c0.1,0,0.4,0.2,1,0.3C7,4.7,7.5,4.8,8.2,4.9c0.7-0.1,1.2-0.1,1.6-0.2c0.6-0.1,0.9-0.2,1-0.3c0,0,0,0,0,0c0,0,0,0,0,0l0,0.1
				c0,0,0,0,0,0c0,0,0,0,0,0c-0.1,0.1-0.4,0.2-1,0.3C9.3,4.8,8.8,4.9,8.2,4.9C8.2,4.9,8.2,4.9,8.2,4.9z M5.7,4.5
				C5.7,4.5,5.7,4.5,5.7,4.5c0.2,0.1,0.5,0.2,1,0.3c0.4,0.1,1,0.1,1.5,0.1c0.5,0,1,0,1.6-0.1c0.6-0.1,0.9-0.2,1-0.3l0-0.1
				c-0.1,0-0.4,0.2-1,0.3c-0.3,0-0.8,0.1-1.5,0.1c0,0,0,0,0,0C7.5,4.8,7,4.7,6.7,4.7C6.1,4.6,5.8,4.5,5.7,4.5
				C5.7,4.5,5.7,4.5,5.7,4.5z M10.8,4.5L10.8,4.5L10.8,4.5z"/>
		</g>
		<g>
			<path class="st5" d="M5.3,6.2c0.6,0.3,1.8,0.5,2.9,0.5c1.1,0,2.4-0.2,2.9-0.4l0-0.3C11,6.1,9.5,6.4,8.2,6.4
				c-1.3,0-2.5-0.2-2.9-0.5L5.3,6.2"/>
			<path d="M8.2,6.6C8.2,6.6,8.2,6.6,8.2,6.6c-1,0-2.4-0.1-3-0.5c0,0,0,0,0,0l0-0.3c0,0,0,0,0,0c0,0,0,0,0,0
				c0.4,0.3,1.6,0.5,2.9,0.5c1.3,0,2.8-0.2,2.9-0.5c0,0,0,0,0,0c0,0,0,0,0,0l0,0.3c0,0,0,0,0,0C10.6,6.5,9.3,6.6,8.2,6.6z M5.3,6.2
				c0.6,0.3,1.9,0.4,2.9,0.5c0,0,0,0,0,0c1,0,2.4-0.2,2.9-0.4l0-0.3c-0.2,0.3-1.6,0.5-2.9,0.5c-1.3,0-2.5-0.2-2.9-0.5L5.3,6.2z"/>
		</g>
		<g>
			<path class="st5" d="M11.2,6.1L11.2,6.1c-0.1,0.2-0.6,0.3-1.2,0.4C9.6,6.6,9,6.7,8.2,6.7c-0.7,0-1.3-0.1-1.7-0.1
				C5.8,6.4,5.3,6.3,5.2,6.2l0-0.1c0.3,0.2,1,0.3,1.2,0.4c0.4,0.1,1,0.1,1.7,0.1c0.7,0,1.3-0.1,1.8-0.1C10.4,6.4,11.1,6.2,11.2,6.1
				L11.2,6.1L11.2,6.1z M11.2,5.9L11.2,5.9C11.1,6,10.6,6.2,10,6.3C9.6,6.3,9,6.4,8.2,6.4c-0.7,0-1.3-0.1-1.7-0.1
				C5.8,6.2,5.3,6,5.2,5.9l0-0.1c0.3,0.2,1,0.3,1.2,0.4c0.4,0.1,1,0.1,1.7,0.1c0.7,0,1.3-0.1,1.8-0.1C10.4,6.1,11.1,6,11.2,5.9
				L11.2,5.9L11.2,5.9z"/>
			<path d="M8.2,6.7c-0.6,0-1.2,0-1.7-0.1C5.8,6.4,5.3,6.3,5.2,6.2c0,0,0,0,0,0l0-0.1c0,0,0,0,0,0c0,0,0,0,0,0
				c0.3,0.2,1,0.3,1.2,0.4C7,6.5,7.6,6.6,8.2,6.7C8.9,6.6,9.5,6.5,10,6.5c0.4-0.1,1.1-0.2,1.2-0.3c0,0,0,0,0,0c0,0,0,0,0,0l0,0.1
				c0,0,0,0,0,0c-0.1,0.1-0.6,0.2-1.2,0.3C9.5,6.6,8.9,6.7,8.2,6.7z M5.2,6.2c0.1,0,0.5,0.2,1.2,0.3C7,6.6,7.6,6.6,8.2,6.6
				c0.7,0,1.3,0,1.8-0.1c0.6-0.1,1.1-0.2,1.2-0.3l0-0.1C11,6.3,10.4,6.4,10,6.5C9.5,6.6,8.9,6.6,8.2,6.6c-0.6,0-1.2,0-1.7-0.1
				C6.3,6.4,5.5,6.3,5.2,6.2L5.2,6.2z M8.2,6.4c-0.6,0-1.2,0-1.7-0.1C5.8,6.2,5.3,6,5.2,6c0,0,0,0,0,0l0-0.1c0,0,0,0,0,0
				c0,0,0,0,0,0c0.3,0.2,1,0.3,1.2,0.4C7,6.3,7.6,6.3,8.2,6.4C8.9,6.3,9.5,6.3,10,6.2c0.4-0.1,1.1-0.2,1.2-0.3c0,0,0,0,0,0
				c0,0,0,0,0,0c0,0,0,0,0,0l0,0.1c0,0,0,0,0,0C11.1,6,10.6,6.2,10,6.3C9.5,6.4,8.9,6.4,8.2,6.4z M5.2,5.9c0.1,0,0.5,0.2,1.2,0.3
				C7,6.4,7.6,6.4,8.2,6.4c0.7,0,1.3,0,1.8-0.1c0.6-0.1,1.1-0.2,1.2-0.3l0-0.1C11,6,10.4,6.2,10,6.2C9.5,6.3,8.9,6.3,8.2,6.3
				c-0.6,0-1.2,0-1.7-0.1C6.3,6.2,5.5,6.1,5.2,5.9L5.2,5.9z"/>
		</g>
		<g>
			<path class="st5" d="M8.2,7.8c-1.3,0-2.4-0.3-2.6-0.4l0.2,0.3c0.4,0.2,1.5,0.4,2.4,0.4c1,0,1.8-0.1,2.4-0.4l0.2-0.3
				C10.4,7.6,9,7.8,8.2,7.8"/>
			<path d="M8.1,8.1c-0.9,0-1.9-0.2-2.3-0.4c0,0,0,0,0,0L5.6,7.4c0,0,0,0,0,0c0,0,0,0,0,0c0,0,0.1,0,0.1,0c0.4,0.1,1.4,0.4,2.5,0.4
				c0.8,0,2.2-0.2,2.6-0.4c0,0,0,0,0,0c0,0,0,0,0,0l-0.2,0.3c0,0,0,0,0,0C10,8,9.1,8.1,8.2,8.1C8.2,8.1,8.1,8.1,8.1,8.1z M5.8,7.7
				c0.4,0.2,1.5,0.4,2.4,0.4C9.1,8,10,8,10.6,7.7l0.2-0.2C10.3,7.6,9,7.8,8.2,7.8c0,0,0,0,0,0c-1.1,0-2.1-0.3-2.5-0.4
				c0,0-0.1,0-0.1,0L5.8,7.7z"/>
		</g>
		<g>
			<path class="st5" d="M10.7,7.6c0,0-0.1,0.1-0.1,0.1C10.3,7.8,9.9,7.9,9.7,8C9.3,8,8.7,8.1,8.2,8.1c-1.1,0-2-0.2-2.5-0.4l0-0.1
				l0,0l0.1,0C6.5,7.9,7.4,8,8.2,8c0.5,0,1-0.1,1.5-0.1C10.3,7.8,10.6,7.7,10.7,7.6L10.7,7.6L10.7,7.6L10.7,7.6z M10.8,7.4
				C10.8,7.4,10.8,7.4,10.8,7.4c0,0,0,0.1-0.1,0.1c-0.1,0.1-0.6,0.2-1.1,0.3C9.2,7.8,9,7.8,8.2,7.8c-1.5,0-2.4-0.3-2.6-0.4l0-0.1
				c0.8,0.2,1.7,0.4,2.7,0.4c0.7,0,1-0.1,1.4-0.1C10.3,7.5,10.7,7.4,10.8,7.4C10.8,7.4,10.8,7.4,10.8,7.4L10.8,7.4L10.8,7.4
				L10.8,7.4z"/>
			<path d="M8.2,8.1c-1.1,0-2.1-0.2-2.5-0.4c0,0,0,0,0,0l0-0.1c0,0,0,0,0,0l0,0c0,0,0,0,0,0l0.1,0C6.5,7.9,7.3,8,8.2,8.1
				C8.2,8,8.2,8,8.2,8.1C8.8,8,9.3,8,9.7,7.9c0.7-0.1,0.9-0.2,1-0.3l0,0c0,0,0,0,0,0c0,0,0,0,0,0c0,0-0.1,0.1-0.1,0.1c0,0,0,0,0,0
				C10.3,7.8,9.9,7.9,9.7,8C9.3,8.1,8.7,8.1,8.2,8.1z M5.7,7.7c0.5,0.2,1.4,0.4,2.5,0.4C8.7,8.1,9.3,8,9.7,8c0.2,0,0.6-0.1,0.9-0.2
				c0,0,0-0.1,0.1-0.1c-0.1,0-0.3,0.1-1,0.3C9.3,8,8.8,8,8.2,8C7.3,8,6.4,7.9,5.7,7.7L5.7,7.7L5.7,7.7z M8.2,7.9
				C6.9,7.8,6,7.6,5.6,7.5c0,0,0,0,0,0l0-0.1c0,0,0,0,0,0c0,0,0,0,0,0C6.5,7.6,7.4,7.8,8.2,7.9c0.6-0.1,0.9-0.1,1.3-0.2
				c0,0,0.1,0,0.1,0c0.7-0.1,1-0.2,1.1-0.3l0,0c0,0,0,0,0,0c0,0,0,0,0,0l0.1,0c0,0,0,0,0,0l0,0c0,0,0,0,0,0c0,0,0,0,0,0
				c0,0,0,0.1-0.1,0.1c0,0,0,0,0,0c-0.2,0.1-0.6,0.2-1.2,0.3c-0.1,0-0.1,0-0.2,0C9.2,7.8,8.9,7.8,8.2,7.9z M5.6,7.4
				C6,7.6,6.9,7.8,8.2,7.8c0.7,0,0.9-0.1,1.2-0.1c0.1,0,0.1,0,0.2,0c0.5-0.1,0.9-0.2,1.1-0.3c0,0,0-0.1,0-0.1l0,0c0,0,0,0,0,0
				c0,0,0,0,0,0l0,0c-0.1,0-0.5,0.1-1.1,0.3c0,0-0.1,0-0.1,0c-0.3,0-0.6,0.1-1.3,0.1C7.4,7.8,6.5,7.6,5.6,7.4L5.6,7.4z"/>
		</g>
		<g>
			<path class="st5" d="M10.9,5.9c0,0.8-0.4,1.6-0.8,1.9C9.6,8.3,9,8.6,8.2,8.7c-0.8,0-1.6-0.5-1.9-0.8C5.9,7.4,5.6,6.8,5.6,6
				C5.6,5.1,6,4.4,6.5,4s1.2-0.7,1.8-0.6c0.7,0,1.4,0.3,2,1C10.6,4.8,10.8,5.2,10.9,5.9L10.9,5.9z M8.2,3c1.6,0,2.9,1.3,2.9,3
				c0,1.6-1.3,3-2.9,3S5.3,7.6,5.3,6S6.6,3,8.2,3"/>
			<path d="M8.2,9C6.6,9,5.3,7.6,5.3,6c0-1.6,1.3-3,2.9-3C9,3,9.7,3.3,10.3,3.9c0.6,0.6,0.9,1.3,0.9,2.1c0,0.8-0.3,1.5-0.9,2.1
				C9.7,8.7,9,9,8.2,9z M8.2,3.1c-1.6,0-2.9,1.3-2.9,3c0,1.6,1.3,3,2.9,3c1.6,0,2.9-1.3,2.9-3C11.1,4.4,9.8,3.1,8.2,3.1z M8.2,8.7
				c-0.9,0-1.6-0.6-1.8-0.8C5.8,7.3,5.6,6.7,5.6,6c0-0.8,0.4-1.5,0.9-2C7,3.6,7.7,3.3,8.3,3.3c0.7,0,1.5,0.4,2,1
				c0.3,0.4,0.5,0.9,0.6,1.6c0,0,0,0,0,0c0,0.8-0.4,1.6-0.8,1.9C9.6,8.4,8.9,8.7,8.2,8.7C8.2,8.7,8.2,8.7,8.2,8.7z M8.2,3.3
				C7.6,3.3,7,3.6,6.5,4C5.9,4.5,5.6,5.1,5.6,6c0,0.7,0.3,1.3,0.8,1.9c0.2,0.2,1,0.8,1.8,0.8c0,0,0,0,0,0c0.7,0,1.4-0.3,1.9-0.8
				c0.4-0.4,0.8-1.1,0.8-1.9c-0.1-0.7-0.2-1.2-0.6-1.6C9.8,3.7,9,3.4,8.2,3.3C8.3,3.3,8.3,3.3,8.2,3.3z"/>
		</g>
		<g>
			<path class="st5" d="M8.2,3c1.6,0,2.9,1.3,2.9,3c0,1.6-1.3,3-2.9,3C6.6,9,5.3,7.6,5.3,6S6.6,3,8.2,3L8.2,3z M5.3,6
				c0,1.6,1.3,2.9,2.9,2.9c1.6,0,2.9-1.3,2.9-2.9c0-1.6-1.3-2.9-2.9-2.9S5.3,4.4,5.3,6L5.3,6z"/>
			<path d="M8.2,9C6.6,9,5.3,7.6,5.3,6c0-1.6,1.3-3,2.9-3c1.6,0,2.9,1.3,2.9,3C11.2,7.6,9.8,9,8.2,9z M8.2,3C6.6,3,5.3,4.4,5.3,6
				c0,1.6,1.3,3,2.9,3c1.6,0,2.9-1.3,2.9-3C11.1,4.4,9.8,3,8.2,3z M8.2,8.9c-0.8,0-1.5-0.3-2-0.9C5.6,7.5,5.3,6.8,5.3,6
				c0-0.8,0.3-1.5,0.8-2.1c0.5-0.6,1.3-0.9,2-0.9c0.8,0,1.5,0.3,2,0.9c0.5,0.6,0.8,1.3,0.8,2.1c0,0.8-0.3,1.5-0.8,2.1
				C9.7,8.6,9,8.9,8.2,8.9z M8.2,3.1C6.6,3.1,5.3,4.4,5.3,6c0,1.6,1.3,2.9,2.9,2.9c1.6,0,2.9-1.3,2.9-2.9C11.1,4.4,9.8,3.1,8.2,3.1z
				"/>
		</g>
		<g>
			<path class="st5" d="M8.2,3.3c1.5,0,2.7,1.2,2.7,2.7c0,1.5-1.2,2.7-2.7,2.7S5.5,7.5,5.5,6C5.5,4.5,6.7,3.3,8.2,3.3L8.2,3.3z
				 M5.6,6c0,1.5,1.2,2.7,2.6,2.7s2.6-1.2,2.6-2.7c0-1.5-1.2-2.7-2.6-2.7C6.8,3.3,5.6,4.5,5.6,6L5.6,6z"/>
			<path d="M8.2,8.7c-0.7,0-1.4-0.3-1.9-0.8C5.8,7.4,5.5,6.7,5.5,6c0-0.7,0.3-1.4,0.8-1.9c0.5-0.5,1.2-0.8,1.9-0.8
				c0.7,0,1.4,0.3,1.9,0.8c0.5,0.5,0.8,1.2,0.8,1.9c0,0.7-0.3,1.4-0.8,1.9C9.6,8.4,8.9,8.7,8.2,8.7z M8.2,3.3C6.7,3.3,5.5,4.5,5.5,6
				c0,1.5,1.2,2.7,2.7,2.7s2.7-1.2,2.7-2.7C10.9,4.5,9.7,3.3,8.2,3.3z M8.2,8.7c-0.7,0-1.4-0.3-1.9-0.8C5.9,7.4,5.6,6.7,5.6,6
				c0-0.7,0.3-1.4,0.8-1.9c0.5-0.5,1.2-0.8,1.9-0.8c0.7,0,1.4,0.3,1.9,0.8c0.5,0.5,0.8,1.2,0.8,1.9c0,0.7-0.3,1.4-0.8,1.9
				C9.6,8.4,8.9,8.7,8.2,8.7z M8.2,3.4C6.8,3.4,5.6,4.5,5.6,6c0,1.5,1.2,2.6,2.6,2.6c1.4,0,2.6-1.2,2.6-2.6
				C10.8,4.5,9.7,3.4,8.2,3.4z"/>
		</g>
		<g>
			<path class="st5" d="M8.3,3H8.1l0,6h0.3L8.3,3z"/>
			<path d="M8.3,9H8.1c0,0,0,0,0,0l0-6c0,0,0,0,0,0c0,0,0,0,0,0h0.3c0,0,0,0,0,0L8.3,9C8.3,9,8.3,9,8.3,9C8.3,9,8.3,9,8.3,9z M8.1,9
				h0.2l0-6H8.1L8.1,9z"/>
		</g>
		<g>
			<path class="st5" d="M8.3,3L8.3,3l0.1,6H8.3L8.3,3L8.3,3z M8.1,3L8.1,3l0.1,6H8.1L8.1,3L8.1,3z"/>
			<path d="M8.1,9L8.1,9C8.1,9,8.1,9,8.1,9L8.1,3c0,0,0,0,0,0c0,0,0,0,0,0c0,0,0,0,0,0h0.1c0,0,0,0,0,0L8.1,9C8.1,9,8.1,9,8.1,9
				C8.1,9,8.1,9,8.1,9z M8.1,9L8.1,9l0-6h0V9z M8.4,9L8.4,9C8.3,9,8.3,9,8.4,9L8.3,3c0,0,0,0,0,0c0,0,0,0,0,0h0.1c0,0,0,0,0,0L8.4,9
				C8.4,9,8.4,9,8.4,9C8.4,9,8.4,9,8.4,9z M8.3,9L8.3,9l0-6h0L8.3,9z"/>
		</g>
		<g>
			<path class="st5" d="M11.2,6.1V5.9L11,5.7l-1-0.3L8.5,5.3L6.8,5.4L5.5,5.7L5.3,5.9v0.2l0.6-0.3l1.5-0.2h1.5l1.1,0.1l0.7,0.2
				L11.2,6.1z"/>
			<path d="M11.2,6.1C11.2,6.1,11.2,6.1,11.2,6.1l-0.5-0.2L9.9,5.7L8.9,5.6l-1.5,0L5.9,5.8L5.3,6.1c0,0,0,0,0,0c0,0,0,0,0,0V5.9
				c0,0,0,0,0,0l0.3-0.2c0,0,0,0,0,0l1.2-0.3l1.8-0.1L10,5.5l1,0.3c0,0,0,0,0,0l0.2,0.2c0,0,0,0,0,0L11.2,6.1
				C11.2,6.1,11.2,6.1,11.2,6.1C11.2,6.1,11.2,6.1,11.2,6.1z M8.9,5.6l1.1,0.1l0.7,0.2l0.5,0.2V5.9L11,5.7l-1-0.3L8.5,5.3L6.8,5.4
				L5.5,5.7L5.3,5.9v0.2l0.6-0.3c0,0,0,0,0,0l1.5-0.2L8.9,5.6z"/>
		</g>
		<g>
			<path class="st5" d="M8.2,5.5c0.7,0,1.4,0.1,1.9,0.2c0.6,0.1,0.9,0.3,1.1,0.4l0,0.1C11,6,10.5,5.9,10.1,5.8
				C9.6,5.7,8.9,5.6,8.2,5.5C7.5,5.6,6.8,5.7,6.3,5.8c-0.4,0.1-1,0.3-1,0.4V6.1c0-0.1,0.5-0.3,1-0.4C6.8,5.6,7.5,5.5,8.2,5.5
				L8.2,5.5z M8.2,5.3c0.7,0,1.4,0.1,1.9,0.2c0.6,0.1,0.9,0.3,1.1,0.4l0,0.1c-0.2-0.2-0.7-0.3-1.1-0.4C9.6,5.4,8.9,5.4,8.2,5.3
				C7.5,5.4,6.8,5.4,6.3,5.5c-0.4,0.1-1,0.3-1.1,0.4V5.9c0-0.1,0.5-0.3,1-0.4C6.8,5.4,7.5,5.3,8.2,5.3L8.2,5.3z"/>
			<path d="M5.2,6.2C5.2,6.2,5.2,6.2,5.2,6.2C5.2,6.2,5.2,6.2,5.2,6.2L5.2,6.2C5.2,6.1,5.2,6.1,5.2,6.2c0-0.2,0.5-0.4,1-0.5
				c0.6-0.1,1.3-0.2,1.9-0.2v0c0.7,0,1.3,0.1,1.9,0.2c0.6,0.1,0.9,0.3,1.1,0.4c0,0,0,0,0,0l0,0.1c0,0,0,0,0,0c0,0,0,0,0,0
				C11,6,10.4,5.9,10.1,5.8C9.5,5.7,8.9,5.6,8.2,5.6c-0.7,0-1.4,0.1-1.9,0.2C5.8,5.9,5.3,6.1,5.2,6.2C5.2,6.2,5.2,6.2,5.2,6.2z
				 M8.2,5.6c0.6,0,1.3,0.1,1.9,0.2C10.4,5.8,11,6,11.2,6.2l0-0.1c-0.1-0.1-0.5-0.3-1.1-0.4C9.5,5.6,8.9,5.6,8.2,5.6L8.2,5.6
				c-0.7,0-1.4,0-2,0.1c-0.6,0.1-1,0.3-1,0.4v0c0.1-0.2,0.7-0.3,1-0.4C6.8,5.7,7.5,5.6,8.2,5.6C8.2,5.6,8.2,5.6,8.2,5.6z M8.2,5.5
				L8.2,5.5L8.2,5.5z M5.2,6C5.2,6,5.2,6,5.2,6C5.2,6,5.2,5.9,5.2,6L5.2,6C5.2,5.9,5.2,5.9,5.2,6c0-0.2,0.5-0.4,1-0.5
				c0.6-0.1,1.3-0.2,1.9-0.2l0,0c0.7,0,1.3,0.1,1.9,0.2c0.6,0.1,0.9,0.3,1.1,0.4c0,0,0,0,0,0l0,0.1c0,0,0,0,0,0c0,0,0,0,0,0
				c-0.2-0.2-0.7-0.3-1.1-0.4C9.5,5.4,8.9,5.4,8.2,5.4c0,0,0,0,0,0c-0.7,0-1.4,0.1-1.9,0.2C5.8,5.6,5.3,5.8,5.2,6C5.2,6,5.2,6,5.2,6
				z M8.2,5.3c0.6,0,1.3,0.1,1.9,0.2c0.3,0.1,0.9,0.2,1.1,0.4l0-0.1c-0.1-0.1-0.5-0.3-1.1-0.4C9.5,5.4,8.9,5.3,8.2,5.3L8.2,5.3
				c-0.7,0-1.4,0-2,0.1c-0.6,0.1-1,0.3-1,0.4v0c0.1-0.2,0.7-0.3,1-0.4C6.9,5.4,7.5,5.3,8.2,5.3C8.2,5.3,8.2,5.3,8.2,5.3z"/>
		</g>
		<g>
			<path class="st5" d="M8.2,4c1.1,0,2,0.2,2.5,0.4l0.2,0.3c-0.4-0.2-1.4-0.4-2.6-0.4c-1,0-2.1,0.1-2.6,0.4l0.2-0.3
				C6.2,4.1,7.3,4,8.2,4"/>
			<path d="M5.6,4.7C5.6,4.7,5.6,4.7,5.6,4.7C5.6,4.7,5.6,4.7,5.6,4.7l0.2-0.3c0,0,0,0,0,0C6.2,4.1,7.3,4,8.2,4c0,0,0,0,0,0
				c1.1,0,2,0.1,2.5,0.4c0,0,0,0,0,0l0.2,0.3c0,0,0,0,0,0c0,0,0,0,0,0c-0.4-0.2-1.4-0.4-2.6-0.4C7.5,4.3,6.2,4.3,5.6,4.7
				C5.6,4.7,5.6,4.7,5.6,4.7z M5.8,4.3L5.6,4.6c0.6-0.3,1.9-0.4,2.6-0.4c1.2,0,2.2,0.2,2.6,0.4l-0.1-0.3C10.2,4.1,9.3,4,8.2,4
				c0,0,0,0,0,0C7.3,4,6.2,4.1,5.8,4.3z"/>
		</g>
		<g>
			<path class="st5" d="M8.2,4.2c0.6,0,1.2,0,1.7,0.1c0.4,0.1,0.9,0.2,0.9,0.3l0,0.1c-0.1-0.1-0.5-0.2-1-0.3
				C9.4,4.3,8.8,4.3,8.2,4.2C7.5,4.3,7,4.3,6.5,4.4C6,4.5,5.7,4.6,5.6,4.7l0-0.1C5.8,4.5,6,4.4,6.5,4.3C7,4.2,7.5,4.2,8.2,4.2
				L8.2,4.2L8.2,4.2z M8.2,4c0.6,0,1.2,0,1.6,0.1c0.4,0.1,0.7,0.2,0.9,0.3l0.1,0.1c-0.1-0.1-0.6-0.3-0.9-0.3C9.4,4.1,8.8,4,8.2,4
				C7.6,4,7,4.1,6.6,4.2C6.1,4.2,5.9,4.3,5.7,4.4l0.1-0.1C6,4.2,6.2,4.2,6.5,4.1C7,4,7.6,4,8.2,4L8.2,4z"/>
			<path d="M10.9,4.7C10.9,4.7,10.9,4.7,10.9,4.7c-0.1-0.1-0.5-0.2-1-0.3c-0.4-0.1-1-0.1-1.7-0.1c-0.7,0-1.3,0-1.7,0.1
				C6,4.5,5.7,4.6,5.6,4.7c0,0,0,0,0,0c0,0,0,0,0,0l0-0.1c0,0,0,0,0,0c0.2-0.1,0.5-0.2,0.9-0.3c0.4-0.1,0.9-0.1,1.7-0.1c0,0,0,0,0,0
				c0,0,0,0,0,0c0.7,0,1.2,0,1.7,0.1C10.4,4.4,10.8,4.5,10.9,4.7L10.9,4.7C10.9,4.7,10.9,4.7,10.9,4.7C10.9,4.7,10.9,4.7,10.9,4.7z
				 M8.3,4.3c0.7,0,1.2,0,1.7,0.1c0.5,0.1,0.8,0.2,1,0.3l0-0.1c-0.1-0.1-0.5-0.2-0.9-0.3C9.5,4.3,8.9,4.2,8.3,4.3
				C8.2,4.2,8.2,4.2,8.3,4.3c-0.8,0-1.3,0-1.8,0.1C6.1,4.4,5.8,4.5,5.6,4.6l0,0.1C5.7,4.6,6,4.5,6.5,4.4C7,4.3,7.5,4.3,8.3,4.3
				C8.2,4.3,8.2,4.3,8.3,4.3z M10.8,4.5C10.8,4.5,10.8,4.5,10.8,4.5c-0.1-0.1-0.6-0.3-1-0.3C9.4,4.1,8.9,4,8.2,4
				C7.6,4,7,4.1,6.6,4.2C6.2,4.2,5.9,4.3,5.7,4.4c0,0,0,0,0,0s0,0,0,0l0.1-0.1c0,0,0,0,0,0C6,4.2,6.2,4.1,6.5,4.1C7,4,7.6,4,8.2,4
				l0,0h0c0,0,0,0,0,0c0.6,0,1.2,0,1.6,0.1c0.4,0.1,0.7,0.2,0.9,0.3c0,0,0,0,0,0L10.8,4.5C10.8,4.5,10.8,4.5,10.8,4.5
				C10.8,4.5,10.8,4.5,10.8,4.5z M8.2,4c0.7,0,1.2,0,1.6,0.1c0.3,0.1,0.7,0.2,0.9,0.3l0-0.1c-0.1-0.1-0.5-0.2-0.8-0.3
				C9.4,4,8.9,4,8.2,4L8.2,4C7.6,4,7,4,6.6,4.1C6.2,4.2,6,4.2,5.8,4.3l0,0.1c0.1-0.1,0.4-0.2,0.8-0.2C7,4.1,7.6,4,8.2,4z"/>
		</g>
		<g>
			<path class="st5" d="M9.7,7.2C9.1,7.1,8.6,7.1,8.2,7.1c-1.8,0-2.4,0.4-2.5,0.5L5.6,7.4C6.1,7,7.1,6.9,8.2,6.9
				c0.6,0,1.1,0.1,1.6,0.1L9.7,7.2"/>
			<path d="M5.7,7.6C5.7,7.6,5.7,7.6,5.7,7.6C5.7,7.6,5.7,7.6,5.7,7.6L5.6,7.4c0,0,0,0,0,0C6.1,7,7,6.8,8.2,6.9
				c0.6,0,1.2,0.1,1.6,0.1c0,0,0,0,0,0c0,0,0,0,0,0L9.7,7.2c0,0,0,0,0,0C9.2,7.2,8.8,7.1,8.2,7.1C6.4,7.2,5.8,7.5,5.7,7.6
				C5.7,7.6,5.7,7.6,5.7,7.6z M5.6,7.4l0.1,0.2c0.1-0.1,0.8-0.5,2.5-0.5c0.5,0,1,0,1.5,0.1L9.8,7C9.4,6.9,8.9,6.9,8.2,6.9
				C7,6.9,6.1,7.1,5.6,7.4z"/>
		</g>
		<g>
			<path class="st5" d="M8.2,7.1c0.5,0,1,0,1.5,0.1l0,0.1C9.2,7.2,8.7,7.2,8.2,7.1C7.5,7.2,6.9,7.2,6.3,7.4C6.1,7.4,5.8,7.6,5.7,7.7
				l0-0.1c0-0.1,0.2-0.2,0.5-0.3C6.9,7.1,7.6,7.1,8.2,7.1L8.2,7.1L8.2,7.1z M8.2,6.8c0.5,0,1.1,0,1.6,0.1l0,0.1
				C9.3,6.9,8.9,6.9,8.2,6.8C7.6,6.9,6.8,7,6.2,7.1C6,7.2,5.6,7.3,5.6,7.4l0-0.1c0-0.1,0.3-0.2,0.6-0.3C6.8,6.9,7.5,6.8,8.2,6.8
				L8.2,6.8z"/>
			<path d="M5.7,7.7C5.7,7.7,5.7,7.7,5.7,7.7L5.7,7.7C5.7,7.6,5.7,7.6,5.7,7.7c0-0.1,0.2-0.3,0.5-0.4c0.6-0.2,1.3-0.2,2-0.2
				c0,0,0,0,0,0c0.5,0,1,0,1.5,0.1c0,0,0,0,0,0c0,0,0,0,0,0l0,0.1c0,0,0,0,0,0C9.2,7.2,8.8,7.2,8.2,7.2c-0.7,0-1.4,0.1-1.9,0.2
				C6.1,7.5,5.8,7.6,5.7,7.7C5.7,7.7,5.7,7.7,5.7,7.7C5.7,7.7,5.7,7.7,5.7,7.7z M5.7,7.6L5.7,7.6c0.1-0.1,0.4-0.2,0.6-0.2
				c0.5-0.2,1.2-0.2,1.9-0.2c0.6,0,1,0,1.4,0.1l0,0c-0.5-0.1-1-0.1-1.5-0.1c-0.7,0-1.3,0-2,0.2C5.9,7.4,5.7,7.6,5.7,7.6z M5.6,7.5
				C5.6,7.5,5.6,7.5,5.6,7.5L5.6,7.5C5.6,7.4,5.6,7.4,5.6,7.5c0-0.2,0.4-0.3,0.6-0.4c0.6-0.2,1.2-0.2,2.1-0.2c0,0,0,0,0,0
				c0.5,0,1.1,0,1.6,0.1c0,0,0,0,0,0c0,0,0,0,0,0l0,0.1c0,0,0,0,0,0c-0.5-0.1-1-0.1-1.6-0.1c-0.8,0-1.5,0.1-2,0.2
				C5.9,7.2,5.6,7.4,5.6,7.5C5.6,7.5,5.6,7.5,5.6,7.5C5.6,7.5,5.6,7.5,5.6,7.5z M5.6,7.4L5.6,7.4c0.1-0.1,0.6-0.2,0.6-0.2
				c0.6-0.2,1.2-0.2,2-0.2c0.6,0,1,0,1.6,0.1l0,0C9.3,6.9,8.7,6.9,8.2,6.8c-0.8,0-1.5,0.1-2.1,0.2C5.8,7.2,5.6,7.3,5.6,7.4z"/>
		</g>
		<g>
			<path class="st5" d="M10.8,7.4l-0.2,0.3L10,7.2L8.3,6.1l-1.8-1l-1-0.3l0.2-0.4l0.1,0l0.6,0.1l2,1l1.1,0.7l1,0.7L10.8,7.4
				L10.8,7.4z"/>
			<path d="M10.6,7.8C10.6,7.8,10.6,7.8,10.6,7.8L10,7.2L8.3,6.1l-1.8-1l-1-0.3c0,0,0,0,0,0c0,0,0,0,0,0l0.2-0.4c0,0,0,0,0,0l0.1,0
				c0,0,0,0,0,0l0.6,0.2l2,1l1.1,0.7l1,0.7l0.4,0.5c0,0,0,0,0,0l0,0.1c0,0,0,0,0,0L10.6,7.8C10.6,7.8,10.6,7.8,10.6,7.8
				C10.6,7.8,10.6,7.8,10.6,7.8z M5.6,4.7l0.9,0.3l1.8,1L10,7.2l0.6,0.6l0.2-0.3l0-0.1l-0.4-0.4L9.5,6.2L8.4,5.5l-2-1L5.8,4.3
				l-0.1,0L5.6,4.7z M10.8,7.4L10.8,7.4L10.8,7.4z"/>
		</g>
		<g>
			<path class="st5" d="M5.5,4.7C5.7,4.6,6.9,5.2,8.2,6c1.3,0.8,2.5,1.7,2.4,1.8l0,0.1l0,0c0,0,0,0,0-0.1C10.5,7.6,9.6,6.9,8.2,6
				C6.8,5.2,5.6,4.7,5.5,4.7L5.5,4.7L5.5,4.7L5.5,4.7z M10.9,7.4c0.1-0.2-1-1.1-2.5-1.9C7,4.7,5.9,4.2,5.7,4.3l0,0.1c0,0,0,0,0,0
				c0,0,0.1,0,0.1,0c0.3,0,1.3,0.4,2.6,1.2C9,5.9,10.8,7.1,10.9,7.4C10.8,7.5,10.8,7.5,10.9,7.4L10.9,7.4L10.9,7.4L10.9,7.4z"/>
			<path d="M10.5,7.9C10.5,7.9,10.5,7.9,10.5,7.9C10.5,7.9,10.5,7.9,10.5,7.9L10.5,7.9C10.5,7.9,10.6,7.9,10.5,7.9
				c-0.1-0.3-1-1-2.4-1.9C6.7,5.2,5.6,4.7,5.5,4.8c0,0,0,0,0,0c0,0,0,0,0,0l0-0.1c0,0,0,0,0,0C5.7,4.6,6.9,5.2,8.2,6
				c1.2,0.7,2.4,1.6,2.4,1.8C10.6,7.8,10.6,7.8,10.5,7.9L10.5,7.9C10.6,7.9,10.6,7.9,10.5,7.9L10.5,7.9C10.6,7.9,10.6,7.9,10.5,7.9
				C10.5,7.9,10.5,7.9,10.5,7.9z M5.5,4.8C5.9,4.8,7,5.3,8.2,6c1.4,0.9,2.3,1.6,2.4,1.8c0,0,0,0,0,0.1l0,0c0,0,0,0,0,0
				C10.5,7.5,9.3,6.7,8.2,6C6.9,5.2,5.7,4.6,5.5,4.8L5.5,4.8C5.5,4.8,5.5,4.8,5.5,4.8z M10.8,7.5C10.8,7.5,10.8,7.5,10.8,7.5
				C10.8,7.5,10.8,7.5,10.8,7.5L10.8,7.5C10.8,7.5,10.8,7.5,10.8,7.5L10.8,7.5c0-0.4-1.9-1.6-2.4-1.9C7.1,4.8,6.1,4.4,5.8,4.4l0,0
				c0,0-0.1,0-0.1,0c0,0,0,0,0,0c0,0,0,0,0,0c0,0,0,0,0,0c0,0,0,0,0,0l0-0.1c0,0,0,0,0,0c0.2-0.2,1.6,0.5,2.7,1.2
				C9.7,6.2,11,7.2,10.8,7.5C10.9,7.4,10.9,7.4,10.8,7.5L10.8,7.5C10.8,7.5,10.8,7.5,10.8,7.5C10.8,7.5,10.8,7.5,10.8,7.5z M5.8,4.3
				c0.3,0,1.3,0.4,2.6,1.2c0.4,0.2,2.4,1.5,2.4,1.9l0,0l0,0c0.1-0.2-1-1-2.5-1.9C6.9,4.6,5.9,4.2,5.8,4.3l-0.1,0
				C5.7,4.3,5.8,4.3,5.8,4.3L5.8,4.3z M10.9,7.4L10.9,7.4L10.9,7.4z"/>
		</g>
	</g>
	<g>
		<g>
			<path class="st6" d="M6.5,6.3c0,0.5,0.2,0.9,0.5,1.3c0.3,0.3,0.8,0.5,1.2,0.5c0.5,0,0.9-0.2,1.2-0.5C9.8,7.3,10,6.8,10,6.3h0V4
				L6.5,4L6.5,6.3L6.5,6.3L6.5,6.3z"/>
			<path d="M8.2,8.1C7.7,8.1,7.3,7.9,7,7.6C6.6,7.3,6.4,6.8,6.4,6.3l0,0l0-2.4l3.5,0l0,2.4c0,0.5-0.2,0.9-0.5,1.3
				C9.1,7.9,8.7,8.1,8.2,8.1z M6.5,6.3L6.5,6.3c0,0.5,0.2,0.9,0.5,1.3c0.3,0.3,0.8,0.5,1.2,0.5c0.5,0,0.9-0.2,1.2-0.5
				C9.8,7.2,10,6.8,10,6.3l0,0V4L6.5,4L6.5,6.3z"/>
		</g>
		<g>
			<path class="st3" d="M6.5,6.3L6.5,6.3c0,0.5,0.2,0.9,0.5,1.2C7.3,7.8,7.7,8,8.2,8c0.5,0,0.9-0.2,1.2-0.5c0.3-0.3,0.5-0.7,0.5-1.2
				h0V4L6.5,4L6.5,6.3 M9.2,4.7l0,1.5l0,0.2h0c0,0,0,0.1,0,0.1c0,0.2-0.1,0.4-0.3,0.6C8.7,7.2,8.5,7.4,8.2,7.4
				c-0.3,0-0.5-0.1-0.7-0.3C7.3,6.9,7.2,6.6,7.2,6.3l0-1.6L9.2,4.7L9.2,4.7L9.2,4.7z"/>
			<path d="M8.2,8C7.8,8,7.3,7.9,7,7.5C6.7,7.2,6.5,6.8,6.5,6.3l0,0h0l0-2.3l3.4,0l0,2.3c0,0.5-0.2,0.9-0.5,1.2C9.1,7.9,8.7,8,8.2,8
				z M6.5,6.3L6.5,6.3c0,0.5,0.2,0.9,0.5,1.2C7.3,7.9,7.8,8,8.2,8c0.4,0,0.9-0.2,1.2-0.5c0.3-0.3,0.5-0.7,0.5-1.2l0,0V4L6.5,4
				L6.5,6.3L6.5,6.3z M8.2,7.4c-0.3,0-0.5-0.1-0.7-0.3C7.3,6.9,7.2,6.6,7.2,6.3l0-1.6h0l2,0l0,0l0,0l0,1.5l0,0.2c0,0,0,0.1,0,0.1
				c0,0.2-0.1,0.4-0.3,0.6C8.7,7.3,8.5,7.4,8.2,7.4z M7.2,4.7l0,1.6c0,0.3,0.1,0.5,0.3,0.7C7.7,7.2,8,7.4,8.2,7.4
				c0.3,0,0.5-0.1,0.7-0.3c0.2-0.2,0.3-0.4,0.3-0.6c0,0,0-0.1,0-0.1l0-0.2l0-1.5L7.2,4.7z"/>
		</g>
		<g id="castle3">
			<g id="castle">
				<path class="st7" d="M6.7,4.6c0-0.2,0.1-0.2,0.1-0.2c0,0,0.1,0,0.1,0.2L6.7,4.6"/>
				<g>
					<path class="st7" d="M6.6,4.4l0,0.2l0.1,0c0-0.2,0.1-0.2,0.1-0.2c0,0,0.1,0,0.1,0.2h0.1l0-0.2L6.6,4.4L6.6,4.4L6.6,4.4z"/>
					<path d="M6.7,4.6l-0.1,0l0-0.2l0.5,0l0,0.2H7l0,0c0-0.1-0.1-0.2-0.1-0.2C6.9,4.4,6.7,4.5,6.7,4.6L6.7,4.6z M7,4.6h0.1l0-0.2
						l-0.2,0c0,0,0,0,0,0C7,4.5,7,4.5,7,4.6z M6.6,4.6l0.1,0c0-0.1,0-0.1,0.1-0.2c0,0,0,0,0,0l-0.2,0L6.6,4.6z"/>
				</g>
				<g>
					<path class="st7" d="M6.6,4.6h0.5c0,0,0,0,0,0c0,0,0,0,0,0L6.6,4.6C6.6,4.7,6.6,4.7,6.6,4.6C6.6,4.6,6.6,4.6,6.6,4.6z"/>
					<path d="M7.1,4.7H6.6c0,0,0,0,0,0c0,0,0,0,0,0L7.1,4.7C7.1,4.6,7.1,4.6,7.1,4.7C7.1,4.7,7.1,4.7,7.1,4.7z M6.6,4.6
						C6.6,4.6,6.6,4.6,6.6,4.6C6.6,4.7,6.6,4.7,6.6,4.6l0.5,0c0,0,0,0,0,0c0,0,0,0,0,0H6.6z"/>
				</g>
				<g>
					<path class="st7" d="M6.8,4.6c0-0.1,0.1-0.1,0.1-0.1c0,0,0.1,0,0.1,0.1H6.8"/>
					<path d="M6.9,4.6H6.8v0l0,0c0-0.1,0-0.1,0-0.1c0,0,0,0,0,0l0,0C6.9,4.5,6.9,4.5,6.9,4.6L6.9,4.6z M6.8,4.6h0.1
						c0-0.1-0.1-0.1-0.1-0.1C6.8,4.5,6.8,4.5,6.8,4.6z"/>
				</g>
				<g>
					<path class="st7" d="M6.6,4.4h0.5c0,0,0,0,0,0c0,0,0,0,0,0L6.6,4.4C6.6,4.4,6.6,4.4,6.6,4.4C6.6,4.4,6.6,4.4,6.6,4.4z"/>
					<path d="M7.1,4.4H6.6c0,0,0,0,0,0s0,0,0,0L7.1,4.4C7.1,4.3,7.1,4.4,7.1,4.4C7.1,4.4,7.1,4.4,7.1,4.4z M6.6,4.4
						C6.6,4.4,6.6,4.4,6.6,4.4C6.6,4.4,6.6,4.4,6.6,4.4l0.5,0c0,0,0,0,0,0s0,0,0,0H6.6z"/>
				</g>
				<g>
					<path class="st7" d="M6.6,4.4h0.5c0,0,0,0,0,0c0,0,0,0,0,0L6.6,4.4C6.6,4.4,6.6,4.4,6.6,4.4C6.6,4.4,6.6,4.4,6.6,4.4z"/>
					<path d="M7.1,4.4H6.6c0,0,0,0,0,0c0,0,0,0,0,0L7.1,4.4C7.1,4.4,7.1,4.4,7.1,4.4C7.1,4.4,7.1,4.4,7.1,4.4z M6.6,4.4
						C6.6,4.4,6.6,4.4,6.6,4.4C6.6,4.4,6.6,4.4,6.6,4.4l0.5,0c0,0,0,0,0,0c0,0,0,0,0,0H6.6z"/>
				</g>
				<g>
					<path class="st7" d="M6.8,4.1L6.8,4.1L6.8,4.1L6.8,4.1L6.8,4.1l0.1,0v0h0v0h0l0,0.1c0,0,0,0,0,0L6.8,4.1
						C6.8,4.2,6.8,4.1,6.8,4.1L6.8,4.1L6.8,4.1L6.8,4.1z"/>
					<path d="M6.9,4.2H6.8c0,0,0,0,0,0l0-0.1l0,0l0,0v0L6.9,4.2L6.9,4.2L6.9,4.2L6.9,4.2L6.9,4.2L6.9,4.2L6.9,4.2L6.9,4.2
						C7,4.1,6.9,4.2,6.9,4.2z M6.8,4.1L6.8,4.1C6.8,4.1,6.8,4.1,6.8,4.1l0.1,0.1c0,0,0,0,0,0l0-0.1h0v0L6.8,4.1L6.8,4.1L6.8,4.1
						L6.8,4.1L6.8,4.1L6.8,4.1L6.8,4.1z"/>
				</g>
				<g>
					<path class="st7" d="M6.9,4.2l0,0.2l-0.1,0l0-0.2L6.9,4.2"/>
					<path d="M6.9,4.4l-0.1,0l0-0.2l0.1,0L6.9,4.4z M6.8,4.3l0.1,0l0-0.2l-0.1,0L6.8,4.3z"/>
				</g>
				<g>
					<path id="cp1_1_" class="st7" d="M6.8,4.2l0,0.1l-0.1,0l0-0.1L6.8,4.2L6.8,4.2L6.8,4.2z"/>
					<path d="M6.6,4.4l0-0.1h0.1l0,0.1L6.6,4.4z M6.7,4.3L6.7,4.3l0.1,0.1l0-0.1L6.7,4.3z"/>
				</g>
				<g>
					<g>
						<path id="cp1_2_" class="st7" d="M7.1,4.2l0,0.1L7,4.4l0-0.1L7.1,4.2L7.1,4.2L7.1,4.2z"/>
						<path d="M6.9,4.4l0-0.1h0.1l0,0.1L6.9,4.4z M7,4.3L7,4.3l0.1,0.1l0-0.1L7,4.3z"/>
					</g>
				</g>
				<g>
					<path id="cp2_1_" class="st7" d="M6.6,4.2L6.6,4.2L6.6,4.2L6.6,4.2L6.6,4.2L6.6,4.2L6.6,4.2l0.1,0v0l0,0l0,0.1c0,0,0,0,0,0
						L6.6,4.2C6.6,4.2,6.6,4.2,6.6,4.2L6.6,4.2L6.6,4.2L6.6,4.2z"/>
					<path d="M6.8,4.3H6.6c0,0,0,0,0,0l0-0.1l0,0l0,0l0,0v0L6.8,4.3L6.8,4.3L6.8,4.3L6.8,4.3L6.8,4.3L6.8,4.3L6.8,4.3L6.8,4.3
						C6.8,4.2,6.8,4.3,6.8,4.3z M6.6,4.2L6.6,4.2C6.6,4.2,6.6,4.2,6.6,4.2l0.1,0.1c0,0,0,0,0,0l0-0.1l0,0v0L6.6,4.2L6.6,4.2L6.6,4.2
						L6.6,4.2L6.6,4.2L6.6,4.2L6.6,4.2z"/>
				</g>
				<g>
					<g>
						<path id="cp2_2_" class="st7" d="M6.9,4.2L6.9,4.2L6.9,4.2L6.9,4.2L6.9,4.2L6.9,4.2L6.9,4.2l0.1,0v0l0,0l0,0.1c0,0,0,0,0,0
							L6.9,4.2C6.9,4.2,6.9,4.2,6.9,4.2L6.9,4.2L6.9,4.2L6.9,4.2z"/>
						<path d="M7.1,4.3H7c0,0,0,0,0,0l0-0.1l0,0l0,0l0,0v0L7.1,4.3L7.1,4.3L7.1,4.3L7.1,4.3L7.1,4.3L7.1,4.3L7.1,4.3L7.1,4.3
							C7.1,4.2,7.1,4.3,7.1,4.3z M6.9,4.2L6.9,4.2C6.9,4.2,6.9,4.2,6.9,4.2l0.1,0.1c0,0,0,0,0,0l0-0.1l0,0v0L6.9,4.2L6.9,4.2
							L6.9,4.2L6.9,4.2L6.9,4.2L6.9,4.2L6.9,4.2z"/>
					</g>
				</g>
				<path d="M6.8,4.2C6.8,4.2,6.9,4.2,6.8,4.2L6.8,4.2L6.8,4.2L6.8,4.2"/>
				<path id="cp3" d="M6.7,4.3C6.7,4.3,6.7,4.3,6.7,4.3L6.7,4.3L6.7,4.3L6.7,4.3"/>
				<g>
					<path id="cp3_1_" d="M7,4.3C7,4.3,7,4.3,7,4.3L7,4.3L7,4.3L7,4.3"/>
				</g>
			</g>
			<g>
				<g id="castle_1_">
					<path class="st7" d="M6.7,6c0-0.2,0.1-0.2,0.1-0.2c0,0,0.1,0,0.1,0.2L6.7,6"/>
					<g>
						<path class="st7" d="M6.6,5.8l0,0.2l0.1,0c0-0.2,0.1-0.2,0.1-0.2c0,0,0.1,0,0.1,0.2h0.1l0-0.2L6.6,5.8L6.6,5.8L6.6,5.8z"/>
						<path d="M6.7,6L6.6,6l0-0.2l0.5,0l0,0.2H7l0,0c0-0.1-0.1-0.2-0.1-0.2C6.9,5.8,6.7,5.9,6.7,6L6.7,6z M7,6h0.1l0-0.2l-0.2,0
							c0,0,0,0,0,0C7,5.9,7,5.9,7,6z M6.6,6l0.1,0c0-0.1,0-0.1,0.1-0.2c0,0,0,0,0,0l-0.2,0L6.6,6z"/>
					</g>
					<g>
						<path class="st7" d="M6.6,6h0.5c0,0,0,0,0,0c0,0,0,0,0,0L6.6,6C6.6,6.1,6.6,6,6.6,6C6.6,6,6.6,6,6.6,6z"/>
						<path d="M7.1,6.1H6.6c0,0,0,0,0,0c0,0,0,0,0,0L7.1,6.1C7.1,6,7.1,6,7.1,6.1C7.1,6.1,7.1,6.1,7.1,6.1z M6.6,6
							C6.6,6,6.6,6,6.6,6C6.6,6,6.6,6.1,6.6,6l0.5,0c0,0,0,0,0,0c0,0,0,0,0,0H6.6z"/>
					</g>
					<g>
						<path class="st7" d="M6.8,6c0-0.1,0.1-0.1,0.1-0.1c0,0,0.1,0,0.1,0.1H6.8"/>
						<path d="M6.9,6H6.8v0l0,0c0-0.1,0-0.1,0-0.1c0,0,0,0,0,0c0,0,0,0,0,0C6.9,5.9,6.9,5.9,6.9,6L6.9,6z M6.8,6h0.1
							c0-0.1-0.1-0.1-0.1-0.1C6.8,5.9,6.8,5.9,6.8,6z"/>
					</g>
					<g>
						<path class="st7" d="M6.6,5.7h0.5c0,0,0,0,0,0c0,0,0,0,0,0L6.6,5.7C6.6,5.8,6.6,5.8,6.6,5.7C6.6,5.8,6.6,5.7,6.6,5.7z"/>
						<path d="M7.1,5.8H6.6c0,0,0,0,0,0c0,0,0,0,0,0L7.1,5.8C7.1,5.7,7.1,5.7,7.1,5.8C7.1,5.8,7.1,5.8,7.1,5.8z M6.6,5.7
							C6.6,5.7,6.6,5.8,6.6,5.7C6.6,5.8,6.6,5.8,6.6,5.7l0.5,0c0,0,0,0,0,0c0,0,0,0,0,0H6.6z"/>
					</g>
					<g>
						<path class="st7" d="M6.6,5.8h0.5c0,0,0,0,0,0c0,0,0,0,0,0L6.6,5.8C6.6,5.8,6.6,5.8,6.6,5.8C6.6,5.8,6.6,5.8,6.6,5.8z"/>
						<path d="M7.1,5.8H6.6c0,0,0,0,0,0c0,0,0,0,0,0L7.1,5.8C7.1,5.8,7.1,5.8,7.1,5.8C7.1,5.8,7.1,5.8,7.1,5.8z M6.6,5.8
							C6.6,5.8,6.6,5.8,6.6,5.8C6.6,5.8,6.6,5.8,6.6,5.8l0.5,0c0,0,0,0,0,0c0,0,0,0,0,0H6.6z"/>
					</g>
					<g>
						<path class="st7" d="M6.8,5.5L6.8,5.5L6.8,5.5L6.8,5.5L6.8,5.5l0.1,0v0h0v0h0l0,0.1c0,0,0,0,0,0L6.8,5.5
							C6.8,5.5,6.8,5.5,6.8,5.5L6.8,5.5L6.8,5.5L6.8,5.5z"/>
						<path d="M6.9,5.5H6.8c0,0,0,0,0,0l0-0.1l0,0l0,0v0L6.9,5.5L6.9,5.5L6.9,5.5L6.9,5.5L6.9,5.5L6.9,5.5L6.9,5.5L6.9,5.5
							C7,5.5,6.9,5.5,6.9,5.5z M6.8,5.5L6.8,5.5C6.8,5.5,6.8,5.5,6.8,5.5l0.1,0.1c0,0,0,0,0,0l0-0.1h0v0L6.8,5.5L6.8,5.5L6.8,5.5
							L6.8,5.5L6.8,5.5L6.8,5.5L6.8,5.5z"/>
					</g>
					<g>
						<path class="st7" d="M6.9,5.5l0,0.2l-0.1,0l0-0.2L6.9,5.5"/>
						<path d="M6.9,5.7l-0.1,0l0-0.2l0.1,0L6.9,5.7z M6.8,5.7l0.1,0l0-0.2l-0.1,0L6.8,5.7z"/>
					</g>
					<g>
						<path id="cp1_3_" class="st7" d="M6.8,5.6l0,0.1l-0.1,0l0-0.1L6.8,5.6L6.8,5.6L6.8,5.6z"/>
						<path d="M6.6,5.7l0-0.1h0.1l0,0.1L6.6,5.7z M6.7,5.6L6.7,5.6l0.1,0.1l0-0.1L6.7,5.6z"/>
					</g>
					<g>
						<g>
							<path id="cp1_4_" class="st7" d="M7.1,5.6l0,0.1L7,5.7l0-0.1L7.1,5.6L7.1,5.6L7.1,5.6z"/>
							<path d="M6.9,5.7l0-0.1h0.1l0,0.1L6.9,5.7z M7,5.6L7,5.6l0.1,0.1l0-0.1L7,5.6z"/>
						</g>
					</g>
					<g>
						<path id="cp2_3_" class="st7" d="M6.6,5.6L6.6,5.6L6.6,5.6L6.6,5.6L6.6,5.6L6.6,5.6L6.6,5.6l0.1,0v0l0,0l0,0.1c0,0,0,0,0,0
							L6.6,5.6C6.6,5.6,6.6,5.6,6.6,5.6L6.6,5.6L6.6,5.6L6.6,5.6z"/>
						<path d="M6.8,5.6H6.6c0,0,0,0,0,0l0-0.1l0,0l0,0l0,0v0L6.8,5.6L6.8,5.6L6.8,5.6L6.8,5.6L6.8,5.6L6.8,5.6L6.8,5.6L6.8,5.6
							C6.8,5.6,6.8,5.6,6.8,5.6z M6.6,5.6L6.6,5.6C6.6,5.6,6.6,5.6,6.6,5.6l0.1,0.1c0,0,0,0,0,0l0-0.1l0,0v0L6.6,5.6L6.6,5.6
							L6.6,5.6L6.6,5.6L6.6,5.6L6.6,5.6L6.6,5.6z"/>
					</g>
					<g>
						<g>
							<path id="cp2_4_" class="st7" d="M6.9,5.6L6.9,5.6L6.9,5.6L6.9,5.6L6.9,5.6L6.9,5.6L6.9,5.6l0.1,0v0l0,0l0,0.1c0,0,0,0,0,0
								L6.9,5.6C6.9,5.6,6.9,5.6,6.9,5.6L6.9,5.6L6.9,5.6L6.9,5.6z"/>
							<path d="M7.1,5.6H7c0,0,0,0,0,0l0-0.1l0,0l0,0l0,0v0L7.1,5.6L7.1,5.6L7.1,5.6L7.1,5.6L7.1,5.6L7.1,5.6L7.1,5.6L7.1,5.6
								C7.1,5.6,7.1,5.6,7.1,5.6z M6.9,5.6L6.9,5.6C6.9,5.6,6.9,5.6,6.9,5.6l0.1,0.1c0,0,0,0,0,0l0-0.1l0,0v0L6.9,5.6L6.9,5.6
								L6.9,5.6L6.9,5.6L6.9,5.6L6.9,5.6L6.9,5.6z"/>
						</g>
					</g>
					<path d="M6.8,5.6C6.8,5.6,6.9,5.6,6.8,5.6L6.8,5.6L6.8,5.6L6.8,5.6"/>
					<path id="cp3_2_" d="M6.7,5.7C6.7,5.7,6.7,5.7,6.7,5.7L6.7,5.7L6.7,5.7L6.7,5.7"/>
					<g>
						<path id="cp3_3_" d="M7,5.7C7,5.7,7,5.7,7,5.7L7,5.7L7,5.7L7,5.7"/>
					</g>
				</g>
			</g>
			<g transform="matrix(0.70460892,-0.70959585,0.70959585,0.70460892,-35.341459,275.10898)">
				<g id="castle_2_">
					<path class="st7" d="M7.3,7.5C7.2,7.3,7.2,7.2,7.2,7.2c0,0,0.1-0.1,0.2,0.1L7.3,7.5"/>
					<g>
						<path class="st7" d="M7.1,7.4l0.1,0.1l0.1-0.1c-0.1-0.1,0-0.2,0-0.2c0,0,0.1-0.1,0.2,0l0.1-0.1L7.4,7.1L7.1,7.4L7.1,7.4
							L7.1,7.4z"/>
						<path d="M7.2,7.6L7.1,7.4l0.3-0.3l0.2,0.1L7.4,7.3l0,0c-0.1-0.1-0.2,0-0.2,0l0,0c0,0-0.1,0.1,0,0.2L7.2,7.6L7.2,7.6z M7.1,7.4
							l0.1,0.1l0.1-0.1C7.2,7.4,7.2,7.3,7.2,7.3c0,0,0,0,0,0L7.1,7.4z M7.3,7.2c0,0,0.1,0,0.1,0.1l0.1-0.1L7.4,7.1L7.3,7.2
							C7.3,7.2,7.3,7.2,7.3,7.2C7.3,7.2,7.3,7.2,7.3,7.2z"/>
					</g>
					<g>
						<path class="st7" d="M7.2,7.6l0.4-0.4c0,0,0,0,0,0c0,0,0,0,0,0L7.2,7.6C7.2,7.6,7.2,7.6,7.2,7.6C7.2,7.6,7.2,7.6,7.2,7.6z"/>
						<path d="M7.2,7.6C7.2,7.6,7.2,7.6,7.2,7.6C7.2,7.6,7.2,7.6,7.2,7.6C7.2,7.6,7.2,7.6,7.2,7.6l0.3-0.4c0,0,0,0,0,0c0,0,0,0,0,0
							L7.2,7.6C7.2,7.6,7.2,7.6,7.2,7.6C7.2,7.6,7.2,7.6,7.2,7.6z M7.5,7.2C7.5,7.2,7.5,7.2,7.5,7.2L7.2,7.6c0,0,0,0,0,0
							c0,0,0,0,0,0c0,0,0,0,0,0c0,0,0,0,0,0c0,0,0,0,0,0L7.5,7.2C7.6,7.2,7.6,7.2,7.5,7.2C7.6,7.2,7.5,7.2,7.5,7.2z"/>
					</g>
					<g>
						<path class="st7" d="M7.3,7.4c-0.1-0.1,0-0.1,0-0.1C7.3,7.3,7.3,7.3,7.3,7.4L7.3,7.4"/>
						<path d="M7.3,7.4L7.3,7.4c0-0.1-0.1-0.1-0.1-0.1c0,0,0,0,0,0l0,0c0,0,0,0,0,0c0,0,0,0,0,0l0,0c0,0,0,0,0,0c0,0,0.1,0,0.1,0
							l0,0L7.3,7.4z M7.3,7.3c0,0,0,0.1,0,0.1l0.1-0.1C7.3,7.3,7.3,7.3,7.3,7.3z"/>
					</g>
					<g>
						<path class="st7" d="M7,7.4L7.3,7c0,0,0,0,0,0c0,0,0,0,0,0L7,7.4C7,7.4,7,7.4,7,7.4C7,7.4,7,7.4,7,7.4z"/>
						<path d="M7,7.4C7,7.4,7,7.4,7,7.4C7,7.4,7,7.4,7,7.4L7.3,7c0,0,0,0,0,0c0,0,0,0,0,0L7,7.4C7,7.4,7,7.4,7,7.4
							C7,7.4,7,7.4,7,7.4z M7,7.4C7,7.4,7,7.4,7,7.4C7,7.4,7,7.4,7,7.4C7,7.4,7,7.4,7,7.4C7,7.4,7,7.4,7,7.4L7.4,7c0,0,0,0,0,0
							c0,0,0,0,0,0L7,7.4z"/>
					</g>
					<g>
						<path class="st7" d="M7,7.4L7.4,7c0,0,0,0,0,0c0,0,0,0,0,0L7,7.4C7.1,7.4,7,7.4,7,7.4C7,7.4,7,7.4,7,7.4z"/>
						<path d="M7,7.4C7,7.4,7,7.4,7,7.4C7,7.4,7,7.4,7,7.4C7,7.4,7,7.4,7,7.4C7,7.4,7,7.4,7,7.4L7.4,7c0,0,0,0,0,0c0,0,0,0,0,0
							L7,7.4C7.1,7.4,7.1,7.4,7,7.4z M7.4,7.1C7.4,7.1,7.4,7.1,7.4,7.1L7,7.4c0,0,0,0,0,0c0,0,0,0,0,0c0,0,0,0,0,0c0,0,0,0,0,0
							L7.4,7.1C7.4,7.1,7.4,7.1,7.4,7.1C7.4,7.1,7.4,7.1,7.4,7.1z"/>
					</g>
					<g>
						<path class="st7" d="M6.9,7L6.9,7L6.9,7L6.9,7L6.9,7L6.9,7L6.9,7L7,7L6.9,7L7,6.9l0,0c0,0,0,0,0,0L6.9,7C7,7.1,7,7.1,6.9,7
							L6.9,7L6.9,7L6.9,7z"/>
						<path d="M7,7.1C7,7.1,7,7.1,7,7.1L7,7.1L7,7.1L7,7.1L7,7.1L7,7.1L7,7.1L7,7.1L7,7.1L7,7l0,0l0,0l0,0l0,0l0,0c0,0,0,0,0,0
							L7,7.1C7,7.1,7,7.1,7,7.1z M6.9,7L6.9,7C7,7.1,7,7.1,6.9,7L7.1,7c0,0,0,0,0,0l0,0L6.9,7L7,7L6.9,7L6.9,7L6.9,7L6.9,7L6.9,7
							L6.9,7L6.9,7z"/>
					</g>
					<g>
						<path class="st7" d="M7.1,7l0.1,0.1L7.1,7.2L7.1,7L7.1,7"/>
						<path d="M7.1,7.2L7,7.1L7.1,7l0.2,0.1L7.1,7.2z M7,7.1l0.1,0.1l0.1-0.1L7,7.1L7,7.1z"/>
					</g>
					<g>
						<path id="cp1_5_" class="st7" d="M7,7.2L7,7.2l0,0.2L7,7.2L7,7.2L7,7.2L7,7.2z"/>
						<path d="M7,7.4L7,7.4l0-0.2L7,7.4L7,7.4z M6.9,7.3L6.9,7.3l0.1,0L6.9,7.3L6.9,7.3z"/>
					</g>
					<g>
						<g>
							<path id="cp1_6_" class="st7" d="M7.2,7L7.2,7l0,0.2L7.2,7L7.2,7L7.2,7L7.2,7z"/>
							<path d="M7.2,7.1L7.2,7.1l0-0.2l0,0l0,0L7.2,7.1L7.2,7.1z M7.2,7L7.2,7l0.1,0L7.2,7L7.2,7z"/>
						</g>
					</g>
					<g>
						<path id="cp2_5_" class="st7" d="M6.9,7.2L6.9,7.2L6.9,7.2L6.9,7.2L6.9,7.2L6.9,7.2L6.9,7.2L7,7.2L6.9,7.2L7,7.1l0,0
							c0,0,0,0,0,0L6.9,7.2C6.9,7.3,6.9,7.3,6.9,7.2L6.9,7.2L6.9,7.2L6.9,7.2z"/>
						<path d="M6.9,7.3C6.9,7.3,6.9,7.3,6.9,7.3L6.9,7.3L6.9,7.3L6.9,7.3L6.9,7.3L6.9,7.3l0-0.1l0,0l0,0l0,0l0,0l0,0c0,0,0,0,0,0
							c0,0,0,0,0,0L6.9,7.3C6.9,7.3,6.9,7.3,6.9,7.3z M6.9,7.2L6.9,7.2C6.9,7.3,6.9,7.3,6.9,7.2L7,7.2c0,0,0,0,0,0c0,0,0,0,0,0l0,0
							L6.9,7.2L7,7.2L6.9,7.2L6.9,7.2L6.9,7.2L6.9,7.2L6.9,7.2L6.9,7.2L6.9,7.2z"/>
					</g>
					<g>
						<g>
							<path id="cp2_6_" class="st7" d="M7.1,7L7.1,7L7.1,7L7.1,7L7.1,7L7.1,7L7.1,7l0.1-0.1L7.1,7l0.1-0.1l0,0c0,0,0,0,0,0L7.1,7
								C7.1,7,7.1,7,7.1,7L7.1,7L7.1,7L7.1,7z"/>
							<path d="M7.1,7.1C7.1,7.1,7.1,7.1,7.1,7.1L7.1,7.1L7.1,7.1L7.1,7.1L7.1,7.1L7.1,7.1L7.1,7.1l0-0.1l0,0l0,0l0,0l0,0l0,0
								c0,0,0,0,0,0c0,0,0,0,0,0L7.1,7.1C7.2,7.1,7.1,7.1,7.1,7.1z M7.1,7L7.1,7C7.1,7,7.1,7,7.1,7l0.1-0.1c0,0,0,0,0,0c0,0,0,0,0,0
								l0,0L7.1,7l0.1-0.1L7.1,7L7.1,7L7.1,7L7.1,7L7.1,7L7.1,7L7.1,7z"/>
						</g>
					</g>
					<path d="M7.1,7.1C7,7.1,7.1,7.1,7.1,7.1L7.1,7.1L7.1,7.1L7.1,7.1"/>
					<path id="cp3_4_" d="M7,7.3C7,7.2,7,7.2,7,7.3L7,7.3L7,7.3L7,7.3"/>
					<g>
						<path id="cp3_5_" d="M7.2,7C7.2,7,7.2,7,7.2,7L7.2,7L7.2,7L7.2,7"/>
					</g>
				</g>
			</g>
		</g>
		<g>
			<g id="castle_3_">
				<path class="st7" d="M8.1,4.6c0-0.2,0.1-0.2,0.1-0.2c0,0,0.1,0,0.1,0.2L8.1,4.6"/>
				<g>
					<path class="st7" d="M8,4.4l0,0.2l0.1,0c0-0.2,0.1-0.2,0.1-0.2c0,0,0.1,0,0.1,0.2h0.1l0-0.2L8,4.4L8,4.4L8,4.4z"/>
					<path d="M8.1,4.6L8,4.6l0-0.2l0.5,0l0,0.2H8.3l0,0c0-0.1-0.1-0.2-0.1-0.2C8.2,4.4,8.1,4.5,8.1,4.6L8.1,4.6z M8.3,4.6h0.1l0-0.2
						l-0.2,0c0,0,0,0,0,0C8.3,4.5,8.3,4.5,8.3,4.6z M8,4.6l0.1,0c0-0.1,0-0.1,0.1-0.2c0,0,0,0,0,0L8,4.4L8,4.6z"/>
				</g>
				<g>
					<path class="st7" d="M8,4.6h0.5c0,0,0,0,0,0c0,0,0,0,0,0L8,4.6C8,4.7,7.9,4.7,8,4.6C7.9,4.6,8,4.6,8,4.6z"/>
					<path d="M8.5,4.7H8c0,0,0,0,0,0c0,0,0,0,0,0L8.5,4.7C8.5,4.6,8.5,4.6,8.5,4.7C8.5,4.7,8.5,4.7,8.5,4.7z M8,4.6
						C8,4.6,8,4.6,8,4.6C8,4.7,8,4.7,8,4.6l0.5,0c0,0,0,0,0,0c0,0,0,0,0,0H8z"/>
				</g>
				<g>
					<path class="st7" d="M8.1,4.6c0-0.1,0.1-0.1,0.1-0.1c0,0,0.1,0,0.1,0.1H8.1"/>
					<path d="M8.3,4.6H8.1l0,0c0-0.1,0-0.1,0-0.1c0,0,0,0,0,0l0,0C8.2,4.5,8.3,4.5,8.3,4.6L8.3,4.6z M8.2,4.6h0.1
						c0-0.1-0.1-0.1-0.1-0.1C8.2,4.5,8.2,4.5,8.2,4.6z"/>
				</g>
				<g>
					<path class="st7" d="M8,4.4h0.5c0,0,0,0,0,0c0,0,0,0,0,0L8,4.4C8,4.4,8,4.4,8,4.4C8,4.4,8,4.4,8,4.4z"/>
					<path d="M8.5,4.4H8c0,0,0,0,0,0s0,0,0,0L8.5,4.4C8.5,4.3,8.5,4.4,8.5,4.4C8.5,4.4,8.5,4.4,8.5,4.4z M8,4.4C8,4.4,8,4.4,8,4.4
						C8,4.4,8,4.4,8,4.4l0.5,0c0,0,0,0,0,0s0,0,0,0H8z"/>
				</g>
				<g>
					<path class="st7" d="M8,4.4h0.5c0,0,0,0,0,0c0,0,0,0,0,0L8,4.4C8,4.4,8,4.4,8,4.4C8,4.4,8,4.4,8,4.4z"/>
					<path d="M8.4,4.4H8c0,0,0,0,0,0c0,0,0,0,0,0L8.4,4.4C8.5,4.4,8.5,4.4,8.4,4.4C8.5,4.4,8.5,4.4,8.4,4.4z M8,4.4
						C8,4.4,8,4.4,8,4.4C8,4.4,8,4.4,8,4.4l0.5,0c0,0,0,0,0,0c0,0,0,0,0,0H8z"/>
				</g>
				<g>
					<path class="st7" d="M8.1,4.1L8.1,4.1L8.1,4.1L8.1,4.1L8.1,4.1l0.1,0v0h0v0h0l0,0.1c0,0,0,0,0,0L8.1,4.1
						C8.1,4.2,8.1,4.1,8.1,4.1L8.1,4.1L8.1,4.1L8.1,4.1z"/>
					<path d="M8.3,4.2H8.2c0,0,0,0,0,0l0-0.1l0,0l0,0v0L8.3,4.2L8.3,4.2L8.3,4.2L8.3,4.2L8.3,4.2L8.3,4.2L8.3,4.2L8.3,4.2
						C8.3,4.1,8.3,4.2,8.3,4.2z M8.1,4.1L8.1,4.1C8.1,4.1,8.1,4.1,8.1,4.1l0.1,0.1c0,0,0,0,0,0l0-0.1h0v0L8.1,4.1L8.1,4.1L8.1,4.1
						L8.1,4.1L8.1,4.1L8.1,4.1L8.1,4.1z"/>
				</g>
				<g>
					<path class="st7" d="M8.3,4.2l0,0.2l-0.1,0l0-0.2L8.3,4.2"/>
					<path d="M8.3,4.4l-0.1,0l0-0.2l0.1,0L8.3,4.4z M8.2,4.3l0.1,0l0-0.2l-0.1,0L8.2,4.3z"/>
				</g>
				<g>
					<path id="cp1_7_" class="st7" d="M8.1,4.2l0,0.1L8,4.4l0-0.1L8.1,4.2L8.1,4.2L8.1,4.2z"/>
					<path d="M8,4.4l0-0.1h0.1l0,0.1L8,4.4z M8,4.3L8,4.3l0.1,0.1l0-0.1L8,4.3z"/>
				</g>
				<g>
					<g>
						<path id="cp1_8_" class="st7" d="M8.4,4.2l0,0.1l-0.1,0l0-0.1L8.4,4.2L8.4,4.2L8.4,4.2z"/>
						<path d="M8.3,4.4l0-0.1h0.1l0,0.1L8.3,4.4z M8.3,4.3L8.3,4.3l0.1,0.1l0-0.1L8.3,4.3z"/>
					</g>
				</g>
				<g>
					<path id="cp2_7_" class="st7" d="M8,4.2L8,4.2L8,4.2L8,4.2L8,4.2L8,4.2L8,4.2l0.1,0v0l0,0l0,0.1c0,0,0,0,0,0L8,4.2
						C8,4.2,8,4.2,8,4.2L8,4.2L8,4.2L8,4.2z"/>
					<path d="M8.1,4.3H8c0,0,0,0,0,0l0-0.1l0,0l0,0l0,0v0L8.1,4.3L8.1,4.3L8.1,4.3L8.1,4.3L8.1,4.3L8.1,4.3L8.1,4.3L8.1,4.3
						C8.1,4.2,8.1,4.3,8.1,4.3z M8,4.2L8,4.2C8,4.2,8,4.2,8,4.2l0.1,0.1c0,0,0,0,0,0l0-0.1l0,0v0L8,4.2L8,4.2L8,4.2L8,4.2L8,4.2
						L8,4.2L8,4.2z"/>
				</g>
				<g>
					<g>
						<path id="cp2_8_" class="st7" d="M8.3,4.2L8.3,4.2L8.3,4.2L8.3,4.2L8.3,4.2L8.3,4.2L8.3,4.2l0.1,0v0l0,0l0,0.1c0,0,0,0,0,0
							L8.3,4.2C8.3,4.2,8.3,4.2,8.3,4.2L8.3,4.2L8.3,4.2L8.3,4.2z"/>
						<path d="M8.4,4.3H8.3c0,0,0,0,0,0l0-0.1l0,0l0,0l0,0v0L8.4,4.3L8.4,4.3L8.4,4.3L8.4,4.3L8.4,4.3L8.4,4.3L8.4,4.3L8.4,4.3
							C8.5,4.2,8.5,4.3,8.4,4.3z M8.3,4.2L8.3,4.2C8.3,4.2,8.3,4.2,8.3,4.2l0.1,0.1c0,0,0,0,0,0l0-0.1l0,0v0L8.3,4.2L8.3,4.2
							L8.3,4.2L8.3,4.2L8.3,4.2L8.3,4.2L8.3,4.2z"/>
					</g>
				</g>
				<path d="M8.2,4.2C8.2,4.2,8.2,4.2,8.2,4.2L8.2,4.2L8.2,4.2L8.2,4.2"/>
				<path id="cp3_6_" d="M8,4.3C8,4.3,8.1,4.3,8,4.3L8,4.3L8,4.3L8,4.3"/>
				<g>
					<path id="cp3_7_" d="M8.4,4.3C8.4,4.3,8.4,4.3,8.4,4.3L8.4,4.3L8.4,4.3L8.4,4.3"/>
				</g>
			</g>
		</g>
		<g transform="matrix(-1,0,0,1,479.79195,0)">
			<g id="castle3_1_">
				<g id="castle_4_">
					<path class="st7" d="M9.7,4.6c0-0.2-0.1-0.2-0.1-0.2c0,0-0.1,0-0.1,0.2L9.7,4.6"/>
					<g>
						<path class="st7" d="M9.8,4.4l0,0.2l-0.1,0c0-0.2-0.1-0.2-0.1-0.2c0,0-0.1,0-0.1,0.2H9.3l0-0.2L9.8,4.4L9.8,4.4L9.8,4.4z"/>
						<path d="M9.7,4.6L9.7,4.6c0-0.2-0.1-0.2-0.1-0.2c0,0-0.1,0-0.1,0.2l0,0H9.3l0-0.2l0.5,0v0l0,0.2L9.7,4.6z M9.3,4.6h0.1
							c0-0.1,0-0.1,0.1-0.1c0,0,0,0,0,0l-0.2,0L9.3,4.6z M9.6,4.4C9.6,4.4,9.6,4.5,9.6,4.4c0.1,0,0.1,0.1,0.1,0.2l0.1,0l0-0.2
							L9.6,4.4z"/>
					</g>
					<g>
						<path class="st7" d="M9.8,4.6H9.3c0,0,0,0,0,0c0,0,0,0,0,0L9.8,4.6C9.8,4.7,9.8,4.7,9.8,4.6C9.8,4.6,9.8,4.6,9.8,4.6z"/>
						<path d="M9.8,4.7H9.3c0,0,0,0,0,0c0,0,0,0,0,0L9.8,4.7C9.8,4.6,9.8,4.6,9.8,4.7C9.8,4.7,9.8,4.7,9.8,4.7z M9.3,4.6
							C9.3,4.6,9.3,4.6,9.3,4.6C9.3,4.7,9.3,4.7,9.3,4.6l0.5,0c0,0,0,0,0,0c0,0,0,0,0,0H9.3z"/>
					</g>
					<g>
						<path class="st7" d="M9.6,4.6c0-0.1-0.1-0.1-0.1-0.1c0,0-0.1,0-0.1,0.1H9.6"/>
						<path d="M9.6,4.6H9.5l0,0c0-0.1,0.1-0.1,0.1-0.1c0,0,0,0,0,0C9.6,4.5,9.6,4.6,9.6,4.6L9.6,4.6z M9.5,4.6h0.1
							c0-0.1,0-0.1-0.1-0.1C9.6,4.5,9.5,4.5,9.5,4.6z"/>
					</g>
					<g>
						<path class="st7" d="M9.8,4.4H9.3c0,0,0,0,0,0c0,0,0,0,0,0L9.8,4.4C9.8,4.4,9.8,4.4,9.8,4.4C9.8,4.4,9.8,4.4,9.8,4.4z"/>
						<path d="M9.8,4.4H9.3c0,0,0,0,0,0s0,0,0,0L9.8,4.4C9.8,4.3,9.8,4.4,9.8,4.4C9.8,4.4,9.8,4.4,9.8,4.4z M9.3,4.4
							C9.3,4.4,9.3,4.4,9.3,4.4C9.3,4.4,9.3,4.4,9.3,4.4l0.5,0c0,0,0,0,0,0s0,0,0,0H9.3z"/>
					</g>
					<g>
						<path class="st7" d="M9.8,4.4H9.3c0,0,0,0,0,0c0,0,0,0,0,0L9.8,4.4C9.8,4.4,9.8,4.4,9.8,4.4C9.8,4.4,9.8,4.4,9.8,4.4z"/>
						<path d="M9.8,4.4H9.3c0,0,0,0,0,0c0,0,0,0,0,0L9.8,4.4C9.8,4.4,9.8,4.4,9.8,4.4C9.8,4.4,9.8,4.4,9.8,4.4z M9.3,4.4
							C9.3,4.4,9.3,4.4,9.3,4.4C9.3,4.4,9.3,4.4,9.3,4.4l0.5,0c0,0,0,0,0,0c0,0,0,0,0,0H9.3z"/>
					</g>
					<g>
						<path class="st7" d="M9.7,4.1L9.7,4.1L9.7,4.1L9.7,4.1L9.7,4.1l-0.1,0v0h0v0h0l0,0.1c0,0,0,0,0,0L9.7,4.1
							C9.6,4.2,9.7,4.1,9.7,4.1L9.7,4.1L9.7,4.1L9.7,4.1z"/>
						<path d="M9.6,4.2H9.5c0,0,0,0,0,0l0-0.1h0.1v0L9.6,4.2L9.6,4.2L9.6,4.2L9.6,4.2L9.6,4.2L9.6,4.2L9.6,4.2L9.6,4.2L9.6,4.2
							C9.7,4.1,9.6,4.2,9.6,4.2z M9.5,4.1L9.5,4.1C9.5,4.1,9.5,4.1,9.5,4.1l0.1,0.1c0,0,0,0,0,0l0-0.1l0,0v0L9.5,4.1L9.5,4.1
							L9.5,4.1L9.5,4.1L9.5,4.1L9.5,4.1L9.5,4.1z"/>
					</g>
					<g>
						<path class="st7" d="M9.5,4.2l0,0.2l0.1,0l0-0.2L9.5,4.2"/>
						<path d="M9.5,4.4l0-0.2l0.1,0l0,0.2L9.5,4.4z M9.5,4.2l0,0.2l0.1,0L9.5,4.2L9.5,4.2z"/>
					</g>
					<g>
						<path id="cp1_9_" class="st7" d="M9.7,4.2l0,0.1l0.1,0l0-0.1L9.7,4.2L9.7,4.2L9.7,4.2z"/>
						<path d="M9.8,4.4l-0.1,0l0-0.1l0.1,0L9.8,4.4z M9.7,4.3l0.1,0l0-0.1L9.7,4.3L9.7,4.3z"/>
					</g>
					<g>
						<g>
							<path id="cp1_10_" class="st7" d="M9.4,4.2l0,0.1l0.1,0l0-0.1L9.4,4.2L9.4,4.2L9.4,4.2z"/>
							<path d="M9.5,4.4l-0.1,0l0-0.1l0.1,0L9.5,4.4z M9.4,4.3l0.1,0l0-0.1L9.4,4.3L9.4,4.3z"/>
						</g>
					</g>
					<g>
						<path id="cp2_9_" class="st7" d="M9.8,4.2L9.8,4.2L9.8,4.2L9.8,4.2L9.8,4.2L9.8,4.2L9.8,4.2l-0.1,0v0l0,0l0,0.1c0,0,0,0,0,0
							L9.8,4.2C9.8,4.2,9.8,4.2,9.8,4.2L9.8,4.2L9.8,4.2L9.8,4.2z"/>
						<path d="M9.8,4.3H9.7c0,0,0,0,0,0l0-0.1l0.1,0v0L9.8,4.3L9.8,4.3L9.8,4.3L9.8,4.3L9.8,4.3L9.8,4.3L9.8,4.3L9.8,4.3L9.8,4.3
							C9.8,4.2,9.8,4.3,9.8,4.3z M9.7,4.2L9.7,4.2C9.7,4.2,9.7,4.2,9.7,4.2l0.1,0.1c0,0,0,0,0,0l0-0.1l0,0v0L9.7,4.2L9.7,4.2
							L9.7,4.2L9.7,4.2L9.7,4.2L9.7,4.2L9.7,4.2z"/>
					</g>
					<g>
						<g>
							<path id="cp2_10_" class="st7" d="M9.5,4.2L9.5,4.2L9.5,4.2L9.5,4.2L9.5,4.2L9.5,4.2L9.5,4.2l-0.1,0v0l0,0l0,0.1c0,0,0,0,0,0
								L9.5,4.2C9.5,4.2,9.5,4.2,9.5,4.2L9.5,4.2L9.5,4.2L9.5,4.2z"/>
							<path d="M9.5,4.3H9.3c0,0,0,0,0,0l0-0.1l0.1,0v0L9.5,4.3L9.5,4.3L9.5,4.3L9.5,4.3L9.5,4.3L9.5,4.3L9.5,4.3L9.5,4.3L9.5,4.3
								C9.5,4.2,9.5,4.3,9.5,4.3z M9.3,4.2L9.3,4.2C9.3,4.2,9.3,4.2,9.3,4.2l0.1,0.1c0,0,0,0,0,0l0-0.1l0,0v0L9.3,4.2L9.3,4.2
								L9.3,4.2L9.3,4.2L9.3,4.2L9.3,4.2L9.3,4.2z"/>
						</g>
					</g>
					<path d="M9.6,4.2C9.6,4.2,9.6,4.2,9.6,4.2L9.6,4.2L9.6,4.2L9.6,4.2"/>
					<path id="cp3_8_" d="M9.7,4.3C9.7,4.3,9.7,4.3,9.7,4.3L9.7,4.3L9.7,4.3L9.7,4.3"/>
					<g>
						<path id="cp3_9_" d="M9.4,4.3C9.4,4.3,9.4,4.3,9.4,4.3L9.4,4.3L9.4,4.3L9.4,4.3"/>
					</g>
				</g>
				<g>
					<g id="castle_5_">
						<path class="st7" d="M9.7,6c0-0.2-0.1-0.2-0.1-0.2c0,0-0.1,0-0.1,0.2L9.7,6"/>
						<g>
							<path class="st7" d="M9.8,5.8l0,0.2L9.7,6c0-0.2-0.1-0.2-0.1-0.2c0,0-0.1,0-0.1,0.2H9.3l0-0.2L9.8,5.8L9.8,5.8L9.8,5.8z"/>
							<path d="M9.7,6L9.7,6c0-0.2-0.1-0.2-0.1-0.2c0,0-0.1,0-0.1,0.2l0,0H9.3l0-0.2l0.5,0v0l0,0.2L9.7,6z M9.3,6h0.1
								c0-0.1,0-0.1,0.1-0.1c0,0,0,0,0,0l-0.2,0L9.3,6z M9.6,5.8C9.6,5.8,9.6,5.8,9.6,5.8c0.1,0,0.1,0.1,0.1,0.2l0.1,0l0-0.2
								L9.6,5.8z"/>
						</g>
						<g>
							<path class="st7" d="M9.8,6H9.3c0,0,0,0,0,0c0,0,0,0,0,0L9.8,6C9.8,6.1,9.8,6,9.8,6C9.8,6,9.8,6,9.8,6z"/>
							<path d="M9.8,6.1H9.3c0,0,0,0,0,0c0,0,0,0,0,0L9.8,6.1C9.8,6,9.8,6,9.8,6.1C9.8,6.1,9.8,6.1,9.8,6.1z M9.3,6
								C9.3,6,9.3,6,9.3,6C9.3,6,9.3,6.1,9.3,6l0.5,0c0,0,0,0,0,0c0,0,0,0,0,0H9.3z"/>
						</g>
						<g>
							<path class="st7" d="M9.6,6c0-0.1-0.1-0.1-0.1-0.1c0,0-0.1,0-0.1,0.1H9.6"/>
							<path d="M9.6,6H9.5l0,0c0-0.1,0.1-0.1,0.1-0.1c0,0,0,0,0,0C9.6,5.9,9.6,5.9,9.6,6L9.6,6z M9.5,6h0.1c0-0.1,0-0.1-0.1-0.1
								C9.6,5.9,9.5,5.9,9.5,6z"/>
						</g>
						<g>
							<path class="st7" d="M9.8,5.7H9.3c0,0,0,0,0,0c0,0,0,0,0,0L9.8,5.7C9.8,5.8,9.8,5.8,9.8,5.7C9.8,5.8,9.8,5.7,9.8,5.7z"/>
							<path d="M9.8,5.8H9.3c0,0,0,0,0,0c0,0,0,0,0,0L9.8,5.8C9.8,5.7,9.8,5.7,9.8,5.8C9.8,5.8,9.8,5.8,9.8,5.8z M9.3,5.7
								C9.3,5.7,9.3,5.8,9.3,5.7C9.3,5.8,9.3,5.8,9.3,5.7l0.5,0c0,0,0,0,0,0c0,0,0,0,0,0H9.3z"/>
						</g>
						<g>
							<path class="st7" d="M9.8,5.8H9.3c0,0,0,0,0,0c0,0,0,0,0,0L9.8,5.8C9.8,5.8,9.8,5.8,9.8,5.8C9.8,5.8,9.8,5.8,9.8,5.8z"/>
							<path d="M9.8,5.8H9.3c0,0,0,0,0,0c0,0,0,0,0,0L9.8,5.8C9.8,5.8,9.8,5.8,9.8,5.8C9.8,5.8,9.8,5.8,9.8,5.8z M9.3,5.8
								C9.3,5.8,9.3,5.8,9.3,5.8C9.3,5.8,9.3,5.8,9.3,5.8l0.5,0c0,0,0,0,0,0c0,0,0,0,0,0H9.3z"/>
						</g>
						<g>
							<path class="st7" d="M9.7,5.5L9.7,5.5L9.7,5.5L9.7,5.5L9.7,5.5l-0.1,0v0h0v0h0l0,0.1c0,0,0,0,0,0L9.7,5.5
								C9.6,5.5,9.7,5.5,9.7,5.5L9.7,5.5L9.7,5.5L9.7,5.5z"/>
							<path d="M9.6,5.5H9.5c0,0,0,0,0,0l0-0.1h0.1v0L9.6,5.5L9.6,5.5L9.6,5.5L9.6,5.5L9.6,5.5L9.6,5.5L9.6,5.5L9.6,5.5L9.6,5.5
								C9.7,5.5,9.6,5.5,9.6,5.5z M9.5,5.5L9.5,5.5C9.5,5.5,9.5,5.5,9.5,5.5l0.1,0.1c0,0,0,0,0,0l0-0.1l0,0v0L9.5,5.5L9.5,5.5
								L9.5,5.5L9.5,5.5L9.5,5.5L9.5,5.5L9.5,5.5z"/>
						</g>
						<g>
							<path class="st7" d="M9.5,5.5l0,0.2l0.1,0l0-0.2L9.5,5.5"/>
							<path d="M9.5,5.7l0-0.2l0.1,0l0,0.2L9.5,5.7z M9.5,5.6l0,0.2l0.1,0L9.5,5.6L9.5,5.6z"/>
						</g>
						<g>
							<path id="cp1_11_" class="st7" d="M9.7,5.6l0,0.1l0.1,0l0-0.1L9.7,5.6L9.7,5.6L9.7,5.6z"/>
							<path d="M9.8,5.7l-0.1,0l0-0.1l0.1,0L9.8,5.7z M9.7,5.7l0.1,0l0-0.1L9.7,5.7L9.7,5.7z"/>
						</g>
						<g>
							<g>
								<path id="cp1_12_" class="st7" d="M9.4,5.6l0,0.1l0.1,0l0-0.1L9.4,5.6L9.4,5.6L9.4,5.6z"/>
								<path d="M9.5,5.7l-0.1,0l0-0.1l0.1,0L9.5,5.7z M9.4,5.7l0.1,0l0-0.1L9.4,5.7L9.4,5.7z"/>
							</g>
						</g>
						<g>
							<path id="cp2_11_" class="st7" d="M9.8,5.6L9.8,5.6L9.8,5.6L9.8,5.6L9.8,5.6L9.8,5.6L9.8,5.6l-0.1,0v0l0,0l0,0.1c0,0,0,0,0,0
								L9.8,5.6C9.8,5.6,9.8,5.6,9.8,5.6L9.8,5.6L9.8,5.6L9.8,5.6z"/>
							<path d="M9.8,5.6H9.7c0,0,0,0,0,0l0-0.1l0.1,0v0L9.8,5.6L9.8,5.6L9.8,5.6L9.8,5.6L9.8,5.6L9.8,5.6L9.8,5.6L9.8,5.6L9.8,5.6
								C9.8,5.6,9.8,5.6,9.8,5.6z M9.7,5.6L9.7,5.6C9.7,5.6,9.7,5.6,9.7,5.6l0.1,0.1c0,0,0,0,0,0l0-0.1l0,0v0L9.7,5.6L9.7,5.6
								L9.7,5.6L9.7,5.6L9.7,5.6L9.7,5.6L9.7,5.6z"/>
						</g>
						<g>
							<g>
								<path id="cp2_12_" class="st7" d="M9.5,5.6L9.5,5.6L9.5,5.6L9.5,5.6L9.5,5.6L9.5,5.6L9.5,5.6l-0.1,0v0l0,0l0,0.1
									c0,0,0,0,0,0L9.5,5.6C9.5,5.6,9.5,5.6,9.5,5.6L9.5,5.6L9.5,5.6L9.5,5.6z"/>
								<path d="M9.5,5.6H9.3c0,0,0,0,0,0l0-0.1l0.1,0v0L9.5,5.6L9.5,5.6L9.5,5.6L9.5,5.6L9.5,5.6L9.5,5.6L9.5,5.6L9.5,5.6L9.5,5.6
									C9.5,5.6,9.5,5.6,9.5,5.6z M9.3,5.6L9.3,5.6C9.3,5.6,9.3,5.6,9.3,5.6l0.1,0.1c0,0,0,0,0,0l0-0.1l0,0v0L9.3,5.6L9.3,5.6
									L9.3,5.6L9.3,5.6L9.3,5.6L9.3,5.6L9.3,5.6z"/>
							</g>
						</g>
						<path d="M9.6,5.6C9.6,5.6,9.6,5.6,9.6,5.6L9.6,5.6L9.6,5.6L9.6,5.6"/>
						<path id="cp3_10_" d="M9.7,5.7C9.7,5.7,9.7,5.7,9.7,5.7L9.7,5.7L9.7,5.7L9.7,5.7"/>
						<g>
							<path id="cp3_11_" d="M9.4,5.7C9.4,5.7,9.4,5.7,9.4,5.7L9.4,5.7L9.4,5.7L9.4,5.7"/>
						</g>
					</g>
				</g>
				<g transform="matrix(0.70460892,-0.70959585,0.70959585,0.70460892,-35.341459,275.10898)">
					<g id="castle_6_">
						<path class="st7" d="M9.2,7.5c0.1-0.1,0.1-0.2,0.1-0.2c0,0-0.1-0.1-0.2,0.1L9.2,7.5"/>
						<g>
							<path class="st7" d="M9.4,7.4L9.2,7.5L9.2,7.5c0.1-0.1,0-0.2,0-0.2c0,0-0.1-0.1-0.2,0L8.9,7.2l0.2-0.1L9.4,7.4L9.4,7.4
								L9.4,7.4z"/>
							<path d="M9.2,7.6L9.2,7.6L9.2,7.5c0.1-0.1,0-0.2,0-0.2l0,0c0,0-0.1-0.1-0.2,0l0,0L8.9,7.2l0.2-0.1l0.3,0.3l0,0L9.2,7.6z
								 M9.2,7.5L9.2,7.5l0.2-0.1L9.2,7.3c0,0,0,0,0,0C9.2,7.3,9.2,7.4,9.2,7.5z M8.9,7.2L8.9,7.2c0.1,0,0.2,0,0.2,0c0,0,0,0,0.1,0
								L9.1,7.1L8.9,7.2z"/>
						</g>
						<g>
							<path class="st7" d="M9.3,7.6L8.9,7.2c0,0,0,0,0,0c0,0,0,0,0,0L9.3,7.6C9.2,7.6,9.2,7.6,9.3,7.6C9.3,7.6,9.3,7.6,9.3,7.6z"/>
							<path d="M9.2,7.6C9.2,7.6,9.2,7.6,9.2,7.6C9.2,7.6,9.2,7.6,9.2,7.6L8.9,7.2c0,0,0,0,0,0c0,0,0,0,0,0L9.2,7.6
								C9.3,7.6,9.3,7.6,9.2,7.6C9.3,7.6,9.3,7.6,9.2,7.6C9.2,7.6,9.2,7.6,9.2,7.6z M8.9,7.2C8.9,7.2,8.9,7.2,8.9,7.2
								C8.9,7.2,8.9,7.2,8.9,7.2l0.3,0.4c0,0,0,0,0,0c0,0,0,0,0,0c0,0,0,0,0,0c0,0,0,0,0,0c0,0,0,0,0,0v0L8.9,7.2
								C8.9,7.2,8.9,7.2,8.9,7.2z"/>
						</g>
						<g>
							<path class="st7" d="M9.1,7.4c0.1-0.1,0-0.1,0-0.1C9.2,7.3,9.1,7.3,9.1,7.4L9.1,7.4"/>
							<path d="M9.1,7.4L9,7.3l0,0c0.1-0.1,0.1,0,0.1,0c0,0,0,0,0,0C9.2,7.3,9.2,7.4,9.1,7.4L9.1,7.4z M9,7.3L9,7.3
								c0.1,0,0.1,0,0.1,0C9.2,7.3,9.1,7.3,9,7.3z"/>
						</g>
						<g>
							<path class="st7" d="M9.4,7.4L9.1,7c0,0,0,0,0,0c0,0,0,0,0,0L9.4,7.4C9.4,7.4,9.4,7.4,9.4,7.4C9.4,7.4,9.4,7.4,9.4,7.4z"/>
							<path d="M9.4,7.4C9.4,7.4,9.4,7.4,9.4,7.4C9.4,7.4,9.4,7.4,9.4,7.4L9.1,7c0,0,0,0,0,0c0,0,0,0,0,0L9.4,7.4
								C9.5,7.4,9.5,7.4,9.4,7.4C9.4,7.4,9.4,7.4,9.4,7.4z M9.1,7C9.1,7,9.1,7,9.1,7C9.1,7,9.1,7,9.1,7l0.3,0.4c0,0,0,0,0,0
								c0,0,0,0,0,0c0,0,0,0,0,0c0,0,0,0,0,0L9.1,7C9.1,7,9.1,7,9.1,7z"/>
						</g>
						<g>
							<path class="st7" d="M9.4,7.4L9.1,7c0,0,0,0,0,0c0,0,0,0,0,0L9.4,7.4C9.4,7.4,9.4,7.4,9.4,7.4C9.4,7.4,9.4,7.4,9.4,7.4z"/>
							<path d="M9.4,7.4C9.4,7.4,9.4,7.4,9.4,7.4L9,7.1c0,0,0,0,0,0c0,0,0,0,0,0c0,0,0,0,0,0c0,0,0,0,0,0L9.4,7.4
								C9.4,7.4,9.4,7.4,9.4,7.4C9.4,7.4,9.4,7.4,9.4,7.4C9.4,7.4,9.4,7.4,9.4,7.4z M9.1,7.1C9.1,7.1,9.1,7.1,9.1,7.1
								C9.1,7.1,9.1,7.1,9.1,7.1C9,7.1,9,7.1,9.1,7.1C9,7.1,9,7.1,9.1,7.1l0.3,0.4c0,0,0,0,0,0c0,0,0,0,0,0c0,0,0,0,0,0v0L9.1,7.1
								C9.1,7.1,9.1,7.1,9.1,7.1z"/>
						</g>
						<g>
							<path class="st7" d="M9.5,7L9.5,7L9.5,7L9.5,7L9.5,7L9.5,7L9.5,7L9.4,7L9.5,7L9.4,6.9l0,0c0,0,0,0,0,0L9.5,7
								C9.5,7.1,9.5,7.1,9.5,7L9.5,7L9.5,7L9.5,7z"/>
							<path d="M9.5,7.1C9.5,7.1,9.5,7.1,9.5,7.1L9.4,7c0,0,0,0,0,0l0,0l0,0l0,0l0,0l0,0L9.5,7.1L9.5,7.1L9.5,7.1L9.5,7.1L9.5,7.1
								L9.5,7.1L9.5,7.1C9.5,7.1,9.5,7.1,9.5,7.1z M9.4,6.9L9.4,6.9C9.4,7,9.4,7,9.4,6.9l0.1,0.1c0,0,0,0,0,0l0,0L9.4,6.9l0.1,0.1
								L9.4,6.9L9.4,6.9L9.4,6.9L9.4,6.9L9.4,6.9L9.4,6.9L9.4,6.9z"/>
						</g>
						<g>
							<path class="st7" d="M9.4,7L9.2,7.1l0.1,0.1L9.4,7L9.4,7"/>
							<path d="M9.3,7.2L9.2,7.1L9.4,7l0.1,0.1L9.3,7.2z M9.2,7.1L9.2,7.1l0.2-0.1L9.4,7L9.2,7.1z"/>
						</g>
						<g>
							<path id="cp1_13_" class="st7" d="M9.4,7.2L9.4,7.2l0,0.2L9.4,7.2L9.4,7.2L9.4,7.2L9.4,7.2z"/>
							<path d="M9.4,7.4L9.4,7.4l0-0.2L9.4,7.4L9.4,7.4z M9.3,7.3L9.3,7.3l0.1,0L9.3,7.3L9.3,7.3z"/>
						</g>
						<g>
							<g>
								<path id="cp1_14_" class="st7" d="M9.2,7L9.2,7l0,0.2L9.2,7L9.2,7L9.2,7L9.2,7z"/>
								<path d="M9.2,7.1L9.2,7.1l0-0.2L9.2,7.1L9.2,7.1z M9.1,7L9.1,7l0.1,0L9.1,7L9.1,7z"/>
							</g>
						</g>
						<g>
							<path id="cp2_13_" class="st7" d="M9.6,7.2L9.6,7.2L9.6,7.2L9.6,7.2L9.6,7.2L9.6,7.2L9.6,7.2L9.5,7.2L9.6,7.2L9.4,7.1l0,0
								c0,0,0,0,0,0L9.6,7.2C9.5,7.3,9.5,7.3,9.6,7.2L9.6,7.2L9.6,7.2L9.6,7.2z"/>
							<path d="M9.5,7.3C9.5,7.3,9.5,7.3,9.5,7.3L9.4,7.2c0,0,0,0,0,0c0,0,0,0,0,0l0,0l0,0l0,0l0,0l0,0L9.5,7.3L9.5,7.3L9.5,7.3
								L9.5,7.3L9.5,7.3L9.5,7.3C9.5,7.3,9.5,7.3,9.5,7.3z M9.4,7.1L9.4,7.1C9.4,7.2,9.4,7.2,9.4,7.1C9.4,7.2,9.4,7.2,9.4,7.1
								l0.1,0.1c0,0,0,0,0,0l0,0L9.4,7.1l0.1,0.1L9.4,7.1L9.4,7.1L9.4,7.1L9.4,7.1L9.4,7.1L9.4,7.1L9.4,7.1z"/>
						</g>
						<g>
							<g>
								<path id="cp2_14_" class="st7" d="M9.3,7L9.3,7L9.3,7L9.3,7L9.3,7L9.3,7L9.3,7L9.2,6.9L9.3,7L9.2,6.9l0,0c0,0,0,0,0,0L9.3,7
									C9.3,7,9.3,7,9.3,7L9.3,7L9.3,7L9.3,7z"/>
								<path d="M9.3,7.1C9.3,7.1,9.3,7.1,9.3,7.1L9.2,7c0,0,0,0,0,0l0,0l0,0l0,0l0,0l0,0L9.3,7.1L9.3,7.1L9.3,7.1L9.3,7.1L9.3,7.1
									L9.3,7.1L9.3,7.1C9.3,7.1,9.3,7.1,9.3,7.1z M9.2,6.9L9.2,6.9C9.2,6.9,9.2,6.9,9.2,6.9L9.3,7c0,0,0,0,0,0l0,0L9.2,6.9L9.3,7
									L9.2,6.9L9.2,6.9L9.2,6.9L9.2,6.9L9.2,6.9L9.2,6.9L9.2,6.9z"/>
							</g>
						</g>
						<path d="M9.4,7.1C9.4,7.1,9.4,7.1,9.4,7.1L9.4,7.1L9.4,7.1L9.4,7.1"/>
						<path id="cp3_12_" d="M9.4,7.3C9.4,7.2,9.4,7.2,9.4,7.3L9.4,7.3L9.4,7.3L9.4,7.3"/>
						<g>
							<path id="cp3_13_" d="M9.2,7C9.2,7,9.2,7,9.2,7L9.2,7L9.2,7L9.2,7"/>
						</g>
					</g>
				</g>
			</g>
		</g>
		<g id="quina">
			<path class="st8" d="M8,6.1L8,6.1c0,0.1,0,0.1,0.1,0.2c0,0,0.1,0.1,0.2,0.1c0.1,0,0.1,0,0.2-0.1c0,0,0.1-0.1,0.1-0.2V5.7L8,5.7
				L8,6.1"/>
			<circle class="st6" cx="8.1" cy="5.9" r="0"/>
			<circle class="st6" cx="8.3" cy="5.9" r="0"/>
			<circle class="st6" cx="8.2" cy="6" r="0"/>
			<circle class="st6" cx="8.1" cy="6.1" r="0"/>
			<circle class="st6" cx="8.3" cy="6.1" r="0"/>
		</g>
		<g>
			<g id="quina_1_">
				<path class="st8" d="M8,5.3L8,5.3c0,0.1,0,0.1,0.1,0.2c0,0,0.1,0.1,0.2,0.1c0.1,0,0.1,0,0.2-0.1c0,0,0.1-0.1,0.1-0.2V5L8,5
					L8,5.3"/>
				<circle class="st6" cx="8.1" cy="5.1" r="0"/>
				<circle class="st6" cx="8.3" cy="5.1" r="0"/>
				<circle class="st6" cx="8.2" cy="5.2" r="0"/>
				<circle class="st6" cx="8.1" cy="5.3" r="0"/>
				<circle class="st6" cx="8.3" cy="5.3" r="0"/>
			</g>
		</g>
		<g>
			<g id="quina_2_">
				<path class="st8" d="M7.4,6.1L7.4,6.1c0,0.1,0,0.1,0.1,0.2c0,0,0.1,0.1,0.2,0.1c0.1,0,0.1,0,0.2-0.1c0,0,0.1-0.1,0.1-0.2V5.7
					l-0.4,0L7.4,6.1"/>
				<circle class="st6" cx="7.5" cy="5.9" r="0"/>
				<circle class="st6" cx="7.7" cy="5.9" r="0"/>
				<circle class="st6" cx="7.6" cy="6" r="0"/>
				<circle class="st6" cx="7.5" cy="6.1" r="0"/>
				<circle class="st6" cx="7.7" cy="6.1" r="0"/>
			</g>
		</g>
		<g>
			<g id="quina_3_">
				<path class="st8" d="M8.6,6.1L8.6,6.1c0,0.1,0,0.1,0.1,0.2c0,0,0.1,0.1,0.2,0.1c0.1,0,0.1,0,0.2-0.1c0,0,0.1-0.1,0.1-0.2V5.7
					l-0.4,0L8.6,6.1"/>
				<circle class="st6" cx="8.7" cy="5.9" r="0"/>
				<circle class="st6" cx="9" cy="5.9" r="0"/>
				<circle class="st6" cx="8.8" cy="6" r="0"/>
				<circle class="st6" cx="8.7" cy="6.1" r="0"/>
				<circle class="st6" cx="9" cy="6.1" r="0"/>
			</g>
		</g>
		<g>
			<g id="quina_4_">
				<path class="st8" d="M8,6.8L8,6.8C8,6.9,8,7,8.1,7c0,0,0.1,0.1,0.2,0.1c0.1,0,0.1,0,0.2-0.1c0,0,0.1-0.1,0.1-0.2V6.5L8,6.5
					L8,6.8"/>
				<circle class="st6" cx="8.1" cy="6.6" r="0"/>
				<circle class="st6" cx="8.3" cy="6.6" r="0"/>
				<circle class="st6" cx="8.2" cy="6.8" r="0"/>
				<circle class="st6" cx="8.1" cy="6.9" r="0"/>
				<circle class="st6" cx="8.3" cy="6.9" r="0"/>
			</g>
		</g>
	</g>
</g>
</svg>
