<svg width="400" height="251" viewBox="0 0 400 251" fill="none" xmlns="http://www.w3.org/2000/svg">
<g clip-path="url(#clip0_604_3118)">
<path d="M96.3967 250.863C149.635 250.863 192.793 248.853 192.793 246.374C192.793 243.894 149.635 241.885 96.3967 241.885C43.1583 241.885 0 243.894 0 246.374C0 248.853 43.1583 250.863 96.3967 250.863Z" fill="#E6E6E6"/>
<path d="M198.341 0C197.34 0.00106832 196.38 0.399269 195.672 1.10722C194.964 1.81517 194.566 2.77506 194.565 3.77625V143.772C194.566 144.773 194.964 145.733 195.672 146.441C196.38 147.149 197.34 147.548 198.341 147.549H396.224C397.225 147.548 398.185 147.149 398.893 146.441C399.601 145.733 399.999 144.773 400 143.772V3.77625C399.999 2.77506 399.601 1.81517 398.893 1.10722C398.185 0.399269 397.225 0.00106713 396.224 0H198.341Z" fill="#E6E6E6"/>
<path d="M142.754 177.956C141.545 177.956 140.372 178.371 139.433 179.132C138.493 179.893 137.843 180.953 137.591 182.135H144.954V200.614H137.591C137.863 201.889 138.597 203.019 139.652 203.786C140.708 204.552 142.01 204.901 143.307 204.764C144.604 204.627 145.805 204.015 146.678 203.046C147.551 202.076 148.033 200.818 148.033 199.514V183.235C148.033 182.542 147.897 181.855 147.631 181.215C147.366 180.574 146.977 179.992 146.487 179.502C145.997 179.012 145.415 178.623 144.774 178.357C144.134 178.092 143.447 177.956 142.754 177.956Z" fill="#3F3D56"/>
<path d="M83.3924 145.619C80.8758 145.621 78.463 146.622 76.6835 148.402C74.904 150.181 73.903 152.594 73.9001 155.111V228.078C73.903 230.595 74.904 233.007 76.6835 234.787C78.463 236.566 80.8758 237.567 83.3924 237.57H129.522C132.039 237.567 134.451 236.566 136.231 234.787C138.01 233.007 139.011 230.595 139.014 228.078V155.111C139.011 152.594 138.01 150.181 136.231 148.402C134.451 146.622 132.039 145.621 129.522 145.619H83.3924Z" fill="#3F3D56"/>
<path d="M78.5197 246.149C81.1925 246.149 83.3593 243.983 83.3593 241.31C83.3593 238.637 81.1925 236.47 78.5197 236.47C75.8469 236.47 73.6802 238.637 73.6802 241.31C73.6802 243.983 75.8469 246.149 78.5197 246.149Z" fill="#3F3D56"/>
<path d="M132.635 246.149C135.308 246.149 137.474 243.983 137.474 241.31C137.474 238.637 135.308 236.47 132.635 236.47C129.962 236.47 127.795 238.637 127.795 241.31C127.795 243.983 129.962 246.149 132.635 246.149Z" fill="#3F3D56"/>
<path d="M84.6791 144.959H82.0393V237.79H84.6791V144.959Z" fill="#4D4D4D"/>
<path d="M92.1584 144.959H89.5187V237.79H92.1584V144.959Z" fill="#4D4D4D"/>
<path d="M99.6378 144.959H96.998V237.79H99.6378V144.959Z" fill="#4D4D4D"/>
<path d="M107.117 144.959H104.477V237.79H107.117V144.959Z" fill="#4D4D4D"/>
<path d="M114.596 144.959H111.957V237.79H114.596V144.959Z" fill="#4D4D4D"/>
<path d="M122.076 144.959H119.436V237.79H122.076V144.959Z" fill="#4D4D4D"/>
<path d="M129.555 144.959H126.915V237.79H129.555V144.959Z" fill="#4D4D4D"/>
<path d="M128.846 137.919C130.571 134.985 131.48 131.644 131.48 128.24H84.7341C84.7337 131.644 85.6432 134.985 87.3682 137.919H77.8597C77.8597 143.022 82.1686 147.158 87.4839 147.158H99.2619C101.241 147.744 103.294 148.04 105.357 148.038H110.857C112.92 148.04 114.973 147.744 116.952 147.158H128.73C134.045 147.158 138.354 143.022 138.354 137.919H128.846Z" fill="#2F2E41"/>
<path d="M94.316 204.573C94.4028 205.511 94.2034 206.454 93.7439 207.276C93.2844 208.098 92.5865 208.762 91.7422 209.18L91.7185 209.193C87.3185 211.703 83.7179 213.673 79.4448 213.31C79.0143 213.272 78.5983 213.135 78.2294 212.909C77.8604 212.684 77.5485 212.377 77.3178 212.011C77.0871 211.646 76.9439 211.232 76.8994 210.802C76.8549 210.372 76.9103 209.937 77.0612 209.532L83.1393 197.974C86.6699 193.86 89.1581 193.856 93.4784 197.314L94.316 204.573Z" fill="#2F2E41"/>
<path d="M119.478 204.573C119.391 205.511 119.591 206.454 120.05 207.276C120.51 208.098 121.208 208.762 122.052 209.18L122.076 209.193C126.476 211.703 130.076 213.673 134.349 213.31C134.78 213.272 135.196 213.135 135.565 212.909C135.934 212.684 136.246 212.377 136.476 212.011C136.707 211.646 136.85 211.232 136.895 210.802C136.939 210.372 136.884 209.937 136.733 209.532L130.655 197.974C127.124 193.86 124.636 193.856 120.316 197.314L119.478 204.573Z" fill="#2F2E41"/>
<path d="M101.814 68.4056H84.9011C84.1349 68.4068 83.3887 68.1612 82.7731 67.7051C82.1575 67.249 81.7052 66.6067 81.4833 65.8734C80.9625 64.1377 80.2902 62.4537 80.2795 60.9263C80.238 54.9984 80.5326 51.2253 83.1392 48.8274C91.8243 42.2418 98.1173 43.4532 104.037 50.3672C106.116 54.2299 105.582 59.9948 104.458 66.1899C104.347 66.8105 104.021 67.3723 103.538 67.7773C103.054 68.1823 102.444 68.4046 101.814 68.4056Z" fill="#2F2E41"/>
<path d="M93.0383 75.8849C99.3559 75.8849 104.477 70.7635 104.477 64.4459C104.477 58.1284 99.3559 53.007 93.0383 53.007C86.7208 53.007 81.5994 58.1284 81.5994 64.4459C81.5994 70.7635 86.7208 75.8849 93.0383 75.8849Z" fill="#A0616A"/>
<path d="M101.837 87.3241L85.9988 87.7641L84.679 70.6056L100.078 70.1656L101.837 87.3241Z" fill="#A0616A"/>
<path d="M128.675 128.24L117.746 133.299C115.915 137.643 113.39 137.518 110.197 133.08C107.149 138.418 100.583 135.219 97.376 132.887C95.3084 131.834 93.0216 131.282 90.7009 131.277C88.3803 131.272 86.0911 131.814 84.0192 132.86L72.3602 81.1644C75.9539 78.0748 80.7427 76.1341 85.339 74.785L94.3582 86.004L100.518 75.005C104.799 71.5629 110.812 71.5566 117.236 72.3652L120.987 92.4185C118.513 108.237 122.233 116.171 128.675 128.24Z" fill="#0E2645"/>
<path d="M92.5985 196.434L83.3593 197.314L69.6723 136.822C69.361 135.421 69.3683 133.968 69.6936 132.571C70.0189 131.173 70.654 129.866 71.5519 128.747C72.4498 127.628 73.5877 126.724 74.8815 126.103C76.1753 125.483 77.5919 125.16 79.027 125.16C80.3914 125.16 81.74 125.452 82.9828 126.015C84.2255 126.578 85.3336 127.4 86.233 128.426C87.1324 129.452 87.8024 130.659 88.198 131.964C88.5937 133.27 88.706 134.645 88.5273 135.998L86.879 148.478L92.5985 196.434Z" fill="#2F2E41"/>
<path d="M120.316 197.314L129.555 196.874L143.242 136.822C143.553 135.421 143.546 133.968 143.221 132.571C142.895 131.173 142.26 129.866 141.362 128.747C140.465 127.628 139.327 126.724 138.033 126.103C136.739 125.483 135.322 125.16 133.887 125.16C132.523 125.16 131.174 125.452 129.932 126.015C128.689 126.578 127.581 127.4 126.681 128.426C125.782 129.452 125.112 130.659 124.716 131.964C124.321 133.27 124.208 134.645 124.387 135.998L126.035 148.478L120.316 197.314Z" fill="#2F2E41"/>
<path d="M150.346 110.501L142.534 130.66C138.262 127.394 134.819 126.948 130.081 128.68C128.77 128.498 127.795 125.618 127.795 124.296C127.795 123.614 128.058 122.958 128.529 122.465C129 121.972 129.644 121.679 130.325 121.648L137.474 121.323C138.782 117.898 139.577 114.299 139.833 110.642C143.264 109.668 146.891 109.62 150.346 110.501Z" fill="#A0616A"/>
<path d="M151.113 111.082L153.018 103.975C153.849 101.376 153.768 98.5702 152.786 96.0238C151.805 93.4774 149.982 91.343 147.621 89.9746L117.236 72.3652L116.796 91.7234L139.234 101.403C139.854 104.696 140.055 108.055 139.833 111.399C143.333 110.359 147.604 110.138 151.113 111.082Z" fill="#0E2645"/>
<path d="M104.257 58.0665L92.3784 60.2663C91.2806 60.2663 90.1936 60.0501 89.1794 59.63C88.1653 59.2099 87.2438 58.5942 86.4675 57.818C85.6913 57.0418 85.0756 56.1202 84.6555 55.106C84.2354 54.0919 84.0192 53.0049 84.0192 51.9071H104.697L104.257 58.0665Z" fill="#2F2E41"/>
<path d="M82.4793 62.4661C83.0868 62.4661 83.5792 61.4812 83.5792 60.2663C83.5792 59.0514 83.0868 58.0665 82.4793 58.0665C81.8718 58.0665 81.3794 59.0514 81.3794 60.2663C81.3794 61.4812 81.8718 62.4661 82.4793 62.4661Z" fill="#A0616A"/>
<path d="M118.776 95.2791H118.648V91.779C118.648 91.513 118.596 91.2496 118.494 91.0038C118.392 90.7581 118.243 90.5347 118.055 90.3466C117.867 90.1585 117.644 90.0093 117.398 89.9075C117.152 89.8057 116.889 89.7533 116.623 89.7533H109.207C108.941 89.7533 108.678 89.8057 108.432 89.9075C108.186 90.0093 107.963 90.1585 107.775 90.3466C107.587 90.5347 107.437 90.7581 107.336 91.0038C107.234 91.2496 107.181 91.513 107.181 91.779V110.981C107.181 111.247 107.234 111.51 107.336 111.756C107.437 112.002 107.587 112.225 107.775 112.413C107.963 112.601 108.186 112.75 108.432 112.852C108.678 112.954 108.941 113.006 109.207 113.006H116.623C116.889 113.006 117.152 112.954 117.398 112.852C117.644 112.75 117.867 112.601 118.055 112.413C118.243 112.225 118.392 112.002 118.494 111.756C118.596 111.51 118.648 111.247 118.648 110.981V97.7705H118.776V95.2791Z" fill="#E6E6E6"/>
<path d="M112.617 97.2229C113.588 97.2229 114.376 96.435 114.376 95.4631C114.376 94.4912 113.588 93.7032 112.617 93.7032C111.645 93.7032 110.857 94.4912 110.857 95.4631C110.857 96.435 111.645 97.2229 112.617 97.2229Z" fill="#0E2645"/>
<path d="M111.077 111.522C102.027 118.626 92.9532 124.539 86.219 125.38L85.1191 113.281C91.5868 112.349 100.234 108.088 109.317 103.162L113.759 100.852C114.475 100.48 115.273 100.291 116.08 100.302C116.888 100.313 117.68 100.524 118.385 100.917C119.091 101.309 119.689 101.87 120.124 102.55C120.56 103.229 120.821 104.006 120.883 104.811C120.971 105.953 120.654 107.089 119.99 108.022C119.325 108.954 118.354 109.623 117.246 109.912L111.077 111.522Z" fill="#A0616A"/>
<path d="M93.9182 125.6L75.8799 126.04C69.8103 114.133 67.6075 101.427 68.8405 88.0108C68.8405 86.5771 69.1881 85.1648 69.8535 83.8949C70.5188 82.625 71.4822 81.5353 72.6609 80.7193L74.56 79.4045C82.68 91.4586 87.7165 102.652 85.999 111.962L91.2785 111.522C87.8595 116.136 89.4422 120.842 93.9182 125.6Z" fill="#0E2645"/>
<path d="M15.8684 177.559C15.8684 177.559 16.8004 157.514 35.9057 159.844L15.8684 177.559Z" fill="#E6E6E6"/>
<path d="M15.644 245.481C15.6201 245.271 13.3651 224.384 22.4958 213.33C25.8656 209.25 30.3811 206.966 35.9164 206.54L35.9774 207.327C30.6645 207.736 26.3338 209.925 23.1059 213.831C14.1887 224.625 16.4052 245.185 16.4283 245.391L15.644 245.481Z" fill="#E6E6E6"/>
<path d="M15.6668 157.064H14.8721V244.884H15.6668V157.064Z" fill="#E6E6E6"/>
<path d="M15.3807 158.069C18.9837 158.069 21.9045 155.148 21.9045 151.545C21.9045 147.942 18.9837 145.021 15.3807 145.021C11.7777 145.021 8.85693 147.942 8.85693 151.545C8.85693 155.148 11.7777 158.069 15.3807 158.069Z" fill="#0E2645"/>
<path d="M35.947 213.416C39.5272 213.416 42.4295 210.514 42.4295 206.934C42.4295 203.353 39.5272 200.451 35.947 200.451C32.3668 200.451 29.4645 203.353 29.4645 206.934C29.4645 210.514 32.3668 213.416 35.947 213.416Z" fill="#E6E6E6"/>
<path d="M198.813 143.3H395.752V4.24841H198.813V143.3Z" fill="white"/>
<path d="M244.842 42.2893H242.149V43.1872H244.842V42.2893Z" fill="#3F3D56"/>
<path d="M339.684 43.1872H334.415V42.2893H339.684V43.1872ZM329.146 43.1872H323.877V42.2893H329.146L329.146 43.1872ZM318.608 43.1872H313.339V42.2893H318.608V43.1872ZM308.07 43.1872H302.801V42.2893H308.07V43.1872ZM297.532 43.1872H292.263V42.2893H297.532V43.1872ZM286.994 43.1872H281.725V42.2893H286.994V43.1872ZM276.456 43.1872H271.187V42.2893H276.456V43.1872ZM265.918 43.1872H260.649V42.2893H265.918V43.1872ZM255.38 43.1872H250.111V42.2893H255.38V43.1872Z" fill="#3F3D56"/>
<path d="M347.647 42.2893H344.953V43.1872H347.647V42.2893Z" fill="#3F3D56"/>
<path d="M363.359 49.4722C362.028 49.4722 360.726 49.0773 359.618 48.3374C358.511 47.5974 357.648 46.5457 357.138 45.3153C356.628 44.0848 356.495 42.7308 356.755 41.4246C357.015 40.1183 357.656 38.9185 358.598 37.9767C359.54 37.035 360.739 36.3936 362.046 36.1338C363.352 35.874 364.706 36.0073 365.936 36.517C367.167 37.0267 368.219 37.8898 368.958 38.9972C369.698 40.1045 370.093 41.4065 370.093 42.7383C370.091 44.5237 369.381 46.2353 368.119 47.4977C366.856 48.7601 365.145 49.4702 363.359 49.4722ZM363.359 36.9023C362.205 36.9023 361.077 37.2445 360.117 37.8858C359.157 38.5271 358.409 39.4386 357.968 40.505C357.526 41.5714 357.41 42.7448 357.636 43.8769C357.861 45.009 358.417 46.0488 359.233 46.865C360.049 47.6812 361.089 48.2371 362.221 48.4622C363.353 48.6874 364.526 48.5719 365.593 48.1301C366.659 47.6884 367.571 46.9404 368.212 45.9807C368.853 45.0209 369.195 43.8926 369.195 42.7383C369.194 41.191 368.578 39.7076 367.484 38.6135C366.39 37.5194 364.907 36.904 363.359 36.9023Z" fill="#0E2645"/>
<path d="M226.26 48.9332C224.928 48.9332 223.626 48.5382 222.518 47.7983C221.411 47.0584 220.548 46.0067 220.038 44.7762C219.529 43.5457 219.395 42.1918 219.655 40.8855C219.915 39.5793 220.556 38.3794 221.498 37.4377C222.44 36.4959 223.64 35.8546 224.946 35.5947C226.252 35.3349 227.606 35.4683 228.837 35.9779C230.067 36.4876 231.119 37.3507 231.859 38.4581C232.599 39.5655 232.993 40.8674 232.993 42.1993C232.991 43.9846 232.281 45.6962 231.019 46.9587C229.757 48.2211 228.045 48.9312 226.26 48.9332ZM226.26 36.3632C225.105 36.3632 223.977 36.7055 223.017 37.3467C222.057 37.988 221.309 38.8995 220.868 39.9659C220.426 41.0323 220.31 42.2057 220.536 43.3378C220.761 44.4699 221.317 45.5098 222.133 46.326C222.949 47.1422 223.989 47.698 225.121 47.9232C226.253 48.1484 227.427 48.0328 228.493 47.5911C229.559 47.1494 230.471 46.4013 231.112 45.4416C231.753 44.4819 232.096 43.3535 232.096 42.1993C232.094 40.652 231.478 39.1686 230.384 38.0745C229.29 36.9804 227.807 36.3649 226.26 36.3632Z" fill="#0E2645"/>
<path d="M365.921 40.8112L365.287 40.1764L363.359 42.1036L361.432 40.1764L360.797 40.8112L362.725 42.7384L360.797 44.6657L361.432 45.3004L363.359 43.3732L365.287 45.3004L365.921 44.6657L363.994 42.7384L365.921 40.8112Z" fill="#0E2645"/>
<path d="M244.842 73.2653H242.149V74.1631H244.842V73.2653Z" fill="#3F3D56"/>
<path d="M339.684 74.1631H334.415V73.2653H339.684V74.1631ZM329.146 74.1631H323.877V73.2653H329.146L329.146 74.1631ZM318.608 74.1631H313.339V73.2653H318.608V74.1631ZM308.07 74.1631H302.801V73.2653H308.07V74.1631ZM297.532 74.1631H292.263V73.2653H297.532V74.1631ZM286.994 74.1631H281.725V73.2653H286.994V74.1631ZM276.456 74.1631H271.187V73.2653H276.456V74.1631ZM265.918 74.1631H260.649V73.2653H265.918V74.1631ZM255.38 74.1631H250.111V73.2653H255.38V74.1631Z" fill="#3F3D56"/>
<path d="M347.647 73.2653H344.953V74.1631H347.647V73.2653Z" fill="#3F3D56"/>
<path d="M363.359 80.4482C362.028 80.4482 360.726 80.0533 359.618 79.3133C358.511 78.5734 357.648 77.5217 357.138 76.2912C356.628 75.0608 356.495 73.7068 356.755 72.4005C357.015 71.0943 357.656 69.8944 358.598 68.9527C359.54 68.0109 360.739 67.3696 362.046 67.1097C363.352 66.8499 364.706 66.9833 365.936 67.4929C367.167 68.0026 368.219 68.8657 368.958 69.9731C369.698 71.0805 370.093 72.3824 370.093 73.7143C370.091 75.4996 369.381 77.2113 368.119 78.4737C366.856 79.7361 365.145 80.4462 363.359 80.4482ZM363.359 67.8782C362.205 67.8782 361.077 68.2205 360.117 68.8618C359.157 69.503 358.409 70.4145 357.968 71.4809C357.526 72.5473 357.41 73.7207 357.636 74.8528C357.861 75.9849 358.417 77.0248 359.233 77.841C360.049 78.6572 361.089 79.213 362.221 79.4382C363.353 79.6634 364.526 79.5478 365.593 79.1061C366.659 78.6644 367.571 77.9163 368.212 76.9566C368.853 75.9969 369.195 74.8685 369.195 73.7143C369.194 72.167 368.578 70.6836 367.484 69.5895C366.39 68.4954 364.907 67.88 363.359 67.8782Z" fill="#0E2645"/>
<path d="M226.26 79.9091C224.928 79.9091 223.626 79.5142 222.518 78.7743C221.411 78.0343 220.548 76.9826 220.038 75.7522C219.529 74.5217 219.395 73.1677 219.655 71.8615C219.915 70.5552 220.556 69.3554 221.498 68.4136C222.44 67.4719 223.64 66.8305 224.946 66.5707C226.252 66.3108 227.606 66.4442 228.837 66.9539C230.067 67.4635 231.119 68.3267 231.859 69.434C232.599 70.5414 232.993 71.8434 232.993 73.1752C232.991 74.9605 232.281 76.6722 231.019 77.9346C229.757 79.197 228.045 79.9071 226.26 79.9091ZM226.26 67.3391C225.105 67.3391 223.977 67.6814 223.017 68.3227C222.057 68.964 221.309 69.8754 220.868 70.9418C220.426 72.0082 220.31 73.1817 220.536 74.3138C220.761 75.4458 221.317 76.4857 222.133 77.3019C222.949 78.1181 223.989 78.6739 225.121 78.8991C226.253 79.1243 227.427 79.0087 228.493 78.567C229.559 78.1253 230.471 77.3773 231.112 76.4176C231.753 75.4578 232.096 74.3295 232.096 73.1752C232.094 71.6279 231.478 70.1445 230.384 69.0504C229.29 67.9563 227.807 67.3409 226.26 67.3391Z" fill="#0E2645"/>
<path d="M365.921 71.7871L365.287 71.1523L363.359 73.0796L361.432 71.1523L360.797 71.7871L362.725 73.7144L360.797 75.6416L361.432 76.2764L363.359 74.3492L365.287 76.2764L365.921 75.6416L363.994 73.7144L365.921 71.7871Z" fill="#0E2645"/>
<path d="M244.842 104.241H242.149V105.139H244.842V104.241Z" fill="#3F3D56"/>
<path d="M339.684 105.139H334.415V104.241H339.684V105.139ZM329.146 105.139H323.877V104.241H329.146L329.146 105.139ZM318.608 105.139H313.339V104.241H318.608V105.139ZM308.07 105.139H302.801V104.241H308.07V105.139ZM297.532 105.139H292.263V104.241H297.532V105.139ZM286.994 105.139H281.725V104.241H286.994V105.139ZM276.456 105.139H271.187V104.241H276.456V105.139ZM265.918 105.139H260.649V104.241H265.918V105.139ZM255.38 105.139H250.111V104.241H255.38V105.139Z" fill="#3F3D56"/>
<path d="M347.647 104.241H344.953V105.139H347.647V104.241Z" fill="#3F3D56"/>
<path d="M363.359 111.424C362.028 111.424 360.726 111.029 359.618 110.289C358.511 109.549 357.648 108.498 357.138 107.267C356.628 106.037 356.495 104.683 356.755 103.377C357.015 102.07 357.656 100.871 358.598 99.9288C359.54 98.987 360.739 98.3456 362.046 98.0858C363.352 97.826 364.706 97.9593 365.936 98.469C367.167 98.9787 368.219 99.8418 368.958 100.949C369.698 102.057 370.093 103.359 370.093 104.69C370.091 106.476 369.381 108.187 368.119 109.45C366.856 110.712 365.145 111.422 363.359 111.424ZM363.359 98.8543C362.205 98.8543 361.077 99.1966 360.117 99.8378C359.157 100.479 358.409 101.391 357.968 102.457C357.526 103.523 357.41 104.697 357.636 105.829C357.861 106.961 358.417 108.001 359.233 108.817C360.049 109.633 361.089 110.189 362.221 110.414C363.353 110.639 364.526 110.524 365.593 110.082C366.659 109.64 367.571 108.892 368.212 107.933C368.853 106.973 369.195 105.845 369.195 104.69C369.194 103.143 368.578 101.66 367.484 100.566C366.39 99.4715 364.907 98.856 363.359 98.8543Z" fill="#0E2645"/>
<path d="M226.26 110.885C224.928 110.885 223.626 110.49 222.518 109.75C221.411 109.01 220.548 107.959 220.038 106.728C219.529 105.498 219.395 104.144 219.655 102.838C219.915 101.531 220.556 100.331 221.498 99.3897C222.44 98.4479 223.64 97.8066 224.946 97.5468C226.252 97.2869 227.606 97.4203 228.837 97.9299C230.067 98.4396 231.119 99.3027 231.859 100.41C232.599 101.518 232.993 102.819 232.993 104.151C232.992 105.937 232.281 107.648 231.019 108.911C229.757 110.173 228.045 110.883 226.26 110.885ZM226.26 98.3152C225.105 98.3152 223.977 98.6575 223.017 99.2988C222.057 99.94 221.309 100.852 220.868 101.918C220.426 102.984 220.31 104.158 220.536 105.29C220.761 106.422 221.317 107.462 222.133 108.278C222.949 109.094 223.989 109.65 225.121 109.875C226.253 110.1 227.427 109.985 228.493 109.543C229.559 109.101 230.471 108.353 231.112 107.394C231.753 106.434 232.096 105.306 232.096 104.151C232.094 102.604 231.478 101.121 230.384 100.027C229.29 98.9324 227.807 98.317 226.26 98.3152Z" fill="#0E2645"/>
<path d="M365.921 102.763L365.287 102.128L363.359 104.056L361.432 102.128L360.797 102.763L362.725 104.69L360.797 106.618L361.432 107.252L363.359 105.325L365.287 107.252L365.921 106.618L363.994 104.69L365.921 102.763Z" fill="#0E2645"/>
</g>
<defs>
<clipPath id="clip0_604_3118">
<rect width="400" height="250.863" fill="white"/>
</clipPath>
</defs>
</svg>
