<svg width="91" height="90" viewBox="0 0 91 90" fill="none" xmlns="http://www.w3.org/2000/svg">
<g opacity="0.15">
<path d="M64.8447 25.6641C63.3824 24.2012 62.5262 22.2403 62.4473 20.1734C62.3684 18.1065 63.0727 16.086 64.4193 14.516C64.5307 14.3854 64.5886 14.2176 64.5814 14.0461C64.5743 13.8747 64.5025 13.7122 64.3807 13.5914L56.6234 5.82539C56.4952 5.69723 56.3213 5.62523 56.14 5.62523C55.9587 5.62523 55.7849 5.69723 55.6566 5.82539L43.2922 18.1898C42.836 18.6459 42.4923 19.202 42.2885 19.8141V19.8141C42.0854 20.4275 41.7421 20.9852 41.286 21.4429C40.8298 21.9006 40.2733 22.2456 39.6605 22.4508V22.4508C39.0481 22.6549 38.4915 22.9985 38.0346 23.4545L6.32538 55.1566C6.19721 55.2849 6.12521 55.4587 6.12521 55.64C6.12521 55.8213 6.19721 55.9952 6.32538 56.1234L14.0826 63.8807C14.2034 64.0026 14.3658 64.0743 14.5373 64.0814C14.7088 64.0886 14.8766 64.0307 15.0072 63.9193C16.5769 62.5713 18.5978 61.8658 20.6654 61.9442C22.733 62.0226 24.6947 62.8791 26.1578 64.3422C27.6209 65.8053 28.4773 67.767 28.5558 69.8346C28.6342 71.9022 27.9287 73.9231 26.5807 75.4928C26.4693 75.6234 26.4114 75.7912 26.4185 75.9627C26.4257 76.1341 26.4974 76.2966 26.6193 76.4174L34.3766 84.1746C34.5048 84.3028 34.6787 84.3748 34.8599 84.3748C35.0412 84.3748 35.2151 84.3028 35.3433 84.1746L67.0543 52.4654C67.5103 52.0085 67.8539 51.4519 68.058 50.8395V50.8395C68.2611 50.226 68.6043 49.6683 69.0605 49.2107C69.5166 48.753 70.0732 48.4079 70.6859 48.2027V48.2027C71.298 47.9989 71.8541 47.6552 72.3101 47.199L84.6746 34.8346C84.8028 34.7063 84.8748 34.5325 84.8748 34.3512C84.8748 34.1699 84.8028 33.996 84.6746 33.8678L76.9174 26.1105C76.7966 25.9887 76.6341 25.9169 76.4627 25.9098C76.2912 25.9026 76.1233 25.9605 75.9928 26.0719C74.4249 27.4208 72.4057 28.1281 70.3388 28.0525C68.272 27.9769 66.3098 27.1239 64.8447 25.6641V25.6641Z" stroke="white" stroke-width="6" stroke-miterlimit="10"/>
<path d="M44.5332 24.6867L41.631 21.7846M52.2711 32.4246L50.3357 30.491M60.009 40.1643L58.0754 38.2289M68.7154 48.869L65.8133 45.9668" stroke="white" stroke-width="5" stroke-miterlimit="10" stroke-linecap="round"/>
</g>
</svg>
