<?xml version="1.0" encoding="utf-8"?>
<!-- Generator: Adobe Illustrator 25.4.0, SVG Export Plug-In . SVG Version: 6.00 Build 0)  -->
<svg version="1.1" id="Шар_1" xmlns="http://www.w3.org/2000/svg" xmlns:xlink="http://www.w3.org/1999/xlink" x="0px" y="0px"
	 viewBox="0 0 68 45.4" style="enable-background:new 0 0 68 45.4;" xml:space="preserve">
<style type="text/css">
	.st0{fill:#FF0000;}
	.st1{fill:#006600;}
	.st2{fill-rule:evenodd;clip-rule:evenodd;fill:#FFFF00;}
	.st3{fill:#FFFFFF;}
	.st4{fill:#FFFF00;}
	.st5{fill:#003399;}
	.st6{fill:#005BBB;}
	.st7{fill:#FFD528;}
</style>
<rect x="-90.5" y="0.6" class="st0" width="68" height="45.4"/>
<rect x="-90.5" y="0.6" class="st1" width="27.2" height="45.4"/>
<g>
	<g>
		<path class="st2" d="M-54.4,30.3c-3.4-0.1-19.1-9.9-19.2-11.5l0.9-1.4c1.6,2.3,17.6,11.8,19.2,11.5L-54.4,30.3"/>
		<path d="M-54.4,30.4C-54.4,30.4-54.4,30.4-54.4,30.4c-1.8-0.1-6.8-2.7-10.9-5.2c-4-2.4-8.4-5.5-8.4-6.3c0,0,0,0,0,0l0.9-1.4
			c0,0,0,0,0.1,0c0,0,0.1,0,0.1,0c1.5,2.1,17,11.4,19,11.4c0,0,0.1,0,0.1,0c0,0,0.1,0,0.1,0c0,0,0,0.1,0,0.1L-54.4,30.4
			C-54.4,30.4-54.4,30.4-54.4,30.4z M-73.6,18.9c0.1,0.7,3.7,3.4,8.3,6.2c3.8,2.3,8.9,5.1,10.8,5.2l0.7-1.3
			c-2.3-0.1-17.2-9-19.1-11.4L-73.6,18.9z"/>
	</g>
	<g>
		<path class="st2" d="M-73,17.2c-0.3,0.8,4.1,3.6,9.4,6.8c5.3,3.2,9.9,5.2,10.2,4.9c0,0,0.2-0.3,0.2-0.3c-0.1,0.1-0.2,0.1-0.5,0.1
			c-1.4-0.4-5.2-2.1-9.8-4.9c-4.6-2.8-8.7-5.4-9.3-6.5c0-0.1-0.1-0.2-0.1-0.3l0,0L-73,17.2L-73,17.2L-73,17.2L-73,17.2z M-54.3,30.4
			c-0.1,0.1-0.2,0.1-0.4,0.1c-1.3-0.1-5.2-2-9.8-4.8c-5.4-3.2-9.8-6.1-9.3-6.9l0.1-0.2l0,0c-0.4,1.3,8.7,6.5,9.3,6.9
			c5.3,3.3,9.8,5.2,10.2,4.7L-54.3,30.4L-54.3,30.4L-54.3,30.4z"/>
		<path d="M-54.5,30.5c-0.1,0-0.1,0-0.2,0c-1.3-0.1-5.3-2.1-9.8-4.8c-6.2-3.7-9.1-5.8-9.4-6.7c0-0.1,0-0.2,0-0.3l0.1-0.2
			c0,0,0.1,0,0.1,0l0,0c0,0,0,0,0,0c0,0,0,0,0,0.1c-0.1,0.4,0.8,1.8,8.9,6.6c0.2,0.1,0.3,0.2,0.4,0.2c5.6,3.4,9.7,5.1,10.1,4.7
			c0,0,0.1,0,0.1,0c0,0,0,0.1,0,0.1l-0.1,0.2c0,0,0,0,0,0C-54.3,30.5-54.4,30.5-54.5,30.5z M-73.7,18.8L-73.7,18.8
			c0,0.1-0.1,0.1,0,0.2c0.2,0.8,3.3,3.1,9.3,6.6c4.5,2.7,8.4,4.6,9.7,4.8c0.2,0,0.3,0,0.3,0c0,0,0,0,0,0l0-0.1
			c-1.1,0.1-5.5-2-10-4.8c-0.1,0-0.2-0.1-0.4-0.2C-70.4,21.9-73.4,19.8-73.7,18.8z M-53.5,29c-0.9,0-5.5-2.1-10.1-5
			c-5.9-3.6-9.8-6-9.4-6.9c0,0,0,0,0,0l0,0l0.1-0.2c0,0,0,0,0.1,0c0,0,0,0,0.1,0c0,0,0,0,0,0.1c0,0.1,0,0.2,0.1,0.3
			c0.7,1.2,5.3,4.1,9.2,6.5c4.3,2.6,8.2,4.5,9.8,4.9c0.2,0.1,0.3,0,0.4,0c0,0,0,0,0.1,0c0,0,0.1,0,0.1,0c0,0,0,0.1-0.1,0.3l0,0
			c0,0,0,0,0,0C-53.3,29-53.4,29-53.5,29z M-72.9,17.2c-0.3,0.8,5.1,4.1,9.4,6.7c5.3,3.2,9.7,5.1,10.1,4.9l0,0c0,0,0,0,0-0.1
			c-0.1,0-0.2,0-0.3,0c-1.6-0.5-5.5-2.3-9.8-4.9C-67.7,21.3-72.1,18.5-72.9,17.2C-72.8,17.3-72.8,17.2-72.9,17.2L-72.9,17.2z"/>
	</g>
	<g>
		<path class="st2" d="M-63.3,19.8c3.4,0,7.7-0.5,10.1-1.4l-0.5-0.9c-1.4,0.8-5.7,1.3-9.6,1.4c-4.6,0-7.9-0.5-9.5-1.6l-0.5,0.9
			C-70.3,19.5-67.2,19.8-63.3,19.8"/>
		<path d="M-63.3,19.9C-63.3,19.9-63.3,19.9-63.3,19.9c-4,0-7-0.3-10.1-1.6c0,0,0,0,0,0c0,0,0,0,0-0.1l0.5-0.9c0,0,0,0,0,0
			c0,0,0,0,0.1,0c1.5,1,4.5,1.5,9.5,1.6c4.3-0.1,8.2-0.7,9.6-1.4c0,0,0.1,0,0.1,0l0.5,0.9c0,0,0,0,0,0.1c0,0,0,0,0,0
			C-55.7,19.5-60.1,19.9-63.3,19.9C-63.3,19.9-63.3,19.9-63.3,19.9z M-73.2,18.2c3,1.2,6,1.5,9.9,1.5c0,0,0,0,0,0
			c3,0,7.4-0.4,10-1.4l-0.4-0.7c-1.6,0.8-6.1,1.3-9.6,1.4c-4.9,0-7.9-0.5-9.5-1.5L-73.2,18.2z"/>
	</g>
	<g>
		<path class="st2" d="M-53,18.4c-0.1,0.1-1.7,0.7-4,1.1c-1.6,0.2-3.7,0.4-6.2,0.5c-2.5,0-4.5-0.2-6-0.4c-2.5-0.4-3.7-0.9-4.2-1.1
			c0-0.1,0.1-0.2,0.1-0.2c1.3,0.5,2.6,0.9,4.1,1.1c1.5,0.2,3.5,0.4,5.9,0.4c2.6,0,4.6-0.2,6.2-0.5c2.4-0.4,3.7-0.9,3.9-1.1L-53,18.4
			L-53,18.4L-53,18.4z M-53.5,17.5c-0.3,0.2-1.6,0.7-3.8,1c-1.5,0.2-3.5,0.4-5.9,0.4c-2.3,0-4.3-0.2-5.7-0.4c-2.3-0.3-3.5-0.8-4-1
			c0-0.1,0.1-0.2,0.1-0.2c0.3,0.2,1.5,0.7,3.9,1c1.4,0.2,3.4,0.4,5.7,0.4c2.5,0,4.4-0.2,5.9-0.4c2.3-0.3,3.5-0.9,3.7-1L-53.5,17.5
			L-53.5,17.5L-53.5,17.5z"/>
		<path d="M-63.3,20c-2.1,0-4.1-0.1-5.9-0.4c-2.4-0.4-3.7-0.9-4.2-1.1l-0.1,0c0,0,0,0,0,0c0,0,0,0,0-0.1l0-0.1c0,0,0-0.1,0.1-0.1
			c0,0,0.1-0.1,0.1,0c1.3,0.5,2.6,0.8,4.1,1.1c1.9,0.3,3.8,0.4,5.9,0.4c0,0,0,0,0,0c2.1,0,4.1-0.2,6.2-0.5c2.3-0.4,3.7-0.9,3.8-1.1
			c0,0,0,0,0.1,0c0,0,0,0,0.1,0l0.2,0.3c0,0,0,0.1,0,0.1c0,0,0,0,0,0c-0.2,0.2-1.9,0.7-4,1.1C-59,19.8-61.1,20-63.3,20
			C-63.3,20-63.3,20-63.3,20z M-73.3,18.4c0.5,0.2,1.8,0.7,4.1,1.1c1.8,0.3,3.8,0.4,5.9,0.4c0,0,0,0,0,0c2.2,0,4.3-0.2,6.2-0.5
			c2.2-0.4,3.7-0.9,3.9-1l-0.1-0.2c-0.4,0.3-1.8,0.7-3.9,1.1c-2.1,0.3-4.1,0.5-6.2,0.5c0,0,0,0,0,0c-2,0-4-0.1-5.9-0.4
			C-70.8,19.1-72,18.8-73.3,18.4C-73.3,18.3-73.3,18.3-73.3,18.4L-73.3,18.4z M-63.3,19c-2.1,0-4-0.1-5.7-0.4
			c-2.1-0.3-3.2-0.7-3.8-0.9c-0.1,0-0.1-0.1-0.2-0.1c0,0,0,0,0,0c0,0,0,0,0-0.1c0-0.1,0.1-0.2,0.1-0.2c0,0,0.1,0,0.1,0
			c0.2,0.1,1.3,0.6,3.9,1c1.1,0.2,3.1,0.4,5.7,0.4c2.7,0,4.6-0.2,5.9-0.4c2.4-0.3,3.5-0.9,3.7-1c0,0,0,0,0.1,0c0,0,0,0,0.1,0
			l0.2,0.3c0,0,0,0.1,0,0.1c-0.3,0.2-1.5,0.7-3.9,1C-59.3,18.9-61.2,19-63.3,19C-63.3,19-63.3,19-63.3,19z M-72.9,17.5
			c0,0,0.1,0,0.1,0c0.6,0.2,1.7,0.7,3.8,0.9c1.7,0.2,3.6,0.4,5.7,0.4c2,0,4-0.1,5.9-0.4c2.1-0.3,3.4-0.8,3.7-1l-0.1-0.1
			c-0.3,0.2-1.5,0.7-3.7,1c-1.2,0.2-3.2,0.4-5.9,0.4c0,0,0,0-0.1,0c-2.6,0-4.5-0.2-5.7-0.4C-71.3,18.1-72.5,17.6-72.9,17.5
			C-72.8,17.5-72.8,17.5-72.9,17.5z"/>
	</g>
	<g>
		<path class="st2" d="M-74.5,23.9c2.1,1.1,6.8,1.7,11.2,1.7c4,0,9.3-0.6,11.3-1.7l-0.1-1.1c-0.6,1-6.2,1.9-11.2,1.8
			c-5,0-9.6-0.8-11.2-1.8L-74.5,23.9"/>
		<path d="M-63.2,25.8C-63.3,25.8-63.3,25.8-63.2,25.8c-4,0-9-0.5-11.3-1.8c0,0,0,0,0-0.1l0-1c0,0,0-0.1,0-0.1c0,0,0.1,0,0.1,0
			c1.6,1,6.2,1.8,11.1,1.8c4.9,0,10.6-0.9,11.2-1.8c0,0,0.1,0,0.1,0c0,0,0.1,0,0.1,0.1L-52,24c0,0,0,0.1,0,0.1
			C-54,25.1-59.3,25.8-63.2,25.8z M-74.4,23.9c2.3,1.2,7.3,1.7,11.1,1.7c0,0,0,0,0.1,0c3.9,0,9.1-0.6,11.1-1.6l0-0.9
			c-1.1,0.9-6.4,1.8-11.2,1.7c-4.8,0-9.4-0.8-11.1-1.7L-74.4,23.9z"/>
	</g>
	<g>
		<path class="st2" d="M-51.9,23.8l0,0.3c-0.3,0.4-2.1,0.9-4.5,1.3c-1.8,0.3-4.1,0.5-6.9,0.5c-2.7,0-4.9-0.2-6.6-0.5
			c-2.7-0.4-4.4-1.1-4.7-1.3l0-0.3c1,0.7,3.8,1.2,4.8,1.3c1.7,0.3,3.8,0.5,6.6,0.5c2.9,0,5.2-0.2,6.9-0.5
			C-54.8,24.8-52.4,24.2-51.9,23.8L-51.9,23.8L-51.9,23.8z M-51.9,22.8l0,0.3c-0.3,0.4-2.1,0.9-4.5,1.3c-1.8,0.3-4.1,0.5-6.9,0.5
			c-2.7,0-4.9-0.2-6.6-0.5c-2.7-0.4-4.4-1.1-4.7-1.3l0-0.3c1,0.7,3.8,1.2,4.8,1.3c1.7,0.3,3.8,0.5,6.6,0.5c2.9,0,5.2-0.2,6.9-0.5
			C-54.8,23.8-52.4,23.2-51.9,22.8L-51.9,22.8L-51.9,22.8z"/>
		<path d="M-63.3,25.9c-2.4,0-4.6-0.2-6.6-0.5c-2.6-0.4-4.3-1-4.7-1.3c0,0,0,0,0-0.1l0-0.3c0,0,0-0.1,0-0.1c0,0,0.1,0,0.1,0
			c1,0.7,3.9,1.2,4.7,1.3c1.9,0.3,4.1,0.4,6.5,0.4c2.5,0,4.9-0.2,6.9-0.5c1.6-0.2,4-0.9,4.5-1.3c0,0,0.1,0,0.1,0c0,0,0,0,0,0.1V24
			c0,0,0,0,0,0c-0.3,0.4-2.2,0.9-4.5,1.3C-58.5,25.7-60.8,25.9-63.3,25.9z M-74.6,24c0.4,0.2,2,0.9,4.7,1.2c2,0.3,4.2,0.5,6.6,0.5
			c2.5,0,4.9-0.2,6.9-0.5c2.5-0.4,4.1-0.9,4.4-1.2v-0.1c-0.7,0.4-2.8,1-4.4,1.2c-2,0.3-4.4,0.5-6.9,0.5c-2.4,0-4.6-0.2-6.6-0.5
			c-1.1-0.2-3.6-0.6-4.7-1.3L-74.6,24z M-63.3,24.9c-2.4,0-4.6-0.2-6.6-0.5c-2.6-0.4-4.3-1-4.7-1.3c0,0,0,0,0-0.1l0-0.3
			c0,0,0-0.1,0-0.1c0,0,0.1,0,0.1,0c1,0.7,3.9,1.2,4.7,1.3c1.9,0.3,4.1,0.4,6.5,0.4c2.5,0,4.9-0.2,6.9-0.5c1.6-0.2,4-0.9,4.5-1.3
			c0,0,0.1,0,0.1,0c0,0,0,0,0,0.1l0,0.3c0,0,0,0,0,0c-0.3,0.4-2.2,0.9-4.5,1.3C-58.5,24.7-60.8,24.9-63.3,24.9z M-74.6,23
			c0.4,0.2,2,0.9,4.7,1.2c2,0.3,4.2,0.5,6.6,0.5c2.5,0,4.9-0.2,6.9-0.5c2.5-0.4,4.1-0.9,4.4-1.2l0-0.1c-0.7,0.4-2.8,1-4.4,1.2
			c-2,0.3-4.4,0.5-6.9,0.5c-2.4,0-4.6-0.2-6.6-0.5c-1.1-0.2-3.6-0.6-4.7-1.3L-74.6,23z"/>
	</g>
	<g>
		<path class="st2" d="M-63.3,30.1c-4.8,0-9-1.3-9.9-1.5l0.6,1c1.5,0.7,5.6,1.6,9.3,1.5c3.7-0.1,6.9-0.4,9.2-1.5l0.7-1
			C-55,29.3-60.2,30.1-63.3,30.1"/>
		<path d="M-63.8,31.2c-3.5,0-7.2-0.9-8.8-1.5c0,0,0,0,0,0l-0.6-1c0,0,0-0.1,0-0.1c0,0,0.1,0,0.1,0c0.1,0,0.3,0.1,0.4,0.1
			c1.4,0.4,5.2,1.4,9.4,1.4c3.1,0,8.3-0.8,9.8-1.5c0,0,0.1,0,0.1,0c0,0,0,0.1,0,0.1l-0.7,1c0,0,0,0,0,0c-2.4,1.2-5.8,1.4-9.2,1.5
			C-63.4,31.2-63.6,31.2-63.8,31.2z M-72.5,29.5c1.6,0.7,5.6,1.6,9.2,1.5c3.4-0.1,6.8-0.3,9.1-1.5l0.5-0.8c-1.8,0.7-6.7,1.5-9.7,1.5
			c0,0,0,0,0,0c-4.3,0-8-1-9.5-1.4c-0.1,0-0.2,0-0.3-0.1L-72.5,29.5z"/>
	</g>
	<g>
		<path class="st2" d="M-53.8,29.4c-0.1,0.1-0.2,0.3-0.3,0.4c-1.1,0.4-2.8,0.8-3.5,0.9c-1.5,0.3-3.7,0.5-5.7,0.5
			c-4.3-0.1-7.8-0.9-9.5-1.6l-0.1-0.2l0,0l0.2,0.1c2.9,1.1,6.2,1.5,9.4,1.5c2,0,4-0.2,5.6-0.5C-55.2,30-54.2,29.6-53.8,29.4
			L-53.8,29.4L-53.8,29.4L-53.8,29.4z M-53.3,28.4C-53.3,28.4-53.3,28.4-53.3,28.4c-0.1,0.1-0.1,0.3-0.2,0.4c-0.6,0.2-2.1,0.7-4.4,1
			c-1.5,0.2-2.4,0.4-5.4,0.5c-5.6-0.1-9.2-1.2-10-1.5l-0.1-0.2c3.2,0.8,6.5,1.4,10.1,1.5c2.7-0.1,3.9-0.3,5.3-0.5
			c2.6-0.4,4-0.8,4.4-1c0,0,0,0,0,0L-53.3,28.4L-53.3,28.4L-53.3,28.4z"/>
		<path d="M-63.3,31.3c-4.4-0.1-7.9-0.9-9.5-1.6c0,0,0,0,0,0l-0.1-0.2c0,0,0-0.1,0-0.1l0,0c0,0,0.1,0,0.1,0l0.2,0.1
			c2.6,0.9,5.8,1.5,9.4,1.5c2.2,0,4.2-0.3,5.6-0.5c2.7-0.6,3.6-0.9,3.8-1l0.1,0c0,0,0.1,0,0.1,0c0,0,0,0.1,0,0.1
			c-0.1,0.1-0.2,0.3-0.3,0.4c0,0,0,0,0,0c-1.1,0.4-2.7,0.8-3.5,0.9C-59.1,31.1-61.4,31.3-63.3,31.3z M-72.7,29.5
			c1.8,0.8,5.3,1.5,9.4,1.6c1.9,0,4.2-0.2,5.7-0.5c0.7-0.1,2.4-0.5,3.4-0.9c0-0.1,0.1-0.1,0.1-0.2c-0.4,0.2-1.4,0.5-3.6,1
			c-1.3,0.2-3.4,0.5-5.6,0.5C-66.9,31-70,30.4-72.7,29.5L-72.7,29.5L-72.7,29.5z M-63.2,30.3c-5-0.1-8.4-1-10-1.5c0,0,0,0,0,0
			l-0.1-0.2c0,0,0-0.1,0-0.1c0,0,0,0,0.1,0c3.7,1,6.9,1.4,10.1,1.5c2.4-0.1,3.6-0.2,4.9-0.4l0.5-0.1c2.5-0.4,3.8-0.8,4.3-0.9
			c0,0,0,0,0,0l0.3-0.1c0,0,0.1,0,0.1,0c0,0,0,0,0,0c0,0,0,0.1,0,0.1c-0.1,0.1-0.1,0.2-0.2,0.4c0,0,0,0,0,0c-0.8,0.3-2.4,0.7-4.4,1
			c-0.2,0-0.4,0.1-0.6,0.1C-59.7,30.1-60.7,30.3-63.2,30.3z M-73.2,28.7c1.6,0.5,5,1.4,10,1.5c2.5,0,3.5-0.2,4.7-0.4
			c0.2,0,0.4-0.1,0.6-0.1c2-0.3,3.6-0.7,4.3-1c0-0.1,0.1-0.1,0.1-0.2l0,0l0,0c0,0,0,0,0,0l0,0c-0.4,0.1-1.8,0.6-4.3,1l-0.5,0.1
			c-1.3,0.2-2.5,0.3-4.9,0.4C-66.4,30-69.6,29.6-73.2,28.7L-73.2,28.7z"/>
	</g>
	<g>
		<path class="st2" d="M-53.2,23c0,3.2-1.6,6.1-2.9,7.3c-1.9,1.8-4.3,2.9-7.2,3c-3.2,0.1-6.2-2-7.1-3c-1.6-1.8-2.9-4.1-2.9-7.2
			c0.2-3.5,1.6-5.9,3.5-7.6c2-1.7,4.6-2.5,6.8-2.4c2.5,0.1,5.5,1.3,7.5,3.8C-54.1,18.6-53.5,20.4-53.2,23L-53.2,23z M-63.3,12.1
			c6.2,0,11.3,5,11.3,11.2c0,6.2-5.1,11.2-11.3,11.2s-11.2-5-11.2-11.2S-69.5,12.1-63.3,12.1"/>
		<path d="M-63.3,34.6c-6.2,0-11.3-5.1-11.3-11.3c0-6.2,5.1-11.3,11.3-11.3c6.3,0,11.3,5.1,11.3,11.3C-52,29.5-57.1,34.6-63.3,34.6z
			 M-63.3,12.2c-6.1,0-11.1,5-11.1,11.1s5,11.1,11.1,11.1c6.2,0,11.2-5,11.2-11.1S-57.2,12.2-63.3,12.2z M-63.5,33.4
			c-3.3,0-6.3-2.2-7-3c-1.9-2.2-2.9-4.6-2.9-7.2c0.2-3.2,1.4-5.8,3.6-7.6c1.9-1.6,4.5-2.5,6.9-2.4c2.8,0.1,5.7,1.5,7.6,3.8
			c1.3,1.6,1.9,3.3,2.2,6.1c0,0,0,0,0,0c0,3.1-1.5,6-3,7.4c-2,1.9-4.5,3-7.3,3C-63.4,33.4-63.4,33.4-63.5,33.4z M-63.2,13.3
			c-2.3,0-4.8,0.9-6.5,2.4c-2.2,1.8-3.3,4.3-3.5,7.5c0,2.6,1,4.9,2.9,7.1c0.7,0.8,3.6,2.9,6.9,2.9c0,0,0.1,0,0.1,0
			c2.7,0,5.2-1.1,7.2-3c1.4-1.4,2.9-4.2,2.9-7.3c-0.3-2.8-0.9-4.5-2.2-6c-1.9-2.2-4.7-3.7-7.5-3.8C-63.1,13.3-63.1,13.3-63.2,13.3z"
			/>
	</g>
	<g>
		<path class="st2" d="M-63.3,12.1c6.2,0,11.2,5,11.2,11.2c0,6.2-5,11.2-11.2,11.2c-6.2,0-11.2-5-11.2-11.2S-69.5,12.1-63.3,12.1
			L-63.3,12.1z M-74.3,23.3c0,6,5,11,11,11c6,0,11-4.9,11-11c0-6-5-11-11-11S-74.3,17.3-74.3,23.3L-74.3,23.3z"/>
		<path d="M-63.3,34.6c-6.2,0-11.3-5.1-11.3-11.3c0-6.2,5.1-11.3,11.3-11.3S-52,17.1-52,23.3C-52,29.5-57.1,34.6-63.3,34.6z
			 M-63.3,12.2c-6.1,0-11.1,5-11.1,11.2c0,6.1,5,11.2,11.1,11.2c6.1,0,11.1-5,11.1-11.2C-52.1,17.2-57.1,12.2-63.3,12.2z
			 M-63.3,34.4c-6.1,0-11.1-5-11.1-11.1c0-6.1,5-11.1,11.1-11.1s11.1,5,11.1,11.1C-52.2,29.4-57.2,34.4-63.3,34.4z M-63.3,12.4
			c-6,0-10.9,4.9-10.9,10.9c0,6,4.9,10.9,10.9,10.9s10.9-4.9,10.9-10.9C-52.4,17.3-57.3,12.4-63.3,12.4z"/>
	</g>
	<g>
		<path class="st2" d="M-63.3,13c5.6,0,10.3,4.6,10.3,10.3c0,5.7-4.6,10.3-10.3,10.3s-10.3-4.6-10.3-10.3
			C-73.6,17.6-68.9,13-63.3,13L-63.3,13z M-73.3,23.3c0,5.5,4.5,10,10,10s10-4.5,10-10c0-5.5-4.5-10-10-10
			C-68.8,13.3-73.3,17.8-73.3,23.3L-73.3,23.3z"/>
		<path d="M-63.3,33.7c-5.7,0-10.4-4.6-10.4-10.4c0-5.7,4.6-10.4,10.4-10.4s10.4,4.6,10.4,10.4C-52.9,29-57.6,33.7-63.3,33.7z
			 M-63.3,13.1c-5.6,0-10.2,4.6-10.2,10.2c0,5.6,4.6,10.2,10.2,10.2s10.2-4.6,10.2-10.2C-53.1,17.7-57.7,13.1-63.3,13.1z
			 M-63.3,33.4c-5.6,0-10.1-4.5-10.1-10.1c0-5.6,4.5-10.1,10.1-10.1s10.1,4.5,10.1,10.1C-53.2,28.9-57.7,33.4-63.3,33.4z
			 M-63.3,13.3c-5.5,0-10,4.5-10,10s4.5,10,10,10s10-4.5,10-10S-57.8,13.3-63.3,13.3z"/>
	</g>
	<g>
		<path class="st2" d="M-62.8,12h-1l0,22.6h1L-62.8,12z"/>
		<path d="M-62.8,34.7h-1c0,0-0.1,0-0.1-0.1l0-22.6c0,0,0,0,0-0.1c0,0,0,0,0.1,0h1c0,0,0.1,0,0.1,0.1L-62.8,34.7
			C-62.7,34.6-62.8,34.6-62.8,34.7C-62.8,34.7-62.8,34.7-62.8,34.7z M-63.7,34.5h0.8l0-22.4h-0.8L-63.7,34.5z"/>
	</g>
	<g>
		<path class="st2" d="M-62.9,11.9h0.2l0,22.8h-0.2L-62.9,11.9L-62.9,11.9z M-63.9,11.9h0.2l0,22.8h-0.2L-63.9,11.9L-63.9,11.9z"/>
		<path d="M-63.6,34.8h-0.2c0,0-0.1,0-0.1-0.1V11.9c0,0,0-0.1,0.1-0.1h0.2c0,0,0.1,0,0.1,0.1L-63.6,34.8
			C-63.6,34.7-63.6,34.8-63.6,34.8C-63.6,34.8-63.6,34.8-63.6,34.8z M-63.8,34.6L-63.8,34.6l0.1-22.7h-0.1L-63.8,34.6z M-62.7,34.8
			h-0.2c0,0-0.1,0-0.1-0.1l0-22.8c0,0,0,0,0-0.1c0,0,0,0,0.1,0h0.2c0,0,0.1,0,0.1,0.1L-62.7,34.8C-62.6,34.7-62.6,34.8-62.7,34.8
			C-62.6,34.8-62.7,34.8-62.7,34.8z M-62.8,34.6L-62.8,34.6l0.1-22.7h-0.1L-62.8,34.6z"/>
	</g>
	<g>
		<path class="st2" d="M-52.1,23.7v-0.8l-0.7-0.6l-3.9-1l-5.6-0.6l-6.7,0.3l-4.8,1.1l-1,0.7v0.8l2.4-1.1l5.8-0.9h5.6l4.1,0.5
			l2.8,0.7L-52.1,23.7z"/>
		<path d="M-52.1,23.8C-52.1,23.8-52.1,23.8-52.1,23.8l-1.8-0.9l-2.8-0.7l-4.1-0.5l-5.5,0l-5.8,0.9l-2.4,1.1c0,0-0.1,0-0.1,0
			c0,0,0,0,0-0.1v-0.8c0,0,0,0,0-0.1l1-0.7c0,0,0,0,0,0l4.8-1.1l6.7-0.3l5.6,0.6l3.9,1c0,0,0,0,0,0l0.7,0.6c0,0,0,0,0,0.1
			L-52.1,23.8C-52,23.8-52,23.8-52.1,23.8C-52,23.8-52,23.8-52.1,23.8z M-60.8,21.6l4.1,0.5l2.8,0.7l1.7,0.9v-0.7l-0.6-0.6l-3.8-1
			l-5.5-0.6l-6.7,0.3l-4.7,1.1l-0.9,0.7v0.7l2.3-1c0,0,0,0,0,0l5.8-0.9L-60.8,21.6z"/>
	</g>
	<g>
		<path class="st2" d="M-63.3,21.6c2.7,0,5.2,0.3,7.3,0.6c2.1,0.4,3.6,0.9,4.1,1.5l0,0.3c-0.6-0.7-2.6-1.3-4.1-1.6
			c-2-0.4-4.6-0.6-7.2-0.6c-2.8,0-5.4,0.3-7.4,0.7c-1.6,0.3-3.7,0.9-4,1.6v-0.3c0.1-0.4,1.7-1.1,4-1.5
			C-68.7,21.8-66.1,21.6-63.3,21.6L-63.3,21.6z M-63.3,20.6c2.7,0,5.2,0.3,7.3,0.6c2.1,0.4,3.6,0.9,4.1,1.5l0,0.3
			c-0.6-0.7-2.6-1.3-4.1-1.6c-2-0.4-4.6-0.6-7.2-0.6c-2.8,0-5.4,0.3-7.4,0.7c-1.5,0.3-3.8,0.9-4,1.6v-0.3c0.1-0.4,1.8-1.1,4-1.5
			C-68.7,20.9-66.1,20.6-63.3,20.6L-63.3,20.6z"/>
		<path d="M-74.7,24.1C-74.7,24.1-74.7,24.1-74.7,24.1C-74.7,24.1-74.7,24.1-74.7,24.1l-0.1-0.4c0,0,0,0,0,0c0.2-0.5,1.8-1.1,4-1.6
			c2.2-0.4,4.8-0.7,7.4-0.7l0,0.1l0-0.1c0,0,0,0,0.1,0c2.5,0,5.1,0.2,7.2,0.6c1.5,0.3,3.5,0.8,4.1,1.6c0,0,0,0,0,0.1l0,0.3
			c0,0,0,0.1-0.1,0.1c0,0-0.1,0-0.1,0c-0.6-0.8-2.8-1.3-4.1-1.6c-2.1-0.4-4.7-0.6-7.1-0.6c0,0,0,0-0.1,0c-2.6,0-5.2,0.2-7.4,0.7
			C-72.4,22.9-74.3,23.5-74.7,24.1C-74.6,24.1-74.6,24.1-74.7,24.1z M-63.2,21.7c2.5,0,5,0.2,7.2,0.6c1.2,0.2,3.3,0.7,4,1.5v-0.1
			c-0.5-0.5-1.9-1.1-4-1.5C-58.2,21.9-60.8,21.6-63.2,21.7c-2.7-0.1-5.3,0.1-7.5,0.6c-2.4,0.5-3.8,1.1-3.9,1.5v0.1
			c0.7-0.8,3.6-1.3,3.9-1.4C-68.5,22-65.9,21.7-63.2,21.7C-63.3,21.7-63.2,21.7-63.2,21.7z M-74.7,23.2
			C-74.7,23.2-74.7,23.2-74.7,23.2C-74.7,23.2-74.7,23.1-74.7,23.2l-0.1-0.4c0,0,0,0,0,0c0.2-0.5,1.9-1.2,4-1.6
			c2.1-0.4,4.8-0.7,7.4-0.7l0,0c0,0,0,0,0.1,0c2.5,0,5.1,0.2,7.2,0.6c1.5,0.3,3.5,0.8,4.1,1.6c0,0,0,0,0,0.1l0,0.3
			c0,0,0,0.1-0.1,0.1c0,0-0.1,0-0.1,0c-0.6-0.8-2.8-1.3-4.1-1.6c-2.1-0.4-4.7-0.6-7.1-0.6c0,0-0.1,0-0.1,0c-2.6,0-5.2,0.2-7.3,0.7
			C-72.4,21.9-74.4,22.6-74.7,23.2C-74.6,23.1-74.6,23.2-74.7,23.2z M-63.2,20.8c2.5,0,5,0.2,7.2,0.6c1.2,0.2,3.3,0.7,4,1.5v-0.1
			c-0.5-0.5-1.9-1.1-4-1.5C-58.2,20.9-60.7,20.7-63.2,20.8C-63.2,20.7-63.3,20.7-63.2,20.8L-63.2,20.8c-2.7-0.1-5.3,0.1-7.5,0.6
			c-2.2,0.4-3.8,1.1-3.9,1.5v0.1c0.6-0.6,2.6-1.2,3.9-1.4C-68.5,21-65.9,20.8-63.2,20.8C-63.3,20.8-63.2,20.8-63.2,20.8z"/>
	</g>
	<g>
		<path class="st2" d="M-63.3,15.7c4.2,0,7.8,0.6,9.5,1.4l0.6,1.1c-1.4-0.8-5.4-1.6-10.1-1.5c-3.8,0-7.9,0.4-10,1.5l0.7-1.2
			C-70.9,16.1-66.9,15.7-63.3,15.7"/>
		<path d="M-73.3,18.3C-73.4,18.3-73.4,18.3-73.3,18.3c-0.1,0-0.1-0.1-0.1-0.1l0.7-1.2c0,0,0,0,0,0c1.8-0.9,5.9-1.3,9.3-1.3
			c0.1,0,0.1,0,0.2,0c4,0,7.6,0.6,9.3,1.4c0,0,0,0,0,0l0.6,1.1c0,0,0,0.1,0,0.1c0,0-0.1,0-0.1,0c-1.5-0.8-5.5-1.6-10.1-1.5
			C-66,16.8-70.9,17-73.3,18.3C-73.3,18.3-73.3,18.3-73.3,18.3z M-72.6,17.1l-0.6,1c2.5-1.2,7.2-1.4,9.8-1.4
			c4.4-0.1,8.2,0.6,9.9,1.4l-0.5-0.8c-1.7-0.9-5.3-1.4-9.2-1.4c-0.1,0-0.1,0-0.2,0C-66.7,15.8-70.8,16.2-72.6,17.1z"/>
	</g>
	<g>
		<path class="st2" d="M-63.3,16.6c2.4,0,4.7,0.1,6.5,0.5c1.7,0.3,3.3,0.8,3.6,1l0.2,0.3c-0.6-0.4-2-0.8-3.8-1.1
			c-1.8-0.3-4.1-0.5-6.5-0.4c-2.7,0-4.8,0.1-6.6,0.4c-1.9,0.4-3.2,0.9-3.5,1.1l0.2-0.3c0.6-0.3,1.6-0.7,3.3-1
			C-68.1,16.7-65.9,16.6-63.3,16.6L-63.3,16.6L-63.3,16.6z M-63.3,15.6c2.3,0,4.5,0.1,6.3,0.4c1.4,0.3,2.8,0.7,3.3,1.1l0.3,0.4
			c-0.4-0.5-2.1-1-3.6-1.2c-1.7-0.3-3.9-0.4-6.2-0.4c-2.4,0-4.6,0.2-6.3,0.5c-1.6,0.3-2.7,0.7-3.1,1l0.2-0.4
			c0.6-0.3,1.6-0.6,2.9-0.9C-67.9,15.7-65.7,15.6-63.3,15.6L-63.3,15.6z"/>
		<path d="M-53,18.5C-53,18.5-53.1,18.5-53,18.5c-0.6-0.4-2-0.8-3.8-1.1c-1.6-0.3-3.8-0.4-6.5-0.4c-2.7,0-4.8,0.1-6.6,0.4
			c-1.9,0.3-3.2,0.9-3.5,1.1c0,0-0.1,0-0.1,0c0,0,0-0.1,0-0.1l0.2-0.3c0,0,0,0,0,0c0.9-0.4,1.9-0.8,3.3-1c1.7-0.3,3.6-0.4,6.6-0.5
			l0,0c2.6,0,4.8,0.2,6.5,0.5c1.6,0.3,3.3,0.8,3.6,1.1l0.2,0.3C-52.9,18.4-52.9,18.4-53,18.5C-53,18.5-53,18.5-53,18.5z M-63.1,16.7
			c2.6,0,4.7,0.2,6.3,0.4c1.6,0.3,2.9,0.7,3.6,1l0-0.1c-0.2-0.2-1.7-0.7-3.5-1c-1.7-0.3-3.9-0.5-6.5-0.5c-3,0-4.9,0.1-6.6,0.5
			c-1.4,0.2-2.4,0.6-3.3,1l0,0.1c0.5-0.3,1.7-0.7,3.3-1c1.8-0.3,3.9-0.5,6.6-0.4C-63.2,16.7-63.2,16.7-63.1,16.7z M-53.5,17.6
			C-53.5,17.6-53.5,17.6-53.5,17.6c-0.5-0.5-2.3-1-3.6-1.2c-1.6-0.3-3.6-0.4-6.2-0.4c-2.5,0-4.7,0.2-6.3,0.5c-1.4,0.3-2.6,0.6-3.1,1
			c0,0-0.1,0-0.1,0c0,0,0-0.1,0-0.1l0.2-0.3c0,0,0,0,0,0c0.6-0.3,1.6-0.6,2.9-0.9c1.6-0.3,3.8-0.5,6.4-0.5l0,0h0
			c2.5,0,4.7,0.1,6.3,0.4c1.5,0.3,2.8,0.7,3.3,1.1c0,0,0,0,0,0l0.3,0.4C-53.4,17.5-53.4,17.6-53.5,17.6
			C-53.4,17.6-53.5,17.6-53.5,17.6z M-63.3,15.8c2.6,0,4.6,0.2,6.2,0.4c1.2,0.2,2.6,0.6,3.3,1l0,0c-0.5-0.3-1.8-0.8-3.2-1
			C-58.6,15.8-60.8,15.7-63.3,15.8L-63.3,15.8c-2.5-0.1-4.7,0.1-6.3,0.4c-1.2,0.2-2.2,0.5-2.8,0.9l0,0.1c0.6-0.3,1.6-0.6,2.9-0.8
			C-68,15.9-65.8,15.8-63.3,15.8z"/>
	</g>
	<g>
		<path class="st2" d="M-57.7,28c-2.1-0.4-4.1-0.4-5.6-0.4c-7,0.1-9.2,1.4-9.5,1.8l-0.5-0.8c1.8-1.3,5.6-2,10-1.9
			c2.3,0,4.3,0.2,6,0.5L-57.7,28"/>
		<path d="M-72.8,29.5C-72.8,29.5-72.8,29.5-72.8,29.5C-72.8,29.5-72.8,29.4-72.8,29.5l-0.6-0.9c0,0,0-0.1,0-0.1
			c1.8-1.3,5.6-2,10.1-1.9c2.5,0,4.4,0.2,6,0.5c0,0,0,0,0.1,0c0,0,0,0,0,0.1l-0.5,0.8c0,0,0,0,0,0c0,0-0.1,0-0.1,0
			c-1.6-0.3-3.5-0.4-5.6-0.4C-70,27.7-72.4,29-72.8,29.5C-72.7,29.4-72.8,29.5-72.8,29.5z M-73.2,28.6l0.4,0.7
			c0.4-0.3,2.3-1.7,9.5-1.8c2,0,3.9,0.1,5.5,0.4l0.4-0.7c-1.6-0.3-3.5-0.5-5.9-0.5C-67.7,26.6-71.4,27.3-73.2,28.6z"/>
	</g>
	<g>
		<path class="st2" d="M-63.3,27.4c1.9,0,3.8,0.1,5.7,0.5l-0.1,0.2c-1.7-0.3-3.5-0.4-5.5-0.4c-2.6,0-5.2,0.2-7.4,0.9
			c-0.7,0.2-1.9,0.7-2,1l-0.1-0.2c0-0.2,0.8-0.7,2.1-1.1C-68.2,27.6-65.8,27.4-63.3,27.4L-63.3,27.4L-63.3,27.4z M-63.2,26.4
			c2,0,4.1,0.1,6.1,0.5l-0.1,0.2c-1.8-0.4-3.6-0.5-5.9-0.5c-2.6,0-5.3,0.2-7.8,0.9c-0.8,0.2-2.2,0.7-2.2,1.1l-0.1-0.2
			c0-0.4,1.2-0.8,2.3-1.2C-68.6,26.6-65.8,26.5-63.2,26.4L-63.2,26.4z"/>
		<path d="M-72.8,29.7C-72.8,29.7-72.8,29.7-72.8,29.7l-0.2-0.3c0,0,0,0,0-0.1c0-0.3,0.8-0.7,2.1-1.1c2.5-0.7,4.8-0.9,7.5-0.9
			c0,0,0,0,0,0c1.8,0,3.8,0.1,5.7,0.5c0,0,0,0,0.1,0c0,0,0,0,0,0.1l-0.1,0.2c0,0,0,0-0.1,0c-1.6-0.3-3.4-0.4-5.5-0.4
			c-2.8,0-5.3,0.3-7.4,0.9C-71.6,28.9-72.6,29.3-72.8,29.7C-72.7,29.6-72.7,29.7-72.8,29.7C-72.8,29.7-72.8,29.7-72.8,29.7z
			 M-72.8,29.4L-72.8,29.4c0.4-0.3,1.6-0.7,2-0.9c2.1-0.6,4.6-0.9,7.5-0.9c2.1,0,3.9,0.1,5.5,0.4l0.1-0.1c-1.8-0.3-3.8-0.4-5.6-0.4
			c-2.7,0-5,0.2-7.5,0.9C-72.1,28.8-72.7,29.2-72.8,29.4z M-73.3,28.8C-73.3,28.8-73.3,28.8-73.3,28.8l-0.2-0.3c0,0,0,0,0,0
			c0-0.5,1.7-1,2.4-1.2c2.1-0.6,4.6-0.9,7.9-0.9c0,0,0,0,0,0c2,0,4.1,0.1,6.1,0.5c0,0,0,0,0.1,0c0,0,0,0,0,0.1l-0.1,0.2
			c0,0,0,0-0.1,0c-1.9-0.4-3.8-0.5-5.9-0.5c-3.2,0-5.7,0.3-7.8,0.9C-72.1,28-73.2,28.5-73.3,28.8C-73.2,28.8-73.2,28.8-73.3,28.8
			C-73.3,28.8-73.3,28.8-73.3,28.8z M-73.3,28.5L-73.3,28.5c0.4-0.4,1.9-0.9,2.3-1c2.1-0.6,4.6-0.9,7.8-0.9c2.2,0,4,0.1,5.9,0.5
			l0.1-0.1c-2-0.4-4.1-0.5-6-0.5c-3.2,0-5.7,0.3-7.8,0.9C-72.3,27.8-73.3,28.2-73.3,28.5z"/>
	</g>
	<g>
		<path class="st2" d="M-53.4,28.7l-0.8,1.3l-2.4-2.1l-6.2-4.2l-7-3.9l-3.6-1.2l0.8-1.4l0.3-0.1l2.3,0.6l7.5,3.9l4.3,2.7l3.6,2.6
			l1.5,1.7L-53.4,28.7z"/>
		<path d="M-54.2,30C-54.2,30-54.2,30-54.2,30l-2.5-2.2l-6.2-4.2l-7-3.9l-3.6-1.2c0,0,0,0,0,0c0,0,0,0,0-0.1l0.8-1.4c0,0,0,0,0,0
			l0.3-0.1c0,0,0,0,0.1,0l2.3,0.6l7.5,3.9l4.3,2.7l3.6,2.6l1.5,1.7c0,0,0,0,0,0.1l0,0.3c0,0,0,0,0,0L-54.2,30
			C-54.1,30-54.2,30-54.2,30C-54.2,30-54.2,30-54.2,30z M-73.4,18.5l3.6,1.2l7,3.9l6.2,4.2l2.3,2.1l0.8-1.2l0-0.2l-1.5-1.7l-3.6-2.6
			l-4.3-2.7l-7.5-3.9l-2.2-0.6l-0.2,0.1L-73.4,18.5z M-53.4,28.7L-53.4,28.7L-53.4,28.7z"/>
	</g>
	<g>
		<path class="st2" d="M-73.6,18.6c0.6-0.4,5.3,1.7,10.3,4.6c4.9,3,9.6,6.3,9.2,7l-0.1,0.2l-0.1,0.1c0,0,0.1-0.1,0-0.3
			c-0.2-0.7-3.5-3.3-9.1-6.7c-5.4-3.2-9.9-5.1-10.3-4.6L-73.6,18.6L-73.6,18.6L-73.6,18.6z M-53.2,28.6c0.4-0.8-4-4.1-9.4-7.3
			c-5.5-3.1-9.5-5-10.3-4.4l-0.2,0.3c0,0,0,0,0,0c0.1-0.1,0.4-0.1,0.5-0.1c1.3,0,4.8,1.7,9.9,4.5c2.2,1.3,9.3,5.8,9.3,7.1
			c0,0.1,0,0.1,0,0.2L-53.2,28.6L-53.2,28.6L-53.2,28.6z"/>
		<path d="M-54.4,30.5C-54.4,30.5-54.4,30.5-54.4,30.5c-0.1-0.1-0.1-0.1,0-0.1l0,0c0,0,0-0.1,0-0.2c-0.2-0.6-3.2-3.1-9-6.6
			c-5.5-3.3-9.8-5.1-10.2-4.6c0,0-0.1,0-0.1,0c0,0,0-0.1,0-0.1l0.1-0.3c0,0,0,0,0,0c0.8-0.5,6,2,10.4,4.6c4.4,2.7,9,5.9,9.2,6.9
			c0,0.1,0,0.2,0,0.2l-0.1,0.2c0,0,0,0,0,0L-54.4,30.5C-54.4,30.5-54.4,30.5-54.4,30.5C-54.4,30.5-54.4,30.5-54.4,30.5z M-73.5,18.7
			c1.4,0,5.9,2.2,10,4.7c5.4,3.3,8.9,6,9.1,6.7c0,0,0,0.1,0,0.1l0-0.1c0,0,0-0.1,0-0.1c-0.2-0.8-4.1-3.7-9.2-6.8
			c-5.1-3.1-9.6-5-10.2-4.6l0,0.1C-73.6,18.7-73.5,18.7-73.5,18.7z M-53.4,29C-53.4,29-53.4,29-53.4,29c-0.1,0-0.1-0.1-0.1-0.1l0,0
			c0,0,0,0,0-0.1l0,0c0-1.2-6.6-5.5-9.2-7.1c-5-2.9-8.6-4.5-9.8-4.5l0,0c-0.1,0-0.3,0-0.4,0.1c0,0,0,0,0,0c0,0-0.1,0.1-0.1,0
			c0,0-0.1,0-0.1-0.1c0,0,0,0,0,0l0.2-0.3c0,0,0,0,0,0c0.7-0.5,4.2,0.9,10.3,4.4c2.7,1.6,5.1,3.2,6.9,4.5c1.9,1.5,2.7,2.4,2.5,2.8
			c0,0,0,0,0,0L-53.4,29C-53.3,28.9-53.3,29-53.4,29C-53.3,29-53.3,29-53.4,29z M-53.2,28.6L-53.2,28.6L-53.2,28.6z M-72.5,17
			c1.3,0,4.9,1.7,9.9,4.6c1.4,0.8,9,5.5,9.3,7.1l0,0c0.3-0.6-3.2-3.5-9.3-7.2c-7.9-4.5-9.8-4.7-10.2-4.4l0,0
			C-72.7,17-72.6,17-72.5,17L-72.5,17z"/>
	</g>
</g>
<g>
	<g>
		<path class="st3" d="M-70,24.5c0,1.8,0.8,3.5,2,4.7c1.2,1.2,2.9,2,4.7,2c1.9,0,3.5-0.8,4.8-2c1.2-1.2,2-2.9,2-4.7h0v-9l-13.5,0
			L-70,24.5L-70,24.5L-70,24.5z"/>
		<path d="M-63.3,31.4c-1.8,0-3.5-0.7-4.8-2c-1.3-1.3-2-3-2-4.8l0-9.1l13.6,0v9.1c0,1.8-0.7,3.5-2,4.8
			C-59.8,30.6-61.5,31.4-63.3,31.4z M-69.9,15.6l0,8.9c0,1.8,0.7,3.4,2,4.7c1.3,1.3,2.9,2,4.7,2c1.8,0,3.4-0.7,4.7-1.9
			c1.3-1.3,2-2.9,2-4.7l0-8.9L-69.9,15.6z"/>
	</g>
	<g>
		<path class="st0" d="M-69.8,24.6L-69.8,24.6c0,1.8,0.7,3.4,1.9,4.5c1.2,1.2,2.8,1.9,4.6,1.9c1.8,0,3.4-0.7,4.6-1.9
			c1.2-1.2,1.9-2.8,1.9-4.5h0v-8.7l-12.9,0L-69.8,24.6 M-59.4,18.5l0,5.5l0,0.6h0c0,0.2,0,0.3,0,0.5c-0.1,0.9-0.5,1.6-1.1,2.2
			c-0.7,0.7-1.7,1.1-2.7,1.1c-1.1,0-2-0.4-2.7-1.1c-0.7-0.7-1.1-1.7-1.1-2.7l0-6.1L-59.4,18.5L-59.4,18.5L-59.4,18.5z"/>
		<path d="M-63.3,31.1c-1.7,0-3.4-0.7-4.6-1.9c-1.2-1.2-1.9-2.9-1.9-4.6l0.1,0h-0.1l0-8.8l13,0v8.8c0,1.7-0.7,3.4-1.9,4.6
			C-59.9,30.4-61.6,31.1-63.3,31.1z M-69.7,24.6L-69.7,24.6c0,1.7,0.7,3.3,1.9,4.5c1.2,1.2,2.8,1.9,4.5,1.9c1.7,0,3.3-0.7,4.5-1.9
			c1.2-1.2,1.9-2.8,1.9-4.5l0-8.6l-12.8,0L-69.7,24.6L-69.7,24.6z M-63.3,28.5c-1,0-2-0.4-2.8-1.2c-0.7-0.7-1.2-1.7-1.2-2.8l0-6.2
			h0.1l7.7,0l0,0l0,0l0,5.5l0,0.6c0,0.2,0,0.3,0,0.5c-0.1,0.9-0.5,1.6-1.1,2.3C-61.3,28.1-62.3,28.5-63.3,28.5z M-67.1,18.5l0,6.1
			c0,1,0.4,2,1.1,2.7c0.7,0.7,1.7,1.1,2.7,1.1c1,0,2-0.4,2.7-1.1c0.6-0.6,1-1.4,1.1-2.2c0-0.1,0-0.3,0-0.5l0-0.6l0-5.5L-67.1,18.5z"
			/>
	</g>
	<g id="castle3">
		<g id="castle">
			<path class="st4" d="M-68.9,18.1c0-0.6,0.5-0.8,0.5-0.8c0,0,0.5,0.2,0.5,0.8L-68.9,18.1"/>
			<g>
				<path class="st4" d="M-69.3,17.4l-0.1,0.7l0.5,0c0-0.6,0.5-0.7,0.5-0.7c0,0,0.5,0.1,0.5,0.7h0.5l-0.1-0.7L-69.3,17.4L-69.3,17.4
					L-69.3,17.4z"/>
				<path d="M-68.9,18.1l-0.6,0l0.1-0.9l1.8,0l0.1,0.9h-0.6l0-0.1c0-0.5-0.3-0.6-0.4-0.6C-68.5,17.5-68.9,17.6-68.9,18.1L-68.9,18.1
					z M-67.9,18h0.3l-0.1-0.6l-0.6,0c0,0,0,0,0.1,0.1C-68.1,17.6-68,17.7-67.9,18z M-69.3,18l0.3,0c0-0.3,0.2-0.5,0.3-0.6
					c0,0,0,0,0,0l-0.6,0L-69.3,18z"/>
			</g>
			<g>
				<path class="st4" d="M-69.4,18.1h1.9c0,0,0.1,0,0.1,0.1c0,0,0,0.1-0.1,0.1h-1.9C-69.5,18.3-69.5,18.2-69.4,18.1
					C-69.5,18.1-69.5,18.1-69.4,18.1z"/>
				<path d="M-67.5,18.3h-1.9c-0.1,0-0.1-0.1-0.1-0.2c0-0.1,0.1-0.2,0.1-0.2h1.9c0.1,0,0.1,0.1,0.1,0.2
					C-67.4,18.3-67.4,18.3-67.5,18.3z M-69.4,18.1C-69.4,18.1-69.4,18.2-69.4,18.1C-69.4,18.2-69.4,18.2-69.4,18.1l1.9,0
					c0,0,0,0,0,0c0,0,0,0,0,0L-69.4,18.1z"/>
			</g>
			<g>
				<path class="st4" d="M-68.7,18.1c0-0.4,0.3-0.5,0.3-0.5c0,0,0.3,0.1,0.3,0.5H-68.7"/>
				<path d="M-68.1,18.1h-0.7l0-0.1c0-0.2,0.1-0.4,0.2-0.5c0,0,0.1-0.1,0.1-0.1h0C-68.4,17.5-68.1,17.7-68.1,18.1L-68.1,18.1z
					 M-68.7,18h0.4c0-0.2-0.1-0.3-0.2-0.3C-68.5,17.7-68.6,17.8-68.7,18z"/>
			</g>
			<g>
				<path class="st4" d="M-69.4,17.1h1.8c0,0,0.1,0,0.1,0.1c0,0,0,0.1-0.1,0.1h-1.8C-69.4,17.2-69.5,17.2-69.4,17.1
					C-69.5,17.1-69.4,17.1-69.4,17.1z"/>
				<path d="M-67.5,17.3h-1.8c-0.1,0-0.1-0.1-0.1-0.1c0-0.1,0.1-0.1,0.1-0.1h1.8c0.1,0,0.1,0.1,0.1,0.1
					C-67.4,17.2-67.5,17.3-67.5,17.3z M-69.4,17.1L-69.4,17.1l1.8,0l0,0L-69.4,17.1z"/>
			</g>
			<g>
				<path class="st4" d="M-69.3,17.2h1.8c0,0,0.1,0,0.1,0.1c0,0,0,0.1-0.1,0.1h-1.8C-69.4,17.4-69.4,17.3-69.3,17.2
					C-69.4,17.3-69.4,17.2-69.3,17.2z"/>
				<path d="M-67.6,17.4h-1.8c-0.1,0-0.1-0.1-0.1-0.1s0.1-0.1,0.1-0.1h1.8c0.1,0,0.1,0.1,0.1,0.1S-67.5,17.4-67.6,17.4z M-69.3,17.3
					L-69.3,17.3l1.8,0l0,0L-69.3,17.3z"/>
			</g>
			<g>
				<path class="st4" d="M-68.8,16l0.1,0v0.1h0.1V16l0.1,0v0.1h0.1V16h0.1l0,0.2c0,0,0,0.1-0.1,0.1h-0.5c0,0-0.1,0-0.1-0.1L-68.8,16
					L-68.8,16L-68.8,16z"/>
				<path d="M-68.2,16.4h-0.5c-0.1,0-0.1-0.1-0.1-0.1l0-0.3l0.8,0l0,0.3C-68.1,16.3-68.1,16.4-68.2,16.4z M-68.7,16.1l0,0.2l0.5,0
					l0-0.2h0v0.1h-0.2l0-0.1v0.1L-68.7,16.1L-68.7,16.1z"/>
			</g>
			<g>
				<path class="st4" d="M-68.3,16.3l0,0.7l-0.5,0l0-0.7L-68.3,16.3"/>
				<path d="M-68.1,17.1l-0.6,0l0-0.9l0.6,0L-68.1,17.1z M-68.6,17l0.3,0l0-0.6l-0.3,0L-68.6,17z"/>
			</g>
			<g>
				<path id="cp1_00000056429970514122554810000013731262499808722110_" class="st4" d="M-68.8,16.7l0,0.4l-0.5,0l0-0.4L-68.8,16.7
					L-68.8,16.7L-68.8,16.7z"/>
				<path d="M-69.4,17.1l0-0.5h0.6l0,0.5L-69.4,17.1z M-69.2,16.7l0,0.3l0.3,0l0-0.3H-69.2z"/>
			</g>
			<g>
				<g>
					<path id="cp1_00000152969982342381702610000018336409160337089160_" class="st4" d="M-67.6,16.7l0,0.4l-0.5,0l0-0.4L-67.6,16.7
						L-67.6,16.7L-67.6,16.7z"/>
					<path d="M-68.2,17.1l0-0.5h0.6l0,0.5L-68.2,17.1z M-68,16.7l0,0.3l0.3,0l0-0.3H-68z"/>
				</g>
			</g>
			<g>
				<path id="cp2_00000180329666309472403850000012025301671412596132_" class="st4" d="M-69.4,16.4l0.1,0v0.1h0.1v-0.1l0.1,0v0.1
					h0.1v-0.1l0.1,0l0,0.2c0,0,0,0.1-0.1,0.1h-0.5c0,0-0.1,0-0.1-0.1L-69.4,16.4L-69.4,16.4L-69.4,16.4z"/>
				<path d="M-68.8,16.7h-0.5c-0.1,0-0.1-0.1-0.1-0.1l0-0.3l0.2,0v0l0.2,0v0l0.3,0l0,0.3C-68.7,16.7-68.7,16.7-68.8,16.7z
					 M-69.3,16.4l0,0.2l0.5,0l0-0.2v0.1h-0.2l0-0.1v0.1L-69.3,16.4L-69.3,16.4z"/>
			</g>
			<g>
				<g>
					<path id="cp2_00000127757420170492827740000015112333577590822049_" class="st4" d="M-68.2,16.4l0.1,0v0.1h0.1v-0.1l0.1,0v0.1
						h0.1v-0.1l0.1,0l0,0.2c0,0,0,0.1-0.1,0.1h-0.5c0,0-0.1,0-0.1-0.1L-68.2,16.4L-68.2,16.4L-68.2,16.4z"/>
					<path d="M-67.6,16.7h-0.5c-0.1,0-0.1-0.1-0.1-0.1l0-0.3l0.2,0v0l0.2,0v0l0.3,0l0,0.3C-67.5,16.7-67.5,16.7-67.6,16.7z
						 M-68.1,16.4l0,0.2l0.5,0l0-0.2v0.1h-0.2l0-0.1v0.1L-68.1,16.4L-68.1,16.4z"/>
				</g>
			</g>
			<path d="M-68.5,16.6C-68.5,16.5-68.4,16.5-68.5,16.6l0.1,0.2h-0.1L-68.5,16.6"/>
			<path id="cp3" d="M-69.1,16.8C-69.1,16.7-69,16.7-69.1,16.8l0.1,0.1h-0.1L-69.1,16.8"/>
			<g>
				<path id="cp3_00000085233814126191015500000005458584623293184899_" d="M-67.9,16.8C-67.9,16.7-67.8,16.7-67.9,16.8l0.1,0.1
					h-0.1L-67.9,16.8"/>
			</g>
		</g>
		<g>
			<g id="castle_00000096028859857201829860000013986822545040661950_">
				<path class="st4" d="M-68.9,23.4c0-0.6,0.5-0.8,0.5-0.8c0,0,0.5,0.2,0.5,0.8L-68.9,23.4"/>
				<g>
					<path class="st4" d="M-69.3,22.6l-0.1,0.7l0.5,0c0-0.6,0.5-0.7,0.5-0.7c0,0,0.5,0.1,0.5,0.7h0.5l-0.1-0.7L-69.3,22.6
						L-69.3,22.6L-69.3,22.6z"/>
					<path d="M-68.9,23.4l-0.6,0l0.1-0.9l1.8,0l0.1,0.9h-0.6l0-0.1c0-0.5-0.3-0.6-0.4-0.6C-68.5,22.7-68.9,22.8-68.9,23.4
						L-68.9,23.4z M-67.9,23.3h0.3l-0.1-0.6l-0.6,0c0,0,0,0,0.1,0.1C-68.1,22.8-68,23-67.9,23.3z M-69.3,23.3l0.3,0
						c0-0.3,0.2-0.5,0.3-0.6c0,0,0,0,0,0l-0.6,0L-69.3,23.3z"/>
				</g>
				<g>
					<path class="st4" d="M-69.4,23.3h1.9c0,0,0.1,0,0.1,0.1c0,0,0,0.1-0.1,0.1h-1.9C-69.5,23.5-69.5,23.5-69.4,23.3
						C-69.5,23.4-69.5,23.3-69.4,23.3z"/>
					<path d="M-67.5,23.6h-1.9c-0.1,0-0.1-0.1-0.1-0.2c0-0.1,0.1-0.2,0.1-0.2h1.9c0.1,0,0.1,0.1,0.1,0.2
						C-67.4,23.5-67.4,23.6-67.5,23.6z M-69.4,23.4C-69.4,23.4-69.4,23.4-69.4,23.4C-69.4,23.4-69.4,23.4-69.4,23.4l1.9,0
						c0,0,0,0,0,0c0,0,0,0,0,0L-69.4,23.4z"/>
				</g>
				<g>
					<path class="st4" d="M-68.7,23.3c0-0.4,0.3-0.5,0.3-0.5c0,0,0.3,0.1,0.3,0.5H-68.7"/>
					<path d="M-68.1,23.4h-0.7l0-0.1c0-0.3,0.1-0.4,0.2-0.5c0.1,0,0.1-0.1,0.1-0.1c0,0,0,0,0,0C-68.4,22.8-68.1,22.9-68.1,23.4
						L-68.1,23.4z M-68.7,23.3h0.4c0-0.2-0.1-0.3-0.2-0.3C-68.5,23-68.6,23.1-68.7,23.3z"/>
				</g>
				<g>
					<path class="st4" d="M-69.4,22.3h1.8c0,0,0.1,0,0.1,0.1c0,0,0,0.1-0.1,0.1h-1.8C-69.4,22.5-69.5,22.4-69.4,22.3
						C-69.5,22.3-69.4,22.3-69.4,22.3z"/>
					<path d="M-67.5,22.5h-1.8c-0.1,0-0.1-0.1-0.1-0.1s0.1-0.1,0.1-0.1h1.8c0.1,0,0.1,0.1,0.1,0.1S-67.5,22.5-67.5,22.5z
						 M-69.4,22.4L-69.4,22.4l1.8,0l0,0L-69.4,22.4z"/>
				</g>
				<g>
					<path class="st4" d="M-69.3,22.5h1.8c0,0,0.1,0,0.1,0.1c0,0,0,0.1-0.1,0.1h-1.8C-69.4,22.6-69.4,22.6-69.3,22.5
						C-69.4,22.5-69.4,22.5-69.3,22.5z"/>
					<path d="M-67.6,22.7h-1.8c-0.1,0-0.1-0.1-0.1-0.1c0-0.1,0.1-0.1,0.1-0.1h1.8c0.1,0,0.1,0.1,0.1,0.1
						C-67.4,22.6-67.5,22.7-67.6,22.7z M-69.3,22.5L-69.3,22.5l1.8,0l0,0L-69.3,22.5z"/>
				</g>
				<g>
					<path class="st4" d="M-68.8,21.3l0.1,0v0.1h0.1v-0.1l0.1,0v0.1h0.1v-0.1h0.1l0,0.2c0,0,0,0.1-0.1,0.1h-0.5c0,0-0.1,0-0.1-0.1
						L-68.8,21.3L-68.8,21.3L-68.8,21.3z"/>
					<path d="M-68.2,21.6h-0.5c-0.1,0-0.1-0.1-0.1-0.1l0-0.3l0.2,0v0l0.2,0v0h0.3l0,0.3C-68.1,21.6-68.1,21.6-68.2,21.6z
						 M-68.7,21.3l0,0.2l0.5,0l0-0.2h0v0.1h-0.2l0-0.1v0.1L-68.7,21.3L-68.7,21.3z"/>
				</g>
				<g>
					<path class="st4" d="M-68.3,21.6l0,0.7l-0.5,0l0-0.7L-68.3,21.6"/>
					<path d="M-68.1,22.4l-0.6,0l0-0.9l0.6,0L-68.1,22.4z M-68.6,22.2l0.3,0l0-0.6l-0.3,0L-68.6,22.2z"/>
				</g>
				<g>
					<path id="cp1_00000150070884550598452710000012848381443115928233_" class="st4" d="M-68.8,21.9l0,0.4l-0.5,0l0-0.4L-68.8,21.9
						L-68.8,21.9L-68.8,21.9z"/>
					<path d="M-69.4,22.4l0-0.5h0.6l0,0.5L-69.4,22.4z M-69.2,22l0,0.3l0.3,0l0-0.3L-69.2,22z"/>
				</g>
				<g>
					<g>
						<path id="cp1_00000155134647966745187960000010030601158323546807_" class="st4" d="M-67.6,21.9l0,0.4l-0.5,0l0-0.4
							L-67.6,21.9L-67.6,21.9L-67.6,21.9z"/>
						<path d="M-68.2,22.4l0-0.5h0.6l0,0.5L-68.2,22.4z M-68,22l0,0.3l0.3,0l0-0.3L-68,22z"/>
					</g>
				</g>
				<g>
					<path id="cp2_00000143600714790820952570000004052136678764550798_" class="st4" d="M-69.4,21.6l0.1,0v0.1h0.1v-0.1l0.1,0v0.1
						h0.1v-0.1l0.1,0l0,0.2c0,0,0,0.1-0.1,0.1h-0.5c0,0-0.1,0-0.1-0.1L-69.4,21.6L-69.4,21.6L-69.4,21.6z"/>
					<path d="M-68.8,22h-0.5c-0.1,0-0.1-0.1-0.1-0.1l0-0.3l0.7,0l0,0.3C-68.7,21.9-68.7,22-68.8,22z M-69.3,21.7l0,0.2l0.5,0l0-0.2
						v0.1h-0.2l0-0.1v0.1L-69.3,21.7L-69.3,21.7z"/>
				</g>
				<g>
					<g>
						<path id="cp2_00000051359209858192913280000013531359034547799447_" class="st4" d="M-68.2,21.6l0.1,0v0.1h0.1v-0.1l0.1,0v0.1
							h0.1v-0.1l0.1,0l0,0.2c0,0,0,0.1-0.1,0.1h-0.5c0,0-0.1,0-0.1-0.1L-68.2,21.6L-68.2,21.6L-68.2,21.6z"/>
						<path d="M-67.6,22h-0.5c-0.1,0-0.1-0.1-0.1-0.1l0-0.3l0.7,0l0,0.3C-67.5,21.9-67.5,22-67.6,22z M-68.1,21.7l0,0.2l0.5,0l0-0.2
							v0.1h-0.2l0-0.1v0.1L-68.1,21.7L-68.1,21.7z"/>
					</g>
				</g>
				<path d="M-68.5,21.8C-68.5,21.7-68.4,21.7-68.5,21.8l0.1,0.2h-0.1L-68.5,21.8"/>
				<path id="cp3_00000036961352627247849620000007509217642664578216_" d="M-69.1,22.1C-69.1,22-69,22-69.1,22.1l0.1,0.1h-0.1
					L-69.1,22.1"/>
				<g>
					<path id="cp3_00000170236310845701080470000016090432215333298058_" d="M-67.9,22.1C-67.9,22-67.8,22-67.9,22.1l0.1,0.1h-0.1
						L-67.9,22.1"/>
				</g>
			</g>
		</g>
		<g transform="matrix(0.70460892,-0.70959585,0.70959585,0.70460892,-35.341459,275.10898)">
			<g id="castle_00000012441042617962675240000000134947936704033716_">
				<path class="st4" d="M-66.9,28.8c-0.4-0.5-0.2-0.9-0.2-0.9c0,0,0.5-0.2,0.9,0.2L-66.9,28.8"/>
				<g>
					<path class="st4" d="M-67.7,28.6l0.5,0.6l0.3-0.3c-0.4-0.4-0.2-0.8-0.2-0.8c0,0,0.4-0.2,0.8,0.2l0.3-0.3l-0.6-0.5L-67.7,28.6
						L-67.7,28.6L-67.7,28.6z"/>
					<path d="M-67.2,29.2l-0.5-0.7l1.3-1.3l0.7,0.5l-0.4,0.4l0,0C-66.6,27.9-67,28-67,28c0,0.1-0.2,0.4,0.2,0.7l0,0L-67.2,29.2z
						 M-67.6,28.6l0.4,0.5l0.2-0.2c-0.2-0.2-0.2-0.4-0.2-0.6c0,0,0,0,0,0L-67.6,28.6z M-66.8,27.9c0.1,0,0.3,0,0.5,0.2l0.2-0.2
						l-0.5-0.4l-0.4,0.4C-66.9,27.9-66.8,27.9-66.8,27.9C-66.8,27.9-66.8,27.9-66.8,27.9z"/>
				</g>
				<g>
					<path class="st4" d="M-67.3,29.2l1.4-1.4c0,0,0.1,0,0.1,0c0,0,0,0.1,0,0.1l-1.4,1.4c0,0-0.1,0-0.1,0
						C-67.3,29.2-67.3,29.2-67.3,29.2z"/>
					<path d="M-67.2,29.4C-67.2,29.4-67.2,29.4-67.2,29.4c-0.1,0-0.1,0-0.1,0c-0.1-0.1-0.1-0.2,0-0.2h0l1.4-1.4c0,0,0.1,0,0.1,0
						c0,0,0.1,0,0.1,0c0,0,0,0.1,0,0.1c0,0,0,0.1,0,0.1L-67.2,29.4C-67.1,29.4-67.1,29.4-67.2,29.4z M-67.2,29.2
						C-67.2,29.2-67.2,29.2-67.2,29.2C-67.2,29.2-67.2,29.2-67.2,29.2l1.4-1.3c0,0,0,0,0,0c0,0,0,0,0,0L-67.2,29.2z"/>
				</g>
				<g>
					<path class="st4" d="M-66.8,28.7c-0.3-0.3-0.2-0.5-0.2-0.5c0,0,0.3-0.1,0.5,0.1L-66.8,28.7"/>
					<path d="M-66.8,28.8L-66.8,28.8c-0.2-0.2-0.3-0.4-0.2-0.5c0,0,0-0.1,0-0.1c0,0,0.3-0.1,0.6,0.2l0,0L-66.8,28.8z M-66.9,28.2
						c0,0.1,0,0.2,0.1,0.4l0.3-0.3C-66.7,28.2-66.8,28.2-66.9,28.2z"/>
				</g>
				<g>
					<path class="st4" d="M-68,28.4l1.3-1.3c0,0,0.1,0,0.1,0c0,0,0,0.1,0,0.1l-1.3,1.3c0,0-0.1,0-0.1,0C-68,28.5-68,28.4-68,28.4z"
						/>
					<path d="M-67.9,28.6c0,0-0.1,0-0.1,0c-0.1-0.1-0.1-0.1,0-0.2h0l1.3-1.3c0.1-0.1,0.1-0.1,0.2,0c0.1,0.1,0.1,0.1,0,0.2
						L-67.9,28.6C-67.8,28.6-67.9,28.6-67.9,28.6z M-67.9,28.5L-67.9,28.5l1.3-1.3l0,0L-67.9,28.5z M-67.9,28.5L-67.9,28.5
						L-67.9,28.5L-67.9,28.5z"/>
				</g>
				<g>
					<path class="st4" d="M-67.8,28.5l1.2-1.3c0,0,0.1,0,0.1,0c0,0,0,0.1,0,0.1l-1.2,1.3c0,0-0.1,0-0.1,0
						C-67.8,28.6-67.8,28.5-67.8,28.5z"/>
					<path d="M-67.7,28.7c0,0-0.1,0-0.1,0c0,0,0-0.1,0-0.1c0,0,0-0.1,0-0.1l1.2-1.3c0.1-0.1,0.1,0,0.2,0c0,0,0,0.1,0,0.1
						c0,0,0,0.1,0,0.1L-67.7,28.7C-67.7,28.7-67.7,28.7-67.7,28.7C-67.7,28.7-67.7,28.7-67.7,28.7z M-67.8,28.5L-67.8,28.5l1.3-1.2
						l0,0L-67.8,28.5z"/>
				</g>
				<g>
					<path class="st4" d="M-68.3,27.2L-68.3,27.2l0.2,0l0.1-0.1l-0.1-0.1L-68,27l0.1,0.1l0.1-0.1l-0.1-0.1l0.1-0.1l0.2,0.2
						c0,0,0,0.1,0,0.1l-0.4,0.4c0,0-0.1,0-0.1,0L-68.3,27.2L-68.3,27.2L-68.3,27.2z"/>
					<path d="M-68.1,27.5C-68.1,27.5-68.1,27.5-68.1,27.5l-0.3-0.2l0.2-0.2l0,0l0.2-0.2l0,0l0.2-0.2l0.2,0.2c0,0,0,0.1,0,0.1
						c0,0,0,0.1,0,0.1L-68.1,27.5C-68,27.5-68,27.5-68.1,27.5z M-68.2,27.2l0.1,0.1l0.3-0.4l-0.1-0.1l0,0l0.1,0.1l-0.2,0.2l-0.1-0.1
						l0,0l0.1,0.1L-68.2,27.2L-68.2,27.2L-68.2,27.2z"/>
				</g>
				<g>
					<path class="st4" d="M-67.7,27.1l0.5,0.5l-0.3,0.3l-0.5-0.5L-67.7,27.1"/>
					<path d="M-67.5,28l-0.6-0.6l0.4-0.4l0.6,0.6L-67.5,28z M-67.9,27.4l0.4,0.4l0.2-0.2l-0.4-0.4L-67.9,27.4z"/>
				</g>
				<g>
					<path id="cp1_00000018927562105311687070000003286525833570651573_" class="st4" d="M-67.9,27.8l0.3,0.3l-0.3,0.3l-0.3-0.3
						L-67.9,27.8L-67.9,27.8L-67.9,27.8z"/>
					<path d="M-67.9,28.4l-0.4-0.4l0.4-0.4l0.4,0.4L-67.9,28.4z M-68.1,28.1l0.2,0.2l0.2-0.2l-0.2-0.2L-68.1,28.1z"/>
				</g>
				<g>
					<g>
						<path id="cp1_00000182504552240467080000000006709150764177644210_" class="st4" d="M-67,26.9l0.3,0.3l-0.3,0.3l-0.3-0.3
							L-67,26.9L-67,26.9L-67,26.9z"/>
						<path d="M-67.1,27.6l-0.4-0.4l0.4-0.4l0.4,0.4L-67.1,27.6z M-67.2,27.2l0.2,0.2l0.2-0.2L-67,27L-67.2,27.2z"/>
					</g>
				</g>
				<g>
					<path id="cp2_00000050654445214528935370000006787764389685786755_" class="st4" d="M-68.4,27.9L-68.4,27.9l0.2,0l0.1-0.1
						l-0.1-0.1l0.1-0.1l0.1,0.1l0.1-0.1l-0.1-0.1l0.1-0.1l0.2,0.2c0,0,0,0.1,0,0.1l-0.3,0.3c0,0-0.1,0-0.1,0L-68.4,27.9L-68.4,27.9
						L-68.4,27.9z"/>
					<path d="M-68.2,28.2C-68.3,28.2-68.3,28.2-68.2,28.2l-0.3-0.2l0.2-0.2l0,0l0.2-0.2l0,0l0.2-0.2l0.2,0.2c0.1,0.1,0,0.1,0,0.2
						L-68.2,28.2C-68.2,28.2-68.2,28.2-68.2,28.2z M-68.3,27.9l0.1,0.1l0.3-0.3l-0.1-0.1l0,0l0.1,0.1l-0.2,0.2l-0.1-0.1l0,0l0.1,0.1
						L-68.3,27.9L-68.3,27.9L-68.3,27.9z"/>
				</g>
				<g>
					<g>
						<path id="cp2_00000159461370797304566580000006786704140048535199_" class="st4" d="M-67.6,27.1L-67.6,27.1l0.2,0l0.1-0.1
							l-0.1-0.1l0.1-0.1l0.1,0.1l0.1-0.1l-0.1-0.1l0.1-0.1l0.2,0.2c0,0,0,0.1,0,0.1l-0.3,0.3c0,0-0.1,0-0.1,0L-67.6,27.1L-67.6,27.1
							L-67.6,27.1z"/>
						<path d="M-67.4,27.3C-67.4,27.3-67.4,27.3-67.4,27.3l-0.3-0.2l0.2-0.2l0,0l0.2-0.2l0,0l0.2-0.2l0.2,0.2c0.1,0,0,0.1,0,0.2
							L-67.4,27.3C-67.3,27.3-67.3,27.3-67.4,27.3z M-67.5,27.1l0.1,0.1l0.3-0.3l-0.1-0.1l0,0l0.1,0.1l-0.2,0.2l-0.1-0.1l0,0
							l0.1,0.1L-67.5,27.1L-67.5,27.1L-67.5,27.1z"/>
					</g>
				</g>
				<path d="M-67.7,27.4C-67.8,27.4-67.7,27.3-67.7,27.4l0.2,0.1l-0.1,0.1L-67.7,27.4"/>
				<path id="cp3_00000083808420767330456550000006566377846306908300_" d="M-67.9,28C-68,28-67.9,27.9-67.9,28l0.2,0L-67.9,28
					L-67.9,28"/>
				<g>
					<path id="cp3_00000075865134305583435080000017776196029636001169_" d="M-67.1,27.2C-67.1,27.1-67.1,27.1-67.1,27.2l0.2,0
						L-67.1,27.2L-67.1,27.2"/>
				</g>
			</g>
		</g>
	</g>
	<g>
		<g id="castle_00000002357567769912300490000017670768976999225535_">
			<path class="st4" d="M-63.7,18.1c0-0.6,0.5-0.8,0.5-0.8c0,0,0.5,0.2,0.5,0.8L-63.7,18.1"/>
			<g>
				<path class="st4" d="M-64.1,17.4l-0.1,0.7l0.5,0c0-0.6,0.5-0.7,0.5-0.7c0,0,0.5,0.1,0.5,0.7h0.5l-0.1-0.7L-64.1,17.4L-64.1,17.4
					L-64.1,17.4z"/>
				<path d="M-63.7,18.1l-0.6,0l0.1-0.9l1.8,0l0.1,0.9h-0.6l0-0.1c0-0.5-0.3-0.6-0.4-0.6C-63.3,17.5-63.7,17.6-63.7,18.1L-63.7,18.1
					z M-62.7,18h0.3l-0.1-0.6l-0.6,0c0,0,0,0,0.1,0.1C-62.9,17.6-62.8,17.7-62.7,18z M-64.1,18l0.3,0c0-0.3,0.2-0.5,0.3-0.6
					c0,0,0,0,0,0l-0.6,0L-64.1,18z"/>
			</g>
			<g>
				<path class="st4" d="M-64.2,18.1h1.9c0,0,0.1,0,0.1,0.1c0,0,0,0.1-0.1,0.1h-1.9C-64.3,18.3-64.3,18.2-64.2,18.1
					C-64.3,18.1-64.3,18.1-64.2,18.1z"/>
				<path d="M-62.3,18.3h-1.9c-0.1,0-0.1-0.1-0.1-0.2c0-0.1,0.1-0.2,0.1-0.2h1.9c0.1,0,0.1,0.1,0.1,0.2
					C-62.2,18.3-62.2,18.3-62.3,18.3z M-64.2,18.1C-64.2,18.1-64.2,18.2-64.2,18.1C-64.2,18.2-64.2,18.2-64.2,18.1l1.9,0
					c0,0,0,0,0,0c0,0,0,0,0,0L-64.2,18.1z"/>
			</g>
			<g>
				<path class="st4" d="M-63.5,18.1c0-0.4,0.3-0.5,0.3-0.5c0,0,0.3,0.1,0.3,0.5H-63.5"/>
				<path d="M-62.9,18.1h-0.7l0-0.1c0-0.2,0.1-0.4,0.2-0.5c0,0,0.1-0.1,0.1-0.1l0,0C-63.2,17.5-63,17.7-62.9,18.1L-62.9,18.1z
					 M-63.5,18h0.4c0-0.2-0.1-0.3-0.2-0.3C-63.3,17.7-63.4,17.8-63.5,18z"/>
			</g>
			<g>
				<path class="st4" d="M-64.2,17.1h1.8c0,0,0.1,0,0.1,0.1c0,0,0,0.1-0.1,0.1h-1.8C-64.2,17.2-64.3,17.2-64.2,17.1
					C-64.3,17.1-64.2,17.1-64.2,17.1z"/>
				<path d="M-62.4,17.3h-1.8c-0.1,0-0.1-0.1-0.1-0.1c0-0.1,0.1-0.1,0.1-0.1h1.8c0.1,0,0.1,0.1,0.1,0.1
					C-62.2,17.2-62.3,17.3-62.4,17.3z M-64.2,17.1L-64.2,17.1l1.8,0l0,0L-64.2,17.1z"/>
			</g>
			<g>
				<path class="st4" d="M-64.2,17.2h1.8c0,0,0.1,0,0.1,0.1c0,0,0,0.1-0.1,0.1h-1.8C-64.2,17.4-64.2,17.3-64.2,17.2
					C-64.2,17.3-64.2,17.2-64.2,17.2z"/>
				<path d="M-62.4,17.4h-1.8c-0.1,0-0.1-0.1-0.1-0.1s0.1-0.1,0.1-0.1h1.8c0.1,0,0.1,0.1,0.1,0.1S-62.3,17.4-62.4,17.4z M-64.2,17.3
					L-64.2,17.3l1.8,0l0,0L-64.2,17.3z"/>
			</g>
			<g>
				<path class="st4" d="M-63.6,16l0.1,0v0.1h0.1V16l0.1,0v0.1h0.1V16h0.1l0,0.2c0,0,0,0.1-0.1,0.1h-0.5c0,0-0.1,0-0.1-0.1L-63.6,16
					L-63.6,16L-63.6,16z"/>
				<path d="M-63,16.4h-0.5c-0.1,0-0.1-0.1-0.1-0.1l0-0.3l0.8,0l0,0.3C-62.9,16.3-63,16.4-63,16.4z M-63.5,16.1l0,0.2l0.5,0l0-0.2h0
					v0.1h-0.2l0-0.1v0.1L-63.5,16.1L-63.5,16.1z"/>
			</g>
			<g>
				<path class="st4" d="M-63.1,16.3l0,0.7l-0.5,0l0-0.7L-63.1,16.3"/>
				<path d="M-63,17.1l-0.6,0l0-0.9l0.6,0L-63,17.1z M-63.5,17l0.3,0l0-0.6l-0.3,0L-63.5,17z"/>
			</g>
			<g>
				<path id="cp1_00000072994288451769418060000006857202173411132578_" class="st4" d="M-63.7,16.7l0,0.4l-0.5,0l0-0.4L-63.7,16.7
					L-63.7,16.7L-63.7,16.7z"/>
				<path d="M-64.2,17.1l0-0.5h0.6l0,0.5L-64.2,17.1z M-64,16.7l0,0.3l0.3,0l0-0.3H-64z"/>
			</g>
			<g>
				<g>
					<path id="cp1_00000086685527211756737990000017888022642549056390_" class="st4" d="M-62.5,16.7l0,0.4l-0.5,0l0-0.4L-62.5,16.7
						L-62.5,16.7L-62.5,16.7z"/>
					<path d="M-63,17.1l0-0.5h0.6l0,0.5L-63,17.1z M-62.8,16.7l0,0.3l0.3,0l0-0.3H-62.8z"/>
				</g>
			</g>
			<g>
				<path id="cp2_00000170250805034020307580000018124982584250652045_" class="st4" d="M-64.2,16.4l0.1,0v0.1h0.1v-0.1l0.1,0v0.1
					h0.1v-0.1l0.1,0l0,0.2c0,0,0,0.1-0.1,0.1h-0.5c0,0-0.1,0-0.1-0.1L-64.2,16.4L-64.2,16.4L-64.2,16.4z"/>
				<path d="M-63.6,16.7h-0.5c-0.1,0-0.1-0.1-0.1-0.1l0-0.3l0.2,0v0l0.2,0v0l0.3,0l0,0.3C-63.5,16.7-63.6,16.7-63.6,16.7z
					 M-64.1,16.4l0,0.2l0.5,0l0-0.2v0.1h-0.2l0-0.1v0.1L-64.1,16.4L-64.1,16.4z"/>
			</g>
			<g>
				<g>
					<path id="cp2_00000021087184697478720210000009881665135470084261_" class="st4" d="M-63,16.4l0.1,0v0.1h0.1v-0.1l0.1,0v0.1
						h0.1v-0.1l0.1,0l0,0.2c0,0,0,0.1-0.1,0.1h-0.5c0,0-0.1,0-0.1-0.1L-63,16.4L-63,16.4L-63,16.4z"/>
					<path d="M-62.4,16.7h-0.5c-0.1,0-0.1-0.1-0.1-0.1l0-0.3l0.2,0v0l0.2,0v0l0.3,0l0,0.3C-62.3,16.7-62.4,16.7-62.4,16.7z
						 M-62.9,16.4l0,0.2l0.5,0l0-0.2v0.1h-0.2l0-0.1v0.1L-62.9,16.4L-62.9,16.4z"/>
				</g>
			</g>
			<path d="M-63.3,16.6C-63.3,16.5-63.2,16.5-63.3,16.6l0.1,0.2h-0.1L-63.3,16.6"/>
			<path id="cp3_00000103971199633693291160000007762510936215991721_" d="M-63.9,16.8C-63.9,16.7-63.8,16.7-63.9,16.8l0.1,0.1h-0.1
				L-63.9,16.8"/>
			<g>
				<path id="cp3_00000167364139403050194140000001830023123050658213_" d="M-62.7,16.8C-62.7,16.7-62.6,16.7-62.7,16.8l0.1,0.1
					h-0.1L-62.7,16.8"/>
			</g>
		</g>
	</g>
	<g transform="matrix(-1,0,0,1,479.79195,0)">
		<g id="castle3_00000006673460408817866260000004387885728615381925_">
			<g id="castle_00000182495159364699593970000010390834013186097547_">
				<path class="st4" d="M-57.7,18.1c0-0.6-0.5-0.8-0.5-0.8c0,0-0.5,0.2-0.5,0.8L-57.7,18.1"/>
				<g>
					<path class="st4" d="M-57.3,17.4l0.1,0.7l-0.5,0c0-0.6-0.5-0.7-0.5-0.7c0,0-0.5,0.1-0.5,0.7h-0.5l0.1-0.7L-57.3,17.4
						L-57.3,17.4L-57.3,17.4z"/>
					<path d="M-57.7,18.1L-57.7,18.1c0-0.6-0.3-0.7-0.4-0.7c-0.1,0-0.4,0.2-0.4,0.6l0,0.1h-0.6l0.1-0.9l1.8,0l0.1,0.9L-57.7,18.1z
						 M-59,18h0.3c0-0.3,0.1-0.4,0.2-0.5c0,0,0,0,0.1-0.1l-0.6,0L-59,18z M-57.9,17.4C-57.9,17.4-57.9,17.4-57.9,17.4
						c0.1,0.1,0.3,0.3,0.3,0.6l0.3,0l-0.1-0.6L-57.9,17.4z"/>
				</g>
				<g>
					<path class="st4" d="M-57.2,18.1h-1.9c0,0-0.1,0-0.1,0.1c0,0,0,0.1,0.1,0.1h1.9C-57.1,18.3-57.1,18.2-57.2,18.1
						C-57.1,18.1-57.1,18.1-57.2,18.1z"/>
					<path d="M-57.2,18.3h-1.9c-0.1,0-0.1-0.1-0.1-0.2c0-0.1,0.1-0.2,0.1-0.2h1.9c0.1,0,0.1,0.1,0.1,0.2
						C-57,18.3-57.1,18.3-57.2,18.3z M-59.1,18.1C-59.1,18.1-59.1,18.2-59.1,18.1C-59.1,18.2-59.1,18.2-59.1,18.1l1.9,0c0,0,0,0,0,0
						c0,0,0,0,0,0H-59.1z"/>
				</g>
				<g>
					<path class="st4" d="M-57.9,18.1c0-0.4-0.3-0.5-0.3-0.5c0,0-0.3,0.1-0.3,0.5H-57.9"/>
					<path d="M-57.8,18.1h-0.7l0-0.1c0-0.4,0.3-0.5,0.3-0.5c0,0,0.1,0.1,0.1,0.1C-57.9,17.7-57.8,17.8-57.8,18.1L-57.8,18.1z
						 M-58.3,18h0.4c0-0.2-0.1-0.3-0.2-0.3C-58.2,17.7-58.3,17.8-58.3,18z"/>
				</g>
				<g>
					<path class="st4" d="M-57.2,17.1H-59c0,0-0.1,0-0.1,0.1c0,0,0,0.1,0.1,0.1h1.8C-57.2,17.2-57.1,17.2-57.2,17.1
						C-57.1,17.1-57.2,17.1-57.2,17.1z"/>
					<path d="M-57.2,17.3H-59c-0.1,0-0.1-0.1-0.1-0.1c0-0.1,0.1-0.1,0.1-0.1h1.8c0.1,0,0.1,0.1,0.1,0.1
						C-57.1,17.2-57.1,17.3-57.2,17.3z M-59,17.1L-59,17.1l1.8,0l0,0H-59z"/>
				</g>
				<g>
					<path class="st4" d="M-57.2,17.2H-59c0,0-0.1,0-0.1,0.1c0,0,0,0.1,0.1,0.1h1.8C-57.2,17.4-57.2,17.3-57.2,17.2
						C-57.2,17.3-57.2,17.2-57.2,17.2z"/>
					<path d="M-57.2,17.4H-59c-0.1,0-0.1-0.1-0.1-0.1s0.1-0.1,0.1-0.1h1.8c0.1,0,0.1,0.1,0.1,0.1S-57.2,17.4-57.2,17.4z M-59,17.3
						L-59,17.3l1.8,0l0,0H-59z"/>
				</g>
				<g>
					<path class="st4" d="M-57.8,16l-0.1,0v0.1h-0.1V16l-0.1,0v0.1h-0.1V16h-0.1l0,0.2c0,0,0,0.1,0.1,0.1h0.5c0,0,0.1,0,0.1-0.1
						L-57.8,16L-57.8,16L-57.8,16z"/>
					<path d="M-57.9,16.4h-0.5c-0.1,0-0.1-0.1-0.1-0.1l0-0.3l0.8,0l0,0.3C-57.7,16.3-57.8,16.4-57.9,16.4z M-58.4,16.1l0,0.2l0.5,0
						l0-0.2v0.1h-0.2l0-0.1v0.1h-0.2L-58.4,16.1z"/>
				</g>
				<g>
					<path class="st4" d="M-58.3,16.3l0,0.7l0.5,0l0-0.7L-58.3,16.3"/>
					<path d="M-58.4,17.1l0-0.9l0.6,0l0,0.9L-58.4,17.1z M-58.3,16.4l0,0.6l0.3,0l0-0.6L-58.3,16.4z"/>
				</g>
				<g>
					<path id="cp1_00000161597826678616537960000008098266098456541858_" class="st4" d="M-57.7,16.7l0,0.4l0.5,0l0-0.4L-57.7,16.7
						L-57.7,16.7L-57.7,16.7z"/>
					<path d="M-57.2,17.1l-0.6,0l0-0.5h0.6L-57.2,17.1z M-57.7,17l0.3,0l0-0.3h-0.3L-57.7,17z"/>
				</g>
				<g>
					<g>
						<path id="cp1_00000165938458617929882470000001465343405995298484_" class="st4" d="M-58.9,16.7l0,0.4l0.5,0l0-0.4L-58.9,16.7
							L-58.9,16.7L-58.9,16.7z"/>
						<path d="M-58.4,17.1l-0.6,0l0-0.5h0.6L-58.4,17.1z M-58.9,17l0.3,0l0-0.3h-0.3L-58.9,17z"/>
					</g>
				</g>
				<g>
					<path id="cp2_00000177447539403585949050000009236748775549305228_" class="st4" d="M-57.2,16.4l-0.1,0v0.1h-0.1v-0.1l-0.1,0
						v0.1h-0.1v-0.1l-0.1,0l0,0.2c0,0,0,0.1,0.1,0.1h0.5c0,0,0.1,0,0.1-0.1L-57.2,16.4L-57.2,16.4L-57.2,16.4z"/>
					<path d="M-57.3,16.7h-0.5c-0.1,0-0.1-0.1-0.1-0.1l0-0.3l0.3,0v0l0.2,0v0l0.2,0l0,0.3C-57.2,16.7-57.2,16.7-57.3,16.7z
						 M-57.8,16.4l0,0.2l0.5,0l0-0.2v0.1h-0.2v-0.1l0,0v0.1h-0.2L-57.8,16.4z"/>
				</g>
				<g>
					<g>
						<path id="cp2_00000109730841806469845000000013120174092593853060_" class="st4" d="M-58.4,16.4l-0.1,0v0.1h-0.1v-0.1l-0.1,0
							v0.1h-0.1v-0.1l-0.1,0l0,0.2c0,0,0,0.1,0.1,0.1h0.5c0,0,0.1,0,0.1-0.1L-58.4,16.4L-58.4,16.4L-58.4,16.4z"/>
						<path d="M-58.5,16.7H-59c-0.1,0-0.1-0.1-0.1-0.1l0-0.3l0.3,0v0l0.2,0v0l0.2,0l0,0.3C-58.4,16.7-58.4,16.7-58.5,16.7z
							 M-59,16.4l0,0.2l0.5,0l0-0.2v0.1h-0.2v-0.1l0,0v0.1H-59L-59,16.4z"/>
					</g>
				</g>
				<path d="M-58.1,16.6C-58.1,16.5-58.2,16.5-58.1,16.6l-0.1,0.2h0.1L-58.1,16.6"/>
				<path id="cp3_00000011742327641929832440000014217573045529808010_" d="M-57.5,16.8C-57.5,16.7-57.6,16.7-57.5,16.8l-0.1,0.1
					h0.1L-57.5,16.8"/>
				<g>
					<path id="cp3_00000152229424540138338710000018240862076186361755_" d="M-58.7,16.8C-58.7,16.7-58.8,16.7-58.7,16.8l-0.1,0.1
						h0.1L-58.7,16.8"/>
				</g>
			</g>
			<g>
				<g id="castle_00000181067616730373303810000005037794858691544763_">
					<path class="st4" d="M-57.7,23.4c0-0.6-0.5-0.8-0.5-0.8c0,0-0.5,0.2-0.5,0.8L-57.7,23.4"/>
					<g>
						<path class="st4" d="M-57.3,22.6l0.1,0.7l-0.5,0c0-0.6-0.5-0.7-0.5-0.7c0,0-0.5,0.1-0.5,0.7h-0.5l0.1-0.7L-57.3,22.6
							L-57.3,22.6L-57.3,22.6z"/>
						<path d="M-57.7,23.4L-57.7,23.4c0-0.6-0.3-0.7-0.4-0.7c-0.1,0-0.4,0.2-0.4,0.6l0,0.1h-0.6l0.1-0.9l1.8,0l0.1,0.9L-57.7,23.4z
							 M-59,23.3h0.3c0-0.3,0.1-0.4,0.2-0.5c0,0,0,0,0.1-0.1l-0.6,0L-59,23.3z M-57.9,22.7C-57.9,22.7-57.9,22.7-57.9,22.7
							c0.1,0.1,0.3,0.3,0.3,0.6l0.3,0l-0.1-0.6L-57.9,22.7z"/>
					</g>
					<g>
						<path class="st4" d="M-57.2,23.3h-1.9c0,0-0.1,0-0.1,0.1c0,0,0,0.1,0.1,0.1h1.9C-57.1,23.5-57.1,23.5-57.2,23.3
							C-57.1,23.4-57.1,23.3-57.2,23.3z"/>
						<path d="M-57.2,23.6h-1.9c-0.1,0-0.1-0.1-0.1-0.2c0-0.1,0.1-0.2,0.1-0.2h1.9c0.1,0,0.1,0.1,0.1,0.2
							C-57,23.5-57.1,23.6-57.2,23.6z M-59.1,23.4C-59.1,23.4-59.1,23.4-59.1,23.4C-59.1,23.4-59.1,23.4-59.1,23.4l1.9,0
							c0,0,0,0,0,0c0,0,0,0,0,0H-59.1z"/>
					</g>
					<g>
						<path class="st4" d="M-57.9,23.3c0-0.4-0.3-0.5-0.3-0.5c0,0-0.3,0.1-0.3,0.5H-57.9"/>
						<path d="M-57.8,23.4h-0.7l0-0.1c0-0.4,0.3-0.5,0.3-0.5c0,0,0.1,0,0.1,0.1C-57.9,22.9-57.8,23.1-57.8,23.4L-57.8,23.4z
							 M-58.3,23.3h0.4c0-0.2-0.1-0.3-0.2-0.3C-58.2,23-58.3,23-58.3,23.3z"/>
					</g>
					<g>
						<path class="st4" d="M-57.2,22.3H-59c0,0-0.1,0-0.1,0.1c0,0,0,0.1,0.1,0.1h1.8C-57.2,22.5-57.1,22.4-57.2,22.3
							C-57.1,22.3-57.2,22.3-57.2,22.3z"/>
						<path d="M-57.2,22.5H-59c-0.1,0-0.1-0.1-0.1-0.1s0.1-0.1,0.1-0.1h1.8c0.1,0,0.1,0.1,0.1,0.1S-57.1,22.5-57.2,22.5z M-59,22.4
							L-59,22.4l1.8,0l0,0H-59z"/>
					</g>
					<g>
						<path class="st4" d="M-57.2,22.5H-59c0,0-0.1,0-0.1,0.1c0,0,0,0.1,0.1,0.1h1.8C-57.2,22.6-57.2,22.6-57.2,22.5
							C-57.2,22.5-57.2,22.5-57.2,22.5z"/>
						<path d="M-57.2,22.7H-59c-0.1,0-0.1-0.1-0.1-0.1c0-0.1,0.1-0.1,0.1-0.1h1.8c0.1,0,0.1,0.1,0.1,0.1
							C-57.1,22.6-57.2,22.7-57.2,22.7z M-59,22.5L-59,22.5l1.8,0l0,0H-59z"/>
					</g>
					<g>
						<path class="st4" d="M-57.8,21.3l-0.1,0v0.1h-0.1v-0.1l-0.1,0v0.1h-0.1v-0.1h-0.1l0,0.2c0,0,0,0.1,0.1,0.1h0.5
							c0,0,0.1,0,0.1-0.1L-57.8,21.3L-57.8,21.3L-57.8,21.3z"/>
						<path d="M-57.9,21.6h-0.5c-0.1,0-0.1-0.1-0.1-0.1l0-0.3l0.8,0l0,0.3C-57.7,21.6-57.8,21.6-57.9,21.6z M-58.4,21.3l0,0.2l0.5,0
							l0-0.2v0.1h-0.2v-0.1l0,0v0.1h-0.2L-58.4,21.3z"/>
					</g>
					<g>
						<path class="st4" d="M-58.3,21.6l0,0.7l0.5,0l0-0.7L-58.3,21.6"/>
						<path d="M-58.4,22.4l0-0.9l0.6,0l0,0.9L-58.4,22.4z M-58.3,21.6l0,0.6l0.3,0l0-0.6L-58.3,21.6z"/>
					</g>
					<g>
						<path id="cp1_00000102530421075848488670000015361243552228840623_" class="st4" d="M-57.7,21.9l0,0.4l0.5,0l0-0.4L-57.7,21.9
							L-57.7,21.9L-57.7,21.9z"/>
						<path d="M-57.2,22.4l-0.6,0l0-0.5l0.6,0L-57.2,22.4z M-57.7,22.2l0.3,0l0-0.3h-0.3L-57.7,22.2z"/>
					</g>
					<g>
						<g>
							<path id="cp1_00000162335031843204721170000017109785782985282191_" class="st4" d="M-58.9,21.9l0,0.4l0.5,0l0-0.4
								L-58.9,21.9L-58.9,21.9L-58.9,21.9z"/>
							<path d="M-58.4,22.4l-0.6,0l0-0.5l0.6,0L-58.4,22.4z M-58.9,22.2l0.3,0l0-0.3h-0.3L-58.9,22.2z"/>
						</g>
					</g>
					<g>
						<path id="cp2_00000121999679458760390580000011890310929572968893_" class="st4" d="M-57.2,21.6l-0.1,0v0.1h-0.1v-0.1l-0.1,0
							v0.1h-0.1v-0.1l-0.1,0l0,0.2c0,0,0,0.1,0.1,0.1h0.5c0,0,0.1,0,0.1-0.1L-57.2,21.6L-57.2,21.6L-57.2,21.6z"/>
						<path d="M-57.3,22h-0.5c-0.1,0-0.1-0.1-0.1-0.1l0-0.3l0.7,0l0,0.3C-57.2,21.9-57.2,22-57.3,22z M-57.8,21.7l0,0.2l0.5,0l0-0.2
							l0,0v0.1h-0.2l0-0.1v0.1h-0.2L-57.8,21.7L-57.8,21.7z"/>
					</g>
					<g>
						<g>
							<path id="cp2_00000132786494329147761610000016737161075964750756_" class="st4" d="M-58.4,21.6l-0.1,0v0.1h-0.1v-0.1l-0.1,0
								v0.1h-0.1v-0.1l-0.1,0l0,0.2c0,0,0,0.1,0.1,0.1h0.5c0,0,0.1,0,0.1-0.1L-58.4,21.6L-58.4,21.6L-58.4,21.6z"/>
							<path d="M-58.5,22H-59c-0.1,0-0.1-0.1-0.1-0.1l0-0.3l0.7,0l0,0.3C-58.4,21.9-58.4,22-58.5,22z M-59,21.7l0,0.2l0.5,0l0-0.2
								l0,0v0.1h-0.2l0-0.1v0.1H-59L-59,21.7L-59,21.7z"/>
						</g>
					</g>
					<path d="M-58.1,21.8C-58.1,21.7-58.2,21.7-58.1,21.8l-0.1,0.2h0.1L-58.1,21.8"/>
					<path id="cp3_00000101825164863082435550000012415893525936903073_" d="M-57.5,22.1C-57.5,22-57.6,22-57.5,22.1l-0.1,0.1h0.1
						L-57.5,22.1"/>
					<g>
						<path id="cp3_00000060723424388597872300000017203404179195909052_" d="M-58.7,22.1C-58.7,22-58.8,22-58.7,22.1l-0.1,0.1h0.1
							L-58.7,22.1"/>
					</g>
				</g>
			</g>
			<g transform="matrix(0.70460892,-0.70959585,0.70959585,0.70460892,-35.341459,275.10898)">
				<g id="castle_00000062163512308117145280000005671636871761216690_">
					<path class="st4" d="M-59.7,28.8c0.4-0.5,0.2-0.9,0.2-0.9c0,0-0.5-0.2-0.9,0.2L-59.7,28.8"/>
					<g>
						<path class="st4" d="M-58.9,28.6l-0.5,0.6l-0.3-0.3c0.4-0.4,0.2-0.8,0.2-0.8c0,0-0.4-0.2-0.8,0.2l-0.3-0.3l0.6-0.5L-58.9,28.6
							L-58.9,28.6L-58.9,28.6z"/>
						<path d="M-59.3,29.2l-0.4-0.4l0,0c0.4-0.4,0.2-0.7,0.2-0.7c0,0-0.4-0.2-0.7,0.2l0,0l-0.4-0.4l0.7-0.5l1.3,1.3L-59.3,29.2z
							 M-59.6,28.8l0.2,0.2l0.4-0.5l-0.4-0.4c0,0,0,0,0,0C-59.4,28.4-59.4,28.6-59.6,28.8z M-60.6,27.8l0.2,0.2
							c0.2-0.2,0.4-0.2,0.6-0.2c0,0,0.1,0,0.1,0l-0.4-0.4L-60.6,27.8z"/>
					</g>
					<g>
						<path class="st4" d="M-59.3,29.2l-1.4-1.4c0,0-0.1,0-0.1,0c0,0,0,0.1,0,0.1l1.4,1.4c0,0,0.1,0,0.1,0
							C-59.3,29.2-59.3,29.2-59.3,29.2z"/>
						<path d="M-59.4,29.4C-59.4,29.4-59.5,29.4-59.4,29.4l-1.4-1.4c0,0,0-0.1,0-0.1c0,0,0-0.1,0-0.1c0,0,0.1,0,0.1,0
							c0,0,0.1,0,0.1,0l1.4,1.4c0.1,0.1,0,0.1,0,0.2C-59.3,29.4-59.4,29.4-59.4,29.4C-59.4,29.4-59.4,29.4-59.4,29.4z M-60.7,27.8
							C-60.7,27.8-60.7,27.8-60.7,27.8C-60.8,27.9-60.8,27.9-60.7,27.8l1.3,1.4c0,0,0,0,0,0c0,0,0,0,0,0L-60.7,27.8z"/>
					</g>
					<g>
						<path class="st4" d="M-59.8,28.7c0.3-0.3,0.2-0.5,0.2-0.5c0,0-0.3-0.1-0.5,0.1L-59.8,28.7"/>
						<path d="M-59.8,28.8l-0.5-0.5l0,0c0.3-0.3,0.6-0.2,0.6-0.2c0,0,0.1,0.1,0.1,0.2C-59.6,28.4-59.6,28.5-59.8,28.8L-59.8,28.8z
							 M-60.1,28.3l0.3,0.3c0.1-0.2,0.1-0.3,0.1-0.4C-59.8,28.2-59.9,28.2-60.1,28.3z"/>
					</g>
					<g>
						<path class="st4" d="M-58.6,28.4l-1.3-1.3c0,0-0.1,0-0.1,0c0,0,0,0.1,0,0.1l1.3,1.3c0,0,0.1,0,0.1,0
							C-58.6,28.5-58.6,28.4-58.6,28.4z"/>
						<path d="M-58.7,28.6C-58.7,28.6-58.8,28.6-58.7,28.6l-1.4-1.3c-0.1-0.1-0.1-0.1,0-0.2c0.1-0.1,0.1-0.1,0.2,0l1.3,1.3
							c0.1,0.1,0.1,0.1,0,0.2C-58.6,28.6-58.7,28.6-58.7,28.6z M-60,27.2L-60,27.2l1.3,1.3l0,0L-60,27.2z"/>
					</g>
					<g>
						<path class="st4" d="M-58.8,28.5l-1.2-1.3c0,0-0.1,0-0.1,0c0,0,0,0.1,0,0.1l1.2,1.3c0,0,0.1,0,0.1,0
							C-58.8,28.6-58.7,28.5-58.8,28.5z"/>
						<path d="M-58.8,28.7C-58.8,28.7-58.8,28.7-58.8,28.7C-58.9,28.7-58.9,28.7-58.8,28.7l-1.3-1.3c0,0,0-0.1,0-0.1
							c0,0,0-0.1,0-0.1c0.1-0.1,0.1-0.1,0.2,0l1.2,1.3c0,0,0,0.1,0,0.1c0,0,0,0.1,0,0.1C-58.8,28.7-58.8,28.7-58.8,28.7z
							 M-60.1,27.3L-60.1,27.3l1.2,1.3l0,0L-60.1,27.3z"/>
					</g>
					<g>
						<path class="st4" d="M-58.3,27.2L-58.3,27.2l-0.2,0l-0.1-0.1l0.1-0.1l-0.1-0.1l-0.1,0.1l-0.1-0.1l0.1-0.1l-0.1-0.1l-0.2,0.2
							c0,0,0,0.1,0,0.1l0.4,0.4c0,0,0.1,0,0.1,0L-58.3,27.2L-58.3,27.2L-58.3,27.2z"/>
						<path d="M-58.5,27.5C-58.6,27.5-58.6,27.5-58.5,27.5l-0.4-0.4c0,0,0-0.1,0-0.1c0,0,0-0.1,0-0.1l0.2-0.2l0.2,0.2l0,0l0.2,0.2
							l0,0l0.2,0.2L-58.5,27.5C-58.5,27.5-58.5,27.5-58.5,27.5z M-58.8,26.9l-0.1,0.1l0.4,0.3l0.1-0.1l0,0l-0.1,0.1l-0.2-0.2
							l0.1-0.1l0,0l-0.1,0.1L-58.8,26.9L-58.8,26.9L-58.8,26.9z"/>
					</g>
					<g>
						<path class="st4" d="M-58.9,27.1l-0.5,0.5l0.3,0.3l0.5-0.5L-58.9,27.1"/>
						<path d="M-59.1,28l-0.4-0.4l0.6-0.6l0.4,0.4L-59.1,28z M-59.4,27.6l0.2,0.2l0.4-0.4l-0.2-0.2L-59.4,27.6z"/>
					</g>
					<g>
						<path id="cp1_00000076570250944711765660000012515720244357455796_" class="st4" d="M-58.7,27.8L-59,28l0.3,0.3l0.3-0.3
							L-58.7,27.8L-58.7,27.8L-58.7,27.8z"/>
						<path d="M-58.7,28.4l-0.4-0.4l0.4-0.4l0.4,0.4L-58.7,28.4z M-58.9,28l0.2,0.2l0.2-0.2l-0.2-0.2L-58.9,28z"/>
					</g>
					<g>
						<g>
							<path id="cp1_00000021812182833037566500000013939139438458005936_" class="st4" d="M-59.6,26.9l-0.3,0.3l0.3,0.3l0.3-0.3
								L-59.6,26.9L-59.6,26.9L-59.6,26.9z"/>
							<path d="M-59.5,27.6l-0.4-0.4l0.4-0.4l0.4,0.4L-59.5,27.6z M-59.8,27.2l0.2,0.2l0.2-0.2l-0.2-0.2L-59.8,27.2z"/>
						</g>
					</g>
					<g>
						<path id="cp2_00000056414185253727205670000003867312579241347480_" class="st4" d="M-58.2,27.9L-58.2,27.9l-0.2,0l-0.1-0.1
							l0.1-0.1l-0.1-0.1l-0.1,0.1l-0.1-0.1l0.1-0.1l-0.1-0.1l-0.2,0.2c0,0,0,0.1,0,0.1l0.3,0.3c0,0,0.1,0,0.1,0L-58.2,27.9
							L-58.2,27.9L-58.2,27.9z"/>
						<path d="M-58.4,28.2C-58.4,28.2-58.4,28.2-58.4,28.2l-0.4-0.4c-0.1-0.1-0.1-0.1,0-0.2l0.2-0.2l0.2,0.2l0,0l0.2,0.2l0,0
							l0.2,0.2L-58.4,28.2C-58.3,28.2-58.3,28.2-58.4,28.2z M-58.6,27.6l-0.1,0.1l0.3,0.3l0.1-0.1l0,0l-0.1,0.1l-0.2-0.2l0.1-0.1
							l0,0l-0.1,0.1L-58.6,27.6L-58.6,27.6L-58.6,27.6z"/>
					</g>
					<g>
						<g>
							<path id="cp2_00000090256413907436979880000006299553202782420904_" class="st4" d="M-59,27.1L-59,27.1l-0.2,0l-0.1-0.1
								l0.1-0.1l-0.1-0.1l-0.1,0.1l-0.1-0.1l0.1-0.1l-0.1-0.1l-0.2,0.2c0,0,0,0.1,0,0.1l0.3,0.3c0,0,0.1,0,0.1,0L-59,27.1L-59,27.1
								L-59,27.1z"/>
							<path d="M-59.2,27.3C-59.2,27.3-59.2,27.3-59.2,27.3C-59.2,27.3-59.3,27.3-59.2,27.3l-0.4-0.4c-0.1-0.1-0.1-0.1,0-0.2
								l0.2-0.2l0.2,0.2l0,0l0.2,0.2l0,0l0.2,0.2L-59.2,27.3C-59.1,27.3-59.2,27.3-59.2,27.3z M-59.4,26.7l-0.1,0.1l0.3,0.3l0.1-0.1
								l0,0l-0.1,0.1l-0.2-0.2l0.1-0.1l0,0l-0.1,0.1L-59.4,26.7L-59.4,26.7L-59.4,26.7z"/>
						</g>
					</g>
					<path d="M-58.9,27.4C-58.8,27.4-58.9,27.3-58.9,27.4l-0.2,0.1l0.1,0.1L-58.9,27.4"/>
					<path id="cp3_00000050663425578375953710000004502875902494693013_" d="M-58.6,28C-58.6,28-58.7,27.9-58.6,28l-0.2,0L-58.6,28
						L-58.6,28"/>
					<g>
						<path id="cp3_00000034784309251341846850000008523007411632012463_" d="M-59.5,27.2C-59.4,27.1-59.5,27.1-59.5,27.2l-0.2,0
							L-59.5,27.2L-59.5,27.2"/>
					</g>
				</g>
			</g>
		</g>
	</g>
	<g id="quina">
		<path class="st5" d="M-64.1,23.6L-64.1,23.6c0,0.3,0.1,0.5,0.3,0.6c0.2,0.2,0.4,0.3,0.6,0.3c0.2,0,0.4-0.1,0.6-0.3
			c0.2-0.2,0.2-0.4,0.2-0.6v-1.2l-1.7,0L-64.1,23.6"/>
		<circle class="st3" cx="-63.7" cy="22.8" r="0.2"/>
		<circle class="st3" cx="-62.8" cy="22.8" r="0.2"/>
		<circle class="st3" cx="-63.3" cy="23.3" r="0.2"/>
		<circle class="st3" cx="-63.7" cy="23.7" r="0.2"/>
		<circle class="st3" cx="-62.8" cy="23.7" r="0.2"/>
	</g>
	<g>
		<g id="quina_00000075154605795876038790000000658129585118725534_">
			<path class="st5" d="M-64.1,20.6L-64.1,20.6c0,0.3,0.1,0.5,0.3,0.6c0.2,0.2,0.4,0.3,0.6,0.3c0.2,0,0.4-0.1,0.6-0.3
				c0.2-0.2,0.2-0.4,0.2-0.6v-1.2l-1.7,0L-64.1,20.6"/>
			<circle class="st3" cx="-63.7" cy="19.9" r="0.2"/>
			<circle class="st3" cx="-62.8" cy="19.9" r="0.2"/>
			<circle class="st3" cx="-63.3" cy="20.3" r="0.2"/>
			<circle class="st3" cx="-63.7" cy="20.8" r="0.2"/>
			<circle class="st3" cx="-62.8" cy="20.8" r="0.2"/>
		</g>
	</g>
	<g>
		<g id="quina_00000025408198469195005010000010960808577269723821_">
			<path class="st5" d="M-66.5,23.6L-66.5,23.6c0,0.3,0.1,0.5,0.3,0.6c0.2,0.2,0.4,0.3,0.6,0.3c0.2,0,0.4-0.1,0.6-0.3
				c0.2-0.2,0.2-0.4,0.2-0.6v-1.2l-1.7,0L-66.5,23.6"/>
			<circle class="st3" cx="-66.1" cy="22.8" r="0.2"/>
			<circle class="st3" cx="-65.1" cy="22.8" r="0.2"/>
			<circle class="st3" cx="-65.6" cy="23.3" r="0.2"/>
			<circle class="st3" cx="-66.1" cy="23.7" r="0.2"/>
			<circle class="st3" cx="-65.1" cy="23.7" r="0.2"/>
		</g>
	</g>
	<g>
		<g id="quina_00000031885586754730124530000004840809137814247559_">
			<path class="st5" d="M-61.8,23.6L-61.8,23.6c0,0.3,0.1,0.5,0.3,0.6c0.2,0.2,0.4,0.3,0.6,0.3c0.2,0,0.4-0.1,0.6-0.3
				c0.2-0.2,0.2-0.4,0.2-0.6v-1.2l-1.7,0L-61.8,23.6"/>
			<circle class="st3" cx="-61.4" cy="22.8" r="0.2"/>
			<circle class="st3" cx="-60.4" cy="22.8" r="0.2"/>
			<circle class="st3" cx="-60.9" cy="23.3" r="0.2"/>
			<circle class="st3" cx="-61.4" cy="23.7" r="0.2"/>
			<circle class="st3" cx="-60.4" cy="23.7" r="0.2"/>
		</g>
	</g>
	<g>
		<g id="quina_00000010993980012520300210000014690694611817684610_">
			<path class="st5" d="M-64.1,26.5L-64.1,26.5c0,0.3,0.1,0.5,0.3,0.6c0.2,0.2,0.4,0.3,0.6,0.3c0.2,0,0.4-0.1,0.6-0.3
				c0.2-0.2,0.2-0.4,0.2-0.6v-1.2l-1.7,0L-64.1,26.5"/>
			<circle class="st3" cx="-63.7" cy="25.7" r="0.2"/>
			<circle class="st3" cx="-62.8" cy="25.7" r="0.2"/>
			<circle class="st3" cx="-63.3" cy="26.2" r="0.2"/>
			<circle class="st3" cx="-63.7" cy="26.7" r="0.2"/>
			<circle class="st3" cx="-62.8" cy="26.7" r="0.2"/>
		</g>
	</g>
</g>
<g>
	<path class="st6" d="M0,5.7v17h68v-17C68,2.5,65.5,0,62.4,0H5.7C2.5,0,0,2.5,0,5.7z"/>
	<path class="st7" d="M5.7,45.4h56.7c3.1,0,5.7-2.5,5.7-5.7v-17H0v17C0,42.8,2.5,45.4,5.7,45.4z"/>
</g>
</svg>
