<?xml version="1.0" encoding="utf-8"?>
<!-- Generator: Adobe Illustrator 25.4.0, SVG Export Plug-In . SVG Version: 6.00 Build 0)  -->
<svg version="1.1" id="Шар_1" xmlns="http://www.w3.org/2000/svg" xmlns:xlink="http://www.w3.org/1999/xlink" x="0px" y="0px"
	 viewBox="0 0 50 50" style="enable-background:new 0 0 50 50;" xml:space="preserve">
<style type="text/css">
	.st0{fill:#FFFFFF;}
</style>
<g>
	<path class="st0" d="M25,50C10.9,49.9,0,38.5,0,24.9C0,11.3,11.2,0,25.1,0c13.6,0,24.9,11,24.9,25C50,38.8,38.8,50,25,50z
		 M46.3,36.5c-0.1-0.1-0.2-0.2-0.2-0.3c0.1-0.6,0.1-1.2,0.4-1.8c0.1-0.3,0.2-0.6,0.2-0.9c0-0.3,0.1-0.6,0.3-0.8
		c0.3-0.4,0.4-0.8,0.3-1.3c0-0.2,0-0.3,0.1-0.5c0.1-0.2,0.1-0.3,0-0.5c-0.1-0.4-0.2-0.8-0.3-1.2c-0.1-0.3-0.2-0.6-0.4-0.8
		c-0.1-0.2-0.2-0.4-0.1-0.6c0-0.1,0-0.2,0-0.3c0.1-0.4,0.1-0.8,0-1.2c0-0.2-0.1-0.3-0.3-0.3c-0.2,0-0.3,0-0.5,0
		c-0.1-0.1-0.1-0.2-0.2-0.3c-0.2-0.2-0.3-0.2-0.5-0.1c-0.3,0.1-0.6,0.3-0.8,0.6c-0.1,0.1-0.2,0.3-0.3,0.4c-0.2,0.2-0.4,0.3-0.6,0.3
		c-0.2,0-0.4,0-0.5,0.2c-0.2,0.1-0.4,0.3-0.6,0.4c-0.2,0.1-0.5,0.2-0.7,0c-0.4-0.2-0.7-0.5-1.1-0.7c-0.2-0.1-0.4-0.3-0.4-0.6
		c0-0.2-0.2-0.4-0.3-0.5c-0.2-0.1-0.3-0.2-0.4-0.4c-0.1-0.2-0.3-0.4-0.5-0.5c-0.4-0.2-0.6-0.6-0.5-1.1c0.1-0.4,0.1-0.8,0.2-1.2
		c0-0.1,0-0.3,0-0.4c-0.1,0-0.1-0.1-0.2-0.1c-0.1,0-0.2-0.1-0.2-0.2c-0.1-0.4-0.2-0.8-0.2-1.2c0-0.4,0-0.9,0.1-1.3
		c0-0.3,0.1-0.6,0.2-0.8c0.1-0.2,0.2-0.4,0.4-0.6c0.3-0.2,0.3-0.5,0.2-0.9c0-0.1-0.1-0.2-0.1-0.2c-0.2-0.5-0.2-0.9,0.1-1.3
		c0.2-0.2,0.2-0.4,0.2-0.6c0-0.1,0-0.2-0.1-0.3c-0.2-0.1-0.3-0.3-0.5-0.4c-0.2,0-0.3,0.1-0.5,0.1c-0.1-0.1-0.1-0.2-0.2-0.3
		c-0.1-0.1-0.2-0.2-0.3-0.3c-0.1-0.1-0.1-0.2-0.1-0.4c0-0.2-0.1-0.3-0.2-0.5c-0.1-0.1-0.2-0.2-0.2-0.4c-0.3-0.5-0.1-0.6,0.3-0.7
		c0.2,0,0.3,0,0.5,0c0.2,0,0.4-0.1,0.4-0.3c-0.1-0.2-0.2-0.4-0.3-0.5c-0.1-0.1-0.1-0.2-0.3-0.3c-0.3-0.2-0.6-0.4-1-0.3c0,0,0,0,0,0
		c-0.1,0-0.2-0.1-0.1-0.2c0.1,0,0.3-0.1,0.4-0.1c0,0,0,0,0.1-0.1c0-0.1-0.1-0.1-0.1-0.2c0.1,0,0.1-0.1,0.2-0.1
		c0.1-0.2-0.1-0.3,0-0.5c0-0.2,0.1-0.3,0.2-0.5c0,0-0.1-0.1-0.1-0.1c0-0.2,0-0.4,0-0.6c0-0.1,0.1-0.3,0.2-0.4
		c-0.1-0.1-0.1-0.1-0.1-0.2c0.1,0,0.2-0.1,0.3-0.1c0.1,0,0.2,0.1,0.4,0.1c0-0.2,0-0.3-0.1-0.5c0,0,0,0,0-0.1c0.1,0,0.1,0.1,0.2,0
		c-0.1-0.5-0.5-0.6-0.8-0.9c0.1-0.1,0.1-0.1,0.2-0.1c0,0,0-0.1-0.1-0.1c-0.1-0.1-0.3-0.1-0.4-0.2C37.1,5.4,37,5.3,37,5.1
		c0-0.1,0-0.2,0-0.3c0-0.1-0.1-0.2-0.2-0.3c-0.1-0.1-0.2-0.1-0.3,0c0,0.2,0.3,0.4,0.2,0.6c-0.1,0-0.1,0-0.1,0c-0.1,0-0.1,0-0.2,0
		C36,5,35.7,4.9,35.4,4.7c0,0-0.1-0.1-0.2,0c0.2,0.4,0.5,0.7,0.9,0.8c0.3,0.1,0.5,0.2,0.6,0.4c0.2,0.2,0.3,0.4,0.6,0.5
		c0,0,0.1,0.1,0.1,0.1c0,0.1,0,0.2,0.1,0.3c-0.1,0-0.2,0.1-0.2,0.2c-0.1-0.2-0.3-0.4-0.5-0.5c-0.2-0.1-0.4-0.2-0.6-0.2
		c0,0.1,0,0.2-0.1,0.2c0,0-0.1,0-0.1,0c-0.4-0.1-0.7-0.2-1-0.4c-0.2-0.2-0.4-0.4-0.5-0.7c0-0.1-0.1-0.2-0.1-0.3
		c-0.1-0.3-0.2-0.5-0.5-0.7c-0.5-0.3-0.8-0.8-1.1-1.2c-0.1-0.1-0.1-0.3,0.1-0.4c0.1,0,0.2,0,0.3,0c0.3,0,0.6,0,0.9,0.1
		C34.4,3,34.4,3,34.5,3.5c0.2,0.1,0.3,0.1,0.6,0.1c0-0.1,0-0.2-0.1-0.3c-0.1-0.1,0-0.2,0-0.3c-6.1-2.8-13.1-2.8-18.7-0.5
		C16,3.1,16.1,3,15.4,3.7c0.2,0,0.4-0.1,0.6-0.1c0,0.2,0.1,0.3,0.2,0.4c0.1,0,0.2,0.2,0.2,0.3c-0.1,0.1-0.2,0.2-0.3,0.3
		c0.1,0.2,0.3,0.3,0.5,0.2c0.3,0,0.7,0.1,1,0.2c0.4,0.1,0.7,0.1,1-0.2c0.3-0.3,0.6-0.5,0.9-0.8c0.1-0.1,0.2-0.1,0.2-0.2
		c0.1,0.1,0.1,0.2,0,0.2c-0.2,0.1-0.3,0.3-0.5,0.4C19,4.7,19,4.8,19.2,5.1c0.1,0.2,0.1,0.3,0,0.5c-0.2,0.3-0.4,0.5-0.7,0.6
		c-0.2,0.1-0.5,0.2-0.7,0.2c-0.2,0.1-0.4,0.1-0.7,0.2c-0.5,0.2-0.9,0.5-1.1,1.1C15.9,8,16,8.2,16.2,8.4c0.1,0.1,0.1,0.1,0.2,0.1
		C16.7,8.7,17,8.8,17.4,9c0.1,0.1,0.3,0.1,0.4,0.2c-0.1,0.1-0.2,0.3-0.3,0.5c-0.2,0.2-0.2,0.5-0.1,0.7c0.1,0.2,0.3,0.2,0.4,0.1
		c0.1-0.1,0.2-0.3,0.2-0.5c0-0.3,0.2-0.5,0.5-0.7c0.1-0.1,0.2-0.2,0.4-0.2c0.3-0.2,0.3-0.2,0.2-0.6C19,8.1,19,8.1,19.2,7.9
		c0.3-0.2,0.4-0.4,0.4-0.7c0-0.1,0-0.2,0.1-0.3C20,7,20.2,7.1,20.5,7.1c0.3,0.1,0.5,0.3,0.6,0.6c0,0.1,0.1,0.2,0.1,0.3
		c0,0.1,0.1,0.1,0.2,0.2c0.1-0.1,0.1-0.1,0.2-0.2c0.1-0.1,0.1-0.2,0.2-0.3c0.1-0.1,0.3-0.1,0.4,0c0.1,0.1,0.1,0.1,0.2,0.2
		c0.2,0.3,0.3,0.6,0.2,0.9c0,0.2,0.1,0.4,0.3,0.5c0.2,0.1,0.4,0.2,0.6,0.3c0.1,0.1,0.2,0.1,0.3,0.2c0.2,0.1,0.2,0.3,0.2,0.5
		c0,0.1-0.1,0.3-0.2,0.4c0,0.1-0.1,0.2-0.1,0.4c0.1,0.1,0.3,0.1,0.4,0.2c0.1,0.1,0.2,0.1,0.4,0.2c0.3,0.2,0.3,0.4,0.2,0.7
		c-0.1,0.1-0.1,0.2-0.3,0.1c-0.3-0.1-0.6-0.1-0.9-0.2c-0.1,0-0.1,0-0.2,0c-0.1,0-0.2-0.1-0.2-0.3c0-0.1,0.1-0.2,0.1-0.3
		c0-0.2,0.2-0.3,0.1-0.6C23.1,10.9,23,11,22.9,11c-0.3,0.2-0.6,0.5-1,0.5c-0.3,0.1-0.5,0.3-0.6,0.7c0,0.2,0,0.3,0.2,0.3
		c0.2,0.1,0.5,0.1,0.7,0c0.1,0,0.1-0.1,0.2-0.1c0.1,0,0.1,0,0.2,0c0,0.1,0,0.1-0.1,0.2c-0.1,0.2-0.2,0.2-0.4,0.3
		c-0.4,0.2-0.9,0.4-1.3,0.5c-0.1,0-0.1,0-0.2,0c0-0.3,0.3-0.4,0.5-0.6c-0.1,0-0.1-0.1-0.1,0c-0.4,0.1-0.8,0.2-1.1,0.4
		c-0.1,0.1-0.2,0.2-0.3,0.3c-0.2,0.3-0.5,0.5-0.9,0.7c-0.5,0.2-0.9,0.5-1.1,0.9c-0.1,0.1-0.1,0.3-0.3,0.3c-0.1,0-0.2,0-0.3,0
		c0,0.2-0.1,0.4-0.1,0.7c0,0.3-0.2,0.5-0.4,0.6c-0.1,0.1-0.3,0.1-0.4,0.2c-0.5,0.2-0.9,0.5-1.3,0.8c-0.2,0.2-0.2,0.3-0.2,0.6
		c0.1,0.3,0.1,0.7,0.2,1c0.1,0.4,0,0.7-0.2,1c-0.3,0-0.4-0.2-0.5-0.5c0-0.1,0-0.2,0-0.3c0-0.3-0.1-0.6-0.1-0.9
		c0-0.2-0.1-0.3-0.4-0.3c-0.2,0-0.3,0-0.4-0.1c-0.1-0.1-0.3-0.2-0.4-0.2c-0.2,0-0.5-0.1-0.7-0.1c-0.1,0-0.2,0-0.3,0
		c-0.1,0-0.2,0.1-0.3,0.1c-0.1,0-0.1,0-0.2-0.1c-0.4-0.2-0.7-0.2-1.1,0C10.2,17.9,10,18,9.9,18c-0.3,0.1-0.6,0.4-0.7,0.8
		C9,19.4,8.8,20,8.7,20.7c-0.1,0.3-0.1,0.7,0.1,1c0.1,0.3,0.3,0.5,0.5,0.7c0.4-0.1,0.6,0.2,0.8,0.5c0.1-0.1,0.2-0.1,0.2-0.2
		c0.2-0.2,0.3-0.5,0.5-0.7c0.1-0.1,0.2-0.2,0.3-0.3c0.1-0.1,0.3-0.2,0.5-0.2c0.2,0,0.4,0,0.5,0.2c-0.1,0.2-0.2,0.3-0.3,0.4
		c-0.1,0.2-0.2,0.3-0.3,0.4c-0.1,0.1-0.2,0.2-0.2,0.4c0.1,0.2,0,0.5-0.2,0.6c0,0.1-0.1,0.1-0.1,0.2c0.2,0.1,0.3,0.1,0.5,0.2
		c0.2,0.1,0.4,0.1,0.5,0.1c0.3-0.1,0.5,0,0.7,0.1c0.2,0.1,0.3,0.3,0.2,0.5c-0.1,0.2-0.1,0.4-0.2,0.5c-0.3,0.6-0.2,1.2,0.3,1.7
		c0.3,0.4,0.4,0.4,0.8,0.2c0.3-0.1,0.6-0.1,0.8,0.1c0.1,0.1,0.3,0.2,0.5,0.3c0.1-0.2,0.3-0.3,0.4-0.5c0.1-0.2,0.4-0.4,0.6-0.5
		c0.3-0.1,0.6-0.2,0.9-0.4c0.3-0.1,0.6-0.1,0.9,0.1c0.3,0.2,0.6,0.4,0.9,0.6C19,27,19.2,27,19.4,27c0.3,0,0.6,0,0.9,0
		c0.3,0,0.6,0,0.8,0.2c0.2,0.1,0.4,0.2,0.4,0.5c0,0.2,0.1,0.3,0.3,0.3c0,0,0.1,0,0.1,0c0.3,0.1,0.5,0.2,0.7,0.4
		c0.1,0.2,0.3,0.4,0.4,0.5c0.2,0.2,0.3,0.3,0.6,0.2c0.1,0,0.1,0,0.2,0c0.4-0.1,0.8,0,1.2,0.2c0.1,0,0.1,0.1,0.2,0.1
		c0.4,0.2,0.7,0.6,0.7,1.1c0.1,0.6,0.4,1.1,0.9,1.4c0.1,0,0.1,0,0.1,0c0.3-0.2,0.6-0.2,0.9,0c0.3,0.1,0.5,0.3,0.6,0.5
		c0.1,0.2,0.2,0.2,0.4,0.2c0.2-0.1,0.4,0,0.6,0.1c0.1,0.1,0.3,0.1,0.4,0.1c0.1,0,0.2,0,0.3-0.1c0.4-0.1,0.8,0.1,1.1,0.4
		c0.1,0.1,0.1,0.1,0.2,0.2c0.1,0.1,0.3,0.2,0.4,0.2c0.1,0,0.3,0,0.4,0c0.2,0.3,0.2,0.6,0.2,0.9c0,0.3-0.1,0.6-0.3,0.8
		c-0.2,0.2-0.4,0.4-0.6,0.7c-0.2,0.4-0.4,0.7-0.8,0.9c-0.1,0.1-0.1,0.2-0.1,0.3c0,0.1,0,0.2,0,0.3c0,0.2,0,0.4,0,0.6
		c-0.2,0.4-0.3,0.9-0.5,1.3c-0.1,0.2-0.3,0.4-0.4,0.7c-0.2,0.3-0.4,0.4-0.8,0.5c-0.2,0-0.3,0.1-0.5,0.1c-0.4,0.1-0.8,0.3-1.2,0.6
		c-0.3,0.2-0.4,0.4-0.5,0.7c0,0.2-0.1,0.3-0.3,0.5c-0.2,0.1-0.3,0.2-0.3,0.4c0,0.1-0.1,0.2-0.2,0.2c-0.3,0.1-0.5,0.4-0.8,0.7
		c-0.4,0.5-1.1,0.7-1.7,0.4c-0.2-0.1-0.3-0.2-0.4-0.3c-0.2-0.1-0.4-0.2-0.6-0.3c-0.1,0-0.1,0-0.2,0c0.1,0.1,0.1,0.2,0.2,0.2
		c0.2,0.1,0.4,0.2,0.6,0.2c0.5,0.2,0.7,0.5,0.6,1.1c-0.5,0.1-0.9,0.1-1.4,0.2c0,0.2-0.1,0.4-0.1,0.5c-0.3,0-0.5-0.1-0.7-0.1
		c0.1,0.2,0.1,0.5,0.2,0.7c-0.2,0.1-0.3,0.2-0.5,0.3c0.1,0.2,0.3,0.2,0.4,0.3c-0.2,0.2-0.3,0.4-0.4,0.6c0.1,0.2,0.2,0.3,0.4,0.4
		c0.2,0.1,0.3,0.2,0.5,0.2c0,0,0.1,0,0.1,0.2c-0.4,0-0.8,0.1-1.2-0.1c-0.4-0.2-0.8-0.4-1.2-0.6c-0.3-0.1-0.4-0.3-0.5-0.6
		c-0.2-0.5-0.3-1.1-0.5-1.6c-0.2-0.6-0.2-1.1,0.1-1.7c0.1-0.2,0.1-0.4,0-0.6c-0.2-0.8-0.3-1.6-0.4-2.4c0-0.5-0.1-0.9-0.1-1.4
		c0-0.3-0.1-0.5-0.4-0.7c-0.4-0.3-0.8-0.5-1.2-0.8c-0.6-0.4-1-0.9-1.4-1.5c-0.5-0.9-1.1-1.8-1.6-2.7c-0.1-0.1-0.1-0.2-0.1-0.3
		c-0.1-0.2-0.1-0.4,0-0.5c0.1-0.3,0.1-0.5,0.1-0.8c-0.1-0.5,0.1-0.9,0.5-1.1c0.1-0.1,0.2-0.2,0.2-0.4c0-0.2,0.1-0.3,0.2-0.4
		c0,0,0.1-0.1,0.1-0.1c0.1-0.1,0.2-0.2,0.2-0.4c0-0.3,0-0.5,0-0.8c0-0.1,0-0.2,0-0.3c-0.1-0.3-0.3-0.7-0.4-1c0,0,0-0.1-0.1-0.1
		c-0.1-0.1-0.2-0.1-0.2,0c-0.1,0.1-0.2,0.1-0.2,0.2c-0.1,0.1-0.2,0.2-0.2,0.3c-0.2-0.1-0.3-0.3-0.5-0.4c-0.2-0.1-0.4-0.2-0.6-0.2
		c-0.1-0.3-0.1-0.3-0.3-0.4c-0.3-0.2-0.5-0.4-0.6-0.8c-0.1-0.3-0.2-0.5-0.3-0.8c-0.1-0.2-0.2-0.3-0.4-0.4c-0.2-0.1-0.3-0.2-0.5-0.2
		c-0.5-0.2-0.8-0.4-1.1-0.9c0,0-0.1-0.1-0.1-0.1c-0.2-0.2-0.4-0.3-0.6-0.3c-0.1,0-0.2,0-0.3,0c-0.2,0-0.4-0.1-0.5-0.2
		c-0.2-0.2-0.4-0.4-0.6-0.7c-0.1-0.2-0.3-0.4-0.5-0.5c0,0-0.1-0.1-0.1-0.1c0-0.2-0.2-0.4-0.3-0.5c-0.2-0.2-0.2-0.4-0.1-0.7
		c0.3-0.6,0.3-1.3,0.1-1.9c-0.1-0.4-0.2-0.9-0.2-1.4c0-0.1,0-0.1,0-0.2c-0.1-0.3-0.1-0.5,0-0.8c0-0.1,0.1-0.3,0-0.5
		c0,0.1-0.1,0.2-0.1,0.3C6,16.5,6,16.7,6,17c0,0.5-0.1,1.1-0.1,1.6c0,0.2,0,0.4,0,0.6c0,0.1,0,0.2-0.1,0.2c-0.1-0.5-0.1-0.9-0.2-1.3
		c-0.1-0.3,0-0.6,0.1-0.9c0-0.1,0.1-0.2,0.1-0.3c0-0.7,0.1-1.3,0.4-1.9c0.1-0.2,0.1-0.5,0-0.7C6,14,6,13.9,6,13.7
		c0.2-0.5,0.3-0.9,0.5-1.4c0.2-0.6,0.5-1,0.9-1.5c0.3-0.3,0.6-0.6,0.9-0.9c0.4-0.4,0.7-0.8,0.8-1.3c0,0,0-0.1,0-0.1
		c0.1-0.4,0.4-0.8,0.8-1c0.3-0.2,0.6-0.5,0.8-0.8c0.2-0.3,0.3-0.5,0.6-0.6c0.2-0.1,0.4-0.3,0.5-0.6c0.2-0.3,0.3-0.6,0.5-1
		c0,0,0,0,0-0.1c-0.1,0.1-0.2,0.1-0.4,0.2C9.3,6.3,7.1,8.4,5.3,11C2.5,15,1,19.4,0.8,24.3c0,1.1,0,2.1,0.1,3.2
		c0.2,1.7,0.5,3.3,1,4.9c2.2,6.8,7.2,12.3,13.9,15c2.2,0.9,4.4,1.4,6.7,1.7c1,0.1,2,0.1,2.9,0.1c1.3,0,2.6-0.1,3.9-0.4
		c2-0.4,3.9-0.9,5.7-1.8c4.8-2.2,8.5-5.6,11.1-10.2C46.2,36.7,46.2,36.6,46.3,36.5C46.3,36.5,46.3,36.4,46.3,36.5
		C46.3,36.4,46.3,36.5,46.3,36.5z M44.3,11.4c-0.4-0.3-0.8-0.7-1.2-1c-0.2,0.1-0.2,0.1-0.3,0.2c0.1,0.1,0.1,0.1,0.2,0.2
		c0.2,0.2,0.4,0.4,0.6,0.6c0.1,0.1,0.2,0.3,0.2,0.5c-0.2,0-0.3-0.1-0.4-0.2c-0.2-0.2-0.5-0.4-0.8-0.6c0.1,0.2,0.1,0.4,0.1,0.5
		c0,0.2,0.1,0.3,0.1,0.5c0,0.1,0.2,0.3,0.1,0.4c-0.5-0.1-0.5-0.1-0.5-0.6c0,0,0-0.1,0-0.1c0-0.3-0.2-0.4-0.4-0.5
		c-0.1,0-0.1-0.1-0.2-0.1c-0.5-0.1-0.9-0.3-1.3-0.6c-0.1,0-0.1-0.1-0.2-0.1c0,0.4,0,0.4-0.4,0.5c-0.2,0-0.3,0.3-0.2,0.5
		c0.1,0.1,0.1,0.2,0.2,0.3c-0.3,0.5-0.3,0.5,0,1c0,0.1,0.1,0.1,0.1,0.2c0,0.1,0.1,0.2,0.1,0.3c0,0.4-0.1,0.7-0.5,0.9
		c-0.1,0-0.2,0.1-0.2,0.2c0,0.1,0.1,0.2,0.2,0.2c0.3,0.1,0.6,0,0.7-0.3c0,0,0-0.1,0-0.1c0-0.2,0.2-0.4,0.4-0.5
		c0.1-0.1,0.3-0.1,0.4-0.2c0.3-0.2,0.5-0.4,0.9-0.4c0-0.1,0-0.2,0-0.2c0-0.1,0-0.2,0.1-0.2c0.1,0,0.2,0,0.2,0
		c0.3,0.2,0.5,0.4,0.6,0.7c0.1,0.3,0.3,0.5,0.5,0.7c0.1,0,0.1,0,0.1,0c0.2-0.1,0.4-0.1,0.6,0.1c0.1,0.1,0.1,0.1,0.2,0.2
		c0.2,0,0.3-0.1,0.5-0.1c-0.1-0.2-0.1-0.3-0.2-0.5c0-0.1-0.1-0.3-0.1-0.4c0-0.1,0.1-0.3,0.2-0.2c0.1,0,0.2,0.1,0.3,0.1
		c0.2,0,0.3,0.1,0.5,0c0-0.3,0-0.5-0.1-0.8c-0.2-0.3-0.4-0.6-0.6-0.9C44.6,11.1,44.4,11.1,44.3,11.4z M41.6,8.1
		c0.2,0.6,0.8,1.1,1.3,1.3c0-0.2,0.1-0.3,0-0.4c-0.3-0.3-0.6-0.7-1-1C41.7,8,41.6,8.1,41.6,8.1z M40.5,9.9c0.1,0.3,0.4,0.5,0.6,0.6
		c0.2,0.1,0.4,0.1,0.6,0.2c0.3,0.1,0.5,0.2,0.7,0.3c0,0,0.1,0.1,0.1,0c-0.1-0.1-0.1-0.2-0.2-0.3c-0.1-0.2-0.3-0.3-0.5-0.3
		c-0.3-0.1-0.6-0.2-0.9-0.4C40.8,9.9,40.7,9.8,40.5,9.9z M34.5,4.1c0.1,0.1,0.2,0.2,0.3,0.2c0,0,0.1,0,0.1,0
		C34.9,4.1,34.8,4,34.5,4.1z"/>
	<path class="st0" d="M46.3,36.5C46.3,36.5,46.3,36.4,46.3,36.5C46.3,36.4,46.3,36.5,46.3,36.5C46.3,36.5,46.3,36.5,46.3,36.5z"/>
	<path class="st0" d="M23,3.3c0.1-0.2,0.2-0.2,0.4-0.2c0.2,0,0.4-0.1,0.5-0.3c0.1-0.1,0.2-0.2,0.4-0.2c0.5-0.1,1-0.2,1.5-0.3
		c0.6-0.1,1,0.1,1.3,0.6c0,0.1,0.1,0.1,0.1,0.2c0.1,0.2,0.2,0.3,0.4,0.3c0.2,0.1,0.4,0.2,0.5,0.3c0.2,0.3,0.4,0.5,0.6,0.8
		c0,0.1-0.1,0-0.2,0c-0.1,0-0.2,0-0.3,0c-0.1,0-0.2,0.1-0.1,0.2c0.1,0,0.1,0,0.2,0c0.1,0,0.2-0.1,0.3-0.1c0.1,0,0.2,0,0.2,0.1
		c0.1,0.1,0,0.2-0.1,0.2c-0.2,0.1-0.3,0.2-0.5,0.3c-0.2,0.1-0.3,0.2-0.4,0.4c0,0,0,0,0,0c-0.2,0.4-0.3,0.4-0.8,0.5
		c0,0.1,0,0.2,0,0.3c0,0.1,0,0.2,0,0.2c-0.2,0.2-0.1,0.4-0.1,0.6c0,0.2,0,0.3,0,0.5c-0.4,0-0.7-0.1-1.1-0.3
		c-0.2-0.1-0.4-0.2-0.5-0.4c-0.2-0.4-0.4-0.8-0.6-1.2c-0.1-0.1,0-0.2,0.1-0.3c0.1-0.1,0.2-0.2,0.3-0.3C25,5.2,25,5.1,24.9,5
		c-0.1-0.1-0.2-0.2-0.3-0.2c-0.2-0.1-0.3-0.3-0.4-0.5c0-0.1,0-0.1-0.1-0.2c-0.1-0.3-0.3-0.4-0.6-0.5C23.3,3.5,23.1,3.5,23,3.3z"/>
	<path class="st0" d="M20.7,4c0.3,0.1,0.3,0.1,0.7,0.2c0.1,0.1,0.1,0.2,0.2,0.3c0.1,0.1,0.2,0.2,0.3,0.2c0.1,0.1,0.2,0.2,0.3,0.4
		c0,0.2,0.1,0.3,0.2,0.4c0.2,0.2,0.5,0.4,0.7,0.6c-0.2,0.3-0.3,0.4-0.6,0.3c-0.1,0-0.1,0-0.2-0.1c-0.1,0-0.1,0-0.2-0.1
		c-0.1,0.1,0,0.1,0,0.2c0.1,0.1,0.1,0.2,0.2,0.2c0.1,0.1,0.1,0.2,0,0.3c-0.2,0-0.4,0-0.6,0c0,0.1,0.1,0.2,0.1,0.3
		c-0.1,0-0.2,0-0.3-0.1C21.2,7.2,21,7,20.8,6.7c-0.1-0.1-0.1-0.2,0-0.3c0.1-0.1,0.2-0.2,0.3-0.3c0.2-0.2,0.2-0.6,0-0.8
		c0,0-0.1-0.1-0.1-0.1c0,0-0.1,0-0.1,0c-0.5-0.1-0.5-0.2-0.8,0.2c-0.1,0.1-0.1,0.1-0.2,0.2c-0.1,0.1-0.3,0.1-0.5,0.1
		c0-0.1,0-0.1,0-0.2c0-0.1,0.1-0.2,0.2-0.3c0.1-0.1,0.2-0.2,0.3-0.3c0-0.1,0-0.3-0.1-0.4C20.1,4.3,20.4,4.2,20.7,4z"/>
	<path class="st0" d="M18.7,3.7c-0.4,0.4-0.7,0.7-1.1,1c-0.1,0-0.1-0.1-0.2-0.1c-0.1-0.1-0.3-0.1-0.4-0.1c-0.1,0-0.3,0-0.4,0.1
		c0-0.2,0-0.3,0.1-0.5c0.1-0.2,0.4-0.2,0.5-0.5c0-0.1-0.1-0.1-0.1-0.2c0,0,0-0.1,0-0.1c0.3-0.2,0.7-0.3,1.1-0.4
		c-0.1,0.1-0.1,0.3-0.2,0.4c0.1,0,0.2,0.1,0.3,0.1C18.5,3.7,18.6,3.7,18.7,3.7z"/>
	<path class="st0" d="M35.7,8.4c-0.3-0.1-0.6-0.3-0.9-0.6c-0.1-0.1-0.2-0.1-0.3-0.2c-0.4-0.1-0.4-0.2-0.4-0.6c0,0,0,0,0,0
		c0.1-0.1,0.2,0.1,0.3,0.1c0.1,0.1,0.2,0.1,0.3,0.1c0.2,0.4,0.5,0.5,0.9,0.7c0.1,0,0.2,0.1,0.3,0.1c0.2,0.1,0.5,0.2,0.6,0.5
		c0.1-0.1,0.2-0.1,0.3-0.1c0.1,0.2,0.1,0.4,0.2,0.6c-0.2,0.2-0.4,0.4-0.6,0.6c-0.1-0.1-0.1-0.1-0.1-0.2c0-0.1-0.1-0.2-0.3-0.3
		c-0.2,0-0.3-0.3-0.3-0.5C35.7,8.5,35.7,8.5,35.7,8.4z"/>
	<path class="st0" d="M16.6,22.7c-0.2,0.1-0.3,0.1-0.3,0.1c-0.1,0-0.2,0-0.3,0c-0.3,0-0.4-0.1-0.5-0.3c-0.2-0.3-0.4-0.6-0.8-0.7
		c-0.1,0-0.3-0.1-0.4-0.2c-0.3-0.2-0.6-0.3-0.9-0.2c-0.1,0-0.1,0-0.2,0c0-0.1,0-0.1,0-0.2c0,0,0.1-0.1,0.1-0.1c0.1,0,0.1,0,0.2,0
		c0.8,0.1,1.6,0.4,2.3,0.9c0.2,0.2,0.5,0.3,0.7,0.5C16.5,22.6,16.5,22.6,16.6,22.7z"/>
	<path class="st0" d="M21.1,3.5c0.1-0.1,0.1-0.1,0.1-0.2c0.1-0.1,0.1-0.1,0.1-0.3c-0.1-0.2,0-0.2,0.1-0.3c0.1,0,0.3-0.1,0.4-0.1
		c0.1,0,0.2,0,0.3-0.1c0.1-0.1,0.2-0.1,0.3-0.1c0.4,0,0.7,0,1.1,0c0,0.1-0.1,0.1-0.1,0.2c-0.3,0.1-0.5,0.2-0.8,0.4
		C22.2,3.4,21.7,3.5,21.1,3.5z"/>
	<path class="st0" d="M16.5,23.5c0.1-0.1,0.1-0.1,0.7-0.2c-0.1-0.2-0.2-0.3-0.2-0.4c0.5,0,1.1,0.2,1.7,0.6c0,0.1-0.1,0.1-0.1,0.1
		c-0.3,0-0.5,0-0.8,0C17.4,23.7,16.9,23.7,16.5,23.5z"/>
	<path class="st0" d="M34.2,8.7c0.2-0.1,0.3-0.2,0.4-0.2c0-0.1,0-0.2,0-0.3c0.2-0.1,0.4,0,0.5,0.2c0.1,0.2,0.2,0.3,0.3,0.5
		c0,0.1,0,0.1,0.1,0.2c0,0.1-0.1,0.3-0.2,0.3c-0.1,0-0.3,0-0.4,0c-0.1,0-0.1-0.1-0.1-0.1c0-0.2-0.1-0.3-0.3-0.4
		C34.4,8.8,34.3,8.8,34.2,8.7z"/>
	<path class="st0" d="M30.3,6.4c-0.3,0-0.6-0.1-0.8-0.4c0,0,0-0.1,0-0.2c0,0,0.1-0.1,0.1-0.1c0.3,0.1,0.6,0,0.8-0.1
		c0.3-0.1,0.5,0,0.6,0.2c0,0.1,0,0.1,0,0.2C30.9,6.2,30.4,6.4,30.3,6.4z"/>
	<path class="st0" d="M30,2.7c-0.1,0-0.2,0-0.2,0c-0.4-0.2-0.8-0.3-1.2-0.5c0,0-0.1,0-0.1-0.1c0,0-0.1-0.1-0.1-0.1
		c0,0,0.1-0.1,0.1-0.1c0.1,0,0.3,0,0.4,0C29.4,2,29.7,2.3,30,2.7z"/>
	<path class="st0" d="M19.4,23.8c0.3-0.2,0.5-0.2,0.8-0.2c0,0.1,0,0.1-0.1,0.2c-0.1,0.1-0.2,0.2-0.3,0.1
		C19.7,23.9,19.6,23.8,19.4,23.8z"/>
</g>
</svg>
