<svg  viewBox="0 0 89 96" fill="none" xmlns="http://www.w3.org/2000/svg">
<path d="M44.4945 77.363C27.7086 77.299 14.7437 63.704 14.7712 47.571C14.8023 31.418 28.0324 17.9263 44.586 17.9757C60.7271 18.0242 74.227 31.0924 74.1978 47.7146C74.1694 64.1247 60.9073 77.3255 44.4945 77.363ZM69.7685 61.3417C69.6917 61.2337 69.5655 61.1587 69.5801 60.9941C69.6469 60.2625 69.6944 59.5235 69.999 58.8403C70.1566 58.5175 70.2498 58.1671 70.2734 57.8087C70.2886 57.466 70.4093 57.1363 70.6191 56.8649C70.949 56.4181 71.0923 55.8606 71.0187 55.3101C70.9854 55.1072 71.0121 54.899 71.0956 54.7111C71.1756 54.5199 71.1901 54.3077 71.1367 54.1074C71.0452 53.6392 70.9465 53.17 70.834 52.7054C70.7648 52.3516 70.6207 52.0167 70.4115 51.7232C70.3344 51.6195 70.2795 51.5009 70.2504 51.375C70.2213 51.2491 70.2185 51.1186 70.2423 50.9915C70.2569 50.8735 70.2825 50.7565 70.2999 50.6376C70.3788 50.1474 70.3929 49.649 70.342 49.1551C70.3173 48.9456 70.2112 48.8569 69.9999 48.8487C69.817 48.8423 69.6277 48.8487 69.4292 48.8487C69.3497 48.7453 69.2701 48.6347 69.1823 48.5304C68.9948 48.31 68.8604 48.2716 68.5961 48.3759C68.2251 48.5142 67.9028 48.7581 67.6687 49.0773C67.558 49.2301 67.4464 49.381 67.3312 49.5291C67.1401 49.7733 66.9069 49.9251 66.5776 49.8547C66.3407 49.8044 66.1478 49.8995 65.9594 50.0376C65.7371 50.1968 65.5021 50.3385 65.2744 50.4885C65.1565 50.5756 65.0139 50.6225 64.8674 50.6225C64.7209 50.6225 64.5782 50.5756 64.4604 50.4885C64.0305 50.2087 63.5989 49.9325 63.1617 49.6654C63.027 49.5904 62.9113 49.4854 62.8236 49.3585C62.7359 49.2316 62.6785 49.0863 62.6559 48.9338C62.6412 48.8148 62.5959 48.7018 62.5244 48.6056C62.4529 48.5094 62.3577 48.4334 62.2481 48.385C62.0464 48.2844 61.8877 48.1146 61.8008 47.9067C61.6925 47.6535 61.5008 47.445 61.2576 47.3159C60.7518 47.0251 60.5744 46.5842 60.6631 46.0126C60.7336 45.5553 60.7912 45.0981 60.846 44.6408C60.8671 44.4743 60.8762 44.306 60.8909 44.135C60.8282 44.0917 60.7617 44.0541 60.6924 44.0225C60.626 44.0041 60.566 43.9676 60.5191 43.9171C60.4723 43.8665 60.4404 43.8039 60.4272 43.7363C60.3247 43.2698 60.172 42.8107 60.1875 42.3251C60.204 41.8129 60.2342 41.3008 60.2552 40.7877C60.2786 40.4464 60.3516 40.1102 60.472 39.7899C60.5488 39.5248 60.7091 39.2916 60.9293 39.125C61.2896 38.8653 61.317 38.5041 61.2036 38.1144C61.1682 38.0188 61.1235 37.9269 61.0701 37.8401C60.7957 37.3023 60.8049 36.7828 61.2073 36.3128C61.3902 36.0978 61.424 35.8555 61.4249 35.5985C61.4288 35.5299 61.4163 35.4614 61.3883 35.3987C61.3603 35.3361 61.3176 35.281 61.264 35.2381C61.0811 35.09 60.8936 34.9391 60.7253 34.8019C60.5287 34.8248 60.3833 34.9693 60.1766 34.8687C60.1062 34.7607 60.0293 34.6272 59.9369 34.5028C59.8446 34.3784 59.7348 34.2714 59.6333 34.1562C59.5782 34.1023 59.535 34.0374 59.5067 33.9657C59.4783 33.894 59.4654 33.8171 59.4687 33.7401C59.4833 33.5242 59.3891 33.3422 59.2748 33.1685C59.1833 33.0258 59.0919 32.8813 59.0004 32.7368C58.6447 32.1807 58.8523 32.0152 59.4074 31.9356C59.5903 31.91 59.7833 31.9356 59.9708 31.9201C60.0874 31.9215 60.2014 31.8857 60.2963 31.818C60.3911 31.7502 60.462 31.654 60.4985 31.5433C60.4025 31.3412 60.3156 31.1189 60.193 30.915C60.1231 30.7788 60.0183 30.6637 59.8894 30.5812C59.5236 30.39 59.1925 30.069 58.7197 30.1669C58.7027 30.1668 58.686 30.1624 58.6712 30.1541C58.5706 30.1102 58.4883 30.058 58.5596 29.898C58.7178 29.8495 58.8962 29.7974 59.0718 29.7389C59.0965 29.7306 59.1102 29.6904 59.1422 29.6474L58.9648 29.3776L59.2236 29.2861C59.294 29.0932 59.1587 28.9075 59.1971 28.7319C59.2391 28.5417 59.3443 28.3661 59.4276 28.1722C59.4083 28.1457 59.3544 28.1054 59.3516 28.0634C59.3297 27.845 59.3297 27.6251 59.3516 27.4067C59.3745 27.2522 59.4797 27.1095 59.5446 26.9696L59.3727 26.7318L59.6891 26.601L60.1619 26.7784C60.1354 26.5562 60.1125 26.3733 60.0952 26.1894C60.0952 26.1638 60.1226 26.1346 60.1381 26.108C60.2141 26.0815 60.2891 26.1995 60.3833 26.0888C60.2845 25.5401 59.7879 25.3188 59.4029 25.0051L59.5858 24.8432C59.5464 24.7956 59.5309 24.759 59.5034 24.7453C59.3525 24.6667 59.2016 24.588 59.0462 24.5194C58.949 24.4852 58.864 24.423 58.802 24.3407C58.7401 24.2584 58.7037 24.1595 58.6977 24.0567C58.6984 23.9369 58.679 23.8179 58.6401 23.7046C58.5792 23.5849 58.4978 23.4769 58.3996 23.3854C58.3593 23.3358 58.3018 23.3032 58.2385 23.2942C58.1752 23.2852 58.1109 23.3005 58.0584 23.3369C58.0923 23.5884 58.3566 23.785 58.2898 24.0795C58.2379 24.0975 58.1837 24.1079 58.1288 24.1106C58.0445 24.1019 57.9616 24.0829 57.8819 24.0539C57.5279 23.9246 57.1978 23.7373 56.9052 23.4997C56.8512 23.4558 56.7927 23.3589 56.6848 23.4622C56.7755 23.6926 56.917 23.8996 57.0987 24.0678C57.2805 24.236 57.4979 24.361 57.7347 24.4335C58.0307 24.5236 58.2882 24.71 58.4663 24.963C58.6477 25.2127 58.8685 25.4311 59.1202 25.6096C59.1614 25.6398 59.1998 25.6745 59.2172 25.6882C59.2401 25.8355 59.2574 25.9507 59.2785 26.0879L58.9831 26.2708C58.8619 26.0137 58.6633 25.801 58.4151 25.6626C58.1764 25.5383 57.9414 25.3983 57.6542 25.4322L57.5719 25.7175C57.5188 25.7312 57.4804 25.7532 57.4548 25.7468C57.0216 25.646 56.6105 25.4666 56.2421 25.2172C55.955 25.0246 55.7419 24.7402 55.6376 24.4106C55.5964 24.2807 55.5699 24.1463 55.5287 24.0164C55.4227 23.6799 55.248 23.3854 54.9324 23.2116C54.3398 22.8851 54.0343 22.2842 53.5816 21.8242C53.4234 21.6632 53.5185 21.4584 53.749 21.4008C53.8486 21.3774 53.9504 21.3645 54.0527 21.3624C54.4286 21.3433 54.8055 21.3706 55.1748 21.4438C55.7126 21.5572 55.7144 21.5471 55.7894 22.0775C55.9824 22.222 56.1991 22.1864 56.4497 22.1562C56.4285 22.052 56.394 21.9509 56.3473 21.8553C56.265 21.7318 56.3784 21.6285 56.3555 21.516C49.0673 18.1861 40.8454 18.1879 34.084 20.9115C33.7813 21.6431 33.9441 21.4867 33.1411 22.3547L33.8847 22.1983C33.8993 22.4159 33.956 22.5796 34.1672 22.6556C34.3191 22.7095 34.3886 22.8595 34.4187 23.0305L34.073 23.4293C34.2431 23.6122 34.4133 23.7283 34.6346 23.7155C35.0379 23.6936 35.4156 23.807 35.7833 23.9433C36.2406 24.1115 36.6146 24.0183 36.9567 23.6899C37.2987 23.3616 37.6316 23.0607 37.9737 22.7498C38.0596 22.6711 38.1566 22.6071 38.248 22.5357C38.3395 22.6482 38.3395 22.7433 38.248 22.8238C38.0651 22.9821 37.8822 23.1311 37.6993 23.2903C37.3554 23.5994 37.3445 23.6296 37.585 24.01C37.6484 24.1014 37.6832 24.2097 37.6848 24.321C37.6864 24.4322 37.6549 24.5414 37.5941 24.6347C37.4048 24.9767 37.1478 25.2355 36.771 25.359C36.4793 25.4505 36.1903 25.5593 35.8976 25.6526C35.637 25.7358 35.3717 25.8017 35.1129 25.8904C34.8193 25.9876 34.5523 26.1519 34.3331 26.3701C34.1138 26.5884 33.9484 26.8547 33.8499 27.1479C33.7264 27.479 33.7868 27.6966 34.0538 27.9234C34.1319 27.9902 34.2168 28.0484 34.3072 28.0972C34.673 28.2801 35.0388 28.463 35.4047 28.646C35.5537 28.7219 35.7394 28.731 35.8683 28.9084C35.7549 29.0868 35.6424 29.2743 35.5171 29.4572C35.3342 29.7224 35.3342 30.0004 35.4422 30.2876C35.4587 30.3409 35.4897 30.3885 35.5317 30.4253C35.5736 30.462 35.6249 30.4865 35.6798 30.4959C35.7348 30.5054 35.7913 30.4995 35.8432 30.4789C35.895 30.4582 35.9401 30.4237 35.9735 30.3791C36.125 30.2146 36.2263 30.0102 36.2653 29.7901C36.3247 29.4114 36.5497 29.1398 36.8533 28.924C36.9933 28.8252 37.1368 28.7328 37.2749 28.6322C37.6673 28.3487 37.6664 28.3478 37.4899 27.8814C37.3838 27.6024 37.3765 27.5594 37.6051 27.4067C37.9225 27.1945 38.045 26.9028 38.0624 26.5388C38.0787 26.415 38.1047 26.2927 38.1401 26.173C38.506 26.2644 38.8361 26.3412 39.1599 26.4473C39.3342 26.4961 39.4925 26.5903 39.6185 26.7203C39.7445 26.8503 39.8337 27.0114 39.8769 27.1872C39.9103 27.3197 39.954 27.4494 40.0077 27.575C40.0609 27.6714 40.1221 27.7631 40.1906 27.8494C40.2733 27.7794 40.3518 27.7046 40.4256 27.6253C40.5125 27.5201 40.5756 27.3957 40.6643 27.2933C40.6888 27.2575 40.721 27.2278 40.7586 27.2062C40.7963 27.1847 40.8383 27.172 40.8815 27.1691C40.9248 27.1662 40.9681 27.1732 41.0083 27.1895C41.0484 27.2057 41.0844 27.2309 41.1134 27.2631C41.1878 27.3335 41.253 27.4131 41.3073 27.5C41.5112 27.8247 41.6539 28.1704 41.5917 28.5655C41.5487 28.8398 41.6667 29.0228 41.9109 29.1416C42.1551 29.2605 42.3682 29.3685 42.5977 29.4864C42.72 29.5471 42.838 29.6161 42.9507 29.6931C43.151 29.8376 43.237 30.0333 43.1565 30.2757C43.1025 30.4376 43.0248 30.5903 42.969 30.7513C42.9196 30.8903 42.8017 31.0156 42.8565 31.172C42.9708 31.343 43.1657 31.3275 43.3138 31.4034C43.462 31.4793 43.6047 31.5067 43.7364 31.5863C44.051 31.7692 44.126 32.0436 43.9677 32.3746C43.9566 32.4072 43.9392 32.4372 43.9164 32.463C43.8936 32.4888 43.8659 32.5097 43.8349 32.5247C43.804 32.5397 43.7703 32.5484 43.736 32.5502C43.7016 32.5521 43.6672 32.5471 43.6348 32.5356L42.5373 32.2887C42.4541 32.2695 42.3691 32.2576 42.2877 32.232C42.2198 32.2174 42.1603 32.1768 42.1221 32.1188C42.084 32.0607 42.0702 31.99 42.0837 31.9219C42.1075 31.7884 42.1624 31.6613 42.198 31.5305C42.2538 31.3238 42.381 31.1317 42.349 30.8546C42.2063 30.9525 42.091 31.0202 41.9886 31.1025C41.6228 31.3942 41.2524 31.6412 40.7805 31.7427C40.3753 31.8341 40.164 32.1487 40.09 32.5511C40.0543 32.745 40.1384 32.9042 40.3186 32.9526C40.5975 33.045 40.9006 33.0313 41.1701 32.9142C41.2585 32.8619 41.3502 32.8152 41.4444 32.7743C41.5292 32.7614 41.6153 32.7599 41.7005 32.7697C41.6817 32.8459 41.6588 32.921 41.6319 32.9947C41.5515 33.1831 41.3786 33.2773 41.2085 33.3477C40.6881 33.5645 40.1613 33.7648 39.6336 33.9623C39.547 33.9763 39.4587 33.9763 39.372 33.9623C39.405 33.5965 39.7873 33.5306 39.94 33.259C39.8723 33.2352 39.8229 33.1977 39.7845 33.2069C39.3157 33.3054 38.8664 33.4806 38.4547 33.7254C38.312 33.821 38.1911 33.9457 38.0999 34.0913C37.8512 34.4641 37.4823 34.7404 37.0545 34.8741C36.4983 35.061 36.0191 35.4258 35.6909 35.9122C35.5949 36.0484 35.5272 36.2158 35.3909 36.2734H35.0654C35.0224 36.5524 34.9739 36.8039 34.9474 37.0581C34.9172 37.4066 34.7251 37.6206 34.4242 37.7578C34.2532 37.8355 34.0776 37.9041 33.9084 37.9855C33.3669 38.2419 32.8663 38.5772 32.4232 38.9805C32.3232 39.0613 32.2481 39.1688 32.2068 39.2906C32.1655 39.4124 32.1597 39.5433 32.19 39.6683C32.2714 40.0533 32.3207 40.4438 32.4076 40.8261C32.5046 41.2523 32.4122 41.6309 32.1991 42.0032C31.8635 41.9611 31.7071 41.7599 31.6504 41.4663C31.6284 41.3493 31.644 41.2267 31.6275 41.1087C31.5763 40.7365 31.536 40.3624 31.4565 39.9966C31.3979 39.7222 31.2937 39.6537 31.0193 39.6838C30.9355 39.6976 30.8495 39.6888 30.7703 39.6582C30.691 39.6277 30.6213 39.5765 30.5684 39.5101C30.44 39.3696 30.2703 39.2735 30.0837 39.2357C29.8167 39.1763 29.545 39.1442 29.2734 39.1067C29.1723 39.089 29.0686 39.0924 28.9689 39.1168C28.8573 39.161 28.7502 39.2155 28.6488 39.2796C28.5719 39.2494 28.4915 39.222 28.4156 39.1881C28.2172 39.0861 27.9983 39.0302 27.7753 39.0248C27.5522 39.0194 27.3309 39.0646 27.1278 39.157C26.9239 39.2485 26.7181 39.3281 26.516 39.4195C26.3261 39.5005 26.1566 39.6228 26.02 39.7776C25.8833 39.9323 25.7828 40.1155 25.7258 40.314C25.4981 41.0456 25.2832 41.7855 25.0655 42.5226C25.0088 42.7119 24.9901 42.9105 25.0105 43.107C25.0309 43.3036 25.09 43.4941 25.1844 43.6677C25.3417 43.9686 25.542 44.2466 25.7331 44.5466C26.2233 44.4807 26.4319 44.8374 26.6806 45.1694C26.7649 45.0985 26.8435 45.0212 26.9157 44.938C27.116 44.6636 27.3034 44.3746 27.5037 44.0975C27.6013 43.9581 27.7108 43.8274 27.8311 43.707C27.9979 43.5544 28.2181 43.4739 28.4439 43.4829C28.679 43.4829 28.9176 43.525 29.0914 43.7326C28.9726 43.8996 28.8656 44.0747 28.7713 44.2567C28.6951 44.4657 28.5593 44.6479 28.3808 44.7807C28.2988 44.8293 28.2355 44.9041 28.2011 44.993C28.1668 45.0819 28.1634 45.1798 28.1915 45.2709C28.2683 45.5608 28.1805 45.8087 28.0086 46.041C27.9601 46.1068 27.9244 46.1818 27.8659 46.2806C28.065 46.3437 28.2599 46.4195 28.4494 46.5074C28.5449 46.5641 28.6512 46.6001 28.7615 46.613C28.8718 46.6259 28.9836 46.6155 29.0896 46.5824C29.3969 46.4836 29.6639 46.5952 29.92 46.7351C30.156 46.865 30.2209 47.036 30.1441 47.2967C30.0807 47.5093 30.0052 47.7182 29.9182 47.9222C29.599 48.6731 29.7161 49.3554 30.2236 49.9837C30.5694 50.4108 30.6626 50.4528 31.1739 50.2196C31.5479 50.0486 31.8616 50.1053 32.1799 50.3394C32.3537 50.4684 32.5119 50.6275 32.7405 50.7053C32.9024 50.4913 33.0689 50.2955 33.2088 50.0834C33.3808 49.8256 33.6293 49.6282 33.9194 49.5191C34.2852 49.3718 34.6511 49.2255 35.0096 49.0737C35.1888 48.9907 35.3867 48.9564 35.5833 48.9742C35.78 48.992 35.9686 49.0613 36.1299 49.1752C36.4875 49.4102 36.8515 49.6325 37.2082 49.8694C37.4055 50.0078 37.6422 50.0789 37.8831 50.0724C38.2252 50.0587 38.5672 50.0587 38.9084 50.0321C39.2509 50.0059 39.594 50.0739 39.9007 50.2288C40.1394 50.3458 40.3333 50.5086 40.3707 50.7949C40.3813 50.8892 40.4209 50.978 40.4842 51.0488C40.5475 51.1196 40.6312 51.1689 40.7238 51.19C40.7723 51.2055 40.8207 51.222 40.8701 51.2357C41.1859 51.3219 41.4647 51.5092 41.6639 51.7689C41.8368 51.9811 42.0179 52.1859 42.199 52.3917C42.2806 52.4914 42.3862 52.5688 42.5058 52.6168C42.6254 52.6647 42.7551 52.6817 42.8831 52.6661C42.9686 52.6675 43.0541 52.6604 43.1382 52.6451C43.6385 52.4905 44.0802 52.6396 44.5101 52.8892C44.5841 52.9322 44.661 52.9697 44.735 53.0109C45.2454 53.2953 45.5518 53.695 45.6121 54.3059C45.6383 54.6535 45.751 54.9891 45.94 55.282C46.129 55.575 46.3882 55.816 46.694 55.9832C46.7535 55.9722 46.7956 55.9768 46.8193 55.9585C47.1651 55.6906 47.5144 55.7756 47.8775 55.9265C48.1853 56.037 48.4458 56.2497 48.6155 56.5292C48.7308 56.7268 48.9046 56.8164 49.1369 56.7213C49.3875 56.6198 49.6015 56.6856 49.799 56.8575C49.8647 56.9133 49.9437 56.951 50.0284 56.9671C50.113 56.9831 50.2004 56.9769 50.2819 56.949C50.3966 56.9168 50.5133 56.8924 50.6312 56.8758C50.8684 56.8336 51.1126 56.8545 51.3391 56.9365C51.5657 57.0186 51.7666 57.1588 51.9217 57.3432C52.0013 57.4346 52.09 57.5142 52.1705 57.602C52.2322 57.6733 52.3106 57.7282 52.3986 57.7619C52.4867 57.7956 52.5818 57.8069 52.6753 57.795C52.8427 57.7785 53.0164 57.7374 53.1765 57.8498C53.3795 58.1581 53.4289 58.5156 53.4509 58.8732C53.469 59.0444 53.4434 59.2175 53.3766 59.3761C53.3097 59.5348 53.2038 59.6739 53.0686 59.7805C52.7887 60.009 52.5544 60.2883 52.3781 60.6036C52.1403 61.0252 51.8714 61.4148 51.4562 61.6846C51.3984 61.7227 51.3538 61.7776 51.3283 61.8419C51.3027 61.9062 51.2976 61.9767 51.3135 62.044C51.3327 62.1794 51.3455 62.3184 51.3711 62.4501C51.4151 62.6699 51.397 62.8976 51.319 63.1077C51.1269 63.6189 50.9367 64.132 50.7154 64.6313C50.5791 64.9068 50.4235 65.1724 50.2499 65.4261C50.1542 65.5891 50.0197 65.726 49.8584 65.8246C49.6971 65.9232 49.514 65.9804 49.3252 65.9913C49.1214 66.0107 48.9204 66.0534 48.7262 66.1184C48.2257 66.2933 47.7455 66.5218 47.294 66.7998C47.1441 66.8841 47.0156 67.0016 46.9183 67.1434C46.8209 67.2851 46.7574 67.4473 46.7325 67.6174C46.7194 67.7277 46.6818 67.8336 46.6225 67.9275C46.5632 68.0213 46.4835 68.1007 46.3895 68.1597C46.1965 68.2746 46.0519 68.4556 45.9825 68.6692C45.954 68.7665 45.8883 68.8486 45.7996 68.8978C45.3881 69.0505 45.153 69.3789 44.9052 69.7118C44.6851 70.0106 44.3676 70.2233 44.0074 70.3131C43.6473 70.4029 43.2671 70.3643 42.9324 70.2038C42.7495 70.1187 42.5822 69.9925 42.4047 69.8901C42.1834 69.763 41.9621 69.6331 41.7325 69.5243C41.6712 69.4941 41.5816 69.5197 41.439 69.5197C41.545 69.6468 41.5935 69.7502 41.674 69.7941C41.8861 69.9015 42.1048 69.9953 42.3288 70.0748C42.9105 70.2879 43.119 70.6684 42.9892 71.3369L41.3292 71.5711C41.2963 71.7997 41.2679 71.9973 41.2378 72.1957C40.9314 72.2506 40.6625 72.0677 40.3488 72.1226C40.421 72.4134 40.4851 72.6713 40.5518 72.9457L39.9875 73.3234C40.1128 73.5063 40.3662 73.5063 40.4595 73.7157C40.2765 73.9444 40.0442 74.1355 40.0022 74.4474C40.0936 74.6724 40.2939 74.772 40.4951 74.8672C40.6963 74.9623 40.9003 75.0501 41.1015 75.1415C41.1591 75.169 41.2304 75.1991 41.1847 75.3318C40.6936 75.3574 40.186 75.4068 39.7031 75.1918C39.2038 74.9696 38.7145 74.7254 38.2179 74.4995C38.0688 74.4342 37.9366 74.3361 37.8309 74.2123C37.7253 74.0886 37.649 73.9426 37.6078 73.7852C37.4158 73.145 37.2027 72.5149 37.0207 71.8747C36.8286 71.2007 36.8039 70.5257 37.0993 69.8627C37.1929 69.6408 37.2026 69.3925 37.1268 69.1639C36.875 68.2221 36.7218 67.2566 36.6695 66.2831C36.6357 65.7343 36.578 65.192 36.5561 64.646C36.5572 64.4756 36.5116 64.3082 36.4242 64.162C36.3368 64.0157 36.211 63.8962 36.0604 63.8165C35.5629 63.5174 35.0882 63.1763 34.6117 62.8479C33.9396 62.3711 33.3828 61.7498 32.982 61.0298C32.3665 59.9643 31.7226 58.9153 31.0925 57.8581C31.0312 57.7556 30.9736 57.6505 30.9205 57.5435C30.8636 57.447 30.8322 57.3376 30.8292 57.2256C30.8261 57.1136 30.8516 57.0027 30.9032 56.9033C31.0733 56.6005 31.0751 56.2905 31.0266 55.9604C30.9471 55.4116 31.1181 54.947 31.5635 54.6013C31.7052 54.4916 31.8104 54.3772 31.8059 54.1797C31.8013 53.9822 31.9156 53.8614 32.0637 53.7608C32.1204 53.7224 32.1799 53.6886 32.2366 53.6511C32.3167 53.6012 32.3829 53.5318 32.4289 53.4495C32.475 53.3671 32.4994 53.2744 32.5 53.1801C32.5128 52.8719 32.5393 52.5655 32.5448 52.2573C32.5542 52.1209 32.5362 51.9841 32.4918 51.8549C32.329 51.4616 32.1442 51.0766 31.965 50.6897C31.9413 50.645 31.9104 50.6045 31.8735 50.5699C31.8393 50.5306 31.7918 50.5054 31.7401 50.4992C31.6884 50.4929 31.6362 50.5061 31.5937 50.5361C31.4928 50.6016 31.4006 50.6797 31.3193 50.7684C31.2196 50.8799 31.1364 51.0061 31.0339 51.1406C30.8364 50.9714 30.6754 50.7912 30.477 50.6733C30.2611 50.5443 30.0096 50.4739 29.7737 50.3769C29.6575 50.055 29.6621 50.0468 29.385 49.8876C29.0217 49.6877 28.7513 49.353 28.6323 48.9557C28.5326 48.6475 28.3854 48.3557 28.2665 48.0521C28.2269 47.939 28.1642 47.8355 28.0823 47.7481C28.0004 47.6607 27.9012 47.5913 27.7909 47.5445C27.6034 47.4622 27.4251 47.3561 27.2367 47.2802C26.698 47.0625 26.2444 46.7489 25.9563 46.2276C25.9297 46.1845 25.8991 46.1441 25.8648 46.1068C25.7791 45.9994 25.6713 45.9116 25.5487 45.8494C25.4261 45.7872 25.2916 45.7521 25.1542 45.7465C25.0518 45.7419 24.9484 45.7538 24.8469 45.7465C24.7268 45.7416 24.6088 45.7129 24.4998 45.662C24.3909 45.6111 24.2931 45.5391 24.2122 45.4502C23.9643 45.1907 23.7304 44.918 23.5116 44.6335C23.3516 44.4085 23.1979 44.1899 22.9629 44.0344C22.9089 43.9988 22.8422 43.9384 22.8358 43.8835C22.8047 43.6174 22.6145 43.4656 22.4407 43.3046C22.1919 43.0741 22.159 42.8245 22.3026 42.519C22.6429 41.8003 22.695 40.9784 22.448 40.2225C22.2916 39.6994 22.1736 39.1616 22.2148 38.6056C22.2233 38.5205 22.2104 38.4347 22.1773 38.3559C22.0346 38.0577 22.0913 37.7532 22.1288 37.4486C22.1499 37.2822 22.234 37.1212 22.1471 36.9072C22.0958 37.0036 22.0547 37.105 22.0246 37.2099C21.9697 37.5291 21.9112 37.8501 21.8874 38.173C21.8416 38.804 21.8161 39.436 21.785 40.068C21.774 40.2902 21.7749 40.5124 21.763 40.7347C21.7575 40.8261 21.7456 40.9231 21.6139 40.9496C21.5225 40.4082 21.4447 39.885 21.3487 39.3656C21.2819 39.0102 21.3323 38.6427 21.4923 38.3184C21.5558 38.1989 21.5917 38.0667 21.5975 37.9315C21.5896 37.1599 21.7376 36.3947 22.0328 35.6817C22.1471 35.3954 22.1654 35.1183 22.0044 34.8458C21.9541 34.7665 21.924 34.6761 21.9168 34.5825C21.9096 34.4889 21.9256 34.3949 21.9633 34.3089C22.1819 33.7529 22.373 33.1859 22.5962 32.6316C22.8531 31.9723 23.2305 31.3666 23.7092 30.8455C24.0595 30.4696 24.4006 30.0855 24.7646 29.7251C25.21 29.2825 25.5877 28.8106 25.6792 28.1631C25.6848 28.1294 25.6937 28.0963 25.7057 28.0643C25.8749 27.564 26.1502 27.1442 26.6111 26.8616C27.006 26.6164 27.3298 26.2721 27.5504 25.8629C27.7148 25.5413 27.9715 25.276 28.2875 25.1011C28.5584 24.9495 28.7793 24.7223 28.9231 24.4472C29.1307 24.074 29.3228 23.6927 29.5185 23.3131C29.5277 23.2948 29.5011 23.2592 29.4838 23.2079C29.3347 23.2939 29.1865 23.3735 29.0438 23.4622C25.8979 25.4224 23.1793 27.9967 21.0506 31.0311C17.7106 35.7515 15.9406 41.0026 15.7406 46.7845C15.7064 48.0497 15.7593 49.3157 15.8988 50.5736C16.4207 55.7493 18.341 60.6855 21.454 64.8532C24.5669 69.021 28.7552 72.2632 33.57 74.2325C36.1355 75.2795 38.8367 75.957 41.5926 76.2445C42.7505 76.3698 43.9138 76.3771 45.0771 76.3698C46.6166 76.3543 48.1518 76.2053 49.6655 75.9244C52.0053 75.5114 54.2807 74.7928 56.4333 73.7871C62.0953 71.1202 66.5172 67.1107 69.5664 61.6233C69.629 61.5245 69.6974 61.4296 69.7713 61.3389L69.7521 61.2246L69.7685 61.3417ZM67.3907 31.5076C66.8684 31.1509 66.4898 30.6315 65.9859 30.2794C65.7326 30.3589 65.7326 30.3571 65.5954 30.5254C65.674 30.5876 65.7582 30.6443 65.8295 30.7129C66.0874 30.9616 66.3508 31.2049 66.5932 31.4683C66.7395 31.6283 66.8611 31.8177 66.798 32.0783C66.7103 32.0723 66.6251 32.0467 66.5485 32.0035C66.4719 31.9603 66.4059 31.9006 66.3554 31.8286C66.1066 31.5314 65.7609 31.3951 65.3795 31.1628C65.4499 31.407 65.5039 31.5799 65.5496 31.7555C65.6009 31.953 65.6484 32.1512 65.6923 32.3499C65.7307 32.5237 65.8752 32.6746 65.8341 32.8767C65.2853 32.7469 65.2579 32.7139 65.1994 32.2192C65.1939 32.1689 65.193 32.1167 65.1838 32.0664C65.1642 31.9215 65.1056 31.7847 65.0143 31.6705C64.9229 31.5563 64.8023 31.469 64.6652 31.418C64.5866 31.3844 64.5056 31.3566 64.4229 31.3348C63.8744 31.1999 63.3583 30.9571 62.9047 30.6205C62.8326 30.5801 62.7566 30.547 62.6779 30.5217C62.6239 31.0046 62.624 31.0046 62.195 31.086C61.8996 31.1409 61.8109 31.4043 61.9993 31.6604C62.077 31.7655 62.1484 31.8753 62.2115 31.9667C61.896 32.574 61.896 32.574 62.1593 33.1785C62.1898 33.2398 62.216 33.3031 62.238 33.3679C62.2794 33.4788 62.3061 33.5947 62.3176 33.7126C62.3276 34.1836 62.2261 34.5998 61.7258 34.7973C61.6678 34.814 61.6168 34.8494 61.581 34.8981C61.5451 34.9467 61.5262 35.0058 61.5274 35.0662C61.5339 35.126 61.557 35.1828 61.594 35.2303C61.631 35.2778 61.6804 35.3141 61.7368 35.3351C61.8157 35.3782 61.9032 35.4028 61.993 35.4072C62.0827 35.4116 62.1722 35.3956 62.2549 35.3603C62.3375 35.3251 62.4111 35.2717 62.4702 35.2039C62.5292 35.1362 62.572 35.056 62.5956 34.9693C62.6107 34.9202 62.6217 34.8701 62.6285 34.8193C62.6715 34.5367 62.8398 34.3702 63.1014 34.2705C63.2614 34.2132 63.4108 34.1294 63.5431 34.0227C63.844 33.7602 64.1687 33.5654 64.5894 33.537C64.5729 33.4227 64.5555 33.3395 64.5509 33.2554C64.5412 33.1961 64.5513 33.1352 64.5796 33.0822C64.6078 33.0291 64.6527 32.9868 64.7073 32.9618C64.7555 32.9441 64.8076 32.9398 64.8581 32.9495C64.9085 32.9591 64.9554 32.9824 64.9936 33.0167C65.2972 33.2224 65.5423 33.4675 65.653 33.8398C65.7613 34.1773 65.9817 34.4677 66.2776 34.6629C66.3351 34.649 66.3911 34.6297 66.445 34.6053C66.7102 34.447 66.9334 34.5239 67.141 34.7187C67.2141 34.7873 67.2974 34.8449 67.3788 34.9107L67.9934 34.7525C67.911 34.5559 67.8242 34.372 67.7565 34.1809C67.6967 34.0221 67.652 33.8579 67.623 33.6907C67.6151 33.6527 67.6172 33.6132 67.629 33.5762C67.6408 33.5392 67.6618 33.5059 67.6902 33.4793C67.7185 33.4528 67.7532 33.434 67.791 33.4247C67.8287 33.4155 67.8681 33.416 67.9056 33.4264C68.0217 33.4511 68.1315 33.5014 68.2467 33.5316C68.4296 33.5791 68.6079 33.623 68.8156 33.4941C68.7744 33.1767 68.8348 32.8475 68.6582 32.5539C68.4296 32.1734 68.201 31.7921 67.9495 31.4271C67.7455 31.129 67.5919 31.1555 67.3897 31.5076H67.3907ZM64.1613 27.6171C64.4567 28.356 65.0759 28.9624 65.6877 29.1334C65.7326 28.9505 65.7957 28.7676 65.6457 28.6085C65.2643 28.1996 64.8774 27.7972 64.4869 27.3866L64.1613 27.6171ZM62.8645 29.6876C62.9311 29.8437 63.0294 29.9841 63.1531 30.1002C63.2769 30.2162 63.4234 30.3052 63.5833 30.3617C63.8204 30.4536 64.0633 30.5297 64.3104 30.5894C64.6104 30.6528 64.8908 30.7874 65.128 30.9818C65.1646 31.0147 65.2113 31.1034 65.2936 31.0037C65.2231 30.894 65.149 30.7815 65.0768 30.6681C65.0139 30.5665 64.9302 30.4795 64.8312 30.4127C64.7322 30.3458 64.6202 30.3007 64.5025 30.2803C64.1189 30.2006 63.7551 30.0451 63.4324 29.823C63.2779 29.7251 63.1114 29.6328 62.8636 29.6876H62.8645ZM55.8287 22.8055C55.9897 22.918 56.0958 22.9949 56.2046 23.0662C56.2622 23.1046 56.3244 23.1247 56.3775 23.0259C56.2567 22.8796 56.1433 22.7205 55.8278 22.8055H55.8287Z" fill="white"/>
<path d="M13.3746 11.6717L12.9493 11.1038C13.3929 10.6968 13.852 10.3474 14.3212 9.96786L14.8287 10.491C15.0309 10.3547 15.2101 10.2267 15.3958 10.1087C16.1357 9.63771 16.9332 9.3862 17.8212 9.44199C18.318 9.465 18.8018 9.60777 19.2315 9.85812C20.0444 10.32 20.6505 11.0746 20.9261 11.968C21.2252 12.9283 21.0954 13.8603 20.6042 14.7382C20.392 15.109 20.1281 15.4478 19.8205 15.7443C19.6997 15.8632 19.5863 15.9903 19.4446 16.1412C19.557 16.3698 19.7857 16.539 19.911 16.7741C19.6778 17.0667 18.9562 17.6676 18.5337 17.92C18.4422 17.8203 18.3581 17.717 18.2666 17.6164C18.1752 17.5158 18.0837 17.4234 17.9803 17.3109C17.8066 17.428 17.6548 17.5341 17.4993 17.6347C16.7969 18.0919 16.0433 18.3791 15.1909 18.3663C14.6761 18.3622 14.1695 18.2369 13.7121 18.0005C12.8448 17.565 12.1845 16.8048 11.8747 15.8851C11.5637 14.987 11.6671 14.0999 12.0905 13.2512C12.3258 12.7942 12.6373 12.3807 13.0115 12.0284L13.3746 11.6717ZM16.8819 16.015C16.8819 15.9994 16.8874 15.9793 16.8819 15.9665C16.8611 15.9201 16.835 15.8762 16.8042 15.8357C16.0366 14.9022 15.2684 13.9688 14.4995 13.0353C14.4876 13.0233 14.4732 13.0139 14.4574 13.0079C14.4422 13.0039 14.4265 13.0017 14.4108 13.0015C14.1759 13.1566 13.9775 13.3608 13.829 13.6C13.6806 13.8391 13.5858 14.1076 13.551 14.3869C13.5162 14.6663 13.5424 14.9498 13.6277 15.2181C13.7129 15.4863 13.8553 15.7329 14.045 15.9409C14.2197 16.1428 14.4347 16.3061 14.6761 16.4203C14.9175 16.5345 15.1801 16.597 15.4471 16.604C15.7141 16.611 15.9796 16.5622 16.2266 16.4608C16.4737 16.3594 16.6969 16.2075 16.8819 16.015ZM15.8695 11.8034C16.6332 12.7609 17.3959 13.6764 18.1505 14.5992C18.215 14.6712 18.283 14.7399 18.3544 14.805C19.3348 14.1529 19.5433 12.9448 18.8693 12.0275C18.1294 11.0251 16.8673 10.908 15.8695 11.8034Z" fill="white"/>
<path d="M30.1267 93.5033C30.3791 92.3985 30.6169 91.3559 30.8584 90.3087C31.1327 90.2538 31.3513 90.3691 31.6175 90.3874C31.6888 90.2959 31.7784 90.2045 31.8534 90.0901C32.5759 89.0356 33.0423 87.8668 33.378 86.6404C33.5609 85.949 33.7237 85.2502 33.8975 84.5552C33.9212 84.4637 33.9597 84.3659 33.9953 84.2589C34.0662 84.2514 34.1376 84.2514 34.2084 84.2589C36.0531 84.6741 37.8969 85.092 39.726 85.5063C39.8257 85.6892 39.7498 85.8401 39.7178 85.981C39.4379 87.2294 39.148 88.4759 38.8608 89.7234C38.7154 90.3554 38.5681 90.9864 38.4246 91.6184C38.4054 91.7016 38.4026 91.7876 38.3907 91.879C38.6294 92.1086 38.9879 92.0089 39.2641 92.211C39.244 92.553 39.0858 92.8768 38.9962 93.217C38.9047 93.5828 38.7812 93.9359 38.6697 94.2944C38.5645 94.6346 38.4566 94.9739 38.3441 95.3333C37.8246 95.3333 37.3728 95.1376 36.8725 95.0507C36.9366 94.481 37.1112 93.9798 37.1972 93.4384C37.1111 93.3841 37.019 93.34 36.9228 93.3066C35.4114 92.9585 33.8987 92.6137 32.3848 92.2723C32.3389 92.2717 32.2932 92.2766 32.2485 92.2869C32.2057 92.3672 32.1684 92.4503 32.1369 92.5357C32.029 92.8768 31.9302 93.2216 31.8232 93.5636C31.7931 93.6551 31.7446 93.7466 31.6961 93.8536C31.5132 93.8197 31.3431 93.795 31.1794 93.7621C30.851 93.6834 30.5227 93.6002 30.1267 93.5033ZM36.5241 91.5114C36.6969 91.0843 37.5749 87.244 37.6216 86.7273C36.8753 86.5444 36.1253 86.3614 35.3644 86.2188C35.1257 87.0346 34.9163 87.8229 34.663 88.5966C34.4096 89.3704 34.0072 90.0874 33.5655 90.7761C33.9011 90.9581 35.1047 91.2534 36.5241 91.5114Z" fill="white"/>
<path d="M37.6316 4.39268C37.8091 4.45121 37.9535 4.49603 38.0971 4.54633C38.6266 4.73119 39.0616 5.11783 39.3073 5.62199C39.5529 6.12615 39.5893 6.70698 39.4086 7.23789C39.2858 7.57781 39.072 7.87743 38.7904 8.10398C38.3681 8.45504 37.8684 8.70079 37.3326 8.821C36.7189 8.96733 36.0988 9.08989 35.4806 9.2161C34.8099 9.35267 34.1392 9.48467 33.4685 9.6121C33.3368 9.6368 33.2006 9.63771 33.0743 9.6496C32.9088 9.22616 31.7025 3.27691 31.4592 1.67825C31.541 1.63088 31.6278 1.59284 31.718 1.56484C32.8896 1.3298 34.0603 1.08836 35.2346 0.874347C35.772 0.761011 36.3285 0.774791 36.8597 0.914588C38.3596 1.34352 38.7163 3.20832 37.8365 4.13569C37.7716 4.20702 37.7149 4.28933 37.6316 4.39268ZM34.4709 7.76468C34.7901 7.70706 35.0571 7.66225 35.3214 7.6092C35.8062 7.51226 36.2936 7.42629 36.7728 7.30465C36.9706 7.25425 37.1586 7.17109 37.3289 7.05864C37.595 6.88304 37.6865 6.61141 37.638 6.29772C37.5877 5.96939 37.4313 5.72794 37.0948 5.62185C36.8658 5.54955 36.6224 5.53603 36.3869 5.58253C35.7001 5.71423 35.015 5.84409 34.3264 5.97945C34.2603 6.00633 34.1986 6.04302 34.1435 6.08828C34.1993 6.40106 34.2496 6.70196 34.3081 7.00285C34.3511 7.23423 34.406 7.4647 34.4709 7.76468ZM33.8097 4.46493C33.881 4.48779 33.9148 4.51249 33.9432 4.507C34.4919 4.40183 35.0452 4.30488 35.5894 4.17959C35.8036 4.12763 36.0081 4.04147 36.1948 3.92442C36.3443 3.83837 36.4591 3.70286 36.5194 3.54124C36.5797 3.37963 36.5816 3.20205 36.525 3.03912C36.4858 2.88051 36.3959 2.73902 36.269 2.63617C36.1421 2.53332 35.985 2.47475 35.8217 2.46935C35.6385 2.4555 35.4542 2.46379 35.273 2.49404C34.7718 2.5855 34.2715 2.67695 33.7731 2.7867C33.6794 2.81989 33.5903 2.86475 33.5078 2.92023L33.8097 4.46493Z" fill="white"/>
<path d="M66.2584 9.27186L60.7656 12.1665C60.2474 11.9292 59.7441 11.6607 59.2584 11.3626C59.5483 10.7278 59.8986 10.1471 60.2168 9.54897C60.5351 8.95085 60.8689 8.34906 61.1954 7.74819C61.5125 7.16287 61.8292 6.57724 62.1457 5.99131C62.4712 5.3941 62.7986 4.79689 63.1389 4.17407C63.7123 4.38259 64.1806 4.71732 64.7046 4.97249C64.5903 5.33831 64.3891 5.61817 64.2354 5.91906C64.0818 6.21995 63.9117 6.52085 63.7489 6.82082C63.5776 7.13543 63.4062 7.45035 63.2349 7.76557C63.0721 8.06555 62.9038 8.36278 62.7465 8.66642C62.5892 8.97005 62.4109 9.24534 62.2417 9.64774C62.9733 9.32033 63.5714 8.97188 64.1869 8.65544C64.8024 8.339 65.4289 8.00884 66.049 7.68509L67.8992 6.71382C68.4095 6.98087 68.8942 7.22323 69.3479 7.51498C69.1421 8.03537 65.6795 14.387 65.428 14.7016C64.9268 14.4702 64.4421 14.194 63.972 13.9206C63.919 13.7249 64.0406 13.606 64.1101 13.477C64.775 12.2451 65.4463 11.0159 66.113 9.78493C66.1917 9.64043 66.2585 9.4877 66.3307 9.33954L66.2584 9.27186Z" fill="white"/>
<path d="M45.496 0.0018588C47.1678 0.0192355 48.3878 0.558829 49.2768 1.76057C49.6021 2.19167 49.837 2.68407 49.9673 3.2082C50.0975 3.73233 50.1206 4.27739 50.035 4.81064C49.7734 6.63977 48.7161 7.82048 46.9712 8.34178C45.3496 8.8265 43.3266 8.38842 42.1523 6.79982C41.4801 5.88526 41.2451 4.87923 41.3539 3.75523C41.5368 1.84288 43.0495 0.529563 44.3775 0.177455C44.8101 0.0631345 45.2417 -0.0118597 45.496 0.0018588ZM48.1976 4.24453C48.151 3.97656 48.1327 3.69579 48.0513 3.44245C47.4202 1.44962 45.2573 1.34627 44.2412 2.14651C43.7078 2.55939 43.3567 3.16416 43.2626 3.83206C43.0111 5.38682 44.1159 7.00651 46.0063 6.8108C46.5384 6.76428 47.0365 6.5295 47.4111 6.14865C47.9324 5.62552 48.1592 4.98075 48.1976 4.24453Z" fill="white"/>
<path d="M29.8468 82.5835L31.4327 83.3773C31.405 83.4794 31.3708 83.5796 31.3302 83.6773C30.2017 85.9375 29.0713 88.1971 27.9391 90.456C27.8942 90.5475 27.8339 90.6261 27.7644 90.7368L26.1721 89.9402C26.6349 88.9342 27.1534 87.9995 27.5998 87.0346C27.2696 86.795 25.2219 85.7543 24.6878 85.554C24.622 85.6475 24.5609 85.7442 24.5049 85.8439C24.139 86.5591 23.7833 87.277 23.422 87.994C23.3543 88.1294 23.2784 88.2611 23.2098 88.3882C22.7882 88.2785 21.9404 87.8587 21.5856 87.5834C22.7763 85.2098 23.9689 82.8319 25.1633 80.4498C25.1848 80.412 25.2086 80.3757 25.2347 80.3409C25.692 80.4809 26.4895 80.8787 26.8343 81.1439C26.4044 82.096 25.8868 83.0151 25.4386 83.9983C26.4154 84.505 27.3711 84.9851 28.3597 85.457C28.6679 84.9942 28.8646 84.5059 29.1051 84.0413C29.3457 83.5767 29.5834 83.1038 29.8468 82.5835Z" fill="white"/>
<path d="M8.70942 66.5465C8.95452 67.1181 9.28376 67.655 9.56819 68.2138C9.85262 68.7726 10.1755 69.3112 10.4443 69.9075C10.0017 70.202 9.54259 70.4124 9.0725 70.6611C8.98104 70.5221 8.9033 70.416 8.84111 70.2953C8.39054 69.4521 7.94149 68.6076 7.49396 67.762C7.41439 67.6138 7.3266 67.4693 7.22966 67.2992C6.70013 67.494 6.25381 67.8031 5.73983 68.0436C5.80293 68.1891 5.84317 68.2961 5.89622 68.3976C6.44496 69.4384 6.99734 70.4791 7.5534 71.5199C7.63205 71.6681 7.70339 71.8199 7.78478 71.9836C7.67595 72.0522 7.59274 72.1107 7.50311 72.1583C7.14552 72.3503 6.78518 72.5396 6.4477 72.718C6.39649 72.696 6.38001 72.6905 6.36538 72.6823C6.34998 72.6744 6.33655 72.6632 6.32606 72.6494C5.3932 70.9026 4.46125 69.1548 3.53023 67.4062C3.51107 67.3621 3.49666 67.3161 3.48724 67.269C3.4973 67.2461 3.50279 67.2297 3.51102 67.215C3.51836 67.1995 3.52935 67.186 3.54304 67.1757C5.81848 65.9642 8.09391 64.7533 10.3693 63.5431C10.4608 63.4955 10.5523 63.458 10.6693 63.4041C10.7275 63.4627 10.7796 63.527 10.8248 63.5961C11.7247 65.2838 12.6228 66.9724 13.5191 68.6619C13.5406 68.7136 13.5584 68.7668 13.5722 68.821C13.3993 69.0195 13.1432 69.0872 12.9265 69.2143C12.7097 69.3414 12.4765 69.4521 12.2625 69.5636C12.0851 69.5152 12.0576 69.367 11.9964 69.2527C11.4568 68.2467 10.9218 67.2324 10.3831 66.2227C10.3035 66.0737 10.2166 65.9283 10.1361 65.7865C9.62341 65.9629 9.14189 66.2194 8.70942 66.5465Z" fill="white"/>
<path d="M23.9259 79.4318L22.9428 80.629C22.8372 80.5718 22.7352 80.5083 22.6373 80.4388C21.7087 79.6833 20.7819 78.9261 19.857 78.167C19.7537 78.0829 19.6439 78.006 19.5177 77.9109C19.1444 78.3057 18.7984 78.7255 18.4824 79.1675L21.4374 81.5948C21.2984 81.8426 21.1164 82.021 20.9618 82.2176C20.8073 82.4142 20.6371 82.6109 20.4689 82.813C20.2704 82.7819 20.1616 82.641 20.0335 82.5386C19.2763 81.9249 18.5236 81.3058 17.7682 80.6903C17.6648 80.6061 17.5523 80.533 17.4225 80.4397C17.0566 80.8723 16.7054 81.2847 16.3652 81.7429L19.772 84.5388C19.4875 85.0061 19.1226 85.3619 18.8419 85.7277C18.7778 85.7478 18.7614 85.7588 18.7458 85.757C18.729 85.7537 18.7135 85.7458 18.701 85.7341C17.1889 84.5049 15.6775 83.2751 14.1666 82.0447C14.1017 81.9917 14.0422 81.9313 13.9608 81.8563C13.9986 81.7814 14.0417 81.7093 14.0898 81.6405C15.7134 79.6553 17.3377 77.6704 18.9626 75.6858C19.0056 75.6327 19.0385 75.5724 19.0888 75.4965C19.175 75.5402 19.2581 75.5897 19.3375 75.6446C20.8216 76.8555 22.3044 78.0676 23.786 79.2809C23.8355 79.3285 23.8822 79.3789 23.9259 79.4318Z" fill="white"/>
<path d="M82.256 68.2348C81.6862 69.1841 81.1585 70.116 80.6034 71.0773C81.0606 71.3964 81.5472 71.6388 82.0109 71.9187C82.4746 72.1985 82.9254 72.45 83.3718 72.7107C83.2757 73.0765 82.7855 73.9362 82.4755 74.2938L75.5687 70.288L75.4251 70.2029C75.6929 69.6696 75.9915 69.1523 76.3196 68.6537C76.8217 68.8796 77.2588 69.174 77.7161 69.431C78.1734 69.688 78.6307 69.9569 79.0815 70.2176C79.3404 69.9103 80.5046 67.9312 80.746 67.3906C80.658 67.3219 80.5664 67.2578 80.4717 67.1986C79.794 66.8017 79.1135 66.4084 78.4349 66.0096C78.3042 65.9328 78.1761 65.8505 78.0188 65.7536C78.2456 65.2048 78.584 64.743 78.863 64.2144C78.967 64.2465 79.0684 64.2862 79.1666 64.3332C81.3542 65.5978 83.5413 66.8648 85.7277 68.1342C85.8098 68.1861 85.8892 68.2423 85.9655 68.3025C85.7752 68.7597 85.3253 69.5234 85.0573 69.8362C84.1299 69.3323 83.2209 68.7689 82.256 68.2348Z" fill="white"/>
<path d="M7.84331 60.322C7.79027 59.8876 7.44914 58.6026 7.25251 58.0978C7.16562 58.1124 7.06959 58.1225 6.97814 58.1444C6.11387 58.342 5.25234 58.5505 4.38625 58.7398C3.66553 58.8945 2.92679 58.948 2.19129 58.899C1.93585 58.8826 1.68306 58.8375 1.43769 58.7645C1.22317 58.7032 1.02311 58.5995 0.849366 58.4596C0.675624 58.3196 0.531721 58.1462 0.426179 57.9496C0.138875 57.449 -0.00892462 56.8806 -0.00183139 56.3034C0.460549 56.1606 0.937106 56.0686 1.41941 56.0291C1.46422 56.1479 1.51085 56.2531 1.54469 56.362C1.67639 56.779 1.96173 57.0022 2.38792 57.0872C2.75682 57.1603 3.13499 57.1742 3.50826 57.1284C4.51428 57.0104 5.48738 56.7625 6.46322 56.5174C6.99184 56.3812 7.51589 56.2312 8.0436 56.0912C8.15517 56.062 8.27225 56.0528 8.3948 56.0327C8.43491 56.0953 8.46919 56.1614 8.49722 56.2303C8.98102 58.0237 9.46301 59.8172 9.94956 61.6262C9.86678 61.6683 9.78121 61.7046 9.69348 61.735C7.1894 62.4057 4.685 63.0764 2.18031 63.7471C2.12385 63.7507 2.06717 63.7461 2.01204 63.7333C1.81633 63.2084 1.71755 62.656 1.55476 62.1283C1.69377 61.9573 1.87943 61.9582 2.03399 61.9161C3.46529 61.5256 4.89932 61.1451 6.33245 60.7619C6.71108 60.6604 7.09062 60.5589 7.46833 60.4537C7.59728 60.4135 7.72259 60.3641 7.84331 60.322Z" fill="white"/>
<path d="M23.5143 4.58743C23.9616 4.38439 24.3649 4.20057 24.7691 4.01857C24.845 3.98382 24.9255 3.95821 25.0344 3.91614C27.222 5.9233 29.4084 7.93748 31.5936 9.95867C31.2571 10.1983 30.5245 10.5422 29.8907 10.7617L28.4713 9.43096C27.4287 9.87179 26.4135 10.3547 25.381 10.811C25.274 11.1549 25.3673 11.497 25.3572 11.8344C25.3471 12.1564 25.3572 12.4801 25.3572 12.8322C24.8377 13.0828 24.3164 13.3279 23.7485 13.5474C23.72 13.4458 23.6992 13.3421 23.6863 13.2374C23.6686 12.8106 23.6558 12.3838 23.6479 11.957C23.6027 9.70107 23.5592 7.44514 23.5171 5.18921C23.5107 4.99807 23.5143 4.8115 23.5143 4.58743ZM27.1616 8.22374C26.6074 7.59726 25.5465 6.61868 25.2182 6.42113C25.1267 6.87841 25.1926 8.57768 25.3289 9.05325C25.938 8.80449 26.5333 8.5356 27.1616 8.22374Z" fill="white"/>
<path d="M80.7268 76.8692C80.2833 77.343 79.8699 77.7682 79.4355 78.2145L77.631 77.5158C77.3265 77.7435 75.5394 79.5891 75.2203 80.0044C75.4151 80.6071 75.7507 81.1668 75.9629 81.7676C75.6024 82.2427 75.1861 82.6726 74.7227 83.048C74.506 82.7179 71.5163 75.7964 71.1824 74.8462L72.2854 73.6993C72.697 73.7817 79.8507 76.4668 80.7268 76.8692ZM73.4204 75.8422C73.5119 76.272 74.2371 77.9255 74.4886 78.3115C74.8544 78.0463 75.6903 77.1628 75.8778 76.8226C75.0831 76.4824 74.2755 76.1787 73.4204 75.8422Z" fill="white"/>
<path d="M44.704 85.7084C45.2847 85.6819 45.828 85.6709 46.3932 85.6764C47.5885 88.3643 48.771 91.0285 49.96 93.6944C49.9733 93.7516 49.9782 93.8105 49.9746 93.8691C49.3728 93.9231 48.7857 93.8929 48.1738 93.9029C48.1135 93.7941 48.0485 93.6953 48.0019 93.5892C47.8382 93.2143 47.6827 92.8356 47.519 92.4597C47.4659 92.3372 47.3964 92.222 47.3251 92.0857L43.9128 92.1589C43.6312 92.7469 43.4556 93.3707 43.1812 93.9615C42.8895 94.0365 42.5986 93.9953 42.3105 94.0035C42.0224 94.0118 41.7325 94.0035 41.4353 94.0035C41.3438 93.806 41.47 93.6606 41.5267 93.5161C42.2163 91.8089 42.9102 90.1017 43.6083 88.3945C43.8982 87.6839 44.1854 86.9714 44.4753 86.2599C44.5412 86.0852 44.6162 85.917 44.704 85.7084ZM46.609 90.4962C46.4919 89.9849 45.7685 88.3122 45.5417 88.0012C45.5131 88.0409 45.4877 88.0828 45.4658 88.1265C45.178 88.8582 44.8914 89.5898 44.6061 90.3215C44.596 90.3802 44.596 90.4402 44.6061 90.4989L46.609 90.4962Z" fill="white"/>
<path d="M53.8615 1.12854C54.049 1.17335 54.2136 1.20719 54.3755 1.25201C55.2278 1.49254 56.0811 1.73307 56.9363 1.98366C57.3491 2.09181 57.7454 2.25548 58.1142 2.47021C58.7882 2.88359 59.2455 3.46251 59.3946 4.24172C59.5702 5.14622 59.3434 5.97939 58.7955 6.70464C58.287 7.37776 57.5527 7.63384 56.7396 7.6942C56.2784 7.72075 55.8162 7.66563 55.3742 7.53141C54.9489 7.40977 54.5218 7.29454 54.0654 7.16558C54.007 7.26635 53.9565 7.37154 53.9145 7.48019C53.7691 7.9704 53.6337 8.46427 53.492 8.9563C53.4453 9.11818 53.3886 9.2764 53.3393 9.42913C52.9734 9.42913 52.1906 9.22336 51.6217 8.98191C51.6437 8.8621 51.6565 8.73041 51.6921 8.60511C52.3628 6.24248 53.0371 3.88108 53.7151 1.52089C53.7471 1.39651 53.8066 1.27121 53.8615 1.12854ZM54.4706 5.58064C54.8922 5.70411 55.2489 5.8102 55.6074 5.91172C55.7711 5.95836 55.9366 6.00317 56.1031 6.03701C56.1868 6.0532 56.2721 6.06025 56.3573 6.05805C56.939 6.05256 57.378 5.70045 57.5408 5.11239C57.6962 4.54993 57.4969 4.07984 56.9701 3.77255C56.8968 3.72958 56.82 3.69286 56.7405 3.6628C56.2191 3.48154 55.6882 3.32888 55.1501 3.20552C54.8977 3.98381 54.6818 4.74839 54.4706 5.58064Z" fill="white"/>
<path d="M67.5571 85.1195L68.8832 87.1535C68.3967 87.5193 67.9046 87.822 67.4282 88.1293C67.3961 88.1147 67.3806 88.1092 67.366 88.101C67.3505 88.0936 67.3365 88.0833 67.3248 88.0708C67.2818 88.0177 67.2388 87.9656 67.2013 87.9089L62.8882 81.3368C62.9544 81.2627 63.027 81.1945 63.105 81.1329C63.9592 80.5686 64.8116 80.0007 65.6758 79.4519C65.9635 79.2672 66.2701 79.1139 66.5904 78.9946C67.7793 78.5575 69.0049 78.8959 69.7713 79.9504C70.0298 80.2915 70.2184 80.6803 70.3264 81.0945C70.4791 81.721 70.3694 82.3145 70.0831 82.8806C69.8251 83.3859 69.4486 83.8211 68.9857 84.1491C68.682 84.3686 68.3647 84.5698 68.0528 84.7802L67.5571 85.1195ZM66.6608 83.7476C67.1181 83.4486 67.5214 83.1934 67.9138 82.919C68.0672 82.8107 68.2032 82.6797 68.3171 82.5304C68.7808 81.9158 68.5284 80.9756 67.8223 80.6683C67.7155 80.6129 67.5988 80.5791 67.4789 80.5689C67.359 80.5587 67.2383 80.5723 67.1236 80.6088C66.9439 80.6608 66.7699 80.7307 66.6041 80.8174C66.1953 81.0661 65.7993 81.3359 65.4006 81.6002C65.3759 81.6158 65.3676 81.656 65.3329 81.7173C65.7444 82.3831 66.1852 83.0462 66.6572 83.7522L66.6608 83.7476Z" fill="white"/>
<path d="M88.3598 57.5828C88.4192 57.6743 88.4695 57.7419 88.5089 57.8151C88.999 58.7086 89.1283 59.7559 88.8701 60.7417C88.8204 60.9582 88.7594 61.1719 88.6872 61.3819C88.0653 63.1022 86.8114 64.0396 85.017 64.2097C83.0379 64.3926 81.1603 63.0885 80.5723 61.1917C80.364 60.5009 80.3416 59.7675 80.5073 59.0653C80.7991 57.72 81.5134 56.6938 82.7883 56.0472C83.0014 56.2155 83.1001 56.4743 83.2455 56.6938C83.391 56.9133 83.5318 57.1511 83.6818 57.3971C83.4559 57.5682 83.2492 57.7172 83.0507 57.8764C82.5148 58.3053 82.2404 58.8824 82.1362 59.5455C82.0319 60.2085 82.2276 60.7938 82.6447 61.3142C83.3022 62.1373 84.6046 62.5032 85.5667 62.2087C86.1459 62.035 86.6382 61.6492 86.9454 61.1284C87.2526 60.6076 87.3521 59.99 87.2239 59.3991C87.1471 59.0516 87.0117 58.7159 86.8928 58.3401C86.9587 58.2825 87.0297 58.2311 87.105 58.1864C87.5184 57.9861 87.9208 57.7685 88.3598 57.5828Z" fill="white"/>
<path d="M60.6567 91.1291C59.8675 89.1171 59.0883 87.1343 58.3045 85.1396C57.9999 85.146 57.7676 85.3015 57.5152 85.3893C57.2628 85.4771 57.0396 85.5777 56.8009 85.6701C56.5458 85.7689 56.2897 85.8631 56.008 85.9691C55.9499 85.8915 55.8988 85.8089 55.8553 85.7222C55.6888 85.3134 55.5315 84.8991 55.3806 84.5159C55.4044 84.4647 55.409 84.4482 55.4181 84.4345C55.4273 84.4208 55.4391 84.4034 55.4538 84.3979C57.4878 83.6004 59.5221 82.8044 61.5567 82.01C61.6007 82.004 61.6453 82.004 61.6893 82.01C61.9454 82.4581 62.0889 82.9648 62.2911 83.4733C61.9325 83.7019 61.5375 83.8071 61.1634 83.9598C60.7894 84.1126 60.4372 84.2516 60.0714 84.3979C60.0037 84.6147 60.1263 84.7775 60.1912 84.9467C60.847 86.634 61.5119 88.3187 62.1722 90.0042C62.2325 90.1597 62.2828 90.3197 62.335 90.4697C61.992 90.6855 61.1808 91.0102 60.6567 91.1291Z" fill="white"/>
<path d="M74.2911 13.5346C73.5475 14.3623 72.8461 15.1946 72.129 16.014C71.412 16.8335 70.7307 17.6392 69.9972 18.4651C69.5326 18.0471 69.0771 17.6959 68.6445 17.2633C69.3497 16.4155 70.0649 15.6171 70.7654 14.8041C71.466 13.991 72.1693 13.1807 72.8836 12.3548C72.708 12.1125 72.4802 11.9598 72.2799 11.7787C72.0796 11.5976 71.8647 11.4229 71.6617 11.2409C71.4586 11.0589 71.2383 10.9053 71.0398 10.6748L72.1043 9.4447C72.5881 9.77486 72.9814 10.1764 73.4085 10.5321C73.8356 10.8879 74.2627 11.2638 74.6889 11.6369C75.1151 12.0101 75.5404 12.375 75.9693 12.7445L77.2616 13.8657C76.9442 14.323 76.5729 14.6952 76.219 15.1141C76.127 15.0671 76.0386 15.0133 75.9547 14.9531C75.5513 14.6093 75.1535 14.2608 74.7529 13.9151C74.6066 13.7935 74.4621 13.6764 74.2911 13.5346Z" fill="white"/>
<path d="M9.38157 76.7768C9.29012 76.678 9.2197 76.6076 9.15568 76.5308C8.85113 76.1649 8.54932 75.7991 8.26215 75.4452C8.26654 75.4167 8.27297 75.3886 8.28137 75.361C8.28834 75.3455 8.29827 75.3315 8.31062 75.3199C10.2769 73.7029 12.2436 72.0872 14.2105 70.4727C14.3157 70.3812 14.4263 70.3053 14.5544 70.2065C14.6197 70.2557 14.6809 70.3101 14.7373 70.3693C15.8457 71.715 16.9524 73.0615 18.0571 74.409C18.0992 74.4611 18.1349 74.5196 18.1879 74.5965C18.0361 74.8306 17.7901 74.9623 17.5898 75.1388C17.3895 75.3153 17.1956 75.4616 16.977 75.64C16.8856 75.5412 16.7941 75.4635 16.7228 75.3748C16.0917 74.6102 15.4619 73.845 14.8333 73.0792C14.7153 72.9356 14.5919 72.7975 14.4519 72.6338C13.5794 73.3481 12.7353 74.0395 11.8912 74.73C11.047 75.4205 10.2403 76.0954 9.38157 76.7768Z" fill="white"/>
<path d="M55.0532 88.2802C55.1959 88.8023 55.3073 89.3325 55.387 89.8679C55.3202 89.9127 55.2818 89.9593 55.237 89.9648C54.1395 90.1925 53.0356 90.4166 51.9125 90.6462C51.6784 90.1148 51.6702 89.5661 51.512 89.0329C51.5938 88.9848 51.6801 88.9449 51.7699 88.914C52.7887 88.7 53.8078 88.4893 54.8273 88.282C54.9024 88.2748 54.9779 88.2742 55.0532 88.2802Z" fill="white"/>
<path d="M69.7685 61.3417L69.7548 61.2246L69.774 61.3389L69.7685 61.3417Z" fill="white"/>
<path d="M42.1002 21.9249C42.2072 21.7347 42.3681 21.7237 42.519 21.7063C42.6386 21.6986 42.755 21.6653 42.8605 21.6084C42.9659 21.5516 43.0578 21.4727 43.13 21.3771C43.184 21.3111 43.2505 21.2563 43.3256 21.216C43.4008 21.1757 43.4832 21.1505 43.568 21.142C44.1552 21.0341 44.7396 20.9107 45.3267 20.8073C46.0017 20.6884 46.5322 20.9262 46.9126 21.4942C46.969 21.5796 47.0188 21.6691 47.0617 21.7621C47.1016 21.8572 47.1628 21.9419 47.2404 22.0097C47.3181 22.0776 47.4102 22.1268 47.5098 22.1536C47.7406 22.2213 47.9427 22.363 48.0851 22.5569C48.3302 22.8623 48.5817 23.1623 48.8432 23.4815C48.8231 23.573 48.7326 23.5355 48.6512 23.5291C48.5169 23.5085 48.3809 23.5014 48.2451 23.508C48.118 23.5236 48.0275 23.605 48.0714 23.7824C48.1485 23.7974 48.227 23.8035 48.3055 23.8007C48.4226 23.7842 48.5351 23.7303 48.6521 23.7202C48.7253 23.7147 48.8414 23.7376 48.8707 23.7879C48.9329 23.8921 48.8524 23.979 48.7582 24.0339C48.5524 24.1546 48.3476 24.2781 48.1354 24.3878C47.9168 24.4886 47.7349 24.6548 47.615 24.8634C47.6061 24.8783 47.5963 24.8926 47.5857 24.9064C47.2894 25.3335 47.24 25.3637 46.6273 25.5265C46.642 25.625 46.6511 25.7242 46.6547 25.8237C46.6547 25.906 46.6547 26.0194 46.609 26.0661C46.4032 26.2645 46.4444 26.4895 46.4819 26.731C46.5141 26.9364 46.5035 27.1462 46.4508 27.3474C46.0149 27.3282 45.587 27.2248 45.1905 27.0428C44.9364 26.9331 44.7234 26.7462 44.5814 26.5087C44.3253 26.0469 44.0921 25.5713 43.8552 25.0985C43.8178 25.0303 43.8064 24.9509 43.8232 24.875C43.8401 24.7991 43.8839 24.7319 43.9467 24.686C44.0893 24.5642 44.2249 24.4345 44.3527 24.2973C44.3811 24.2707 44.4034 24.2384 44.4183 24.2026C44.4332 24.1667 44.4403 24.1281 44.4392 24.0893C44.4381 24.0505 44.4288 24.0123 44.4118 23.9774C44.3948 23.9425 44.3706 23.9115 44.3408 23.8867C44.2457 23.7887 44.1384 23.7032 44.0217 23.6324C43.7857 23.4906 43.6012 23.2772 43.4949 23.0233C43.4674 22.9602 43.4373 22.8989 43.4034 22.8404C43.3339 22.6936 43.2339 22.5632 43.1102 22.4581C42.9864 22.3529 42.8416 22.2753 42.6855 22.2304C42.4898 22.17 42.2456 22.1636 42.1002 21.9249Z" fill="white"/>
<path d="M39.3199 22.7251C39.6254 22.8915 39.6254 22.8915 40.1823 22.9318C40.2457 23.0609 40.3217 23.1834 40.4091 23.2976C40.5202 23.403 40.6405 23.4982 40.7686 23.582C40.9213 23.6991 41.0558 23.8336 41.0676 24.0393C41.0795 24.2451 41.2039 24.3768 41.3575 24.4966C41.6454 24.7036 41.9203 24.9281 42.1807 25.1688C41.9648 25.5502 41.8203 25.6197 41.4892 25.5118C41.4252 25.4907 41.3649 25.456 41.3063 25.4304C41.2478 25.4048 41.1801 25.3847 41.1234 25.3627C41.0192 25.4542 41.0914 25.5191 41.1371 25.584C41.2057 25.6819 41.2853 25.7733 41.3456 25.8758C41.3842 25.9267 41.405 25.9889 41.405 26.0527C41.405 26.1166 41.3842 26.1787 41.3456 26.2297L40.6424 26.2837L40.7786 26.6852C40.6533 26.6689 40.5293 26.6441 40.4073 26.6111C40.0319 26.4813 39.7187 26.2158 39.5293 25.8666C39.4912 25.8091 39.4739 25.7402 39.4804 25.6715C39.4869 25.6027 39.5167 25.5383 39.565 25.4889C39.6665 25.3737 39.7882 25.2777 39.8915 25.1642C40.0008 25.0328 40.0606 24.8673 40.0606 24.6964C40.0606 24.5255 40.0008 24.36 39.8915 24.2286C39.8556 24.192 39.8143 24.1612 39.7689 24.1372C39.7384 24.1214 39.7053 24.1115 39.6711 24.1079C39.0208 24.0165 39.1004 23.8994 38.6952 24.3823C38.6166 24.4724 38.5272 24.5526 38.4291 24.621C38.3534 24.6834 38.2612 24.7223 38.1636 24.7329C38.0661 24.7434 37.9676 24.7252 37.8804 24.6804C37.8804 24.6151 37.8912 24.5502 37.9124 24.4884C37.97 24.3843 38.0357 24.2849 38.109 24.1911C38.2105 24.0576 38.3706 23.9415 38.4081 23.7942C38.4456 23.647 38.3633 23.4696 38.3285 23.2775C38.6303 23.0534 38.9833 22.8943 39.3199 22.7251Z" fill="white"/>
<path d="M37.0353 22.4023L35.7705 23.6086C35.6955 23.5555 35.6287 23.5171 35.5693 23.4632C35.4988 23.4008 35.4138 23.3573 35.322 23.3367C35.2302 23.3161 35.1347 23.319 35.0443 23.3452C34.8931 23.3741 34.7404 23.3951 34.587 23.4083C34.6072 23.2254 34.6245 23.0662 34.6465 22.8696C34.7809 22.6867 35.112 22.6364 35.1952 22.3337L35.0526 22.1453C35.0681 22.1133 35.0745 22.0749 35.0965 22.0593C35.508 21.7849 35.872 21.6679 36.4527 21.6322L36.2268 22.1233C36.3668 22.1755 36.4884 22.223 36.611 22.266C36.7335 22.309 36.835 22.3401 37.0353 22.4023Z" fill="white"/>
<path d="M57.2527 27.951C56.868 27.7905 56.5147 27.5632 56.2092 27.2797C56.1027 27.195 55.9801 27.1327 55.8488 27.0968C55.3522 26.9276 55.3312 26.9029 55.3577 26.3651C55.362 26.3473 55.3685 26.3301 55.3769 26.3139C55.547 26.2435 55.6202 26.3935 55.7043 26.4813C55.8187 26.5992 55.9376 26.602 56.104 26.5462C56.318 26.9806 56.7241 27.191 57.1466 27.3794C57.2554 27.4278 57.3624 27.4809 57.4713 27.5303C57.753 27.6556 58.02 27.8046 58.1627 28.0955L58.4627 27.9208C58.534 28.1513 58.598 28.3561 58.6721 28.5939C58.4892 28.8381 58.2276 29.0448 57.9569 29.2835C57.9072 29.2155 57.864 29.1429 57.828 29.0667C57.774 28.8966 57.7036 28.775 57.5015 28.721C57.314 28.6707 57.1631 28.3415 57.1869 28.1385C57.2018 28.0737 57.2239 28.0108 57.2527 27.951Z" fill="white"/>
<path d="M34.5468 44.9152C34.3492 44.9956 34.2468 45.0606 34.138 45.0761C34.0054 45.0944 33.8636 45.0606 33.7301 45.0661C33.4209 45.0779 33.2353 44.9453 33.0899 44.6646C32.9941 44.4626 32.8551 44.2841 32.6827 44.1419C32.5102 43.9996 32.3086 43.8971 32.0921 43.8415C31.9265 43.8002 31.768 43.7342 31.622 43.6457C31.3071 43.4341 30.9248 43.3467 30.5492 43.4006C30.4598 43.4039 30.3702 43.3974 30.2822 43.3814C30.3005 43.29 30.295 43.2159 30.3306 43.1702C30.3759 43.1216 30.4361 43.0894 30.5017 43.0787C30.5695 43.0709 30.6382 43.0749 30.7047 43.0906C31.697 43.2506 32.6253 43.5726 33.4146 44.2155C33.6735 44.4384 33.9662 44.619 34.2816 44.7505C34.3734 44.7996 34.4621 44.8546 34.5468 44.9152Z" fill="white"/>
<path d="M39.9016 22.0712C39.9378 22.0058 39.981 21.9444 40.0305 21.8883C40.143 21.806 40.1613 21.7218 40.1155 21.5828C40.0479 21.377 40.0936 21.3011 40.2884 21.2426C40.4513 21.1979 40.6178 21.1673 40.7859 21.1511C40.921 21.1452 41.0514 21.0997 41.1609 21.0204C41.2586 20.9574 41.373 20.9255 41.4892 20.9289C41.9136 20.9188 42.3388 20.9289 42.7641 20.9289C42.7742 21.0816 42.6663 21.0789 42.6022 21.1118C42.3041 21.2737 41.984 21.4017 41.7069 21.5929C41.1792 21.9587 40.6012 22.0822 39.9016 22.0712Z" fill="white"/>
<path d="M34.3885 45.9285C34.5129 45.8124 34.5129 45.8124 35.1988 45.7237L34.9163 45.1923C35.4943 45.1384 36.257 45.4219 36.9466 45.9313C36.931 46.0227 36.867 46.0154 36.7984 46.0017C36.4963 45.9504 36.1869 45.9616 35.8893 46.0346C35.3883 46.1289 34.8714 46.0924 34.3885 45.9285Z" fill="white"/>
<path d="M55.4592 28.2893L55.9165 28.0269V27.7104C56.0286 27.6668 56.153 27.667 56.265 27.7109C56.377 27.7548 56.4684 27.8392 56.521 27.9473C56.6335 28.1348 56.7341 28.3287 56.8311 28.5244C56.8667 28.6005 56.889 28.6822 56.8969 28.7658C56.9108 28.8421 56.8939 28.9208 56.8498 28.9846C56.8057 29.0483 56.7381 29.092 56.6619 29.1061C56.5136 29.1233 56.3635 29.1143 56.2183 29.0795C56.1543 29.0649 56.0601 28.9597 56.0656 28.9058C56.0939 28.6424 55.9339 28.5473 55.7327 28.4668C55.6369 28.4152 55.5454 28.3558 55.4592 28.2893Z" fill="white"/>
<path d="M50.8032 25.5081C50.4154 25.4587 50.0715 25.3636 49.863 25.028C49.8478 25.0002 49.8388 24.9694 49.8368 24.9378C49.8347 24.9062 49.8396 24.8746 49.8511 24.8451C49.8703 24.8196 49.8959 24.7996 49.9253 24.7871C49.9547 24.7746 49.9868 24.77 50.0185 24.7737C50.3651 24.92 50.6788 24.8085 51.0053 24.6914C51.3492 24.567 51.5943 24.6695 51.7369 24.9594C51.7579 24.997 51.7644 25.0411 51.7551 25.0832C51.7459 25.1254 51.7215 25.1626 51.6866 25.188C51.5522 25.2923 50.9248 25.5099 50.8032 25.5081Z" fill="white"/>
<path d="M50.4639 21.1795C50.3811 21.1807 50.2984 21.174 50.2169 21.1594C49.7377 20.9802 49.2594 20.7973 48.782 20.6107C48.7327 20.5959 48.6874 20.5703 48.6494 20.5357C48.6082 20.4872 48.5579 20.4186 48.5579 20.3674C48.5679 20.3363 48.5856 20.3082 48.6092 20.2857C48.6329 20.2632 48.6617 20.2469 48.6933 20.2385C48.8448 20.2156 48.999 20.2156 49.1506 20.2385C49.6993 20.3418 50.1145 20.6372 50.4639 21.1795Z" fill="white"/>
<path d="M37.853 46.2212C38.1868 45.9413 38.4932 45.9889 38.8334 45.9797C38.817 46.0464 38.7921 46.1106 38.7593 46.1709C38.7116 46.2307 38.6497 46.2777 38.5793 46.3078C38.5089 46.3378 38.4322 46.3498 38.356 46.3428C38.1855 46.315 38.0173 46.2743 37.853 46.2212Z" fill="white"/>
</svg>
