<?xml version="1.0" encoding="utf-8"?>
<!-- Generator: Adobe Illustrator 25.4.0, SVG Export Plug-In . SVG Version: 6.00 Build 0)  -->
<svg version="1.1" id="Шар_1" xmlns="http://www.w3.org/2000/svg" xmlns:xlink="http://www.w3.org/1999/xlink" x="0px" y="0px"
	 viewBox="0 0 50 50" style="enable-background:new 0 0 50 50;" xml:space="preserve">
<style type="text/css">
	.st0{fill:#000;}
</style>
<g>
	<path class="st0" d="M25,40.5c-8.8,0-15.5-7.1-15.5-15.6c0-8.4,6.9-15.5,15.6-15.5c8.4,0,15.5,6.9,15.5,15.5
		C40.5,33.6,33.6,40.5,25,40.5z M38.2,32.1c0-0.1-0.1-0.1-0.1-0.2c0-0.4,0.1-0.8,0.2-1.1c0.1-0.2,0.1-0.3,0.1-0.5
		c0-0.2,0.1-0.3,0.2-0.5c0.2-0.2,0.2-0.5,0.2-0.8c0-0.1,0-0.2,0-0.3c0-0.1,0-0.2,0-0.3c-0.1-0.2-0.1-0.5-0.2-0.7
		c0-0.2-0.1-0.4-0.2-0.5c-0.1-0.1-0.1-0.2-0.1-0.4c0-0.1,0-0.1,0-0.2c0-0.3,0.1-0.5,0-0.8c0-0.1-0.1-0.2-0.2-0.2c-0.1,0-0.2,0-0.3,0
		c0-0.1-0.1-0.1-0.1-0.2c-0.1-0.1-0.2-0.1-0.3-0.1c-0.2,0.1-0.4,0.2-0.5,0.4c-0.1,0.1-0.1,0.2-0.2,0.2c-0.1,0.1-0.2,0.2-0.4,0.2
		c-0.1,0-0.2,0-0.3,0.1c-0.1,0.1-0.2,0.2-0.4,0.2c-0.1,0.1-0.3,0.1-0.4,0c-0.2-0.1-0.5-0.3-0.7-0.4c-0.1-0.1-0.2-0.2-0.3-0.4
		c0-0.1-0.1-0.2-0.2-0.3c-0.1-0.1-0.2-0.1-0.2-0.3c-0.1-0.1-0.2-0.2-0.3-0.3c-0.3-0.2-0.4-0.4-0.3-0.7c0-0.2,0.1-0.5,0.1-0.7
		c0-0.1,0-0.2,0-0.3c0,0-0.1,0-0.1-0.1c-0.1,0-0.1-0.1-0.1-0.1c-0.1-0.2-0.1-0.5-0.1-0.7c0-0.3,0-0.5,0-0.8c0-0.2,0.1-0.4,0.1-0.5
		c0-0.1,0.1-0.3,0.2-0.3c0.2-0.1,0.2-0.3,0.1-0.5c0-0.1,0-0.1-0.1-0.1c-0.1-0.3-0.1-0.6,0.1-0.8c0.1-0.1,0.1-0.2,0.1-0.4
		c0-0.1,0-0.1-0.1-0.2c-0.1-0.1-0.2-0.2-0.3-0.2c-0.1,0-0.2,0.1-0.3,0c0-0.1-0.1-0.1-0.1-0.2c0-0.1-0.1-0.1-0.2-0.2
		c-0.1-0.1-0.1-0.1-0.1-0.2c0-0.1,0-0.2-0.1-0.3c0-0.1-0.1-0.2-0.1-0.2c-0.2-0.3-0.1-0.4,0.2-0.4c0.1,0,0.2,0,0.3,0
		c0.1,0,0.2-0.1,0.3-0.2c-0.1-0.1-0.1-0.2-0.2-0.3c0-0.1-0.1-0.1-0.2-0.2c-0.2-0.1-0.4-0.3-0.6-0.2c0,0,0,0,0,0
		c-0.1,0-0.1-0.1-0.1-0.1c0.1,0,0.2-0.1,0.3-0.1c0,0,0,0,0,0c0,0-0.1-0.1-0.1-0.1c0.1,0,0.1,0,0.1,0c0-0.1,0-0.2,0-0.3
		c0-0.1,0.1-0.2,0.1-0.3c0,0,0,0,0-0.1c0-0.1,0-0.2,0-0.3c0-0.1,0.1-0.2,0.1-0.2c0,0-0.1-0.1-0.1-0.1c0.1,0,0.1,0,0.2-0.1
		c0.1,0,0.2,0.1,0.2,0.1c0-0.1,0-0.2,0-0.3c0,0,0,0,0,0c0,0,0.1,0,0.1,0c-0.1-0.3-0.3-0.4-0.5-0.6c0,0,0.1-0.1,0.1-0.1
		c0,0,0,0,0-0.1c-0.1,0-0.2-0.1-0.2-0.1c-0.1,0-0.2-0.1-0.2-0.2c0-0.1,0-0.1,0-0.2c0-0.1-0.1-0.1-0.1-0.2c0,0-0.1-0.1-0.2,0
		c0,0.1,0.2,0.2,0.1,0.4c0,0-0.1,0-0.1,0c0,0-0.1,0-0.1,0c-0.2-0.1-0.4-0.2-0.5-0.3c0,0-0.1-0.1-0.1,0c0.1,0.3,0.3,0.4,0.5,0.5
		c0.2,0.1,0.3,0.1,0.4,0.3c0.1,0.1,0.2,0.2,0.3,0.3c0,0,0,0,0.1,0c0,0.1,0,0.1,0,0.2c0,0-0.1,0.1-0.2,0.1c-0.1-0.1-0.2-0.2-0.3-0.3
		c-0.1-0.1-0.2-0.1-0.4-0.1c0,0.1,0,0.1,0,0.1c0,0,0,0-0.1,0c-0.2-0.1-0.4-0.1-0.6-0.3c-0.2-0.1-0.3-0.2-0.3-0.4
		c0-0.1,0-0.1-0.1-0.2c-0.1-0.2-0.1-0.3-0.3-0.4c-0.3-0.2-0.5-0.5-0.7-0.7c-0.1-0.1,0-0.2,0.1-0.2c0.1,0,0.1,0,0.2,0
		c0.2,0,0.4,0,0.6,0c0.3,0.1,0.3,0.1,0.3,0.3c0.1,0.1,0.2,0.1,0.3,0c0-0.1,0-0.1-0.1-0.2c0-0.1,0-0.1,0-0.2
		c-3.8-1.7-8.1-1.7-11.6-0.3c-0.2,0.4-0.1,0.3-0.5,0.8c0.1,0,0.3-0.1,0.4-0.1c0,0.1,0,0.2,0.1,0.2c0.1,0,0.1,0.1,0.1,0.2
		c-0.1,0.1-0.1,0.1-0.2,0.2c0.1,0.1,0.2,0.2,0.3,0.2c0.2,0,0.4,0,0.6,0.1c0.2,0.1,0.4,0,0.6-0.1c0.2-0.2,0.4-0.3,0.5-0.5
		c0,0,0.1-0.1,0.1-0.1c0,0.1,0,0.1,0,0.2c-0.1,0.1-0.2,0.2-0.3,0.2c-0.2,0.2-0.2,0.2-0.1,0.4c0.1,0.1,0.1,0.2,0,0.3
		c-0.1,0.2-0.2,0.3-0.4,0.4c-0.2,0-0.3,0.1-0.5,0.2c-0.1,0-0.3,0.1-0.4,0.1c-0.3,0.1-0.5,0.3-0.7,0.7c-0.1,0.2,0,0.3,0.1,0.4
		c0,0,0.1,0.1,0.1,0.1c0.2,0.1,0.4,0.2,0.6,0.3c0.1,0,0.2,0,0.2,0.1c-0.1,0.1-0.1,0.2-0.2,0.3c-0.1,0.1-0.1,0.3,0,0.4
		c0,0.1,0.2,0.1,0.3,0c0.1-0.1,0.1-0.2,0.2-0.3c0-0.2,0.1-0.3,0.3-0.5c0.1-0.1,0.1-0.1,0.2-0.2c0.2-0.1,0.2-0.1,0.1-0.4
		c-0.1-0.1-0.1-0.2,0.1-0.2c0.2-0.1,0.2-0.3,0.2-0.5c0-0.1,0-0.1,0-0.2c0.2,0,0.4,0.1,0.5,0.1c0.2,0.1,0.3,0.2,0.4,0.4
		c0,0.1,0,0.1,0.1,0.2c0,0,0.1,0.1,0.1,0.1c0,0,0.1-0.1,0.1-0.1c0-0.1,0.1-0.1,0.1-0.2c0.1-0.1,0.2-0.1,0.2,0c0,0,0.1,0.1,0.1,0.1
		c0.1,0.2,0.2,0.4,0.1,0.6c0,0.1,0,0.2,0.2,0.3c0.1,0.1,0.2,0.1,0.4,0.2c0.1,0,0.1,0.1,0.2,0.1c0.1,0.1,0.1,0.2,0.1,0.3
		c0,0.1-0.1,0.2-0.1,0.2c0,0.1-0.1,0.1-0.1,0.2c0.1,0.1,0.2,0.1,0.2,0.1c0.1,0,0.2,0.1,0.2,0.1c0.2,0.1,0.2,0.2,0.1,0.4
		c0,0.1-0.1,0.1-0.2,0.1C24.4,17,24.2,17,24,17c0,0-0.1,0-0.1,0c-0.1,0-0.1-0.1-0.1-0.2c0-0.1,0-0.1,0.1-0.2c0-0.1,0.1-0.2,0.1-0.4
		c-0.1,0.1-0.1,0.1-0.2,0.1c-0.2,0.2-0.4,0.3-0.6,0.3c-0.2,0-0.3,0.2-0.4,0.4c0,0.1,0,0.2,0.1,0.2c0.1,0,0.3,0,0.4,0
		c0,0,0.1-0.1,0.1-0.1c0,0,0.1,0,0.1,0c0,0.1,0,0.1,0,0.1c0,0.1-0.1,0.1-0.2,0.2c-0.3,0.1-0.5,0.2-0.8,0.3c0,0-0.1,0-0.1,0
		c0-0.2,0.2-0.2,0.3-0.4c0,0-0.1,0-0.1,0c-0.2,0.1-0.5,0.1-0.7,0.3c-0.1,0-0.1,0.1-0.2,0.2c-0.1,0.2-0.3,0.3-0.5,0.4
		c-0.3,0.1-0.5,0.3-0.7,0.5c-0.1,0.1-0.1,0.2-0.2,0.2c-0.1,0-0.1,0-0.2,0c0,0.1-0.1,0.3-0.1,0.4c0,0.2-0.1,0.3-0.3,0.4
		c-0.1,0-0.2,0.1-0.3,0.1c-0.3,0.1-0.5,0.3-0.8,0.5c-0.1,0.1-0.2,0.2-0.1,0.4c0,0.2,0.1,0.4,0.1,0.6c0.1,0.2,0,0.4-0.1,0.6
		c-0.2,0-0.3-0.1-0.3-0.3c0-0.1,0-0.1,0-0.2c0-0.2,0-0.4-0.1-0.6c0-0.1-0.1-0.2-0.2-0.2c-0.1,0-0.2,0-0.2-0.1
		c-0.1-0.1-0.2-0.1-0.3-0.1c-0.1,0-0.3,0-0.4-0.1c-0.1,0-0.1,0-0.2,0c-0.1,0-0.1,0.1-0.2,0.1c0,0-0.1,0-0.1,0
		c-0.2-0.1-0.4-0.1-0.7,0c-0.1,0-0.2,0.1-0.3,0.1c-0.2,0.1-0.3,0.3-0.4,0.5c-0.1,0.4-0.2,0.8-0.3,1.2c-0.1,0.2,0,0.4,0.1,0.6
		c0.1,0.2,0.2,0.3,0.3,0.5c0.3,0,0.4,0.2,0.5,0.3c0,0,0.1-0.1,0.1-0.1c0.1-0.1,0.2-0.3,0.3-0.4c0.1-0.1,0.1-0.1,0.2-0.2
		c0.1-0.1,0.2-0.1,0.3-0.1c0.1,0,0.2,0,0.3,0.1c-0.1,0.1-0.1,0.2-0.2,0.3c0,0.1-0.1,0.2-0.2,0.3c-0.1,0.1-0.1,0.1-0.1,0.3
		c0,0.2,0,0.3-0.1,0.4c0,0,0,0.1-0.1,0.1c0.1,0,0.2,0.1,0.3,0.1c0.1,0.1,0.2,0.1,0.3,0c0.2-0.1,0.3,0,0.4,0.1
		c0.1,0.1,0.2,0.2,0.1,0.3c0,0.1-0.1,0.2-0.1,0.3c-0.2,0.4-0.1,0.7,0.2,1.1c0.2,0.2,0.2,0.2,0.5,0.1c0.2-0.1,0.4-0.1,0.5,0.1
		c0.1,0.1,0.2,0.2,0.3,0.2c0.1-0.1,0.2-0.2,0.2-0.3c0.1-0.1,0.2-0.2,0.4-0.3c0.2-0.1,0.4-0.2,0.6-0.2c0.2-0.1,0.4-0.1,0.6,0.1
		c0.2,0.1,0.4,0.2,0.6,0.4c0.1,0.1,0.2,0.1,0.4,0.1c0.2,0,0.4,0,0.5,0c0.2,0,0.4,0,0.5,0.1c0.1,0.1,0.2,0.1,0.2,0.3
		c0,0.1,0.1,0.2,0.2,0.2c0,0,0.1,0,0.1,0c0.2,0,0.3,0.1,0.4,0.3c0.1,0.1,0.2,0.2,0.3,0.3c0.1,0.1,0.2,0.2,0.4,0.1c0,0,0.1,0,0.1,0
		c0.3-0.1,0.5,0,0.7,0.1c0,0,0.1,0,0.1,0.1c0.3,0.1,0.4,0.4,0.5,0.7c0,0.4,0.2,0.7,0.6,0.9c0,0,0.1,0,0.1,0c0.2-0.1,0.4-0.1,0.6,0
		c0.2,0.1,0.3,0.2,0.4,0.3c0.1,0.1,0.2,0.2,0.3,0.1c0.1-0.1,0.2,0,0.3,0.1c0.1,0.1,0.2,0.1,0.3,0c0.1,0,0.1,0,0.2,0
		c0.3,0,0.5,0,0.7,0.2c0,0,0.1,0.1,0.1,0.1c0.1,0.1,0.2,0.1,0.3,0.1c0.1,0,0.2,0,0.3,0c0.1,0.2,0.1,0.3,0.1,0.5c0,0.2,0,0.4-0.2,0.5
		c-0.1,0.1-0.3,0.3-0.4,0.4c-0.1,0.2-0.3,0.4-0.5,0.6c-0.1,0-0.1,0.1-0.1,0.2c0,0.1,0,0.1,0,0.2c0,0.1,0,0.2,0,0.3
		c-0.1,0.3-0.2,0.5-0.3,0.8c-0.1,0.1-0.2,0.3-0.2,0.4c-0.1,0.2-0.3,0.3-0.5,0.3c-0.1,0-0.2,0-0.3,0.1c-0.3,0.1-0.5,0.2-0.7,0.4
		c-0.2,0.1-0.3,0.2-0.3,0.4c0,0.1-0.1,0.2-0.2,0.3c-0.1,0.1-0.2,0.1-0.2,0.3c0,0-0.1,0.1-0.1,0.1c-0.2,0.1-0.3,0.3-0.5,0.4
		c-0.2,0.3-0.7,0.4-1,0.3c-0.1,0-0.2-0.1-0.3-0.2c-0.1-0.1-0.2-0.1-0.4-0.2c0,0-0.1,0-0.2,0c0.1,0.1,0.1,0.1,0.1,0.1
		c0.1,0.1,0.2,0.1,0.3,0.1c0.3,0.1,0.4,0.3,0.3,0.7c-0.3,0-0.6,0.1-0.9,0.1c0,0.1,0,0.2,0,0.3c-0.2,0-0.3-0.1-0.5,0
		c0,0.2,0.1,0.3,0.1,0.4c-0.1,0.1-0.2,0.1-0.3,0.2c0.1,0.1,0.2,0.1,0.2,0.2c-0.1,0.1-0.2,0.2-0.2,0.4c0,0.1,0.2,0.2,0.3,0.2
		c0.1,0,0.2,0.1,0.3,0.1c0,0,0.1,0,0,0.1c-0.3,0-0.5,0-0.8-0.1c-0.3-0.1-0.5-0.2-0.8-0.4c-0.2-0.1-0.3-0.2-0.3-0.4
		c-0.1-0.3-0.2-0.7-0.3-1c-0.1-0.4-0.1-0.7,0-1c0.1-0.1,0-0.2,0-0.4c-0.1-0.5-0.2-1-0.2-1.5c0-0.3,0-0.6-0.1-0.9
		c0-0.2-0.1-0.3-0.3-0.4c-0.3-0.2-0.5-0.3-0.8-0.5c-0.4-0.2-0.6-0.6-0.9-0.9c-0.3-0.6-0.7-1.1-1-1.7c0-0.1-0.1-0.1-0.1-0.2
		c-0.1-0.1-0.1-0.2,0-0.3c0.1-0.2,0.1-0.3,0.1-0.5c0-0.3,0-0.5,0.3-0.7c0.1-0.1,0.1-0.1,0.1-0.2c0-0.1,0.1-0.2,0.1-0.2
		c0,0,0.1,0,0.1-0.1c0.1-0.1,0.1-0.1,0.1-0.2c0-0.2,0-0.3,0-0.5c0-0.1,0-0.1,0-0.2c-0.1-0.2-0.2-0.4-0.3-0.6c0,0,0,0,0-0.1
		c0,0-0.1,0-0.1,0c-0.1,0-0.1,0.1-0.1,0.1C18,26.7,18,26.7,18,26.8c-0.1-0.1-0.2-0.2-0.3-0.2c-0.1-0.1-0.2-0.1-0.4-0.2
		c-0.1-0.2-0.1-0.2-0.2-0.3c-0.2-0.1-0.3-0.3-0.4-0.5c-0.1-0.2-0.1-0.3-0.2-0.5c0-0.1-0.1-0.2-0.2-0.3c-0.1,0-0.2-0.1-0.3-0.1
		c-0.3-0.1-0.5-0.3-0.7-0.6c0,0,0,0,0-0.1C15.2,24.1,15,24,14.9,24c-0.1,0-0.1,0-0.2,0c-0.1,0-0.2-0.1-0.3-0.2
		c-0.1-0.1-0.3-0.3-0.4-0.4c-0.1-0.1-0.2-0.2-0.3-0.3c0,0-0.1-0.1-0.1-0.1c0-0.1-0.1-0.2-0.2-0.3c-0.1-0.1-0.1-0.3-0.1-0.4
		c0.2-0.4,0.2-0.8,0.1-1.2c-0.1-0.3-0.1-0.6-0.1-0.8c0,0,0-0.1,0-0.1c-0.1-0.2,0-0.3,0-0.5c0-0.1,0.1-0.2,0-0.3
		c0,0.1-0.1,0.1-0.1,0.2c0,0.2-0.1,0.3-0.1,0.5c0,0.3,0,0.7-0.1,1c0,0.1,0,0.2,0,0.3c0,0,0,0.1-0.1,0.1c0-0.3-0.1-0.6-0.1-0.8
		c0-0.2,0-0.4,0.1-0.5C13,20,13,20,13,19.9c0-0.4,0.1-0.8,0.2-1.2c0.1-0.1,0.1-0.3,0-0.4c-0.1-0.1-0.1-0.2,0-0.3
		c0.1-0.3,0.2-0.6,0.3-0.9c0.1-0.3,0.3-0.6,0.6-0.9c0.2-0.2,0.4-0.4,0.6-0.6c0.2-0.2,0.4-0.5,0.5-0.8c0,0,0,0,0-0.1
		c0.1-0.3,0.2-0.5,0.5-0.6c0.2-0.1,0.4-0.3,0.5-0.5c0.1-0.2,0.2-0.3,0.4-0.4c0.1-0.1,0.3-0.2,0.3-0.3c0.1-0.2,0.2-0.4,0.3-0.6
		c0,0,0,0,0-0.1c-0.1,0-0.2,0.1-0.2,0.1c-1.7,1-3,2.4-4.2,4c-1.7,2.5-2.7,5.2-2.8,8.2c0,0.7,0,1.3,0.1,2c0.1,1,0.3,2,0.6,3
		c1.3,4.2,4.5,7.6,8.6,9.3c1.3,0.6,2.7,0.9,4.2,1.1c0.6,0.1,1.2,0.1,1.8,0.1c0.8,0,1.6-0.1,2.4-0.2c1.2-0.2,2.4-0.6,3.5-1.1
		c3-1.4,5.3-3.5,6.9-6.4C38.1,32.2,38.2,32.2,38.2,32.1C38.2,32.1,38.2,32.1,38.2,32.1C38.2,32.1,38.2,32.1,38.2,32.1z M37,16.6
		c-0.3-0.2-0.5-0.5-0.7-0.6c-0.1,0-0.1,0-0.2,0.1c0,0,0.1,0.1,0.1,0.1c0.1,0.1,0.3,0.3,0.4,0.4c0.1,0.1,0.1,0.2,0.1,0.3
		c-0.1,0-0.2-0.1-0.2-0.1c-0.1-0.2-0.3-0.2-0.5-0.3c0,0.1,0.1,0.2,0.1,0.3c0,0.1,0.1,0.2,0.1,0.3c0,0.1,0.1,0.2,0.1,0.3
		c-0.3-0.1-0.3-0.1-0.3-0.3c0,0,0-0.1,0-0.1c0-0.2-0.1-0.3-0.3-0.3c0,0-0.1,0-0.1,0c-0.3-0.1-0.6-0.2-0.8-0.4c0,0-0.1,0-0.1-0.1
		c0,0.3,0,0.3-0.3,0.3c-0.2,0-0.2,0.2-0.1,0.3c0,0.1,0.1,0.1,0.1,0.2c-0.2,0.3-0.2,0.3,0,0.6c0,0,0,0.1,0,0.1c0,0.1,0,0.1,0,0.2
		c0,0.2,0,0.5-0.3,0.6c-0.1,0-0.1,0.1-0.1,0.1c0,0.1,0,0.1,0.1,0.1c0.2,0.1,0.4,0,0.4-0.2c0,0,0-0.1,0-0.1c0-0.1,0.1-0.2,0.2-0.3
		c0.1,0,0.2-0.1,0.2-0.1c0.2-0.1,0.3-0.2,0.5-0.3c0-0.1,0-0.1,0-0.1c0-0.1,0-0.1,0.1-0.2c0.1,0,0.1,0,0.1,0c0.2,0.1,0.3,0.2,0.3,0.4
		c0.1,0.2,0.2,0.3,0.3,0.4c0,0,0.1,0,0.1,0c0.1-0.1,0.3,0,0.4,0.1c0,0,0.1,0.1,0.1,0.1c0.1,0,0.2-0.1,0.3-0.1c0-0.1-0.1-0.2-0.1-0.3
		c0-0.1-0.1-0.2-0.1-0.3c0-0.1,0.1-0.2,0.1-0.1c0.1,0,0.1,0,0.2,0.1c0.1,0,0.2,0,0.3,0c0-0.2,0-0.3-0.1-0.5
		c-0.1-0.2-0.2-0.4-0.4-0.6C37.1,16.4,37.1,16.4,37,16.6z M35.3,14.5c0.2,0.4,0.5,0.7,0.8,0.8c0-0.1,0.1-0.2,0-0.3
		c-0.2-0.2-0.4-0.4-0.6-0.6C35.4,14.4,35.3,14.5,35.3,14.5z M34.6,15.6c0.1,0.2,0.2,0.3,0.4,0.4c0.1,0.1,0.3,0.1,0.4,0.1
		c0.2,0,0.3,0.1,0.4,0.2c0,0,0,0.1,0.1,0c0-0.1-0.1-0.1-0.1-0.2c-0.1-0.1-0.2-0.2-0.3-0.2c-0.2,0-0.4-0.1-0.6-0.2
		C34.8,15.6,34.7,15.6,34.6,15.6z M30.9,12c0.1,0.1,0.1,0.1,0.2,0.1c0,0,0.1,0,0.1,0C31.1,12,31.1,12,30.9,12z"/>
	<path class="st0" d="M8.7,6.2C8.7,6.1,8.6,6,8.5,5.9C8.7,5.7,9,5.5,9.2,5.3c0.1,0.1,0.2,0.2,0.3,0.3c0.1-0.1,0.2-0.1,0.3-0.2
		C10.2,5.1,10.6,5,11.1,5c0.3,0,0.5,0.1,0.7,0.2c0.4,0.3,0.7,0.6,0.9,1.1c0.2,0.5,0.1,1-0.2,1.4c-0.1,0.2-0.3,0.4-0.4,0.5
		C12,8.4,12,8.4,11.9,8.5c0.1,0.1,0.2,0.2,0.2,0.3C12,9,11.6,9.3,11.4,9.5c0-0.1-0.1-0.1-0.1-0.2c0-0.1-0.1-0.1-0.1-0.2
		C11,9.2,11,9.3,10.9,9.3c-0.4,0.2-0.8,0.4-1.2,0.4c-0.3,0-0.5-0.1-0.8-0.2c-0.5-0.2-0.8-0.6-1-1.1C7.8,7.9,7.8,7.5,8.1,7
		c0.1-0.2,0.3-0.5,0.5-0.6C8.6,6.3,8.7,6.3,8.7,6.2z M10.6,8.5C10.6,8.4,10.6,8.4,10.6,8.5C10.6,8.4,10.5,8.4,10.6,8.5
		c-0.4-0.6-0.8-1.1-1.2-1.6c0,0,0,0,0,0c0,0,0,0,0,0c-0.4,0.3-0.7,1-0.2,1.5C9.5,8.9,10.2,8.9,10.6,8.5z M10,6.3
		c0.4,0.5,0.8,1,1.2,1.5c0,0,0.1,0.1,0.1,0.1c0.5-0.3,0.6-1,0.3-1.5C11.2,5.8,10.6,5.8,10,6.3z"/>
	<path class="st0" d="M17.5,49c0.1-0.6,0.3-1.1,0.4-1.7c0.1,0,0.3,0,0.4,0c0,0,0.1-0.1,0.1-0.2c0.4-0.6,0.6-1.2,0.8-1.8
		c0.1-0.4,0.2-0.7,0.3-1.1c0-0.1,0-0.1,0.1-0.2c0,0,0.1,0,0.1,0c1,0.2,1.9,0.4,2.9,0.7c0.1,0.1,0,0.2,0,0.2c-0.1,0.7-0.3,1.3-0.4,2
		c-0.1,0.3-0.2,0.7-0.2,1c0,0,0,0.1,0,0.1c0.1,0.1,0.3,0.1,0.5,0.2c0,0.2-0.1,0.3-0.1,0.5C22.1,49,22,49.2,22,49.4
		c-0.1,0.2-0.1,0.4-0.2,0.5c-0.3,0-0.5-0.1-0.8-0.1c0-0.3,0.1-0.6,0.2-0.8c0,0-0.1-0.1-0.1-0.1c-0.8-0.2-1.6-0.4-2.4-0.5
		c0,0,0,0-0.1,0c0,0,0,0.1-0.1,0.1c-0.1,0.2-0.1,0.4-0.2,0.5c0,0,0,0.1-0.1,0.2c-0.1,0-0.2,0-0.3,0C17.9,49.1,17.7,49,17.5,49z
		 M20.8,47.9c0.1-0.2,0.5-2.2,0.6-2.5c-0.4-0.1-0.8-0.2-1.2-0.3c-0.1,0.4-0.2,0.8-0.4,1.2c-0.1,0.4-0.3,0.8-0.6,1.1
		C19.5,47.6,20.1,47.8,20.8,47.9z"/>
	<path class="st0" d="M21.4,2.4c0.1,0,0.2,0.1,0.2,0.1c0.6,0.2,0.9,0.8,0.7,1.4c-0.1,0.2-0.2,0.3-0.3,0.5c-0.2,0.2-0.5,0.3-0.8,0.4
		c-0.3,0.1-0.6,0.1-1,0.2C19.9,5,19.6,5,19.2,5.1c-0.1,0-0.1,0-0.2,0c-0.1-0.2-0.7-3.3-0.8-4.2c0,0,0.1,0,0.1-0.1
		c0.6-0.1,1.2-0.2,1.8-0.4c0.3-0.1,0.6-0.1,0.8,0c0.8,0.2,1,1.2,0.5,1.7C21.5,2.3,21.5,2.3,21.4,2.4z M19.8,4.1
		c0.2,0,0.3-0.1,0.4-0.1C20.5,4,20.7,4,21,3.9c0.1,0,0.2-0.1,0.3-0.1c0.1-0.1,0.2-0.2,0.2-0.4c0-0.2-0.1-0.3-0.3-0.4
		c-0.1,0-0.2,0-0.4,0c-0.4,0.1-0.7,0.1-1.1,0.2c0,0-0.1,0-0.1,0.1c0,0.2,0.1,0.3,0.1,0.5C19.7,3.9,19.7,4,19.8,4.1z M19.4,2.4
		C19.5,2.4,19.5,2.4,19.4,2.4c0.4,0,0.6-0.1,0.9-0.1c0.1,0,0.2-0.1,0.3-0.1c0.2-0.1,0.2-0.3,0.2-0.5c0-0.2-0.2-0.3-0.4-0.3
		c-0.1,0-0.2,0-0.3,0c-0.3,0-0.5,0.1-0.8,0.2c0,0-0.1,0-0.1,0.1C19.3,1.9,19.4,2.2,19.4,2.4z"/>
	<path class="st0" d="M36.4,4.9c-1,0.5-1.9,1-2.9,1.5C33.2,6.3,33,6.2,32.7,6c0.2-0.3,0.3-0.6,0.5-0.9c0.2-0.3,0.3-0.6,0.5-0.9
		c0.2-0.3,0.3-0.6,0.5-0.9c0.2-0.3,0.3-0.6,0.5-0.9c0.3,0.1,0.5,0.3,0.8,0.4c-0.1,0.2-0.2,0.3-0.2,0.5c-0.1,0.2-0.2,0.3-0.3,0.5
		C35,3.8,34.9,4,34.8,4.1c-0.1,0.2-0.2,0.3-0.3,0.5c-0.1,0.2-0.2,0.3-0.3,0.5c0.4-0.2,0.7-0.4,1-0.5c0.3-0.2,0.6-0.3,1-0.5
		c0.3-0.2,0.6-0.3,1-0.5C37.5,3.7,37.8,3.9,38,4c-0.1,0.3-1.9,3.6-2,3.8c-0.3-0.1-0.5-0.3-0.8-0.4c0-0.1,0-0.2,0.1-0.2
		c0.3-0.6,0.7-1.3,1-1.9C36.3,5.1,36.4,5,36.4,4.9C36.4,5,36.4,4.9,36.4,4.9z"/>
	<path class="st0" d="M25.5,0.1c0.9,0,1.5,0.3,2,0.9c0.4,0.5,0.5,1,0.4,1.6c-0.1,1-0.7,1.6-1.6,1.8c-0.8,0.3-1.9,0-2.5-0.8
		c-0.4-0.5-0.5-1-0.4-1.6c0.1-1,0.9-1.7,1.6-1.9C25.2,0.1,25.4,0.1,25.5,0.1z M26.9,2.3c0-0.1,0-0.3-0.1-0.4c-0.3-1-1.5-1.1-2-0.7
		c-0.3,0.2-0.5,0.5-0.5,0.9c-0.1,0.8,0.4,1.7,1.4,1.6c0.3,0,0.5-0.1,0.7-0.3C26.8,3,26.9,2.7,26.9,2.3z"/>
	<path class="st0" d="M17.3,43.2c0.3,0.1,0.6,0.3,0.8,0.4c0,0.1,0,0.1-0.1,0.2c-0.6,1.2-1.2,2.4-1.8,3.5c0,0-0.1,0.1-0.1,0.1
		c-0.3-0.1-0.5-0.3-0.8-0.4c0.2-0.5,0.5-1,0.7-1.5c-0.2-0.1-1.2-0.7-1.5-0.8c0,0-0.1,0.1-0.1,0.2c-0.2,0.4-0.4,0.7-0.6,1.1
		c0,0.1-0.1,0.1-0.1,0.2c-0.2-0.1-0.7-0.3-0.8-0.4c0.6-1.2,1.2-2.5,1.9-3.7c0,0,0,0,0-0.1c0.2,0.1,0.7,0.3,0.8,0.4
		c-0.2,0.5-0.5,1-0.7,1.5c0.5,0.3,1,0.5,1.5,0.8c0.2-0.2,0.3-0.5,0.4-0.7C17.1,43.8,17.2,43.5,17.3,43.2z"/>
	<path class="st0" d="M6.3,34.9c0.1,0.3,0.3,0.6,0.4,0.9c0.1,0.3,0.3,0.6,0.5,0.9C7,36.8,6.7,36.9,6.5,37c0-0.1-0.1-0.1-0.1-0.2
		c-0.2-0.4-0.5-0.9-0.7-1.3c0-0.1-0.1-0.2-0.1-0.2c-0.3,0.1-0.5,0.3-0.8,0.4c0,0.1,0.1,0.1,0.1,0.2c0.3,0.5,0.6,1.1,0.9,1.6
		c0,0.1,0.1,0.2,0.1,0.2c-0.1,0-0.1,0.1-0.1,0.1c-0.2,0.1-0.4,0.2-0.6,0.3c0,0,0,0,0,0c0,0,0,0,0,0c-0.5-0.9-1-1.8-1.5-2.7
		c0,0,0,0,0-0.1c0,0,0,0,0,0c0,0,0,0,0,0c1.2-0.6,2.4-1.3,3.6-1.9c0,0,0.1,0,0.2-0.1c0,0,0.1,0.1,0.1,0.1c0.5,0.9,0.9,1.8,1.4,2.6
		c0,0,0,0,0,0.1c-0.1,0.1-0.2,0.1-0.3,0.2c-0.1,0.1-0.2,0.1-0.3,0.2c-0.1,0-0.1-0.1-0.1-0.2c-0.3-0.5-0.6-1.1-0.8-1.6
		c0-0.1-0.1-0.2-0.1-0.2C6.8,34.5,6.5,34.7,6.3,34.9z"/>
	<path class="st0" d="M14.2,41.6c-0.2,0.2-0.3,0.4-0.5,0.6c-0.1,0-0.1-0.1-0.2-0.1c-0.5-0.4-1-0.8-1.5-1.2c-0.1,0-0.1-0.1-0.2-0.1
		c-0.2,0.2-0.4,0.4-0.5,0.7c0.5,0.4,1,0.8,1.5,1.3c-0.1,0.1-0.2,0.2-0.2,0.3c-0.1,0.1-0.2,0.2-0.3,0.3c-0.1,0-0.2-0.1-0.2-0.1
		c-0.4-0.3-0.8-0.6-1.2-1c-0.1,0-0.1-0.1-0.2-0.1c-0.2,0.2-0.4,0.4-0.6,0.7c0.6,0.5,1.2,1,1.8,1.5c-0.1,0.2-0.3,0.4-0.5,0.6
		c0,0,0,0-0.1,0c0,0,0,0,0,0c-0.8-0.6-1.6-1.3-2.4-1.9c0,0-0.1-0.1-0.1-0.1c0,0,0-0.1,0.1-0.1c0.8-1,1.7-2.1,2.5-3.1
		c0,0,0-0.1,0.1-0.1c0.1,0,0.1,0.1,0.1,0.1C12.6,40.3,13.4,40.9,14.2,41.6C14.2,41.5,14.2,41.6,14.2,41.6z"/>
	<path class="st0" d="M44.7,35.8c-0.3,0.5-0.6,1-0.9,1.5c0.2,0.2,0.5,0.3,0.7,0.4c0.2,0.1,0.5,0.3,0.7,0.4c-0.1,0.2-0.3,0.6-0.5,0.8
		c-1.2-0.7-2.4-1.4-3.6-2.1c0,0,0,0-0.1,0c0.1-0.3,0.3-0.5,0.5-0.8c0.3,0.1,0.5,0.3,0.7,0.4c0.2,0.1,0.5,0.3,0.7,0.4
		c0.1-0.2,0.7-1.2,0.9-1.5c0,0-0.1-0.1-0.1-0.1c-0.4-0.2-0.7-0.4-1.1-0.6c-0.1,0-0.1-0.1-0.2-0.1c0.1-0.3,0.3-0.5,0.4-0.8
		c0.1,0,0.1,0,0.2,0.1c1.1,0.7,2.3,1.3,3.4,2c0,0,0.1,0.1,0.1,0.1c-0.1,0.2-0.3,0.6-0.5,0.8C45.7,36.3,45.2,36,44.7,35.8z"/>
	<path class="st0" d="M5.8,31.6c0-0.2-0.2-0.9-0.3-1.2c0,0-0.1,0-0.1,0c-0.5,0.1-0.9,0.2-1.4,0.3c-0.4,0.1-0.8,0.1-1.1,0.1
		c-0.1,0-0.3,0-0.4-0.1c-0.2-0.1-0.4-0.2-0.5-0.4c-0.1-0.3-0.2-0.5-0.2-0.9c0.2-0.1,0.5-0.1,0.7-0.1c0,0.1,0,0.1,0.1,0.2
		c0.1,0.2,0.2,0.3,0.4,0.4c0.2,0,0.4,0,0.6,0c0.5-0.1,1-0.2,1.5-0.3c0.3-0.1,0.6-0.1,0.8-0.2c0.1,0,0.1,0,0.2,0c0,0,0,0.1,0.1,0.1
		c0.3,0.9,0.5,1.9,0.8,2.8c-0.1,0-0.1,0-0.1,0.1c-1.3,0.4-2.6,0.7-3.9,1c0,0-0.1,0-0.1,0c-0.1-0.3-0.2-0.6-0.2-0.8
		c0.1-0.1,0.2-0.1,0.3-0.1c0.7-0.2,1.5-0.4,2.2-0.6c0.2-0.1,0.4-0.1,0.6-0.2C5.7,31.7,5.8,31.6,5.8,31.6z"/>
	<path class="st0" d="M14,2.5c0.2-0.1,0.4-0.2,0.7-0.3c0,0,0.1,0,0.1-0.1c1.1,1,2.3,2.1,3.4,3.2c-0.2,0.1-0.6,0.3-0.9,0.4
		c-0.2-0.2-0.5-0.5-0.7-0.7c-0.5,0.2-1.1,0.5-1.6,0.7c-0.1,0.2,0,0.4,0,0.5c0,0.2,0,0.3,0,0.5c-0.3,0.1-0.5,0.3-0.8,0.4
		c0-0.1,0-0.1,0-0.2c0-0.2,0-0.4,0-0.7c0-1.2,0-2.4-0.1-3.5C14,2.7,14,2.6,14,2.5z M15.9,4.4c-0.3-0.3-0.8-0.8-1-0.9
		c0,0.2,0,1.1,0.1,1.4C15.3,4.7,15.6,4.5,15.9,4.4z"/>
	<path class="st0" d="M43.9,40.3c-0.2,0.2-0.4,0.5-0.7,0.7c-0.3-0.1-0.6-0.2-0.9-0.4c-0.2,0.1-1.1,1.1-1.3,1.3
		c0.1,0.3,0.3,0.6,0.4,0.9c-0.1,0.2-0.5,0.5-0.6,0.7c-0.1-0.2-1.7-3.8-1.9-4.3c0.2-0.2,0.4-0.4,0.6-0.6
		C39.7,38.6,43.5,40.1,43.9,40.3z M40.1,39.7c0,0.2,0.4,1.1,0.6,1.3c0.2-0.1,0.6-0.6,0.7-0.8C41,40.1,40.6,39.9,40.1,39.7z"/>
	<path class="st0" d="M25.1,44.9c0.3,0,0.6,0,0.9,0c0.6,1.4,1.2,2.8,1.9,4.2c0,0,0,0.1,0,0.1c-0.3,0-0.6,0-0.9,0
		c0-0.1-0.1-0.1-0.1-0.2c-0.1-0.2-0.2-0.4-0.3-0.6c0-0.1-0.1-0.1-0.1-0.2c-0.6,0-1.2,0-1.8,0c-0.1,0.3-0.2,0.6-0.4,0.9
		c-0.2,0-0.3,0-0.5,0c-0.2,0-0.3,0-0.5,0c0-0.1,0-0.2,0-0.3c0.4-0.9,0.7-1.8,1.1-2.7c0.2-0.4,0.3-0.7,0.5-1.1
		C25,45.1,25.1,45,25.1,44.9z M26.1,47.4c-0.1-0.3-0.4-1.1-0.6-1.3c0,0,0,0,0,0.1c-0.2,0.4-0.3,0.8-0.4,1.1c0,0,0,0.1,0,0.1
		C25.4,47.4,25.7,47.4,26.1,47.4z"/>
	<path class="st0" d="M29.9,0.7c0.1,0,0.2,0,0.3,0.1c0.4,0.1,0.9,0.3,1.3,0.4c0.2,0.1,0.4,0.1,0.6,0.3c0.4,0.2,0.6,0.5,0.7,0.9
		c0.1,0.5,0,0.9-0.3,1.3c-0.3,0.4-0.6,0.5-1.1,0.5c-0.2,0-0.5,0-0.7-0.1C30.5,4,30.2,3.9,30,3.8c0,0.1-0.1,0.1-0.1,0.2
		c-0.1,0.3-0.1,0.5-0.2,0.8c0,0.1-0.1,0.2-0.1,0.2c-0.2,0-0.6-0.1-0.9-0.2c0-0.1,0-0.1,0-0.2c0.4-1.2,0.7-2.5,1.1-3.7
		C29.8,0.8,29.9,0.8,29.9,0.7z M30.2,3c0.2,0.1,0.4,0.1,0.6,0.2c0.1,0,0.2,0,0.3,0.1c0,0,0.1,0,0.1,0c0.3,0,0.5-0.2,0.6-0.5
		c0.1-0.3,0-0.5-0.3-0.7c0,0-0.1,0-0.1-0.1c-0.3-0.1-0.5-0.2-0.8-0.2C30.4,2.2,30.3,2.6,30.2,3z"/>
	<path class="st0" d="M37,44.6c0.2,0.4,0.5,0.7,0.7,1.1c-0.3,0.2-0.5,0.3-0.8,0.5c0,0,0,0,0,0c0,0,0,0,0,0c0,0,0-0.1-0.1-0.1
		c-0.7-1.1-1.5-2.3-2.3-3.4c0,0,0.1-0.1,0.1-0.1c0.4-0.3,0.9-0.6,1.3-0.9c0.1-0.1,0.3-0.2,0.5-0.2c0.6-0.2,1.3-0.1,1.7,0.5
		c0.1,0.2,0.2,0.4,0.3,0.6c0.1,0.3,0,0.6-0.1,0.9c-0.1,0.3-0.3,0.5-0.6,0.7c-0.2,0.1-0.3,0.2-0.5,0.3C37.2,44.5,37.1,44.5,37,44.6z
		 M36.6,43.9c0.2-0.2,0.4-0.3,0.7-0.4c0.1-0.1,0.2-0.1,0.2-0.2c0.2-0.3,0.1-0.8-0.3-1c-0.1-0.1-0.2-0.1-0.4,0
		c-0.1,0-0.2,0.1-0.3,0.1c-0.2,0.1-0.4,0.3-0.6,0.4c0,0,0,0,0,0.1C36.1,43.1,36.3,43.5,36.6,43.9z"/>
	<path class="st0" d="M47.9,30.2c0,0,0.1,0.1,0.1,0.1c0.3,0.5,0.3,1,0.2,1.5c0,0.1-0.1,0.2-0.1,0.3c-0.3,0.9-1,1.4-1.9,1.5
		c-1,0.1-2-0.6-2.3-1.6c-0.1-0.4-0.1-0.7,0-1.1c0.2-0.7,0.5-1.2,1.2-1.6c0.1,0.1,0.2,0.2,0.2,0.3c0.1,0.1,0.1,0.2,0.2,0.4
		c-0.1,0.1-0.2,0.2-0.3,0.3c-0.3,0.2-0.4,0.5-0.5,0.9c-0.1,0.3,0,0.7,0.3,0.9c0.3,0.4,1,0.6,1.5,0.5c0.6-0.2,1-0.8,0.9-1.5
		c0-0.2-0.1-0.4-0.2-0.6c0,0,0.1-0.1,0.1-0.1C47.5,30.4,47.7,30.3,47.9,30.2z"/>
	<path class="st0" d="M33.4,47.7c-0.4-1.1-0.8-2.1-1.2-3.1c-0.2,0-0.3,0.1-0.4,0.1c-0.1,0-0.2,0.1-0.4,0.1C31.3,44.9,31.2,45,31,45
		c0,0-0.1-0.1-0.1-0.1c-0.1-0.2-0.2-0.4-0.2-0.6c0,0,0,0,0,0c0,0,0,0,0,0c1.1-0.4,2.1-0.8,3.2-1.2c0,0,0,0,0.1,0
		c0.1,0.2,0.2,0.5,0.3,0.8c-0.2,0.1-0.4,0.2-0.6,0.3c-0.2,0.1-0.4,0.2-0.6,0.2c0,0.1,0,0.2,0.1,0.3c0.3,0.9,0.7,1.8,1,2.6
		c0,0.1,0.1,0.2,0.1,0.2C34.1,47.5,33.7,47.7,33.4,47.7z"/>
	<path class="st0" d="M40.6,7.2c-0.4,0.4-0.8,0.9-1.1,1.3c-0.4,0.4-0.7,0.8-1.1,1.3c-0.2-0.2-0.5-0.4-0.7-0.6
		c0.4-0.4,0.7-0.9,1.1-1.3c0.4-0.4,0.7-0.8,1.1-1.3c-0.1-0.1-0.2-0.2-0.3-0.3c-0.1-0.1-0.2-0.2-0.3-0.3c-0.1-0.1-0.2-0.2-0.3-0.3
		c0.2-0.2,0.4-0.4,0.6-0.6c0.3,0.2,0.5,0.4,0.7,0.6c0.2,0.2,0.4,0.4,0.7,0.6c0.2,0.2,0.4,0.4,0.7,0.6c0.2,0.2,0.4,0.4,0.7,0.6
		C42,7.6,41.8,7.8,41.6,8c-0.1,0-0.1-0.1-0.1-0.1c-0.2-0.2-0.4-0.4-0.6-0.5C40.7,7.3,40.7,7.2,40.6,7.2z"/>
	<path class="st0" d="M6.6,40.2c0-0.1-0.1-0.1-0.1-0.1c-0.2-0.2-0.3-0.4-0.5-0.6c0,0,0,0,0,0c0,0,0,0,0,0c1-0.8,2.1-1.7,3.1-2.5
		c0.1,0,0.1-0.1,0.2-0.1c0,0,0.1,0.1,0.1,0.1c0.6,0.7,1.2,1.4,1.7,2.1c0,0,0,0.1,0.1,0.1c-0.1,0.1-0.2,0.2-0.3,0.3
		c-0.1,0.1-0.2,0.2-0.3,0.3c0-0.1-0.1-0.1-0.1-0.1c-0.3-0.4-0.7-0.8-1-1.2c-0.1-0.1-0.1-0.1-0.2-0.2c-0.5,0.4-0.9,0.7-1.3,1.1
		C7.5,39.5,7.1,39.9,6.6,40.2z"/>
	<path class="st0" d="M30.5,46.2c0.1,0.3,0.1,0.6,0.2,0.8c0,0-0.1,0-0.1,0.1c-0.6,0.1-1.2,0.2-1.7,0.4c-0.1-0.3-0.1-0.6-0.2-0.8
		c0.1,0,0.1-0.1,0.1-0.1c0.5-0.1,1.1-0.2,1.6-0.3C30.4,46.2,30.5,46.2,30.5,46.2z"/>
	<path class="st0" d="M38.2,32.1C38.2,32.1,38.2,32.1,38.2,32.1C38.2,32.1,38.2,32.1,38.2,32.1C38.2,32.1,38.2,32.1,38.2,32.1z"/>
	<path class="st0" d="M23.7,11.5c0.1-0.1,0.1-0.1,0.2-0.1c0.1,0,0.2-0.1,0.3-0.2c0.1-0.1,0.1-0.1,0.2-0.1c0.3-0.1,0.6-0.1,0.9-0.2
		c0.4-0.1,0.6,0.1,0.8,0.4c0,0,0.1,0.1,0.1,0.1c0,0.1,0.1,0.2,0.2,0.2c0.1,0,0.2,0.1,0.3,0.2c0.1,0.2,0.3,0.3,0.4,0.5
		c0,0-0.1,0-0.1,0c-0.1,0-0.1,0-0.2,0c-0.1,0-0.1,0.1-0.1,0.1c0,0,0.1,0,0.1,0c0.1,0,0.1,0,0.2,0c0,0,0.1,0,0.1,0
		c0,0.1,0,0.1-0.1,0.1c-0.1,0.1-0.2,0.1-0.3,0.2c-0.1,0.1-0.2,0.1-0.3,0.2c0,0,0,0,0,0c-0.2,0.2-0.2,0.2-0.5,0.3c0,0.1,0,0.1,0,0.2
		c0,0,0,0.1,0,0.1C26,13.8,26,13.9,26,14.1c0,0.1,0,0.2,0,0.3c-0.2,0-0.5-0.1-0.7-0.2c-0.1-0.1-0.2-0.2-0.3-0.3
		c-0.1-0.2-0.3-0.5-0.4-0.7c0-0.1,0-0.2,0-0.2c0.1-0.1,0.1-0.1,0.2-0.2c0.1-0.1,0.1-0.1,0-0.2c-0.1-0.1-0.1-0.1-0.2-0.1
		c-0.1-0.1-0.2-0.2-0.3-0.3c0,0,0-0.1,0-0.1c-0.1-0.2-0.2-0.3-0.4-0.3C23.9,11.7,23.8,11.7,23.7,11.5z"/>
	<path class="st0" d="M22.3,12c0.2,0.1,0.2,0.1,0.5,0.1c0,0.1,0.1,0.1,0.1,0.2c0.1,0.1,0.1,0.1,0.2,0.1c0.1,0.1,0.1,0.1,0.2,0.2
		c0,0.1,0.1,0.2,0.2,0.2c0.1,0.1,0.3,0.2,0.4,0.4c-0.1,0.2-0.2,0.2-0.4,0.2c0,0-0.1,0-0.1,0c0,0-0.1,0-0.1,0c-0.1,0,0,0.1,0,0.1
		c0,0.1,0.1,0.1,0.1,0.2c0,0.1,0.1,0.1,0,0.2c-0.1,0-0.2,0-0.4,0c0,0.1,0,0.1,0.1,0.2c-0.1,0-0.1,0-0.2,0c-0.2-0.1-0.4-0.2-0.5-0.4
		c0-0.1,0-0.1,0-0.2c0.1-0.1,0.1-0.1,0.2-0.2c0.1-0.1,0.1-0.4,0-0.5c0,0,0,0-0.1,0c0,0,0,0-0.1,0c-0.3,0-0.3-0.1-0.5,0.1
		c0,0-0.1,0.1-0.1,0.1c-0.1,0.1-0.2,0.1-0.3,0c0,0,0-0.1,0-0.1c0-0.1,0.1-0.1,0.1-0.2c0.1-0.1,0.1-0.1,0.2-0.2c0-0.1,0-0.2,0-0.3
		C21.9,12.1,22.1,12.1,22.3,12z"/>
	<path class="st0" d="M21.1,11.8c-0.2,0.2-0.4,0.4-0.7,0.6c0,0-0.1,0-0.1-0.1c-0.1-0.1-0.2-0.1-0.3-0.1c-0.1,0-0.2,0-0.2,0
		c0-0.1,0-0.2,0-0.3c0.1-0.1,0.2-0.1,0.3-0.3c0,0,0-0.1-0.1-0.1c0,0,0,0,0,0c0.2-0.1,0.4-0.2,0.7-0.2c0,0.1-0.1,0.2-0.1,0.3
		c0.1,0,0.1,0.1,0.2,0.1C20.9,11.7,21,11.8,21.1,11.8z"/>
	<path class="st0" d="M31.7,14.7c-0.2-0.1-0.4-0.2-0.5-0.4c0,0-0.1-0.1-0.2-0.1c-0.3-0.1-0.3-0.1-0.3-0.4c0,0,0,0,0,0
		c0.1,0,0.1,0,0.2,0.1c0.1,0.1,0.1,0.1,0.2,0c0.1,0.2,0.3,0.3,0.5,0.4c0.1,0,0.1,0.1,0.2,0.1c0.1,0.1,0.3,0.1,0.4,0.3
		c0.1,0,0.1-0.1,0.2-0.1c0,0.1,0.1,0.2,0.1,0.4c-0.1,0.1-0.2,0.2-0.4,0.4c0-0.1-0.1-0.1-0.1-0.1c0-0.1-0.1-0.2-0.2-0.2
		c-0.1,0-0.2-0.2-0.2-0.3C31.6,14.8,31.7,14.7,31.7,14.7z"/>
	<path class="st0" d="M19.8,23.6c-0.1,0-0.2,0.1-0.2,0.1c-0.1,0-0.1,0-0.2,0c-0.2,0-0.3-0.1-0.3-0.2c-0.1-0.2-0.3-0.4-0.5-0.4
		c-0.1,0-0.2-0.1-0.2-0.1c-0.2-0.1-0.4-0.2-0.6-0.1c0,0-0.1,0-0.1,0c0,0,0-0.1,0-0.1c0,0,0.1,0,0.1,0c0,0,0.1,0,0.1,0
		c0.5,0.1,1,0.3,1.4,0.6c0.1,0.1,0.3,0.2,0.5,0.3C19.7,23.5,19.7,23.5,19.8,23.6z"/>
	<path class="st0" d="M22.6,11.6C22.6,11.6,22.6,11.5,22.6,11.6c0.1-0.1,0.1-0.2,0.1-0.3c0-0.1,0-0.1,0.1-0.2c0.1,0,0.2,0,0.3,0
		c0.1,0,0.1,0,0.2-0.1c0,0,0.1,0,0.2,0c0.2,0,0.4,0,0.7,0c0,0.1-0.1,0.1-0.1,0.1c-0.2,0.1-0.3,0.2-0.5,0.3
		C23.3,11.6,23,11.6,22.6,11.6z"/>
	<path class="st0" d="M19.7,24.1c0.1-0.1,0.1-0.1,0.4-0.1c0-0.1-0.1-0.2-0.1-0.3c0.3,0,0.7,0.1,1.1,0.4c0,0.1,0,0-0.1,0
		c-0.2,0-0.3,0-0.5,0C20.3,24.2,20,24.2,19.7,24.1z"/>
	<path class="st0" d="M30.7,14.9c0.1-0.1,0.2-0.1,0.2-0.1c0-0.1,0-0.1,0-0.2c0.1,0,0.2,0,0.3,0.1c0.1,0.1,0.1,0.2,0.2,0.3
		c0,0,0,0.1,0,0.1c0,0.1,0,0.2-0.1,0.2c-0.1,0-0.2,0-0.2,0c0,0-0.1-0.1-0.1-0.1c0-0.1-0.1-0.2-0.2-0.2
		C30.8,14.9,30.8,14.9,30.7,14.9z"/>
	<path class="st0" d="M28.3,13.4c-0.2,0-0.4-0.1-0.5-0.3c0,0,0-0.1,0-0.1c0,0,0.1,0,0.1,0c0.2,0.1,0.3,0,0.5,0
		c0.2-0.1,0.3,0,0.4,0.1c0,0,0,0.1,0,0.1C28.7,13.3,28.4,13.4,28.3,13.4z"/>
	<path class="st0" d="M28.1,11.2c-0.1,0-0.1,0-0.1,0c-0.3-0.1-0.5-0.2-0.8-0.3c0,0-0.1,0-0.1,0c0,0,0-0.1,0-0.1c0,0,0-0.1,0.1-0.1
		c0.1,0,0.2,0,0.2,0C27.7,10.7,27.9,10.9,28.1,11.2z"/>
	<path class="st0" d="M21.5,24.2c0.2-0.1,0.3-0.1,0.5-0.1c0,0,0,0.1,0,0.1c-0.1,0.1-0.1,0.1-0.2,0.1C21.7,24.3,21.6,24.3,21.5,24.2z
		"/>
</g>
</svg>
